<svg width="66" height="48" viewBox="0 0 66 48" fill="none" xmlns="http://www.w3.org/2000/svg">
<path fill-rule="evenodd" clip-rule="evenodd" d="M30.04 7.54751C31.8896 7.99505 32.8144 7.99505 34.6639 7.54751C34.8934 7.49198 35.383 7.49198 36.1327 7.54751C36.4632 7.54751 36.7309 7.80185 36.7309 8.11533C36.7308 8.20492 36.7087 8.2931 36.6664 8.372L34.6442 12.1597C37.9935 14.6675 39.657 17.8947 39.6345 21.8415C39.6238 23.7068 38.8214 28.5 32.3174 28.5C25.8133 28.5 24.9842 24.5918 25.0002 21.8416C25.0228 17.9671 26.6811 14.747 29.9755 12.1816L27.967 8.3692C27.8193 8.08873 27.939 7.74771 28.2345 7.60736C28.3182 7.56783 28.4096 7.54739 28.5021 7.54751C29.2657 7.48416 29.7783 7.48416 30.04 7.54751Z" stroke="#EA7B04"/>
<path d="M32.9088 19.1877H32.4501C32.3859 18.8787 32.2545 18.5882 32.0655 18.338H32.9088C33.0191 18.338 33.125 18.2933 33.2031 18.2136C33.2811 18.1339 33.325 18.0258 33.325 17.9131C33.325 17.8005 33.2811 17.6924 33.2031 17.6127C33.125 17.533 33.0191 17.4883 32.9088 17.4883H28.7468C28.6364 17.4883 28.5306 17.533 28.4525 17.6127C28.3745 17.6924 28.3306 17.8005 28.3306 17.9131C28.3306 18.0258 28.3745 18.1339 28.4525 18.2136C28.5306 18.2933 28.6364 18.338 28.7468 18.338H30.4116C30.9535 18.338 31.4113 18.6941 31.5836 19.1877H28.7468C28.6364 19.1877 28.5306 19.2325 28.4525 19.3122C28.3745 19.3919 28.3306 19.4999 28.3306 19.6126C28.3306 19.7253 28.3745 19.8334 28.4525 19.913C28.5306 19.9927 28.6364 20.0375 28.7468 20.0375H31.5836C31.4113 20.5312 30.9535 20.8872 30.4116 20.8872H28.7468C28.6645 20.8877 28.5842 20.9128 28.5159 20.9595C28.4475 21.0062 28.3941 21.0723 28.3622 21.1498C28.3303 21.2274 28.3219 21.313 28.3381 21.3955C28.3543 21.4781 28.3943 21.5538 28.453 21.6129L31.7817 25.011C31.8202 25.0507 31.8661 25.0823 31.9167 25.1039C31.9673 25.1254 32.0216 25.1365 32.0764 25.1365C32.1312 25.1365 32.1854 25.1254 32.236 25.1039C32.2866 25.0823 32.3325 25.0507 32.371 25.011C32.4491 24.9313 32.4929 24.8232 32.4929 24.7106C32.4929 24.5979 32.4491 24.4899 32.371 24.4102L29.7523 21.7369H30.4116C31.4163 21.7369 32.257 21.0062 32.4501 20.0375H32.9088C33.0191 20.0375 33.125 19.9927 33.2031 19.913C33.2811 19.8334 33.325 19.7253 33.325 19.6126C33.325 19.4999 33.2811 19.3919 33.2031 19.3122C33.125 19.2325 33.0191 19.1877 32.9088 19.1877Z" fill="#EA7B04"/>
<path d="M31.8539 12.4017C31.8539 12.0795 31.5939 11.8184 31.2731 11.8184C30.9524 11.8184 30.6924 12.0795 30.6924 12.4017V14.385C30.6924 14.7072 30.9524 14.9684 31.2731 14.9684C31.5939 14.9684 31.8539 14.7072 31.8539 14.385V12.4017Z" fill="#EA7B04"/>
<path d="M35.4202 11.4658H29.2643C28.9436 11.4658 28.6836 11.727 28.6836 12.0492C28.6836 12.3713 28.9436 12.6325 29.2643 12.6325H35.4202C35.741 12.6325 36.001 12.3713 36.001 12.0492C36.001 11.727 35.741 11.4658 35.4202 11.4658Z" fill="#EA7B04"/>
<path d="M40.4133 25.6992H36.8127C36.043 25.6992 35.4189 26.326 35.4189 27.0992C35.4189 27.8724 36.043 28.4992 36.8127 28.4992H40.4133C41.1831 28.4992 41.8071 27.8724 41.8071 27.0992C41.8071 26.326 41.1831 25.6992 40.4133 25.6992Z" fill="white" stroke="#EA7B04"/>
<path d="M38.9378 22.9004H35.3371C34.5674 22.9004 33.9434 23.5272 33.9434 24.3004C33.9434 25.0736 34.5674 25.7004 35.3371 25.7004H38.9378C39.7075 25.7004 40.3315 25.0736 40.3315 24.3004C40.3315 23.5272 39.7075 22.9004 38.9378 22.9004Z" fill="white" stroke="#EA7B04"/>
<path d="M40.4475 20.0996H36.8469C36.0771 20.0996 35.4531 20.7264 35.4531 21.4996C35.4531 22.2728 36.0771 22.8996 36.8469 22.8996H40.4475C41.2173 22.8996 41.8413 22.2728 41.8413 21.4996C41.8413 20.7264 41.2173 20.0996 40.4475 20.0996Z" fill="white" stroke="#EA7B04"/>
<path d="M8.90227 42.5V34.628H9.89827V41.648H13.3423V42.5H8.90227ZM16.229 42.644C15.613 42.644 15.161 42.452 14.873 42.068C14.585 41.676 14.441 41.108 14.441 40.364V36.668H15.437V40.232C15.437 40.776 15.521 41.172 15.689 41.42C15.865 41.668 16.145 41.792 16.529 41.792C16.833 41.792 17.101 41.716 17.333 41.564C17.573 41.404 17.829 41.152 18.101 40.808V36.668H19.085V42.5H18.269L18.185 41.588H18.149C17.877 41.908 17.589 42.164 17.285 42.356C16.981 42.548 16.629 42.644 16.229 42.644ZM21.0524 42.5V36.668H21.8684L21.9524 37.508H21.9884C22.2444 37.228 22.5244 36.996 22.8284 36.812C23.1324 36.62 23.4564 36.524 23.8004 36.524C24.2484 36.524 24.5964 36.624 24.8444 36.824C25.1004 37.016 25.2884 37.288 25.4084 37.64C25.7124 37.312 26.0204 37.044 26.3324 36.836C26.6444 36.628 26.9764 36.524 27.3284 36.524C27.9284 36.524 28.3724 36.72 28.6604 37.112C28.9564 37.496 29.1044 38.06 29.1044 38.804V42.5H28.1204V38.936C28.1204 38.392 28.0324 37.996 27.8564 37.748C27.6804 37.5 27.4084 37.376 27.0404 37.376C26.6084 37.376 26.1204 37.676 25.5764 38.276V42.5H24.5924V38.936C24.5924 38.392 24.5044 37.996 24.3284 37.748C24.1524 37.5 23.8764 37.376 23.5004 37.376C23.0684 37.376 22.5804 37.676 22.0364 38.276V42.5H21.0524ZM31.0016 44.96V36.668H31.8176L31.9016 37.34H31.9376C32.2016 37.116 32.4896 36.924 32.8016 36.764C33.1216 36.604 33.4536 36.524 33.7976 36.524C34.5496 36.524 35.1216 36.796 35.5136 37.34C35.9056 37.876 36.1016 38.596 36.1016 39.5C36.1016 40.156 35.9816 40.72 35.7416 41.192C35.5096 41.664 35.2016 42.024 34.8176 42.272C34.4416 42.52 34.0296 42.644 33.5816 42.644C33.3096 42.644 33.0376 42.584 32.7656 42.464C32.5016 42.344 32.2336 42.18 31.9616 41.972L31.9856 42.992V44.96H31.0016ZM33.4136 41.816C33.8936 41.816 34.2896 41.612 34.6016 41.204C34.9216 40.788 35.0816 40.22 35.0816 39.5C35.0816 38.86 34.9616 38.344 34.7216 37.952C34.4896 37.552 34.0976 37.352 33.5456 37.352C33.2976 37.352 33.0456 37.42 32.7896 37.556C32.5416 37.692 32.2736 37.888 31.9856 38.144V41.204C32.2496 41.428 32.5056 41.588 32.7536 41.684C33.0016 41.772 33.2216 41.816 33.4136 41.816ZM39.1818 42.644C38.7658 42.644 38.3698 42.568 37.9938 42.416C37.6178 42.256 37.2898 42.064 37.0098 41.84L37.5018 41.18C37.7578 41.38 38.0218 41.548 38.2938 41.684C38.5658 41.812 38.8738 41.876 39.2178 41.876C39.6018 41.876 39.8898 41.788 40.0818 41.612C40.2738 41.428 40.3698 41.212 40.3698 40.964C40.3698 40.764 40.3018 40.596 40.1658 40.46C40.0378 40.324 39.8698 40.212 39.6618 40.124C39.4618 40.028 39.2538 39.94 39.0378 39.86C38.7658 39.756 38.4978 39.64 38.2338 39.512C37.9698 39.376 37.7538 39.204 37.5858 38.996C37.4178 38.78 37.3338 38.508 37.3338 38.18C37.3338 37.708 37.5098 37.316 37.8618 37.004C38.2218 36.684 38.7178 36.524 39.3498 36.524C39.7098 36.524 40.0458 36.588 40.3578 36.716C40.6698 36.844 40.9378 37 41.1618 37.184L40.6818 37.808C40.4818 37.656 40.2738 37.532 40.0578 37.436C39.8418 37.34 39.6058 37.292 39.3498 37.292C38.9818 37.292 38.7098 37.376 38.5338 37.544C38.3658 37.712 38.2818 37.908 38.2818 38.132C38.2818 38.316 38.3418 38.468 38.4618 38.588C38.5818 38.7 38.7378 38.8 38.9298 38.888C39.1218 38.968 39.3258 39.052 39.5418 39.14C39.8218 39.244 40.0978 39.364 40.3698 39.5C40.6418 39.628 40.8658 39.804 41.0418 40.028C41.2258 40.244 41.3178 40.536 41.3178 40.904C41.3178 41.216 41.2338 41.504 41.0658 41.768C40.9058 42.032 40.6658 42.244 40.3458 42.404C40.0338 42.564 39.6458 42.644 39.1818 42.644ZM44.3892 42.644C43.7732 42.644 43.3212 42.452 43.0332 42.068C42.7452 41.676 42.6012 41.108 42.6012 40.364V36.668H43.5972V40.232C43.5972 40.776 43.6812 41.172 43.8492 41.42C44.0252 41.668 44.3052 41.792 44.6892 41.792C44.9932 41.792 45.2612 41.716 45.4932 41.564C45.7332 41.404 45.9892 41.152 46.2612 40.808V36.668H47.2452V42.5H46.4292L46.3452 41.588H46.3092C46.0372 41.908 45.7492 42.164 45.4452 42.356C45.1412 42.548 44.7892 42.644 44.3892 42.644ZM49.2125 42.5V36.668H50.0285L50.1125 37.508H50.1485C50.4045 37.228 50.6845 36.996 50.9885 36.812C51.2925 36.62 51.6165 36.524 51.9605 36.524C52.4085 36.524 52.7565 36.624 53.0045 36.824C53.2605 37.016 53.4485 37.288 53.5685 37.64C53.8725 37.312 54.1805 37.044 54.4925 36.836C54.8045 36.628 55.1365 36.524 55.4885 36.524C56.0885 36.524 56.5325 36.72 56.8205 37.112C57.1165 37.496 57.2645 38.06 57.2645 38.804V42.5H56.2805V38.936C56.2805 38.392 56.1925 37.996 56.0165 37.748C55.8405 37.5 55.5685 37.376 55.2005 37.376C54.7685 37.376 54.2805 37.676 53.7365 38.276V42.5H52.7525V38.936C52.7525 38.392 52.6645 37.996 52.4885 37.748C52.3125 37.5 52.0365 37.376 51.6605 37.376C51.2285 37.376 50.7405 37.676 50.1965 38.276V42.5H49.2125Z" fill="#606060"/>
</svg>
