<svg width="75" height="49" viewBox="0 0 75 49" fill="none" xmlns="http://www.w3.org/2000/svg">
<g clip-path="url(#clip0_7224_4675)">
<g clip-path="url(#clip1_7224_4675)">
<path d="M37.2822 9.1748C37.6009 8.94235 38.0476 8.94235 38.3662 9.1748L46.3076 14.9688C46.5222 15.1256 46.6484 15.3669 46.6484 15.6221V24.7256C46.6482 26.0967 45.4628 27.2089 44.001 27.209H31.6475C30.1856 27.209 29.0002 26.0967 29 24.7256V15.6221C29 15.3668 29.1261 15.1256 29.3408 14.9688L37.2822 9.1748ZM30.7656 16.0254V24.7256C30.7658 25.1497 31.1064 25.4999 31.5449 25.5479L31.6484 25.5537H34.2979V18.1035C34.2981 17.6792 34.6384 17.33 35.0771 17.2822L35.1797 17.2764H40.4746C40.9269 17.2766 41.2996 17.5963 41.3506 18.0078L41.3564 18.1035V25.5537H44.002C44.4891 25.5536 44.8836 25.1825 44.8838 24.7256V16.0264L37.8252 10.876L30.7656 16.0254ZM36.0625 25.5537H39.5918V18.9316H36.0625V25.5537Z" fill="#EA7B04"/>
</g>
<path d="M22.1934 41V32.472H23.2724V36.047H27.2374V32.472H28.3294V41H27.2374V36.983H23.2724V41H22.1934ZM33.0269 41.156C32.5156 41.156 32.0346 41.026 31.5839 40.766C31.1419 40.506 30.7822 40.129 30.5049 39.635C30.2362 39.141 30.1019 38.5473 30.1019 37.854C30.1019 37.1433 30.2362 36.541 30.5049 36.047C30.7822 35.553 31.1419 35.176 31.5839 34.916C32.0346 34.656 32.5156 34.526 33.0269 34.526C33.5469 34.526 34.0279 34.656 34.4699 34.916C34.9119 35.176 35.2672 35.553 35.5359 36.047C35.8132 36.541 35.9519 37.1433 35.9519 37.854C35.9519 38.5473 35.8132 39.141 35.5359 39.635C35.2672 40.129 34.9119 40.506 34.4699 40.766C34.0279 41.026 33.5469 41.156 33.0269 41.156ZM33.0269 40.272C33.5729 40.272 34.0106 40.051 34.3399 39.609C34.6779 39.1583 34.8469 38.5733 34.8469 37.854C34.8469 37.126 34.6779 36.5367 34.3399 36.086C34.0106 35.6353 33.5729 35.41 33.0269 35.41C32.4896 35.41 32.0519 35.6353 31.7139 36.086C31.3759 36.5367 31.2069 37.126 31.2069 37.854C31.2069 38.5733 31.3759 39.1583 31.7139 39.609C32.0519 40.051 32.4896 40.272 33.0269 40.272ZM37.6158 41V34.682H38.4998L38.5908 35.592H38.6298C38.9071 35.2887 39.2105 35.0373 39.5398 34.838C39.8691 34.63 40.2201 34.526 40.5928 34.526C41.0781 34.526 41.4551 34.6343 41.7238 34.851C42.0011 35.059 42.2048 35.3537 42.3348 35.735C42.6641 35.3797 42.9978 35.0893 43.3358 34.864C43.6738 34.6387 44.0335 34.526 44.4148 34.526C45.0648 34.526 45.5458 34.7383 45.8578 35.163C46.1785 35.579 46.3388 36.19 46.3388 36.996V41H45.2728V37.139C45.2728 36.5497 45.1775 36.1207 44.9868 35.852C44.7961 35.5833 44.5015 35.449 44.1028 35.449C43.6348 35.449 43.1061 35.774 42.5168 36.424V41H41.4508V37.139C41.4508 36.5497 41.3555 36.1207 41.1648 35.852C40.9741 35.5833 40.6751 35.449 40.2678 35.449C39.7998 35.449 39.2711 35.774 38.6818 36.424V41H37.6158ZM50.9551 41.156C50.3918 41.156 49.8805 41.026 49.4211 40.766C48.9618 40.4973 48.5978 40.116 48.3291 39.622C48.0605 39.128 47.9261 38.5387 47.9261 37.854C47.9261 37.1607 48.0605 36.567 48.3291 36.073C48.6065 35.579 48.9618 35.1977 49.3951 34.929C49.8285 34.6603 50.2835 34.526 50.7601 34.526C51.5661 34.526 52.1858 34.7947 52.6191 35.332C53.0611 35.8693 53.2821 36.5887 53.2821 37.49C53.2821 37.6027 53.2778 37.7153 53.2691 37.828C53.2691 37.932 53.2605 38.023 53.2431 38.101H48.9791C49.0225 38.7683 49.2305 39.3013 49.6031 39.7C49.9845 40.0987 50.4785 40.298 51.0851 40.298C51.3885 40.298 51.6658 40.2547 51.9171 40.168C52.1771 40.0727 52.4241 39.9513 52.6581 39.804L53.0351 40.506C52.7665 40.6793 52.4588 40.831 52.1121 40.961C51.7741 41.091 51.3885 41.156 50.9551 41.156ZM48.9661 37.334H52.3461C52.3461 36.6927 52.2075 36.2073 51.9301 35.878C51.6615 35.54 51.2801 35.371 50.7861 35.371C50.3441 35.371 49.9455 35.5443 49.5901 35.891C49.2435 36.229 49.0355 36.71 48.9661 37.334Z" fill="black"/>
</g>
<defs>
<clipPath id="clip0_7224_4675">
<rect width="74.6" height="48" fill="white" transform="translate(0.0996094 0.5)"/>
</clipPath>
<clipPath id="clip1_7224_4675">
<rect width="19" height="19" fill="white" transform="translate(27.9004 9)"/>
</clipPath>
</defs>
</svg>
