<svg width="33" height="50" viewBox="0 0 33 50" fill="none" xmlns="http://www.w3.org/2000/svg">
<path d="M4.19133 47V39.128H6.53133C7.06733 39.128 7.53533 39.192 7.93533 39.32C8.34333 39.448 8.65933 39.652 8.88333 39.932C9.11533 40.212 9.23133 40.584 9.23133 41.048C9.23133 41.44 9.13133 41.796 8.93133 42.116C8.73933 42.428 8.45533 42.644 8.07933 42.764V42.812C8.55133 42.9 8.93533 43.1 9.23133 43.412C9.53533 43.724 9.68733 44.152 9.68733 44.696C9.68733 45.208 9.55933 45.636 9.30333 45.98C9.05533 46.324 8.70733 46.58 8.25933 46.748C7.81133 46.916 7.29133 47 6.69933 47H4.19133ZM5.18733 42.476H6.35133C7.02333 42.476 7.50733 42.36 7.80333 42.128C8.09933 41.896 8.24733 41.58 8.24733 41.18C8.24733 40.724 8.09133 40.4 7.77933 40.208C7.47533 40.016 7.01533 39.92 6.39933 39.92H5.18733V42.476ZM5.18733 46.208H6.55533C7.23533 46.208 7.76333 46.084 8.13933 45.836C8.51533 45.58 8.70333 45.188 8.70333 44.66C8.70333 44.172 8.51533 43.816 8.13933 43.592C7.77133 43.36 7.24333 43.244 6.55533 43.244H5.18733V46.208ZM13.418 47.144C12.946 47.144 12.502 47.024 12.086 46.784C11.678 46.544 11.346 46.196 11.09 45.74C10.842 45.284 10.718 44.736 10.718 44.096C10.718 43.44 10.842 42.884 11.09 42.428C11.346 41.972 11.678 41.624 12.086 41.384C12.502 41.144 12.946 41.024 13.418 41.024C13.898 41.024 14.342 41.144 14.75 41.384C15.158 41.624 15.486 41.972 15.734 42.428C15.99 42.884 16.118 43.44 16.118 44.096C16.118 44.736 15.99 45.284 15.734 45.74C15.486 46.196 15.158 46.544 14.75 46.784C14.342 47.024 13.898 47.144 13.418 47.144ZM13.418 46.328C13.922 46.328 14.326 46.124 14.63 45.716C14.942 45.3 15.098 44.76 15.098 44.096C15.098 43.424 14.942 42.88 14.63 42.464C14.326 42.048 13.922 41.84 13.418 41.84C12.922 41.84 12.518 42.048 12.206 42.464C11.894 42.88 11.738 43.424 11.738 44.096C11.738 44.76 11.894 45.3 12.206 45.716C12.518 46.124 12.922 46.328 13.418 46.328ZM17.6539 47V41.168H18.4699L18.5539 42.008H18.5899C18.8699 41.728 19.1659 41.496 19.4779 41.312C19.7899 41.12 20.1459 41.024 20.5459 41.024C21.1619 41.024 21.6099 41.22 21.8899 41.612C22.1779 41.996 22.3219 42.56 22.3219 43.304V47H21.3379V43.436C21.3379 42.892 21.2499 42.496 21.0739 42.248C20.8979 42 20.6179 41.876 20.2339 41.876C19.9379 41.876 19.6699 41.952 19.4299 42.104C19.1979 42.256 18.9339 42.48 18.6379 42.776V47H17.6539ZM26.2084 47.144C25.4804 47.144 24.8964 46.88 24.4564 46.352C24.0164 45.816 23.7964 45.064 23.7964 44.096C23.7964 43.464 23.9124 42.92 24.1444 42.464C24.3844 42 24.6964 41.644 25.0804 41.396C25.4724 41.148 25.8884 41.024 26.3284 41.024C26.6644 41.024 26.9564 41.084 27.2044 41.204C27.4524 41.324 27.7044 41.488 27.9604 41.696L27.9124 40.7V38.456H28.9084V47H28.0924L28.0084 46.316H27.9724C27.7484 46.54 27.4844 46.736 27.1804 46.904C26.8764 47.064 26.5524 47.144 26.2084 47.144ZM26.4244 46.316C26.9364 46.316 27.4324 46.048 27.9124 45.512V42.464C27.6644 42.24 27.4244 42.084 27.1924 41.996C26.9684 41.9 26.7364 41.852 26.4964 41.852C26.1844 41.852 25.9004 41.948 25.6444 42.14C25.3964 42.324 25.1964 42.584 25.0444 42.92C24.8924 43.248 24.8164 43.636 24.8164 44.084C24.8164 44.78 24.9564 45.328 25.2364 45.728C25.5164 46.12 25.9124 46.316 26.4244 46.316Z" fill="#606060"/>
<path fill-rule="evenodd" clip-rule="evenodd" d="M12.78 3.06392C15.2681 3.66596 16.5122 3.66596 19.0003 3.06392C19.309 2.98921 19.9676 2.98921 20.9762 3.06392C21.4207 3.06392 21.7808 3.40606 21.7808 3.82777C21.7808 3.94829 21.751 4.06691 21.6941 4.17305L18.9737 9.26843C23.4794 12.642 25.7172 16.9834 25.6869 22.2927C25.6725 24.8021 24.5931 31.25 15.8436 31.25C7.09403 31.25 5.97874 25.9925 6.0003 22.2928C6.03061 17.0807 8.26152 12.749 12.6932 9.29793L9.99133 4.16928C9.79259 3.79198 9.95368 3.33323 10.3512 3.14443C10.4638 3.09124 10.5867 3.06375 10.7112 3.06392C11.7383 2.97869 12.428 2.97869 12.78 3.06392Z" stroke="#0A2B7D"/>
<path d="M16.6399 18.7227H16.0229C15.9366 18.3069 15.7598 17.9162 15.5056 17.5796H16.6399C16.7884 17.5796 16.9308 17.5194 17.0358 17.4122C17.1408 17.305 17.1998 17.1597 17.1998 17.0081C17.1998 16.8565 17.1408 16.7111 17.0358 16.6039C16.9308 16.4967 16.7884 16.4365 16.6399 16.4365H11.0411C10.8926 16.4365 10.7502 16.4967 10.6452 16.6039C10.5402 16.7111 10.4812 16.8565 10.4812 17.0081C10.4812 17.1597 10.5402 17.305 10.6452 17.4122C10.7502 17.5194 10.8926 17.5796 11.0411 17.5796H13.2806C14.0096 17.5796 14.6254 18.0586 14.8572 18.7227H11.0411C10.8926 18.7227 10.7502 18.7829 10.6452 18.8901C10.5402 18.9973 10.4812 19.1427 10.4812 19.2943C10.4812 19.4458 10.5402 19.5912 10.6452 19.6984C10.7502 19.8056 10.8926 19.8658 11.0411 19.8658H14.8572C14.6254 20.5299 14.0096 21.0089 13.2806 21.0089H11.0411C10.9304 21.0095 10.8224 21.0433 10.7304 21.1061C10.6384 21.1689 10.5665 21.2579 10.5237 21.3621C10.4808 21.4665 10.4695 21.5817 10.4913 21.6927C10.513 21.8037 10.5668 21.9056 10.6458 21.9851L15.1237 26.5563C15.1756 26.6098 15.2373 26.6523 15.3054 26.6813C15.3734 26.7103 15.4464 26.7252 15.5201 26.7252C15.5938 26.7252 15.6668 26.7103 15.7349 26.6813C15.8029 26.6523 15.8647 26.6098 15.9165 26.5563C16.0215 26.4491 16.0804 26.3038 16.0804 26.1522C16.0804 26.0007 16.0215 25.8553 15.9165 25.7482L12.3937 22.152H13.2806C14.6321 22.152 15.7631 21.1689 16.0229 19.8658H16.6399C16.7884 19.8658 16.9308 19.8056 17.0358 19.6984C17.1408 19.5912 17.1998 19.4458 17.1998 19.2943C17.1998 19.1427 17.1408 18.9973 17.0358 18.8901C16.9308 18.7829 16.7884 18.7227 16.6399 18.7227Z" fill="#0A2B7D"/>
<path d="M15.2207 9.59478C15.2207 9.16139 14.8709 8.81006 14.4394 8.81006C14.008 8.81006 13.6582 9.16139 13.6582 9.59478V12.2629C13.6582 12.6962 14.008 13.0476 14.4394 13.0476C14.8709 13.0476 15.2207 12.6962 15.2207 12.2629V9.59478Z" fill="#0A2B7D"/>
<path d="M20.0174 8.33496H11.7363C11.3049 8.33496 10.9551 8.68629 10.9551 9.11969C10.9551 9.55308 11.3049 9.90441 11.7363 9.90441H20.0174C20.4489 9.90441 20.7987 9.55308 20.7987 9.11969C20.7987 8.68629 20.4489 8.33496 20.0174 8.33496Z" fill="#0A2B7D"/>
<path d="M26.7362 27.4819H21.8925C20.857 27.4819 20.0176 28.3251 20.0176 29.3653C20.0176 30.4054 20.857 31.2486 21.8925 31.2486H26.7362C27.7717 31.2486 28.6112 30.4054 28.6112 29.3653C28.6112 28.3251 27.7717 27.4819 26.7362 27.4819Z" fill="white" stroke="#0A2B7D"/>
<path d="M24.7499 23.7173H19.9062C18.8707 23.7173 18.0312 24.5605 18.0312 25.6006C18.0312 26.6408 18.8707 27.484 19.9062 27.484H24.7499C25.7854 27.484 26.6249 26.6408 26.6249 25.6006C26.6249 24.5605 25.7854 23.7173 24.7499 23.7173Z" fill="white" stroke="#0A2B7D"/>
<path d="M26.7811 19.9492H21.9375C20.902 19.9492 20.0625 20.7924 20.0625 21.8326C20.0625 22.8727 20.902 23.7159 21.9375 23.7159H26.7811C27.8167 23.7159 28.6561 22.8727 28.6561 21.8326C28.6561 20.7924 27.8167 19.9492 26.7811 19.9492Z" fill="white" stroke="#0A2B7D"/>
</svg>
