<svg width="67" height="61" viewBox="0 0 67 61" fill="none" xmlns="http://www.w3.org/2000/svg">
<g clip-path="url(#clip0_7224_4707)">
<g clip-path="url(#clip1_7224_4707)">
<path d="M33.9785 15C32.1325 15.0035 30.3273 15.5433 28.7828 16.5537C27.2384 17.564 26.0213 19.0013 25.2799 20.6905C24.5385 22.3796 24.3047 24.2478 24.607 26.0673C24.9094 27.8869 25.7348 29.5793 26.9827 30.9385C27.874 31.9038 28.9558 32.6741 30.1598 33.2011C31.3638 33.728 32.6641 34 33.9785 34C35.293 34 36.5932 33.728 37.7972 33.2011C39.0013 32.6741 40.083 31.9038 40.9743 30.9385C42.2222 29.5793 43.0477 27.8869 43.35 26.0673C43.6523 24.2478 43.4186 22.3796 42.6771 20.6905C41.9357 19.0013 40.7187 17.564 39.1742 16.5537C37.6298 15.5433 35.8246 15.0035 33.9785 15ZM33.9785 32.1177C32.0068 32.1147 30.1131 31.3477 28.696 29.978C29.1262 28.9315 29.8582 28.0364 30.7988 27.4064C31.7394 26.7765 32.8462 26.4401 33.9785 26.4401C35.1109 26.4401 36.2177 26.7765 37.1583 27.4064C38.0989 28.0364 38.8308 28.9315 39.261 29.978C37.8439 31.3477 35.9502 32.1147 33.9785 32.1177ZM32.0749 22.6079C32.0749 22.2317 32.1865 21.864 32.3957 21.5512C32.6049 21.2384 32.9022 20.9946 33.25 20.8507C33.5979 20.7067 33.9806 20.6691 34.3499 20.7424C34.7192 20.8158 35.0583 20.997 35.3246 21.263C35.5908 21.529 35.7721 21.8679 35.8456 22.2368C35.919 22.6058 35.8813 22.9882 35.7372 23.3357C35.5931 23.6833 35.3492 23.9803 35.0361 24.1893C34.7231 24.3983 34.355 24.5098 33.9785 24.5098C33.4736 24.5098 32.9895 24.3094 32.6325 23.9528C32.2755 23.5961 32.0749 23.1123 32.0749 22.6079ZM40.5555 28.3138C39.7051 26.8604 38.3962 25.73 36.8339 25.0994C37.3186 24.5504 37.6343 23.8733 37.7434 23.1494C37.8524 22.4255 37.75 21.6855 37.4486 21.0183C37.1471 20.3511 36.6594 19.7849 36.0439 19.3878C35.4283 18.9907 34.7112 18.7794 33.9785 18.7794C33.2458 18.7794 32.5287 18.9907 31.9132 19.3878C31.2977 19.7849 30.8099 20.3511 30.5085 21.0183C30.207 21.6855 30.1046 22.4255 30.2137 23.1494C30.3227 23.8733 30.6385 24.5504 31.1231 25.0994C29.5608 25.73 28.2519 26.8604 27.4015 28.3138C26.7238 27.1603 26.3657 25.8474 26.3641 24.5098C26.3641 22.4921 27.1663 20.557 28.5943 19.1303C30.0223 17.7035 31.959 16.902 33.9785 16.902C35.998 16.902 37.9348 17.7035 39.3628 19.1303C40.7907 20.557 41.593 22.4921 41.593 24.5098C41.5913 25.8474 41.2332 27.1603 40.5555 28.3138Z" fill="#EA7B04"/>
</g>
</g>
<path d="M17.297 47V38.472H19.728C20.3693 38.472 20.9283 38.55 21.405 38.706C21.8816 38.862 22.2543 39.1263 22.523 39.499C22.7916 39.863 22.926 40.357 22.926 40.981C22.926 41.8737 22.6356 42.5367 22.055 42.97C21.4743 43.4033 20.716 43.62 19.78 43.62H18.376V47H17.297ZM18.376 42.736H19.65C20.3953 42.736 20.9456 42.5973 21.301 42.32C21.665 42.034 21.847 41.5877 21.847 40.981C21.847 40.3657 21.6563 39.941 21.275 39.707C20.9023 39.4643 20.3433 39.343 19.598 39.343H18.376V42.736ZM24.5562 47V40.682H25.4402L25.5312 41.826H25.5702C25.7869 41.4273 26.0512 41.111 26.3632 40.877C26.6752 40.643 27.0089 40.526 27.3642 40.526C27.6156 40.526 27.8409 40.5693 28.0402 40.656L27.8322 41.592C27.7282 41.5573 27.6329 41.5313 27.5462 41.514C27.4596 41.4967 27.3512 41.488 27.2212 41.488C26.9526 41.488 26.6709 41.5963 26.3762 41.813C26.0902 42.0297 25.8389 42.4067 25.6222 42.944V47H24.5562ZM31.3931 47.156C30.8818 47.156 30.4008 47.026 29.9501 46.766C29.5081 46.506 29.1485 46.129 28.8711 45.635C28.6025 45.141 28.4681 44.5473 28.4681 43.854C28.4681 43.1433 28.6025 42.541 28.8711 42.047C29.1485 41.553 29.5081 41.176 29.9501 40.916C30.4008 40.656 30.8818 40.526 31.3931 40.526C31.9131 40.526 32.3941 40.656 32.8361 40.916C33.2781 41.176 33.6335 41.553 33.9021 42.047C34.1795 42.541 34.3181 43.1433 34.3181 43.854C34.3181 44.5473 34.1795 45.141 33.9021 45.635C33.6335 46.129 33.2781 46.506 32.8361 46.766C32.3941 47.026 31.9131 47.156 31.3931 47.156ZM31.3931 46.272C31.9391 46.272 32.3768 46.051 32.7061 45.609C33.0441 45.1583 33.2131 44.5733 33.2131 43.854C33.2131 43.126 33.0441 42.5367 32.7061 42.086C32.3768 41.6353 31.9391 41.41 31.3931 41.41C30.8558 41.41 30.4181 41.6353 30.0801 42.086C29.7421 42.5367 29.5731 43.126 29.5731 43.854C29.5731 44.5733 29.7421 45.1583 30.0801 45.609C30.4181 46.051 30.8558 46.272 31.3931 46.272ZM36.164 47V41.553H35.306V40.747L36.164 40.682V39.681C36.164 39.0397 36.3113 38.5327 36.606 38.16C36.9093 37.7787 37.3773 37.588 38.01 37.588C38.2093 37.588 38.4 37.6097 38.582 37.653C38.764 37.6877 38.9243 37.7353 39.063 37.796L38.829 38.615C38.595 38.511 38.3567 38.459 38.114 38.459C37.5247 38.459 37.23 38.8663 37.23 39.681V40.682H38.569V41.553H37.23V47H36.164ZM39.7779 47V40.682H40.8439V47H39.7779ZM40.3239 39.382C40.1159 39.382 39.9426 39.3213 39.8039 39.2C39.6739 39.07 39.6089 38.8967 39.6089 38.68C39.6089 38.472 39.6739 38.303 39.8039 38.173C39.9426 38.043 40.1159 37.978 40.3239 37.978C40.5319 37.978 40.7009 38.043 40.8309 38.173C40.9696 38.303 41.0389 38.472 41.0389 38.68C41.0389 38.8967 40.9696 39.07 40.8309 39.2C40.7009 39.3213 40.5319 39.382 40.3239 39.382ZM44.1081 47.156C43.7095 47.156 43.4191 47.0347 43.2371 46.792C43.0638 46.5407 42.9771 46.1853 42.9771 45.726V37.744H44.0431V45.804C44.0431 45.9687 44.0735 46.09 44.1341 46.168C44.1948 46.2373 44.2641 46.272 44.3421 46.272C44.3768 46.272 44.4071 46.272 44.4331 46.272C44.4678 46.2633 44.5155 46.2547 44.5761 46.246L44.7191 47.052C44.6498 47.0867 44.5675 47.1127 44.4721 47.13C44.3768 47.1473 44.2555 47.156 44.1081 47.156ZM48.8516 47.156C48.2883 47.156 47.7769 47.026 47.3176 46.766C46.8583 46.4973 46.4943 46.116 46.2256 45.622C45.9569 45.128 45.8226 44.5387 45.8226 43.854C45.8226 43.1607 45.9569 42.567 46.2256 42.073C46.5029 41.579 46.8583 41.1977 47.2916 40.929C47.7249 40.6603 48.1799 40.526 48.6566 40.526C49.4626 40.526 50.0823 40.7947 50.5156 41.332C50.9576 41.8693 51.1786 42.5887 51.1786 43.49C51.1786 43.6027 51.1743 43.7153 51.1656 43.828C51.1656 43.932 51.1569 44.023 51.1396 44.101H46.8756C46.9189 44.7683 47.1269 45.3013 47.4996 45.7C47.8809 46.0987 48.3749 46.298 48.9816 46.298C49.2849 46.298 49.5623 46.2547 49.8136 46.168C50.0736 46.0727 50.3206 45.9513 50.5546 45.804L50.9316 46.506C50.6629 46.6793 50.3553 46.831 50.0086 46.961C49.6706 47.091 49.2849 47.156 48.8516 47.156ZM46.8626 43.334H50.2426C50.2426 42.6927 50.1039 42.2073 49.8266 41.878C49.5579 41.54 49.1766 41.371 48.6826 41.371C48.2406 41.371 47.8419 41.5443 47.4866 41.891C47.1399 42.229 46.9319 42.71 46.8626 43.334Z" fill="black"/>
<defs>
<clipPath id="clip0_7224_4707">
<rect width="19" height="19" fill="white" transform="translate(24.4004 15)"/>
</clipPath>
<clipPath id="clip1_7224_4707">
<rect width="19" height="19" fill="white" transform="translate(24.4785 15)"/>
</clipPath>
</defs>
</svg>
