<svg width="49" height="50" viewBox="0 0 49 50" fill="none" xmlns="http://www.w3.org/2000/svg">
<path d="M25.4115 31.3661C25.1973 31.4301 24.9692 31.4301 24.755 31.3661C22.6742 30.7443 20.6556 29.5772 18.9174 27.9908C17.1942 26.418 15.7402 24.427 14.7127 22.2329C12.9134 18.3913 12.9624 14.2462 13.0193 9.44658C13.023 9.13129 13.0268 8.8126 13.0301 8.49021V8.49014C13.0361 7.89966 13.4898 7.41038 14.0781 7.35975H14.0782C17.9641 7.02544 21.7031 5.53715 24.3366 3.27656C24.7661 2.90781 25.4005 2.90781 25.83 3.27656C28.4635 5.53715 32.2025 7.02541 36.0883 7.35975H36.0884C36.6767 7.41038 37.1304 7.89966 37.1364 8.49014V8.49021C37.1396 8.79721 37.1432 9.10087 37.1467 9.40133L37.1472 9.44652C37.2041 14.2461 37.2531 18.3912 35.4538 22.2329C34.4263 24.4269 32.9723 26.418 31.2491 27.9908C29.5109 29.5772 27.4923 30.7443 25.4115 31.3661ZM14.4296 8.67459L14.4275 8.87385C14.4244 9.18279 14.4208 9.48824 14.4172 9.79032C14.3641 14.2752 14.3183 18.1485 15.9548 21.6426C16.8895 23.6385 18.2105 25.4483 19.775 26.8761C21.3413 28.3056 23.1551 29.3558 25.0205 29.9132L25.0833 29.932L25.1461 29.9132C27.0114 29.3558 28.8253 28.3056 30.3915 26.8761C31.956 25.4483 33.277 23.6385 34.2117 21.6427C35.8483 18.1484 35.8024 14.2752 35.7493 9.79035L35.7488 9.74707C35.7454 9.45912 35.742 9.16809 35.739 8.87392L35.7369 8.67466L35.5384 8.65759C31.6411 8.32228 27.8824 6.82223 25.2261 4.54204L25.0832 4.41939L24.9404 4.54204C22.2841 6.82223 18.5254 8.32228 14.6281 8.65759L14.4296 8.67459Z" fill="#0A2B7D"/>
<path d="M23.7096 20.9793C23.555 20.9793 23.4079 20.9126 23.3061 20.7962L20.3359 17.4028C20.1408 17.1799 20.1633 16.8411 20.3862 16.6461C20.6091 16.451 20.9479 16.4735 21.143 16.6964L23.7097 19.6288L29.0258 13.5552C29.221 13.3323 29.5597 13.3097 29.7826 13.5049C30.0054 13.6999 30.028 14.0387 29.8329 14.2616L24.1132 20.7962C24.0113 20.9126 23.8642 20.9793 23.7096 20.9793Z" fill="#0A2B7D"/>
<path d="M1.12297 47V39.128H2.11897V47H1.12297ZM4.17931 47V41.168H4.99531L5.07931 42.008H5.11531C5.39531 41.728 5.69131 41.496 6.00331 41.312C6.31531 41.12 6.67131 41.024 7.07131 41.024C7.68731 41.024 8.13531 41.22 8.41531 41.612C8.70331 41.996 8.84731 42.56 8.84731 43.304V47H7.86331V43.436C7.86331 42.892 7.77531 42.496 7.59931 42.248C7.42331 42 7.14331 41.876 6.75931 41.876C6.46331 41.876 6.19531 41.952 5.95531 42.104C5.72331 42.256 5.45931 42.48 5.16331 42.776V47H4.17931ZM12.2658 47.144C11.8498 47.144 11.4538 47.068 11.0778 46.916C10.7018 46.756 10.3738 46.564 10.0938 46.34L10.5858 45.68C10.8418 45.88 11.1058 46.048 11.3778 46.184C11.6498 46.312 11.9578 46.376 12.3018 46.376C12.6858 46.376 12.9738 46.288 13.1658 46.112C13.3578 45.928 13.4538 45.712 13.4538 45.464C13.4538 45.264 13.3858 45.096 13.2498 44.96C13.1218 44.824 12.9538 44.712 12.7458 44.624C12.5458 44.528 12.3378 44.44 12.1218 44.36C11.8498 44.256 11.5818 44.14 11.3178 44.012C11.0538 43.876 10.8378 43.704 10.6698 43.496C10.5018 43.28 10.4178 43.008 10.4178 42.68C10.4178 42.208 10.5938 41.816 10.9458 41.504C11.3058 41.184 11.8018 41.024 12.4338 41.024C12.7938 41.024 13.1298 41.088 13.4418 41.216C13.7538 41.344 14.0218 41.5 14.2458 41.684L13.7658 42.308C13.5658 42.156 13.3578 42.032 13.1418 41.936C12.9258 41.84 12.6898 41.792 12.4338 41.792C12.0658 41.792 11.7938 41.876 11.6178 42.044C11.4498 42.212 11.3658 42.408 11.3658 42.632C11.3658 42.816 11.4258 42.968 11.5458 43.088C11.6658 43.2 11.8218 43.3 12.0138 43.388C12.2058 43.468 12.4098 43.552 12.6258 43.64C12.9058 43.744 13.1818 43.864 13.4538 44C13.7258 44.128 13.9498 44.304 14.1258 44.528C14.3098 44.744 14.4018 45.036 14.4018 45.404C14.4018 45.716 14.3178 46.004 14.1498 46.268C13.9898 46.532 13.7498 46.744 13.4298 46.904C13.1178 47.064 12.7298 47.144 12.2658 47.144ZM17.4732 47.144C16.8572 47.144 16.4052 46.952 16.1172 46.568C15.8292 46.176 15.6852 45.608 15.6852 44.864V41.168H16.6812V44.732C16.6812 45.276 16.7652 45.672 16.9332 45.92C17.1092 46.168 17.3892 46.292 17.7732 46.292C18.0772 46.292 18.3452 46.216 18.5772 46.064C18.8172 45.904 19.0732 45.652 19.3452 45.308V41.168H20.3292V47H19.5132L19.4292 46.088H19.3932C19.1212 46.408 18.8332 46.664 18.5292 46.856C18.2252 47.048 17.8732 47.144 17.4732 47.144ZM22.2965 47V41.168H23.1125L23.1965 42.224H23.2325C23.4325 41.856 23.6765 41.564 23.9645 41.348C24.2525 41.132 24.5605 41.024 24.8885 41.024C25.1205 41.024 25.3285 41.064 25.5125 41.144L25.3205 42.008C25.2245 41.976 25.1365 41.952 25.0565 41.936C24.9765 41.92 24.8765 41.912 24.7565 41.912C24.5085 41.912 24.2485 42.012 23.9765 42.212C23.7125 42.412 23.4805 42.76 23.2805 43.256V47H22.2965ZM27.5077 47.144C27.0197 47.144 26.6117 47 26.2837 46.712C25.9637 46.416 25.8037 46.008 25.8037 45.488C25.8037 44.848 26.0877 44.36 26.6557 44.024C27.2317 43.68 28.1397 43.44 29.3797 43.304C29.3797 43.056 29.3437 42.82 29.2717 42.596C29.2077 42.372 29.0877 42.192 28.9117 42.056C28.7437 41.912 28.4997 41.84 28.1797 41.84C27.8437 41.84 27.5277 41.904 27.2317 42.032C26.9357 42.16 26.6717 42.304 26.4397 42.464L26.0557 41.78C26.3277 41.604 26.6597 41.436 27.0517 41.276C27.4517 41.108 27.8837 41.024 28.3477 41.024C29.0597 41.024 29.5757 41.244 29.8957 41.684C30.2157 42.116 30.3757 42.696 30.3757 43.424V47H29.5597L29.4757 46.304H29.4397C29.1677 46.528 28.8677 46.724 28.5397 46.892C28.2197 47.06 27.8757 47.144 27.5077 47.144ZM27.7957 46.352C28.0757 46.352 28.3397 46.284 28.5877 46.148C28.8357 46.012 29.0997 45.82 29.3797 45.572V43.952C28.4117 44.072 27.7317 44.252 27.3397 44.492C26.9557 44.732 26.7637 45.04 26.7637 45.416C26.7637 45.744 26.8637 45.984 27.0637 46.136C27.2637 46.28 27.5077 46.352 27.7957 46.352ZM32.2106 47V41.168H33.0266L33.1106 42.008H33.1466C33.4266 41.728 33.7226 41.496 34.0346 41.312C34.3466 41.12 34.7026 41.024 35.1026 41.024C35.7186 41.024 36.1666 41.22 36.4466 41.612C36.7346 41.996 36.8786 42.56 36.8786 43.304V47H35.8946V43.436C35.8946 42.892 35.8066 42.496 35.6306 42.248C35.4546 42 35.1746 41.876 34.7906 41.876C34.4946 41.876 34.2266 41.952 33.9866 42.104C33.7546 42.256 33.4906 42.48 33.1946 42.776V47H32.2106ZM41.0771 47.144C40.5651 47.144 40.1011 47.024 39.6851 46.784C39.2691 46.544 38.9411 46.196 38.7011 45.74C38.4611 45.284 38.3411 44.736 38.3411 44.096C38.3411 43.44 38.4691 42.884 38.7251 42.428C38.9891 41.972 39.3331 41.624 39.7571 41.384C40.1891 41.144 40.6531 41.024 41.1491 41.024C41.5331 41.024 41.8611 41.092 42.1331 41.228C42.4131 41.364 42.6531 41.524 42.8531 41.708L42.3491 42.356C42.1811 42.204 42.0011 42.08 41.8091 41.984C41.6251 41.888 41.4171 41.84 41.1851 41.84C40.8331 41.84 40.5171 41.936 40.2371 42.128C39.9651 42.312 39.7491 42.576 39.5891 42.92C39.4371 43.256 39.3611 43.648 39.3611 44.096C39.3611 44.76 39.5251 45.3 39.8531 45.716C40.1891 46.124 40.6251 46.328 41.1611 46.328C41.4331 46.328 41.6851 46.272 41.9171 46.16C42.1491 46.04 42.3531 45.9 42.5291 45.74L42.9611 46.4C42.6971 46.632 42.4051 46.816 42.0851 46.952C41.7651 47.08 41.4291 47.144 41.0771 47.144ZM46.3519 47.144C45.8319 47.144 45.3599 47.024 44.9359 46.784C44.5119 46.536 44.1759 46.184 43.9279 45.728C43.6799 45.272 43.5559 44.728 43.5559 44.096C43.5559 43.456 43.6799 42.908 43.9279 42.452C44.1839 41.996 44.5119 41.644 44.9119 41.396C45.3119 41.148 45.7319 41.024 46.1719 41.024C46.9159 41.024 47.4879 41.272 47.8879 41.768C48.2959 42.264 48.4999 42.928 48.4999 43.76C48.4999 43.864 48.4959 43.968 48.4879 44.072C48.4879 44.168 48.4799 44.252 48.4639 44.324H44.5279C44.5679 44.94 44.7599 45.432 45.1039 45.8C45.4559 46.168 45.9119 46.352 46.4719 46.352C46.7519 46.352 47.0079 46.312 47.2399 46.232C47.4799 46.144 47.7079 46.032 47.9239 45.896L48.2719 46.544C48.0239 46.704 47.7399 46.844 47.4199 46.964C47.1079 47.084 46.7519 47.144 46.3519 47.144ZM44.5159 43.616H47.6359C47.6359 43.024 47.5079 42.576 47.2519 42.272C47.0039 41.96 46.6519 41.804 46.1959 41.804C45.7879 41.804 45.4199 41.964 45.0919 42.284C44.7719 42.596 44.5799 43.04 44.5159 43.616Z" fill="#606060"/>
</svg>
