<svg width="33" height="50" viewBox="0 0 33 50" fill="none" xmlns="http://www.w3.org/2000/svg">
<path d="M2.46281 47V39.128H3.45881V42.428H7.11881V39.128H8.12681V47H7.11881V43.292H3.45881V47H2.46281ZM12.4629 47.144C11.9909 47.144 11.5469 47.024 11.1309 46.784C10.7229 46.544 10.3909 46.196 10.1349 45.74C9.88694 45.284 9.76294 44.736 9.76294 44.096C9.76294 43.44 9.88694 42.884 10.1349 42.428C10.3909 41.972 10.7229 41.624 11.1309 41.384C11.5469 41.144 11.9909 41.024 12.4629 41.024C12.9429 41.024 13.3869 41.144 13.7949 41.384C14.2029 41.624 14.5309 41.972 14.7789 42.428C15.0349 42.884 15.1629 43.44 15.1629 44.096C15.1629 44.736 15.0349 45.284 14.7789 45.74C14.5309 46.196 14.2029 46.544 13.7949 46.784C13.3869 47.024 12.9429 47.144 12.4629 47.144ZM12.4629 46.328C12.9669 46.328 13.3709 46.124 13.6749 45.716C13.9869 45.3 14.1429 44.76 14.1429 44.096C14.1429 43.424 13.9869 42.88 13.6749 42.464C13.3709 42.048 12.9669 41.84 12.4629 41.84C11.9669 41.84 11.5629 42.048 11.2509 42.464C10.9389 42.88 10.7829 43.424 10.7829 44.096C10.7829 44.76 10.9389 45.3 11.2509 45.716C11.5629 46.124 11.9669 46.328 12.4629 46.328ZM16.6988 47V41.168H17.5148L17.5988 42.008H17.6348C17.8908 41.728 18.1708 41.496 18.4748 41.312C18.7788 41.12 19.1028 41.024 19.4468 41.024C19.8948 41.024 20.2428 41.124 20.4908 41.324C20.7468 41.516 20.9348 41.788 21.0548 42.14C21.3588 41.812 21.6668 41.544 21.9788 41.336C22.2908 41.128 22.6228 41.024 22.9748 41.024C23.5748 41.024 24.0188 41.22 24.3068 41.612C24.6028 41.996 24.7508 42.56 24.7508 43.304V47H23.7668V43.436C23.7668 42.892 23.6788 42.496 23.5028 42.248C23.3268 42 23.0548 41.876 22.6868 41.876C22.2548 41.876 21.7668 42.176 21.2228 42.776V47H20.2388V43.436C20.2388 42.892 20.1508 42.496 19.9748 42.248C19.7988 42 19.5228 41.876 19.1468 41.876C18.7148 41.876 18.2268 42.176 17.6828 42.776V47H16.6988ZM29.0121 47.144C28.4921 47.144 28.0201 47.024 27.5961 46.784C27.1721 46.536 26.8361 46.184 26.5881 45.728C26.3401 45.272 26.2161 44.728 26.2161 44.096C26.2161 43.456 26.3401 42.908 26.5881 42.452C26.8441 41.996 27.1721 41.644 27.5721 41.396C27.9721 41.148 28.3921 41.024 28.8321 41.024C29.5761 41.024 30.1481 41.272 30.5481 41.768C30.9561 42.264 31.1601 42.928 31.1601 43.76C31.1601 43.864 31.1561 43.968 31.1481 44.072C31.1481 44.168 31.1401 44.252 31.1241 44.324H27.1881C27.2281 44.94 27.4201 45.432 27.7641 45.8C28.1161 46.168 28.5721 46.352 29.1321 46.352C29.4121 46.352 29.6681 46.312 29.9001 46.232C30.1401 46.144 30.3681 46.032 30.5841 45.896L30.9321 46.544C30.6841 46.704 30.4001 46.844 30.0801 46.964C29.7681 47.084 29.4121 47.144 29.0121 47.144ZM27.1761 43.616H30.2961C30.2961 43.024 30.1681 42.576 29.9121 42.272C29.6641 41.96 29.3121 41.804 28.8561 41.804C28.4481 41.804 28.0801 41.964 27.7521 42.284C27.4321 42.596 27.2401 43.04 27.1761 43.616Z" fill="#606060"/>
<path d="M12.7084 27.5257V23.8456C12.7083 22.9096 13.4447 22.149 14.357 22.1427H17.6987C18.6154 22.1427 19.3585 22.9051 19.3585 23.8456V27.5371C19.3583 28.3318 19.9765 28.9814 20.7509 29H22.9787C25.1996 29 27 27.1528 27 24.8742V14.4054C26.9881 13.509 26.5779 12.6672 25.8861 12.1196L18.2668 5.82236C16.932 4.72588 15.0346 4.72588 13.6997 5.82236L6.11392 12.1311C5.41946 12.6764 5.00855 13.5196 5 14.4168V24.8742C5 27.1528 6.80038 29 9.02127 29H11.2491C12.0427 29 12.6861 28.3399 12.6861 27.5257" stroke="#0A2B7D" stroke-width="1.7" stroke-linecap="round" stroke-linejoin="round"/>
</svg>
