<svg width="46" height="42" viewBox="0 0 46 42" fill="none" xmlns="http://www.w3.org/2000/svg">
<g clip-path="url(#clip0_8327_7274)">
<g clip-path="url(#clip1_8327_7274)">
<path d="M30.7588 12.4855C30.6599 12.4855 30.5632 12.5156 30.481 12.5721C30.3988 12.6285 30.3347 12.7088 30.2968 12.8027C30.259 12.8966 30.2491 12.9999 30.2684 13.0996C30.2877 13.1993 30.3353 13.2909 30.4052 13.3627C30.4752 13.4346 30.5643 13.4835 30.6612 13.5034C30.7582 13.5232 30.8588 13.513 30.9501 13.4741C31.0415 13.4352 31.1196 13.3694 31.1745 13.2849C31.2295 13.2003 31.2588 13.101 31.2588 12.9994C31.2588 12.8631 31.2061 12.7323 31.1123 12.636C31.0186 12.5396 30.8914 12.4855 30.7588 12.4855ZM27.2588 5.29102H26.2588C24.7097 5.29337 23.1994 5.78864 21.9352 6.7088C20.6711 7.62896 19.7151 8.92886 19.1988 10.4299H13.2588C13.1262 10.4299 12.999 10.3758 12.9052 10.2794C12.8115 10.183 12.7588 10.0523 12.7588 9.91602V8.88824C12.7588 8.75195 12.8115 8.62124 12.9052 8.52486C12.999 8.42849 13.1262 8.37435 13.2588 8.37435H18.2588C18.3914 8.37435 18.5186 8.32021 18.6123 8.22383C18.7061 8.12746 18.7588 7.99675 18.7588 7.86046C18.7588 7.72417 18.7061 7.59346 18.6123 7.49709C18.5186 7.40071 18.3914 7.34657 18.2588 7.34657H13.2588C12.861 7.34657 12.4794 7.509 12.1981 7.79812C11.9168 8.08723 11.7588 8.47936 11.7588 8.88824V9.91602C11.7588 10.3249 11.9168 10.717 12.1981 11.0061C12.4794 11.2953 12.861 11.4577 13.2588 11.4577H13.8488C13.793 11.6231 13.7626 11.7965 13.7588 11.9716V12.9994C13.7626 13.1744 13.793 13.3478 13.8488 13.5132H13.2588C12.861 13.5132 12.4794 13.6757 12.1981 13.9648C11.9168 14.2539 11.7588 14.646 11.7588 15.0549V16.0827C11.7588 16.4916 11.9168 16.8837 12.1981 17.1728C12.4794 17.4619 12.861 17.6244 13.2588 17.6244H13.8488C13.793 17.7898 13.7626 17.9632 13.7588 18.1382V19.166C13.7588 19.5749 13.9168 19.967 14.1981 20.2561C14.4794 20.5453 14.861 20.7077 15.2588 20.7077H23.2588C23.5831 20.7062 23.8985 20.5982 24.1588 20.3994C24.8418 20.6002 25.5484 20.7039 26.2588 20.7077C26.4286 20.7179 26.5989 20.7179 26.7688 20.7077H27.2388C29.2279 20.7077 31.1356 19.8956 32.5421 18.45C33.9486 17.0044 34.7388 15.0437 34.7388 12.9994C34.7388 10.955 33.9486 8.99433 32.5421 7.54873C31.1356 6.10314 29.2279 5.29102 27.2388 5.29102H27.2588ZM14.7588 11.9716C14.7588 11.8353 14.8115 11.7046 14.9052 11.6082C14.999 11.5118 15.1262 11.4577 15.2588 11.4577H18.9088C18.8079 11.965 18.7577 12.4816 18.7588 12.9994C18.7488 13.1705 18.7488 13.3421 18.7588 13.5132H15.2588C15.1262 13.5132 14.999 13.4591 14.9052 13.3627C14.8115 13.2664 14.7588 13.1356 14.7588 12.9994V11.9716ZM15.2588 19.6799C15.1262 19.6799 14.999 19.6258 14.9052 19.5294C14.8115 19.433 14.7588 19.3023 14.7588 19.166V18.1382C14.7588 18.0019 14.8115 17.8712 14.9052 17.7749C14.999 17.6785 15.1262 17.6244 15.2588 17.6244H20.2588C20.8738 18.459 21.6457 19.158 22.5288 19.6799H15.2588ZM32.6788 14.0271C32.6739 14.123 32.6739 14.219 32.6788 14.3149C32.6788 14.4691 32.6088 14.6232 32.5688 14.7774C32.563 14.8252 32.563 14.8735 32.5688 14.9213C32.5193 15.0963 32.4592 15.2679 32.3888 15.4352C32.3901 15.4591 32.3901 15.4832 32.3888 15.5071C32.319 15.6899 32.2389 15.8684 32.1488 16.0416C31.6378 17.0625 30.8802 17.9313 29.9487 18.5648C29.0171 19.1983 27.9428 19.5752 26.8288 19.6594H26.3688C25.1975 19.6606 24.0476 19.3366 23.0407 18.7215C22.0339 18.1063 21.2074 17.223 20.6488 16.1649C20.5854 16.0474 20.4798 15.9602 20.3546 15.9217C20.2293 15.8833 20.0945 15.8968 19.9788 15.9594C19.8746 16.0164 19.794 16.1102 19.7517 16.2235C19.7095 16.3368 19.7084 16.462 19.7488 16.576H13.2588C13.1262 16.576 12.999 16.5219 12.9052 16.4255C12.8115 16.3291 12.7588 16.1984 12.7588 16.0621V15.0549C12.7588 14.9186 12.8115 14.7879 12.9052 14.6915C12.999 14.5952 13.1262 14.541 13.2588 14.541H18.9088C18.9135 14.5613 18.9135 14.5824 18.9088 14.6027C18.9398 14.733 19.0183 14.8462 19.128 14.9188C19.2378 14.9915 19.3705 15.0181 19.4988 14.9932C19.5638 14.981 19.6257 14.9555 19.6808 14.9181C19.736 14.8806 19.7832 14.8322 19.8196 14.7755C19.856 14.7189 19.8809 14.6552 19.8928 14.5884C19.9047 14.5217 19.9033 14.4531 19.8888 14.3869C19.8 13.93 19.7565 13.4652 19.7588 12.9994C19.7614 11.2284 20.4471 9.53074 21.6655 8.27849C22.8839 7.02623 24.5357 6.32151 26.2588 6.31879H26.7188C27.8308 6.40089 28.9038 6.77468 29.8352 7.40446C30.7665 8.03424 31.5253 8.89896 32.0388 9.91602C32.1289 10.0892 32.209 10.2677 32.2788 10.4505C32.2801 10.4744 32.2801 10.4984 32.2788 10.5224C32.3492 10.6897 32.4093 10.8613 32.4588 11.0363C32.453 11.0841 32.453 11.1324 32.4588 11.1802C32.4588 11.3343 32.5288 11.4885 32.5688 11.6427C32.5639 11.7385 32.5639 11.8346 32.5688 11.9305V13.5955C32.5688 13.8113 32.6988 13.8935 32.6788 14.0271ZM29.2588 9.40213C29.2588 9.26584 29.2061 9.13513 29.1123 9.03875C29.0186 8.94238 28.8914 8.88824 28.7588 8.88824H23.7588C23.6262 8.88824 23.499 8.94238 23.4052 9.03875C23.3115 9.13513 23.2588 9.26584 23.2588 9.40213C23.2588 9.53842 23.3115 9.66913 23.4052 9.7655C23.499 9.86188 23.6262 9.91602 23.7588 9.91602H25.7588C26.0679 9.91839 26.3689 10.0182 26.621 10.202C26.8732 10.3858 27.0644 10.6447 27.1688 10.9438H23.7588C23.6262 10.9438 23.499 10.9979 23.4052 11.0943C23.3115 11.1907 23.2588 11.3214 23.2588 11.4577C23.2588 11.594 23.3115 11.7247 23.4052 11.8211C23.499 11.9174 23.6262 11.9716 23.7588 11.9716H27.1688C27.0644 12.2706 26.8732 12.5295 26.621 12.7133C26.3689 12.8971 26.0679 12.997 25.7588 12.9994H23.7588C23.6601 12.9999 23.5637 13.0304 23.4819 13.0871C23.4 13.1438 23.3363 13.2241 23.2988 13.318C23.2579 13.4106 23.2466 13.5141 23.2663 13.6138C23.2861 13.7134 23.3359 13.8041 23.4088 13.873L26.4088 16.9563C26.4534 17.0057 26.5076 17.0449 26.5679 17.0714C26.6282 17.098 26.6932 17.1113 26.7588 17.1105H27.7588C27.8914 17.1105 28.0186 17.0563 28.1123 16.9599C28.2061 16.8636 28.2588 16.7329 28.2588 16.5966C28.2588 16.4603 28.2061 16.3296 28.1123 16.2332C28.0186 16.1368 27.8914 16.0827 27.7588 16.0827H26.9688L24.9688 14.0271H25.7588C26.3437 14.0393 26.9141 13.8402 27.3709 13.4646C27.8277 13.089 28.1419 12.5607 28.2588 11.9716H28.8088C28.9414 11.9716 29.0686 11.9174 29.1623 11.8211C29.2561 11.7247 29.3088 11.594 29.3088 11.4577C29.3088 11.3214 29.2561 11.1907 29.1623 11.0943C29.0686 10.9979 28.9414 10.9438 28.8088 10.9438H28.2588C28.1804 10.5708 28.0234 10.2199 27.7988 9.91602H28.7988C28.9243 9.90566 29.0415 9.84698 29.1268 9.75171C29.212 9.65643 29.2592 9.53159 29.2588 9.40213ZM21.7588 12.4855C21.6599 12.4855 21.5632 12.5156 21.481 12.5721C21.3988 12.6285 21.3347 12.7088 21.2968 12.8027C21.259 12.8966 21.2491 12.9999 21.2684 13.0996C21.2877 13.1993 21.3353 13.2909 21.4052 13.3627C21.4752 13.4346 21.5643 13.4835 21.6612 13.5034C21.7582 13.5232 21.8588 13.513 21.9501 13.4741C22.0415 13.4352 22.1196 13.3694 22.1745 13.2849C22.2295 13.2003 22.2588 13.101 22.2588 12.9994C22.2588 12.8631 22.2061 12.7323 22.1123 12.636C22.0186 12.5396 21.8914 12.4855 21.7588 12.4855Z" fill="#EA7B04"/>
</g>
</g>
<path d="M18.0843 41.144C17.5323 41.144 17.0203 41.04 16.5483 40.832C16.0763 40.616 15.6683 40.332 15.3243 39.98L15.9243 39.284C16.2043 39.58 16.5323 39.82 16.9083 40.004C17.2923 40.18 17.6883 40.268 18.0963 40.268C18.6163 40.268 19.0203 40.152 19.3083 39.92C19.5963 39.68 19.7403 39.368 19.7403 38.984C19.7403 38.712 19.6803 38.496 19.5603 38.336C19.4483 38.176 19.2923 38.04 19.0923 37.928C18.9003 37.816 18.6803 37.704 18.4323 37.592L17.3043 37.1C17.0563 36.996 16.8083 36.86 16.5603 36.692C16.3203 36.524 16.1163 36.308 15.9483 36.044C15.7883 35.78 15.7083 35.456 15.7083 35.072C15.7083 34.672 15.8123 34.316 16.0203 34.004C16.2363 33.684 16.5323 33.436 16.9083 33.26C17.2843 33.076 17.7083 32.984 18.1803 32.984C18.6523 32.984 19.0883 33.076 19.4883 33.26C19.8883 33.436 20.2283 33.668 20.5083 33.956L19.9683 34.604C19.7283 34.372 19.4603 34.192 19.1643 34.064C18.8763 33.928 18.5483 33.86 18.1803 33.86C17.7403 33.86 17.3843 33.964 17.1123 34.172C16.8483 34.38 16.7163 34.66 16.7163 35.012C16.7163 35.26 16.7803 35.468 16.9083 35.636C17.0443 35.796 17.2123 35.928 17.4123 36.032C17.6123 36.136 17.8163 36.232 18.0243 36.32L19.1403 36.8C19.4443 36.928 19.7163 37.084 19.9563 37.268C20.2043 37.444 20.4003 37.664 20.5443 37.928C20.6883 38.184 20.7603 38.508 20.7603 38.9C20.7603 39.316 20.6523 39.696 20.4363 40.04C20.2203 40.376 19.9123 40.644 19.5123 40.844C19.1123 41.044 18.6363 41.144 18.0843 41.144ZM22.3105 41V33.128H23.3065V41H22.3105ZM25.4628 41V33.128H27.7068C28.2988 33.128 28.8148 33.2 29.2548 33.344C29.6948 33.488 30.0388 33.732 30.2868 34.076C30.5348 34.412 30.6588 34.868 30.6588 35.444C30.6588 36.268 30.3908 36.88 29.8548 37.28C29.3188 37.68 28.6188 37.88 27.7548 37.88H26.4588V41H25.4628ZM26.4588 37.064H27.6348C28.3228 37.064 28.8308 36.936 29.1588 36.68C29.4948 36.416 29.6628 36.004 29.6628 35.444C29.6628 34.876 29.4868 34.484 29.1348 34.268C28.7908 34.044 28.2748 33.932 27.5868 33.932H26.4588V37.064Z" fill="#606060"/>
<defs>
<clipPath id="clip0_8327_7274">
<rect width="24" height="24" fill="white" transform="translate(11 1)"/>
</clipPath>
<clipPath id="clip1_8327_7274">
<rect width="24" height="18" fill="white" transform="translate(11 4)"/>
</clipPath>
</defs>
</svg>
