<svg width="41" height="41" viewBox="0 0 41 41" fill="none" xmlns="http://www.w3.org/2000/svg">
<rect x="0.5" y="0.5" width="40" height="40" rx="11.5" fill="white" stroke="#E8ECF4"/>
<path d="M24.54 13.2864C24.4444 13.1956 24.3308 13.1236 24.2058 13.0745C24.0807 13.0253 23.9467 13 23.8113 13C23.676 13 23.5419 13.0253 23.4169 13.0745C23.2918 13.1236 23.1783 13.1956 23.0827 13.2864L16.2408 19.768C16.1645 19.8401 16.1039 19.9258 16.0626 20.0202C16.0213 20.1145 16 20.2157 16 20.3178C16 20.42 16.0213 20.5211 16.0626 20.6155C16.1039 20.7098 16.1645 20.7956 16.2408 20.8677L23.0827 27.3492C23.4861 27.7314 24.1365 27.7314 24.54 27.3492C24.9434 26.9671 24.9434 26.3509 24.54 25.9687L18.579 20.3139L24.5482 14.6592C24.9434 14.2848 24.9434 13.6608 24.54 13.2864Z" fill="#1E232C" stroke="#1E232C" stroke-width="0.2"/>
</svg>
