<svg width="347" height="38" viewBox="0 0 347 38" fill="none" xmlns="http://www.w3.org/2000/svg">
<rect x="37" y="5" width="276" height="3" fill="#31EE50"/>
<path d="M1.162 34V24.844H4.088C4.72267 24.844 5.28267 24.914 5.768 25.054C6.26267 25.194 6.65 25.432 6.93 25.768C7.21933 26.0947 7.364 26.538 7.364 27.098C7.364 27.5273 7.252 27.9333 7.028 28.316C6.804 28.6893 6.49133 28.946 6.09 29.086V29.142C6.594 29.254 7.00933 29.492 7.336 29.856C7.672 30.2107 7.84 30.696 7.84 31.312C7.84 31.9187 7.686 32.4227 7.378 32.824C7.07933 33.2253 6.664 33.524 6.132 33.72C5.6 33.9067 4.998 34 4.326 34H1.162ZM2.786 28.624H3.948C4.58267 28.624 5.04467 28.5073 5.334 28.274C5.62333 28.0407 5.768 27.728 5.768 27.336C5.768 26.888 5.61867 26.5707 5.32 26.384C5.02133 26.1973 4.57333 26.104 3.976 26.104H2.786V28.624ZM2.786 32.74H4.158C4.83 32.74 5.348 32.6187 5.712 32.376C6.076 32.124 6.258 31.7413 6.258 31.228C6.258 30.7427 6.08067 30.3927 5.726 30.178C5.37133 29.954 4.84867 29.842 4.158 29.842H2.786V32.74ZM11.0415 34.168C10.4442 34.168 9.95418 33.9813 9.57152 33.608C9.19818 33.2347 9.01152 32.7493 9.01152 32.152C9.01152 31.4147 9.33352 30.8453 9.97752 30.444C10.6215 30.0333 11.6482 29.7533 13.0575 29.604C13.0482 29.24 12.9502 28.9273 12.7635 28.666C12.5862 28.3953 12.2642 28.26 11.7975 28.26C11.4615 28.26 11.1302 28.3253 10.8035 28.456C10.4862 28.5867 10.1735 28.7453 9.86552 28.932L9.27752 27.854C9.66018 27.6113 10.0895 27.4013 10.5655 27.224C11.0508 27.0467 11.5642 26.958 12.1055 26.958C12.9642 26.958 13.6035 27.2147 14.0235 27.728C14.4528 28.232 14.6675 28.9647 14.6675 29.926V34H13.3375L13.2255 33.244H13.1695C12.8615 33.5053 12.5302 33.7247 12.1755 33.902C11.8302 34.0793 11.4522 34.168 11.0415 34.168ZM11.5595 32.908C11.8395 32.908 12.0915 32.8427 12.3155 32.712C12.5488 32.572 12.7962 32.3853 13.0575 32.152V30.612C12.1242 30.7333 11.4755 30.9153 11.1115 31.158C10.7475 31.3913 10.5655 31.6807 10.5655 32.026C10.5655 32.334 10.6588 32.558 10.8455 32.698C11.0322 32.838 11.2702 32.908 11.5595 32.908ZM16.5943 34V27.126H17.9243L18.0363 28.05H18.0923C18.4003 27.7513 18.7363 27.4947 19.1003 27.28C19.4643 27.0653 19.8796 26.958 20.3463 26.958C21.0836 26.958 21.6203 27.196 21.9563 27.672C22.2923 28.148 22.4603 28.82 22.4603 29.688V34H20.8503V29.898C20.8503 29.3287 20.7663 28.9273 20.5983 28.694C20.4303 28.4607 20.1549 28.344 19.7723 28.344C19.4736 28.344 19.2076 28.4187 18.9743 28.568C18.7503 28.708 18.4936 28.918 18.2043 29.198V34H16.5943ZM24.4283 34V24.116H26.0103V30.29H26.0523L28.6003 27.126H30.3643L28.0123 29.926L30.6022 34H28.8523L27.0883 31.018L26.0103 32.25V34H24.4283ZM36.9534 34.168C36.0948 34.168 35.4088 33.8507 34.8954 33.216C34.3821 32.5813 34.1254 31.6993 34.1254 30.57C34.1254 29.8233 34.2608 29.1793 34.5314 28.638C34.8114 28.0967 35.1754 27.6813 35.6234 27.392C36.0714 27.1027 36.5428 26.958 37.0374 26.958C37.4294 26.958 37.7608 27.028 38.0314 27.168C38.3114 27.2987 38.5821 27.4807 38.8434 27.714L38.7874 26.608V24.116H40.3974V34H39.0674L38.9554 33.258H38.8994C38.6474 33.51 38.3534 33.7247 38.0174 33.902C37.6814 34.0793 37.3268 34.168 36.9534 34.168ZM37.3454 32.838C37.8588 32.838 38.3394 32.5813 38.7874 32.068V28.862C38.5541 28.6473 38.3208 28.498 38.0874 28.414C37.8541 28.33 37.6208 28.288 37.3874 28.288C36.9488 28.288 36.5708 28.4887 36.2534 28.89C35.9454 29.282 35.7914 29.8373 35.7914 30.556C35.7914 31.2933 35.9268 31.858 36.1974 32.25C36.4681 32.642 36.8508 32.838 37.3454 32.838ZM45.3878 34.168C44.7531 34.168 44.1791 34.028 43.6658 33.748C43.1524 33.4587 42.7464 33.048 42.4478 32.516C42.1491 31.9747 41.9998 31.326 41.9998 30.57C41.9998 29.8233 42.1491 29.1793 42.4478 28.638C42.7558 28.0967 43.1524 27.6813 43.6378 27.392C44.1231 27.1027 44.6318 26.958 45.1638 26.958C45.7891 26.958 46.3118 27.098 46.7318 27.378C47.1518 27.6487 47.4691 28.0313 47.6838 28.526C47.8984 29.0113 48.0058 29.576 48.0058 30.22C48.0058 30.556 47.9824 30.8173 47.9358 31.004H43.5678C43.6424 31.6107 43.8618 32.082 44.2258 32.418C44.5898 32.754 45.0471 32.922 45.5978 32.922C45.8964 32.922 46.1718 32.88 46.4238 32.796C46.6851 32.7027 46.9418 32.5767 47.1938 32.418L47.7398 33.426C47.4131 33.6407 47.0491 33.818 46.6478 33.958C46.2464 34.098 45.8264 34.168 45.3878 34.168ZM43.5538 29.912H46.6058C46.6058 29.38 46.4891 28.9647 46.2558 28.666C46.0224 28.358 45.6724 28.204 45.2058 28.204C44.8044 28.204 44.4451 28.3533 44.1278 28.652C43.8198 28.9413 43.6284 29.3613 43.5538 29.912ZM51.8288 34.168C51.0354 34.168 50.4708 33.9393 50.1348 33.482C49.8081 33.0153 49.6448 32.4133 49.6448 31.676V28.4H48.6648V27.196L49.7288 27.126L49.9248 25.25H51.2688V27.126H53.0188V28.4H51.2688V31.676C51.2688 32.4787 51.5908 32.88 52.2348 32.88C52.3561 32.88 52.4821 32.866 52.6128 32.838C52.7434 32.8007 52.8554 32.7633 52.9488 32.726L53.2288 33.916C53.0421 33.9813 52.8274 34.0373 52.5848 34.084C52.3514 34.14 52.0994 34.168 51.8288 34.168ZM55.8306 34.168C55.2332 34.168 54.7432 33.9813 54.3606 33.608C53.9872 33.2347 53.8006 32.7493 53.8006 32.152C53.8006 31.4147 54.1226 30.8453 54.7666 30.444C55.4106 30.0333 56.4372 29.7533 57.8466 29.604C57.8372 29.24 57.7392 28.9273 57.5526 28.666C57.3752 28.3953 57.0532 28.26 56.5866 28.26C56.2506 28.26 55.9192 28.3253 55.5926 28.456C55.2752 28.5867 54.9626 28.7453 54.6546 28.932L54.0666 27.854C54.4492 27.6113 54.8786 27.4013 55.3546 27.224C55.8399 27.0467 56.3532 26.958 56.8946 26.958C57.7532 26.958 58.3926 27.2147 58.8126 27.728C59.2419 28.232 59.4566 28.9647 59.4566 29.926V34H58.1266L58.0146 33.244H57.9586C57.6506 33.5053 57.3192 33.7247 56.9646 33.902C56.6192 34.0793 56.2412 34.168 55.8306 34.168ZM56.3486 32.908C56.6286 32.908 56.8806 32.8427 57.1046 32.712C57.3379 32.572 57.5852 32.3853 57.8466 32.152V30.612C56.9132 30.7333 56.2646 30.9153 55.9006 31.158C55.5366 31.3913 55.3546 31.6807 55.3546 32.026C55.3546 32.334 55.4479 32.558 55.6346 32.698C55.8212 32.838 56.0592 32.908 56.3486 32.908ZM61.3833 34V27.126H62.9933V34H61.3833ZM62.1953 25.922C61.906 25.922 61.6727 25.838 61.4953 25.67C61.318 25.502 61.2293 25.278 61.2293 24.998C61.2293 24.7273 61.318 24.508 61.4953 24.34C61.6727 24.172 61.906 24.088 62.1953 24.088C62.4847 24.088 62.718 24.172 62.8953 24.34C63.0727 24.508 63.1613 24.7273 63.1613 24.998C63.1613 25.278 63.0727 25.502 62.8953 25.67C62.718 25.838 62.4847 25.922 62.1953 25.922ZM66.6154 34.168C66.0461 34.168 65.6401 33.9953 65.3974 33.65C65.1641 33.3047 65.0474 32.8333 65.0474 32.236V24.116H66.6574V32.32C66.6574 32.516 66.6947 32.656 66.7694 32.74C66.8441 32.8147 66.9234 32.852 67.0074 32.852C67.0447 32.852 67.0774 32.852 67.1054 32.852C67.1427 32.8427 67.1941 32.8333 67.2594 32.824L67.4694 34.028C67.3761 34.0653 67.2547 34.098 67.1054 34.126C66.9654 34.154 66.8021 34.168 66.6154 34.168ZM70.7662 34.168C70.2995 34.168 69.8328 34.0793 69.3662 33.902C68.8995 33.7153 68.4982 33.4867 68.1622 33.216L68.9182 32.18C69.2262 32.4133 69.5342 32.6 69.8422 32.74C70.1502 32.88 70.4768 32.95 70.8222 32.95C71.1955 32.95 71.4708 32.8707 71.6482 32.712C71.8255 32.5533 71.9142 32.3573 71.9142 32.124C71.9142 31.928 71.8395 31.7693 71.6902 31.648C71.5502 31.5173 71.3682 31.4053 71.1442 31.312C70.9202 31.2093 70.6868 31.1113 70.4442 31.018C70.1455 30.906 69.8468 30.7707 69.5482 30.612C69.2588 30.444 69.0208 30.234 68.8342 29.982C68.6475 29.7207 68.5542 29.3987 68.5542 29.016C68.5542 28.4093 68.7782 27.9147 69.2262 27.532C69.6742 27.1493 70.2808 26.958 71.0462 26.958C71.5315 26.958 71.9655 27.042 72.3482 27.21C72.7308 27.378 73.0622 27.5693 73.3422 27.784L72.6002 28.764C72.3575 28.5867 72.1102 28.4467 71.8582 28.344C71.6155 28.232 71.3588 28.176 71.0882 28.176C70.7428 28.176 70.4862 28.2507 70.3182 28.4C70.1502 28.54 70.0662 28.7173 70.0662 28.932C70.0662 29.2027 70.2062 29.408 70.4862 29.548C70.7662 29.688 71.0928 29.8233 71.4662 29.954C71.7835 30.066 72.0915 30.206 72.3902 30.374C72.6888 30.5327 72.9362 30.7427 73.1322 31.004C73.3375 31.2653 73.4402 31.6107 73.4402 32.04C73.4402 32.628 73.2115 33.132 72.7542 33.552C72.2968 33.9627 71.6342 34.168 70.7662 34.168Z" fill="#002949"/>
<path d="M293.67 34.168C292.904 34.168 292.209 33.986 291.584 33.622C290.958 33.258 290.459 32.726 290.086 32.026C289.722 31.3167 289.54 30.458 289.54 29.45C289.54 28.4513 289.726 27.5973 290.1 26.888C290.482 26.1693 290.991 25.6233 291.626 25.25C292.26 24.8673 292.96 24.676 293.726 24.676C294.304 24.676 294.818 24.7927 295.266 25.026C295.714 25.2593 296.082 25.53 296.372 25.838L295.504 26.888C295.27 26.6453 295.009 26.454 294.72 26.314C294.44 26.1647 294.122 26.09 293.768 26.09C293.273 26.09 292.83 26.2253 292.438 26.496C292.055 26.7573 291.752 27.1353 291.528 27.63C291.313 28.1247 291.206 28.7173 291.206 29.408C291.206 30.4533 291.434 31.2747 291.892 31.872C292.349 32.46 292.96 32.754 293.726 32.754C294.136 32.754 294.5 32.67 294.818 32.502C295.135 32.3247 295.424 32.096 295.686 31.816L296.554 32.838C296.18 33.2673 295.751 33.5987 295.266 33.832C294.79 34.056 294.258 34.168 293.67 34.168ZM300.756 34.168C300.187 34.168 299.655 34.028 299.16 33.748C298.665 33.4587 298.264 33.048 297.956 32.516C297.648 31.9747 297.494 31.326 297.494 30.57C297.494 29.8047 297.648 29.156 297.956 28.624C298.264 28.0827 298.665 27.672 299.16 27.392C299.655 27.1027 300.187 26.958 300.756 26.958C301.335 26.958 301.871 27.1027 302.366 27.392C302.861 27.672 303.262 28.0827 303.57 28.624C303.878 29.156 304.032 29.8047 304.032 30.57C304.032 31.326 303.878 31.9747 303.57 32.516C303.262 33.048 302.861 33.4587 302.366 33.748C301.871 34.028 301.335 34.168 300.756 34.168ZM300.756 32.852C301.26 32.852 301.657 32.642 301.946 32.222C302.235 31.802 302.38 31.2513 302.38 30.57C302.38 29.8793 302.235 29.324 301.946 28.904C301.657 28.484 301.26 28.274 300.756 28.274C300.252 28.274 299.855 28.484 299.566 28.904C299.286 29.324 299.146 29.8793 299.146 30.57C299.146 31.2513 299.286 31.802 299.566 32.222C299.855 32.642 300.252 32.852 300.756 32.852ZM305.626 34V27.126H306.956L307.068 28.064H307.124C307.413 27.756 307.726 27.4947 308.062 27.28C308.407 27.0653 308.794 26.958 309.224 26.958C309.728 26.958 310.129 27.07 310.428 27.294C310.736 27.5087 310.969 27.8073 311.128 28.19C311.454 27.8353 311.795 27.5413 312.15 27.308C312.514 27.0747 312.91 26.958 313.34 26.958C314.068 26.958 314.604 27.196 314.95 27.672C315.295 28.148 315.468 28.82 315.468 29.688V34H313.844V29.898C313.844 29.3287 313.755 28.9273 313.578 28.694C313.41 28.4607 313.148 28.344 312.794 28.344C312.364 28.344 311.884 28.6287 311.352 29.198V34H309.742V29.898C309.742 29.3287 309.653 28.9273 309.476 28.694C309.308 28.4607 309.042 28.344 308.678 28.344C308.248 28.344 307.768 28.6287 307.236 29.198V34H305.626ZM317.424 36.716V27.126H318.754L318.866 27.854H318.922C319.212 27.6113 319.534 27.4013 319.888 27.224C320.252 27.0467 320.621 26.958 320.994 26.958C321.853 26.958 322.516 27.2753 322.982 27.91C323.458 28.5447 323.696 29.394 323.696 30.458C323.696 31.242 323.556 31.914 323.276 32.474C322.996 33.0247 322.632 33.4447 322.184 33.734C321.746 34.0233 321.27 34.168 320.756 34.168C320.458 34.168 320.159 34.1027 319.86 33.972C319.562 33.832 319.272 33.6453 318.992 33.412L319.034 34.56V36.716H317.424ZM320.42 32.838C320.878 32.838 321.26 32.6373 321.568 32.236C321.876 31.8347 322.03 31.2467 322.03 30.472C322.03 29.7813 321.914 29.2447 321.68 28.862C321.447 28.4793 321.069 28.288 320.546 28.288C320.061 28.288 319.557 28.5447 319.034 29.058V32.264C319.286 32.4693 319.529 32.6187 319.762 32.712C319.996 32.796 320.215 32.838 320.42 32.838ZM326.895 34.168C326.325 34.168 325.919 33.9953 325.677 33.65C325.443 33.3047 325.327 32.8333 325.327 32.236V24.116H326.937V32.32C326.937 32.516 326.974 32.656 327.049 32.74C327.123 32.8147 327.203 32.852 327.287 32.852C327.324 32.852 327.357 32.852 327.385 32.852C327.422 32.8427 327.473 32.8333 327.539 32.824L327.749 34.028C327.655 34.0653 327.534 34.098 327.385 34.126C327.245 34.154 327.081 34.168 326.895 34.168ZM332.067 34.168C331.433 34.168 330.859 34.028 330.345 33.748C329.832 33.4587 329.426 33.048 329.127 32.516C328.829 31.9747 328.679 31.326 328.679 30.57C328.679 29.8233 328.829 29.1793 329.127 28.638C329.435 28.0967 329.832 27.6813 330.317 27.392C330.803 27.1027 331.311 26.958 331.843 26.958C332.469 26.958 332.991 27.098 333.411 27.378C333.831 27.6487 334.149 28.0313 334.363 28.526C334.578 29.0113 334.685 29.576 334.685 30.22C334.685 30.556 334.662 30.8173 334.615 31.004H330.247C330.322 31.6107 330.541 32.082 330.905 32.418C331.269 32.754 331.727 32.922 332.277 32.922C332.576 32.922 332.851 32.88 333.103 32.796C333.365 32.7027 333.621 32.5767 333.873 32.418L334.419 33.426C334.093 33.6407 333.729 33.818 333.327 33.958C332.926 34.098 332.506 34.168 332.067 34.168ZM330.233 29.912H333.285C333.285 29.38 333.169 28.9647 332.935 28.666C332.702 28.358 332.352 28.204 331.885 28.204C331.484 28.204 331.125 28.3533 330.807 28.652C330.499 28.9413 330.308 29.3613 330.233 29.912ZM338.508 34.168C337.715 34.168 337.15 33.9393 336.814 33.482C336.488 33.0153 336.324 32.4133 336.324 31.676V28.4H335.344V27.196L336.408 27.126L336.604 25.25H337.948V27.126H339.698V28.4H337.948V31.676C337.948 32.4787 338.27 32.88 338.914 32.88C339.036 32.88 339.162 32.866 339.292 32.838C339.423 32.8007 339.535 32.7633 339.628 32.726L339.908 33.916C339.722 33.9813 339.507 34.0373 339.264 34.084C339.031 34.14 338.779 34.168 338.508 34.168ZM343.866 34.168C343.232 34.168 342.658 34.028 342.144 33.748C341.631 33.4587 341.225 33.048 340.926 32.516C340.628 31.9747 340.478 31.326 340.478 30.57C340.478 29.8233 340.628 29.1793 340.926 28.638C341.234 28.0967 341.631 27.6813 342.116 27.392C342.602 27.1027 343.11 26.958 343.642 26.958C344.268 26.958 344.79 27.098 345.21 27.378C345.63 27.6487 345.948 28.0313 346.162 28.526C346.377 29.0113 346.484 29.576 346.484 30.22C346.484 30.556 346.461 30.8173 346.414 31.004H342.046C342.121 31.6107 342.34 32.082 342.704 32.418C343.068 32.754 343.526 32.922 344.076 32.922C344.375 32.922 344.65 32.88 344.902 32.796C345.164 32.7027 345.42 32.5767 345.672 32.418L346.218 33.426C345.892 33.6407 345.528 33.818 345.126 33.958C344.725 34.098 344.305 34.168 343.866 34.168ZM342.032 29.912H345.084C345.084 29.38 344.968 28.9647 344.734 28.666C344.501 28.358 344.151 28.204 343.684 28.204C343.283 28.204 342.924 28.3533 342.606 28.652C342.298 28.9413 342.107 29.3613 342.032 29.912Z" fill="#002949"/>
<circle cx="39.6833" cy="5.84349" r="5.84349" fill="#31EE50"/>
<circle cx="316.648" cy="5.99974" r="5.84349" fill="#31EE50"/>
</svg>
