<svg width="38" height="38" viewBox="0 0 38 38" fill="none" xmlns="http://www.w3.org/2000/svg">
<g filter="url(#filter0_i_6905_9429)">
<circle cx="19" cy="19" r="19" fill="url(#paint0_linear_6905_9429)"/>
</g>
<path d="M26.4688 11.3125V15.5125L26.9375 15.0438H12.7742C12.2797 15.0438 11.8039 15.2781 11.5602 15.7211C11.3961 16.0164 11.3891 16.3235 11.3891 16.6445V22.9563L11.8578 22.4875H9.74844C9.74141 22.4875 9.65 22.4875 9.65 22.4828L9.71328 22.4899C9.69219 22.4852 9.67344 22.4805 9.65234 22.4758C9.63359 22.4711 9.6125 22.4641 9.59375 22.457C9.54687 22.4383 9.55625 22.443 9.61953 22.4711C9.61953 22.4735 9.54453 22.4313 9.53984 22.4289C9.44375 22.3727 9.53984 22.4313 9.53516 22.4336C9.53047 22.4383 9.40391 22.3117 9.40859 22.307C9.42031 22.2953 9.46484 22.3938 9.42969 22.3281C9.41562 22.3024 9.39922 22.2742 9.38516 22.2485C9.33359 22.1594 9.41094 22.3469 9.38516 22.2485C9.38281 22.2391 9.35 22.1289 9.35469 22.1289L9.36172 22.1922C9.35938 22.1711 9.35703 22.15 9.35703 22.1289C9.35469 22.0891 9.35703 22.1078 9.35703 22.0961V22.068C9.35234 21.257 9.35703 20.4438 9.35703 19.6328V11.282C9.35703 11.2703 9.35937 11.261 9.35937 11.2492C9.36406 11.1977 9.36406 11.207 9.35469 11.2797C9.35234 11.2797 9.38281 11.1695 9.38516 11.1602C9.33359 11.2469 9.41094 11.0594 9.38516 11.1602C9.40156 11.1344 9.41562 11.1086 9.42969 11.0805C9.47891 10.9914 9.35703 11.1531 9.42969 11.0781C9.45078 11.057 9.46953 11.0336 9.49297 11.0125C9.57266 10.9375 9.49297 11.0125 9.49063 11.0102C9.48828 11.0078 9.56094 10.9656 9.56797 10.961C9.66641 10.907 9.56562 10.9586 9.56562 10.9563C9.56562 10.9516 9.64062 10.9305 9.65469 10.9281C9.66406 10.9258 9.67578 10.9235 9.68516 10.9211C9.73672 10.9117 9.725 10.9117 9.65234 10.9235C9.65234 10.9188 9.74141 10.9188 9.74844 10.9188H24.4766C25.0109 10.9188 25.5453 10.9117 26.0797 10.9188C26.0914 10.9188 26.1781 10.9164 26.1781 10.9235C26.1805 10.9352 26.0656 10.893 26.1617 10.9258C26.1852 10.9328 26.2109 10.9399 26.2367 10.9469C26.15 10.8953 26.3375 10.9727 26.2367 10.9469C26.2625 10.9633 26.2883 10.9774 26.3164 10.9914C26.4055 11.0406 26.2437 10.9188 26.3187 10.9914C26.3398 11.0125 26.3633 11.0313 26.3844 11.0547C26.4594 11.1344 26.3844 11.0547 26.3867 11.0524C26.3891 11.05 26.4312 11.1227 26.4359 11.1297C26.4898 11.2281 26.4383 11.1274 26.4406 11.1274C26.4453 11.1274 26.4664 11.2094 26.4688 11.2164C26.4711 11.2258 26.4734 11.2375 26.4758 11.2469C26.4852 11.2985 26.4852 11.2867 26.4734 11.2141C26.4688 11.2164 26.4688 11.3055 26.4688 11.3125C26.4734 11.5586 26.682 11.793 26.9375 11.7813C27.1883 11.7695 27.4109 11.575 27.4062 11.3125C27.3922 10.5813 26.8086 9.99299 26.075 9.98127H10.2266C10.0648 9.98127 9.90547 9.97892 9.74375 9.98127C9.16016 9.99064 8.66094 10.3586 8.47344 10.9094C8.41719 11.0711 8.41016 11.2422 8.41016 11.411V22.0867C8.41719 22.661 8.77109 23.1531 9.30781 23.35C9.57734 23.4485 9.87969 23.4227 10.1609 23.4227H11.8531C12.1063 23.4227 12.3219 23.207 12.3219 22.9539V18.3625C12.3219 17.7133 12.3195 17.0664 12.3219 16.4172V16.3563C12.3219 16.3352 12.3242 16.3141 12.3266 16.293C12.3289 16.2297 12.3008 16.382 12.3242 16.3235C12.3383 16.2883 12.35 16.2414 12.357 16.2039C12.3688 16.1453 12.3125 16.2813 12.3453 16.232C12.3594 16.211 12.3688 16.1875 12.3805 16.1664C12.3781 16.1711 12.4133 16.1149 12.4133 16.1149C12.4227 16.1195 12.3453 16.1899 12.3945 16.1383L12.4789 16.0539C12.5422 15.993 12.4578 16.075 12.4555 16.0727C12.4555 16.0727 12.5 16.0445 12.507 16.0399C12.5234 16.0305 12.5422 16.0211 12.5609 16.0094C12.4672 16.0352 12.6453 15.9602 12.5609 16.0094C12.568 16.007 12.6805 15.9742 12.6805 15.9789C12.6805 15.986 12.5563 15.986 12.65 15.9836C12.6711 15.9836 12.6922 15.9813 12.7133 15.9813H12.718C12.8094 15.9789 12.9008 15.9813 12.9922 15.9813H26.9352C27.1883 15.9813 27.4039 15.7656 27.4039 15.5125V11.3125C27.4039 11.0664 27.1883 10.832 26.9352 10.8438C26.6844 10.8555 26.4688 11.05 26.4688 11.3125Z" fill="#002C51"/>
<path d="M8.88128 13.8109H26.2039C26.4383 13.8109 26.675 13.8156 26.9094 13.8109H26.9399C27.186 13.8109 27.4203 13.5953 27.4086 13.3422C27.3969 13.089 27.2024 12.8734 26.9399 12.8734H9.61722C9.38284 12.8734 9.14612 12.8687 8.91175 12.8734H8.88128C8.63519 12.8734 8.40081 13.089 8.41253 13.3422C8.42425 13.5976 8.61878 13.8109 8.88128 13.8109ZM29.4453 16.375V26.6851C29.4453 26.6969 29.4453 26.7836 29.4407 26.7859C29.4313 26.7883 29.4688 26.664 29.443 26.7531C29.4336 26.7812 29.4266 26.8117 29.4172 26.8422C29.3914 26.9359 29.4594 26.7836 29.4242 26.8281C29.4055 26.8539 29.3867 26.8914 29.3727 26.9195C29.3258 27.0039 29.4289 26.8703 29.3821 26.9101C29.3633 26.9265 29.3493 26.9476 29.3305 26.9664C29.3258 26.9711 29.2672 27.0297 29.2625 27.0273C29.2508 27.0156 29.3493 26.9711 29.2836 27.0062C29.2578 27.0203 29.2297 27.0367 29.2039 27.0508C29.1172 27.1023 29.3024 27.025 29.2039 27.0508C29.1852 27.0555 29.1641 27.0625 29.1453 27.0695C29.1243 27.0742 29.1055 27.0789 29.0844 27.0836C29.1571 27.0742 29.1664 27.0742 29.1149 27.0789C28.7 27.0836 28.2852 27.0812 27.8703 27.0812H13.9743C13.5547 27.0812 13.1352 27.0883 12.718 27.0812H12.6852C12.6735 27.0812 12.6641 27.0789 12.6524 27.0789C12.6008 27.0742 12.6102 27.0742 12.6828 27.0836C12.6828 27.0859 12.5985 27.0625 12.5914 27.0625C12.5844 27.0601 12.5328 27.0437 12.5328 27.0437C12.5328 27.0414 12.6313 27.093 12.5352 27.039C12.5188 27.0297 12.5 27.018 12.4836 27.0086C12.4414 26.9805 12.4508 26.9875 12.5047 27.0297C12.4883 27.018 12.4742 27.0039 12.4602 26.9898C12.4414 26.9734 12.425 26.9547 12.4086 26.9359C12.3407 26.868 12.425 26.943 12.4157 26.9476C12.411 26.95 12.3383 26.8187 12.3407 26.8164C12.3453 26.814 12.3758 26.9219 12.3453 26.814C12.343 26.807 12.3219 26.7226 12.3242 26.7226C12.3313 26.7226 12.3313 26.8469 12.3289 26.7531C12.3289 26.7273 12.3266 26.7156 12.3266 26.6875V18.2711C12.3266 17.6406 12.3172 17.0078 12.3266 16.3773V16.375C12.3266 16.3633 12.3243 16.3937 12.3266 16.3422C12.3266 16.3305 12.3289 16.3211 12.3289 16.3094C12.3336 16.2578 12.3336 16.2672 12.3242 16.3398C12.3266 16.3398 12.3547 16.1898 12.3664 16.1922C12.3688 16.1922 12.3172 16.2906 12.3711 16.1945C12.3735 16.1922 12.4157 16.1172 12.4203 16.1172C12.4227 16.1195 12.3477 16.1992 12.4227 16.1195C12.4391 16.1008 12.4578 16.0844 12.4766 16.068C12.5446 16 12.4696 16.0844 12.4649 16.075C12.4625 16.0726 12.5352 16.0305 12.5422 16.0258C12.5493 16.0211 12.5961 15.9976 12.5961 15.9976C12.5985 16.0023 12.4907 16.0328 12.5985 16.0023C12.6219 15.9953 12.6524 15.993 12.6735 15.9836C12.7086 15.9765 12.6946 15.9789 12.6266 15.9883C12.6477 15.9859 12.6688 15.9836 12.6899 15.9836C12.7274 15.9812 12.7649 15.9836 12.8 15.9836H29.0868C29.0985 15.9836 29.1078 15.9859 29.1196 15.9859C29.1618 15.9906 29.1618 15.9906 29.1196 15.9859C29.1102 15.9836 29.0985 15.9836 29.0891 15.9812C29.1102 15.9859 29.1289 15.9906 29.15 15.9953C29.1571 15.9976 29.2391 16.0187 29.2391 16.0234C29.2368 16.0375 29.1477 15.9765 29.211 16.014C29.2368 16.0305 29.2625 16.0445 29.2907 16.0586C29.3797 16.1078 29.2203 15.9859 29.293 16.0586C29.3047 16.0703 29.4032 16.1594 29.3985 16.1664C29.3891 16.1758 29.3422 16.0703 29.3868 16.157C29.3985 16.1781 29.4125 16.2015 29.4242 16.2226C29.3985 16.1242 29.4758 16.3094 29.4242 16.2226C29.4289 16.2414 29.436 16.2625 29.443 16.2812C29.4453 16.2906 29.4477 16.3023 29.45 16.3117C29.4594 16.3633 29.4594 16.3515 29.4477 16.2789C29.4453 16.2789 29.4453 16.368 29.4453 16.375C29.45 16.6211 29.6586 16.8555 29.9141 16.8437C30.1649 16.832 30.3875 16.6375 30.3828 16.375C30.3711 15.7633 29.9399 15.1844 29.3188 15.0742C29.2063 15.0531 29.0985 15.0461 28.986 15.0461H12.7789C12.6524 15.0461 12.5282 15.0555 12.4063 15.0836C11.811 15.2172 11.3985 15.7773 11.3891 16.3773C11.3867 16.5484 11.3891 16.7172 11.3891 16.8883V26.5703C11.3891 26.6312 11.3867 26.6922 11.3914 26.7531C11.4407 27.4164 11.9305 27.932 12.5914 28.0094C12.7321 28.0258 12.8774 28.0187 13.018 28.0187H28.7797C28.986 28.0187 29.1922 28.0281 29.3961 27.9742C29.9774 27.8219 30.3735 27.2805 30.3828 26.6875V16.375C30.3828 16.1289 30.1672 15.8945 29.9141 15.9062C29.661 15.918 29.4453 16.1125 29.4453 16.375Z" fill="#002C51"/>
<path d="M14.436 24.7844H16.0602C16.3063 24.7844 16.5407 24.5688 16.5289 24.3156C16.5172 24.0625 16.3227 23.8469 16.0602 23.8469H14.436C14.1899 23.8469 13.9555 24.0625 13.9672 24.3156C13.9789 24.5688 14.1735 24.7844 14.436 24.7844ZM17.1618 20.8867H14.9774C14.9258 20.8891 14.9469 20.9031 14.9727 20.8914C15.0008 20.8774 15.0125 20.9008 14.9727 20.8891C14.9774 20.8891 14.9141 20.875 14.9118 20.8703C14.9118 20.8516 15.0032 20.9219 14.9399 20.8774C14.8672 20.8258 14.9586 20.8985 14.961 20.8985C14.9586 20.9008 14.9141 20.8539 14.9164 20.8563C14.8602 20.807 14.9516 20.8727 14.9328 20.8797C14.9305 20.8797 14.9094 20.8422 14.9094 20.8399C14.886 20.7883 14.9352 20.936 14.9141 20.8516C14.9141 20.8563 14.8977 20.7906 14.9 20.7906C14.9141 20.7836 14.9047 20.8961 14.9071 20.8188V18.7328C14.9071 18.7 14.9094 18.6649 14.9071 18.632C14.9071 18.625 14.9118 18.6016 14.9071 18.5969C14.9282 18.6227 14.886 18.6906 14.9047 18.6274C14.9024 18.632 14.9188 18.5664 14.9235 18.5664C14.9211 18.5664 14.8789 18.6766 14.9164 18.5945C14.9492 18.5266 14.9071 18.632 14.8953 18.6156C14.893 18.6133 14.9399 18.5688 14.9375 18.5711C14.9891 18.5149 14.9164 18.5922 14.9141 18.5875C14.9164 18.5899 14.9657 18.5524 14.968 18.557C14.9797 18.5758 14.8672 18.5852 14.9422 18.5688C14.9539 18.5664 14.9985 18.5594 15.0032 18.5547C14.9914 18.5641 14.8907 18.5594 14.975 18.5617H17.0141C17.0586 18.5617 17.1055 18.5641 17.15 18.5617C17.1618 18.5617 17.1899 18.5664 17.1969 18.5617C17.1641 18.5875 17.1055 18.5383 17.1664 18.5594C17.1782 18.5641 17.218 18.5781 17.2274 18.5781C17.2133 18.5805 17.1313 18.5289 17.1993 18.5711C17.2625 18.611 17.1805 18.55 17.1782 18.55C17.1805 18.5477 17.2157 18.5875 17.2227 18.5922C17.2907 18.6531 17.1992 18.5735 17.2063 18.5688C17.2039 18.5688 17.2414 18.6203 17.2367 18.6227C17.2297 18.6274 17.2039 18.5055 17.225 18.5969C17.2274 18.6086 17.2344 18.6508 17.2391 18.6578C17.2344 18.6508 17.2368 18.5641 17.2297 18.6133V18.6344C17.2274 18.6719 17.2297 18.7117 17.2297 18.7492V20.8188C17.2297 20.8305 17.225 20.8492 17.2297 20.8539C17.2203 20.8445 17.2602 20.7414 17.2321 20.8235C17.2297 20.8328 17.2274 20.8445 17.2227 20.8539C17.2086 20.8938 17.2086 20.8938 17.2227 20.8563C17.2391 20.8492 17.2438 20.8164 17.218 20.8563C17.1711 20.9336 17.2367 20.8352 17.2391 20.8352C17.2414 20.8375 17.2016 20.8727 17.1969 20.8797C17.1477 20.936 17.2133 20.8445 17.2203 20.8633C17.2227 20.868 17.1641 20.8914 17.1664 20.8938C17.1617 20.8867 17.2813 20.861 17.1922 20.882C17.1782 20.8867 17.1617 20.8891 17.1453 20.8938C17.0844 20.9102 17.2696 20.882 17.1618 20.8867C16.918 20.8938 16.6813 21.0977 16.693 21.3555C16.7047 21.6039 16.8993 21.8313 17.1618 21.8242C17.7196 21.8078 18.1532 21.3766 18.1672 20.8188C18.1696 20.7063 18.1672 20.5938 18.1672 20.4813V19.0211C18.1672 18.8922 18.1696 18.7633 18.1672 18.6344C18.1578 18.168 17.8297 17.718 17.3516 17.643C17.1969 17.6195 17.0469 17.6219 16.8922 17.6219H16.1961C15.7953 17.6219 15.3946 17.6195 14.9938 17.6219C14.5555 17.6266 14.1735 17.8867 14.0235 18.3016C13.9625 18.4727 13.9672 18.6508 13.9672 18.8313V20.7695C13.9672 21.1375 14.1313 21.482 14.4524 21.6789C14.661 21.8055 14.8883 21.8242 15.1227 21.8242H17.1618C17.4078 21.8242 17.6422 21.6086 17.6305 21.3555C17.6188 21.1 17.4243 20.8867 17.1618 20.8867ZM17.8414 24.7844H19.4657C19.7118 24.7844 19.9461 24.5688 19.9344 24.3156C19.9227 24.0625 19.7282 23.8469 19.4657 23.8469H17.8414C17.5953 23.8469 17.361 24.0625 17.3727 24.3156C17.3844 24.5688 17.5789 24.7844 17.8414 24.7844ZM21.2469 24.8078H22.8711C23.1172 24.8078 23.3516 24.5922 23.3399 24.3391C23.3282 24.086 23.1336 23.8703 22.8711 23.8703H21.2469C21.0008 23.8703 20.7664 24.086 20.7782 24.3391C20.7899 24.5922 20.9844 24.8078 21.2469 24.8078ZM24.6524 24.8078H26.2766C26.5227 24.8078 26.7571 24.5922 26.7453 24.3391C26.7336 24.086 26.5391 23.8703 26.2766 23.8703H24.6524C24.4063 23.8703 24.1719 24.086 24.1836 24.3391C24.1953 24.5922 24.3899 24.8078 24.6524 24.8078Z" fill="#002C51"/>
<defs>
<filter id="filter0_i_6905_9429" x="0" y="0" width="38" height="42" filterUnits="userSpaceOnUse" color-interpolation-filters="sRGB">
<feFlood flood-opacity="0" result="BackgroundImageFix"/>
<feBlend mode="normal" in="SourceGraphic" in2="BackgroundImageFix" result="shape"/>
<feColorMatrix in="SourceAlpha" type="matrix" values="0 0 0 0 0 0 0 0 0 0 0 0 0 0 0 0 0 0 127 0" result="hardAlpha"/>
<feOffset dy="4"/>
<feGaussianBlur stdDeviation="2"/>
<feComposite in2="hardAlpha" operator="arithmetic" k2="-1" k3="1"/>
<feColorMatrix type="matrix" values="0 0 0 0 0 0 0 0 0 0 0 0 0 0 0 0 0 0 0.05 0"/>
<feBlend mode="normal" in2="shape" result="effect1_innerShadow_6905_9429"/>
</filter>
<linearGradient id="paint0_linear_6905_9429" x1="19" y1="0" x2="19" y2="38" gradientUnits="userSpaceOnUse">
<stop stop-color="#84FF5B" stop-opacity="0.5"/>
<stop offset="1" stop-color="#84FF5B" stop-opacity="0"/>
</linearGradient>
</defs>
</svg>
