<svg width="344" height="38" viewBox="0 0 344 38" fill="none" xmlns="http://www.w3.org/2000/svg">
<rect x="38" y="5" width="142" height="3" fill="#31EE50"/>
<rect x="180" y="5" width="134" height="3" fill="#7E8295"/>
<path d="M1.162 34V24.844H4.088C4.72267 24.844 5.28267 24.914 5.768 25.054C6.26267 25.194 6.65 25.432 6.93 25.768C7.21933 26.0947 7.364 26.538 7.364 27.098C7.364 27.5273 7.252 27.9333 7.028 28.316C6.804 28.6893 6.49133 28.946 6.09 29.086V29.142C6.594 29.254 7.00933 29.492 7.336 29.856C7.672 30.2107 7.84 30.696 7.84 31.312C7.84 31.9187 7.686 32.4227 7.378 32.824C7.07933 33.2253 6.664 33.524 6.132 33.72C5.6 33.9067 4.998 34 4.326 34H1.162ZM2.786 28.624H3.948C4.58267 28.624 5.04467 28.5073 5.334 28.274C5.62333 28.0407 5.768 27.728 5.768 27.336C5.768 26.888 5.61867 26.5707 5.32 26.384C5.02133 26.1973 4.57333 26.104 3.976 26.104H2.786V28.624ZM2.786 32.74H4.158C4.83 32.74 5.348 32.6187 5.712 32.376C6.076 32.124 6.258 31.7413 6.258 31.228C6.258 30.7427 6.08067 30.3927 5.726 30.178C5.37133 29.954 4.84867 29.842 4.158 29.842H2.786V32.74ZM11.0415 34.168C10.4442 34.168 9.95418 33.9813 9.57152 33.608C9.19818 33.2347 9.01152 32.7493 9.01152 32.152C9.01152 31.4147 9.33352 30.8453 9.97752 30.444C10.6215 30.0333 11.6482 29.7533 13.0575 29.604C13.0482 29.24 12.9502 28.9273 12.7635 28.666C12.5862 28.3953 12.2642 28.26 11.7975 28.26C11.4615 28.26 11.1302 28.3253 10.8035 28.456C10.4862 28.5867 10.1735 28.7453 9.86552 28.932L9.27752 27.854C9.66018 27.6113 10.0895 27.4013 10.5655 27.224C11.0508 27.0467 11.5642 26.958 12.1055 26.958C12.9642 26.958 13.6035 27.2147 14.0235 27.728C14.4528 28.232 14.6675 28.9647 14.6675 29.926V34H13.3375L13.2255 33.244H13.1695C12.8615 33.5053 12.5302 33.7247 12.1755 33.902C11.8302 34.0793 11.4522 34.168 11.0415 34.168ZM11.5595 32.908C11.8395 32.908 12.0915 32.8427 12.3155 32.712C12.5488 32.572 12.7962 32.3853 13.0575 32.152V30.612C12.1242 30.7333 11.4755 30.9153 11.1115 31.158C10.7475 31.3913 10.5655 31.6807 10.5655 32.026C10.5655 32.334 10.6588 32.558 10.8455 32.698C11.0322 32.838 11.2702 32.908 11.5595 32.908ZM16.5943 34V27.126H17.9243L18.0363 28.05H18.0923C18.4003 27.7513 18.7363 27.4947 19.1003 27.28C19.4643 27.0653 19.8796 26.958 20.3463 26.958C21.0836 26.958 21.6203 27.196 21.9563 27.672C22.2923 28.148 22.4603 28.82 22.4603 29.688V34H20.8503V29.898C20.8503 29.3287 20.7663 28.9273 20.5983 28.694C20.4303 28.4607 20.1549 28.344 19.7723 28.344C19.4736 28.344 19.2076 28.4187 18.9743 28.568C18.7503 28.708 18.4936 28.918 18.2043 29.198V34H16.5943ZM24.4283 34V24.116H26.0103V30.29H26.0523L28.6003 27.126H30.3643L28.0123 29.926L30.6022 34H28.8523L27.0883 31.018L26.0103 32.25V34H24.4283ZM36.9534 34.168C36.0948 34.168 35.4088 33.8507 34.8954 33.216C34.3821 32.5813 34.1254 31.6993 34.1254 30.57C34.1254 29.8233 34.2608 29.1793 34.5314 28.638C34.8114 28.0967 35.1754 27.6813 35.6234 27.392C36.0714 27.1027 36.5428 26.958 37.0374 26.958C37.4294 26.958 37.7608 27.028 38.0314 27.168C38.3114 27.2987 38.5821 27.4807 38.8434 27.714L38.7874 26.608V24.116H40.3974V34H39.0674L38.9554 33.258H38.8994C38.6474 33.51 38.3534 33.7247 38.0174 33.902C37.6814 34.0793 37.3268 34.168 36.9534 34.168ZM37.3454 32.838C37.8588 32.838 38.3394 32.5813 38.7874 32.068V28.862C38.5541 28.6473 38.3208 28.498 38.0874 28.414C37.8541 28.33 37.6208 28.288 37.3874 28.288C36.9488 28.288 36.5708 28.4887 36.2534 28.89C35.9454 29.282 35.7914 29.8373 35.7914 30.556C35.7914 31.2933 35.9268 31.858 36.1974 32.25C36.4681 32.642 36.8508 32.838 37.3454 32.838ZM45.3878 34.168C44.7531 34.168 44.1791 34.028 43.6658 33.748C43.1524 33.4587 42.7464 33.048 42.4478 32.516C42.1491 31.9747 41.9998 31.326 41.9998 30.57C41.9998 29.8233 42.1491 29.1793 42.4478 28.638C42.7558 28.0967 43.1524 27.6813 43.6378 27.392C44.1231 27.1027 44.6318 26.958 45.1638 26.958C45.7891 26.958 46.3118 27.098 46.7318 27.378C47.1518 27.6487 47.4691 28.0313 47.6838 28.526C47.8984 29.0113 48.0058 29.576 48.0058 30.22C48.0058 30.556 47.9824 30.8173 47.9358 31.004H43.5678C43.6424 31.6107 43.8618 32.082 44.2258 32.418C44.5898 32.754 45.0471 32.922 45.5978 32.922C45.8964 32.922 46.1718 32.88 46.4238 32.796C46.6851 32.7027 46.9418 32.5767 47.1938 32.418L47.7398 33.426C47.4131 33.6407 47.0491 33.818 46.6478 33.958C46.2464 34.098 45.8264 34.168 45.3878 34.168ZM43.5538 29.912H46.6058C46.6058 29.38 46.4891 28.9647 46.2558 28.666C46.0224 28.358 45.6724 28.204 45.2058 28.204C44.8044 28.204 44.4451 28.3533 44.1278 28.652C43.8198 28.9413 43.6284 29.3613 43.5538 29.912ZM51.8288 34.168C51.0354 34.168 50.4708 33.9393 50.1348 33.482C49.8081 33.0153 49.6448 32.4133 49.6448 31.676V28.4H48.6648V27.196L49.7288 27.126L49.9248 25.25H51.2688V27.126H53.0188V28.4H51.2688V31.676C51.2688 32.4787 51.5908 32.88 52.2348 32.88C52.3561 32.88 52.4821 32.866 52.6128 32.838C52.7434 32.8007 52.8554 32.7633 52.9488 32.726L53.2288 33.916C53.0421 33.9813 52.8274 34.0373 52.5848 34.084C52.3514 34.14 52.0994 34.168 51.8288 34.168ZM55.8306 34.168C55.2332 34.168 54.7432 33.9813 54.3606 33.608C53.9872 33.2347 53.8006 32.7493 53.8006 32.152C53.8006 31.4147 54.1226 30.8453 54.7666 30.444C55.4106 30.0333 56.4372 29.7533 57.8466 29.604C57.8372 29.24 57.7392 28.9273 57.5526 28.666C57.3752 28.3953 57.0532 28.26 56.5866 28.26C56.2506 28.26 55.9192 28.3253 55.5926 28.456C55.2752 28.5867 54.9626 28.7453 54.6546 28.932L54.0666 27.854C54.4492 27.6113 54.8786 27.4013 55.3546 27.224C55.8399 27.0467 56.3532 26.958 56.8946 26.958C57.7532 26.958 58.3926 27.2147 58.8126 27.728C59.2419 28.232 59.4566 28.9647 59.4566 29.926V34H58.1266L58.0146 33.244H57.9586C57.6506 33.5053 57.3192 33.7247 56.9646 33.902C56.6192 34.0793 56.2412 34.168 55.8306 34.168ZM56.3486 32.908C56.6286 32.908 56.8806 32.8427 57.1046 32.712C57.3379 32.572 57.5852 32.3853 57.8466 32.152V30.612C56.9132 30.7333 56.2646 30.9153 55.9006 31.158C55.5366 31.3913 55.3546 31.6807 55.3546 32.026C55.3546 32.334 55.4479 32.558 55.6346 32.698C55.8212 32.838 56.0592 32.908 56.3486 32.908ZM61.3833 34V27.126H62.9933V34H61.3833ZM62.1953 25.922C61.906 25.922 61.6727 25.838 61.4953 25.67C61.318 25.502 61.2293 25.278 61.2293 24.998C61.2293 24.7273 61.318 24.508 61.4953 24.34C61.6727 24.172 61.906 24.088 62.1953 24.088C62.4847 24.088 62.718 24.172 62.8953 24.34C63.0727 24.508 63.1613 24.7273 63.1613 24.998C63.1613 25.278 63.0727 25.502 62.8953 25.67C62.718 25.838 62.4847 25.922 62.1953 25.922ZM66.6154 34.168C66.0461 34.168 65.6401 33.9953 65.3974 33.65C65.1641 33.3047 65.0474 32.8333 65.0474 32.236V24.116H66.6574V32.32C66.6574 32.516 66.6947 32.656 66.7694 32.74C66.8441 32.8147 66.9234 32.852 67.0074 32.852C67.0447 32.852 67.0774 32.852 67.1054 32.852C67.1427 32.8427 67.1941 32.8333 67.2594 32.824L67.4694 34.028C67.3761 34.0653 67.2547 34.098 67.1054 34.126C66.9654 34.154 66.8021 34.168 66.6154 34.168ZM70.7662 34.168C70.2995 34.168 69.8328 34.0793 69.3662 33.902C68.8995 33.7153 68.4982 33.4867 68.1622 33.216L68.9182 32.18C69.2262 32.4133 69.5342 32.6 69.8422 32.74C70.1502 32.88 70.4768 32.95 70.8222 32.95C71.1955 32.95 71.4708 32.8707 71.6482 32.712C71.8255 32.5533 71.9142 32.3573 71.9142 32.124C71.9142 31.928 71.8395 31.7693 71.6902 31.648C71.5502 31.5173 71.3682 31.4053 71.1442 31.312C70.9202 31.2093 70.6868 31.1113 70.4442 31.018C70.1455 30.906 69.8468 30.7707 69.5482 30.612C69.2588 30.444 69.0208 30.234 68.8342 29.982C68.6475 29.7207 68.5542 29.3987 68.5542 29.016C68.5542 28.4093 68.7782 27.9147 69.2262 27.532C69.6742 27.1493 70.2808 26.958 71.0462 26.958C71.5315 26.958 71.9655 27.042 72.3482 27.21C72.7308 27.378 73.0622 27.5693 73.3422 27.784L72.6002 28.764C72.3575 28.5867 72.1102 28.4467 71.8582 28.344C71.6155 28.232 71.3588 28.176 71.0882 28.176C70.7428 28.176 70.4862 28.2507 70.3182 28.4C70.1502 28.54 70.0662 28.7173 70.0662 28.932C70.0662 29.2027 70.2062 29.408 70.4862 29.548C70.7662 29.688 71.0928 29.8233 71.4662 29.954C71.7835 30.066 72.0915 30.206 72.3902 30.374C72.6888 30.5327 72.9362 30.7427 73.1322 31.004C73.3375 31.2653 73.4402 31.6107 73.4402 32.04C73.4402 32.628 73.2115 33.132 72.7542 33.552C72.2968 33.9627 71.6342 34.168 70.7662 34.168Z" fill="#002949"/>
<path d="M291.912 34.168C291.146 34.168 290.46 33.9813 289.854 33.608C289.256 33.2253 288.78 32.6793 288.426 31.97C288.08 31.2607 287.908 30.4067 287.908 29.408C287.908 28.4187 288.085 27.5693 288.44 26.86C288.794 26.1507 289.28 25.6047 289.896 25.222C290.512 24.8393 291.207 24.648 291.982 24.648C292.542 24.648 293.036 24.7647 293.466 24.998C293.895 25.222 294.24 25.4833 294.502 25.782L293.872 26.538C293.629 26.2767 293.354 26.0667 293.046 25.908C292.738 25.7493 292.388 25.67 291.996 25.67C291.417 25.67 290.908 25.824 290.47 26.132C290.04 26.4307 289.704 26.8553 289.462 27.406C289.228 27.9567 289.112 28.6147 289.112 29.38C289.112 30.1453 289.228 30.8127 289.462 31.382C289.695 31.942 290.022 32.376 290.442 32.684C290.871 32.992 291.375 33.146 291.954 33.146C292.392 33.146 292.784 33.0527 293.13 32.866C293.475 32.6793 293.792 32.4273 294.082 32.11L294.726 32.838C294.362 33.258 293.951 33.5847 293.494 33.818C293.036 34.0513 292.509 34.168 291.912 34.168ZM298.972 34.168C298.421 34.168 297.903 34.028 297.418 33.748C296.942 33.468 296.554 33.062 296.256 32.53C295.966 31.998 295.822 31.3587 295.822 30.612C295.822 29.8467 295.966 29.198 296.256 28.666C296.554 28.134 296.942 27.728 297.418 27.448C297.903 27.168 298.421 27.028 298.972 27.028C299.532 27.028 300.05 27.168 300.526 27.448C301.002 27.728 301.384 28.134 301.674 28.666C301.972 29.198 302.122 29.8467 302.122 30.612C302.122 31.3587 301.972 31.998 301.674 32.53C301.384 33.062 301.002 33.468 300.526 33.748C300.05 34.028 299.532 34.168 298.972 34.168ZM298.972 33.216C299.56 33.216 300.031 32.978 300.386 32.502C300.75 32.0167 300.932 31.3867 300.932 30.612C300.932 29.828 300.75 29.1933 300.386 28.708C300.031 28.2227 299.56 27.98 298.972 27.98C298.393 27.98 297.922 28.2227 297.558 28.708C297.194 29.1933 297.012 29.828 297.012 30.612C297.012 31.3867 297.194 32.0167 297.558 32.502C297.922 32.978 298.393 33.216 298.972 33.216ZM303.914 34V27.196H304.866L304.964 28.176H305.006C305.304 27.8493 305.631 27.5787 305.986 27.364C306.34 27.14 306.718 27.028 307.12 27.028C307.642 27.028 308.048 27.1447 308.338 27.378C308.636 27.602 308.856 27.9193 308.996 28.33C309.35 27.9473 309.71 27.6347 310.074 27.392C310.438 27.1493 310.825 27.028 311.236 27.028C311.936 27.028 312.454 27.2567 312.79 27.714C313.135 28.162 313.308 28.82 313.308 29.688V34H312.16V29.842C312.16 29.2073 312.057 28.7453 311.852 28.456C311.646 28.1667 311.329 28.022 310.9 28.022C310.396 28.022 309.826 28.372 309.192 29.072V34H308.044V29.842C308.044 29.2073 307.941 28.7453 307.736 28.456C307.53 28.1667 307.208 28.022 306.77 28.022C306.266 28.022 305.696 28.372 305.062 29.072V34H303.914ZM315.521 36.87V27.196H316.473L316.571 27.98H316.613C316.921 27.7187 317.257 27.4947 317.621 27.308C317.994 27.1213 318.382 27.028 318.783 27.028C319.66 27.028 320.328 27.3453 320.785 27.98C321.242 28.6053 321.471 29.4453 321.471 30.5C321.471 31.2653 321.331 31.9233 321.051 32.474C320.78 33.0247 320.421 33.4447 319.973 33.734C319.534 34.0233 319.054 34.168 318.531 34.168C318.214 34.168 317.896 34.098 317.579 33.958C317.271 33.818 316.958 33.6267 316.641 33.384L316.669 34.574V36.87H315.521ZM318.335 33.202C318.895 33.202 319.357 32.964 319.721 32.488C320.094 32.0027 320.281 31.34 320.281 30.5C320.281 29.7533 320.141 29.1513 319.861 28.694C319.59 28.2273 319.133 27.994 318.489 27.994C318.2 27.994 317.906 28.0733 317.607 28.232C317.318 28.3907 317.005 28.6193 316.669 28.918V32.488C316.977 32.7493 317.276 32.936 317.565 33.048C317.854 33.1507 318.111 33.202 318.335 33.202ZM324.505 34.168C324.075 34.168 323.763 34.0373 323.567 33.776C323.38 33.5053 323.287 33.1227 323.287 32.628V24.032H324.435V32.712C324.435 32.8893 324.467 33.02 324.533 33.104C324.598 33.1787 324.673 33.216 324.757 33.216C324.794 33.216 324.827 33.216 324.855 33.216C324.892 33.2067 324.943 33.1973 325.009 33.188L325.163 34.056C325.088 34.0933 324.999 34.1213 324.897 34.14C324.794 34.1587 324.663 34.168 324.505 34.168ZM329.613 34.168C329.006 34.168 328.456 34.028 327.961 33.748C327.466 33.4587 327.074 33.048 326.785 32.516C326.496 31.984 326.351 31.3493 326.351 30.612C326.351 29.8653 326.496 29.226 326.785 28.694C327.084 28.162 327.466 27.7513 327.933 27.462C328.4 27.1727 328.89 27.028 329.403 27.028C330.271 27.028 330.938 27.3173 331.405 27.896C331.881 28.4747 332.119 29.2493 332.119 30.22C332.119 30.3413 332.114 30.4627 332.105 30.584C332.105 30.696 332.096 30.794 332.077 30.878H327.485C327.532 31.5967 327.756 32.1707 328.157 32.6C328.568 33.0293 329.1 33.244 329.753 33.244C330.08 33.244 330.378 33.1973 330.649 33.104C330.929 33.0013 331.195 32.8707 331.447 32.712L331.853 33.468C331.564 33.6547 331.232 33.818 330.859 33.958C330.495 34.098 330.08 34.168 329.613 34.168ZM327.471 30.052H331.111C331.111 29.3613 330.962 28.8387 330.663 28.484C330.374 28.12 329.963 27.938 329.431 27.938C328.955 27.938 328.526 28.1247 328.143 28.498C327.77 28.862 327.546 29.38 327.471 30.052ZM335.806 34.168C335.078 34.168 334.569 33.958 334.28 33.538C334 33.118 333.86 32.572 333.86 31.9V28.134H332.852V27.266L333.916 27.196L334.056 25.292H335.022V27.196H336.856V28.134H335.022V31.914C335.022 32.334 335.096 32.6607 335.246 32.894C335.404 33.118 335.68 33.23 336.072 33.23C336.193 33.23 336.324 33.2113 336.464 33.174C336.604 33.1273 336.73 33.0853 336.842 33.048L337.066 33.916C336.879 33.9813 336.674 34.0373 336.45 34.084C336.235 34.14 336.02 34.168 335.806 34.168ZM340.961 34.168C340.354 34.168 339.803 34.028 339.309 33.748C338.814 33.4587 338.422 33.048 338.133 32.516C337.843 31.984 337.699 31.3493 337.699 30.612C337.699 29.8653 337.843 29.226 338.133 28.694C338.431 28.162 338.814 27.7513 339.281 27.462C339.747 27.1727 340.237 27.028 340.751 27.028C341.619 27.028 342.286 27.3173 342.753 27.896C343.229 28.4747 343.467 29.2493 343.467 30.22C343.467 30.3413 343.462 30.4627 343.453 30.584C343.453 30.696 343.443 30.794 343.425 30.878H338.833C338.879 31.5967 339.103 32.1707 339.505 32.6C339.915 33.0293 340.447 33.244 341.101 33.244C341.427 33.244 341.726 33.1973 341.997 33.104C342.277 33.0013 342.543 32.8707 342.795 32.712L343.201 33.468C342.911 33.6547 342.58 33.818 342.207 33.958C341.843 34.098 341.427 34.168 340.961 34.168ZM338.819 30.052H342.459C342.459 29.3613 342.309 28.8387 342.011 28.484C341.721 28.12 341.311 27.938 340.779 27.938C340.303 27.938 339.873 28.1247 339.491 28.498C339.117 28.862 338.893 29.38 338.819 30.052Z" fill="#7E8295"/>
<path d="M137.265 29.128L136.943 30.248H139.281L138.959 29.128C138.809 28.6427 138.665 28.1433 138.525 27.63C138.394 27.1167 138.263 26.608 138.133 26.104H138.077C137.955 26.6173 137.825 27.1307 137.685 27.644C137.554 28.148 137.414 28.6427 137.265 29.128ZM134.199 34L137.181 24.844H139.085L142.067 34H140.359L139.645 31.522H136.565L135.851 34H134.199ZM145.925 34.168C145.3 34.168 144.735 34.028 144.231 33.748C143.737 33.4587 143.34 33.048 143.041 32.516C142.752 31.9747 142.607 31.326 142.607 30.57C142.607 29.8047 142.766 29.156 143.083 28.624C143.401 28.0827 143.821 27.672 144.343 27.392C144.875 27.1027 145.445 26.958 146.051 26.958C146.49 26.958 146.873 27.0327 147.199 27.182C147.526 27.3313 147.815 27.5133 148.067 27.728L147.283 28.778C147.106 28.6193 146.924 28.498 146.737 28.414C146.551 28.3207 146.35 28.274 146.135 28.274C145.585 28.274 145.132 28.484 144.777 28.904C144.432 29.324 144.259 29.8793 144.259 30.57C144.259 31.2513 144.427 31.802 144.763 32.222C145.109 32.642 145.552 32.852 146.093 32.852C146.364 32.852 146.616 32.796 146.849 32.684C147.092 32.5627 147.311 32.4227 147.507 32.264L148.165 33.328C147.848 33.608 147.493 33.818 147.101 33.958C146.709 34.098 146.317 34.168 145.925 34.168ZM152.05 34.168C151.425 34.168 150.86 34.028 150.356 33.748C149.862 33.4587 149.465 33.048 149.166 32.516C148.877 31.9747 148.732 31.326 148.732 30.57C148.732 29.8047 148.891 29.156 149.208 28.624C149.526 28.0827 149.946 27.672 150.468 27.392C151 27.1027 151.57 26.958 152.176 26.958C152.615 26.958 152.998 27.0327 153.324 27.182C153.651 27.3313 153.94 27.5133 154.192 27.728L153.408 28.778C153.231 28.6193 153.049 28.498 152.862 28.414C152.676 28.3207 152.475 28.274 152.26 28.274C151.71 28.274 151.257 28.484 150.902 28.904C150.557 29.324 150.384 29.8793 150.384 30.57C150.384 31.2513 150.552 31.802 150.888 32.222C151.234 32.642 151.677 32.852 152.218 32.852C152.489 32.852 152.741 32.796 152.974 32.684C153.217 32.5627 153.436 32.4227 153.632 32.264L154.29 33.328C153.973 33.608 153.618 33.818 153.226 33.958C152.834 34.098 152.442 34.168 152.05 34.168ZM158.119 34.168C157.55 34.168 157.018 34.028 156.523 33.748C156.029 33.4587 155.627 33.048 155.319 32.516C155.011 31.9747 154.857 31.326 154.857 30.57C154.857 29.8047 155.011 29.156 155.319 28.624C155.627 28.0827 156.029 27.672 156.523 27.392C157.018 27.1027 157.55 26.958 158.119 26.958C158.698 26.958 159.235 27.1027 159.729 27.392C160.224 27.672 160.625 28.0827 160.933 28.624C161.241 29.156 161.395 29.8047 161.395 30.57C161.395 31.326 161.241 31.9747 160.933 32.516C160.625 33.048 160.224 33.4587 159.729 33.748C159.235 34.028 158.698 34.168 158.119 34.168ZM158.119 32.852C158.623 32.852 159.02 32.642 159.309 32.222C159.599 31.802 159.743 31.2513 159.743 30.57C159.743 29.8793 159.599 29.324 159.309 28.904C159.02 28.484 158.623 28.274 158.119 28.274C157.615 28.274 157.219 28.484 156.929 28.904C156.649 29.324 156.509 29.8793 156.509 30.57C156.509 31.2513 156.649 31.802 156.929 32.222C157.219 32.642 157.615 32.852 158.119 32.852ZM165.033 34.168C164.295 34.168 163.759 33.93 163.423 33.454C163.087 32.978 162.919 32.306 162.919 31.438V27.126H164.529V31.228C164.529 31.7973 164.613 32.1987 164.781 32.432C164.949 32.6653 165.219 32.782 165.593 32.782C165.891 32.782 166.153 32.7073 166.377 32.558C166.61 32.4087 166.857 32.166 167.119 31.83V27.126H168.729V34H167.413L167.287 32.992H167.245C166.946 33.3467 166.619 33.6313 166.265 33.846C165.91 34.0607 165.499 34.168 165.033 34.168ZM170.768 34V27.126H172.098L172.21 28.05H172.266C172.574 27.7513 172.91 27.4947 173.274 27.28C173.638 27.0653 174.053 26.958 174.52 26.958C175.257 26.958 175.794 27.196 176.13 27.672C176.466 28.148 176.634 28.82 176.634 29.688V34H175.024V29.898C175.024 29.3287 174.94 28.9273 174.772 28.694C174.604 28.4607 174.329 28.344 173.946 28.344C173.647 28.344 173.381 28.4187 173.148 28.568C172.924 28.708 172.667 28.918 172.378 29.198V34H170.768ZM181.024 34.168C180.231 34.168 179.666 33.9393 179.33 33.482C179.003 33.0153 178.84 32.4133 178.84 31.676V28.4H177.86V27.196L178.924 27.126L179.12 25.25H180.464V27.126H182.214V28.4H180.464V31.676C180.464 32.4787 180.786 32.88 181.43 32.88C181.551 32.88 181.677 32.866 181.808 32.838C181.939 32.8007 182.051 32.7633 182.144 32.726L182.424 33.916C182.237 33.9813 182.023 34.0373 181.78 34.084C181.547 34.14 181.295 34.168 181.024 34.168ZM188.871 34.168C188.013 34.168 187.327 33.8507 186.813 33.216C186.3 32.5813 186.043 31.6993 186.043 30.57C186.043 29.8233 186.179 29.1793 186.449 28.638C186.729 28.0967 187.093 27.6813 187.541 27.392C187.989 27.1027 188.461 26.958 188.955 26.958C189.347 26.958 189.679 27.028 189.949 27.168C190.229 27.2987 190.5 27.4807 190.761 27.714L190.705 26.608V24.116H192.315V34H190.985L190.873 33.258H190.817C190.565 33.51 190.271 33.7247 189.935 33.902C189.599 34.0793 189.245 34.168 188.871 34.168ZM189.263 32.838C189.777 32.838 190.257 32.5813 190.705 32.068V28.862C190.472 28.6473 190.239 28.498 190.005 28.414C189.772 28.33 189.539 28.288 189.305 28.288C188.867 28.288 188.489 28.4887 188.171 28.89C187.863 29.282 187.709 29.8373 187.709 30.556C187.709 31.2933 187.845 31.858 188.115 32.25C188.386 32.642 188.769 32.838 189.263 32.838ZM197.306 34.168C196.671 34.168 196.097 34.028 195.584 33.748C195.07 33.4587 194.664 33.048 194.366 32.516C194.067 31.9747 193.918 31.326 193.918 30.57C193.918 29.8233 194.067 29.1793 194.366 28.638C194.674 28.0967 195.07 27.6813 195.556 27.392C196.041 27.1027 196.55 26.958 197.082 26.958C197.707 26.958 198.23 27.098 198.65 27.378C199.07 27.6487 199.387 28.0313 199.602 28.526C199.816 29.0113 199.924 29.576 199.924 30.22C199.924 30.556 199.9 30.8173 199.854 31.004H195.486C195.56 31.6107 195.78 32.082 196.144 32.418C196.508 32.754 196.965 32.922 197.516 32.922C197.814 32.922 198.09 32.88 198.342 32.796C198.603 32.7027 198.86 32.5767 199.112 32.418L199.658 33.426C199.331 33.6407 198.967 33.818 198.566 33.958C198.164 34.098 197.744 34.168 197.306 34.168ZM195.472 29.912H198.524C198.524 29.38 198.407 28.9647 198.174 28.666C197.94 28.358 197.59 28.204 197.124 28.204C196.722 28.204 196.363 28.3533 196.046 28.652C195.738 28.9413 195.546 29.3613 195.472 29.912ZM203.747 34.168C202.953 34.168 202.389 33.9393 202.053 33.482C201.726 33.0153 201.563 32.4133 201.563 31.676V28.4H200.583V27.196L201.647 27.126L201.843 25.25H203.187V27.126H204.937V28.4H203.187V31.676C203.187 32.4787 203.509 32.88 204.153 32.88C204.274 32.88 204.4 32.866 204.531 32.838C204.661 32.8007 204.773 32.7633 204.867 32.726L205.147 33.916C204.96 33.9813 204.745 34.0373 204.503 34.084C204.269 34.14 204.017 34.168 203.747 34.168ZM207.749 34.168C207.151 34.168 206.661 33.9813 206.279 33.608C205.905 33.2347 205.719 32.7493 205.719 32.152C205.719 31.4147 206.041 30.8453 206.685 30.444C207.329 30.0333 208.355 29.7533 209.765 29.604C209.755 29.24 209.657 28.9273 209.471 28.666C209.293 28.3953 208.971 28.26 208.505 28.26C208.169 28.26 207.837 28.3253 207.511 28.456C207.193 28.5867 206.881 28.7453 206.573 28.932L205.985 27.854C206.367 27.6113 206.797 27.4013 207.273 27.224C207.758 27.0467 208.271 26.958 208.813 26.958C209.671 26.958 210.311 27.2147 210.731 27.728C211.16 28.232 211.375 28.9647 211.375 29.926V34H210.045L209.933 33.244H209.877C209.569 33.5053 209.237 33.7247 208.883 33.902C208.537 34.0793 208.159 34.168 207.749 34.168ZM208.267 32.908C208.547 32.908 208.799 32.8427 209.023 32.712C209.256 32.572 209.503 32.3853 209.765 32.152V30.612C208.831 30.7333 208.183 30.9153 207.819 31.158C207.455 31.3913 207.273 31.6807 207.273 32.026C207.273 32.334 207.366 32.558 207.553 32.698C207.739 32.838 207.977 32.908 208.267 32.908ZM213.301 34V27.126H214.911V34H213.301ZM214.113 25.922C213.824 25.922 213.591 25.838 213.413 25.67C213.236 25.502 213.147 25.278 213.147 24.998C213.147 24.7273 213.236 24.508 213.413 24.34C213.591 24.172 213.824 24.088 214.113 24.088C214.403 24.088 214.636 24.172 214.813 24.34C214.991 24.508 215.079 24.7273 215.079 24.998C215.079 25.278 214.991 25.502 214.813 25.67C214.636 25.838 214.403 25.922 214.113 25.922ZM218.533 34.168C217.964 34.168 217.558 33.9953 217.315 33.65C217.082 33.3047 216.965 32.8333 216.965 32.236V24.116H218.575V32.32C218.575 32.516 218.613 32.656 218.687 32.74C218.762 32.8147 218.841 32.852 218.925 32.852C218.963 32.852 218.995 32.852 219.023 32.852C219.061 32.8427 219.112 32.8333 219.177 32.824L219.387 34.028C219.294 34.0653 219.173 34.098 219.023 34.126C218.883 34.154 218.72 34.168 218.533 34.168ZM222.684 34.168C222.217 34.168 221.751 34.0793 221.284 33.902C220.817 33.7153 220.416 33.4867 220.08 33.216L220.836 32.18C221.144 32.4133 221.452 32.6 221.76 32.74C222.068 32.88 222.395 32.95 222.74 32.95C223.113 32.95 223.389 32.8707 223.566 32.712C223.743 32.5533 223.832 32.3573 223.832 32.124C223.832 31.928 223.757 31.7693 223.608 31.648C223.468 31.5173 223.286 31.4053 223.062 31.312C222.838 31.2093 222.605 31.1113 222.362 31.018C222.063 30.906 221.765 30.7707 221.466 30.612C221.177 30.444 220.939 30.234 220.752 29.982C220.565 29.7207 220.472 29.3987 220.472 29.016C220.472 28.4093 220.696 27.9147 221.144 27.532C221.592 27.1493 222.199 26.958 222.964 26.958C223.449 26.958 223.883 27.042 224.266 27.21C224.649 27.378 224.98 27.5693 225.26 27.784L224.518 28.764C224.275 28.5867 224.028 28.4467 223.776 28.344C223.533 28.232 223.277 28.176 223.006 28.176C222.661 28.176 222.404 28.2507 222.236 28.4C222.068 28.54 221.984 28.7173 221.984 28.932C221.984 29.2027 222.124 29.408 222.404 29.548C222.684 29.688 223.011 29.8233 223.384 29.954C223.701 30.066 224.009 30.206 224.308 30.374C224.607 30.5327 224.854 30.7427 225.05 31.004C225.255 31.2653 225.358 31.6107 225.358 32.04C225.358 32.628 225.129 33.132 224.672 33.552C224.215 33.9627 223.552 34.168 222.684 34.168Z" fill="#002949"/>
<circle cx="36.6833" cy="5.84349" r="5.84349" fill="#31EE50"/>
<circle cx="179.843" cy="5.84349" r="5.84349" fill="#31EE50"/>
<circle cx="315.843" cy="5.84349" r="5.84349" fill="#7E8295"/>
</svg>
