<svg width="38" height="38" viewBox="0 0 38 38" fill="none" xmlns="http://www.w3.org/2000/svg">
<g filter="url(#filter0_i_6905_9427)">
<circle cx="19" cy="19" r="19" fill="url(#paint0_linear_6905_9427)"/>
</g>
<path d="M20.4781 18.6875H13.375C13.2921 18.6875 13.2126 18.7204 13.154 18.779C13.0954 18.8376 13.0625 18.9171 13.0625 19C13.0625 19.0829 13.0954 19.1624 13.154 19.221C13.2126 19.2796 13.2921 19.3125 13.375 19.3125H19.9375L20.4781 18.6875ZM21.5734 17.4375H13.375C13.2921 17.4375 13.2126 17.4704 13.154 17.529C13.0954 17.5876 13.0625 17.6671 13.0625 17.75C13.0625 17.8329 13.0954 17.9124 13.154 17.971C13.2126 18.0296 13.2921 18.0625 13.375 18.0625H21.0312L21.5734 17.4375Z" fill="#002C51"/>
<path d="M23.6875 28.0625C23.6875 28.1454 23.6546 28.2249 23.596 28.2835C23.5374 28.3421 23.4579 28.375 23.375 28.375H11.8125C11.7296 28.375 11.6501 28.3421 11.5915 28.2835C11.5329 28.2249 11.5 28.1454 11.5 28.0625V9.9375C11.5 9.85462 11.5329 9.77513 11.5915 9.71653C11.6501 9.65792 11.7296 9.625 11.8125 9.625H18.6875V13.2188C18.6875 13.9094 19.0906 14.3125 19.7812 14.3125H23.6875V15.025L23.8438 14.8438C23.9754 14.6944 24.1345 14.5719 24.3125 14.4828V14.0312L18.9672 9H11.8125C11.5639 9 11.3254 9.09877 11.1496 9.27459C10.9738 9.4504 10.875 9.68886 10.875 9.9375V28.0625C10.875 28.3111 10.9738 28.5496 11.1496 28.7254C11.3254 28.9012 11.5639 29 11.8125 29H23.375C23.6236 29 23.8621 28.9012 24.0379 28.7254C24.2137 28.5496 24.3125 28.3111 24.3125 28.0625V21.3984L23.6875 22.1109V28.0625ZM19.3125 13.2188V10.1906L23.0344 13.6875H19.7812C19.4359 13.6875 19.3125 13.5641 19.3125 13.2188Z" fill="#002C51"/>
<path d="M27.125 16.8297C27.1179 16.7075 27.0866 16.588 27.033 16.4781C26.9793 16.3681 26.9044 16.2699 26.8125 16.1891L25.6422 15.1672C25.5497 15.0848 25.4418 15.0215 25.3248 14.981C25.2077 14.9405 25.0837 14.9236 24.9601 14.9313C24.8365 14.939 24.7156 14.9711 24.6044 15.0258C24.4933 15.0805 24.3941 15.1567 24.3125 15.25L16.7422 23.8984C16.7103 23.9349 16.6873 23.9782 16.675 24.025L15.886 27.0469C15.8712 27.103 15.8724 27.1622 15.8894 27.2177C15.9064 27.2732 15.9385 27.3229 15.9821 27.3612C16.0258 27.3995 16.0792 27.4249 16.1365 27.4345C16.1937 27.4441 16.2525 27.4376 16.3063 27.4156L19.2016 26.2328C19.2465 26.2147 19.2867 26.1863 19.3188 26.15L26.8938 17.5078C26.9755 17.4158 27.038 17.3085 27.0777 17.192C27.1174 17.0756 27.1335 16.9524 27.125 16.8297ZM17.1703 24.6L18.6078 25.7984L16.6469 26.5984L17.1703 24.6ZM19.1282 25.4172L17.4594 24.0266L23.9063 16.6719L25.575 18.0625L19.1282 25.4172ZM26.425 17.0938L25.9875 17.5938L24.3125 16.2016L24.7813 15.6672C24.8357 15.6058 24.9121 15.5683 24.9939 15.5627C25.0758 15.5572 25.1566 15.584 25.2188 15.6375L26.3953 16.6562C26.4558 16.7106 26.4927 16.7863 26.4983 16.8674C26.5038 16.9485 26.4775 17.0286 26.425 17.0906V17.0938ZM13.8032 13.4047C13.5304 13.552 13.3029 13.7707 13.1449 14.0374C12.9869 14.3041 12.9044 14.6088 12.9063 14.9188V16.1875C12.9063 16.2704 12.9392 16.3499 12.9978 16.4085C13.0564 16.4671 13.1359 16.5 13.2188 16.5C13.3017 16.5 13.3811 16.4671 13.4398 16.4085C13.4984 16.3499 13.5313 16.2704 13.5313 16.1875V14.9188C13.5275 14.6967 13.5929 14.4789 13.7183 14.2955C13.8437 14.1122 14.0229 13.9723 14.2313 13.8953C14.0612 13.7578 13.9164 13.5918 13.8032 13.4047ZM17.5938 16.5C17.6767 16.5 17.7561 16.4671 17.8148 16.4085C17.8734 16.3499 17.9063 16.2704 17.9063 16.1875V14.9188C17.9084 14.6085 17.826 14.3035 17.668 14.0365C17.51 13.7695 17.2824 13.5506 17.0094 13.4031C16.8963 13.5908 16.7515 13.7573 16.5813 13.8953C16.7896 13.9723 16.9689 14.1122 17.0943 14.2955C17.2197 14.4789 17.285 14.6967 17.2813 14.9188V16.1875C17.2813 16.2704 17.3142 16.3499 17.3728 16.4085C17.4314 16.4671 17.5109 16.5 17.5938 16.5ZM15.4063 11.1875C15.1591 11.1875 14.9174 11.2608 14.7118 11.3982C14.5063 11.5355 14.346 11.7307 14.2514 11.9591C14.1568 12.1876 14.1321 12.4389 14.1803 12.6814C14.2285 12.9238 14.3476 13.1466 14.5224 13.3214C14.6972 13.4962 14.9199 13.6153 15.1624 13.6635C15.4049 13.7117 15.6562 13.687 15.8846 13.5923C16.113 13.4977 16.3083 13.3375 16.4456 13.132C16.583 12.9264 16.6563 12.6847 16.6563 12.4375C16.6563 12.106 16.5246 11.788 16.2902 11.5536C16.0557 11.3192 15.7378 11.1875 15.4063 11.1875ZM15.4063 13.0625C15.2827 13.0625 15.1618 13.0258 15.059 12.9572C14.9563 12.8885 14.8762 12.7909 14.8289 12.6767C14.7816 12.5625 14.7692 12.4368 14.7933 12.3156C14.8174 12.1943 14.8769 12.083 14.9643 11.9956C15.0517 11.9082 15.1631 11.8486 15.2843 11.8245C15.4056 11.8004 15.5313 11.8128 15.6455 11.8601C15.7597 11.9074 15.8573 11.9875 15.9259 12.0903C15.9946 12.193 16.0313 12.3139 16.0313 12.4375C16.0313 12.6033 15.9654 12.7622 15.8482 12.8794C15.731 12.9967 15.572 13.0625 15.4063 13.0625ZM19.3813 19.9375H13.375C13.2921 19.9375 13.2127 19.9704 13.1541 20.029C13.0955 20.0876 13.0625 20.1671 13.0625 20.25C13.0625 20.3329 13.0955 20.4124 13.1541 20.471C13.2127 20.5296 13.2921 20.5625 13.375 20.5625H18.8344L19.3813 19.9375ZM18.286 21.1875H13.375C13.2921 21.1875 13.2127 21.2204 13.1541 21.279C13.0955 21.3376 13.0625 21.4171 13.0625 21.5C13.0625 21.5829 13.0955 21.6624 13.1541 21.721C13.2127 21.7796 13.2921 21.8125 13.375 21.8125H17.7391L18.286 21.1875ZM17.1907 22.4375H13.375C13.2921 22.4375 13.2127 22.4704 13.1541 22.529C13.0955 22.5876 13.0625 22.6671 13.0625 22.75C13.0625 22.8329 13.0955 22.9124 13.1541 22.971C13.2127 23.0296 13.2921 23.0625 13.375 23.0625H16.6422L17.1907 22.4375ZM16.0703 23.8672C16.0865 23.8052 16.109 23.7449 16.1375 23.6875H13.375C13.2921 23.6875 13.2127 23.7204 13.1541 23.779C13.0955 23.8376 13.0625 23.9171 13.0625 24C13.0625 24.0829 13.0955 24.1624 13.1541 24.221C13.2127 24.2796 13.2921 24.3125 13.375 24.3125H15.9532L16.0703 23.8672ZM22.125 24C22.1247 23.9698 22.1199 23.9398 22.111 23.9109L21.7594 24.3125H21.8125C21.8954 24.3125 21.9749 24.2796 22.0335 24.221C22.0921 24.1624 22.125 24.0829 22.125 24ZM13.0625 25.25C13.0625 25.3329 13.0955 25.4124 13.1541 25.471C13.2127 25.5296 13.2921 25.5625 13.375 25.5625H15.6266L15.7828 24.9375H13.375C13.2921 24.9375 13.2127 24.9704 13.1541 25.029C13.0955 25.0876 13.0625 25.1671 13.0625 25.25ZM22.125 25.25C22.125 25.1671 22.0921 25.0876 22.0335 25.029C21.9749 24.9704 21.8954 24.9375 21.8125 24.9375H21.211L20.6625 25.5625H21.8125C21.8954 25.5625 21.9749 25.5296 22.0335 25.471C22.0921 25.4124 22.125 25.3329 22.125 25.25Z" fill="#002C51"/>
<defs>
<filter id="filter0_i_6905_9427" x="0" y="0" width="38" height="42" filterUnits="userSpaceOnUse" color-interpolation-filters="sRGB">
<feFlood flood-opacity="0" result="BackgroundImageFix"/>
<feBlend mode="normal" in="SourceGraphic" in2="BackgroundImageFix" result="shape"/>
<feColorMatrix in="SourceAlpha" type="matrix" values="0 0 0 0 0 0 0 0 0 0 0 0 0 0 0 0 0 0 127 0" result="hardAlpha"/>
<feOffset dy="4"/>
<feGaussianBlur stdDeviation="2"/>
<feComposite in2="hardAlpha" operator="arithmetic" k2="-1" k3="1"/>
<feColorMatrix type="matrix" values="0 0 0 0 0 0 0 0 0 0 0 0 0 0 0 0 0 0 0.05 0"/>
<feBlend mode="normal" in2="shape" result="effect1_innerShadow_6905_9427"/>
</filter>
<linearGradient id="paint0_linear_6905_9427" x1="19" y1="0" x2="19" y2="38" gradientUnits="userSpaceOnUse">
<stop stop-color="#FFCF86" stop-opacity="0.5"/>
<stop offset="1" stop-color="#FFCF86" stop-opacity="0"/>
</linearGradient>
</defs>
</svg>
