<svg width="344" height="38" viewBox="0 0 344 38" fill="none" xmlns="http://www.w3.org/2000/svg">
<rect x="38" y="5" width="142" height="3" fill="#7E8295"/>
<rect x="180" y="5" width="134" height="3" fill="#7E8295"/>
<path d="M1.162 34V24.844H2.786V29.002H2.828L6.09 24.844H7.896L5.082 28.414L8.372 34H6.58L4.102 29.688L2.786 31.326V34H1.162ZM10.7407 34V30.598L7.99673 24.844H9.73273L10.7267 27.182C10.8574 27.5273 10.9881 27.8633 11.1187 28.19C11.2494 28.5073 11.3894 28.8433 11.5387 29.198H11.5947C11.7441 28.8433 11.8887 28.5073 12.0287 28.19C12.1687 27.8633 12.3041 27.5273 12.4347 27.182L13.4287 24.844H15.1227L12.3647 30.598V34H10.7407ZM19.6637 34.168C18.8983 34.168 18.203 33.986 17.5777 33.622C16.9523 33.258 16.453 32.726 16.0797 32.026C15.7157 31.3167 15.5337 30.458 15.5337 29.45C15.5337 28.4513 15.7203 27.5973 16.0937 26.888C16.4763 26.1693 16.985 25.6233 17.6197 25.25C18.2543 24.8673 18.9543 24.676 19.7197 24.676C20.2983 24.676 20.8117 24.7927 21.2597 25.026C21.7077 25.2593 22.0763 25.53 22.3657 25.838L21.4977 26.888C21.2643 26.6453 21.003 26.454 20.7137 26.314C20.4337 26.1647 20.1163 26.09 19.7617 26.09C19.267 26.09 18.8237 26.2253 18.4317 26.496C18.049 26.7573 17.7457 27.1353 17.5217 27.63C17.307 28.1247 17.1997 28.7173 17.1997 29.408C17.1997 30.4533 17.4283 31.2747 17.8857 31.872C18.343 32.46 18.9543 32.754 19.7197 32.754C20.1303 32.754 20.4943 32.67 20.8117 32.502C21.129 32.3247 21.4183 32.096 21.6797 31.816L22.5477 32.838C22.1743 33.2673 21.745 33.5987 21.2597 33.832C20.7837 34.056 20.2517 34.168 19.6637 34.168ZM29.1468 34.168C28.2881 34.168 27.6021 33.8507 27.0888 33.216C26.5755 32.5813 26.3188 31.6993 26.3188 30.57C26.3188 29.8233 26.4541 29.1793 26.7248 28.638C27.0048 28.0967 27.3688 27.6813 27.8168 27.392C28.2648 27.1027 28.7361 26.958 29.2308 26.958C29.6228 26.958 29.9541 27.028 30.2248 27.168C30.5048 27.2987 30.7755 27.4807 31.0368 27.714L30.9808 26.608V24.116H32.5908V34H31.2608L31.1488 33.258H31.0928C30.8408 33.51 30.5468 33.7247 30.2108 33.902C29.8748 34.0793 29.5201 34.168 29.1468 34.168ZM29.5388 32.838C30.0521 32.838 30.5328 32.5813 30.9808 32.068V28.862C30.7475 28.6473 30.5141 28.498 30.2808 28.414C30.0475 28.33 29.8141 28.288 29.5808 28.288C29.1421 28.288 28.7641 28.4887 28.4468 28.89C28.1388 29.282 27.9848 29.8373 27.9848 30.556C27.9848 31.2933 28.1201 31.858 28.3908 32.25C28.6615 32.642 29.0441 32.838 29.5388 32.838ZM37.5811 34.168C36.9465 34.168 36.3725 34.028 35.8591 33.748C35.3458 33.4587 34.9398 33.048 34.6411 32.516C34.3425 31.9747 34.1931 31.326 34.1931 30.57C34.1931 29.8233 34.3425 29.1793 34.6411 28.638C34.9491 28.0967 35.3458 27.6813 35.8311 27.392C36.3165 27.1027 36.8251 26.958 37.3571 26.958C37.9825 26.958 38.5051 27.098 38.9251 27.378C39.3451 27.6487 39.6625 28.0313 39.8771 28.526C40.0918 29.0113 40.1991 29.576 40.1991 30.22C40.1991 30.556 40.1758 30.8173 40.1291 31.004H35.7611C35.8358 31.6107 36.0551 32.082 36.4191 32.418C36.7831 32.754 37.2405 32.922 37.7911 32.922C38.0898 32.922 38.3651 32.88 38.6171 32.796C38.8785 32.7027 39.1351 32.5767 39.3871 32.418L39.9331 33.426C39.6065 33.6407 39.2425 33.818 38.8411 33.958C38.4398 34.098 38.0198 34.168 37.5811 34.168ZM35.7471 29.912H38.7991C38.7991 29.38 38.6825 28.9647 38.4491 28.666C38.2158 28.358 37.8658 28.204 37.3991 28.204C36.9978 28.204 36.6385 28.3533 36.3211 28.652C36.0131 28.9413 35.8218 29.3613 35.7471 29.912ZM44.0221 34.168C43.2288 34.168 42.6641 33.9393 42.3281 33.482C42.0015 33.0153 41.8381 32.4133 41.8381 31.676V28.4H40.8581V27.196L41.9221 27.126L42.1181 25.25H43.4621V27.126H45.2121V28.4H43.4621V31.676C43.4621 32.4787 43.7841 32.88 44.4281 32.88C44.5495 32.88 44.6755 32.866 44.8061 32.838C44.9368 32.8007 45.0488 32.7633 45.1421 32.726L45.4221 33.916C45.2355 33.9813 45.0208 34.0373 44.7781 34.084C44.5448 34.14 44.2928 34.168 44.0221 34.168ZM48.0239 34.168C47.4266 34.168 46.9366 33.9813 46.5539 33.608C46.1806 33.2347 45.9939 32.7493 45.9939 32.152C45.9939 31.4147 46.3159 30.8453 46.9599 30.444C47.6039 30.0333 48.6306 29.7533 50.0399 29.604C50.0306 29.24 49.9326 28.9273 49.7459 28.666C49.5686 28.3953 49.2466 28.26 48.7799 28.26C48.4439 28.26 48.1126 28.3253 47.7859 28.456C47.4686 28.5867 47.1559 28.7453 46.8479 28.932L46.2599 27.854C46.6426 27.6113 47.0719 27.4013 47.5479 27.224C48.0333 27.0467 48.5466 26.958 49.0879 26.958C49.9466 26.958 50.5859 27.2147 51.0059 27.728C51.4353 28.232 51.6499 28.9647 51.6499 29.926V34H50.3199L50.2079 33.244H50.1519C49.8439 33.5053 49.5126 33.7247 49.1579 33.902C48.8126 34.0793 48.4346 34.168 48.0239 34.168ZM48.5419 32.908C48.8219 32.908 49.0739 32.8427 49.2979 32.712C49.5313 32.572 49.7786 32.3853 50.0399 32.152V30.612C49.1066 30.7333 48.4579 30.9153 48.0939 31.158C47.7299 31.3913 47.5479 31.6807 47.5479 32.026C47.5479 32.334 47.6413 32.558 47.8279 32.698C48.0146 32.838 48.2526 32.908 48.5419 32.908ZM53.5767 34V27.126H55.1867V34H53.5767ZM54.3887 25.922C54.0994 25.922 53.866 25.838 53.6887 25.67C53.5114 25.502 53.4227 25.278 53.4227 24.998C53.4227 24.7273 53.5114 24.508 53.6887 24.34C53.866 24.172 54.0994 24.088 54.3887 24.088C54.678 24.088 54.9114 24.172 55.0887 24.34C55.266 24.508 55.3547 24.7273 55.3547 24.998C55.3547 25.278 55.266 25.502 55.0887 25.67C54.9114 25.838 54.678 25.922 54.3887 25.922ZM58.8088 34.168C58.2394 34.168 57.8334 33.9953 57.5908 33.65C57.3574 33.3047 57.2408 32.8333 57.2408 32.236V24.116H58.8508V32.32C58.8508 32.516 58.8881 32.656 58.9628 32.74C59.0374 32.8147 59.1168 32.852 59.2008 32.852C59.2381 32.852 59.2708 32.852 59.2988 32.852C59.3361 32.8427 59.3874 32.8333 59.4528 32.824L59.6628 34.028C59.5694 34.0653 59.4481 34.098 59.2988 34.126C59.1588 34.154 58.9954 34.168 58.8088 34.168ZM62.9595 34.168C62.4929 34.168 62.0262 34.0793 61.5595 33.902C61.0929 33.7153 60.6915 33.4867 60.3555 33.216L61.1115 32.18C61.4195 32.4133 61.7275 32.6 62.0355 32.74C62.3435 32.88 62.6702 32.95 63.0155 32.95C63.3889 32.95 63.6642 32.8707 63.8415 32.712C64.0189 32.5533 64.1075 32.3573 64.1075 32.124C64.1075 31.928 64.0329 31.7693 63.8835 31.648C63.7435 31.5173 63.5615 31.4053 63.3375 31.312C63.1135 31.2093 62.8802 31.1113 62.6375 31.018C62.3389 30.906 62.0402 30.7707 61.7415 30.612C61.4522 30.444 61.2142 30.234 61.0275 29.982C60.8409 29.7207 60.7475 29.3987 60.7475 29.016C60.7475 28.4093 60.9715 27.9147 61.4195 27.532C61.8675 27.1493 62.4742 26.958 63.2395 26.958C63.7249 26.958 64.1589 27.042 64.5415 27.21C64.9242 27.378 65.2555 27.5693 65.5355 27.784L64.7935 28.764C64.5509 28.5867 64.3035 28.4467 64.0515 28.344C63.8089 28.232 63.5522 28.176 63.2815 28.176C62.9362 28.176 62.6795 28.2507 62.5115 28.4C62.3435 28.54 62.2595 28.7173 62.2595 28.932C62.2595 29.2027 62.3995 29.408 62.6795 29.548C62.9595 29.688 63.2862 29.8233 63.6595 29.954C63.9769 30.066 64.2849 30.206 64.5835 30.374C64.8822 30.5327 65.1295 30.7427 65.3255 31.004C65.5309 31.2653 65.6335 31.6107 65.6335 32.04C65.6335 32.628 65.4049 33.132 64.9475 33.552C64.4902 33.9627 63.8275 34.168 62.9595 34.168Z" fill="#002949"/>
<path d="M291.912 34.168C291.146 34.168 290.46 33.9813 289.854 33.608C289.256 33.2253 288.78 32.6793 288.426 31.97C288.08 31.2607 287.908 30.4067 287.908 29.408C287.908 28.4187 288.085 27.5693 288.44 26.86C288.794 26.1507 289.28 25.6047 289.896 25.222C290.512 24.8393 291.207 24.648 291.982 24.648C292.542 24.648 293.036 24.7647 293.466 24.998C293.895 25.222 294.24 25.4833 294.502 25.782L293.872 26.538C293.629 26.2767 293.354 26.0667 293.046 25.908C292.738 25.7493 292.388 25.67 291.996 25.67C291.417 25.67 290.908 25.824 290.47 26.132C290.04 26.4307 289.704 26.8553 289.462 27.406C289.228 27.9567 289.112 28.6147 289.112 29.38C289.112 30.1453 289.228 30.8127 289.462 31.382C289.695 31.942 290.022 32.376 290.442 32.684C290.871 32.992 291.375 33.146 291.954 33.146C292.392 33.146 292.784 33.0527 293.13 32.866C293.475 32.6793 293.792 32.4273 294.082 32.11L294.726 32.838C294.362 33.258 293.951 33.5847 293.494 33.818C293.036 34.0513 292.509 34.168 291.912 34.168ZM298.972 34.168C298.421 34.168 297.903 34.028 297.418 33.748C296.942 33.468 296.554 33.062 296.256 32.53C295.966 31.998 295.822 31.3587 295.822 30.612C295.822 29.8467 295.966 29.198 296.256 28.666C296.554 28.134 296.942 27.728 297.418 27.448C297.903 27.168 298.421 27.028 298.972 27.028C299.532 27.028 300.05 27.168 300.526 27.448C301.002 27.728 301.384 28.134 301.674 28.666C301.972 29.198 302.122 29.8467 302.122 30.612C302.122 31.3587 301.972 31.998 301.674 32.53C301.384 33.062 301.002 33.468 300.526 33.748C300.05 34.028 299.532 34.168 298.972 34.168ZM298.972 33.216C299.56 33.216 300.031 32.978 300.386 32.502C300.75 32.0167 300.932 31.3867 300.932 30.612C300.932 29.828 300.75 29.1933 300.386 28.708C300.031 28.2227 299.56 27.98 298.972 27.98C298.393 27.98 297.922 28.2227 297.558 28.708C297.194 29.1933 297.012 29.828 297.012 30.612C297.012 31.3867 297.194 32.0167 297.558 32.502C297.922 32.978 298.393 33.216 298.972 33.216ZM303.914 34V27.196H304.866L304.964 28.176H305.006C305.304 27.8493 305.631 27.5787 305.986 27.364C306.34 27.14 306.718 27.028 307.12 27.028C307.642 27.028 308.048 27.1447 308.338 27.378C308.636 27.602 308.856 27.9193 308.996 28.33C309.35 27.9473 309.71 27.6347 310.074 27.392C310.438 27.1493 310.825 27.028 311.236 27.028C311.936 27.028 312.454 27.2567 312.79 27.714C313.135 28.162 313.308 28.82 313.308 29.688V34H312.16V29.842C312.16 29.2073 312.057 28.7453 311.852 28.456C311.646 28.1667 311.329 28.022 310.9 28.022C310.396 28.022 309.826 28.372 309.192 29.072V34H308.044V29.842C308.044 29.2073 307.941 28.7453 307.736 28.456C307.53 28.1667 307.208 28.022 306.77 28.022C306.266 28.022 305.696 28.372 305.062 29.072V34H303.914ZM315.521 36.87V27.196H316.473L316.571 27.98H316.613C316.921 27.7187 317.257 27.4947 317.621 27.308C317.994 27.1213 318.382 27.028 318.783 27.028C319.66 27.028 320.328 27.3453 320.785 27.98C321.242 28.6053 321.471 29.4453 321.471 30.5C321.471 31.2653 321.331 31.9233 321.051 32.474C320.78 33.0247 320.421 33.4447 319.973 33.734C319.534 34.0233 319.054 34.168 318.531 34.168C318.214 34.168 317.896 34.098 317.579 33.958C317.271 33.818 316.958 33.6267 316.641 33.384L316.669 34.574V36.87H315.521ZM318.335 33.202C318.895 33.202 319.357 32.964 319.721 32.488C320.094 32.0027 320.281 31.34 320.281 30.5C320.281 29.7533 320.141 29.1513 319.861 28.694C319.59 28.2273 319.133 27.994 318.489 27.994C318.2 27.994 317.906 28.0733 317.607 28.232C317.318 28.3907 317.005 28.6193 316.669 28.918V32.488C316.977 32.7493 317.276 32.936 317.565 33.048C317.854 33.1507 318.111 33.202 318.335 33.202ZM324.505 34.168C324.075 34.168 323.763 34.0373 323.567 33.776C323.38 33.5053 323.287 33.1227 323.287 32.628V24.032H324.435V32.712C324.435 32.8893 324.467 33.02 324.533 33.104C324.598 33.1787 324.673 33.216 324.757 33.216C324.794 33.216 324.827 33.216 324.855 33.216C324.892 33.2067 324.943 33.1973 325.009 33.188L325.163 34.056C325.088 34.0933 324.999 34.1213 324.897 34.14C324.794 34.1587 324.663 34.168 324.505 34.168ZM329.613 34.168C329.006 34.168 328.456 34.028 327.961 33.748C327.466 33.4587 327.074 33.048 326.785 32.516C326.496 31.984 326.351 31.3493 326.351 30.612C326.351 29.8653 326.496 29.226 326.785 28.694C327.084 28.162 327.466 27.7513 327.933 27.462C328.4 27.1727 328.89 27.028 329.403 27.028C330.271 27.028 330.938 27.3173 331.405 27.896C331.881 28.4747 332.119 29.2493 332.119 30.22C332.119 30.3413 332.114 30.4627 332.105 30.584C332.105 30.696 332.096 30.794 332.077 30.878H327.485C327.532 31.5967 327.756 32.1707 328.157 32.6C328.568 33.0293 329.1 33.244 329.753 33.244C330.08 33.244 330.378 33.1973 330.649 33.104C330.929 33.0013 331.195 32.8707 331.447 32.712L331.853 33.468C331.564 33.6547 331.232 33.818 330.859 33.958C330.495 34.098 330.08 34.168 329.613 34.168ZM327.471 30.052H331.111C331.111 29.3613 330.962 28.8387 330.663 28.484C330.374 28.12 329.963 27.938 329.431 27.938C328.955 27.938 328.526 28.1247 328.143 28.498C327.77 28.862 327.546 29.38 327.471 30.052ZM335.806 34.168C335.078 34.168 334.569 33.958 334.28 33.538C334 33.118 333.86 32.572 333.86 31.9V28.134H332.852V27.266L333.916 27.196L334.056 25.292H335.022V27.196H336.856V28.134H335.022V31.914C335.022 32.334 335.096 32.6607 335.246 32.894C335.404 33.118 335.68 33.23 336.072 33.23C336.193 33.23 336.324 33.2113 336.464 33.174C336.604 33.1273 336.73 33.0853 336.842 33.048L337.066 33.916C336.879 33.9813 336.674 34.0373 336.45 34.084C336.235 34.14 336.02 34.168 335.806 34.168ZM340.961 34.168C340.354 34.168 339.803 34.028 339.309 33.748C338.814 33.4587 338.422 33.048 338.133 32.516C337.843 31.984 337.699 31.3493 337.699 30.612C337.699 29.8653 337.843 29.226 338.133 28.694C338.431 28.162 338.814 27.7513 339.281 27.462C339.747 27.1727 340.237 27.028 340.751 27.028C341.619 27.028 342.286 27.3173 342.753 27.896C343.229 28.4747 343.467 29.2493 343.467 30.22C343.467 30.3413 343.462 30.4627 343.453 30.584C343.453 30.696 343.443 30.794 343.425 30.878H338.833C338.879 31.5967 339.103 32.1707 339.505 32.6C339.915 33.0293 340.447 33.244 341.101 33.244C341.427 33.244 341.726 33.1973 341.997 33.104C342.277 33.0013 342.543 32.8707 342.795 32.712L343.201 33.468C342.911 33.6547 342.58 33.818 342.207 33.958C341.843 34.098 341.427 34.168 340.961 34.168ZM338.819 30.052H342.459C342.459 29.3613 342.309 28.8387 342.011 28.484C341.721 28.12 341.311 27.938 340.779 27.938C340.303 27.938 339.873 28.1247 339.491 28.498C339.117 28.862 338.893 29.38 338.819 30.052Z" fill="#7E8295"/>
<circle cx="36.6833" cy="5.84349" r="5.84349" fill="#31EE50"/>
<circle cx="315.843" cy="5.84349" r="5.84349" fill="#7E8295"/>
</svg>
