<svg width="79" height="17" viewBox="0 0 79 17" fill="none" xmlns="http://www.w3.org/2000/svg">
<path d="M68.7773 6.42188H69.4663V11.9335H68.7773V6.42188Z" fill="#FF0000"/>
<path d="M70.1543 6.42188H70.8433V11.9335H70.1543V6.42188Z" fill="#FF0000"/>
<path d="M71.5332 6.42188H72.2222V11.9335H71.5332V6.42188Z" fill="#FF0000"/>
<path d="M66.0215 4.35449H74.9779V5.04345H66.0215V4.35449Z" fill="#FF0000"/>
<path d="M72.1996 4.69942H71.5566V4.01047C71.5566 3.80378 71.3958 3.64303 71.1892 3.64303H69.8112C69.6046 3.64303 69.4438 3.80378 69.4438 4.01047V4.69942H68.8008V4.01047C68.8008 3.4593 69.2601 3 69.8112 3H71.1892C71.7403 3 72.1996 3.4593 72.1996 4.01047V4.69942Z" fill="#FF0000"/>
<path d="M72.5671 14.0006H68.4333C67.8822 14.0006 67.3999 13.5413 67.354 12.9902L66.7109 4.72269L67.3999 4.67676L68.0429 12.9442C68.0659 13.1509 68.2496 13.3117 68.4333 13.3117H72.5671C72.7738 13.3117 72.9575 13.128 72.9575 12.9442L73.6005 4.67676L74.2895 4.72269L73.6464 12.9902C73.6005 13.5643 73.1182 14.0006 72.5671 14.0006Z" fill="#FF0000"/>
<path d="M1.32803 13V5.152H6.05603V6.328H2.72003V8.332H5.54003V9.508H2.72003V11.824H6.17603V13H1.32803ZM7.66506 13V7.108H8.80506L8.90106 7.912H8.94906C9.19706 7.648 9.46506 7.424 9.75306 7.24C10.0491 7.056 10.3811 6.964 10.7491 6.964C11.1811 6.964 11.5251 7.06 11.7811 7.252C12.0451 7.436 12.2451 7.692 12.3811 8.02C12.6611 7.716 12.9531 7.464 13.2571 7.264C13.5691 7.064 13.9091 6.964 14.2771 6.964C14.9011 6.964 15.3611 7.168 15.6571 7.576C15.9531 7.984 16.1011 8.56 16.1011 9.304V13H14.7091V9.484C14.7091 8.996 14.6331 8.652 14.4811 8.452C14.3371 8.252 14.1131 8.152 13.8091 8.152C13.4411 8.152 13.0291 8.396 12.5731 8.884V13H11.1931V9.484C11.1931 8.996 11.1171 8.652 10.9651 8.452C10.8211 8.252 10.5931 8.152 10.2811 8.152C9.91306 8.152 9.50106 8.396 9.04506 8.884V13H7.66506ZM17.7783 15.328V7.108H18.9183L19.0143 7.732H19.0623C19.3103 7.524 19.5863 7.344 19.8903 7.192C20.2023 7.04 20.5183 6.964 20.8383 6.964C21.5743 6.964 22.1423 7.236 22.5423 7.78C22.9503 8.324 23.1543 9.052 23.1543 9.964C23.1543 10.636 23.0343 11.212 22.7943 11.692C22.5543 12.164 22.2423 12.524 21.8583 12.772C21.4823 13.02 21.0743 13.144 20.6343 13.144C20.3783 13.144 20.1223 13.088 19.8663 12.976C19.6103 12.856 19.3623 12.696 19.1223 12.496L19.1583 13.48V15.328H17.7783ZM20.3463 12.004C20.7383 12.004 21.0663 11.832 21.3303 11.488C21.5943 11.144 21.7263 10.64 21.7263 9.976C21.7263 9.384 21.6263 8.924 21.4263 8.596C21.2263 8.268 20.9023 8.104 20.4543 8.104C20.0383 8.104 19.6063 8.324 19.1583 8.764V11.512C19.3743 11.688 19.5823 11.816 19.7823 11.896C19.9823 11.968 20.1703 12.004 20.3463 12.004ZM26.3583 13.144C25.6783 13.144 25.1943 12.948 24.9062 12.556C24.6263 12.156 24.4863 11.64 24.4863 11.008V8.2H23.6463V7.168L24.5583 7.108L24.7263 5.5H25.8783V7.108H27.3783V8.2H25.8783V11.008C25.8783 11.696 26.1543 12.04 26.7063 12.04C26.8103 12.04 26.9183 12.028 27.0303 12.004C27.1423 11.972 27.2383 11.94 27.3183 11.908L27.5583 12.928C27.3983 12.984 27.2143 13.032 27.0063 13.072C26.8063 13.12 26.5903 13.144 26.3583 13.144ZM29.0142 15.424C28.8542 15.424 28.7142 15.412 28.5942 15.388C28.4742 15.364 28.3582 15.336 28.2462 15.304L28.4982 14.224C28.5542 14.24 28.6182 14.256 28.6902 14.272C28.7702 14.296 28.8462 14.308 28.9182 14.308C29.2302 14.308 29.4782 14.212 29.6622 14.02C29.8542 13.836 29.9982 13.596 30.0942 13.3L30.2022 12.928L27.8862 7.108H29.2902L30.3102 10C30.3982 10.256 30.4822 10.528 30.5622 10.816C30.6502 11.096 30.7382 11.376 30.8262 11.656H30.8742C30.9462 11.384 31.0182 11.108 31.0902 10.828C31.1702 10.54 31.2462 10.264 31.3182 10L32.2062 7.108H33.5382L31.4022 13.264C31.1542 13.928 30.8542 14.452 30.5022 14.836C30.1502 15.228 29.6542 15.424 29.0142 15.424ZM40.2139 13.144C39.5579 13.144 38.9619 12.988 38.4259 12.676C37.8899 12.364 37.4619 11.908 37.1419 11.308C36.8299 10.7 36.6739 9.964 36.6739 9.1C36.6739 8.244 36.8339 7.512 37.1539 6.904C37.4819 6.288 37.9179 5.82 38.4619 5.5C39.0059 5.172 39.6059 5.008 40.2619 5.008C40.7579 5.008 41.1979 5.108 41.5819 5.308C41.9659 5.508 42.2819 5.74 42.5299 6.004L41.7859 6.904C41.5859 6.696 41.3619 6.532 41.1139 6.412C40.8739 6.284 40.6019 6.22 40.2979 6.22C39.8739 6.22 39.4939 6.336 39.1579 6.568C38.8299 6.792 38.5699 7.116 38.3779 7.54C38.1939 7.964 38.1019 8.472 38.1019 9.064C38.1019 9.96 38.2979 10.664 38.6899 11.176C39.0819 11.68 39.6059 11.932 40.2619 11.932C40.6139 11.932 40.9259 11.86 41.1979 11.716C41.4699 11.564 41.7179 11.368 41.9419 11.128L42.6859 12.004C42.3659 12.372 41.9979 12.656 41.5819 12.856C41.1739 13.048 40.7179 13.144 40.2139 13.144ZM45.304 13.144C44.792 13.144 44.372 12.984 44.044 12.664C43.724 12.344 43.564 11.928 43.564 11.416C43.564 10.784 43.84 10.296 44.392 9.952C44.944 9.6 45.824 9.36 47.032 9.232C47.024 8.92 46.94 8.652 46.78 8.428C46.628 8.196 46.352 8.08 45.952 8.08C45.664 8.08 45.38 8.136 45.1 8.248C44.828 8.36 44.56 8.496 44.296 8.656L43.792 7.732C44.12 7.524 44.488 7.344 44.896 7.192C45.312 7.04 45.752 6.964 46.216 6.964C46.952 6.964 47.5 7.184 47.86 7.624C48.228 8.056 48.412 8.684 48.412 9.508V13H47.272L47.176 12.352H47.128C46.864 12.576 46.58 12.764 46.276 12.916C45.98 13.068 45.656 13.144 45.304 13.144ZM45.748 12.064C45.988 12.064 46.204 12.008 46.396 11.896C46.596 11.776 46.808 11.616 47.032 11.416V10.096C46.232 10.2 45.676 10.356 45.364 10.564C45.052 10.764 44.896 11.012 44.896 11.308C44.896 11.572 44.976 11.764 45.136 11.884C45.296 12.004 45.5 12.064 45.748 12.064ZM50.0635 13V7.108H51.2035L51.2995 8.152H51.3475C51.5555 7.768 51.8075 7.476 52.1035 7.276C52.3995 7.068 52.7035 6.964 53.0155 6.964C53.2955 6.964 53.5195 7.004 53.6875 7.084L53.4475 8.284C53.3435 8.252 53.2475 8.228 53.1595 8.212C53.0715 8.196 52.9635 8.188 52.8355 8.188C52.6035 8.188 52.3595 8.28 52.1035 8.464C51.8475 8.64 51.6275 8.952 51.4435 9.4V13H50.0635ZM56.6161 13.144C55.9361 13.144 55.4521 12.948 55.1641 12.556C54.8841 12.156 54.7441 11.64 54.7441 11.008V8.2H53.9041V7.168L54.8161 7.108L54.9841 5.5H56.1361V7.108H57.6361V8.2H56.1361V11.008C56.1361 11.696 56.4121 12.04 56.9641 12.04C57.0681 12.04 57.1761 12.028 57.2881 12.004C57.4001 11.972 57.4961 11.94 57.5761 11.908L57.8161 12.928C57.6561 12.984 57.4721 13.032 57.2641 13.072C57.0641 13.12 56.8481 13.144 56.6161 13.144Z" fill="#002949"/>
</svg>
