<svg width="38" height="38" viewBox="0 0 38 38" fill="none" xmlns="http://www.w3.org/2000/svg">
<g filter="url(#filter0_i_6905_9472)">
<circle cx="19" cy="19" r="19" fill="url(#paint0_linear_6905_9472)" fill-opacity="0.5"/>
</g>
<g clip-path="url(#clip0_6905_9472)">
<path d="M28.9975 15.1937H20.9537V12.7787C20.9537 11.6762 20.0575 10.7762 18.9513 10.7762L9.0025 10.7725C7.9 10.7687 7 11.6687 7 12.7712V19.1425C7 20.245 7.89625 21.145 9.0025 21.145H9.37375V22.27C9.37375 22.4687 9.4825 22.6487 9.65875 22.7425C9.74498 22.7887 9.84214 22.8107 9.93988 22.8061C10.0376 22.8015 10.1323 22.7704 10.2137 22.7162L12.565 21.145H17.05V23.5637C17.05 24.6662 17.9462 25.5625 19.0487 25.5625H25.4387L27.79 27.1375C27.8715 27.1917 27.9661 27.2227 28.0639 27.2273C28.1616 27.232 28.2588 27.21 28.345 27.1637C28.5212 27.07 28.63 26.89 28.63 26.6912V25.5662H29.0012C30.1075 25.5662 31.0037 24.67 31.0075 23.5675V17.2C31 16.0937 30.1 15.1937 28.9975 15.1937ZM17.6012 20.0687H12.3963C12.2913 20.0687 12.1863 20.0987 12.0963 20.1587L10.4462 21.2612V20.605C10.4462 20.3087 10.2063 20.0687 9.91 20.0687H9.0025C8.4925 20.0687 8.07625 19.6525 8.07625 19.1425V12.7712C8.07625 12.2612 8.4925 11.845 9.0025 11.845L18.9513 11.8487C19.4613 11.8487 19.8775 12.265 19.8775 12.775V19.1425C19.8775 19.6525 19.4613 20.0687 18.9513 20.0687H17.6012ZM29.9237 23.5675C29.9237 24.0775 29.5075 24.4937 28.9938 24.4937H28.0863C27.79 24.4937 27.55 24.7337 27.55 25.03V25.6862L25.9 24.58C25.81 24.52 25.7087 24.49 25.6 24.49H19.045C18.535 24.49 18.1187 24.0737 18.1187 23.5637V21.145H18.9475C20.05 21.145 20.95 20.2487 20.95 19.1425V16.2625H28.9938C29.2404 16.2625 29.477 16.3605 29.6514 16.5349C29.8258 16.7093 29.9237 16.9458 29.9237 17.1925V23.5675Z" fill="#002C51"/>
<path d="M15.7607 17.485C15.7369 17.4641 15.7087 17.4487 15.6782 17.44C15.6445 17.4288 15.5957 17.41 15.5357 17.3838C15.4757 17.3575 15.4045 17.32 15.3145 17.2675C15.2282 17.215 15.127 17.14 15.0145 17.0425C15.0895 16.9675 15.157 16.8813 15.2132 16.7838C15.2732 16.6863 15.322 16.5775 15.3595 16.4575C15.4007 16.3375 15.4307 16.21 15.4495 16.0713C15.472 15.9325 15.4795 15.7825 15.4795 15.625C15.4795 15.3175 15.442 15.055 15.3707 14.83C15.2995 14.605 15.1945 14.4212 15.052 14.275C14.9132 14.1287 14.7407 14.02 14.5382 13.9488C14.3357 13.8775 14.0995 13.8438 13.837 13.8438C13.5557 13.8438 13.3082 13.885 13.0982 13.9713C12.8845 14.0575 12.7082 14.1812 12.562 14.3387C12.4195 14.5 12.3107 14.6913 12.2357 14.92C12.1645 15.1488 12.127 15.4075 12.127 15.6925C12.127 16.0075 12.1607 16.2813 12.2282 16.51C12.2957 16.7388 12.4007 16.9263 12.5357 17.0763C12.6707 17.2225 12.8432 17.3313 13.0495 17.4025C13.2557 17.4738 13.4957 17.5075 13.7695 17.5075C13.9157 17.5075 14.047 17.4925 14.167 17.4663C14.287 17.4363 14.3882 17.4062 14.4707 17.365C14.572 17.4813 14.6807 17.5825 14.797 17.6688C14.9132 17.7588 15.0295 17.8338 15.142 17.8938C15.2545 17.9538 15.3595 18.0025 15.457 18.0363C15.5545 18.07 15.6332 18.085 15.6932 18.085C15.7082 18.085 15.7232 18.0813 15.7345 18.0738C15.7457 18.0663 15.7607 18.055 15.7682 18.0325C15.7812 18.0026 15.79 17.971 15.7945 17.9388C15.802 17.8975 15.8057 17.845 15.8057 17.7813C15.8057 17.6988 15.802 17.635 15.7907 17.59C15.7795 17.545 15.7832 17.5037 15.7607 17.485ZM14.6845 16.1463C14.6545 16.2962 14.602 16.4313 14.5307 16.5438C14.4595 16.6563 14.362 16.7463 14.242 16.81C14.122 16.8775 13.9757 16.9075 13.7995 16.9075C13.6232 16.9075 13.477 16.8775 13.3607 16.8213C13.2445 16.765 13.1507 16.6788 13.0832 16.57C13.0088 16.4484 12.9591 16.3133 12.937 16.1725C12.9053 15.9993 12.8902 15.8235 12.892 15.6475C12.892 15.4825 12.907 15.3287 12.937 15.1787C12.967 15.0287 13.0195 14.9013 13.0907 14.7888C13.162 14.6763 13.2595 14.59 13.3795 14.5225C13.4995 14.455 13.6457 14.425 13.822 14.425C13.9982 14.425 14.1445 14.455 14.2607 14.515C14.377 14.575 14.4707 14.6575 14.542 14.7662C14.6132 14.875 14.662 15.0063 14.692 15.1563C14.722 15.3063 14.737 15.475 14.737 15.6588C14.7332 15.8313 14.7145 15.9925 14.6845 16.1463ZM24.5432 18.6175C24.5348 18.5865 24.5208 18.5573 24.502 18.5313C24.487 18.5088 24.457 18.4938 24.4195 18.4825C24.3681 18.4688 24.3151 18.4625 24.262 18.4638C24.1945 18.46 24.1045 18.46 23.9882 18.46C23.8907 18.46 23.812 18.46 23.752 18.4638C23.692 18.4675 23.647 18.475 23.6132 18.4825C23.5795 18.4938 23.5532 18.5088 23.5382 18.5275C23.5232 18.5463 23.5082 18.5725 23.497 18.6063L22.342 21.9288C22.3195 21.9963 22.3045 22.0488 22.297 22.09C22.2895 22.1313 22.297 22.1613 22.3157 22.1838C22.3345 22.2063 22.3682 22.2213 22.4207 22.225C22.4695 22.2325 22.5407 22.2325 22.6307 22.2325C22.7132 22.2325 22.7807 22.2288 22.8332 22.225C22.8857 22.2213 22.9232 22.2138 22.9532 22.2025C22.9795 22.1913 23.002 22.1762 23.0132 22.1575C23.0261 22.1364 23.0362 22.1137 23.0432 22.09L23.2795 21.3588H24.6857L24.937 22.1125C24.9445 22.1388 24.9557 22.1575 24.967 22.1725C24.9782 22.1875 24.997 22.1988 25.027 22.21C25.057 22.2175 25.0982 22.225 25.1545 22.2288C25.2107 22.2325 25.2857 22.2325 25.3832 22.2325C25.477 22.2325 25.552 22.2288 25.6045 22.225C25.657 22.2213 25.6945 22.2063 25.717 22.1875C25.7395 22.1688 25.747 22.1388 25.7395 22.0975C25.7295 22.0412 25.7144 21.986 25.6945 21.9325L24.5432 18.6175ZM23.452 20.7813L23.9807 19.1912H23.9845L24.5132 20.7813H23.452Z" fill="#002C51"/>
</g>
<defs>
<filter id="filter0_i_6905_9472" x="0" y="0" width="38" height="42" filterUnits="userSpaceOnUse" color-interpolation-filters="sRGB">
<feFlood flood-opacity="0" result="BackgroundImageFix"/>
<feBlend mode="normal" in="SourceGraphic" in2="BackgroundImageFix" result="shape"/>
<feColorMatrix in="SourceAlpha" type="matrix" values="0 0 0 0 0 0 0 0 0 0 0 0 0 0 0 0 0 0 127 0" result="hardAlpha"/>
<feOffset dy="4"/>
<feGaussianBlur stdDeviation="2"/>
<feComposite in2="hardAlpha" operator="arithmetic" k2="-1" k3="1"/>
<feColorMatrix type="matrix" values="0 0 0 0 0 0 0 0 0 0 0 0 0 0 0 0 0 0 0.05 0"/>
<feBlend mode="normal" in2="shape" result="effect1_innerShadow_6905_9472"/>
</filter>
<linearGradient id="paint0_linear_6905_9472" x1="19" y1="0" x2="19" y2="38" gradientUnits="userSpaceOnUse">
<stop stop-color="#53CD23" stop-opacity="0.5"/>
<stop offset="1" stop-color="#53CD23" stop-opacity="0"/>
</linearGradient>
<clipPath id="clip0_6905_9472">
<rect width="24" height="24" fill="white" transform="translate(7 7)"/>
</clipPath>
</defs>
</svg>
