<svg width="361" height="35" viewBox="0 0 361 35" fill="none" xmlns="http://www.w3.org/2000/svg">
<path d="M234 5H336V8H234V5Z" fill="#7E8295"/>
<rect x="136" y="5" width="99" height="3" fill="#7E8295"/>
<rect x="43" y="5" width="93" height="3" fill="#7E8295"/>
<path d="M118.874 26.596L118.502 27.796H120.866L120.494 26.596C120.35 26.156 120.214 25.72 120.086 25.288C119.958 24.848 119.83 24.4 119.702 23.944H119.654C119.534 24.4 119.41 24.848 119.282 25.288C119.154 25.72 119.018 26.156 118.874 26.596ZM116.474 31L119.138 23.128H120.266L122.93 31H121.862L121.118 28.6H118.25L117.494 31H116.474ZM123.949 31V25.168H124.765L124.849 26.008H124.885C125.141 25.728 125.421 25.496 125.725 25.312C126.029 25.12 126.353 25.024 126.697 25.024C127.145 25.024 127.493 25.124 127.741 25.324C127.997 25.516 128.185 25.788 128.305 26.14C128.609 25.812 128.917 25.544 129.229 25.336C129.541 25.128 129.873 25.024 130.225 25.024C130.825 25.024 131.269 25.22 131.557 25.612C131.853 25.996 132.001 26.56 132.001 27.304V31H131.017V27.436C131.017 26.892 130.929 26.496 130.753 26.248C130.577 26 130.305 25.876 129.937 25.876C129.505 25.876 129.017 26.176 128.473 26.776V31H127.489V27.436C127.489 26.892 127.401 26.496 127.225 26.248C127.049 26 126.773 25.876 126.397 25.876C125.965 25.876 125.477 26.176 124.933 26.776V31H123.949ZM136.166 31.144C135.694 31.144 135.25 31.024 134.834 30.784C134.426 30.544 134.094 30.196 133.838 29.74C133.59 29.284 133.466 28.736 133.466 28.096C133.466 27.44 133.59 26.884 133.838 26.428C134.094 25.972 134.426 25.624 134.834 25.384C135.25 25.144 135.694 25.024 136.166 25.024C136.646 25.024 137.09 25.144 137.498 25.384C137.906 25.624 138.234 25.972 138.482 26.428C138.738 26.884 138.866 27.44 138.866 28.096C138.866 28.736 138.738 29.284 138.482 29.74C138.234 30.196 137.906 30.544 137.498 30.784C137.09 31.024 136.646 31.144 136.166 31.144ZM136.166 30.328C136.67 30.328 137.074 30.124 137.378 29.716C137.69 29.3 137.846 28.76 137.846 28.096C137.846 27.424 137.69 26.88 137.378 26.464C137.074 26.048 136.67 25.84 136.166 25.84C135.67 25.84 135.266 26.048 134.954 26.464C134.642 26.88 134.486 27.424 134.486 28.096C134.486 28.76 134.642 29.3 134.954 29.716C135.266 30.124 135.67 30.328 136.166 30.328ZM142.106 31.144C141.49 31.144 141.038 30.952 140.75 30.568C140.462 30.176 140.318 29.608 140.318 28.864V25.168H141.314V28.732C141.314 29.276 141.398 29.672 141.566 29.92C141.742 30.168 142.022 30.292 142.406 30.292C142.71 30.292 142.978 30.216 143.21 30.064C143.45 29.904 143.706 29.652 143.978 29.308V25.168H144.962V31H144.146L144.062 30.088H144.026C143.754 30.408 143.466 30.664 143.162 30.856C142.858 31.048 142.506 31.144 142.106 31.144ZM146.929 31V25.168H147.745L147.829 26.008H147.865C148.145 25.728 148.441 25.496 148.753 25.312C149.065 25.12 149.421 25.024 149.821 25.024C150.437 25.024 150.885 25.22 151.165 25.612C151.453 25.996 151.597 26.56 151.597 27.304V31H150.613V27.436C150.613 26.892 150.525 26.496 150.349 26.248C150.173 26 149.893 25.876 149.509 25.876C149.213 25.876 148.945 25.952 148.705 26.104C148.473 26.256 148.209 26.48 147.913 26.776V31H146.929ZM155.328 31.144C154.704 31.144 154.268 30.964 154.02 30.604C153.78 30.244 153.66 29.776 153.66 29.2V25.972H152.796V25.228L153.708 25.168L153.828 23.536H154.656V25.168H156.228V25.972H154.656V29.212C154.656 29.572 154.72 29.852 154.848 30.052C154.984 30.244 155.22 30.34 155.556 30.34C155.66 30.34 155.772 30.324 155.892 30.292C156.012 30.252 156.12 30.216 156.216 30.184L156.408 30.928C156.248 30.984 156.072 31.032 155.88 31.072C155.696 31.12 155.512 31.144 155.328 31.144Z" fill="#7E8295"/>
<circle cx="135.843" cy="5.84349" r="5.84349" fill="#7E8295"/>
<path d="M205.333 30.8442C204.677 30.8442 204.089 30.6842 203.569 30.3642C203.057 30.0362 202.649 29.5682 202.345 28.9602C202.049 28.3522 201.901 27.6202 201.901 26.7642C201.901 25.9162 202.053 25.1882 202.357 24.5802C202.661 23.9722 203.077 23.5042 203.605 23.1762C204.133 22.8482 204.729 22.6842 205.393 22.6842C205.873 22.6842 206.297 22.7842 206.665 22.9842C207.033 23.1762 207.329 23.4002 207.553 23.6562L207.013 24.3042C206.805 24.0802 206.569 23.9002 206.305 23.7642C206.041 23.6282 205.741 23.5602 205.405 23.5602C204.909 23.5602 204.473 23.6922 204.097 23.9562C203.729 24.2122 203.441 24.5762 203.233 25.0482C203.033 25.5202 202.933 26.0842 202.933 26.7402C202.933 27.3962 203.033 27.9682 203.233 28.4562C203.433 28.9362 203.713 29.3082 204.073 29.5722C204.441 29.8362 204.873 29.9682 205.369 29.9682C205.745 29.9682 206.081 29.8882 206.377 29.7282C206.673 29.5682 206.945 29.3522 207.193 29.0802L207.745 29.7042C207.433 30.0642 207.081 30.3442 206.689 30.5442C206.297 30.7442 205.845 30.8442 205.333 30.8442ZM211.385 30.8442C210.913 30.8442 210.469 30.7242 210.053 30.4842C209.645 30.2442 209.313 29.8962 209.057 29.4402C208.809 28.9842 208.685 28.4362 208.685 27.7962C208.685 27.1402 208.809 26.5842 209.057 26.1282C209.313 25.6722 209.645 25.3242 210.053 25.0842C210.469 24.8442 210.913 24.7242 211.385 24.7242C211.865 24.7242 212.309 24.8442 212.717 25.0842C213.125 25.3242 213.453 25.6722 213.701 26.1282C213.957 26.5842 214.085 27.1402 214.085 27.7962C214.085 28.4362 213.957 28.9842 213.701 29.4402C213.453 29.8962 213.125 30.2442 212.717 30.4842C212.309 30.7242 211.865 30.8442 211.385 30.8442ZM211.385 30.0282C211.889 30.0282 212.293 29.8242 212.597 29.4162C212.909 29.0002 213.065 28.4602 213.065 27.7962C213.065 27.1242 212.909 26.5802 212.597 26.1642C212.293 25.7482 211.889 25.5402 211.385 25.5402C210.889 25.5402 210.485 25.7482 210.173 26.1642C209.861 26.5802 209.705 27.1242 209.705 27.7962C209.705 28.4602 209.861 29.0002 210.173 29.4162C210.485 29.8242 210.889 30.0282 211.385 30.0282ZM215.621 30.7002V24.8682H216.437L216.521 25.7082H216.557C216.837 25.4282 217.133 25.1962 217.445 25.0122C217.757 24.8202 218.113 24.7242 218.513 24.7242C219.129 24.7242 219.577 24.9202 219.857 25.3122C220.145 25.6962 220.289 26.2602 220.289 27.0042V30.7002H219.305V27.1362C219.305 26.5922 219.217 26.1962 219.041 25.9482C218.865 25.7002 218.585 25.5762 218.201 25.5762C217.905 25.5762 217.637 25.6522 217.397 25.8042C217.165 25.9562 216.901 26.1802 216.605 26.4762V30.7002H215.621ZM222.351 30.7002V25.6722H221.559V24.9282L222.351 24.8682V23.9442C222.351 23.3522 222.487 22.8842 222.759 22.5402C223.039 22.1882 223.471 22.0122 224.055 22.0122C224.239 22.0122 224.415 22.0322 224.583 22.0722C224.751 22.1042 224.899 22.1482 225.027 22.2042L224.811 22.9602C224.595 22.8642 224.375 22.8162 224.151 22.8162C223.607 22.8162 223.335 23.1922 223.335 23.9442V24.8682H224.571V25.6722H223.335V30.7002H222.351ZM225.687 30.7002V24.8682H226.671V30.7002H225.687ZM226.191 23.6682C225.999 23.6682 225.839 23.6122 225.711 23.5002C225.591 23.3802 225.531 23.2202 225.531 23.0202C225.531 22.8282 225.591 22.6722 225.711 22.5522C225.839 22.4322 225.999 22.3722 226.191 22.3722C226.383 22.3722 226.539 22.4322 226.659 22.5522C226.787 22.6722 226.851 22.8282 226.851 23.0202C226.851 23.2202 226.787 23.3802 226.659 23.5002C226.539 23.6122 226.383 23.6682 226.191 23.6682ZM228.64 30.7002V24.8682H229.456L229.54 25.9242H229.576C229.776 25.5562 230.02 25.2642 230.308 25.0482C230.596 24.8322 230.904 24.7242 231.232 24.7242C231.464 24.7242 231.672 24.7642 231.856 24.8442L231.664 25.7082C231.568 25.6762 231.48 25.6522 231.4 25.6362C231.32 25.6202 231.22 25.6122 231.1 25.6122C230.852 25.6122 230.592 25.7122 230.32 25.9122C230.056 26.1122 229.824 26.4602 229.624 26.9562V30.7002H228.64ZM232.8 30.7002V24.8682H233.616L233.7 25.7082H233.736C233.992 25.4282 234.272 25.1962 234.576 25.0122C234.88 24.8202 235.204 24.7242 235.548 24.7242C235.996 24.7242 236.344 24.8242 236.592 25.0242C236.848 25.2162 237.036 25.4882 237.156 25.8402C237.46 25.5122 237.768 25.2442 238.08 25.0362C238.392 24.8282 238.724 24.7242 239.076 24.7242C239.676 24.7242 240.12 24.9202 240.408 25.3122C240.704 25.6962 240.852 26.2602 240.852 27.0042V30.7002H239.868V27.1362C239.868 26.5922 239.78 26.1962 239.604 25.9482C239.428 25.7002 239.156 25.5762 238.788 25.5762C238.356 25.5762 237.868 25.8762 237.324 26.4762V30.7002H236.34V27.1362C236.34 26.5922 236.252 26.1962 236.076 25.9482C235.9 25.7002 235.624 25.5762 235.248 25.5762C234.816 25.5762 234.328 25.8762 233.784 26.4762V30.7002H232.8ZM244.094 30.8442C243.606 30.8442 243.198 30.7002 242.87 30.4122C242.55 30.1162 242.39 29.7082 242.39 29.1882C242.39 28.5482 242.674 28.0602 243.242 27.7242C243.818 27.3802 244.726 27.1402 245.966 27.0042C245.966 26.7562 245.93 26.5202 245.858 26.2962C245.794 26.0722 245.674 25.8922 245.498 25.7562C245.33 25.6122 245.086 25.5402 244.766 25.5402C244.43 25.5402 244.114 25.6042 243.818 25.7322C243.522 25.8602 243.258 26.0042 243.026 26.1642L242.642 25.4802C242.914 25.3042 243.246 25.1362 243.638 24.9762C244.038 24.8082 244.47 24.7242 244.934 24.7242C245.646 24.7242 246.162 24.9442 246.482 25.3842C246.802 25.8162 246.962 26.3962 246.962 27.1242V30.7002H246.146L246.062 30.0042H246.026C245.754 30.2282 245.454 30.4242 245.126 30.5922C244.806 30.7602 244.462 30.8442 244.094 30.8442ZM244.382 30.0522C244.662 30.0522 244.926 29.9842 245.174 29.8482C245.422 29.7122 245.686 29.5202 245.966 29.2722V27.6522C244.998 27.7722 244.318 27.9522 243.926 28.1922C243.542 28.4322 243.35 28.7402 243.35 29.1162C243.35 29.4442 243.45 29.6842 243.65 29.8362C243.85 29.9802 244.094 30.0522 244.382 30.0522ZM250.468 30.8442C249.844 30.8442 249.408 30.6642 249.16 30.3042C248.92 29.9442 248.8 29.4762 248.8 28.9002V25.6722H247.936V24.9282L248.848 24.8682L248.968 23.2362H249.796V24.8682H251.368V25.6722H249.796V28.9122C249.796 29.2722 249.86 29.5522 249.988 29.7522C250.124 29.9442 250.36 30.0402 250.696 30.0402C250.8 30.0402 250.912 30.0242 251.032 29.9922C251.152 29.9522 251.26 29.9162 251.356 29.8842L251.548 30.6282C251.388 30.6842 251.212 30.7322 251.02 30.7722C250.836 30.8202 250.652 30.8442 250.468 30.8442ZM252.687 30.7002V24.8682H253.671V30.7002H252.687ZM253.191 23.6682C252.999 23.6682 252.839 23.6122 252.711 23.5002C252.591 23.3802 252.531 23.2202 252.531 23.0202C252.531 22.8282 252.591 22.6722 252.711 22.5522C252.839 22.4322 252.999 22.3722 253.191 22.3722C253.383 22.3722 253.539 22.4322 253.659 22.5522C253.787 22.6722 253.851 22.8282 253.851 23.0202C253.851 23.2202 253.787 23.3802 253.659 23.5002C253.539 23.6122 253.383 23.6682 253.191 23.6682ZM257.908 30.8442C257.436 30.8442 256.992 30.7242 256.576 30.4842C256.168 30.2442 255.836 29.8962 255.58 29.4402C255.332 28.9842 255.208 28.4362 255.208 27.7962C255.208 27.1402 255.332 26.5842 255.58 26.1282C255.836 25.6722 256.168 25.3242 256.576 25.0842C256.992 24.8442 257.436 24.7242 257.908 24.7242C258.388 24.7242 258.832 24.8442 259.24 25.0842C259.648 25.3242 259.976 25.6722 260.224 26.1282C260.48 26.5842 260.608 27.1402 260.608 27.7962C260.608 28.4362 260.48 28.9842 260.224 29.4402C259.976 29.8962 259.648 30.2442 259.24 30.4842C258.832 30.7242 258.388 30.8442 257.908 30.8442ZM257.908 30.0282C258.412 30.0282 258.816 29.8242 259.12 29.4162C259.432 29.0002 259.588 28.4602 259.588 27.7962C259.588 27.1242 259.432 26.5802 259.12 26.1642C258.816 25.7482 258.412 25.5402 257.908 25.5402C257.412 25.5402 257.008 25.7482 256.696 26.1642C256.384 26.5802 256.228 27.1242 256.228 27.7962C256.228 28.4602 256.384 29.0002 256.696 29.4162C257.008 29.8242 257.412 30.0282 257.908 30.0282ZM262.144 30.7002V24.8682H262.96L263.044 25.7082H263.08C263.36 25.4282 263.656 25.1962 263.968 25.0122C264.28 24.8202 264.636 24.7242 265.036 24.7242C265.652 24.7242 266.1 24.9202 266.38 25.3122C266.668 25.6962 266.812 26.2602 266.812 27.0042V30.7002H265.828V27.1362C265.828 26.5922 265.74 26.1962 265.564 25.9482C265.388 25.7002 265.108 25.5762 264.724 25.5762C264.428 25.5762 264.16 25.6522 263.92 25.8042C263.688 25.9562 263.424 26.1802 263.128 26.4762V30.7002H262.144Z" fill="#7E8295"/>
<circle cx="234.843" cy="5.84349" r="5.84349" fill="#7E8295"/>
<path d="M316.204 31.144C315.548 31.144 314.96 30.984 314.44 30.664C313.928 30.336 313.52 29.868 313.216 29.26C312.92 28.652 312.772 27.92 312.772 27.064C312.772 26.216 312.924 25.488 313.228 24.88C313.532 24.272 313.948 23.804 314.476 23.476C315.004 23.148 315.6 22.984 316.264 22.984C316.744 22.984 317.168 23.084 317.536 23.284C317.904 23.476 318.2 23.7 318.424 23.956L317.884 24.604C317.676 24.38 317.44 24.2 317.176 24.064C316.912 23.928 316.612 23.86 316.276 23.86C315.78 23.86 315.344 23.992 314.968 24.256C314.6 24.512 314.312 24.876 314.104 25.348C313.904 25.82 313.804 26.384 313.804 27.04C313.804 27.696 313.904 28.268 314.104 28.756C314.304 29.236 314.584 29.608 314.944 29.872C315.312 30.136 315.744 30.268 316.24 30.268C316.616 30.268 316.952 30.188 317.248 30.028C317.544 29.868 317.816 29.652 318.064 29.38L318.616 30.004C318.304 30.364 317.952 30.644 317.56 30.844C317.168 31.044 316.716 31.144 316.204 31.144ZM322.256 31.144C321.784 31.144 321.34 31.024 320.924 30.784C320.516 30.544 320.184 30.196 319.928 29.74C319.68 29.284 319.556 28.736 319.556 28.096C319.556 27.44 319.68 26.884 319.928 26.428C320.184 25.972 320.516 25.624 320.924 25.384C321.34 25.144 321.784 25.024 322.256 25.024C322.736 25.024 323.18 25.144 323.588 25.384C323.996 25.624 324.324 25.972 324.572 26.428C324.828 26.884 324.956 27.44 324.956 28.096C324.956 28.736 324.828 29.284 324.572 29.74C324.324 30.196 323.996 30.544 323.588 30.784C323.18 31.024 322.736 31.144 322.256 31.144ZM322.256 30.328C322.76 30.328 323.164 30.124 323.468 29.716C323.78 29.3 323.936 28.76 323.936 28.096C323.936 27.424 323.78 26.88 323.468 26.464C323.164 26.048 322.76 25.84 322.256 25.84C321.76 25.84 321.356 26.048 321.044 26.464C320.732 26.88 320.576 27.424 320.576 28.096C320.576 28.76 320.732 29.3 321.044 29.716C321.356 30.124 321.76 30.328 322.256 30.328ZM326.492 31V25.168H327.308L327.392 26.008H327.428C327.684 25.728 327.964 25.496 328.268 25.312C328.572 25.12 328.896 25.024 329.24 25.024C329.688 25.024 330.036 25.124 330.284 25.324C330.54 25.516 330.728 25.788 330.848 26.14C331.152 25.812 331.46 25.544 331.772 25.336C332.084 25.128 332.416 25.024 332.768 25.024C333.368 25.024 333.812 25.22 334.1 25.612C334.396 25.996 334.544 26.56 334.544 27.304V31H333.56V27.436C333.56 26.892 333.472 26.496 333.296 26.248C333.12 26 332.848 25.876 332.48 25.876C332.048 25.876 331.56 26.176 331.016 26.776V31H330.032V27.436C330.032 26.892 329.944 26.496 329.768 26.248C329.592 26 329.316 25.876 328.94 25.876C328.508 25.876 328.02 26.176 327.476 26.776V31H326.492ZM336.441 33.46V25.168H337.257L337.341 25.84H337.377C337.641 25.616 337.929 25.424 338.241 25.264C338.561 25.104 338.893 25.024 339.237 25.024C339.989 25.024 340.561 25.296 340.953 25.84C341.345 26.376 341.541 27.096 341.541 28C341.541 28.656 341.421 29.22 341.181 29.692C340.949 30.164 340.641 30.524 340.257 30.772C339.881 31.02 339.469 31.144 339.021 31.144C338.749 31.144 338.477 31.084 338.205 30.964C337.941 30.844 337.673 30.68 337.401 30.472L337.425 31.492V33.46H336.441ZM338.853 30.316C339.333 30.316 339.729 30.112 340.041 29.704C340.361 29.288 340.521 28.72 340.521 28C340.521 27.36 340.401 26.844 340.161 26.452C339.929 26.052 339.537 25.852 338.985 25.852C338.737 25.852 338.485 25.92 338.229 26.056C337.981 26.192 337.713 26.388 337.425 26.644V29.704C337.689 29.928 337.945 30.088 338.193 30.184C338.441 30.272 338.661 30.316 338.853 30.316ZM344.141 31.144C343.773 31.144 343.505 31.032 343.337 30.808C343.177 30.576 343.097 30.248 343.097 29.824V22.456H344.081V29.896C344.081 30.048 344.109 30.16 344.165 30.232C344.221 30.296 344.285 30.328 344.357 30.328C344.389 30.328 344.417 30.328 344.441 30.328C344.473 30.32 344.517 30.312 344.573 30.304L344.705 31.048C344.641 31.08 344.565 31.104 344.477 31.12C344.389 31.136 344.277 31.144 344.141 31.144ZM348.52 31.144C348 31.144 347.528 31.024 347.104 30.784C346.68 30.536 346.344 30.184 346.096 29.728C345.848 29.272 345.724 28.728 345.724 28.096C345.724 27.456 345.848 26.908 346.096 26.452C346.352 25.996 346.68 25.644 347.08 25.396C347.48 25.148 347.9 25.024 348.34 25.024C349.084 25.024 349.656 25.272 350.056 25.768C350.464 26.264 350.668 26.928 350.668 27.76C350.668 27.864 350.664 27.968 350.656 28.072C350.656 28.168 350.648 28.252 350.632 28.324H346.696C346.736 28.94 346.928 29.432 347.272 29.8C347.624 30.168 348.08 30.352 348.64 30.352C348.92 30.352 349.176 30.312 349.408 30.232C349.648 30.144 349.876 30.032 350.092 29.896L350.44 30.544C350.192 30.704 349.908 30.844 349.588 30.964C349.276 31.084 348.92 31.144 348.52 31.144ZM346.684 27.616H349.804C349.804 27.024 349.676 26.576 349.42 26.272C349.172 25.96 348.82 25.804 348.364 25.804C347.956 25.804 347.588 25.964 347.26 26.284C346.94 26.596 346.748 27.04 346.684 27.616ZM353.828 31.144C353.204 31.144 352.768 30.964 352.52 30.604C352.28 30.244 352.16 29.776 352.16 29.2V25.972H351.296V25.228L352.208 25.168L352.328 23.536H353.156V25.168H354.728V25.972H353.156V29.212C353.156 29.572 353.22 29.852 353.348 30.052C353.484 30.244 353.72 30.34 354.056 30.34C354.16 30.34 354.272 30.324 354.392 30.292C354.512 30.252 354.62 30.216 354.716 30.184L354.908 30.928C354.748 30.984 354.572 31.032 354.38 31.072C354.196 31.12 354.012 31.144 353.828 31.144ZM358.246 31.144C357.726 31.144 357.254 31.024 356.83 30.784C356.406 30.536 356.07 30.184 355.822 29.728C355.574 29.272 355.45 28.728 355.45 28.096C355.45 27.456 355.574 26.908 355.822 26.452C356.078 25.996 356.406 25.644 356.806 25.396C357.206 25.148 357.626 25.024 358.066 25.024C358.81 25.024 359.382 25.272 359.782 25.768C360.19 26.264 360.394 26.928 360.394 27.76C360.394 27.864 360.39 27.968 360.382 28.072C360.382 28.168 360.374 28.252 360.358 28.324H356.422C356.462 28.94 356.654 29.432 356.998 29.8C357.35 30.168 357.806 30.352 358.366 30.352C358.646 30.352 358.902 30.312 359.134 30.232C359.374 30.144 359.602 30.032 359.818 29.896L360.166 30.544C359.918 30.704 359.634 30.844 359.314 30.964C359.002 31.084 358.646 31.144 358.246 31.144ZM356.41 27.616H359.53C359.53 27.024 359.402 26.576 359.146 26.272C358.898 25.96 358.546 25.804 358.09 25.804C357.682 25.804 357.314 25.964 356.986 26.284C356.666 26.596 356.474 27.04 356.41 27.616Z" fill="#7E8295"/>
<path d="M342.687 5.84349C342.687 9.07076 340.071 11.687 336.843 11.687C333.616 11.687 331 9.07076 331 5.84349C331 2.61622 333.616 0 336.843 0C340.071 0 342.687 2.61622 342.687 5.84349Z" fill="#7E8295"/>
<path d="M3.413 31.144C2.885 31.144 2.373 31.044 1.877 30.844C1.389 30.644 0.957 30.36 0.581 29.992L1.397 29.044C1.677 29.308 1.997 29.524 2.357 29.692C2.717 29.852 3.077 29.932 3.437 29.932C3.885 29.932 4.225 29.84 4.457 29.656C4.689 29.472 4.805 29.228 4.805 28.924C4.805 28.596 4.689 28.36 4.457 28.216C4.233 28.072 3.945 27.924 3.593 27.772L2.513 27.304C2.257 27.192 2.005 27.048 1.757 26.872C1.517 26.696 1.317 26.472 1.157 26.2C1.005 25.928 0.929 25.6 0.929 25.216C0.929 24.8 1.041 24.428 1.265 24.1C1.497 23.764 1.809 23.5 2.201 23.308C2.601 23.108 3.057 23.008 3.569 23.008C4.025 23.008 4.465 23.1 4.889 23.284C5.313 23.46 5.677 23.7 5.981 24.004L5.273 24.892C5.025 24.684 4.761 24.52 4.481 24.4C4.209 24.28 3.905 24.22 3.569 24.22C3.201 24.22 2.901 24.304 2.669 24.472C2.445 24.632 2.333 24.856 2.333 25.144C2.333 25.344 2.389 25.512 2.501 25.648C2.621 25.776 2.777 25.888 2.969 25.984C3.161 26.072 3.365 26.16 3.581 26.248L4.649 26.692C5.113 26.892 5.493 27.156 5.789 27.484C6.085 27.804 6.233 28.248 6.233 28.816C6.233 29.24 6.121 29.628 5.897 29.98C5.673 30.332 5.349 30.616 4.925 30.832C4.509 31.04 4.005 31.144 3.413 31.144ZM10.0001 31.144C9.46406 31.144 8.98006 31.024 8.54806 30.784C8.12406 30.536 7.78406 30.184 7.52806 29.728C7.28006 29.264 7.15606 28.708 7.15606 28.06C7.15606 27.404 7.29206 26.848 7.56406 26.392C7.83606 25.928 8.19606 25.576 8.64406 25.336C9.10006 25.088 9.58806 24.964 10.1081 24.964C10.4841 24.964 10.8121 25.028 11.0921 25.156C11.3721 25.284 11.6201 25.44 11.8361 25.624L11.1641 26.524C11.0121 26.388 10.8561 26.284 10.6961 26.212C10.5361 26.132 10.3641 26.092 10.1801 26.092C9.70806 26.092 9.32006 26.272 9.01606 26.632C8.72006 26.992 8.57206 27.468 8.57206 28.06C8.57206 28.644 8.71606 29.116 9.00406 29.476C9.30006 29.836 9.68006 30.016 10.1441 30.016C10.3761 30.016 10.5921 29.968 10.7921 29.872C11.0001 29.768 11.1881 29.648 11.3561 29.512L11.9201 30.424C11.6481 30.664 11.3441 30.844 11.0081 30.964C10.6721 31.084 10.3361 31.144 10.0001 31.144ZM13.083 31V22.528H14.463V24.712L14.415 25.852C14.663 25.62 14.939 25.416 15.243 25.24C15.547 25.056 15.899 24.964 16.299 24.964C16.931 24.964 17.391 25.168 17.679 25.576C17.967 25.984 18.111 26.56 18.111 27.304V31H16.731V27.484C16.731 26.996 16.659 26.652 16.515 26.452C16.371 26.252 16.135 26.152 15.807 26.152C15.551 26.152 15.323 26.216 15.123 26.344C14.931 26.464 14.711 26.644 14.463 26.884V31H13.083ZM22.2944 31.144C21.7504 31.144 21.2584 31.024 20.8184 30.784C20.3784 30.536 20.0304 30.184 19.7744 29.728C19.5184 29.264 19.3904 28.708 19.3904 28.06C19.3904 27.42 19.5184 26.868 19.7744 26.404C20.0384 25.94 20.3784 25.584 20.7944 25.336C21.2104 25.088 21.6464 24.964 22.1024 24.964C22.6384 24.964 23.0864 25.084 23.4464 25.324C23.8064 25.556 24.0784 25.884 24.2624 26.308C24.4464 26.724 24.5384 27.208 24.5384 27.76C24.5384 28.048 24.5184 28.272 24.4784 28.432H20.7344C20.7984 28.952 20.9864 29.356 21.2984 29.644C21.6104 29.932 22.0024 30.076 22.4744 30.076C22.7304 30.076 22.9664 30.04 23.1824 29.968C23.4064 29.888 23.6264 29.78 23.8424 29.644L24.3104 30.508C24.0304 30.692 23.7184 30.844 23.3744 30.964C23.0304 31.084 22.6704 31.144 22.2944 31.144ZM20.7224 27.496H23.3384C23.3384 27.04 23.2384 26.684 23.0384 26.428C22.8384 26.164 22.5384 26.032 22.1384 26.032C21.7944 26.032 21.4864 26.16 21.2144 26.416C20.9504 26.664 20.7864 27.024 20.7224 27.496ZM25.8565 31V25.108H26.9965L27.0925 25.912H27.1405C27.3885 25.648 27.6565 25.424 27.9445 25.24C28.2405 25.056 28.5725 24.964 28.9405 24.964C29.3725 24.964 29.7165 25.06 29.9725 25.252C30.2365 25.436 30.4365 25.692 30.5725 26.02C30.8525 25.716 31.1445 25.464 31.4485 25.264C31.7605 25.064 32.1005 24.964 32.4685 24.964C33.0925 24.964 33.5525 25.168 33.8485 25.576C34.1445 25.984 34.2925 26.56 34.2925 27.304V31H32.9005V27.484C32.9005 26.996 32.8245 26.652 32.6725 26.452C32.5285 26.252 32.3045 26.152 32.0005 26.152C31.6325 26.152 31.2205 26.396 30.7645 26.884V31H29.3845V27.484C29.3845 26.996 29.3085 26.652 29.1565 26.452C29.0125 26.252 28.7845 26.152 28.4725 26.152C28.1045 26.152 27.6925 26.396 27.2365 26.884V31H25.8565ZM38.4898 31.144C37.9458 31.144 37.4538 31.024 37.0138 30.784C36.5738 30.536 36.2258 30.184 35.9698 29.728C35.7138 29.264 35.5858 28.708 35.5858 28.06C35.5858 27.42 35.7138 26.868 35.9698 26.404C36.2338 25.94 36.5738 25.584 36.9898 25.336C37.4058 25.088 37.8418 24.964 38.2978 24.964C38.8338 24.964 39.2818 25.084 39.6418 25.324C40.0018 25.556 40.2738 25.884 40.4578 26.308C40.6418 26.724 40.7338 27.208 40.7338 27.76C40.7338 28.048 40.7138 28.272 40.6738 28.432H36.9298C36.9938 28.952 37.1818 29.356 37.4938 29.644C37.8058 29.932 38.1978 30.076 38.6698 30.076C38.9258 30.076 39.1618 30.04 39.3778 29.968C39.6018 29.888 39.8218 29.78 40.0378 29.644L40.5058 30.508C40.2258 30.692 39.9138 30.844 39.5698 30.964C39.2258 31.084 38.8658 31.144 38.4898 31.144ZM36.9178 27.496H39.5338C39.5338 27.04 39.4338 26.684 39.2338 26.428C39.0338 26.164 38.7338 26.032 38.3338 26.032C37.9898 26.032 37.6818 26.16 37.4098 26.416C37.1458 26.664 36.9818 27.024 36.9178 27.496ZM44.5741 31V23.152H46.6741C47.8741 23.152 48.8101 23.476 49.4821 24.124C50.1541 24.772 50.4901 25.744 50.4901 27.04C50.4901 28.344 50.1581 29.332 49.4941 30.004C48.8301 30.668 47.9141 31 46.7461 31H44.5741ZM45.9661 29.872H46.5781C47.3701 29.872 47.9821 29.644 48.4141 29.188C48.8461 28.724 49.0621 28.008 49.0621 27.04C49.0621 26.08 48.8461 25.38 48.4141 24.94C47.9821 24.5 47.3701 24.28 46.5781 24.28H45.9661V29.872ZM54.4741 31.144C53.9301 31.144 53.4381 31.024 52.9981 30.784C52.5581 30.536 52.2101 30.184 51.9541 29.728C51.6981 29.264 51.5701 28.708 51.5701 28.06C51.5701 27.42 51.6981 26.868 51.9541 26.404C52.2181 25.94 52.5581 25.584 52.9741 25.336C53.3901 25.088 53.8261 24.964 54.2821 24.964C54.8181 24.964 55.2661 25.084 55.6261 25.324C55.9861 25.556 56.2581 25.884 56.4421 26.308C56.6261 26.724 56.7181 27.208 56.7181 27.76C56.7181 28.048 56.6981 28.272 56.6581 28.432H52.9141C52.9781 28.952 53.1661 29.356 53.4781 29.644C53.7901 29.932 54.1821 30.076 54.6541 30.076C54.9101 30.076 55.1461 30.04 55.3621 29.968C55.5861 29.888 55.8061 29.78 56.0221 29.644L56.4901 30.508C56.2101 30.692 55.8981 30.844 55.5541 30.964C55.2101 31.084 54.8501 31.144 54.4741 31.144ZM52.9021 27.496H55.5181C55.5181 27.04 55.4181 26.684 55.2181 26.428C55.0181 26.164 54.7181 26.032 54.3181 26.032C53.9741 26.032 53.6661 26.16 53.3941 26.416C53.1301 26.664 52.9661 27.024 52.9021 27.496ZM59.995 31.144C59.315 31.144 58.831 30.948 58.543 30.556C58.263 30.156 58.123 29.64 58.123 29.008V26.2H57.283V25.168L58.195 25.108L58.363 23.5H59.515V25.108H61.015V26.2H59.515V29.008C59.515 29.696 59.791 30.04 60.343 30.04C60.447 30.04 60.555 30.028 60.667 30.004C60.779 29.972 60.875 29.94 60.955 29.908L61.195 30.928C61.035 30.984 60.851 31.032 60.643 31.072C60.443 31.12 60.227 31.144 59.995 31.144ZM63.4251 31.144C62.9131 31.144 62.4931 30.984 62.1651 30.664C61.8451 30.344 61.6851 29.928 61.6851 29.416C61.6851 28.784 61.9611 28.296 62.5131 27.952C63.0651 27.6 63.9451 27.36 65.1531 27.232C65.1451 26.92 65.0611 26.652 64.9011 26.428C64.7491 26.196 64.4731 26.08 64.0731 26.08C63.7851 26.08 63.5011 26.136 63.2211 26.248C62.9491 26.36 62.6811 26.496 62.4171 26.656L61.9131 25.732C62.2411 25.524 62.6091 25.344 63.0171 25.192C63.4331 25.04 63.8731 24.964 64.3371 24.964C65.0731 24.964 65.6211 25.184 65.9811 25.624C66.3491 26.056 66.5331 26.684 66.5331 27.508V31H65.3931L65.2971 30.352H65.2491C64.9851 30.576 64.7011 30.764 64.3971 30.916C64.1011 31.068 63.7771 31.144 63.4251 31.144ZM63.8691 30.064C64.1091 30.064 64.3251 30.008 64.5171 29.896C64.7171 29.776 64.9291 29.616 65.1531 29.416V28.096C64.3531 28.2 63.7971 28.356 63.4851 28.564C63.1731 28.764 63.0171 29.012 63.0171 29.308C63.0171 29.572 63.0971 29.764 63.2571 29.884C63.4171 30.004 63.6211 30.064 63.8691 30.064ZM68.1846 31V25.108H69.5646V31H68.1846ZM68.8806 24.076C68.6326 24.076 68.4326 24.004 68.2806 23.86C68.1286 23.716 68.0526 23.524 68.0526 23.284C68.0526 23.052 68.1286 22.864 68.2806 22.72C68.4326 22.576 68.6326 22.504 68.8806 22.504C69.1286 22.504 69.3286 22.576 69.4806 22.72C69.6326 22.864 69.7086 23.052 69.7086 23.284C69.7086 23.524 69.6326 23.716 69.4806 23.86C69.3286 24.004 69.1286 24.076 68.8806 24.076ZM72.6692 31.144C72.1812 31.144 71.8332 30.996 71.6252 30.7C71.4252 30.404 71.3252 30 71.3252 29.488V22.528H72.7052V29.56C72.7052 29.728 72.7372 29.848 72.8012 29.92C72.8652 29.984 72.9332 30.016 73.0052 30.016C73.0372 30.016 73.0652 30.016 73.0892 30.016C73.1212 30.008 73.1652 30 73.2212 29.992L73.4012 31.024C73.3212 31.056 73.2172 31.084 73.0892 31.108C72.9692 31.132 72.8292 31.144 72.6692 31.144ZM76.227 31.144C75.827 31.144 75.427 31.068 75.027 30.916C74.627 30.756 74.283 30.56 73.995 30.328L74.643 29.44C74.907 29.64 75.171 29.8 75.435 29.92C75.699 30.04 75.979 30.1 76.275 30.1C76.595 30.1 76.831 30.032 76.983 29.896C77.135 29.76 77.211 29.592 77.211 29.392C77.211 29.224 77.147 29.088 77.019 28.984C76.899 28.872 76.743 28.776 76.551 28.696C76.359 28.608 76.159 28.524 75.951 28.444C75.695 28.348 75.439 28.232 75.183 28.096C74.935 27.952 74.731 27.772 74.571 27.556C74.411 27.332 74.331 27.056 74.331 26.728C74.331 26.208 74.523 25.784 74.907 25.456C75.291 25.128 75.811 24.964 76.467 24.964C76.883 24.964 77.255 25.036 77.583 25.18C77.911 25.324 78.195 25.488 78.435 25.672L77.799 26.512C77.591 26.36 77.379 26.24 77.163 26.152C76.955 26.056 76.735 26.008 76.503 26.008C76.207 26.008 75.987 26.072 75.843 26.2C75.699 26.32 75.627 26.472 75.627 26.656C75.627 26.888 75.747 27.064 75.987 27.184C76.227 27.304 76.507 27.42 76.827 27.532C77.099 27.628 77.363 27.748 77.619 27.892C77.875 28.028 78.087 28.208 78.255 28.432C78.431 28.656 78.519 28.952 78.519 29.32C78.519 29.824 78.323 30.256 77.931 30.616C77.539 30.968 76.971 31.144 76.227 31.144Z" fill="#002949"/>
<circle cx="37.8435" cy="5.84349" r="5.84349" fill="#31EE50"/>
</svg>
