<svg width="23" height="24" viewBox="0 0 23 24" fill="none" xmlns="http://www.w3.org/2000/svg">
<g clip-path="url(#clip0_2029_495)">
<path d="M15.935 21.3635L11.8145 17.4545H3.89524C3.67431 17.4527 3.45588 17.4039 3.25242 17.3111C3.04896 17.2182 2.86445 17.083 2.70944 16.9133C2.55442 16.7435 2.43193 16.5425 2.34897 16.3217C2.266 16.101 2.22418 15.8647 2.22589 15.6265V4.22648C2.22405 3.98813 2.26578 3.75173 2.34868 3.53076C2.43158 3.3098 2.55404 3.10861 2.70905 2.93867C2.86407 2.76874 3.04861 2.6334 3.25213 2.54037C3.45566 2.44734 3.67419 2.39845 3.89524 2.39648H18.363C18.584 2.39845 18.8026 2.44734 19.0061 2.54037C19.2096 2.6334 19.3942 2.76874 19.5492 2.93867C19.7042 3.10861 19.8266 3.3098 19.9095 3.53076C19.9924 3.75173 20.0342 3.98813 20.0323 4.22648V15.6265C20.0341 15.8647 19.9922 16.101 19.9093 16.3217C19.8263 16.5425 19.7038 16.7435 19.5488 16.9133C19.3938 17.083 19.2093 17.2182 19.0058 17.3111C18.8023 17.4039 18.5839 17.4527 18.363 17.4545H16.7363C16.761 17.5523 16.7744 17.6531 16.7762 17.7545V20.9375C16.7762 21.3635 16.6231 21.5955 16.3922 21.5955C16.2191 21.5791 16.0571 21.4968 15.935 21.3635ZM3.89524 15.6265H12.4368L12.907 16.0725L15.1068 18.1595V17.8595L14.5717 15.6285H18.363V4.22848H3.89524V15.6265ZM7.46766 13.7995C7.24629 13.7995 7.03399 13.7047 6.87746 13.5359C6.72092 13.3671 6.63298 13.1382 6.63298 12.8995C6.63298 12.7813 6.65457 12.6643 6.69652 12.5551C6.73847 12.4459 6.79995 12.3467 6.87746 12.2631C6.95496 12.1795 7.04698 12.1132 7.14824 12.068C7.24951 12.0228 7.35805 11.9995 7.46766 11.9995H14.7451C14.8547 11.9995 14.9633 12.0228 15.0645 12.068C15.1658 12.1132 15.2578 12.1795 15.3353 12.2631C15.4128 12.3467 15.4743 12.4459 15.5163 12.5551C15.5582 12.6643 15.5798 12.7813 15.5798 12.8995C15.5798 13.1382 15.4919 13.3671 15.3353 13.5359C15.1788 13.7047 14.9665 13.7995 14.7451 13.7995H7.46766ZM7.46766 10.7995C7.24629 10.7995 7.03399 10.7047 6.87746 10.5359C6.72092 10.3671 6.63298 10.1382 6.63298 9.89948C6.63298 9.66079 6.72092 9.43187 6.87746 9.26309C7.03399 9.09431 7.24629 8.99948 7.46766 8.99948H14.7451C14.9665 8.99948 15.1788 9.09431 15.3353 9.26309C15.4919 9.43187 15.5798 9.66079 15.5798 9.89948C15.5798 10.1382 15.4919 10.3671 15.3353 10.5359C15.1788 10.7047 14.9665 10.7995 14.7451 10.7995H7.46766ZM7.46766 7.79948C7.24629 7.79948 7.03399 7.70466 6.87746 7.53588C6.72092 7.3671 6.63298 7.13818 6.63298 6.89948C6.63298 6.66079 6.72092 6.43187 6.87746 6.26309C7.03399 6.09431 7.24629 5.99948 7.46766 5.99948H14.7451C14.9665 5.99948 15.1788 6.09431 15.3353 6.26309C15.4919 6.43187 15.5798 6.66079 15.5798 6.89948C15.5798 7.13818 15.4919 7.3671 15.3353 7.53588C15.1788 7.70466 14.9665 7.79948 14.7451 7.79948H7.46766Z" fill="#00667C"/>
</g>
<defs>
<clipPath id="clip0_2029_495">
<rect width="22.2581" height="24" fill="white"/>
</clipPath>
</defs>
</svg>
