<svg width="31" height="37" viewBox="0 0 31 37" fill="none" xmlns="http://www.w3.org/2000/svg">
<path d="M4.905 27H5.745V34H4.905V30.67H1.44V34H0.6V27H1.44V29.83H4.905V27ZM6.94766 29H7.78766V34H6.94766V29ZM7.37766 28.185C7.24432 28.185 7.13266 28.1417 7.04266 28.055C6.95266 27.9683 6.90766 27.86 6.90766 27.73C6.90766 27.6 6.95266 27.4917 7.04266 27.405C7.13266 27.3183 7.24266 27.275 7.37266 27.275C7.50266 27.275 7.61266 27.3183 7.70266 27.405C7.79266 27.4917 7.83766 27.6 7.83766 27.73C7.83766 27.86 7.79266 27.9683 7.70266 28.055C7.61599 28.1417 7.50766 28.185 7.37766 28.185ZM10.4648 34.095C10.1948 34.085 9.93151 34.035 9.67484 33.945C9.42151 33.8517 9.19818 33.7267 9.00484 33.57C8.81484 33.41 8.67651 33.2267 8.58984 33.02L9.30984 32.71C9.35984 32.8233 9.44984 32.93 9.57984 33.03C9.70984 33.13 9.85984 33.21 10.0298 33.27C10.1998 33.33 10.3715 33.36 10.5448 33.36C10.7282 33.36 10.8998 33.3317 11.0598 33.275C11.2198 33.2183 11.3498 33.135 11.4498 33.025C11.5532 32.9117 11.6048 32.7767 11.6048 32.62C11.6048 32.4533 11.5482 32.3233 11.4348 32.23C11.3248 32.1333 11.1848 32.0583 11.0148 32.005C10.8482 31.9483 10.6782 31.895 10.5048 31.845C10.1615 31.7583 9.85484 31.655 9.58484 31.535C9.31484 31.4117 9.10151 31.2567 8.94484 31.07C8.79151 30.88 8.71484 30.6383 8.71484 30.345C8.71484 30.035 8.79984 29.7667 8.96984 29.54C9.14318 29.3133 9.36984 29.1383 9.64984 29.015C9.92984 28.8917 10.2298 28.83 10.5498 28.83C10.9532 28.83 11.3215 28.9167 11.6548 29.09C11.9882 29.2633 12.2365 29.4983 12.3998 29.795L11.7248 30.19C11.6682 30.07 11.5815 29.965 11.4648 29.875C11.3482 29.7817 11.2148 29.7083 11.0648 29.655C10.9148 29.6017 10.7615 29.5733 10.6048 29.57C10.4115 29.5633 10.2298 29.5883 10.0598 29.645C9.89318 29.7017 9.75818 29.7883 9.65484 29.905C9.55484 30.0183 9.50484 30.16 9.50484 30.33C9.50484 30.4967 9.55818 30.6233 9.66484 30.71C9.77484 30.7967 9.91651 30.8667 10.0898 30.92C10.2665 30.97 10.4582 31.0283 10.6648 31.095C10.9682 31.1917 11.2515 31.3033 11.5148 31.43C11.7782 31.5567 11.9898 31.715 12.1498 31.905C12.3132 32.095 12.3932 32.33 12.3898 32.61C12.3898 32.9167 12.2982 33.185 12.1148 33.415C11.9315 33.6417 11.6932 33.815 11.3998 33.935C11.1098 34.055 10.7982 34.1083 10.4648 34.095ZM15.8365 29.84H14.7015L14.6965 34H13.8565L13.8615 29.84H13.0015V29H13.8615L13.8565 27.43H14.6965L14.7015 29H15.8365V29.84ZM18.8059 34.13C18.3459 34.13 17.9259 34.0117 17.5459 33.775C17.1692 33.5383 16.8675 33.2217 16.6409 32.825C16.4175 32.425 16.3059 31.9833 16.3059 31.5C16.3059 31.1333 16.3709 30.7917 16.5009 30.475C16.6309 30.155 16.8092 29.875 17.0359 29.635C17.2659 29.3917 17.5325 29.2017 17.8359 29.065C18.1392 28.9283 18.4625 28.86 18.8059 28.86C19.2659 28.86 19.6842 28.9783 20.0609 29.215C20.4409 29.4517 20.7425 29.77 20.9659 30.17C21.1925 30.57 21.3059 31.0133 21.3059 31.5C21.3059 31.8633 21.2409 32.2033 21.1109 32.52C20.9809 32.8367 20.8009 33.1167 20.5709 33.36C20.3442 33.6 20.0792 33.7883 19.7759 33.925C19.4759 34.0617 19.1525 34.13 18.8059 34.13ZM18.8059 33.29C19.1192 33.29 19.4009 33.2083 19.6509 33.045C19.9042 32.8783 20.1025 32.66 20.2459 32.39C20.3925 32.1167 20.4659 31.82 20.4659 31.5C20.4659 31.1733 20.3909 30.8733 20.2409 30.6C20.0942 30.3267 19.8959 30.1083 19.6459 29.945C19.3959 29.7817 19.1159 29.7 18.8059 29.7C18.4925 29.7 18.2109 29.7833 17.9609 29.95C17.7109 30.1133 17.5125 30.3317 17.3659 30.605C17.2192 30.8783 17.1459 31.1767 17.1459 31.5C17.1459 31.8333 17.2209 32.1367 17.3709 32.41C17.5209 32.68 17.7225 32.895 17.9759 33.055C18.2292 33.2117 18.5059 33.29 18.8059 33.29ZM22.1332 34V29H22.9732V29.625C23.1499 29.3917 23.3732 29.2067 23.6432 29.07C23.9132 28.93 24.2065 28.86 24.5232 28.86C24.7165 28.86 24.9032 28.885 25.0832 28.935L24.7432 29.775C24.6065 29.7317 24.4732 29.71 24.3432 29.71C24.0932 29.71 23.8632 29.7717 23.6532 29.895C23.4465 30.015 23.2815 30.1783 23.1582 30.385C23.0349 30.5917 22.9732 30.8217 22.9732 31.075V34H22.1332ZM29.1227 29H30.0127L27.2777 36.5H26.3877L27.2927 34L25.4977 29H26.4177L27.7127 32.845L29.1227 29Z" fill="#00667C"/>
<g clip-path="url(#clip0_1926_384)">
<g clip-path="url(#clip1_1926_384)">
<path opacity="0.9" d="M15.995 2C11.02 2 7 6.03 7 11H4L7.895 14.895L7.965 15.04L12 11H9C9 7.135 12.135 4 16 4C19.865 4 23 7.135 23 11C23 14.865 19.865 18 16 18C14.065 18 12.32 17.21 11.055 15.945L9.64 17.36C11.265 18.99 13.51 20 15.995 20C20.97 20 25 15.97 25 11C25 6.03 20.97 2 15.995 2ZM15 7V12L19.28 14.54L20 13.325L16.5 11.25V7H15Z" fill="#00667C"/>
</g>
</g>
<defs>
<clipPath id="clip0_1926_384">
<rect width="30" height="20" fill="white"/>
</clipPath>
<clipPath id="clip1_1926_384">
<rect width="24" height="24" fill="white" transform="translate(3 -1)"/>
</clipPath>
</defs>
</svg>
