<svg width="67" height="49" viewBox="0 0 67 49" fill="none" xmlns="http://www.w3.org/2000/svg">
<g clip-path="url(#clip0_7224_4635)">
<path d="M33.6846 9.17383C34.0032 8.94151 34.45 8.94142 34.7686 9.17383L42.71 14.9678C42.9247 15.1246 43.0508 15.3658 43.0508 15.6211V24.7256C43.0504 26.0965 41.865 27.2079 40.4033 27.208H28.0498C26.588 27.208 25.4028 26.0966 25.4023 24.7256V15.6211C25.4024 15.3658 25.5284 15.1246 25.7432 14.9678L33.6846 9.17383ZM27.168 16.0254V24.7256C27.1683 25.1497 27.5088 25.4999 27.9473 25.5479L28.0508 25.5527H30.7002V18.1035C30.7002 17.6791 31.0406 17.3291 31.4795 17.2812L31.582 17.2754H36.877C37.3293 17.2756 37.7019 17.5954 37.7529 18.0068L37.7588 18.1035V25.5527H40.4043C40.8914 25.5527 41.2858 25.1824 41.2861 24.7256V16.0264L34.2275 10.876L27.168 16.0254ZM32.4648 25.5527H35.9941V18.9307H32.4648V25.5527Z" fill="#FFCF86"/>
</g>
<path d="M18.1934 41V32.472H19.2724V36.047H23.2374V32.472H24.3294V41H23.2374V36.983H19.2724V41H18.1934ZM29.0269 41.156C28.5156 41.156 28.0346 41.026 27.5839 40.766C27.1419 40.506 26.7822 40.129 26.5049 39.635C26.2362 39.141 26.1019 38.5473 26.1019 37.854C26.1019 37.1433 26.2362 36.541 26.5049 36.047C26.7822 35.553 27.1419 35.176 27.5839 34.916C28.0346 34.656 28.5156 34.526 29.0269 34.526C29.5469 34.526 30.0279 34.656 30.4699 34.916C30.9119 35.176 31.2672 35.553 31.5359 36.047C31.8132 36.541 31.9519 37.1433 31.9519 37.854C31.9519 38.5473 31.8132 39.141 31.5359 39.635C31.2672 40.129 30.9119 40.506 30.4699 40.766C30.0279 41.026 29.5469 41.156 29.0269 41.156ZM29.0269 40.272C29.5729 40.272 30.0106 40.051 30.3399 39.609C30.6779 39.1583 30.8469 38.5733 30.8469 37.854C30.8469 37.126 30.6779 36.5367 30.3399 36.086C30.0106 35.6353 29.5729 35.41 29.0269 35.41C28.4896 35.41 28.0519 35.6353 27.7139 36.086C27.3759 36.5367 27.2069 37.126 27.2069 37.854C27.2069 38.5733 27.3759 39.1583 27.7139 39.609C28.0519 40.051 28.4896 40.272 29.0269 40.272ZM33.6158 41V34.682H34.4998L34.5908 35.592H34.6298C34.9071 35.2887 35.2105 35.0373 35.5398 34.838C35.8691 34.63 36.2201 34.526 36.5928 34.526C37.0781 34.526 37.4551 34.6343 37.7238 34.851C38.0011 35.059 38.2048 35.3537 38.3348 35.735C38.6641 35.3797 38.9978 35.0893 39.3358 34.864C39.6738 34.6387 40.0335 34.526 40.4148 34.526C41.0648 34.526 41.5458 34.7383 41.8578 35.163C42.1785 35.579 42.3388 36.19 42.3388 36.996V41H41.2728V37.139C41.2728 36.5497 41.1775 36.1207 40.9868 35.852C40.7961 35.5833 40.5015 35.449 40.1028 35.449C39.6348 35.449 39.1061 35.774 38.5168 36.424V41H37.4508V37.139C37.4508 36.5497 37.3555 36.1207 37.1648 35.852C36.9741 35.5833 36.6751 35.449 36.2678 35.449C35.7998 35.449 35.2711 35.774 34.6818 36.424V41H33.6158ZM46.9551 41.156C46.3918 41.156 45.8805 41.026 45.4211 40.766C44.9618 40.4973 44.5978 40.116 44.3291 39.622C44.0605 39.128 43.9261 38.5387 43.9261 37.854C43.9261 37.1607 44.0605 36.567 44.3291 36.073C44.6065 35.579 44.9618 35.1977 45.3951 34.929C45.8285 34.6603 46.2835 34.526 46.7601 34.526C47.5661 34.526 48.1858 34.7947 48.6191 35.332C49.0611 35.8693 49.2821 36.5887 49.2821 37.49C49.2821 37.6027 49.2778 37.7153 49.2691 37.828C49.2691 37.932 49.2605 38.023 49.2431 38.101H44.9791C45.0225 38.7683 45.2305 39.3013 45.6031 39.7C45.9845 40.0987 46.4785 40.298 47.0851 40.298C47.3885 40.298 47.6658 40.2547 47.9171 40.168C48.1771 40.0727 48.4241 39.9513 48.6581 39.804L49.0351 40.506C48.7665 40.6793 48.4588 40.831 48.1121 40.961C47.7741 41.091 47.3885 41.156 46.9551 41.156ZM44.9661 37.334H48.3461C48.3461 36.6927 48.2075 36.2073 47.9301 35.878C47.6615 35.54 47.2801 35.371 46.7861 35.371C46.3441 35.371 45.9455 35.5443 45.5901 35.891C45.2435 36.229 45.0355 36.71 44.9661 37.334Z" fill="#606060"/>
<defs>
<clipPath id="clip0_7224_4635">
<rect width="19" height="19" fill="white" transform="translate(23.9004 9)"/>
</clipPath>
</defs>
</svg>
