<svg width="49" height="42" viewBox="0 0 49 42" fill="none" xmlns="http://www.w3.org/2000/svg">
<path fill-rule="evenodd" clip-rule="evenodd" d="M21.1377 4.04751C22.9872 4.49505 23.912 4.49505 25.7616 4.04751C25.9911 3.99198 26.4806 3.99198 27.2304 4.04751C27.5608 4.04751 27.8285 4.30185 27.8285 4.61533C27.8285 4.70492 27.8063 4.7931 27.7641 4.872L25.7418 8.65972C29.0912 11.1675 30.7547 14.3947 30.7321 18.3415C30.7215 20.2068 29.9191 25 23.415 25C16.9109 25 16.0819 21.0918 16.0979 18.3416C16.1204 14.4671 17.7788 11.247 21.0731 8.68165L19.0647 4.8692C18.9169 4.58873 19.0367 4.24771 19.3322 4.10736C19.4159 4.06783 19.5073 4.04739 19.5998 4.04751C20.3633 3.98416 20.876 3.98416 21.1377 4.04751Z" stroke="#FFCF86"/>
<path d="M24.0064 15.6877H23.5478C23.4836 15.3787 23.3522 15.0882 23.1632 14.838H24.0064C24.1168 14.838 24.2227 14.7933 24.3007 14.7136C24.3788 14.6339 24.4226 14.5258 24.4226 14.4131C24.4226 14.3005 24.3788 14.1924 24.3007 14.1127C24.2227 14.033 24.1168 13.9883 24.0064 13.9883H19.8445C19.7341 13.9883 19.6282 14.033 19.5502 14.1127C19.4721 14.1924 19.4283 14.3005 19.4283 14.4131C19.4283 14.5258 19.4721 14.6339 19.5502 14.7136C19.6282 14.7933 19.7341 14.838 19.8445 14.838H21.5092C22.0511 14.838 22.5089 15.1941 22.6812 15.6877H19.8445C19.7341 15.6877 19.6282 15.7325 19.5502 15.8122C19.4721 15.8919 19.4283 15.9999 19.4283 16.1126C19.4283 16.2253 19.4721 16.3334 19.5502 16.413C19.6282 16.4927 19.7341 16.5375 19.8445 16.5375H22.6812C22.5089 17.0312 22.0511 17.3872 21.5092 17.3872H19.8445C19.7622 17.3877 19.6819 17.4128 19.6135 17.4595C19.5451 17.5062 19.4917 17.5723 19.4599 17.6498C19.428 17.7274 19.4196 17.813 19.4358 17.8955C19.4519 17.9781 19.4919 18.0538 19.5506 18.1129L22.8794 21.511C22.9179 21.5507 22.9638 21.5823 23.0144 21.6039C23.065 21.6254 23.1192 21.6365 23.174 21.6365C23.2288 21.6365 23.2831 21.6254 23.3337 21.6039C23.3843 21.5823 23.4301 21.5507 23.4687 21.511C23.5467 21.4313 23.5905 21.3232 23.5905 21.2106C23.5905 21.0979 23.5467 20.9899 23.4687 20.9102L20.85 18.2369H21.5092C22.5139 18.2369 23.3547 17.5062 23.5478 16.5375H24.0064C24.1168 16.5375 24.2227 16.4927 24.3007 16.413C24.3788 16.3334 24.4226 16.2253 24.4226 16.1126C24.4226 15.9999 24.3788 15.8919 24.3007 15.8122C24.2227 15.7325 24.1168 15.6877 24.0064 15.6877Z" fill="#FFCF86"/>
<path d="M22.9515 8.9017C22.9515 8.57953 22.6915 8.31836 22.3708 8.31836C22.05 8.31836 21.79 8.57953 21.79 8.9017V10.885C21.79 11.2072 22.05 11.4684 22.3708 11.4684C22.6915 11.4684 22.9515 11.2072 22.9515 10.885V8.9017Z" fill="#FFCF86"/>
<path d="M26.5179 7.96582H20.362C20.0413 7.96582 19.7812 8.22699 19.7812 8.54916C19.7812 8.87132 20.0413 9.13249 20.362 9.13249H26.5179C26.8386 9.13249 27.0986 8.87132 27.0986 8.54916C27.0986 8.22699 26.8386 7.96582 26.5179 7.96582Z" fill="#FFCF86"/>
<path d="M31.511 22.1992H27.9104C27.1406 22.1992 26.5166 22.826 26.5166 23.5992C26.5166 24.3724 27.1406 24.9992 27.9104 24.9992H31.511C32.2808 24.9992 32.9048 24.3724 32.9048 23.5992C32.9048 22.826 32.2808 22.1992 31.511 22.1992Z" fill="white" stroke="#FFCF86"/>
<path d="M30.0354 19.4004H26.4348C25.665 19.4004 25.041 20.0272 25.041 20.8004C25.041 21.5736 25.665 22.2004 26.4348 22.2004H30.0354C30.8052 22.2004 31.4292 21.5736 31.4292 20.8004C31.4292 20.0272 30.8052 19.4004 30.0354 19.4004Z" fill="white" stroke="#FFCF86"/>
<path d="M31.5452 16.5996H27.9446C27.1748 16.5996 26.5508 17.2264 26.5508 17.9996C26.5508 18.7728 27.1748 19.3996 27.9446 19.3996H31.5452C32.3149 19.3996 32.939 18.7728 32.939 17.9996C32.939 17.2264 32.3149 16.5996 31.5452 16.5996Z" fill="white" stroke="#FFCF86"/>
<path d="M-7.80821e-05 39V31.128H0.995922V38.148H4.43992V39H-7.80821e-05ZM7.32667 39.144C6.71067 39.144 6.25867 38.952 5.97067 38.568C5.68267 38.176 5.53867 37.608 5.53867 36.864V33.168H6.53467V36.732C6.53467 37.276 6.61867 37.672 6.78667 37.92C6.96267 38.168 7.24267 38.292 7.62667 38.292C7.93067 38.292 8.19867 38.216 8.43067 38.064C8.67067 37.904 8.92667 37.652 9.19867 37.308V33.168H10.1827V39H9.36667L9.28267 38.088H9.24667C8.97467 38.408 8.68667 38.664 8.38267 38.856C8.07867 39.048 7.72667 39.144 7.32667 39.144ZM12.15 39V33.168H12.966L13.05 34.008H13.086C13.342 33.728 13.622 33.496 13.926 33.312C14.23 33.12 14.554 33.024 14.898 33.024C15.346 33.024 15.694 33.124 15.942 33.324C16.198 33.516 16.386 33.788 16.506 34.14C16.81 33.812 17.118 33.544 17.43 33.336C17.742 33.128 18.074 33.024 18.426 33.024C19.026 33.024 19.47 33.22 19.758 33.612C20.054 33.996 20.202 34.56 20.202 35.304V39H19.218V35.436C19.218 34.892 19.13 34.496 18.954 34.248C18.778 34 18.506 33.876 18.138 33.876C17.706 33.876 17.218 34.176 16.674 34.776V39H15.69V35.436C15.69 34.892 15.602 34.496 15.426 34.248C15.25 34 14.974 33.876 14.598 33.876C14.166 33.876 13.678 34.176 13.134 34.776V39H12.15ZM22.0992 41.46V33.168H22.9152L22.9992 33.84H23.0352C23.2992 33.616 23.5872 33.424 23.8992 33.264C24.2192 33.104 24.5512 33.024 24.8952 33.024C25.6472 33.024 26.2192 33.296 26.6112 33.84C27.0032 34.376 27.1992 35.096 27.1992 36C27.1992 36.656 27.0792 37.22 26.8392 37.692C26.6072 38.164 26.2992 38.524 25.9152 38.772C25.5392 39.02 25.1272 39.144 24.6792 39.144C24.4072 39.144 24.1352 39.084 23.8632 38.964C23.5992 38.844 23.3312 38.68 23.0592 38.472L23.0832 39.492V41.46H22.0992ZM24.5112 38.316C24.9912 38.316 25.3872 38.112 25.6992 37.704C26.0192 37.288 26.1792 36.72 26.1792 36C26.1792 35.36 26.0592 34.844 25.8192 34.452C25.5872 34.052 25.1952 33.852 24.6432 33.852C24.3952 33.852 24.1432 33.92 23.8872 34.056C23.6392 34.192 23.3712 34.388 23.0832 34.644V37.704C23.3472 37.928 23.6032 38.088 23.8512 38.184C24.0992 38.272 24.3192 38.316 24.5112 38.316ZM30.2795 39.144C29.8635 39.144 29.4675 39.068 29.0915 38.916C28.7155 38.756 28.3875 38.564 28.1075 38.34L28.5995 37.68C28.8555 37.88 29.1195 38.048 29.3915 38.184C29.6635 38.312 29.9715 38.376 30.3155 38.376C30.6995 38.376 30.9875 38.288 31.1795 38.112C31.3715 37.928 31.4675 37.712 31.4675 37.464C31.4675 37.264 31.3995 37.096 31.2635 36.96C31.1355 36.824 30.9675 36.712 30.7595 36.624C30.5595 36.528 30.3515 36.44 30.1355 36.36C29.8635 36.256 29.5955 36.14 29.3315 36.012C29.0675 35.876 28.8515 35.704 28.6835 35.496C28.5155 35.28 28.4315 35.008 28.4315 34.68C28.4315 34.208 28.6075 33.816 28.9595 33.504C29.3195 33.184 29.8155 33.024 30.4475 33.024C30.8075 33.024 31.1435 33.088 31.4555 33.216C31.7675 33.344 32.0355 33.5 32.2595 33.684L31.7795 34.308C31.5795 34.156 31.3715 34.032 31.1555 33.936C30.9395 33.84 30.7035 33.792 30.4475 33.792C30.0795 33.792 29.8075 33.876 29.6315 34.044C29.4635 34.212 29.3795 34.408 29.3795 34.632C29.3795 34.816 29.4395 34.968 29.5595 35.088C29.6795 35.2 29.8355 35.3 30.0275 35.388C30.2195 35.468 30.4235 35.552 30.6395 35.64C30.9195 35.744 31.1955 35.864 31.4675 36C31.7395 36.128 31.9635 36.304 32.1395 36.528C32.3235 36.744 32.4155 37.036 32.4155 37.404C32.4155 37.716 32.3315 38.004 32.1635 38.268C32.0035 38.532 31.7635 38.744 31.4435 38.904C31.1315 39.064 30.7435 39.144 30.2795 39.144ZM35.4868 39.144C34.8708 39.144 34.4188 38.952 34.1308 38.568C33.8428 38.176 33.6988 37.608 33.6988 36.864V33.168H34.6948V36.732C34.6948 37.276 34.7788 37.672 34.9468 37.92C35.1228 38.168 35.4028 38.292 35.7868 38.292C36.0908 38.292 36.3588 38.216 36.5908 38.064C36.8308 37.904 37.0868 37.652 37.3588 37.308V33.168H38.3428V39H37.5268L37.4428 38.088H37.4068C37.1348 38.408 36.8468 38.664 36.5428 38.856C36.2388 39.048 35.8868 39.144 35.4868 39.144ZM40.3102 39V33.168H41.1262L41.2102 34.008H41.2462C41.5022 33.728 41.7822 33.496 42.0862 33.312C42.3902 33.12 42.7142 33.024 43.0582 33.024C43.5062 33.024 43.8542 33.124 44.1022 33.324C44.3582 33.516 44.5462 33.788 44.6662 34.14C44.9702 33.812 45.2782 33.544 45.5902 33.336C45.9022 33.128 46.2342 33.024 46.5862 33.024C47.1862 33.024 47.6302 33.22 47.9182 33.612C48.2142 33.996 48.3622 34.56 48.3622 35.304V39H47.3782V35.436C47.3782 34.892 47.2902 34.496 47.1142 34.248C46.9382 34 46.6662 33.876 46.2982 33.876C45.8662 33.876 45.3782 34.176 44.8342 34.776V39H43.8502V35.436C43.8502 34.892 43.7622 34.496 43.5862 34.248C43.4102 34 43.1342 33.876 42.7582 33.876C42.3262 33.876 41.8382 34.176 41.2942 34.776V39H40.3102Z" fill="#606060"/>
</svg>
