<svg width="170" height="36" viewBox="0 0 170 36" fill="none" xmlns="http://www.w3.org/2000/svg">
<rect width="170" height="36" rx="5" fill="#E9FDD3"/>
<g clip-path="url(#clip0_8649_966)">
<path d="M24 23.2869C24 23.159 23.9493 23.033 23.8477 22.9416L17.9591 17.4999L23.8477 12.0582C24.0386 11.8815 24.0508 11.5829 23.8741 11.3919C23.6974 11.201 23.3988 11.1888 23.2079 11.3655L16.9455 17.1546C16.7525 17.3333 16.7525 17.6685 16.9455 17.8472L23.2099 23.6343C23.4008 23.811 23.6994 23.7988 23.8761 23.6079C23.9594 23.5165 24 23.4007 24 23.2869Z" fill="black"/>
<path d="M18.1993 23.2867C18.1993 23.1587 18.1485 23.0328 18.0469 22.9414L12.1604 17.4997L18.0489 12.0579C18.2399 11.8812 18.2521 11.5826 18.0754 11.3917C17.8986 11.2008 17.6 11.1886 17.4091 11.3653L11.1447 17.1543C10.9518 17.3331 10.9518 17.6683 11.1447 17.847L17.4091 23.634C17.6 23.8108 17.8986 23.7986 18.0754 23.6076C18.1586 23.5162 18.1993 23.4004 18.1993 23.2867Z" fill="black"/>
</g>
<path d="M38.162 23V13.844H43.692V15.216H39.786V17.806H43.118V19.178H39.786V23H38.162ZM45.1587 23V16.126H46.7687V23H45.1587ZM45.9707 14.922C45.6814 14.922 45.4481 14.838 45.2707 14.67C45.0934 14.502 45.0047 14.278 45.0047 13.998C45.0047 13.7273 45.0934 13.508 45.2707 13.34C45.4481 13.172 45.6814 13.088 45.9707 13.088C46.2601 13.088 46.4934 13.172 46.6707 13.34C46.8481 13.508 46.9367 13.7273 46.9367 13.998C46.9367 14.278 46.8481 14.502 46.6707 14.67C46.4934 14.838 46.2601 14.922 45.9707 14.922ZM48.8228 23V16.126H50.1528L50.2648 17.344H50.3208C50.5634 16.896 50.8574 16.5553 51.2028 16.322C51.5481 16.0793 51.9028 15.958 52.2668 15.958C52.5934 15.958 52.8548 16.0047 53.0508 16.098L52.7708 17.498C52.6494 17.4607 52.5374 17.4327 52.4348 17.414C52.3321 17.3953 52.2061 17.386 52.0568 17.386C51.7861 17.386 51.5014 17.4933 51.2028 17.708C50.9041 17.9133 50.6474 18.2773 50.4328 18.8V23H48.8228ZM55.8814 23.168C55.4147 23.168 54.9481 23.0793 54.4814 22.902C54.0147 22.7153 53.6134 22.4867 53.2774 22.216L54.0334 21.18C54.3414 21.4133 54.6494 21.6 54.9574 21.74C55.2654 21.88 55.5921 21.95 55.9374 21.95C56.3107 21.95 56.5861 21.8707 56.7634 21.712C56.9407 21.5533 57.0294 21.3573 57.0294 21.124C57.0294 20.928 56.9547 20.7693 56.8054 20.648C56.6654 20.5173 56.4834 20.4053 56.2594 20.312C56.0354 20.2093 55.8021 20.1113 55.5594 20.018C55.2607 19.906 54.9621 19.7707 54.6634 19.612C54.3741 19.444 54.1361 19.234 53.9494 18.982C53.7627 18.7207 53.6694 18.3987 53.6694 18.016C53.6694 17.4093 53.8934 16.9147 54.3414 16.532C54.7894 16.1493 55.3961 15.958 56.1614 15.958C56.6467 15.958 57.0807 16.042 57.4634 16.21C57.8461 16.378 58.1774 16.5693 58.4574 16.784L57.7154 17.764C57.4727 17.5867 57.2254 17.4467 56.9734 17.344C56.7307 17.232 56.4741 17.176 56.2034 17.176C55.8581 17.176 55.6014 17.2507 55.4334 17.4C55.2654 17.54 55.1814 17.7173 55.1814 17.932C55.1814 18.2027 55.3214 18.408 55.6014 18.548C55.8814 18.688 56.2081 18.8233 56.5814 18.954C56.8987 19.066 57.2067 19.206 57.5054 19.374C57.8041 19.5327 58.0514 19.7427 58.2474 20.004C58.4527 20.2653 58.5554 20.6107 58.5554 21.04C58.5554 21.628 58.3267 22.132 57.8694 22.552C57.4121 22.9627 56.7494 23.168 55.8814 23.168ZM62.1413 23.168C61.3479 23.168 60.7833 22.9393 60.4473 22.482C60.1206 22.0153 59.9573 21.4133 59.9573 20.676V17.4H58.9773V16.196L60.0413 16.126L60.2373 14.25H61.5813V16.126H63.3313V17.4H61.5813V20.676C61.5813 21.4787 61.9033 21.88 62.5473 21.88C62.6686 21.88 62.7946 21.866 62.9253 21.838C63.0559 21.8007 63.1679 21.7633 63.2613 21.726L63.5413 22.916C63.3546 22.9813 63.1399 23.0373 62.8973 23.084C62.6639 23.14 62.4119 23.168 62.1413 23.168ZM69.5686 23V15.216H66.9226V13.844H73.8386V15.216H71.1926V23H69.5686ZM75.2232 23V16.126H76.8332V23H75.2232ZM76.0352 14.922C75.7458 14.922 75.5125 14.838 75.3352 14.67C75.1578 14.502 75.0692 14.278 75.0692 13.998C75.0692 13.7273 75.1578 13.508 75.3352 13.34C75.5125 13.172 75.7458 13.088 76.0352 13.088C76.3245 13.088 76.5578 13.172 76.7352 13.34C76.9125 13.508 77.0012 13.7273 77.0012 13.998C77.0012 14.278 76.9125 14.502 76.7352 14.67C76.5578 14.838 76.3245 14.922 76.0352 14.922ZM78.8872 23V16.126H80.2172L80.3292 17.064H80.3852C80.6746 16.756 80.9872 16.4947 81.3232 16.28C81.6686 16.0653 82.0559 15.958 82.4852 15.958C82.9892 15.958 83.3906 16.07 83.6892 16.294C83.9972 16.5087 84.2306 16.8073 84.3892 17.19C84.7159 16.8353 85.0566 16.5413 85.4112 16.308C85.7752 16.0747 86.1719 15.958 86.6012 15.958C87.3292 15.958 87.8659 16.196 88.2112 16.672C88.5566 17.148 88.7292 17.82 88.7292 18.688V23H87.1052V18.898C87.1052 18.3287 87.0166 17.9273 86.8392 17.694C86.6712 17.4607 86.4099 17.344 86.0552 17.344C85.6259 17.344 85.1452 17.6287 84.6132 18.198V23H83.0032V18.898C83.0032 18.3287 82.9146 17.9273 82.7372 17.694C82.5692 17.4607 82.3032 17.344 81.9392 17.344C81.5099 17.344 81.0292 17.6287 80.4972 18.198V23H78.8872ZM93.6261 23.168C92.9914 23.168 92.4174 23.028 91.9041 22.748C91.3907 22.4587 90.9847 22.048 90.6861 21.516C90.3874 20.9747 90.2381 20.326 90.2381 19.57C90.2381 18.8233 90.3874 18.1793 90.6861 17.638C90.9941 17.0967 91.3907 16.6813 91.8761 16.392C92.3614 16.1027 92.8701 15.958 93.4021 15.958C94.0274 15.958 94.5501 16.098 94.9701 16.378C95.3901 16.6487 95.7074 17.0313 95.9221 17.526C96.1367 18.0113 96.2441 18.576 96.2441 19.22C96.2441 19.556 96.2207 19.8173 96.1741 20.004H91.8061C91.8807 20.6107 92.1001 21.082 92.4641 21.418C92.8281 21.754 93.2854 21.922 93.8361 21.922C94.1347 21.922 94.4101 21.88 94.6621 21.796C94.9234 21.7027 95.1801 21.5767 95.4321 21.418L95.9781 22.426C95.6514 22.6407 95.2874 22.818 94.8861 22.958C94.4847 23.098 94.0647 23.168 93.6261 23.168ZM91.7921 18.912H94.8441C94.8441 18.38 94.7274 17.9647 94.4941 17.666C94.2607 17.358 93.9107 17.204 93.4441 17.204C93.0427 17.204 92.6834 17.3533 92.3661 17.652C92.0581 17.9413 91.8667 18.3613 91.7921 18.912ZM100.725 23V13.844H102.349V23H100.725ZM104.536 23V16.126H105.866L105.978 17.05H106.034C106.342 16.7513 106.678 16.4947 107.042 16.28C107.406 16.0653 107.821 15.958 108.288 15.958C109.025 15.958 109.562 16.196 109.898 16.672C110.234 17.148 110.402 17.82 110.402 18.688V23H108.792V18.898C108.792 18.3287 108.708 17.9273 108.54 17.694C108.372 17.4607 108.096 17.344 107.714 17.344C107.415 17.344 107.149 17.4187 106.916 17.568C106.692 17.708 106.435 17.918 106.146 18.198V23H104.536ZM113.91 23L111.516 16.126H113.154L114.246 19.696C114.339 20.032 114.432 20.3727 114.526 20.718C114.628 21.0633 114.726 21.4133 114.82 21.768H114.876C114.978 21.4133 115.076 21.0633 115.17 20.718C115.272 20.3727 115.37 20.032 115.464 19.696L116.556 16.126H118.11L115.772 23H113.91ZM122.159 23.168C121.525 23.168 120.951 23.028 120.437 22.748C119.924 22.4587 119.518 22.048 119.219 21.516C118.921 20.9747 118.771 20.326 118.771 19.57C118.771 18.8233 118.921 18.1793 119.219 17.638C119.527 17.0967 119.924 16.6813 120.409 16.392C120.895 16.1027 121.403 15.958 121.935 15.958C122.561 15.958 123.083 16.098 123.503 16.378C123.923 16.6487 124.241 17.0313 124.455 17.526C124.67 18.0113 124.777 18.576 124.777 19.22C124.777 19.556 124.754 19.8173 124.707 20.004H120.339C120.414 20.6107 120.633 21.082 120.997 21.418C121.361 21.754 121.819 21.922 122.369 21.922C122.668 21.922 122.943 21.88 123.195 21.796C123.457 21.7027 123.713 21.5767 123.965 21.418L124.511 22.426C124.185 22.6407 123.821 22.818 123.419 22.958C123.018 23.098 122.598 23.168 122.159 23.168ZM120.325 18.912H123.377C123.377 18.38 123.261 17.9647 123.027 17.666C122.794 17.358 122.444 17.204 121.977 17.204C121.576 17.204 121.217 17.3533 120.899 17.652C120.591 17.9413 120.4 18.3613 120.325 18.912ZM128.233 23.168C127.766 23.168 127.3 23.0793 126.833 22.902C126.366 22.7153 125.965 22.4867 125.629 22.216L126.385 21.18C126.693 21.4133 127.001 21.6 127.309 21.74C127.617 21.88 127.944 21.95 128.289 21.95C128.662 21.95 128.938 21.8707 129.115 21.712C129.292 21.5533 129.381 21.3573 129.381 21.124C129.381 20.928 129.306 20.7693 129.157 20.648C129.017 20.5173 128.835 20.4053 128.611 20.312C128.387 20.2093 128.154 20.1113 127.911 20.018C127.612 19.906 127.314 19.7707 127.015 19.612C126.726 19.444 126.488 19.234 126.301 18.982C126.114 18.7207 126.021 18.3987 126.021 18.016C126.021 17.4093 126.245 16.9147 126.693 16.532C127.141 16.1493 127.748 15.958 128.513 15.958C128.998 15.958 129.432 16.042 129.815 16.21C130.198 16.378 130.529 16.5693 130.809 16.784L130.067 17.764C129.824 17.5867 129.577 17.4467 129.325 17.344C129.082 17.232 128.826 17.176 128.555 17.176C128.21 17.176 127.953 17.2507 127.785 17.4C127.617 17.54 127.533 17.7173 127.533 17.932C127.533 18.2027 127.673 18.408 127.953 18.548C128.233 18.688 128.56 18.8233 128.933 18.954C129.25 19.066 129.558 19.206 129.857 19.374C130.156 19.5327 130.403 19.7427 130.599 20.004C130.804 20.2653 130.907 20.6107 130.907 21.04C130.907 21.628 130.678 22.132 130.221 22.552C129.764 22.9627 129.101 23.168 128.233 23.168ZM134.493 23.168C133.699 23.168 133.135 22.9393 132.799 22.482C132.472 22.0153 132.309 21.4133 132.309 20.676V17.4H131.329V16.196L132.393 16.126L132.589 14.25H133.933V16.126H135.683V17.4H133.933V20.676C133.933 21.4787 134.255 21.88 134.899 21.88C135.02 21.88 135.146 21.866 135.277 21.838C135.407 21.8007 135.519 21.7633 135.613 21.726L135.893 22.916C135.706 22.9813 135.491 23.0373 135.249 23.084C135.015 23.14 134.763 23.168 134.493 23.168ZM139.725 23.168C139.155 23.168 138.623 23.028 138.129 22.748C137.634 22.4587 137.233 22.048 136.925 21.516C136.617 20.9747 136.463 20.326 136.463 19.57C136.463 18.8047 136.617 18.156 136.925 17.624C137.233 17.0827 137.634 16.672 138.129 16.392C138.623 16.1027 139.155 15.958 139.725 15.958C140.303 15.958 140.84 16.1027 141.335 16.392C141.829 16.672 142.231 17.0827 142.539 17.624C142.847 18.156 143.001 18.8047 143.001 19.57C143.001 20.326 142.847 20.9747 142.539 21.516C142.231 22.048 141.829 22.4587 141.335 22.748C140.84 23.028 140.303 23.168 139.725 23.168ZM139.725 21.852C140.229 21.852 140.625 21.642 140.915 21.222C141.204 20.802 141.349 20.2513 141.349 19.57C141.349 18.8793 141.204 18.324 140.915 17.904C140.625 17.484 140.229 17.274 139.725 17.274C139.221 17.274 138.824 17.484 138.535 17.904C138.255 18.324 138.115 18.8793 138.115 19.57C138.115 20.2513 138.255 20.802 138.535 21.222C138.824 21.642 139.221 21.852 139.725 21.852ZM144.594 23V16.126H145.924L146.036 17.344H146.092C146.335 16.896 146.629 16.5553 146.974 16.322C147.32 16.0793 147.674 15.958 148.038 15.958C148.365 15.958 148.626 16.0047 148.822 16.098L148.542 17.498C148.421 17.4607 148.309 17.4327 148.206 17.414C148.104 17.3953 147.978 17.386 147.828 17.386C147.558 17.386 147.273 17.4933 146.974 17.708C146.676 17.9133 146.419 18.2773 146.204 18.8V23H144.594Z" fill="black"/>
<defs>
<clipPath id="clip0_8649_966">
<rect width="13" height="13" fill="white" transform="matrix(4.37114e-08 1 1 -4.37114e-08 11 11)"/>
</clipPath>
</defs>
</svg>
