<svg width="304" height="20" viewBox="0 0 304 20" fill="none" xmlns="http://www.w3.org/2000/svg">
<path d="M7.00065 10.5827C6.82305 10.5806 6.64908 10.633 6.50216 10.7328C6.35523 10.8326 6.2424 10.975 6.17886 11.1408C6.11531 11.3067 6.1041 11.488 6.14674 11.6604C6.18937 11.8328 6.2838 11.9881 6.41732 12.1052V12.916C6.41732 13.0707 6.47878 13.2191 6.58817 13.3285C6.69757 13.4379 6.84594 13.4993 7.00065 13.4993C7.15536 13.4993 7.30373 13.4379 7.41313 13.3285C7.52253 13.2191 7.58398 13.0707 7.58398 12.916V12.1052C7.7175 11.9881 7.81193 11.8328 7.85456 11.6604C7.8972 11.488 7.88599 11.3067 7.82244 11.1408C7.7589 10.975 7.64607 10.8326 7.49914 10.7328C7.35222 10.633 7.17825 10.5806 7.00065 10.5827ZM9.91732 8.24935V7.08268C9.91732 6.30913 9.61003 5.56727 9.06305 5.02029C8.51606 4.47331 7.7742 4.16602 7.00065 4.16602C6.2271 4.16602 5.48524 4.47331 4.93826 5.02029C4.39128 5.56727 4.08398 6.30913 4.08398 7.08268V8.24935C3.61986 8.24935 3.17474 8.43372 2.84655 8.76191C2.51836 9.0901 2.33398 9.53522 2.33398 9.99935V14.0827C2.33398 14.5468 2.51836 14.9919 2.84655 15.3201C3.17474 15.6483 3.61986 15.8327 4.08398 15.8327H9.91732C10.3814 15.8327 10.8266 15.6483 11.1548 15.3201C11.4829 14.9919 11.6673 14.5468 11.6673 14.0827V9.99935C11.6673 9.53522 11.4829 9.0901 11.1548 8.76191C10.8266 8.43372 10.3814 8.24935 9.91732 8.24935ZM5.25065 7.08268C5.25065 6.61855 5.43503 6.17343 5.76321 5.84525C6.0914 5.51706 6.53652 5.33268 7.00065 5.33268C7.46478 5.33268 7.9099 5.51706 8.23809 5.84525C8.56628 6.17343 8.75065 6.61855 8.75065 7.08268V8.24935H5.25065V7.08268ZM10.5007 14.0827C10.5007 14.2374 10.4392 14.3858 10.3298 14.4952C10.2204 14.6046 10.072 14.666 9.91732 14.666H4.08398C3.92927 14.666 3.7809 14.6046 3.67151 14.4952C3.56211 14.3858 3.50065 14.2374 3.50065 14.0827V9.99935C3.50065 9.84464 3.56211 9.69627 3.67151 9.58687C3.7809 9.47747 3.92927 9.41602 4.08398 9.41602H9.91732C10.072 9.41602 10.2204 9.47747 10.3298 9.58687C10.4392 9.69627 10.5007 9.84464 10.5007 9.99935V14.0827Z" fill="black"/>
<path d="M20.328 16V5.536H22.184V16H20.328ZM24.6836 16V8.144H26.2036L26.3316 9.2H26.3956C26.7476 8.85867 27.1316 8.56533 27.5476 8.32C27.9636 8.07467 28.4383 7.952 28.9716 7.952C29.8143 7.952 30.4276 8.224 30.8116 8.768C31.1956 9.312 31.3876 10.08 31.3876 11.072V16H29.5476V11.312C29.5476 10.6613 29.4516 10.2027 29.2596 9.936C29.0676 9.66933 28.753 9.536 28.3156 9.536C27.9743 9.536 27.6703 9.62133 27.4036 9.792C27.1476 9.952 26.8543 10.192 26.5236 10.512V16H24.6836ZM35.3968 16L32.6608 8.144H34.5328L35.7808 12.224C35.8874 12.608 35.9941 12.9973 36.1008 13.392C36.2181 13.7867 36.3301 14.1867 36.4368 14.592H36.5008C36.6181 14.1867 36.7301 13.7867 36.8368 13.392C36.9541 12.9973 37.0661 12.608 37.1727 12.224L38.4208 8.144H40.1968L37.5248 16H35.3968ZM44.8249 16.192C44.0995 16.192 43.4435 16.032 42.8569 15.712C42.2702 15.3813 41.8062 14.912 41.4649 14.304C41.1235 13.6853 40.9529 12.944 40.9529 12.08C40.9529 11.2267 41.1235 10.4907 41.4649 9.872C41.8169 9.25333 42.2702 8.77867 42.8249 8.448C43.3795 8.11733 43.9609 7.952 44.5689 7.952C45.2835 7.952 45.8809 8.112 46.3609 8.432C46.8409 8.74133 47.2035 9.17867 47.4489 9.744C47.6942 10.2987 47.8169 10.944 47.8169 11.68C47.8169 12.064 47.7902 12.3627 47.7369 12.576H42.7449C42.8302 13.2693 43.0809 13.808 43.4969 14.192C43.9129 14.576 44.4355 14.768 45.0649 14.768C45.4062 14.768 45.7209 14.72 46.0089 14.624C46.3075 14.5173 46.6009 14.3733 46.8889 14.192L47.5129 15.344C47.1395 15.5893 46.7235 15.792 46.2649 15.952C45.8062 16.112 45.3262 16.192 44.8249 16.192ZM42.7289 11.328H46.2169C46.2169 10.72 46.0835 10.2453 45.8169 9.904C45.5502 9.552 45.1502 9.376 44.6169 9.376C44.1582 9.376 43.7475 9.54667 43.3849 9.888C43.0329 10.2187 42.8142 10.6987 42.7289 11.328ZM51.7663 16.192C51.2329 16.192 50.6996 16.0907 50.1663 15.888C49.6329 15.6747 49.1743 15.4133 48.7903 15.104L49.6543 13.92C50.0063 14.1867 50.3583 14.4 50.7103 14.56C51.0623 14.72 51.4356 14.8 51.8303 14.8C52.2569 14.8 52.5716 14.7093 52.7743 14.528C52.9769 14.3467 53.0783 14.1227 53.0783 13.856C53.0783 13.632 52.9929 13.4507 52.8223 13.312C52.6623 13.1627 52.4543 13.0347 52.1983 12.928C51.9423 12.8107 51.6756 12.6987 51.3983 12.592C51.0569 12.464 50.7156 12.3093 50.3743 12.128C50.0436 11.936 49.7716 11.696 49.5583 11.408C49.3449 11.1093 49.2383 10.7413 49.2383 10.304C49.2383 9.61067 49.4943 9.04533 50.0063 8.608C50.5183 8.17067 51.2116 7.952 52.0863 7.952C52.6409 7.952 53.1369 8.048 53.5743 8.24C54.0116 8.432 54.3903 8.65067 54.7103 8.896L53.8623 10.016C53.5849 9.81333 53.3023 9.65333 53.0143 9.536C52.7369 9.408 52.4436 9.344 52.1343 9.344C51.7396 9.344 51.4463 9.42933 51.2543 9.6C51.0623 9.76 50.9663 9.96267 50.9663 10.208C50.9663 10.5173 51.1263 10.752 51.4463 10.912C51.7663 11.072 52.1396 11.2267 52.5663 11.376C52.9289 11.504 53.2809 11.664 53.6223 11.856C53.9636 12.0373 54.2463 12.2773 54.4703 12.576C54.7049 12.8747 54.8223 13.2693 54.8223 13.76C54.8223 14.432 54.5609 15.008 54.0383 15.488C53.5156 15.9573 52.7583 16.192 51.7663 16.192ZM58.9204 16.192C58.0137 16.192 57.3684 15.9307 56.9844 15.408C56.611 14.8747 56.4244 14.1867 56.4244 13.344V9.6H55.3044V8.224L56.5204 8.144L56.7444 6H58.2804V8.144H60.2804V9.6H58.2804V13.344C58.2804 14.2613 58.6484 14.72 59.3844 14.72C59.523 14.72 59.667 14.704 59.8164 14.672C59.9657 14.6293 60.0937 14.5867 60.2004 14.544L60.5204 15.904C60.307 15.9787 60.0617 16.0427 59.7844 16.096C59.5177 16.16 59.2297 16.192 58.9204 16.192ZM65.1368 16V8.144H66.9768V16H65.1368ZM66.0648 6.768C65.7341 6.768 65.4674 6.672 65.2648 6.48C65.0621 6.288 64.9608 6.032 64.9608 5.712C64.9608 5.40267 65.0621 5.152 65.2648 4.96C65.4674 4.768 65.7341 4.672 66.0648 4.672C66.3954 4.672 66.6621 4.768 66.8648 4.96C67.0674 5.152 67.1688 5.40267 67.1688 5.712C67.1688 6.032 67.0674 6.288 66.8648 6.48C66.6621 6.672 66.3954 6.768 66.0648 6.768ZM69.3243 16V8.144H70.8443L70.9723 9.2H71.0363C71.3883 8.85867 71.7723 8.56533 72.1883 8.32C72.6043 8.07467 73.0789 7.952 73.6123 7.952C74.4549 7.952 75.0683 8.224 75.4523 8.768C75.8363 9.312 76.0283 10.08 76.0283 11.072V16H74.1883V11.312C74.1883 10.6613 74.0923 10.2027 73.9003 9.936C73.7083 9.66933 73.3936 9.536 72.9563 9.536C72.6149 9.536 72.3109 9.62133 72.0443 9.792C71.7883 9.952 71.4949 10.192 71.1643 10.512V16H69.3243ZM85.2885 16.192C84.5418 16.192 83.8272 15.8507 83.1445 15.168H83.0965L82.9365 16H81.4805V4.704H83.3205V7.616L83.2725 8.928C83.6032 8.64 83.9658 8.40533 84.3605 8.224C84.7552 8.04267 85.1498 7.952 85.5445 7.952C86.5258 7.952 87.2885 8.31467 87.8325 9.04C88.3765 9.76533 88.6485 10.7307 88.6485 11.936C88.6485 12.832 88.4885 13.6 88.1685 14.24C87.8485 14.8693 87.4325 15.3547 86.9205 15.696C86.4192 16.0267 85.8752 16.192 85.2885 16.192ZM84.9045 14.672C85.4272 14.672 85.8645 14.4427 86.2165 13.984C86.5685 13.5253 86.7445 12.8533 86.7445 11.968C86.7445 11.1787 86.6112 10.5653 86.3445 10.128C86.0778 9.69067 85.6458 9.472 85.0485 9.472C84.4938 9.472 83.9178 9.76533 83.3205 10.352V14.016C83.5978 14.2507 83.8698 14.4213 84.1365 14.528C84.4138 14.624 84.6698 14.672 84.9045 14.672ZM93.7121 16.192C93.0615 16.192 92.4535 16.032 91.8881 15.712C91.3228 15.3813 90.8641 14.912 90.5121 14.304C90.1601 13.6853 89.9841 12.944 89.9841 12.08C89.9841 11.2053 90.1601 10.464 90.5121 9.856C90.8641 9.23733 91.3228 8.768 91.8881 8.448C92.4535 8.11733 93.0615 7.952 93.7121 7.952C94.3735 7.952 94.9868 8.11733 95.5521 8.448C96.1175 8.768 96.5761 9.23733 96.9281 9.856C97.2801 10.464 97.4561 11.2053 97.4561 12.08C97.4561 12.944 97.2801 13.6853 96.9281 14.304C96.5761 14.912 96.1175 15.3813 95.5521 15.712C94.9868 16.032 94.3735 16.192 93.7121 16.192ZM93.7121 14.688C94.2881 14.688 94.7415 14.448 95.0721 13.968C95.4028 13.488 95.5681 12.8587 95.5681 12.08C95.5681 11.2907 95.4028 10.656 95.0721 10.176C94.7415 9.696 94.2881 9.456 93.7121 9.456C93.1361 9.456 92.6828 9.696 92.3521 10.176C92.0321 10.656 91.8721 11.2907 91.8721 12.08C91.8721 12.8587 92.0321 13.488 92.3521 13.968C92.6828 14.448 93.1361 14.688 93.7121 14.688ZM99.2774 16V8.144H100.797L100.925 9.2H100.989C101.341 8.85867 101.725 8.56533 102.141 8.32C102.557 8.07467 103.032 7.952 103.565 7.952C104.408 7.952 105.021 8.224 105.405 8.768C105.789 9.312 105.981 10.08 105.981 11.072V16H104.141V11.312C104.141 10.6613 104.045 10.2027 103.853 9.936C103.661 9.66933 103.347 9.536 102.909 9.536C102.568 9.536 102.264 9.62133 101.997 9.792C101.741 9.952 101.448 10.192 101.117 10.512V16H99.2774ZM110.983 16.192C110.001 16.192 109.217 15.8293 108.631 15.104C108.044 14.3787 107.751 13.3707 107.751 12.08C107.751 11.2267 107.905 10.4907 108.215 9.872C108.535 9.25333 108.951 8.77867 109.463 8.448C109.975 8.11733 110.513 7.952 111.079 7.952C111.527 7.952 111.905 8.032 112.215 8.192C112.535 8.34133 112.844 8.54933 113.143 8.816L113.079 7.552V4.704H114.919V16H113.399L113.271 15.152H113.207C112.919 15.44 112.583 15.6853 112.199 15.888C111.815 16.0907 111.409 16.192 110.983 16.192ZM111.431 14.672C112.017 14.672 112.567 14.3787 113.079 13.792V10.128C112.812 9.88267 112.545 9.712 112.279 9.616C112.012 9.52 111.745 9.472 111.479 9.472C110.977 9.472 110.545 9.70133 110.183 10.16C109.831 10.608 109.655 11.2427 109.655 12.064C109.655 12.9067 109.809 13.552 110.119 14C110.428 14.448 110.865 14.672 111.431 14.672ZM119.454 16.192C118.92 16.192 118.387 16.0907 117.854 15.888C117.32 15.6747 116.862 15.4133 116.478 15.104L117.342 13.92C117.694 14.1867 118.046 14.4 118.398 14.56C118.75 14.72 119.123 14.8 119.518 14.8C119.944 14.8 120.259 14.7093 120.462 14.528C120.664 14.3467 120.766 14.1227 120.766 13.856C120.766 13.632 120.68 13.4507 120.51 13.312C120.35 13.1627 120.142 13.0347 119.886 12.928C119.63 12.8107 119.363 12.6987 119.086 12.592C118.744 12.464 118.403 12.3093 118.062 12.128C117.731 11.936 117.459 11.696 117.246 11.408C117.032 11.1093 116.926 10.7413 116.926 10.304C116.926 9.61067 117.182 9.04533 117.694 8.608C118.206 8.17067 118.899 7.952 119.774 7.952C120.328 7.952 120.824 8.048 121.262 8.24C121.699 8.432 122.078 8.65067 122.398 8.896L121.55 10.016C121.272 9.81333 120.99 9.65333 120.702 9.536C120.424 9.408 120.131 9.344 119.822 9.344C119.427 9.344 119.134 9.42933 118.942 9.6C118.75 9.76 118.654 9.96267 118.654 10.208C118.654 10.5173 118.814 10.752 119.134 10.912C119.454 11.072 119.827 11.2267 120.254 11.376C120.616 11.504 120.968 11.664 121.31 11.856C121.651 12.0373 121.934 12.2773 122.158 12.576C122.392 12.8747 122.51 13.2693 122.51 13.76C122.51 14.432 122.248 15.008 121.726 15.488C121.203 15.9573 120.446 16.192 119.454 16.192ZM130.124 16.192C129.217 16.192 128.572 15.9307 128.188 15.408C127.814 14.8747 127.628 14.1867 127.628 13.344V9.6H126.508V8.224L127.724 8.144L127.948 6H129.484V8.144H131.484V9.6H129.484V13.344C129.484 14.2613 129.852 14.72 130.588 14.72C130.726 14.72 130.87 14.704 131.02 14.672C131.169 14.6293 131.297 14.5867 131.404 14.544L131.724 15.904C131.51 15.9787 131.265 16.0427 130.988 16.096C130.721 16.16 130.433 16.192 130.124 16.192ZM136.103 16.192C135.452 16.192 134.844 16.032 134.279 15.712C133.713 15.3813 133.255 14.912 132.903 14.304C132.551 13.6853 132.375 12.944 132.375 12.08C132.375 11.2053 132.551 10.464 132.903 9.856C133.255 9.23733 133.713 8.768 134.279 8.448C134.844 8.11733 135.452 7.952 136.103 7.952C136.764 7.952 137.377 8.11733 137.943 8.448C138.508 8.768 138.967 9.23733 139.319 9.856C139.671 10.464 139.847 11.2053 139.847 12.08C139.847 12.944 139.671 13.6853 139.319 14.304C138.967 14.912 138.508 15.3813 137.943 15.712C137.377 16.032 136.764 16.192 136.103 16.192ZM136.103 14.688C136.679 14.688 137.132 14.448 137.463 13.968C137.793 13.488 137.959 12.8587 137.959 12.08C137.959 11.2907 137.793 10.656 137.463 10.176C137.132 9.696 136.679 9.456 136.103 9.456C135.527 9.456 135.073 9.696 134.743 10.176C134.423 10.656 134.263 11.2907 134.263 12.08C134.263 12.8587 134.423 13.488 134.743 13.968C135.073 14.448 135.527 14.688 136.103 14.688ZM147.207 16.192C146.364 16.192 145.751 15.92 145.367 15.376C144.983 14.832 144.791 14.064 144.791 13.072V8.144H146.631V12.832C146.631 13.4827 146.727 13.9413 146.919 14.208C147.111 14.4747 147.42 14.608 147.847 14.608C148.188 14.608 148.487 14.5227 148.743 14.352C149.01 14.1813 149.292 13.904 149.591 13.52V8.144H151.431V16H149.927L149.783 14.848H149.735C149.394 15.2533 149.02 15.5787 148.615 15.824C148.21 16.0693 147.74 16.192 147.207 16.192ZM153.762 16V8.144H155.282L155.41 9.2H155.474C155.826 8.85867 156.21 8.56533 156.626 8.32C157.042 8.07467 157.516 7.952 158.05 7.952C158.892 7.952 159.506 8.224 159.89 8.768C160.274 9.312 160.466 10.08 160.466 11.072V16H158.626V11.312C158.626 10.6613 158.53 10.2027 158.338 9.936C158.146 9.66933 157.831 9.536 157.394 9.536C157.052 9.536 156.748 9.62133 156.482 9.792C156.226 9.952 155.932 10.192 155.602 10.512V16H153.762ZM164.507 16.192C163.856 16.192 163.392 15.9947 163.115 15.6C162.848 15.2053 162.715 14.6667 162.715 13.984V4.704H164.555V14.08C164.555 14.304 164.598 14.464 164.683 14.56C164.768 14.6453 164.859 14.688 164.955 14.688C164.998 14.688 165.035 14.688 165.067 14.688C165.11 14.6773 165.168 14.6667 165.243 14.656L165.483 16.032C165.376 16.0747 165.238 16.112 165.067 16.144C164.907 16.176 164.72 16.192 164.507 16.192ZM170.275 16.192C169.624 16.192 169.016 16.032 168.451 15.712C167.885 15.3813 167.427 14.912 167.075 14.304C166.723 13.6853 166.547 12.944 166.547 12.08C166.547 11.2053 166.723 10.464 167.075 9.856C167.427 9.23733 167.885 8.768 168.451 8.448C169.016 8.11733 169.624 7.952 170.275 7.952C170.936 7.952 171.549 8.11733 172.115 8.448C172.68 8.768 173.139 9.23733 173.491 9.856C173.843 10.464 174.019 11.2053 174.019 12.08C174.019 12.944 173.843 13.6853 173.491 14.304C173.139 14.912 172.68 15.3813 172.115 15.712C171.549 16.032 170.936 16.192 170.275 16.192ZM170.275 14.688C170.851 14.688 171.304 14.448 171.635 13.968C171.965 13.488 172.131 12.8587 172.131 12.08C172.131 11.2907 171.965 10.656 171.635 10.176C171.304 9.696 170.851 9.456 170.275 9.456C169.699 9.456 169.245 9.696 168.915 10.176C168.595 10.656 168.435 11.2907 168.435 12.08C168.435 12.8587 168.595 13.488 168.915 13.968C169.245 14.448 169.699 14.688 170.275 14.688ZM179.12 16.192C178.405 16.192 177.76 16.032 177.184 15.712C176.619 15.3813 176.165 14.912 175.824 14.304C175.493 13.6853 175.328 12.944 175.328 12.08C175.328 11.2053 175.509 10.464 175.872 9.856C176.235 9.23733 176.715 8.768 177.312 8.448C177.92 8.11733 178.571 7.952 179.264 7.952C179.765 7.952 180.203 8.03733 180.576 8.208C180.949 8.37867 181.28 8.58667 181.568 8.832L180.672 10.032C180.469 9.85067 180.261 9.712 180.048 9.616C179.835 9.50933 179.605 9.456 179.36 9.456C178.731 9.456 178.213 9.696 177.808 10.176C177.413 10.656 177.216 11.2907 177.216 12.08C177.216 12.8587 177.408 13.488 177.792 13.968C178.187 14.448 178.693 14.688 179.312 14.688C179.621 14.688 179.909 14.624 180.176 14.496C180.453 14.3573 180.704 14.1973 180.928 14.016L181.68 15.232C181.317 15.552 180.912 15.792 180.464 15.952C180.016 16.112 179.568 16.192 179.12 16.192ZM183.231 16V4.704H185.039V11.76H185.087L187.999 8.144H190.015L187.327 11.344L190.286 16H188.287L186.271 12.592L185.039 14V16H183.231ZM194.793 16V8.144H196.313L196.441 9.536H196.505C196.782 9.024 197.118 8.63467 197.513 8.368C197.908 8.09067 198.313 7.952 198.729 7.952C199.102 7.952 199.401 8.00533 199.625 8.112L199.305 9.712C199.166 9.66933 199.038 9.63733 198.921 9.616C198.804 9.59467 198.66 9.584 198.489 9.584C198.18 9.584 197.854 9.70667 197.513 9.952C197.172 10.1867 196.878 10.6027 196.633 11.2V16H194.793ZM203.966 16.192C203.24 16.192 202.584 16.032 201.998 15.712C201.411 15.3813 200.947 14.912 200.606 14.304C200.264 13.6853 200.094 12.944 200.094 12.08C200.094 11.2267 200.264 10.4907 200.606 9.872C200.958 9.25333 201.411 8.77867 201.966 8.448C202.52 8.11733 203.102 7.952 203.71 7.952C204.424 7.952 205.022 8.112 205.502 8.432C205.982 8.74133 206.344 9.17867 206.59 9.744C206.835 10.2987 206.958 10.944 206.958 11.68C206.958 12.064 206.931 12.3627 206.878 12.576H201.886C201.971 13.2693 202.222 13.808 202.638 14.192C203.054 14.576 203.576 14.768 204.206 14.768C204.547 14.768 204.862 14.72 205.15 14.624C205.448 14.5173 205.742 14.3733 206.03 14.192L206.654 15.344C206.28 15.5893 205.864 15.792 205.406 15.952C204.947 16.112 204.467 16.192 203.966 16.192ZM201.87 11.328H205.358C205.358 10.72 205.224 10.2453 204.958 9.904C204.691 9.552 204.291 9.376 203.758 9.376C203.299 9.376 202.888 9.54667 202.526 9.888C202.174 10.2187 201.955 10.6987 201.87 11.328ZM208.972 16V9.6H207.916V8.224L208.972 8.144V7.328C208.972 6.50667 209.175 5.83467 209.58 5.312C209.986 4.77867 210.652 4.512 211.58 4.512C211.858 4.512 212.124 4.53867 212.38 4.592C212.636 4.64533 212.85 4.70933 213.02 4.784L212.668 6.16C212.38 6.032 212.092 5.968 211.804 5.968C211.143 5.968 210.812 6.41067 210.812 7.296V8.144H212.348V9.6H210.812V16H208.972ZM216.934 16.192C216.209 16.192 215.553 16.032 214.966 15.712C214.38 15.3813 213.916 14.912 213.574 14.304C213.233 13.6853 213.062 12.944 213.062 12.08C213.062 11.2267 213.233 10.4907 213.574 9.872C213.926 9.25333 214.38 8.77867 214.934 8.448C215.489 8.11733 216.07 7.952 216.678 7.952C217.393 7.952 217.99 8.112 218.47 8.432C218.95 8.74133 219.313 9.17867 219.558 9.744C219.804 10.2987 219.926 10.944 219.926 11.68C219.926 12.064 219.9 12.3627 219.846 12.576H214.854C214.94 13.2693 215.19 13.808 215.606 14.192C216.022 14.576 216.545 14.768 217.174 14.768C217.516 14.768 217.83 14.72 218.118 14.624C218.417 14.5173 218.71 14.3733 218.998 14.192L219.622 15.344C219.249 15.5893 218.833 15.792 218.374 15.952C217.916 16.112 217.436 16.192 216.934 16.192ZM214.838 11.328H218.326C218.326 10.72 218.193 10.2453 217.926 9.904C217.66 9.552 217.26 9.376 216.726 9.376C216.268 9.376 215.857 9.54667 215.494 9.888C215.142 10.2187 214.924 10.6987 214.838 11.328ZM221.684 16V8.144H223.204L223.332 9.536H223.396C223.673 9.024 224.009 8.63467 224.404 8.368C224.798 8.09067 225.204 7.952 225.62 7.952C225.993 7.952 226.292 8.00533 226.516 8.112L226.196 9.712C226.057 9.66933 225.929 9.63733 225.812 9.616C225.694 9.59467 225.55 9.584 225.38 9.584C225.07 9.584 224.745 9.70667 224.404 9.952C224.062 10.1867 223.769 10.6027 223.524 11.2V16H221.684ZM227.652 16V8.144H229.172L229.3 9.536H229.364C229.642 9.024 229.978 8.63467 230.372 8.368C230.767 8.09067 231.172 7.952 231.588 7.952C231.962 7.952 232.26 8.00533 232.484 8.112L232.164 9.712C232.026 9.66933 231.898 9.63733 231.78 9.616C231.663 9.59467 231.519 9.584 231.348 9.584C231.039 9.584 230.714 9.70667 230.372 9.952C230.031 10.1867 229.738 10.6027 229.492 11.2V16H227.652ZM235.103 16.192C234.421 16.192 233.861 15.9787 233.423 15.552C232.997 15.1253 232.783 14.5707 232.783 13.888C232.783 13.0453 233.151 12.3947 233.887 11.936C234.623 11.4667 235.797 11.1467 237.407 10.976C237.397 10.56 237.285 10.2027 237.071 9.904C236.869 9.59467 236.501 9.44 235.967 9.44C235.583 9.44 235.205 9.51467 234.831 9.664C234.469 9.81333 234.111 9.99467 233.759 10.208L233.087 8.976C233.525 8.69867 234.015 8.45867 234.559 8.256C235.114 8.05333 235.701 7.952 236.319 7.952C237.301 7.952 238.031 8.24533 238.511 8.832C239.002 9.408 239.247 10.2453 239.247 11.344V16H237.727L237.599 15.136H237.535C237.183 15.4347 236.805 15.6853 236.399 15.888C236.005 16.0907 235.573 16.192 235.103 16.192ZM235.695 14.752C236.015 14.752 236.303 14.6773 236.559 14.528C236.826 14.368 237.109 14.1547 237.407 13.888V12.128C236.341 12.2667 235.599 12.4747 235.183 12.752C234.767 13.0187 234.559 13.3493 234.559 13.744C234.559 14.096 234.666 14.352 234.879 14.512C235.093 14.672 235.365 14.752 235.695 14.752ZM243.241 16.192C242.591 16.192 242.127 15.9947 241.849 15.6C241.583 15.2053 241.449 14.6667 241.449 13.984V4.704H243.289V14.08C243.289 14.304 243.332 14.464 243.417 14.56C243.503 14.6453 243.593 14.688 243.689 14.688C243.732 14.688 243.769 14.688 243.801 14.688C243.844 14.6773 243.903 14.6667 243.977 14.656L244.217 16.032C244.111 16.0747 243.972 16.112 243.801 16.144C243.641 16.176 243.455 16.192 243.241 16.192ZM248.996 16V8.144H250.516L250.644 9.536H250.708C250.985 9.024 251.321 8.63467 251.716 8.368C252.111 8.09067 252.516 7.952 252.932 7.952C253.305 7.952 253.604 8.00533 253.828 8.112L253.508 9.712C253.369 9.66933 253.241 9.63733 253.124 9.616C253.007 9.59467 252.863 9.584 252.692 9.584C252.383 9.584 252.057 9.70667 251.716 9.952C251.375 10.1867 251.081 10.6027 250.836 11.2V16H248.996ZM258.169 16.192C257.443 16.192 256.787 16.032 256.201 15.712C255.614 15.3813 255.15 14.912 254.809 14.304C254.467 13.6853 254.297 12.944 254.297 12.08C254.297 11.2267 254.467 10.4907 254.809 9.872C255.161 9.25333 255.614 8.77867 256.169 8.448C256.723 8.11733 257.305 7.952 257.913 7.952C258.627 7.952 259.225 8.112 259.705 8.432C260.185 8.74133 260.547 9.17867 260.793 9.744C261.038 10.2987 261.161 10.944 261.161 11.68C261.161 12.064 261.134 12.3627 261.081 12.576H256.089C256.174 13.2693 256.425 13.808 256.841 14.192C257.257 14.576 257.779 14.768 258.409 14.768C258.75 14.768 259.065 14.72 259.353 14.624C259.651 14.5173 259.945 14.3733 260.233 14.192L260.857 15.344C260.483 15.5893 260.067 15.792 259.609 15.952C259.15 16.112 258.67 16.192 258.169 16.192ZM256.073 11.328H259.561C259.561 10.72 259.427 10.2453 259.161 9.904C258.894 9.552 258.494 9.376 257.961 9.376C257.502 9.376 257.091 9.54667 256.729 9.888C256.377 10.2187 256.158 10.6987 256.073 11.328ZM264.214 16L262.134 8.144H263.99L264.934 12.224C265.019 12.5973 265.089 12.9707 265.142 13.344C265.206 13.7173 265.275 14.096 265.35 14.48H265.414C265.489 14.096 265.563 13.7173 265.638 13.344C265.723 12.96 265.814 12.5867 265.91 12.224L266.934 8.144H268.614L269.654 12.224C269.75 12.5973 269.841 12.9707 269.926 13.344C270.011 13.7173 270.097 14.096 270.182 14.48H270.246C270.321 14.096 270.39 13.7173 270.454 13.344C270.518 12.9707 270.587 12.5973 270.662 12.224L271.606 8.144H273.334L271.334 16H269.142L268.23 12.336C268.145 11.9627 268.065 11.5947 267.99 11.232C267.915 10.8587 267.835 10.464 267.75 10.048H267.686C267.611 10.464 267.537 10.8587 267.462 11.232C267.387 11.6053 267.307 11.9787 267.222 12.352L266.326 16H264.214ZM276.635 16.192C275.952 16.192 275.392 15.9787 274.955 15.552C274.528 15.1253 274.315 14.5707 274.315 13.888C274.315 13.0453 274.683 12.3947 275.419 11.936C276.155 11.4667 277.328 11.1467 278.939 10.976C278.928 10.56 278.816 10.2027 278.603 9.904C278.4 9.59467 278.032 9.44 277.499 9.44C277.115 9.44 276.736 9.51467 276.363 9.664C276 9.81333 275.643 9.99467 275.291 10.208L274.618 8.976C275.056 8.69867 275.547 8.45867 276.091 8.256C276.645 8.05333 277.232 7.952 277.851 7.952C278.832 7.952 279.563 8.24533 280.043 8.832C280.533 9.408 280.779 10.2453 280.779 11.344V16H279.259L279.131 15.136H279.067C278.715 15.4347 278.336 15.6853 277.931 15.888C277.536 16.0907 277.104 16.192 276.635 16.192ZM277.227 14.752C277.547 14.752 277.835 14.6773 278.091 14.528C278.357 14.368 278.64 14.1547 278.939 13.888V12.128C277.872 12.2667 277.131 12.4747 276.715 12.752C276.299 13.0187 276.091 13.3493 276.091 13.744C276.091 14.096 276.197 14.352 276.411 14.512C276.624 14.672 276.896 14.752 277.227 14.752ZM282.981 16V8.144H284.501L284.629 9.536H284.693C284.97 9.024 285.306 8.63467 285.701 8.368C286.095 8.09067 286.501 7.952 286.917 7.952C287.29 7.952 287.589 8.00533 287.813 8.112L287.493 9.712C287.354 9.66933 287.226 9.63733 287.109 9.616C286.991 9.59467 286.847 9.584 286.677 9.584C286.367 9.584 286.042 9.70667 285.701 9.952C285.359 10.1867 285.066 10.6027 284.821 11.2V16H282.981ZM291.545 16.192C290.564 16.192 289.78 15.8293 289.193 15.104C288.606 14.3787 288.313 13.3707 288.313 12.08C288.313 11.2267 288.468 10.4907 288.777 9.872C289.097 9.25333 289.513 8.77867 290.025 8.448C290.537 8.11733 291.076 7.952 291.641 7.952C292.089 7.952 292.468 8.032 292.777 8.192C293.097 8.34133 293.406 8.54933 293.705 8.816L293.641 7.552V4.704H295.481V16H293.961L293.833 15.152H293.769C293.481 15.44 293.145 15.6853 292.761 15.888C292.377 16.0907 291.972 16.192 291.545 16.192ZM291.993 14.672C292.58 14.672 293.129 14.3787 293.641 13.792V10.128C293.374 9.88267 293.108 9.712 292.841 9.616C292.574 9.52 292.308 9.472 292.041 9.472C291.54 9.472 291.108 9.70133 290.745 10.16C290.393 10.608 290.217 11.2427 290.217 12.064C290.217 12.9067 290.372 13.552 290.681 14C290.99 14.448 291.428 14.672 291.993 14.672ZM300.016 16.192C299.483 16.192 298.95 16.0907 298.416 15.888C297.883 15.6747 297.424 15.4133 297.04 15.104L297.904 13.92C298.256 14.1867 298.608 14.4 298.96 14.56C299.312 14.72 299.686 14.8 300.08 14.8C300.507 14.8 300.822 14.7093 301.024 14.528C301.227 14.3467 301.328 14.1227 301.328 13.856C301.328 13.632 301.243 13.4507 301.072 13.312C300.912 13.1627 300.704 13.0347 300.448 12.928C300.192 12.8107 299.926 12.6987 299.648 12.592C299.307 12.464 298.966 12.3093 298.624 12.128C298.294 11.936 298.022 11.696 297.808 11.408C297.595 11.1093 297.488 10.7413 297.488 10.304C297.488 9.61067 297.744 9.04533 298.256 8.608C298.768 8.17067 299.462 7.952 300.336 7.952C300.891 7.952 301.387 8.048 301.824 8.24C302.262 8.432 302.64 8.65067 302.96 8.896L302.112 10.016C301.835 9.81333 301.552 9.65333 301.264 9.536C300.987 9.408 300.694 9.344 300.384 9.344C299.99 9.344 299.696 9.42933 299.504 9.6C299.312 9.76 299.216 9.96267 299.216 10.208C299.216 10.5173 299.376 10.752 299.696 10.912C300.016 11.072 300.39 11.2267 300.816 11.376C301.179 11.504 301.531 11.664 301.872 11.856C302.214 12.0373 302.496 12.2773 302.72 12.576C302.955 12.8747 303.072 13.2693 303.072 13.76C303.072 14.432 302.811 15.008 302.288 15.488C301.766 15.9573 301.008 16.192 300.016 16.192Z" fill="black"/>
</svg>
