<svg width="27" height="36" viewBox="0 0 27 36" fill="none" xmlns="http://www.w3.org/2000/svg">
<path d="M4.905 27H5.745V34H4.905V30.67H1.44V34H0.6V27H1.44V29.83H4.905V27ZM9.09883 34.13C8.63883 34.13 8.21883 34.0117 7.83883 33.775C7.46216 33.5383 7.16049 33.2217 6.93383 32.825C6.71049 32.425 6.59883 31.9833 6.59883 31.5C6.59883 31.1333 6.66383 30.7917 6.79383 30.475C6.92383 30.155 7.10216 29.875 7.32883 29.635C7.55883 29.3917 7.82549 29.2017 8.12883 29.065C8.43216 28.9283 8.75549 28.86 9.09883 28.86C9.55883 28.86 9.97716 28.9783 10.3538 29.215C10.7338 29.4517 11.0355 29.77 11.2588 30.17C11.4855 30.57 11.5988 31.0133 11.5988 31.5C11.5988 31.8633 11.5338 32.2033 11.4038 32.52C11.2738 32.8367 11.0938 33.1167 10.8638 33.36C10.6372 33.6 10.3722 33.7883 10.0688 33.925C9.76883 34.0617 9.44549 34.13 9.09883 34.13ZM9.09883 33.29C9.41216 33.29 9.69383 33.2083 9.94383 33.045C10.1972 32.8783 10.3955 32.66 10.5388 32.39C10.6855 32.1167 10.7588 31.82 10.7588 31.5C10.7588 31.1733 10.6838 30.8733 10.5338 30.6C10.3872 30.3267 10.1888 30.1083 9.93883 29.945C9.68883 29.7817 9.40883 29.7 9.09883 29.7C8.78549 29.7 8.50383 29.7833 8.25383 29.95C8.00383 30.1133 7.80549 30.3317 7.65883 30.605C7.51216 30.8783 7.43883 31.1767 7.43883 31.5C7.43883 31.8333 7.51383 32.1367 7.66383 32.41C7.81383 32.68 8.01549 32.895 8.26883 33.055C8.52216 33.2117 8.79883 33.29 9.09883 33.29ZM12.4262 34V29H13.2662V29.625C13.4428 29.3917 13.6645 29.2067 13.9312 29.07C14.2012 28.93 14.4945 28.86 14.8112 28.86C15.1812 28.86 15.5195 28.95 15.8262 29.13C16.1328 29.31 16.3745 29.5483 16.5512 29.845C16.7278 29.5483 16.9678 29.31 17.2712 29.13C17.5778 28.95 17.9145 28.86 18.2812 28.86C18.6578 28.86 18.9995 28.9517 19.3062 29.135C19.6128 29.315 19.8562 29.5583 20.0362 29.865C20.2195 30.1717 20.3112 30.5133 20.3112 30.89V34H19.4712V31.09C19.4712 30.8433 19.4112 30.615 19.2912 30.405C19.1712 30.195 19.0095 30.0267 18.8062 29.9C18.6028 29.7733 18.3778 29.71 18.1312 29.71C17.8845 29.71 17.6595 29.77 17.4562 29.89C17.2528 30.0067 17.0912 30.17 16.9712 30.38C16.8512 30.5867 16.7912 30.8233 16.7912 31.09V34H15.9512V31.09C15.9512 30.8233 15.8912 30.5867 15.7712 30.38C15.6512 30.17 15.4878 30.0067 15.2812 29.89C15.0778 29.77 14.8528 29.71 14.6062 29.71C14.3628 29.71 14.1378 29.7733 13.9312 29.9C13.7278 30.0267 13.5662 30.195 13.4462 30.405C13.3262 30.615 13.2662 30.8433 13.2662 31.09V34H12.4262ZM23.4152 34.13C22.9552 34.13 22.5352 34.0117 22.1552 33.775C21.7786 33.5383 21.4769 33.2217 21.2502 32.825C21.0269 32.425 20.9152 31.9833 20.9152 31.5C20.9152 31.1333 20.9802 30.7917 21.1102 30.475C21.2402 30.155 21.4186 29.875 21.6452 29.635C21.8752 29.3917 22.1419 29.2017 22.4452 29.065C22.7486 28.9283 23.0719 28.86 23.4152 28.86C23.7919 28.86 24.1369 28.9367 24.4502 29.09C24.7669 29.24 25.0369 29.45 25.2602 29.72C25.4869 29.99 25.6552 30.3033 25.7652 30.66C25.8786 31.0167 25.9202 31.3983 25.8902 31.805H21.8102C21.8502 32.0883 21.9436 32.3417 22.0902 32.565C22.2369 32.785 22.4236 32.96 22.6502 33.09C22.8802 33.22 23.1352 33.2867 23.4152 33.29C23.7152 33.29 23.9869 33.2133 24.2302 33.06C24.4736 32.9033 24.6702 32.69 24.8202 32.42L25.6752 32.62C25.4752 33.0633 25.1736 33.4267 24.7702 33.71C24.3669 33.99 23.9152 34.13 23.4152 34.13ZM21.7852 31.145H25.0452C25.0186 30.865 24.9286 30.61 24.7752 30.38C24.6219 30.1467 24.4269 29.96 24.1902 29.82C23.9536 29.68 23.6952 29.61 23.4152 29.61C23.1352 29.61 22.8786 29.6783 22.6452 29.815C22.4119 29.9517 22.2186 30.1367 22.0652 30.37C21.9152 30.6 21.8219 30.8583 21.7852 31.145Z" fill="#8391A1"/>
<path d="M20.1667 6.66643L15.1667 2.28309C14.7084 1.87313 14.115 1.64648 13.5001 1.64648C12.8851 1.64648 12.2918 1.87313 11.8334 2.28309L6.83341 6.66643C6.56872 6.90316 6.3575 7.19356 6.21381 7.5183C6.07012 7.84304 5.99726 8.19466 6.00008 8.54976V15.8331C6.00008 16.4961 6.26347 17.132 6.73231 17.6009C7.20115 18.0697 7.83704 18.3331 8.50008 18.3331H18.5001C19.1631 18.3331 19.799 18.0697 20.2678 17.6009C20.7367 17.132 21.0001 16.4961 21.0001 15.8331V8.54143C21.0017 8.18773 20.9283 7.83771 20.7846 7.5145C20.641 7.19128 20.4304 6.90222 20.1667 6.66643ZM15.1667 16.6664H11.8334V12.4998C11.8334 12.2787 11.9212 12.0668 12.0775 11.9105C12.2338 11.7542 12.4457 11.6664 12.6667 11.6664H14.3334C14.5544 11.6664 14.7664 11.7542 14.9227 11.9105C15.0789 12.0668 15.1667 12.2787 15.1667 12.4998V16.6664ZM19.3334 15.8331C19.3334 16.0541 19.2456 16.2661 19.0893 16.4223C18.9331 16.5786 18.7211 16.6664 18.5001 16.6664H16.8334V12.4998C16.8334 11.8367 16.57 11.2008 16.1012 10.732C15.6323 10.2632 14.9965 9.99976 14.3334 9.99976H12.6667C12.0037 9.99976 11.3678 10.2632 10.899 10.732C10.4301 11.2008 10.1667 11.8367 10.1667 12.4998V16.6664H8.50008C8.27907 16.6664 8.0671 16.5786 7.91082 16.4223C7.75454 16.2661 7.66675 16.0541 7.66675 15.8331V8.54143C7.6669 8.42311 7.69224 8.30617 7.74109 8.19841C7.78995 8.09065 7.86119 7.99452 7.95008 7.91643L12.9501 3.54143C13.1022 3.40783 13.2977 3.33415 13.5001 3.33415C13.7025 3.33415 13.898 3.40783 14.0501 3.54143L19.0501 7.91643C19.139 7.99452 19.2102 8.09065 19.2591 8.19841C19.3079 8.30617 19.3333 8.42311 19.3334 8.54143V15.8331Z" fill="#8391A1"/>
</svg>
