<svg width="28" height="36" viewBox="0 0 28 36" fill="none" xmlns="http://www.w3.org/2000/svg">
<path d="M0.6 34V27H2.91C3.28667 27 3.625 27.0917 3.925 27.275C4.22833 27.4583 4.46833 27.7067 4.645 28.02C4.825 28.33 4.915 28.6767 4.915 29.06C4.915 29.45 4.82333 29.8017 4.64 30.115C4.46 30.425 4.21667 30.6717 3.91 30.855C3.60667 31.035 3.27333 31.125 2.91 31.125H1.44V34H0.6ZM1.44 30.285H2.835C3.06167 30.285 3.26833 30.23 3.455 30.12C3.645 30.0067 3.795 29.855 3.905 29.665C4.01833 29.4717 4.075 29.255 4.075 29.015C4.075 28.7717 4.01833 28.555 3.905 28.365C3.795 28.1717 3.645 28.02 3.455 27.91C3.26833 27.7967 3.06167 27.74 2.835 27.74H1.44V30.285ZM5.77578 34V29H6.61578V29.625C6.79245 29.3917 7.01578 29.2067 7.28578 29.07C7.55578 28.93 7.84911 28.86 8.16578 28.86C8.35911 28.86 8.54578 28.885 8.72578 28.935L8.38578 29.775C8.24911 29.7317 8.11578 29.71 7.98578 29.71C7.73578 29.71 7.50578 29.7717 7.29578 29.895C7.08911 30.015 6.92411 30.1783 6.80078 30.385C6.67745 30.5917 6.61578 30.8217 6.61578 31.075V34H5.77578ZM11.2863 34.13C10.8263 34.13 10.4063 34.0117 10.0263 33.775C9.64966 33.5383 9.34799 33.2217 9.12133 32.825C8.89799 32.425 8.78633 31.9833 8.78633 31.5C8.78633 31.1333 8.85133 30.7917 8.98133 30.475C9.11133 30.155 9.28966 29.875 9.51633 29.635C9.74633 29.3917 10.013 29.2017 10.3163 29.065C10.6197 28.9283 10.943 28.86 11.2863 28.86C11.7463 28.86 12.1647 28.9783 12.5413 29.215C12.9213 29.4517 13.223 29.77 13.4463 30.17C13.673 30.57 13.7863 31.0133 13.7863 31.5C13.7863 31.8633 13.7213 32.2033 13.5913 32.52C13.4613 32.8367 13.2813 33.1167 13.0513 33.36C12.8247 33.6 12.5597 33.7883 12.2563 33.925C11.9563 34.0617 11.633 34.13 11.2863 34.13ZM11.2863 33.29C11.5997 33.29 11.8813 33.2083 12.1313 33.045C12.3847 32.8783 12.583 32.66 12.7263 32.39C12.873 32.1167 12.9463 31.82 12.9463 31.5C12.9463 31.1733 12.8713 30.8733 12.7213 30.6C12.5747 30.3267 12.3763 30.1083 12.1263 29.945C11.8763 29.7817 11.5963 29.7 11.2863 29.7C10.973 29.7 10.6913 29.7833 10.4413 29.95C10.1913 30.1133 9.99299 30.3317 9.84633 30.605C9.69966 30.8783 9.62633 31.1767 9.62633 31.5C9.62633 31.8333 9.70133 32.1367 9.85133 32.41C10.0013 32.68 10.203 32.895 10.4563 33.055C10.7097 33.2117 10.9863 33.29 11.2863 33.29ZM15.817 27.765V29H17.282V29.84H15.817V34H14.977V29.84H14.332V29H14.977V27.765C14.977 27.5083 15.0387 27.2767 15.162 27.07C15.2887 26.86 15.457 26.6933 15.667 26.57C15.8804 26.4433 16.1137 26.38 16.367 26.38C16.5537 26.38 16.7354 26.4183 16.912 26.495C17.0887 26.5683 17.2454 26.6783 17.382 26.825L16.782 27.42C16.7354 27.3567 16.6737 27.3083 16.597 27.275C16.5237 27.2383 16.447 27.22 16.367 27.22C16.217 27.22 16.087 27.2733 15.977 27.38C15.8704 27.4867 15.817 27.615 15.817 27.765ZM18.0512 29H18.8912V34H18.0512V29ZM18.4812 28.185C18.3478 28.185 18.2362 28.1417 18.1462 28.055C18.0562 27.9683 18.0112 27.86 18.0112 27.73C18.0112 27.6 18.0562 27.4917 18.1462 27.405C18.2362 27.3183 18.3462 27.275 18.4762 27.275C18.6062 27.275 18.7162 27.3183 18.8062 27.405C18.8962 27.4917 18.9412 27.6 18.9412 27.73C18.9412 27.86 18.8962 27.9683 18.8062 28.055C18.7195 28.1417 18.6112 28.185 18.4812 28.185ZM20.1215 34V26.5H20.9615V34H20.1215ZM24.3137 34.13C23.8537 34.13 23.4337 34.0117 23.0537 33.775C22.677 33.5383 22.3753 33.2217 22.1487 32.825C21.9253 32.425 21.8137 31.9833 21.8137 31.5C21.8137 31.1333 21.8787 30.7917 22.0087 30.475C22.1387 30.155 22.317 29.875 22.5437 29.635C22.7737 29.3917 23.0403 29.2017 23.3437 29.065C23.647 28.9283 23.9703 28.86 24.3137 28.86C24.6903 28.86 25.0353 28.9367 25.3487 29.09C25.6653 29.24 25.9353 29.45 26.1587 29.72C26.3853 29.99 26.5537 30.3033 26.6637 30.66C26.777 31.0167 26.8187 31.3983 26.7887 31.805H22.7087C22.7487 32.0883 22.842 32.3417 22.9887 32.565C23.1353 32.785 23.322 32.96 23.5487 33.09C23.7787 33.22 24.0337 33.2867 24.3137 33.29C24.6137 33.29 24.8853 33.2133 25.1287 33.06C25.372 32.9033 25.5687 32.69 25.7187 32.42L26.5737 32.62C26.3737 33.0633 26.072 33.4267 25.6687 33.71C25.2653 33.99 24.8137 34.13 24.3137 34.13ZM22.6837 31.145H25.9437C25.917 30.865 25.827 30.61 25.6737 30.38C25.5203 30.1467 25.3253 29.96 25.0887 29.82C24.852 29.68 24.5937 29.61 24.3137 29.61C24.0337 29.61 23.777 29.6783 23.5437 29.815C23.3103 29.9517 23.117 30.1367 22.9637 30.37C22.8137 30.6 22.7203 30.8583 22.6837 31.145Z" fill="#8391A1"/>
<g clip-path="url(#clip0_1978_415)">
<path fill-rule="evenodd" clip-rule="evenodd" d="M18.0832 5.99998C18.0832 3.79398 16.2522 1.99998 14.0002 1.99998C11.7482 1.99998 9.91718 3.79398 9.91718 5.99998C9.91718 8.20599 11.7482 9.99998 14.0002 9.99998C16.2522 9.99998 18.0832 8.20599 18.0832 5.99998ZM21.9462 20H20.1252C19.9925 20.0014 19.8608 19.9767 19.7376 19.9272C19.6145 19.8777 19.5022 19.8045 19.4074 19.7117C19.3126 19.6188 19.237 19.5081 19.185 19.386C19.1329 19.2639 19.1055 19.1327 19.1042 19C19.1042 18.448 19.5612 18 20.1242 18H20.5632C21.2692 18 21.7912 17.303 21.5232 16.662C20.2872 13.698 17.3832 12 14.0002 12C10.6162 12 7.71317 13.698 6.47717 16.662C6.20917 17.303 6.7312 18 7.4372 18H7.87518C8.43918 18 8.89618 18.448 8.89618 19C8.89618 19.552 8.43919 20 7.87619 20H6.05417C4.77817 20 3.77419 18.857 4.04419 17.636C4.78719 14.277 7.10819 11.798 10.1642 10.673C8.77019 9.57396 7.87518 7.88998 7.87518 5.99998C7.87518 2.44898 11.0232 -0.381023 14.7342 0.0419769C17.4232 0.347977 19.6502 2.44693 20.0542 5.06993C20.4002 7.33093 19.4562 9.39596 17.8362 10.673C20.8922 11.798 23.2132 14.277 23.9562 17.636C24.2262 18.857 23.2222 20 21.9462 20ZM17.0622 19C17.0622 19.552 16.6052 20 16.0422 20H11.9582C11.8256 20.0013 11.6939 19.9765 11.5709 19.927C11.4478 19.8774 11.3358 19.8041 11.2411 19.7113C11.1463 19.6184 11.0709 19.5078 11.0189 19.3857C10.9669 19.2637 10.9395 19.1326 10.9382 19C10.9382 18.448 11.3952 18 11.9582 18H16.0422C16.6052 18 17.0622 18.448 17.0622 19Z" fill="#8391A1"/>
</g>
<defs>
<clipPath id="clip0_1978_415">
<rect width="20" height="20" fill="white" transform="translate(4)"/>
</clipPath>
</defs>
</svg>
