<svg width="33" height="50" viewBox="0 0 33 50" fill="none" xmlns="http://www.w3.org/2000/svg">
<g clip-path="url(#clip0_8597_1114)">
<path fill-rule="evenodd" clip-rule="evenodd" d="M5.50783 4.77291H9.12289L8.96566 6.20095H6.53434C5.85361 6.20095 5.26205 6.77673 5.26205 7.43804V28.1944C5.26205 28.8522 5.83554 29.4327 6.53434 29.4327H17.5434C17.7259 29.8761 17.9566 30.2955 18.2283 30.685H5.50783C4.68434 30.685 4 30.026 4 29.2195V6.23902C4 5.43245 4.67831 4.77291 5.50783 4.77291ZM10.8211 13.6258H8.47711V10.0657H9.6494V12.7144H10.8211V13.6258ZM11.1434 11.8487C11.1434 11.1991 11.2681 10.7252 11.5181 10.4271C11.7681 10.1289 12.2193 9.97958 12.8717 9.97958C13.5235 9.97958 13.9747 10.1289 14.2253 10.4271C14.4747 10.7252 14.6 11.1991 14.6 11.8487C14.6 12.1714 14.5735 12.4426 14.5211 12.6629C14.4681 12.8831 14.3771 13.0752 14.2482 13.2387C14.1199 13.4015 13.9416 13.5216 13.7151 13.5971C13.4886 13.6733 13.2072 13.7113 12.8717 13.7113C12.5355 13.7113 12.2542 13.6733 12.0277 13.5971C11.8012 13.5216 11.6235 13.4015 11.4946 13.2387C11.3657 13.0752 11.2747 12.8831 11.2223 12.6629C11.1693 12.4426 11.1434 12.1714 11.1434 11.8487ZM12.403 11.2559V12.7373H12.8892C13.0494 12.7373 13.1651 12.7191 13.2373 12.6828C13.3102 12.6471 13.3464 12.5639 13.3464 12.435V10.9543H12.8542C12.6976 10.9543 12.5831 10.9724 12.5114 11.0081C12.4392 11.0445 12.403 11.1265 12.403 11.2559ZM16.059 13.6258H14.8229L15.7717 10.0657H17.5819L18.5313 13.6258H17.2952L17.1602 13.0618H16.1934L16.059 13.6258ZM16.5193 11.0825L16.3259 12.2323H17.0217L16.8349 11.0825H16.5193ZM21.0801 13.6258L20.1831 12.3612C20.1524 12.3196 20.1325 12.2282 20.1247 12.0877H20.1018V13.6258H18.9295V10.0657H20.0313L20.9277 11.3303C20.959 11.3719 20.9783 11.4627 20.9861 11.6038H21.0096V10.0657H22.1813V13.6258H21.0801ZM25.3928 20.5657V7.43804C25.3928 6.75916 24.8006 6.20095 24.1199 6.20095H21.5355V4.77291H25.1506C25.9801 4.77291 26.6584 5.43948 26.6584 6.23902V20.9869C26.2519 20.8061 25.8279 20.6651 25.3928 20.5657ZM8.51747 26.6223C8.2253 26.6223 7.98735 26.3915 7.98735 26.1068C7.98735 25.8228 8.2253 25.592 8.51747 25.592H17.2139C17.1392 25.927 17.0916 26.2708 17.0717 26.6223H8.51747ZM8.51747 23.5085C8.2253 23.5085 7.98735 23.2777 7.98735 22.993C7.98735 22.7089 8.2253 22.4782 8.51747 22.4782H18.8946C18.5893 22.7948 18.3169 23.1399 18.0813 23.5085H8.51747ZM8.51747 20.3947C8.2253 20.3947 7.98735 20.1639 7.98735 19.8798C7.98735 19.5957 8.2253 19.3649 8.51747 19.3649H19.309C19.6012 19.3649 19.8386 19.5957 19.8386 19.8798C19.8386 20.1639 19.6012 20.3947 19.309 20.3947H8.51747ZM8.51747 17.2809C8.2253 17.2809 7.98735 17.0501 7.98735 16.766C7.98735 16.4819 8.2253 16.2511 8.51747 16.2511H22.1416C22.4337 16.2511 22.6711 16.4819 22.6711 16.766C22.6711 17.0501 22.4337 17.2809 22.1416 17.2809H8.51747ZM11.2108 4.04717H12.9193C13.0633 2.89267 14.0217 2 15.1837 2C16.338 2 17.2922 2.88096 17.4464 4.02316L19.4458 4.04717C19.5855 4.04717 19.6976 4.15612 19.6976 4.29143V6.91673C19.6976 7.05203 19.5855 7.16098 19.4458 7.16098H11.2127C11.0765 7.16098 10.9614 7.05203 10.9614 6.91673V4.29143C10.959 4.15612 11.0711 4.04717 11.2108 4.04717ZM14.2482 5.05114C14.4024 5.25673 14.6235 5.45998 14.8578 5.56425C15.0494 5.62048 15.2584 5.62516 15.4518 5.57362C15.7566 5.43831 16.0349 5.11205 16.1645 4.83851C16.1789 4.76119 16.1898 4.68153 16.1898 4.59426C16.1898 4.01554 15.7337 3.54636 15.1711 3.54636C14.609 3.54636 14.153 4.01554 14.153 4.59426C14.1566 4.76822 14.188 4.92286 14.2482 5.05114Z" fill="#A1BBFE"/>
<path fill-rule="evenodd" clip-rule="evenodd" d="M23.8449 21.9736C26.6931 21.9736 29.0003 24.2188 29.0003 26.9864C29.0003 29.7558 26.6919 31.9998 23.8449 31.9998C20.9967 31.9998 18.6895 29.7546 18.6895 26.9864C18.6895 24.217 20.9979 21.9736 23.8449 21.9736Z" fill="#A1BBFE"/>
<path fill-rule="evenodd" clip-rule="evenodd" d="M22.2441 26.1902L23.158 27.0296L25.3176 24.901C25.4965 24.7247 25.6086 24.5829 25.829 24.8038L26.5453 25.5172C26.7802 25.7427 26.7682 25.8757 26.5465 26.086L23.5664 28.9368C23.0989 29.3825 23.1802 29.4095 22.7061 28.952L21.0387 27.34C20.9399 27.2363 20.9507 27.1309 21.0586 27.0272L21.8899 26.189C22.0158 26.0602 22.1164 26.0713 22.2441 26.1902Z" fill="white"/>
</g>
<path d="M5.25773 47V39.128H6.25373V46.148H9.69773V47H5.25773ZM13.125 47.144C12.653 47.144 12.209 47.024 11.793 46.784C11.385 46.544 11.053 46.196 10.797 45.74C10.549 45.284 10.425 44.736 10.425 44.096C10.425 43.44 10.549 42.884 10.797 42.428C11.053 41.972 11.385 41.624 11.793 41.384C12.209 41.144 12.653 41.024 13.125 41.024C13.605 41.024 14.049 41.144 14.457 41.384C14.865 41.624 15.193 41.972 15.441 42.428C15.697 42.884 15.825 43.44 15.825 44.096C15.825 44.736 15.697 45.284 15.441 45.74C15.193 46.196 14.865 46.544 14.457 46.784C14.049 47.024 13.605 47.144 13.125 47.144ZM13.125 46.328C13.629 46.328 14.033 46.124 14.337 45.716C14.649 45.3 14.805 44.76 14.805 44.096C14.805 43.424 14.649 42.88 14.337 42.464C14.033 42.048 13.629 41.84 13.125 41.84C12.629 41.84 12.225 42.048 11.913 42.464C11.601 42.88 11.445 43.424 11.445 44.096C11.445 44.76 11.601 45.3 11.913 45.716C12.225 46.124 12.629 46.328 13.125 46.328ZM18.5409 47.144C18.0529 47.144 17.6449 47 17.3169 46.712C16.9969 46.416 16.8369 46.008 16.8369 45.488C16.8369 44.848 17.1209 44.36 17.6889 44.024C18.2649 43.68 19.1729 43.44 20.4129 43.304C20.4129 43.056 20.3769 42.82 20.3049 42.596C20.2409 42.372 20.1209 42.192 19.9449 42.056C19.7769 41.912 19.5329 41.84 19.2129 41.84C18.8769 41.84 18.5609 41.904 18.2649 42.032C17.9689 42.16 17.7049 42.304 17.4729 42.464L17.0889 41.78C17.3609 41.604 17.6929 41.436 18.0849 41.276C18.4849 41.108 18.9169 41.024 19.3809 41.024C20.0929 41.024 20.6089 41.244 20.9289 41.684C21.2489 42.116 21.4089 42.696 21.4089 43.424V47H20.5929L20.5089 46.304H20.4729C20.2009 46.528 19.9009 46.724 19.5729 46.892C19.2529 47.06 18.9089 47.144 18.5409 47.144ZM18.8289 46.352C19.1089 46.352 19.3729 46.284 19.6209 46.148C19.8689 46.012 20.1329 45.82 20.4129 45.572V43.952C19.4449 44.072 18.7649 44.252 18.3729 44.492C17.9889 44.732 17.7969 45.04 17.7969 45.416C17.7969 45.744 17.8969 45.984 18.0969 46.136C18.2969 46.28 18.5409 46.352 18.8289 46.352ZM23.2438 47V41.168H24.0598L24.1438 42.008H24.1798C24.4598 41.728 24.7558 41.496 25.0678 41.312C25.3798 41.12 25.7358 41.024 26.1358 41.024C26.7518 41.024 27.1998 41.22 27.4798 41.612C27.7678 41.996 27.9118 42.56 27.9118 43.304V47H26.9278V43.436C26.9278 42.892 26.8398 42.496 26.6638 42.248C26.4878 42 26.2078 41.876 25.8238 41.876C25.5278 41.876 25.2598 41.952 25.0198 42.104C24.7878 42.256 24.5238 42.48 24.2278 42.776V47H23.2438Z" fill="#606060"/>
<defs>
<clipPath id="clip0_8597_1114">
<rect width="25" height="30" fill="white" transform="translate(4 2)"/>
</clipPath>
</defs>
</svg>
