<svg width="168" height="123" viewBox="0 0 168 123" fill="none" xmlns="http://www.w3.org/2000/svg">
<g opacity="0.3">
<path opacity="0.0323" d="M153.29 47.7242C152.449 47.7242 151.629 47.7937 150.829 47.9191C150.033 36.8459 140.114 28.0895 127.984 28.0895C124.398 28.0895 121.012 28.8509 117.99 30.2158C115.899 25.884 111.217 22.8663 105.77 22.8663C103.069 22.8663 100.558 23.6138 98.4571 24.8906C92.7748 16.9978 83.0958 11.8025 72.1014 11.8025C58.2658 11.8025 46.5059 20.0388 42.1942 31.5205C39.8282 30.9448 37.3423 30.6337 34.7811 30.6337C18.7195 30.6337 5.69922 42.719 5.69922 57.6271C5.69922 72.5353 18.7195 84.6206 34.7811 84.6206C35.0856 84.6206 35.3883 84.6146 35.6905 84.6058C36.0017 84.6152 36.3138 84.6214 36.6275 84.6214C39.752 84.6214 42.7522 84.1527 45.5637 83.2981C48.0617 92.3155 56.8674 98.9855 67.3644 98.9855C70.5358 98.9855 73.5538 98.3757 76.2907 97.277C80.4035 95.8633 83.9352 93.3563 86.4635 90.1407C88.8533 91.5558 91.6913 92.3741 94.7355 92.3741C96.8621 92.3741 98.8876 91.9739 100.73 91.2507C104.291 90.0132 107.206 87.5727 108.892 84.4695C112.591 89.2565 118.635 92.3741 125.463 92.3741C136.695 92.3741 145.805 83.947 145.85 73.5317C147.903 74.5753 150.266 75.1712 152.778 75.1712C155.491 75.1712 158.029 74.4779 160.193 73.2742C164.791 70.9857 167.92 66.4835 167.92 61.2997C167.921 53.8017 161.368 47.7242 153.29 47.7242Z" fill="#00265E"/>
<path opacity="0.0645" d="M153.199 47.4501C152.358 47.4501 151.537 47.52 150.736 47.6458C149.941 36.536 140.015 27.7506 127.877 27.7506C124.288 27.7506 120.899 28.5147 117.876 29.8841C115.783 25.538 111.098 22.5101 105.647 22.5101C102.944 22.5101 100.432 23.26 98.3291 24.541C92.643 16.6219 82.9572 11.4094 71.9554 11.4094C58.1103 11.4094 46.3424 19.6731 42.0278 31.1928C39.6601 30.6153 37.1724 30.303 34.6097 30.303C18.5371 30.303 5.50781 42.4284 5.50781 57.3859C5.50781 72.3435 18.5371 84.4688 34.6097 84.4688C34.9144 84.4688 35.2175 84.4629 35.5198 84.4541C35.8313 84.4635 36.1435 84.4696 36.4574 84.4696C39.5841 84.4696 42.5863 83.9995 45.3998 83.142C47.8996 92.189 56.7113 98.8812 67.2153 98.8812C70.3889 98.8812 73.4088 98.2692 76.1477 97.1669C80.2635 95.7486 83.7974 93.2331 86.3275 90.0069C88.7189 91.4268 91.5589 92.2478 94.6051 92.2478C96.733 92.2478 98.7599 91.8463 100.604 91.1207C104.166 89.879 107.084 87.4306 108.771 84.317C112.473 89.1197 118.521 92.2478 125.354 92.2478C136.593 92.2478 145.71 83.7929 145.755 73.3429C147.808 74.3901 150.173 74.9878 152.687 74.9878C155.402 74.9878 157.942 74.2923 160.108 73.0846C164.709 70.7885 167.84 66.2713 167.84 61.0703C167.84 53.5477 161.283 47.4501 153.199 47.4501Z" fill="#00265E"/>
<path opacity="0.0968" d="M153.11 47.1752C152.269 47.1752 151.447 47.2454 150.646 47.3715C149.849 36.225 139.917 27.4106 127.77 27.4106C124.179 27.4106 120.788 28.177 117.763 29.5511C115.669 25.1906 110.981 22.1527 105.526 22.1527C102.821 22.1527 100.307 22.9052 98.2028 24.1904C92.5127 16.2452 82.8206 11.0154 71.811 11.0154C57.9565 11.0154 46.1807 19.3063 41.863 30.8641C39.4937 30.2846 37.0045 29.9715 34.4399 29.9715C18.3564 29.9715 5.31836 42.137 5.31836 57.1437C5.31836 72.1507 18.3564 84.3161 34.4399 84.3161C34.7448 84.3161 35.0481 84.3101 35.3506 84.3014C35.6623 84.3107 35.9748 84.3171 36.2889 84.3171C39.4176 84.3171 42.422 83.8454 45.2373 82.9851C47.7387 92.062 56.5563 98.7763 67.0677 98.7763C70.2433 98.7763 73.2654 98.1623 76.0063 97.0565C80.1249 95.6334 83.6613 93.1097 86.193 89.8727C88.586 91.2972 91.428 92.121 94.4764 92.121C96.606 92.121 98.6342 91.7183 100.479 90.9903C104.044 89.7444 106.963 87.288 108.652 84.1641C112.357 88.9827 118.408 92.121 125.246 92.121C136.493 92.121 145.616 83.6382 145.661 73.1537C147.716 74.2043 150.083 74.804 152.598 74.804C155.315 74.804 157.857 74.1061 160.024 72.8944C164.628 70.5907 167.761 66.0586 167.761 60.8404C167.761 53.293 161.2 47.1752 153.11 47.1752Z" fill="#00265E"/>
<path opacity="0.129" d="M153.021 46.9011C152.179 46.9011 151.357 46.9715 150.555 47.098C149.758 35.9149 139.819 27.0713 127.664 27.0713C124.07 27.0713 120.677 27.8403 117.649 29.2188C115.554 24.8439 110.863 21.7961 105.405 21.7961C102.698 21.7961 100.182 22.551 98.0765 23.8405C92.3826 15.8692 82.6837 10.6223 71.6668 10.6223C57.8029 10.6223 46.0189 18.9406 41.6985 30.5364C39.3276 29.9551 36.8366 29.6409 34.2702 29.6409C18.1757 29.6409 5.12891 41.8463 5.12891 56.9025C5.12891 71.9589 18.1759 84.1644 34.2702 84.1644C34.5753 84.1644 34.8788 84.1584 35.1815 84.1496C35.4934 84.159 35.8061 84.1654 36.1205 84.1654C39.2515 84.1654 42.2579 83.6921 45.0751 82.829C47.5783 91.9358 56.4019 98.6722 66.9203 98.6722C70.098 98.6722 73.1222 98.0562 75.8649 96.9468C79.9863 95.5191 83.5251 92.987 86.0584 89.7395C88.4532 91.1688 91.2969 91.9952 94.3474 91.9952C96.4783 91.9952 98.508 91.591 100.354 90.8607C103.922 89.6108 106.843 87.1462 108.533 84.0119C112.24 88.8463 118.296 91.9952 125.138 91.9952C136.393 91.9952 145.522 83.4844 145.567 72.9655C147.623 74.0195 149.991 74.6213 152.508 74.6213C155.228 74.6213 157.771 73.9213 159.939 72.7056C164.547 70.3944 167.682 65.8473 167.682 60.612C167.682 53.0388 161.116 46.9011 153.021 46.9011Z" fill="#00265E"/>
<path opacity="0.1613" d="M152.93 46.6268C152.088 46.6268 151.265 46.6974 150.463 46.8243C149.665 35.6045 139.719 26.732 127.556 26.732C123.96 26.732 120.564 27.5035 117.535 28.8867C115.438 24.4975 110.744 21.4397 105.282 21.4397C102.573 21.4397 100.055 22.1972 97.9485 23.4909C92.2506 15.4935 82.5453 10.2292 71.5208 10.2292C57.6474 10.2292 45.8556 18.5748 41.532 30.2087C39.1595 29.6254 36.6667 29.3102 34.0987 29.3102C17.9933 29.3102 4.9375 41.5557 4.9375 56.6613C4.9375 71.7671 17.9933 84.0124 34.0987 84.0124C34.404 84.0124 34.7077 84.0065 35.0106 83.9975C35.3227 84.0069 35.6356 84.0132 35.9503 84.0132C39.0834 84.0132 42.0918 83.5383 44.9108 82.6725C47.4156 91.8092 56.2454 98.5676 66.7709 98.5676C69.9509 98.5676 72.977 97.9497 75.7215 96.8365C79.8457 95.404 83.3869 92.8638 85.922 89.6055C88.3184 91.0393 91.1641 91.8686 94.2165 91.8686C96.3488 91.8686 98.3799 91.463 100.227 90.7303C103.797 89.4762 106.721 87.0037 108.411 83.8592C112.121 88.7095 118.181 91.8686 125.028 91.8686C136.29 91.8686 145.426 83.3299 145.471 72.7765C147.528 73.8341 149.898 74.4377 152.417 74.4377C155.138 74.4377 157.683 73.7354 159.853 72.5156C164.463 70.1968 167.601 65.635 167.601 60.3823C167.601 52.7847 161.031 46.6268 152.93 46.6268Z" fill="#00265E"/>
<path opacity="0.1935" d="M152.841 46.352C151.998 46.352 151.175 46.4227 150.372 46.5502C149.574 35.2936 139.621 26.3922 127.45 26.3922C123.851 26.3922 120.453 27.1662 117.422 28.5538C115.324 24.1503 110.626 21.0825 105.16 21.0825C102.45 21.0825 99.93 21.8424 97.822 23.1403C92.1203 15.1166 82.4083 9.83521 71.3764 9.83521C57.4936 9.83521 45.6937 18.2081 41.3672 29.8799C38.9932 29.2948 36.4988 28.9785 33.929 28.9785C17.8126 28.9785 4.74805 41.2641 4.74805 56.4191C4.74805 71.5744 17.8128 83.8597 33.929 83.8597C34.2345 83.8597 34.5384 83.8538 34.8415 83.8448C35.1538 83.8542 35.4671 83.8605 35.7817 83.8605C38.9168 83.8605 41.9274 83.384 44.7485 82.5154C47.255 91.682 56.0906 98.4626 66.6233 98.4626C69.8055 98.4626 72.8338 97.8426 75.5801 96.7258C79.707 95.2888 83.2507 92.7402 85.7875 89.4713C88.1855 90.91 91.0332 91.7418 94.0878 91.7418C96.2218 91.7418 98.2541 91.335 100.103 90.5999C103.675 89.3418 106.6 86.8611 108.292 83.7063C112.004 88.5724 118.069 91.7418 124.92 91.7418C136.19 91.7418 145.332 83.1752 145.377 72.5873C147.436 73.6483 149.807 74.2539 152.328 74.2539C155.051 74.2539 157.597 73.5493 159.769 72.3257C164.383 69.9992 167.522 65.4225 167.522 60.1527C167.522 52.5301 160.947 46.352 152.841 46.352Z" fill="#00265E"/>
<path opacity="0.2258" d="M152.753 46.0779C151.909 46.0779 151.086 46.1488 150.282 46.2767C149.483 34.9834 139.524 26.0529 127.344 26.0529C123.743 26.0529 120.343 26.8296 117.309 28.2215C115.209 23.8036 110.508 20.7259 105.039 20.7259C102.327 20.7259 99.8055 21.4884 97.6959 22.7905C91.9905 14.7407 82.2718 9.44214 71.2324 9.44214C57.3402 9.44214 45.5323 17.8423 41.2029 29.5521C38.8272 28.9651 36.331 28.6478 33.7595 28.6478C17.6323 28.6478 4.55859 40.9734 4.55859 56.1779C4.55859 71.3826 17.6321 83.708 33.7595 83.708C34.0652 83.708 34.3693 83.702 34.6726 83.6931C34.9851 83.7026 35.2985 83.709 35.6134 83.709C38.7507 83.709 41.7633 83.2311 44.5861 82.3595C47.0943 91.556 55.9361 98.3587 66.4759 98.3587C69.6602 98.3587 72.6905 97.7367 75.4389 96.6161C79.5686 95.1743 83.1146 92.6175 85.6533 89.3379C88.0528 90.7811 90.9024 91.6157 93.9592 91.6157C96.0945 91.6157 98.1282 91.2076 99.9781 90.4701C103.553 89.2078 106.48 86.719 108.173 83.554C111.888 88.436 117.956 91.6157 124.812 91.6157C136.09 91.6157 145.238 83.0213 145.283 72.3987C147.344 73.4631 149.717 74.0707 152.239 74.0707C154.964 74.0707 157.512 73.3636 159.685 72.1361C164.302 69.8021 167.443 65.2104 167.443 59.9234C167.444 52.2761 160.864 46.0779 152.753 46.0779Z" fill="#00265E"/>
<path opacity="0.2581" d="M152.665 45.804C151.821 45.804 150.997 45.8753 150.193 46.0035C149.394 34.6734 139.427 25.7141 127.239 25.7141C123.636 25.7141 120.233 26.4931 117.198 27.8899C115.097 23.4576 110.392 20.3697 104.919 20.3697C102.205 20.3697 99.6824 21.1346 97.5714 22.4409C91.862 14.3649 82.1367 9.04907 71.0899 9.04907C57.1882 9.04907 45.3723 17.4765 41.0401 29.2245C38.6628 28.6354 36.165 28.3171 33.5917 28.3171C17.4536 28.3171 4.37109 40.6828 4.37109 55.9365C4.37109 71.1904 17.4536 83.5561 33.5917 83.5561C33.8976 83.5561 34.2019 83.5501 34.5054 83.5411C34.8181 83.5507 35.1318 83.5571 35.447 83.5571C38.5865 83.5571 41.6011 83.0776 44.4259 82.2031C46.9359 91.4295 55.7836 98.2542 66.3305 98.2542C69.517 98.2542 72.5493 97.63 75.2994 96.5061C79.4319 95.0597 82.9803 92.4943 85.5208 89.2041C87.9219 90.6521 90.7735 91.4893 93.8323 91.4893C95.969 91.4893 98.0042 91.0798 99.8552 90.3399C103.433 89.0736 106.362 86.5766 108.056 83.4012C111.773 88.2992 117.846 91.4891 124.706 91.4891C135.992 91.4891 145.146 82.8668 145.191 72.2097C147.253 73.2777 149.628 73.8871 152.151 73.8871C154.878 73.8871 157.428 73.1778 159.602 71.9461C164.223 69.6045 167.367 64.9979 167.367 59.6938C167.366 52.0224 160.782 45.804 152.665 45.804Z" fill="#00265E"/>
<path opacity="0.2903" d="M152.575 45.5291C151.73 45.5291 150.905 45.6007 150.101 45.7292C149.301 34.3625 139.328 25.3741 127.132 25.3741C123.526 25.3741 120.121 26.1557 117.083 27.5568C114.981 23.1102 110.273 20.0124 104.797 20.0124C102.081 20.0124 99.556 20.7796 97.4436 22.0903C91.7303 13.9883 81.9986 8.65527 70.9442 8.65527C57.033 8.65527 45.2092 17.11 40.8738 28.896C38.495 28.3051 35.9954 27.9857 33.4202 27.9857C17.2712 27.9857 4.17969 40.3912 4.17969 55.6945C4.17969 70.9979 17.271 83.4036 33.4202 83.4036C33.7263 83.4036 34.0308 83.3974 34.3345 83.3885C34.6474 83.398 34.9613 83.4044 35.2768 83.4044C38.4182 83.4044 41.435 82.9233 44.2616 82.0461C46.7732 91.3024 55.6269 98.1491 66.1811 98.1491C69.3696 98.1491 72.4041 97.523 75.1562 96.3954C79.2915 94.9443 82.8423 92.3707 85.3846 89.07C87.7873 90.5226 90.6409 91.3625 93.7016 91.3625C95.8398 91.3625 97.8764 90.9518 99.7288 90.2095C103.309 88.9391 106.24 86.4341 107.935 83.2486C111.655 88.1623 117.731 91.3628 124.597 91.3628C135.89 91.3628 145.05 82.7125 145.095 72.021C147.159 73.0923 149.535 73.7039 152.06 73.7039C154.789 73.7039 157.341 72.9923 159.517 71.7567C164.14 69.4076 167.286 64.786 167.286 59.4648C167.286 51.7677 160.697 45.5291 152.575 45.5291Z" fill="#00265E"/>
<path opacity="0.3226" d="M152.484 45.2551C151.639 45.2551 150.813 45.3268 150.008 45.456C149.208 34.0526 139.228 25.0351 127.024 25.0351C123.415 25.0351 120.008 25.8193 116.968 27.225C114.865 22.764 110.154 19.6562 104.673 19.6562C101.956 19.6562 99.4291 20.4261 97.3153 21.7409C91.5981 13.6128 81.8598 8.26245 70.7978 8.26245C56.8773 8.26245 45.0453 16.7445 40.7071 28.5686C38.3267 27.9757 35.8253 27.6554 33.2486 27.6554C17.0885 27.6554 3.98828 40.101 3.98828 55.4538C3.98828 70.8065 17.0885 83.2521 33.2486 83.2521C33.5549 83.2521 33.8596 83.2459 34.1635 83.237C34.4767 83.2465 34.7906 83.2531 35.1063 83.2531C38.25 83.2531 41.2687 82.7705 44.0973 81.8904C46.6107 91.1766 55.4704 98.0455 66.0317 98.0455C69.2225 98.0455 72.2589 97.4173 75.0128 96.286C79.1509 94.8302 82.7043 92.2483 85.248 88.9368C87.6525 90.3942 90.5078 91.2368 93.5708 91.2368C95.7105 91.2368 97.7484 90.8247 99.6019 90.0799C103.184 88.8053 106.117 86.2924 107.814 83.0965C111.536 88.0261 117.617 91.2368 124.487 91.2368C135.787 91.2368 144.954 82.5584 144.999 71.8324C147.064 72.9072 149.442 73.5207 151.969 73.5207C154.699 73.5207 157.253 72.8069 159.43 71.5672C164.056 69.2103 167.205 64.5739 167.205 59.2356C167.205 51.5138 160.612 45.2551 152.484 45.2551Z" fill="#00265E"/>
<path opacity="0.3548" d="M152.395 44.9805C151.549 44.9805 150.723 45.0524 149.917 45.182C149.117 33.742 139.13 24.6955 126.917 24.6955C123.306 24.6955 119.897 25.4821 116.855 26.8924C114.75 22.4171 110.036 19.2993 104.552 19.2993C101.833 19.2993 99.3042 20.0716 97.1891 21.3906C91.468 13.2364 81.7231 7.8689 70.6536 7.8689C56.7237 7.8689 44.8837 16.3783 40.5426 28.2404C38.1605 27.6457 35.6575 27.3243 33.079 27.3243C16.908 27.3243 3.79883 39.8099 3.79883 55.2121C3.79883 70.6142 16.9078 83.0999 33.079 83.0999C33.3855 83.0999 33.6904 83.0937 33.9947 83.0847C34.3082 83.0943 34.6223 83.1009 34.9381 83.1009C38.084 83.1009 41.1047 82.6166 43.9353 81.7338C46.4503 91.0499 55.3162 97.9409 65.8845 97.9409C69.0775 97.9409 72.1159 97.3107 74.8718 96.1758C79.0127 94.7153 82.5685 92.1252 85.1139 88.803C87.5201 90.2651 90.3774 91.1104 93.4423 91.1104C95.5834 91.1104 97.6227 90.6969 99.4776 89.9498C103.062 88.6712 105.997 86.1501 107.695 82.9438C111.42 87.8892 117.505 91.1103 124.379 91.1103C135.688 91.1103 144.86 82.404 144.906 71.6435C146.972 72.7218 149.351 73.3372 151.88 73.3372C154.613 73.3372 157.168 72.621 159.347 71.3775C163.976 69.0132 167.126 64.3617 167.126 59.0062C167.126 51.2591 160.528 44.9805 152.395 44.9805Z" fill="#00265E"/>
<path opacity="0.3871" d="M152.306 44.7063C151.46 44.7063 150.633 44.7785 149.827 44.9084C149.026 33.4317 139.032 24.3562 126.811 24.3562C123.198 24.3562 119.786 25.1453 116.742 26.56C114.636 22.0704 109.919 18.9425 104.431 18.9425C101.709 18.9425 99.1794 19.7173 97.0628 21.0405C91.3378 12.86 81.5863 7.47534 70.5094 7.47534C56.5699 7.47534 44.722 16.012 40.3778 27.9122C37.994 27.3155 35.4894 26.9931 32.9093 26.9931C16.7274 26.9931 3.60938 39.5188 3.60938 54.9704C3.60938 70.422 16.7274 82.9477 32.9093 82.9477C33.216 82.9477 33.5211 82.9415 33.8256 82.9325C34.1393 82.9421 34.4535 82.9487 34.7696 82.9487C37.9177 82.9487 40.9404 82.463 43.7728 81.5772C46.2895 90.9232 55.1612 97.8363 65.7369 97.8363C68.932 97.8363 71.9725 97.2041 74.7302 96.0654C78.8738 94.6003 82.432 92.0019 84.9793 88.6691C87.387 90.1358 90.2463 90.9839 93.3133 90.9839C95.4558 90.9839 97.4964 90.5692 99.3525 89.8197C102.94 88.5369 105.877 86.0079 107.576 82.7914C111.303 87.7528 117.392 90.9841 124.271 90.9841C135.587 90.9841 144.766 82.25 144.811 71.455C146.879 72.5367 149.26 73.1543 151.791 73.1543C154.525 73.1543 157.082 72.4359 159.262 71.1882C163.895 68.8161 167.047 64.1499 167.047 58.7773C167.047 51.0052 160.445 44.7063 152.306 44.7063Z" fill="#00265E"/>
<path opacity="0.4194" d="M152.216 44.4317C151.368 44.4317 150.541 44.5041 149.734 44.6344C148.933 33.1211 138.933 24.0164 126.703 24.0164C123.088 24.0164 119.673 24.8082 116.627 26.2275C114.519 21.7235 109.799 18.5856 104.308 18.5856C101.584 18.5856 99.0529 19.3628 96.9347 20.6904C91.206 12.4837 81.4479 7.08179 70.3634 7.08179C56.4146 7.08179 44.5587 15.6458 40.2115 27.5838C37.8261 26.9853 35.3199 26.6617 32.7378 26.6617C16.5449 26.6617 3.41797 39.2275 3.41797 54.7283C3.41797 70.2293 16.5447 82.795 32.7378 82.795C33.0447 82.795 33.35 82.7889 33.6547 82.7797C33.9686 82.7895 34.2833 82.7958 34.5995 82.7958C37.7496 82.7958 40.7745 82.3086 43.6089 81.42C46.1274 90.7956 55.0051 97.7309 65.5878 97.7309C68.7851 97.7309 71.8277 97.0968 74.5872 95.9545C78.7337 94.4846 82.2943 91.8777 84.8433 88.5344C87.2526 90.0059 90.1139 90.8566 93.1831 90.8566C95.3269 90.8566 97.3692 90.4405 99.2265 89.6886C102.816 88.4019 105.755 85.8646 107.455 82.6378C111.185 87.6151 117.278 90.8566 124.162 90.8566C135.486 90.8566 144.671 82.0946 144.716 71.2651C146.785 72.3502 149.168 72.9698 151.7 72.9698C154.436 72.9698 156.994 72.249 159.176 70.9975C163.812 68.6179 166.966 63.9367 166.966 58.5469C166.966 50.7508 160.36 44.4317 152.216 44.4317Z" fill="#00265E"/>
<path opacity="0.4516" d="M152.129 44.157C151.281 44.157 150.453 44.2297 149.646 44.3604C148.844 32.8104 138.837 23.6769 126.599 23.6769C122.981 23.6769 119.564 24.471 116.516 25.8949C114.407 21.3766 109.683 18.2287 104.188 18.2287C101.463 18.2287 98.9298 19.0085 96.8102 20.3401C91.0776 12.1073 81.3128 6.68823 70.2209 6.68823C56.2628 6.68823 44.3987 15.2795 40.0487 27.2556C37.6617 26.6552 35.1538 26.3307 32.5701 26.3307C16.3662 26.3307 3.23047 38.9365 3.23047 54.4868C3.23047 70.037 16.3662 82.643 32.5701 82.643C32.8771 82.643 33.1826 82.6368 33.4876 82.6277C33.8016 82.6374 34.1165 82.644 34.4329 82.644C37.5852 82.644 40.6119 82.1552 43.4483 81.2638C45.9684 90.6695 54.852 97.6267 65.4421 97.6267C68.6416 97.6267 71.6862 96.9906 74.4475 95.8447C78.5968 94.3702 82.1598 91.755 84.7104 88.4009C87.1213 89.877 89.9846 90.7305 93.0557 90.7305C95.2012 90.7305 97.2446 90.3132 99.1031 89.5587C102.695 88.2678 105.636 85.7223 107.338 82.4854C111.07 87.4784 117.167 90.7305 124.056 90.7305C135.387 90.7305 144.578 81.9405 144.623 71.0765C146.694 72.1651 149.078 72.7865 151.612 72.7865C154.35 72.7865 156.91 72.0635 159.094 70.8078C163.733 68.4206 166.889 63.7245 166.889 58.3174C166.889 50.4961 160.279 44.157 152.129 44.157Z" fill="#00265E"/>
<path opacity="0.4839" d="M152.038 43.8831C151.189 43.8831 150.361 43.956 149.553 44.0871C148.75 32.5002 138.737 23.3378 126.491 23.3378C122.87 23.3378 119.451 24.1345 116.401 25.5628C114.291 21.0301 109.564 17.8723 104.065 17.8723C101.338 17.8723 98.8029 18.6545 96.682 19.9905C90.9454 11.7316 81.174 6.29517 70.0748 6.29517C56.107 6.29517 44.2352 14.9135 39.8822 26.9279C37.4936 26.3255 34.9839 26 32.3984 26C16.1835 26 3.03906 38.6459 3.03906 54.2456C3.03906 69.8452 16.1835 82.4911 32.3984 82.4911C32.7057 82.4911 33.0116 82.4849 33.3165 82.4757C33.6307 82.4855 33.9458 82.4921 34.2625 82.4921C37.4169 82.4921 40.4456 82.0016 43.284 81.1075C45.8059 90.5429 54.6955 97.5224 65.2926 97.5224C68.4942 97.5224 71.5409 96.8841 74.3041 95.7346C78.4562 94.2553 82.0215 91.632 84.574 88.2673C86.9867 89.7482 89.8518 90.6043 92.9249 90.6043C95.0718 90.6043 97.1166 90.1856 98.9765 89.4289C102.571 88.134 105.514 85.5804 107.216 82.3331C110.951 87.342 117.052 90.6043 123.946 90.6043C135.285 90.6043 144.482 81.7864 144.528 70.8878C146.599 71.9799 148.985 72.6033 151.521 72.6033C154.261 72.6033 156.823 71.8779 159.008 70.6184C163.65 68.2236 166.809 63.5128 166.809 58.0883C166.808 50.2424 160.193 43.8831 152.038 43.8831Z" fill="#00265E"/>
<path opacity="0.5161" d="M151.947 43.6088C151.098 43.6088 150.269 43.6819 149.461 43.8134C148.657 32.1899 138.637 22.9984 126.383 22.9984C122.76 22.9984 119.339 23.7977 116.287 25.2305C114.174 20.6835 109.445 17.5157 103.942 17.5157C101.213 17.5157 98.6763 18.3003 96.5539 19.6406C90.8136 11.3555 81.0356 5.9021 69.9288 5.9021C55.9517 5.9021 44.0717 14.5478 39.7157 26.6002C37.3255 25.996 34.8142 25.6693 32.2269 25.6693C16.0011 25.6693 2.84766 38.3553 2.84766 54.0043C2.84766 69.6534 16.0011 82.3393 32.2269 82.3393C32.5344 82.3393 32.8405 82.3332 33.1456 82.324C33.4601 82.3338 33.7753 82.3403 34.0922 82.3403C37.2486 82.3403 40.2795 81.8483 43.1199 80.9513C45.6434 90.4167 54.5392 97.4183 65.1434 97.4183C68.3473 97.4183 71.3959 96.778 74.1609 95.6249C78.3158 94.1411 81.8835 91.5093 84.4378 88.1339C86.8521 89.6193 89.7189 90.4782 92.7943 90.4782C94.9426 90.4782 96.9888 90.0582 98.8499 89.2991C102.447 88 105.392 85.4384 107.095 82.1807C110.833 87.2056 116.938 90.4782 123.836 90.4782C135.183 90.4782 144.386 81.6325 144.432 70.6994C146.505 71.7951 148.892 72.4204 151.43 72.4204C154.171 72.4204 156.735 71.6929 158.921 70.4292C163.566 68.0269 166.727 63.3011 166.727 57.8595C166.728 49.9882 160.108 43.6088 151.947 43.6088Z" fill="#00265E"/>
<path opacity="0.5484" d="M151.86 43.3341C151.01 43.3341 150.181 43.4074 149.372 43.5394C148.568 31.8791 138.541 22.6587 126.279 22.6587C122.653 22.6587 119.23 23.4604 116.176 24.8979C114.062 20.3365 109.329 17.1585 103.822 17.1585C101.092 17.1585 98.5532 17.9457 96.4294 19.29C90.6851 10.9788 80.9005 5.50806 69.7863 5.50806C55.7999 5.50806 43.9117 14.181 39.553 26.2715C37.1612 25.6653 34.648 25.3377 32.0591 25.3377C15.8224 25.3377 2.66016 38.0637 2.66016 53.7622C2.66016 69.4607 15.8226 82.1866 32.0591 82.1866C32.3668 82.1866 32.6731 82.1805 32.9784 82.1711C33.2931 82.1809 33.6086 82.1874 33.9258 82.1874C37.0844 82.1874 40.1173 81.694 42.9595 80.7941C45.4848 90.2893 54.3866 97.313 64.998 97.313C68.2038 97.313 71.2546 96.6707 74.0217 95.5139C78.1793 94.0252 81.7497 91.3853 84.3055 87.9991C86.7214 89.4894 89.5902 90.3509 92.6678 90.3509C94.8176 90.3509 96.8651 89.9296 98.7275 89.1679C102.327 87.8646 105.274 85.2951 106.979 82.0272C110.718 87.0679 116.828 90.3509 123.731 90.3509C135.085 90.3509 144.295 81.4772 144.34 70.5097C146.415 71.6087 148.804 72.2361 151.343 72.2361C154.086 72.2361 156.652 71.5061 158.84 70.2386C163.488 67.8287 166.651 63.088 166.651 57.6292C166.65 49.7339 160.026 43.3341 151.86 43.3341Z" fill="#00265E"/>
<path opacity="0.5806" d="M151.769 43.06C150.919 43.06 150.089 43.1335 149.28 43.2661C148.475 31.5692 138.441 22.3197 126.171 22.3197C122.543 22.3197 119.117 23.124 116.061 24.5658C113.946 19.99 109.21 16.8021 103.699 16.8021C100.967 16.8021 98.4267 17.5917 96.3016 18.9404C90.5535 10.603 80.7623 5.11499 69.6404 5.11499C55.6443 5.11499 43.7484 13.8153 39.3867 25.9436C36.9933 25.3356 34.4785 25.007 31.8876 25.007C15.6399 25.007 2.46875 37.773 2.46875 53.5207C2.46875 69.2687 15.6399 82.0347 31.8876 82.0347C32.1957 82.0347 32.502 82.0285 32.8075 82.0192C33.1224 82.0289 33.4381 82.0357 33.7555 82.0357C36.9164 82.0357 39.9512 81.5407 42.7954 80.6379C45.3223 90.163 54.23 97.2087 64.8486 97.2087C68.0567 97.2087 71.1095 96.5644 73.8783 95.404C78.0389 93.9108 81.6115 91.2623 84.1689 87.8657C86.5863 89.3605 89.4572 90.225 92.5367 90.225C94.688 90.225 96.737 89.8023 98.6005 89.0385C102.202 87.7312 105.151 85.1535 106.857 81.8753C110.599 86.9319 116.713 90.225 123.62 90.225C134.982 90.225 144.198 81.3235 144.244 70.3213C146.32 71.4237 148.711 72.053 151.251 72.053C153.997 72.053 156.564 71.3209 158.753 70.0492C163.404 67.6317 166.57 62.8761 166.57 57.4002C166.57 49.4797 159.941 43.06 151.769 43.06Z" fill="#00265E"/>
<path opacity="0.6129" d="M151.682 42.7857C150.832 42.7857 150.001 42.8594 149.191 42.9924C148.386 31.2588 138.345 21.9802 126.067 21.9802C122.436 21.9802 119.008 22.7871 115.95 24.2335C113.833 19.6434 109.094 16.4455 103.58 16.4455C100.846 16.4455 98.304 17.2377 96.1773 18.5906C90.4252 10.2271 80.6274 4.72192 69.4981 4.72192C55.4927 4.72192 43.5886 13.4495 39.2239 25.6159C36.8289 25.0059 34.3123 24.6763 31.7199 24.6763C15.4612 24.6763 2.28125 37.4824 2.28125 53.2795C2.28125 69.0769 15.4614 81.883 31.7199 81.883C32.0282 81.883 32.3347 81.8766 32.6406 81.8674C32.9556 81.8772 33.2715 81.884 33.5892 81.884C36.752 81.884 39.789 81.3874 42.635 80.4818C45.1637 90.0368 54.0774 97.1046 64.7032 97.1046C67.9134 97.1046 70.9684 96.4583 73.739 95.2943C77.9024 93.7963 81.4774 91.1396 84.0366 87.7323C86.4557 89.2319 89.3285 90.099 92.41 90.099C94.5627 90.099 96.6131 89.6749 98.478 88.9087C102.082 87.5972 105.033 85.0115 106.74 81.7229C110.485 86.7953 116.603 90.099 123.514 90.099C134.884 90.099 144.107 81.1695 144.152 70.1329C146.229 71.2389 148.622 71.87 151.164 71.87C153.911 71.87 156.48 71.1355 158.671 69.86C163.326 67.435 166.493 62.6643 166.493 57.1713C166.493 49.2255 159.86 42.7857 151.682 42.7857Z" fill="#00265E"/>
<path opacity="0.6452" d="M151.591 42.5113C150.74 42.5113 149.909 42.5854 149.099 42.7185C148.293 30.9483 138.246 21.6406 125.959 21.6406C122.326 21.6406 118.895 22.4499 115.835 23.9009C113.717 19.2964 108.975 16.0886 103.457 16.0886C100.721 16.0886 98.1772 16.8831 96.049 18.2402C90.2932 9.85045 80.4888 4.32812 69.3519 4.32812C55.3372 4.32812 43.4251 13.083 39.0574 25.2875C36.6608 24.6757 34.1425 24.3449 31.5484 24.3449C15.2788 24.3449 2.08984 37.191 2.08984 53.0376C2.08984 68.8843 15.2788 81.7303 31.5484 81.7303C31.8569 81.7303 32.1636 81.7239 32.4697 81.7148C32.785 81.7247 33.101 81.7313 33.4189 81.7313C36.5839 81.7313 39.6229 81.2331 42.4709 80.3248C45.0012 89.9097 53.9209 96.9995 64.5538 96.9995C67.7662 96.9995 70.8232 96.3513 73.5956 95.1835C77.7619 93.6809 81.3392 91.0159 83.9002 87.5978C86.3208 89.102 89.1957 89.9718 92.2794 89.9718C94.4334 89.9718 96.4853 89.5466 98.3513 88.7777C101.958 87.4623 104.911 84.8684 106.619 81.5697C110.366 86.658 116.488 89.9718 123.405 89.9718C134.782 89.9718 144.011 81.0143 144.056 69.9433C146.135 71.0527 148.529 71.6861 151.073 71.6861C153.822 71.6861 156.393 70.9493 158.585 69.6697C163.242 67.2371 166.412 62.4515 166.412 56.9413C166.412 48.9712 159.774 42.5113 151.591 42.5113Z" fill="#00265E"/>
<path opacity="0.6774" d="M151.501 42.237C150.649 42.237 149.817 42.3114 149.006 42.4449C148.2 30.638 138.146 21.3014 125.85 21.3014C122.215 21.3014 118.782 22.1133 115.72 23.5688C113.601 18.9501 108.855 15.7322 103.334 15.7322C100.596 15.7322 98.0503 16.5292 95.9208 17.8907C90.1609 9.47476 80.35 3.9353 69.2058 3.9353C55.1814 3.9353 43.2613 12.7175 38.8909 24.96C36.4927 24.3462 33.9728 24.0144 31.3767 24.0144C15.0963 24.0144 1.89844 36.9006 1.89844 52.7966C1.89844 68.6928 15.0963 81.5788 31.3767 81.5788C31.6854 81.5788 31.9923 81.5724 32.2986 81.5631C32.6141 81.573 32.9305 81.5796 33.2484 81.5796C36.4156 81.5796 39.4566 81.0798 42.3064 80.1687C44.8385 89.7835 53.7641 96.8955 64.4042 96.8955C67.6189 96.8955 70.6779 96.2452 73.4523 95.0738C77.6213 93.5665 81.201 90.8933 83.7638 87.4646C86.1862 88.9736 89.0629 89.846 92.1486 89.846C94.3042 89.846 96.3572 89.4194 98.2247 88.6484C101.834 87.3287 104.788 84.7267 106.498 81.4178C110.248 86.5218 116.374 89.8463 123.295 89.8463C134.68 89.8463 143.915 80.8608 143.96 69.7552C146.04 70.868 148.436 71.5033 150.982 71.5033C153.733 71.5033 156.305 70.7641 158.499 69.4806C163.16 67.0403 166.331 62.2398 166.331 56.7125C166.331 48.7171 159.689 42.237 151.501 42.237Z" fill="#00265E"/>
<path opacity="0.7097" d="M151.414 41.9624C150.561 41.9624 149.729 42.037 148.917 42.1711C148.111 30.3275 138.05 20.9618 125.746 20.9618C122.108 20.9618 118.674 21.7763 115.609 23.2363C113.488 18.6031 108.739 15.3754 103.214 15.3754C100.474 15.3754 97.9274 16.1749 95.7965 17.5406C90.0328 9.09855 80.2153 3.54175 69.0635 3.54175C55.0298 3.54175 43.1017 12.3512 38.7283 24.6318C36.3283 24.016 33.8068 23.6834 31.2092 23.6834C14.9178 23.6834 1.71094 36.6095 1.71094 52.5549C1.71094 68.5003 14.9176 81.4266 31.2092 81.4266C31.518 81.4266 31.8251 81.4202 32.1316 81.4109C32.4473 81.4208 32.764 81.4276 33.0822 81.4276C36.2514 81.4276 39.2946 80.9264 42.1464 80.0123C44.6803 89.657 53.6119 96.7911 64.259 96.7911C67.4758 96.7911 70.5368 96.1388 73.3132 94.9637C77.485 93.4517 81.0671 90.7702 83.6316 87.3307C86.0557 88.8443 88.9344 89.7195 92.022 89.7195C94.1791 89.7195 96.2335 89.2915 98.1021 88.5181C101.714 87.1942 104.671 84.5842 106.381 81.265C110.133 86.3849 116.263 89.7195 123.189 89.7195C134.582 89.7195 143.823 80.7062 143.868 69.5661C145.95 70.6825 148.347 71.3196 150.895 71.3196C153.648 71.3196 156.222 70.5782 158.417 69.2907C163.081 66.8429 166.255 62.0274 166.255 56.483C166.254 48.4627 159.608 41.9624 151.414 41.9624Z" fill="#00265E"/>
<path opacity="0.7419" d="M151.323 41.6875C150.47 41.6875 149.637 41.7622 148.825 41.8967C148.018 30.0165 137.95 20.6217 125.638 20.6217C121.998 20.6217 118.561 21.4386 115.494 22.9031C113.372 18.2556 108.62 15.0177 103.091 15.0177C100.349 15.0177 97.8005 15.8196 95.6682 17.1895C89.9008 8.72135 80.0765 3.14722 68.9173 3.14722C54.8743 3.14722 42.938 11.984 38.5616 24.3027C36.16 23.6851 33.6369 23.3513 31.0375 23.3513C14.7352 23.3513 1.51953 36.3174 1.51953 52.3122C1.51953 68.3071 14.7352 81.2734 31.0375 81.2734C31.3466 81.2734 31.6539 81.267 31.9606 81.2576C32.2764 81.2676 32.5933 81.2744 32.9117 81.2744C36.0831 81.2744 39.1283 80.7716 41.9819 79.8547C44.5174 89.5293 53.4552 96.6853 64.1094 96.6853C67.3282 96.6853 70.3914 96.0309 73.1696 94.8523C77.3442 93.3356 80.9287 90.6459 83.495 87.1959C85.9207 88.7142 88.8011 89.592 91.891 89.592C94.0495 89.592 96.1054 89.1628 97.9753 88.3868C101.589 87.059 104.548 84.4408 106.26 81.1112C110.015 86.2471 116.149 89.592 123.079 89.592C134.48 89.592 143.727 80.5508 143.772 69.3762C145.855 70.496 148.254 71.1351 150.803 71.1351C153.558 71.1351 156.134 70.3914 158.33 69.1C162.997 66.6446 166.173 61.8142 166.173 56.2527C166.173 48.208 159.522 41.6875 151.323 41.6875Z" fill="#00265E"/>
<path opacity="0.7742" d="M151.232 41.4137C150.379 41.4137 149.546 41.4886 148.733 41.6235C147.925 29.7066 137.851 20.2829 125.53 20.2829C121.888 20.2829 118.448 21.1024 115.38 22.5713C113.256 17.9095 108.501 14.6616 102.968 14.6616C100.225 14.6616 97.6743 15.4661 95.5404 16.8401C89.769 8.34591 79.9383 2.75464 68.7713 2.75464C54.7187 2.75464 42.7747 11.6187 38.3953 23.9752C35.9921 23.3557 33.4672 23.0209 30.866 23.0209C14.5527 23.0209 1.32812 36.0271 1.32812 52.0713C1.32812 68.1156 14.5525 81.1217 30.866 81.1217C31.1753 81.1217 31.4828 81.1154 31.7897 81.106C32.1059 81.116 32.4228 81.1227 32.7414 81.1227C35.915 81.1227 38.9622 80.6183 41.8178 79.6987C44.3548 89.4031 53.2986 96.5813 63.9601 96.5813C67.1811 96.5813 70.2464 95.9248 73.0264 94.7425C77.2038 93.2212 80.7909 90.5229 83.3586 87.0623C85.7859 88.5853 88.6683 89.4659 91.7604 89.4659C93.9202 89.4659 95.9776 89.0352 97.8487 88.2569C101.465 86.9248 104.426 84.2987 106.139 80.9587C109.896 86.1104 116.034 89.4657 122.97 89.4657C134.378 89.4657 143.631 80.3965 143.677 69.1875C145.761 70.3107 148.161 70.9519 150.712 70.9519C153.469 70.9519 156.046 70.2058 158.244 68.9105C162.914 66.4476 166.092 61.6022 166.092 56.0235C166.093 47.9543 159.437 41.4137 151.232 41.4137Z" fill="#00265E"/>
<path opacity="0.8065" d="M151.143 41.1388C150.289 41.1388 149.455 41.2139 148.642 41.3493C147.834 29.3955 137.752 19.9429 125.424 19.9429C121.779 19.9429 118.337 20.7649 115.266 22.2384C113.141 17.5623 108.383 14.3044 102.847 14.3044C100.101 14.3044 97.5492 15.1113 95.4139 16.4895C89.6387 7.96901 79.8013 2.3606 68.6269 2.3606C54.5649 2.3606 42.6128 11.252 38.2305 23.6466C35.8258 23.0252 33.2991 22.6892 30.6963 22.6892C14.372 22.6892 1.13867 35.7355 1.13867 51.8291C1.13867 67.9228 14.372 80.969 30.6963 80.969C31.0058 80.969 31.3135 80.9627 31.6205 80.9531C31.9368 80.9631 32.2541 80.9698 32.5729 80.9698C35.7487 80.9698 38.7979 80.4639 41.6554 79.5414C44.1943 89.2757 53.1441 96.476 63.8127 96.476C67.0359 96.476 70.1032 95.8176 72.885 94.6317C77.0652 93.1056 80.6546 90.3991 83.2242 86.9278C85.653 88.4555 88.5375 89.3389 91.6315 89.3389C93.7929 89.3389 95.8515 88.9069 97.724 88.1263C101.343 86.7903 104.306 84.156 106.02 80.8058C109.779 85.9734 115.922 89.3389 122.862 89.3389C134.277 89.3389 143.537 80.2419 143.583 68.9981C145.668 70.1249 148.07 70.768 150.623 70.768C153.381 70.768 155.961 70.0197 158.16 68.7201C162.834 66.2496 166.014 61.3895 166.014 55.7935C166.014 47.6996 159.354 41.1388 151.143 41.1388Z" fill="#00265E"/>
<path opacity="0.8387" d="M151.055 40.8647C150.2 40.8647 149.366 40.94 148.552 41.0758C147.743 29.0853 137.655 19.6036 125.318 19.6036C121.67 19.6036 118.226 20.4281 115.154 21.9062C113.027 17.2156 108.266 13.9478 102.725 13.9478C99.9783 13.9478 97.4245 14.7573 95.2878 16.1397C89.5086 7.59308 79.6649 1.96753 68.4829 1.96753C54.4116 1.96753 42.4512 10.8862 38.066 23.3189C35.6597 22.6955 33.1314 22.3587 30.5267 22.3587C14.1916 22.3587 0.949219 35.445 0.949219 51.5881C0.949219 67.7312 14.1914 80.8175 30.5267 80.8175C30.8364 80.8175 31.1443 80.8111 31.4516 80.8016C31.7683 80.8115 32.0855 80.8185 32.4046 80.8185C35.5824 80.8185 38.6338 80.3109 41.4931 79.3857C44.0337 89.1499 52.9893 96.3723 63.6651 96.3723C66.8904 96.3723 69.9598 95.7119 72.7436 94.5224C76.9265 92.9917 80.5184 90.2768 83.0897 86.795C85.5202 88.3275 88.4066 89.2135 91.5027 89.2135C93.6655 89.2135 95.7254 88.7802 97.5991 87.9971C101.22 86.6569 104.185 84.0146 105.9 80.6541C109.663 85.8374 115.809 89.2135 122.754 89.2135C134.177 89.2135 143.443 80.0885 143.489 68.8103C145.576 69.9405 147.979 70.5855 150.534 70.5855C153.294 70.5855 155.875 69.8348 158.076 68.5315C162.752 66.0534 165.935 61.1784 165.935 55.565C165.935 47.4454 159.271 40.8647 151.055 40.8647Z" fill="#00265E"/>
<path opacity="0.871" d="M150.967 40.5907C150.112 40.5907 149.277 40.6664 148.463 40.8025C147.653 28.7754 137.559 19.2649 125.214 19.2649C121.564 19.2649 118.117 20.0919 115.043 21.5746C112.915 16.8697 108.15 13.5919 102.606 13.5919C99.8572 13.5919 97.3016 14.4038 95.1635 15.7906C89.3805 7.21784 79.53 1.57495 68.3407 1.57495C54.2598 1.57495 42.2916 10.521 37.9034 22.9917C35.4955 22.3663 32.9654 22.0285 30.359 22.0285C14.0128 22.0285 0.761719 35.1549 0.761719 51.3472C0.761719 67.5397 14.0128 80.666 30.359 80.666C30.6689 80.666 30.9772 80.6597 31.2844 80.6501C31.6013 80.6603 31.9188 80.667 32.2382 80.667C35.4182 80.667 38.4716 80.1581 41.3329 79.2298C43.8751 89.0238 52.8369 96.2685 63.5198 96.2685C66.7474 96.2685 69.8187 95.6061 72.6043 94.4128C76.79 92.8773 80.3843 90.1543 82.9575 86.6617C85.3897 88.1987 88.2779 89.0875 91.3761 89.0875C93.5404 89.0875 95.6017 88.6529 97.4768 87.8675C101.1 86.5234 104.067 83.8727 105.783 80.502C109.549 85.7013 115.699 89.0875 122.648 89.0875C134.079 89.0875 143.351 79.9347 143.397 68.622C145.485 69.7555 147.891 70.4026 150.447 70.4026C153.209 70.4026 155.792 69.6497 157.994 68.3422C162.673 65.8566 165.858 60.9666 165.858 55.336C165.858 47.1915 159.189 40.5907 150.967 40.5907Z" fill="#00265E"/>
<path opacity="0.9032" d="M150.876 40.3158C150.021 40.3158 149.185 40.3917 148.37 40.5282C147.56 28.4644 137.459 18.9248 125.105 18.9248C121.453 18.9248 118.004 19.7544 114.927 21.2415C112.798 16.5222 108.03 13.2343 102.483 13.2343C99.732 13.2343 97.1746 14.0487 95.0351 15.4397C89.2481 6.84089 79.3912 1.18066 68.1943 1.18066C54.104 1.18066 42.1279 10.154 37.7367 22.6627C35.3272 22.0356 32.7955 21.6966 30.1873 21.6966C13.8302 21.6966 0.570312 34.863 0.570312 51.1047C0.570312 67.3465 13.8302 80.5131 30.1873 80.5131C30.4974 80.5131 30.8059 80.5067 31.1134 80.4971C31.4304 80.5073 31.7483 80.5141 32.0677 80.5141C35.2497 80.5141 38.3053 80.0035 41.1684 79.0725C43.7124 88.8963 52.6801 96.1632 63.3703 96.1632C66.6 96.1632 69.6734 95.4987 72.4609 94.3018C76.6495 92.7618 80.2461 90.0304 82.821 86.527C85.2549 88.0689 88.1451 88.9603 91.2453 88.9603C93.4109 88.9603 95.4739 88.5242 97.3499 87.7365C100.976 86.3881 103.945 83.7295 105.662 80.3487C109.43 85.5637 115.585 88.9605 122.538 88.9605C133.977 88.9605 143.255 79.7797 143.301 68.4326C145.391 69.5697 147.798 70.2187 150.356 70.2187C153.119 70.2187 155.704 69.4635 157.908 68.1522C162.59 65.659 165.777 60.754 165.777 55.1063C165.777 46.9368 159.103 40.3158 150.876 40.3158Z" fill="#00265E"/>
<path opacity="0.9355" d="M150.786 40.0416C149.929 40.0416 149.093 40.1178 148.278 40.2547C147.467 28.1542 137.359 18.5855 124.998 18.5855C121.343 18.5855 117.892 19.4175 114.813 20.9091C112.682 16.1756 107.911 12.8776 102.36 12.8776C99.6069 12.8776 97.0479 13.6945 94.907 15.0897C89.1163 6.46452 79.2526 0.787354 68.0483 0.787354C53.9487 0.787354 41.9644 9.78795 37.5704 22.3348C35.1593 21.7057 32.6258 21.3657 30.0158 21.3657C13.6477 21.3657 0.378906 34.5721 0.378906 50.8633C0.378906 67.1544 13.6477 80.3609 30.0158 80.3609C30.3261 80.3609 30.6348 80.3543 30.9427 80.3448C31.2599 80.3549 31.578 80.3617 31.8977 80.3617C35.0818 80.3617 38.1394 79.8495 41.0045 78.9157C43.5501 88.7694 52.5238 96.0582 63.2211 96.0582C66.4529 96.0582 69.5284 95.3918 72.3178 94.1911C76.5091 92.6463 80.1081 89.9068 82.6846 86.3928C85.1201 87.9392 88.0123 88.8334 91.1145 88.8334C93.2817 88.8334 95.3459 88.3962 97.2233 87.6058C100.852 86.2535 103.823 83.5867 105.541 80.1955C109.311 85.4265 115.47 88.8334 122.429 88.8334C133.875 88.8334 143.159 79.6246 143.205 68.2429C145.296 69.3834 147.705 70.0345 150.264 70.0345C153.03 70.0345 155.616 69.277 157.822 67.9615C162.508 65.4607 165.696 60.5409 165.696 54.876C165.696 46.6829 159.018 40.0416 150.786 40.0416Z" fill="#00265E"/>
<path opacity="0.9677" d="M150.699 39.7674C149.842 39.7674 149.005 39.8437 148.189 39.981C147.378 27.8439 137.263 18.2462 124.894 18.2462C121.236 18.2462 117.783 19.0808 114.702 20.577C112.57 15.8291 107.795 12.5212 102.24 12.5212C99.4858 12.5212 96.9252 13.3405 94.7827 14.74C88.9882 6.08879 79.1177 0.394287 67.9061 0.394287C53.797 0.394287 41.8046 9.42219 37.4076 22.0069C34.9949 21.376 32.4599 21.035 29.8481 21.035C13.469 21.035 0.191406 34.2815 0.191406 50.6221C0.191406 66.9627 13.469 80.2092 29.8481 80.2092C30.1585 80.2092 30.4674 80.2026 30.7755 80.193C31.093 80.2032 31.4112 80.2102 31.7311 80.2102C34.9174 80.2102 37.977 79.6964 40.8439 78.7598C43.3913 88.6434 52.371 95.9543 63.0754 95.9543C66.3094 95.9543 69.3869 95.2857 72.1783 94.0816C76.3724 92.5322 79.9738 89.7841 82.5521 86.2596C84.9892 87.8108 87.8833 88.7076 90.9878 88.7076C93.1564 88.7076 95.2219 88.269 97.1006 87.4762C100.731 86.1197 103.704 83.4449 105.424 80.0434C109.196 85.2903 115.359 88.7076 122.323 88.7076C133.776 88.7076 143.067 79.4708 143.113 68.0547C145.205 69.1986 147.616 69.8517 150.177 69.8517C152.944 69.8517 155.532 69.0918 157.739 67.7725C162.428 65.2642 165.619 60.3293 165.619 54.6474C165.619 46.4288 158.937 39.7674 150.699 39.7674Z" fill="#00265E"/>
<path d="M150.608 39.4928C149.751 39.4928 148.914 39.5693 148.097 39.7072C147.285 27.5334 137.163 17.9067 124.785 17.9067C121.126 17.9067 117.67 18.7439 114.587 20.2445C112.453 15.4822 107.676 12.1643 102.117 12.1643C99.3607 12.1643 96.7984 12.9862 94.6545 14.3897C88.8559 5.71237 78.9791 0.000732422 67.7599 0.000732422C53.6413 0.000732422 41.6411 9.05594 37.2411 21.6787C34.8268 21.0458 32.29 20.7038 29.6766 20.7038C13.2866 20.7038 0 33.9904 0 50.3804C0 66.7704 13.2866 80.057 29.6766 80.057C29.9873 80.057 30.2963 80.0504 30.6046 80.0408C30.9223 80.051 31.2407 80.058 31.5608 80.058C34.7493 80.058 37.8107 79.5428 40.6798 78.6032C43.2288 88.5167 52.2146 95.8497 62.9261 95.8497C66.1622 95.8497 69.242 95.1791 72.0349 93.9715C76.2318 92.4173 79.8358 89.661 82.4157 86.1257C84.8543 87.6815 87.7503 88.5811 90.8569 88.5811C93.0269 88.5811 95.0939 88.1411 96.9739 87.3461C100.607 85.9854 103.582 83.3027 105.303 79.8908C109.078 85.1534 115.245 88.5811 122.213 88.5811C133.674 88.5811 142.971 79.3164 143.017 67.8658C145.111 69.0133 147.523 69.6682 150.086 69.6682C152.855 69.6682 155.445 68.9061 157.653 67.5827C162.345 65.0667 165.538 60.1169 165.538 54.4179C165.539 46.1743 158.852 39.4928 150.608 39.4928Z" fill="#00265E"/>
</g>
<path d="M165.538 54.4175C165.538 62.666 158.852 69.3476 150.608 69.3476C147.831 69.3476 145.228 68.5869 143.003 67.2649C143.008 67.4384 143.018 67.6068 143.018 67.7804C143.018 79.2703 133.703 88.5805 122.213 88.5805C115.102 88.5805 108.824 85.0126 105.073 79.5662C102.561 84.8952 97.1405 88.5805 90.8569 88.5805C87.5391 88.5805 84.4612 87.5546 81.9243 85.7988C77.7898 91.8627 70.8225 95.8492 62.9261 95.8492C51.9976 95.8492 42.8609 88.2182 40.5283 77.9994C37.1646 79.3215 33.5098 80.0564 29.6766 80.0564C13.2866 80.0564 0 66.7699 0 50.3799C0 33.9898 13.2866 20.7033 29.6766 20.7033C32.29 20.7033 34.8268 21.0452 37.2411 21.6782C41.6411 9.05521 53.6413 0 67.7599 0C78.9791 0 88.8561 5.71164 94.6545 14.389C96.7984 12.9853 99.3607 12.1636 102.117 12.1636C107.676 12.1636 112.453 15.4815 114.587 20.2437C117.67 18.7431 121.126 17.9059 124.785 17.9059C137.163 17.9059 147.285 27.5327 148.097 39.7065C148.914 39.5686 149.751 39.4921 150.608 39.4921C158.852 39.4924 165.538 46.174 165.538 54.4175Z" fill="url(#paint0_radial_8649_1103)"/>
<path d="M164.719 55.1824C164.719 63.1852 158.165 69.6676 150.085 69.6676C147.364 69.6676 144.813 68.9297 142.631 67.6471C142.636 67.8155 142.646 67.9789 142.646 68.1473C142.646 79.2948 133.516 88.3276 122.255 88.3276C115.287 88.3276 109.133 84.8661 105.456 79.5819C102.995 84.7521 97.6819 88.3276 91.5235 88.3276C88.2718 88.3276 85.255 87.3322 82.7686 85.6288C78.7164 91.512 71.8875 95.3797 64.1484 95.3797C53.4376 95.3797 44.4826 87.9761 42.1964 78.0618C38.8997 79.3444 35.3176 80.0576 31.5605 80.0576C15.4967 80.0576 2.47461 67.167 2.47461 51.2655C2.47461 35.3639 15.4967 22.4733 31.5605 22.4733C34.1219 22.4733 36.6083 22.8051 38.9746 23.4193C43.2869 11.1724 55.0484 2.38721 68.8859 2.38721C79.882 2.38721 89.5623 7.92866 95.2455 16.3476C97.3467 14.9857 99.8581 14.1883 102.56 14.1883C108.008 14.1883 112.69 17.4073 114.781 22.0277C117.803 20.5717 121.19 19.7595 124.777 19.7595C136.908 19.7595 146.829 29.0993 147.624 40.9103C148.424 40.7766 149.245 40.7023 150.085 40.7023C158.165 40.7021 164.719 47.1846 164.719 55.1824Z" fill="url(#paint1_radial_8649_1103)"/>
<path d="M54.7826 119.192C53.876 119.192 53.076 118.973 52.3826 118.536C51.6893 118.088 51.1453 117.459 50.7506 116.648C50.3666 115.827 50.1746 114.851 50.1746 113.72C50.1746 112.589 50.3666 111.624 50.7506 110.824C51.1453 110.024 51.6893 109.411 52.3826 108.984C53.076 108.557 53.876 108.344 54.7826 108.344C55.7 108.344 56.5053 108.557 57.1986 108.984C57.892 109.411 58.4306 110.024 58.8146 110.824C59.2093 111.624 59.4066 112.589 59.4066 113.72C59.4066 114.851 59.2093 115.827 58.8146 116.648C58.4306 117.459 57.892 118.088 57.1986 118.536C56.5053 118.973 55.7 119.192 54.7826 119.192ZM54.7826 117.576C55.604 117.576 56.26 117.229 56.7506 116.536C57.2413 115.832 57.4866 114.893 57.4866 113.72C57.4866 112.547 57.2413 111.629 56.7506 110.968C56.26 110.296 55.604 109.96 54.7826 109.96C53.9613 109.96 53.3053 110.296 52.8146 110.968C52.324 111.629 52.0786 112.547 52.0786 113.72C52.0786 114.893 52.324 115.832 52.8146 116.536C53.3053 117.229 53.9613 117.576 54.7826 117.576ZM63.0999 119L60.3639 111.144H62.2359L63.4839 115.224C63.5905 115.608 63.6972 115.997 63.8039 116.392C63.9212 116.787 64.0332 117.187 64.1399 117.592H64.2039C64.3212 117.187 64.4332 116.787 64.5399 116.392C64.6572 115.997 64.7692 115.608 64.8759 115.224L66.1239 111.144H67.8999L65.2279 119H63.0999ZM72.528 119.192C71.8027 119.192 71.1467 119.032 70.56 118.712C69.9733 118.381 69.5093 117.912 69.168 117.304C68.8267 116.685 68.656 115.944 68.656 115.08C68.656 114.227 68.8267 113.491 69.168 112.872C69.52 112.253 69.9733 111.779 70.528 111.448C71.0827 111.117 71.664 110.952 72.272 110.952C72.9867 110.952 73.584 111.112 74.064 111.432C74.544 111.741 74.9067 112.179 75.152 112.744C75.3973 113.299 75.52 113.944 75.52 114.68C75.52 115.064 75.4933 115.363 75.44 115.576H70.448C70.5333 116.269 70.784 116.808 71.2 117.192C71.616 117.576 72.1387 117.768 72.768 117.768C73.1093 117.768 73.424 117.72 73.712 117.624C74.0107 117.517 74.304 117.373 74.592 117.192L75.216 118.344C74.8427 118.589 74.4267 118.792 73.968 118.952C73.5093 119.112 73.0293 119.192 72.528 119.192ZM70.432 114.328H73.92C73.92 113.72 73.7867 113.245 73.52 112.904C73.2533 112.552 72.8533 112.376 72.32 112.376C71.8613 112.376 71.4507 112.547 71.088 112.888C70.736 113.219 70.5173 113.699 70.432 114.328ZM77.2774 119V111.144H78.7974L78.9254 112.536H78.9894C79.2667 112.024 79.6027 111.635 79.9974 111.368C80.392 111.091 80.7974 110.952 81.2134 110.952C81.5867 110.952 81.8854 111.005 82.1094 111.112L81.7894 112.712C81.6507 112.669 81.5227 112.637 81.4054 112.616C81.288 112.595 81.144 112.584 80.9734 112.584C80.664 112.584 80.3387 112.707 79.9974 112.952C79.656 113.187 79.3627 113.603 79.1174 114.2V119H77.2774ZM85.8419 119.192C84.8605 119.192 84.0765 118.829 83.4899 118.104C82.9032 117.379 82.6099 116.371 82.6099 115.08C82.6099 114.227 82.7645 113.491 83.0739 112.872C83.3939 112.253 83.8099 111.779 84.3219 111.448C84.8339 111.117 85.3725 110.952 85.9379 110.952C86.3859 110.952 86.7645 111.032 87.0739 111.192C87.3939 111.341 87.7032 111.549 88.0019 111.816L87.9379 110.552V107.704H89.7779V119H88.2579L88.1299 118.152H88.0659C87.7779 118.44 87.4419 118.685 87.0579 118.888C86.6739 119.091 86.2685 119.192 85.8419 119.192ZM86.2899 117.672C86.8765 117.672 87.4259 117.379 87.9379 116.792V113.128C87.6712 112.883 87.4045 112.712 87.1379 112.616C86.8712 112.52 86.6045 112.472 86.3379 112.472C85.8365 112.472 85.4045 112.701 85.0419 113.16C84.6899 113.608 84.5139 114.243 84.5139 115.064C84.5139 115.907 84.6685 116.552 84.9779 117C85.2872 117.448 85.7245 117.672 86.2899 117.672ZM92.1211 119V111.144H93.6411L93.7691 112.536H93.8331C94.1105 112.024 94.4465 111.635 94.8411 111.368C95.2358 111.091 95.6411 110.952 96.0571 110.952C96.4305 110.952 96.7291 111.005 96.9531 111.112L96.6331 112.712C96.4945 112.669 96.3665 112.637 96.2491 112.616C96.1318 112.595 95.9878 112.584 95.8171 112.584C95.5078 112.584 95.1825 112.707 94.8411 112.952C94.4998 113.187 94.2065 113.603 93.9611 114.2V119H92.1211ZM99.572 119.192C98.8893 119.192 98.3293 118.979 97.892 118.552C97.4653 118.125 97.252 117.571 97.252 116.888C97.252 116.045 97.62 115.395 98.356 114.936C99.092 114.467 100.265 114.147 101.876 113.976C101.865 113.56 101.753 113.203 101.54 112.904C101.337 112.595 100.969 112.44 100.436 112.44C100.052 112.44 99.6733 112.515 99.3 112.664C98.9373 112.813 98.58 112.995 98.228 113.208L97.556 111.976C97.9933 111.699 98.484 111.459 99.028 111.256C99.5827 111.053 100.169 110.952 100.788 110.952C101.769 110.952 102.5 111.245 102.98 111.832C103.471 112.408 103.716 113.245 103.716 114.344V119H102.196L102.068 118.136H102.004C101.652 118.435 101.273 118.685 100.868 118.888C100.473 119.091 100.041 119.192 99.572 119.192ZM100.164 117.752C100.484 117.752 100.772 117.677 101.028 117.528C101.295 117.368 101.577 117.155 101.876 116.888V115.128C100.809 115.267 100.068 115.475 99.652 115.752C99.236 116.019 99.028 116.349 99.028 116.744C99.028 117.096 99.1347 117.352 99.348 117.512C99.5613 117.672 99.8333 117.752 100.164 117.752ZM106.238 119V112.6H105.182V111.224L106.238 111.144V110.328C106.238 109.507 106.441 108.835 106.846 108.312C107.251 107.779 107.918 107.512 108.846 107.512C109.123 107.512 109.39 107.539 109.646 107.592C109.902 107.645 110.115 107.709 110.286 107.784L109.934 109.16C109.646 109.032 109.358 108.968 109.07 108.968C108.409 108.968 108.078 109.411 108.078 110.296V111.144H109.614V112.6H108.078V119H106.238ZM113.764 119.192C112.857 119.192 112.212 118.931 111.828 118.408C111.455 117.875 111.268 117.187 111.268 116.344V112.6H110.148V111.224L111.364 111.144L111.588 109H113.124V111.144H115.124V112.6H113.124V116.344C113.124 117.261 113.492 117.72 114.228 117.72C114.367 117.72 114.511 117.704 114.66 117.672C114.809 117.629 114.937 117.587 115.044 117.544L115.364 118.904C115.151 118.979 114.905 119.043 114.628 119.096C114.361 119.16 114.073 119.192 113.764 119.192Z" fill="white"/>
<path d="M27.3006 47V33.266H29.7366V44.942H35.4486V47H27.3006ZM41.586 47.252C40.732 47.252 39.934 47.042 39.192 46.622C38.45 46.188 37.848 45.572 37.386 44.774C36.924 43.962 36.693 42.989 36.693 41.855C36.693 40.707 36.924 39.734 37.386 38.936C37.848 38.124 38.45 37.508 39.192 37.088C39.934 36.654 40.732 36.437 41.586 36.437C42.454 36.437 43.259 36.654 44.001 37.088C44.743 37.508 45.345 38.124 45.807 38.936C46.269 39.734 46.5 40.707 46.5 41.855C46.5 42.989 46.269 43.962 45.807 44.774C45.345 45.572 44.743 46.188 44.001 46.622C43.259 47.042 42.454 47.252 41.586 47.252ZM41.586 45.278C42.342 45.278 42.937 44.963 43.371 44.333C43.805 43.703 44.022 42.877 44.022 41.855C44.022 40.819 43.805 39.986 43.371 39.356C42.937 38.726 42.342 38.411 41.586 38.411C40.83 38.411 40.235 38.726 39.801 39.356C39.381 39.986 39.171 40.819 39.171 41.855C39.171 42.877 39.381 43.703 39.801 44.333C40.235 44.963 40.83 45.278 41.586 45.278ZM51.1433 47.252C50.2473 47.252 49.5123 46.972 48.9383 46.412C48.3783 45.852 48.0983 45.124 48.0983 44.228C48.0983 43.122 48.5813 42.268 49.5473 41.666C50.5133 41.05 52.0533 40.63 54.1673 40.406C54.1533 39.86 54.0063 39.391 53.7263 38.999C53.4603 38.593 52.9773 38.39 52.2773 38.39C51.7733 38.39 51.2763 38.488 50.7863 38.684C50.3103 38.88 49.8413 39.118 49.3793 39.398L48.4973 37.781C49.0713 37.417 49.7153 37.102 50.4293 36.836C51.1573 36.57 51.9273 36.437 52.7393 36.437C54.0273 36.437 54.9863 36.822 55.6163 37.592C56.2603 38.348 56.5823 39.447 56.5823 40.889V47H54.5873L54.4193 45.866H54.3353C53.8733 46.258 53.3763 46.587 52.8443 46.853C52.3263 47.119 51.7593 47.252 51.1433 47.252ZM51.9203 45.362C52.3403 45.362 52.7183 45.264 53.0543 45.068C53.4043 44.858 53.7753 44.578 54.1673 44.228V41.918C52.7673 42.1 51.7943 42.373 51.2483 42.737C50.7023 43.087 50.4293 43.521 50.4293 44.039C50.4293 44.501 50.5693 44.837 50.8493 45.047C51.1293 45.257 51.4863 45.362 51.9203 45.362ZM59.4725 47V36.689H61.4675L61.6355 38.075H61.7195C62.1815 37.627 62.6855 37.242 63.2315 36.92C63.7775 36.598 64.4005 36.437 65.1005 36.437C66.2065 36.437 67.0115 36.794 67.5155 37.508C68.0195 38.222 68.2715 39.23 68.2715 40.532V47H65.8565V40.847C65.8565 39.993 65.7305 39.391 65.4785 39.041C65.2265 38.691 64.8135 38.516 64.2395 38.516C63.7915 38.516 63.3925 38.628 63.0425 38.852C62.7065 39.062 62.3215 39.377 61.8875 39.797V47H59.4725ZM78.4515 39.692L77.9685 41.372H81.4755L80.9925 39.692C80.7685 38.964 80.5515 38.215 80.3415 37.445C80.1455 36.675 79.9495 35.912 79.7535 35.156H79.6695C79.4875 35.926 79.2915 36.696 79.0815 37.466C78.8855 38.222 78.6755 38.964 78.4515 39.692ZM73.8525 47L78.3255 33.266H81.1815L85.6545 47H83.0925L82.0215 43.283H77.4015L76.3305 47H73.8525ZM90.7285 51.557C89.9165 51.557 89.1815 51.459 88.5235 51.263C87.8795 51.067 87.3685 50.766 86.9905 50.36C86.6265 49.968 86.4445 49.471 86.4445 48.869C86.4445 48.015 86.9345 47.28 87.9145 46.664V46.58C87.6485 46.412 87.4245 46.188 87.2425 45.908C87.0745 45.628 86.9905 45.278 86.9905 44.858C86.9905 44.452 87.1025 44.088 87.3265 43.766C87.5645 43.43 87.8305 43.157 88.1245 42.947V42.863C87.7745 42.597 87.4595 42.226 87.1795 41.75C86.9135 41.274 86.7805 40.735 86.7805 40.133C86.7805 39.335 86.9695 38.663 87.3475 38.117C87.7255 37.571 88.2225 37.158 88.8385 36.878C89.4685 36.584 90.1405 36.437 90.8545 36.437C91.1345 36.437 91.4005 36.465 91.6525 36.521C91.9185 36.563 92.1565 36.619 92.3665 36.689H96.0625V38.474H94.1725C94.3405 38.67 94.4805 38.922 94.5925 39.23C94.7045 39.524 94.7605 39.853 94.7605 40.217C94.7605 40.973 94.5855 41.617 94.2355 42.149C93.8855 42.667 93.4165 43.059 92.8285 43.325C92.2405 43.591 91.5825 43.724 90.8545 43.724C90.6305 43.724 90.3995 43.703 90.1615 43.661C89.9235 43.619 89.6855 43.549 89.4475 43.451C89.2935 43.591 89.1675 43.731 89.0695 43.871C88.9855 44.011 88.9435 44.2 88.9435 44.438C88.9435 44.732 89.0625 44.963 89.3005 45.131C89.5525 45.299 89.9935 45.383 90.6235 45.383H92.4505C93.6965 45.383 94.6345 45.586 95.2645 45.992C95.9085 46.384 96.2305 47.028 96.2305 47.924C96.2305 48.596 96.0065 49.205 95.5585 49.751C95.1105 50.311 94.4735 50.752 93.6475 51.074C92.8215 51.396 91.8485 51.557 90.7285 51.557ZM90.8545 42.212C91.3445 42.212 91.7645 42.03 92.1145 41.666C92.4645 41.302 92.6395 40.791 92.6395 40.133C92.6395 39.489 92.4645 38.992 92.1145 38.642C91.7785 38.278 91.3585 38.096 90.8545 38.096C90.3505 38.096 89.9235 38.271 89.5735 38.621C89.2235 38.971 89.0485 39.475 89.0485 40.133C89.0485 40.791 89.2235 41.302 89.5735 41.666C89.9235 42.03 90.3505 42.212 90.8545 42.212ZM91.1065 49.982C91.9325 49.982 92.6045 49.814 93.1225 49.478C93.6405 49.142 93.8995 48.757 93.8995 48.323C93.8995 47.917 93.7385 47.644 93.4165 47.504C93.1085 47.364 92.6605 47.294 92.0725 47.294H90.6655C90.1055 47.294 89.6365 47.245 89.2585 47.147C88.7265 47.553 88.4605 48.008 88.4605 48.512C88.4605 48.974 88.6985 49.331 89.1745 49.583C89.6505 49.849 90.2945 49.982 91.1065 49.982ZM100.178 47.252C99.2815 47.252 98.5465 46.972 97.9725 46.412C97.4125 45.852 97.1325 45.124 97.1325 44.228C97.1325 43.122 97.6155 42.268 98.5815 41.666C99.5475 41.05 101.088 40.63 103.202 40.406C103.188 39.86 103.041 39.391 102.761 38.999C102.495 38.593 102.012 38.39 101.312 38.39C100.808 38.39 100.311 38.488 99.8205 38.684C99.3445 38.88 98.8755 39.118 98.4135 39.398L97.5315 37.781C98.1055 37.417 98.7495 37.102 99.4635 36.836C100.192 36.57 100.962 36.437 101.774 36.437C103.062 36.437 104.021 36.822 104.651 37.592C105.295 38.348 105.617 39.447 105.617 40.889V47H103.622L103.454 45.866H103.37C102.908 46.258 102.411 46.587 101.879 46.853C101.361 47.119 100.794 47.252 100.178 47.252ZM100.955 45.362C101.375 45.362 101.753 45.264 102.089 45.068C102.439 44.858 102.81 44.578 103.202 44.228V41.918C101.802 42.1 100.829 42.373 100.283 42.737C99.7365 43.087 99.4635 43.521 99.4635 44.039C99.4635 44.501 99.6035 44.837 99.8835 45.047C100.164 45.257 100.521 45.362 100.955 45.362ZM108.507 47V36.689H110.922V47H108.507ZM109.725 34.883C109.291 34.883 108.941 34.757 108.675 34.505C108.409 34.253 108.276 33.917 108.276 33.497C108.276 33.091 108.409 32.762 108.675 32.51C108.941 32.258 109.291 32.132 109.725 32.132C110.159 32.132 110.509 32.258 110.775 32.51C111.041 32.762 111.174 33.091 111.174 33.497C111.174 33.917 111.041 34.253 110.775 34.505C110.509 34.757 110.159 34.883 109.725 34.883ZM114.003 47V36.689H115.998L116.166 38.075H116.25C116.712 37.627 117.216 37.242 117.762 36.92C118.308 36.598 118.931 36.437 119.631 36.437C120.737 36.437 121.542 36.794 122.046 37.508C122.55 38.222 122.802 39.23 122.802 40.532V47H120.387V40.847C120.387 39.993 120.261 39.391 120.009 39.041C119.757 38.691 119.344 38.516 118.77 38.516C118.322 38.516 117.923 38.628 117.573 38.852C117.237 39.062 116.852 39.377 116.418 39.797V47H114.003ZM128.631 47.252C127.931 47.252 127.231 47.119 126.531 46.853C125.831 46.573 125.229 46.23 124.725 45.824L125.859 44.27C126.321 44.62 126.783 44.9 127.245 45.11C127.707 45.32 128.197 45.425 128.715 45.425C129.275 45.425 129.688 45.306 129.954 45.068C130.22 44.83 130.353 44.536 130.353 44.186C130.353 43.892 130.241 43.654 130.017 43.472C129.807 43.276 129.534 43.108 129.198 42.968C128.862 42.814 128.512 42.667 128.148 42.527C127.7 42.359 127.252 42.156 126.804 41.918C126.37 41.666 126.013 41.351 125.733 40.973C125.453 40.581 125.313 40.098 125.313 39.524C125.313 38.614 125.649 37.872 126.321 37.298C126.993 36.724 127.903 36.437 129.051 36.437C129.779 36.437 130.43 36.563 131.004 36.815C131.578 37.067 132.075 37.354 132.495 37.676L131.382 39.146C131.018 38.88 130.647 38.67 130.269 38.516C129.905 38.348 129.52 38.264 129.114 38.264C128.596 38.264 128.211 38.376 127.959 38.6C127.707 38.81 127.581 39.076 127.581 39.398C127.581 39.804 127.791 40.112 128.211 40.322C128.631 40.532 129.121 40.735 129.681 40.931C130.157 41.099 130.619 41.309 131.067 41.561C131.515 41.799 131.886 42.114 132.18 42.506C132.488 42.898 132.642 43.416 132.642 44.06C132.642 44.942 132.299 45.698 131.613 46.328C130.927 46.944 129.933 47.252 128.631 47.252ZM138.02 47.252C136.83 47.252 135.983 46.909 135.479 46.223C134.989 45.523 134.744 44.62 134.744 43.514V38.6H133.274V36.794L134.87 36.689L135.164 33.875H137.18V36.689H139.805V38.6H137.18V43.514C137.18 44.718 137.663 45.32 138.629 45.32C138.811 45.32 139 45.299 139.196 45.257C139.392 45.201 139.56 45.145 139.7 45.089L140.12 46.874C139.84 46.972 139.518 47.056 139.154 47.126C138.804 47.21 138.426 47.252 138.02 47.252ZM33.494 71V57.266H35.93V71H33.494ZM39.2107 71V60.689H41.2057L41.3737 62.075H41.4577C41.9197 61.627 42.4237 61.242 42.9697 60.92C43.5157 60.598 44.1387 60.437 44.8387 60.437C45.9447 60.437 46.7497 60.794 47.2537 61.508C47.7577 62.222 48.0097 63.23 48.0097 64.532V71H45.5947V64.847C45.5947 63.993 45.4687 63.391 45.2167 63.041C44.9647 62.691 44.5517 62.516 43.9777 62.516C43.5297 62.516 43.1307 62.628 42.7807 62.852C42.4447 63.062 42.0597 63.377 41.6257 63.797V71H39.2107ZM53.2717 71L49.6807 60.689H52.1377L53.7757 66.044C53.9157 66.548 54.0557 67.059 54.1957 67.577C54.3497 68.095 54.4967 68.62 54.6367 69.152H54.7207C54.8747 68.62 55.0217 68.095 55.1617 67.577C55.3157 67.059 55.4627 66.548 55.6027 66.044L57.2407 60.689H59.5717L56.0647 71H53.2717ZM65.6461 71.252C64.6941 71.252 63.8331 71.042 63.0631 70.622C62.2931 70.188 61.6841 69.572 61.2361 68.774C60.7881 67.962 60.5641 66.989 60.5641 65.855C60.5641 64.735 60.7881 63.769 61.2361 62.957C61.6981 62.145 62.2931 61.522 63.0211 61.088C63.7491 60.654 64.5121 60.437 65.3101 60.437C66.2481 60.437 67.0321 60.647 67.6621 61.067C68.2921 61.473 68.7681 62.047 69.0901 62.789C69.4121 63.517 69.5731 64.364 69.5731 65.33C69.5731 65.834 69.5381 66.226 69.4681 66.506H62.9161C63.0281 67.416 63.3571 68.123 63.9031 68.627C64.4491 69.131 65.1351 69.383 65.9611 69.383C66.4091 69.383 66.8221 69.32 67.2001 69.194C67.5921 69.054 67.9771 68.865 68.3551 68.627L69.1741 70.139C68.6841 70.461 68.1381 70.727 67.5361 70.937C66.9341 71.147 66.3041 71.252 65.6461 71.252ZM62.8951 64.868H67.4731C67.4731 64.07 67.2981 63.447 66.9481 62.999C66.5981 62.537 66.0731 62.306 65.3731 62.306C64.7711 62.306 64.2321 62.53 63.7561 62.978C63.2941 63.412 63.0071 64.042 62.8951 64.868ZM74.7567 71.252C74.0567 71.252 73.3567 71.119 72.6567 70.853C71.9567 70.573 71.3547 70.23 70.8507 69.824L71.9847 68.27C72.4467 68.62 72.9087 68.9 73.3707 69.11C73.8327 69.32 74.3227 69.425 74.8407 69.425C75.4007 69.425 75.8137 69.306 76.0797 69.068C76.3457 68.83 76.4787 68.536 76.4787 68.186C76.4787 67.892 76.3667 67.654 76.1427 67.472C75.9327 67.276 75.6597 67.108 75.3237 66.968C74.9877 66.814 74.6377 66.667 74.2737 66.527C73.8257 66.359 73.3777 66.156 72.9297 65.918C72.4957 65.666 72.1387 65.351 71.8587 64.973C71.5787 64.581 71.4387 64.098 71.4387 63.524C71.4387 62.614 71.7747 61.872 72.4467 61.298C73.1187 60.724 74.0287 60.437 75.1767 60.437C75.9047 60.437 76.5557 60.563 77.1297 60.815C77.7037 61.067 78.2007 61.354 78.6207 61.676L77.5077 63.146C77.1437 62.88 76.7727 62.67 76.3947 62.516C76.0307 62.348 75.6457 62.264 75.2397 62.264C74.7217 62.264 74.3367 62.376 74.0847 62.6C73.8327 62.81 73.7067 63.076 73.7067 63.398C73.7067 63.804 73.9167 64.112 74.3367 64.322C74.7567 64.532 75.2467 64.735 75.8067 64.931C76.2827 65.099 76.7447 65.309 77.1927 65.561C77.6407 65.799 78.0117 66.114 78.3057 66.506C78.6137 66.898 78.7677 67.416 78.7677 68.06C78.7677 68.942 78.4247 69.698 77.7387 70.328C77.0527 70.944 76.0587 71.252 74.7567 71.252ZM84.1465 71.252C82.9565 71.252 82.1095 70.909 81.6055 70.223C81.1155 69.523 80.8705 68.62 80.8705 67.514V62.6H79.4005V60.794L80.9965 60.689L81.2905 57.875H83.3065V60.689H85.9315V62.6H83.3065V67.514C83.3065 68.718 83.7895 69.32 84.7555 69.32C84.9375 69.32 85.1265 69.299 85.3225 69.257C85.5185 69.201 85.6865 69.145 85.8265 69.089L86.2465 70.874C85.9665 70.972 85.6445 71.056 85.2805 71.126C84.9305 71.21 84.5525 71.252 84.1465 71.252ZM88.1014 71V60.689H90.0964L90.2644 62.096H90.3484C90.7824 61.634 91.2514 61.242 91.7554 60.92C92.2734 60.598 92.8544 60.437 93.4984 60.437C94.2544 60.437 94.8564 60.605 95.3044 60.941C95.7664 61.263 96.1164 61.711 96.3544 62.285C96.8444 61.753 97.3554 61.312 97.8874 60.962C98.4334 60.612 99.0284 60.437 99.6724 60.437C100.764 60.437 101.569 60.794 102.087 61.508C102.605 62.222 102.864 63.23 102.864 64.532V71H100.428V64.847C100.428 63.993 100.295 63.391 100.029 63.041C99.7774 62.691 99.3854 62.516 98.8534 62.516C98.2094 62.516 97.4884 62.943 96.6904 63.797V71H94.2754V64.847C94.2754 63.993 94.1424 63.391 93.8764 63.041C93.6244 62.691 93.2254 62.516 92.6794 62.516C92.0354 62.516 91.3144 62.943 90.5164 63.797V71H88.1014ZM110.21 71.252C109.258 71.252 108.397 71.042 107.627 70.622C106.857 70.188 106.248 69.572 105.8 68.774C105.352 67.962 105.128 66.989 105.128 65.855C105.128 64.735 105.352 63.769 105.8 62.957C106.262 62.145 106.857 61.522 107.585 61.088C108.313 60.654 109.076 60.437 109.874 60.437C110.812 60.437 111.596 60.647 112.226 61.067C112.856 61.473 113.332 62.047 113.654 62.789C113.976 63.517 114.137 64.364 114.137 65.33C114.137 65.834 114.102 66.226 114.032 66.506H107.48C107.592 67.416 107.921 68.123 108.467 68.627C109.013 69.131 109.699 69.383 110.525 69.383C110.973 69.383 111.386 69.32 111.764 69.194C112.156 69.054 112.541 68.865 112.919 68.627L113.738 70.139C113.248 70.461 112.702 70.727 112.1 70.937C111.498 71.147 110.868 71.252 110.21 71.252ZM107.459 64.868H112.037C112.037 64.07 111.862 63.447 111.512 62.999C111.162 62.537 110.637 62.306 109.937 62.306C109.335 62.306 108.796 62.53 108.32 62.978C107.858 63.412 107.571 64.042 107.459 64.868ZM116.443 71V60.689H118.438L118.606 62.075H118.69C119.152 61.627 119.656 61.242 120.202 60.92C120.748 60.598 121.371 60.437 122.071 60.437C123.177 60.437 123.982 60.794 124.486 61.508C124.99 62.222 125.242 63.23 125.242 64.532V71H122.827V64.847C122.827 63.993 122.701 63.391 122.449 63.041C122.197 62.691 121.784 62.516 121.21 62.516C120.762 62.516 120.363 62.628 120.013 62.852C119.677 63.062 119.292 63.377 118.858 63.797V71H116.443ZM131.827 71.252C130.637 71.252 129.79 70.909 129.286 70.223C128.796 69.523 128.551 68.62 128.551 67.514V62.6H127.081V60.794L128.677 60.689L128.971 57.875H130.987V60.689H133.612V62.6H130.987V67.514C130.987 68.718 131.47 69.32 132.436 69.32C132.618 69.32 132.807 69.299 133.003 69.257C133.199 69.201 133.367 69.145 133.507 69.089L133.927 70.874C133.647 70.972 133.325 71.056 132.961 71.126C132.611 71.21 132.233 71.252 131.827 71.252Z" fill="#08225F"/>
<defs>
<radialGradient id="paint0_radial_8649_1103" cx="0" cy="0" r="1" gradientTransform="matrix(91.6658 -36.69 22.018 55.0054 82.5749 31.5195)" gradientUnits="userSpaceOnUse">
<stop offset="0.0039" stop-color="white"/>
<stop offset="0.5209" stop-color="#FDFDFE"/>
<stop offset="0.7071" stop-color="#F6F8F9"/>
<stop offset="0.8398" stop-color="#EBEDF0"/>
<stop offset="0.9464" stop-color="#DADFE4"/>
<stop offset="1" stop-color="#CED5DB"/>
</radialGradient>
<radialGradient id="paint1_radial_8649_1103" cx="0" cy="0" r="1" gradientTransform="matrix(-147.174 -37.2375 23.8788 -94.3918 145.017 84.7301)" gradientUnits="userSpaceOnUse">
<stop offset="0.0055" stop-color="white"/>
<stop offset="0.5212" stop-color="#FDFDFE"/>
<stop offset="0.707" stop-color="#F6F8F9"/>
<stop offset="0.8394" stop-color="#EBEDF0"/>
<stop offset="0.9457" stop-color="#DADFE4"/>
<stop offset="0.9992" stop-color="#CED5DB"/>
</radialGradient>
</defs>
</svg>
