<svg width="38" height="38" viewBox="0 0 38 38" fill="none" xmlns="http://www.w3.org/2000/svg">
<circle cx="19" cy="19" r="19" fill="url(#paint0_linear_6905_9473)"/>
<path d="M12 18.5C12 18.7254 12.0922 18.9416 12.2563 19.101C12.4204 19.2604 12.6429 19.35 12.875 19.35H19.5163L17.5037 21.2965C17.4217 21.3755 17.3566 21.4695 17.3122 21.5731C17.2678 21.6767 17.2449 21.7878 17.2449 21.9C17.2449 22.0122 17.2678 22.1233 17.3122 22.2269C17.3566 22.3305 17.4217 22.4245 17.5037 22.5035C17.5851 22.5832 17.6819 22.6464 17.7885 22.6896C17.8951 22.7327 18.0095 22.7549 18.125 22.7549C18.2405 22.7549 18.3549 22.7327 18.4615 22.6896C18.5681 22.6464 18.6649 22.5832 18.7463 22.5035L22.2463 19.1035C22.3259 19.0227 22.3884 18.9273 22.43 18.823C22.5175 18.6161 22.5175 18.3839 22.43 18.177C22.3884 18.0727 22.3259 17.9773 22.2463 17.8965L18.7463 14.4965C18.6647 14.4172 18.5678 14.3544 18.4612 14.3115C18.3546 14.2686 18.2404 14.2465 18.125 14.2465C18.0096 14.2465 17.8954 14.2686 17.7888 14.3115C17.6822 14.3544 17.5853 14.4172 17.5037 14.4965C17.4222 14.5758 17.3575 14.6698 17.3133 14.7734C17.2691 14.8769 17.2464 14.9879 17.2464 15.1C17.2464 15.2121 17.2691 15.3231 17.3133 15.4266C17.3575 15.5302 17.4222 15.6242 17.5037 15.7035L19.5163 17.65H12.875C12.6429 17.65 12.4204 17.7396 12.2563 17.899C12.0922 18.0584 12 18.2746 12 18.5ZM23.375 10H14.625C13.9288 10 13.2611 10.2687 12.7688 10.7469C12.2766 11.2251 12 11.8737 12 12.55V15.1C12 15.3254 12.0922 15.5416 12.2563 15.701C12.4204 15.8604 12.6429 15.95 12.875 15.95C13.1071 15.95 13.3296 15.8604 13.4937 15.701C13.6578 15.5416 13.75 15.3254 13.75 15.1V12.55C13.75 12.3246 13.8422 12.1084 14.0063 11.949C14.1704 11.7896 14.3929 11.7 14.625 11.7H23.375C23.6071 11.7 23.8296 11.7896 23.9937 11.949C24.1578 12.1084 24.25 12.3246 24.25 12.55V24.45C24.25 24.6754 24.1578 24.8916 23.9937 25.051C23.8296 25.2104 23.6071 25.3 23.375 25.3H14.625C14.3929 25.3 14.1704 25.2104 14.0063 25.051C13.8422 24.8916 13.75 24.6754 13.75 24.45V21.9C13.75 21.6746 13.6578 21.4584 13.4937 21.299C13.3296 21.1396 13.1071 21.05 12.875 21.05C12.6429 21.05 12.4204 21.1396 12.2563 21.299C12.0922 21.4584 12 21.6746 12 21.9V24.45C12 25.1263 12.2766 25.7749 12.7688 26.2531C13.2611 26.7313 13.9288 27 14.625 27H23.375C24.0712 27 24.7389 26.7313 25.2312 26.2531C25.7234 25.7749 26 25.1263 26 24.45V12.55C26 11.8737 25.7234 11.2251 25.2312 10.7469C24.7389 10.2687 24.0712 10 23.375 10Z" fill="#FF0000"/>
<defs>
<linearGradient id="paint0_linear_6905_9473" x1="19" y1="38" x2="19" y2="-1.71358e-07" gradientUnits="userSpaceOnUse">
<stop stop-color="#FF3B30" stop-opacity="0"/>
<stop offset="1" stop-color="#FF3B30" stop-opacity="0.5"/>
</linearGradient>
</defs>
</svg>
