<svg width="160" height="109" viewBox="0 0 160 109" fill="none" xmlns="http://www.w3.org/2000/svg">
<path d="M6.57306 16.238V1.19604H9.31006L14.0021 9.66004L15.5431 12.857H15.6351C15.5737 12.0904 15.4971 11.2547 15.4051 10.35C15.3284 9.44537 15.2901 8.57137 15.2901 7.72804V1.19604H17.8431V16.238H15.1061L10.4141 7.77404L8.87306 4.57704H8.78106C8.8424 5.37437 8.9114 6.21004 8.98806 7.08404C9.08006 7.95804 9.12606 8.8167 9.12606 9.66004V16.238H6.57306ZM26.0598 16.514C25.1245 16.514 24.2505 16.284 23.4378 15.824C22.6251 15.3487 21.9658 14.674 21.4598 13.8C20.9538 12.9107 20.7008 11.845 20.7008 10.603C20.7008 9.3457 20.9538 8.28004 21.4598 7.40604C21.9658 6.5167 22.6251 5.84204 23.4378 5.38204C24.2505 4.9067 25.1245 4.66904 26.0598 4.66904C27.0105 4.66904 27.8921 4.9067 28.7048 5.38204C29.5175 5.84204 30.1768 6.5167 30.6828 7.40604C31.1888 8.28004 31.4418 9.3457 31.4418 10.603C31.4418 11.845 31.1888 12.9107 30.6828 13.8C30.1768 14.674 29.5175 15.3487 28.7048 15.824C27.8921 16.284 27.0105 16.514 26.0598 16.514ZM26.0598 14.352C26.8878 14.352 27.5395 14.007 28.0148 13.317C28.4901 12.627 28.7278 11.7224 28.7278 10.603C28.7278 9.46837 28.4901 8.55604 28.0148 7.86604C27.5395 7.17604 26.8878 6.83104 26.0598 6.83104C25.2318 6.83104 24.5801 7.17604 24.1048 7.86604C23.6448 8.55604 23.4148 9.46837 23.4148 10.603C23.4148 11.7224 23.6448 12.627 24.1048 13.317C24.5801 14.007 25.2318 14.352 26.0598 14.352ZM35.7881 16.238L32.7981 4.94504H35.4661L36.8231 10.81C36.9458 11.3467 37.0454 11.8834 37.1221 12.42C37.2141 12.9567 37.3138 13.501 37.4211 14.053H37.5131C37.6204 13.501 37.7278 12.9567 37.8351 12.42C37.9578 11.868 38.0881 11.3314 38.2261 10.81L39.6981 4.94504H42.1131L43.6081 10.81C43.7461 11.3467 43.8764 11.8834 43.9991 12.42C44.1218 12.9567 44.2444 13.501 44.3671 14.053H44.4591C44.5664 13.501 44.6661 12.9567 44.7581 12.42C44.8501 11.8834 44.9498 11.3467 45.0571 10.81L46.4141 4.94504H48.8981L46.0231 16.238H42.8721L41.5611 10.971C41.4384 10.4344 41.3234 9.90537 41.2161 9.38404C41.1088 8.84737 40.9938 8.28004 40.8711 7.68204H40.7791C40.6718 8.28004 40.5644 8.84737 40.4571 9.38404C40.3498 9.9207 40.2348 10.4574 40.1121 10.994L38.8241 16.238H35.7881ZM49.6921 20.424L49.1171 18.975C49.8685 18.6837 50.4435 18.285 50.8421 17.779C51.2561 17.2884 51.4555 16.7594 51.4401 16.192C51.4095 16.192 51.3711 16.192 51.3251 16.192C51.2945 16.192 51.2638 16.192 51.2331 16.192C50.7885 16.192 50.3898 16.054 50.0371 15.778C49.6998 15.4867 49.5311 15.0804 49.5311 14.559C49.5311 14.0684 49.7075 13.6774 50.0601 13.386C50.4128 13.0794 50.8268 12.926 51.3021 12.926C51.9308 12.926 52.4138 13.1637 52.7511 13.639C53.1038 14.1144 53.2801 14.7814 53.2801 15.64C53.2801 16.7594 52.9658 17.733 52.3371 18.561C51.7085 19.4044 50.8268 20.0254 49.6921 20.424ZM63.2296 16.514C62.2943 16.514 61.6273 16.2304 61.2286 15.663C60.8453 15.0957 60.6536 14.3214 60.6536 13.34V3.64184e-05H63.2986V13.478C63.2986 13.8 63.3599 14.03 63.4826 14.168C63.6053 14.2907 63.7356 14.352 63.8736 14.352C63.9349 14.352 63.9886 14.352 64.0346 14.352C64.0959 14.3367 64.1803 14.3214 64.2876 14.306L64.6326 16.284C64.4793 16.3454 64.2799 16.399 64.0346 16.445C63.8046 16.491 63.5363 16.514 63.2296 16.514ZM71.7278 16.514C70.6851 16.514 69.7421 16.284 68.8988 15.824C68.0554 15.3487 67.3884 14.674 66.8978 13.8C66.4071 12.9107 66.1618 11.845 66.1618 10.603C66.1618 9.37637 66.4071 8.31837 66.8978 7.42904C67.4038 6.5397 68.0554 5.85737 68.8528 5.38204C69.6501 4.9067 70.4858 4.66904 71.3598 4.66904C72.3871 4.66904 73.2458 4.89904 73.9358 5.35904C74.6258 5.8037 75.1471 6.43237 75.4998 7.24504C75.8524 8.04237 76.0288 8.97004 76.0288 10.028C76.0288 10.58 75.9904 11.0094 75.9138 11.316H68.7378C68.8604 12.3127 69.2208 13.087 69.8188 13.639C70.4168 14.191 71.1681 14.467 72.0728 14.467C72.5634 14.467 73.0158 14.398 73.4298 14.26C73.8591 14.1067 74.2808 13.8997 74.6948 13.639L75.5918 15.295C75.0551 15.6477 74.4571 15.939 73.7978 16.169C73.1384 16.399 72.4484 16.514 71.7278 16.514ZM68.7148 9.52204H73.7288C73.7288 8.64804 73.5371 7.9657 73.1538 7.47504C72.7704 6.96904 72.1954 6.71604 71.4288 6.71604C70.7694 6.71604 70.1791 6.96137 69.6578 7.45204C69.1518 7.92737 68.8374 8.61737 68.7148 9.52204ZM82.3094 16.514C81.006 16.514 80.0784 16.1384 79.5264 15.387C78.9897 14.6204 78.7214 13.6314 78.7214 12.42V7.03804H77.1114V5.06004L78.8594 4.94504L79.1814 1.86304H81.3894V4.94504H84.2644V7.03804H81.3894V12.42C81.3894 13.7387 81.9184 14.398 82.9764 14.398C83.1757 14.398 83.3827 14.375 83.5974 14.329C83.812 14.2677 83.996 14.2064 84.1494 14.145L84.6094 16.1C84.3027 16.2074 83.95 16.2994 83.5514 16.376C83.168 16.468 82.754 16.514 82.3094 16.514ZM89.5673 16.514C88.8006 16.514 88.034 16.3684 87.2673 16.077C86.5006 15.7704 85.8413 15.3947 85.2893 14.95L86.5313 13.248C87.0373 13.6314 87.5433 13.938 88.0493 14.168C88.5553 14.398 89.092 14.513 89.6593 14.513C90.2726 14.513 90.725 14.3827 91.0163 14.122C91.3076 13.8614 91.4533 13.5394 91.4533 13.156C91.4533 12.834 91.3306 12.5734 91.0853 12.374C90.8553 12.1594 90.5563 11.9754 90.1883 11.822C89.8203 11.6534 89.437 11.4924 89.0383 11.339C88.5476 11.155 88.057 10.9327 87.5663 10.672C87.091 10.396 86.7 10.051 86.3933 9.63704C86.0866 9.2077 85.9333 8.6787 85.9333 8.05004C85.9333 7.05337 86.3013 6.2407 87.0373 5.61204C87.7733 4.98337 88.77 4.66904 90.0273 4.66904C90.8246 4.66904 91.5376 4.80704 92.1663 5.08304C92.795 5.35904 93.3393 5.67337 93.7993 6.02604L92.5803 7.63604C92.1816 7.3447 91.7753 7.1147 91.3613 6.94604C90.9626 6.76204 90.541 6.67004 90.0963 6.67004C89.529 6.67004 89.1073 6.7927 88.8313 7.03804C88.5553 7.26804 88.4173 7.55937 88.4173 7.91204C88.4173 8.3567 88.6473 8.69404 89.1073 8.92404C89.5673 9.15404 90.104 9.37637 90.7173 9.59104C91.2386 9.77504 91.7446 10.005 92.2353 10.281C92.726 10.5417 93.1323 10.8867 93.4543 11.316C93.7916 11.7454 93.9603 12.3127 93.9603 13.018C93.9603 13.984 93.5846 14.812 92.8333 15.502C92.082 16.1767 90.9933 16.514 89.5673 16.514ZM100.926 16.238V4.94504H103.111L103.295 6.48604H103.387C103.862 5.98004 104.376 5.5507 104.928 5.19804C105.495 4.84537 106.132 4.66904 106.837 4.66904C107.665 4.66904 108.324 4.85304 108.815 5.22104C109.321 5.5737 109.704 6.06437 109.965 6.69304C110.502 6.11037 111.061 5.62737 111.644 5.24404C112.242 4.8607 112.894 4.66904 113.599 4.66904C114.795 4.66904 115.677 5.06004 116.244 5.84204C116.811 6.62404 117.095 7.72804 117.095 9.15404V16.238H114.427V9.49904C114.427 8.5637 114.281 7.90437 113.99 7.52104C113.714 7.1377 113.285 6.94604 112.702 6.94604C111.997 6.94604 111.207 7.4137 110.333 8.34904V16.238H107.688V9.49904C107.688 8.5637 107.542 7.90437 107.251 7.52104C106.975 7.1377 106.538 6.94604 105.94 6.94604C105.235 6.94604 104.445 7.4137 103.571 8.34904V16.238H100.926ZM123.047 16.514C122.066 16.514 121.261 16.2074 120.632 15.594C120.019 14.9807 119.712 14.1834 119.712 13.202C119.712 11.9907 120.241 11.0554 121.299 10.396C122.357 9.72137 124.044 9.26137 126.359 9.01604C126.344 8.41804 126.183 7.90437 125.876 7.47504C125.585 7.03037 125.056 6.80804 124.289 6.80804C123.737 6.80804 123.193 6.91537 122.656 7.13004C122.135 7.3447 121.621 7.60537 121.115 7.91204L120.149 6.14104C120.778 5.74237 121.483 5.39737 122.265 5.10604C123.062 4.8147 123.906 4.66904 124.795 4.66904C126.206 4.66904 127.256 5.0907 127.946 5.93404C128.651 6.76204 129.004 7.9657 129.004 9.54504V16.238H126.819L126.635 14.996H126.543C126.037 15.4254 125.493 15.7857 124.91 16.077C124.343 16.3684 123.722 16.514 123.047 16.514ZM123.898 14.444C124.358 14.444 124.772 14.3367 125.14 14.122C125.523 13.892 125.93 13.5854 126.359 13.202V10.672C124.826 10.8714 123.76 11.1704 123.162 11.569C122.564 11.9524 122.265 12.4277 122.265 12.995C122.265 13.501 122.418 13.869 122.725 14.099C123.032 14.329 123.423 14.444 123.898 14.444ZM132.169 16.238V3.64184e-05H134.768V10.143H134.837L139.023 4.94504H141.921L138.057 9.54504L142.312 16.238H139.437L136.539 11.339L134.768 13.363V16.238H132.169ZM148.477 16.514C147.434 16.514 146.491 16.284 145.648 15.824C144.804 15.3487 144.137 14.674 143.647 13.8C143.156 12.9107 142.911 11.845 142.911 10.603C142.911 9.37637 143.156 8.31837 143.647 7.42904C144.153 6.5397 144.804 5.85737 145.602 5.38204C146.399 4.9067 147.235 4.66904 148.109 4.66904C149.136 4.66904 149.995 4.89904 150.685 5.35904C151.375 5.8037 151.896 6.43237 152.249 7.24504C152.601 8.04237 152.778 8.97004 152.778 10.028C152.778 10.58 152.739 11.0094 152.663 11.316H145.487C145.609 12.3127 145.97 13.087 146.568 13.639C147.166 14.191 147.917 14.467 148.822 14.467C149.312 14.467 149.765 14.398 150.179 14.26C150.608 14.1067 151.03 13.8997 151.444 13.639L152.341 15.295C151.804 15.6477 151.206 15.939 150.547 16.169C149.887 16.399 149.197 16.514 148.477 16.514ZM145.464 9.52204H150.478C150.478 8.64804 150.286 7.9657 149.903 7.47504C149.519 6.96904 148.944 6.71604 148.178 6.71604C147.518 6.71604 146.928 6.96137 146.407 7.45204C145.901 7.92737 145.586 8.61737 145.464 9.52204ZM57.4525 74.238V65.038H55.9345V63.06L57.4525 62.945V61.772C57.4525 60.5914 57.7438 59.6254 58.3265 58.874C58.9091 58.1074 59.8675 57.724 61.2015 57.724C61.6001 57.724 61.9835 57.7624 62.3515 57.839C62.7195 57.9157 63.0261 58.0077 63.2715 58.115L62.7655 60.093C62.3515 59.909 61.9375 59.817 61.5235 59.817C60.5728 59.817 60.0975 60.4534 60.0975 61.726V62.945H62.3055V65.038H60.0975V74.238H57.4525ZM64.2923 74.238V62.945H66.4773L66.6613 64.946H66.7533C67.1519 64.21 67.6349 63.6504 68.2023 63.267C68.7696 62.8684 69.3523 62.669 69.9503 62.669C70.4869 62.669 70.9163 62.7457 71.2383 62.899L70.7783 65.199C70.5789 65.1377 70.3949 65.0917 70.2263 65.061C70.0576 65.0304 69.8506 65.015 69.6053 65.015C69.1606 65.015 68.6929 65.1914 68.2023 65.544C67.7116 65.8814 67.2899 66.4794 66.9373 67.338V74.238H64.2923ZM77.2708 74.514C76.3354 74.514 75.4614 74.284 74.6488 73.824C73.8361 73.3487 73.1768 72.674 72.6708 71.8C72.1648 70.9107 71.9118 69.845 71.9118 68.603C71.9118 67.3457 72.1648 66.28 72.6708 65.406C73.1768 64.5167 73.8361 63.842 74.6488 63.382C75.4614 62.9067 76.3354 62.669 77.2708 62.669C78.2214 62.669 79.1031 62.9067 79.9158 63.382C80.7284 63.842 81.3878 64.5167 81.8938 65.406C82.3998 66.28 82.6528 67.3457 82.6528 68.603C82.6528 69.845 82.3998 70.9107 81.8938 71.8C81.3878 72.674 80.7284 73.3487 79.9158 73.824C79.1031 74.284 78.2214 74.514 77.2708 74.514ZM77.2708 72.352C78.0988 72.352 78.7504 72.007 79.2258 71.317C79.7011 70.627 79.9388 69.7224 79.9388 68.603C79.9388 67.4684 79.7011 66.556 79.2258 65.866C78.7504 65.176 78.0988 64.831 77.2708 64.831C76.4428 64.831 75.7911 65.176 75.3158 65.866C74.8558 66.556 74.6258 67.4684 74.6258 68.603C74.6258 69.7224 74.8558 70.627 75.3158 71.317C75.7911 72.007 76.4428 72.352 77.2708 72.352ZM85.2708 74.238V62.945H87.4558L87.6398 64.486H87.7318C88.2071 63.98 88.7208 63.5507 89.2728 63.198C89.8401 62.8454 90.4765 62.669 91.1818 62.669C92.0098 62.669 92.6691 62.853 93.1598 63.221C93.6658 63.5737 94.0491 64.0644 94.3098 64.693C94.8465 64.1104 95.4061 63.6274 95.9888 63.244C96.5868 62.8607 97.2385 62.669 97.9438 62.669C99.1398 62.669 100.021 63.06 100.589 63.842C101.156 64.624 101.44 65.728 101.44 67.154V74.238H98.7718V67.499C98.7718 66.5637 98.6261 65.9044 98.3348 65.521C98.0588 65.1377 97.6295 64.946 97.0468 64.946C96.3415 64.946 95.5518 65.4137 94.6778 66.349V74.238H92.0328V67.499C92.0328 66.5637 91.8871 65.9044 91.5958 65.521C91.3198 65.1377 90.8828 64.946 90.2848 64.946C89.5795 64.946 88.7898 65.4137 87.9158 66.349V74.238H85.2708ZM41.4661 103.238V88.196H44.2031L48.8951 96.66L50.4361 99.857H50.5281C50.4668 99.0904 50.3901 98.2547 50.2981 97.35C50.2215 96.4454 50.1831 95.5714 50.1831 94.728V88.196H52.7361V103.238H49.9991L45.3071 94.774L43.7661 91.577H43.6741C43.7355 92.3744 43.8045 93.21 43.8811 94.084C43.9731 94.958 44.0191 95.8167 44.0191 96.66V103.238H41.4661ZM60.9529 103.514C60.0175 103.514 59.1435 103.284 58.3309 102.824C57.5182 102.349 56.8589 101.674 56.3529 100.8C55.8469 99.9107 55.5939 98.845 55.5939 97.603C55.5939 96.3457 55.8469 95.28 56.3529 94.406C56.8589 93.5167 57.5182 92.842 58.3309 92.382C59.1435 91.9067 60.0175 91.669 60.9529 91.669C61.9035 91.669 62.7852 91.9067 63.5979 92.382C64.4105 92.842 65.0699 93.5167 65.5759 94.406C66.0819 95.28 66.3349 96.3457 66.3349 97.603C66.3349 98.845 66.0819 99.9107 65.5759 100.8C65.0699 101.674 64.4105 102.349 63.5979 102.824C62.7852 103.284 61.9035 103.514 60.9529 103.514ZM60.9529 101.352C61.7809 101.352 62.4325 101.007 62.9079 100.317C63.3832 99.627 63.6209 98.7224 63.6209 97.603C63.6209 96.4684 63.3832 95.556 62.9079 94.866C62.4325 94.176 61.7809 93.831 60.9529 93.831C60.1249 93.831 59.4732 94.176 58.9979 94.866C58.5379 95.556 58.3079 96.4684 58.3079 97.603C58.3079 98.7224 58.5379 99.627 58.9979 100.317C59.4732 101.007 60.1249 101.352 60.9529 101.352ZM72.4153 103.514C71.112 103.514 70.1843 103.138 69.6323 102.387C69.0957 101.62 68.8273 100.631 68.8273 99.42V94.038H67.2173V92.06L68.9653 91.945L69.2873 88.863H71.4953V91.945H74.3703V94.038H71.4953V99.42C71.4953 100.739 72.0243 101.398 73.0823 101.398C73.2817 101.398 73.4887 101.375 73.7033 101.329C73.918 101.268 74.102 101.206 74.2553 101.145L74.7153 103.1C74.4087 103.207 74.056 103.299 73.6573 103.376C73.274 103.468 72.86 103.514 72.4153 103.514ZM76.7469 103.238V87H79.3919V91.186L79.2999 93.371C79.7752 92.9264 80.3042 92.5354 80.8869 92.198C81.4695 91.8454 82.1442 91.669 82.9109 91.669C84.1222 91.669 85.0039 92.06 85.5559 92.842C86.1079 93.624 86.3839 94.728 86.3839 96.154V103.238H83.7389V96.499C83.7389 95.5637 83.6009 94.9044 83.3249 94.521C83.0489 94.1377 82.5965 93.946 81.9679 93.946C81.4772 93.946 81.0402 94.0687 80.6569 94.314C80.2889 94.544 79.8672 94.889 79.3919 95.349V103.238H76.7469ZM89.5721 103.238V91.945H92.2171V103.238H89.5721ZM90.9061 89.967C90.4307 89.967 90.0474 89.829 89.7561 89.553C89.4647 89.277 89.3191 88.909 89.3191 88.449C89.3191 88.0044 89.4647 87.644 89.7561 87.368C90.0474 87.092 90.4307 86.954 90.9061 86.954C91.3814 86.954 91.7647 87.092 92.0561 87.368C92.3474 87.644 92.4931 88.0044 92.4931 88.449C92.4931 88.909 92.3474 89.277 92.0561 89.553C91.7647 89.829 91.3814 89.967 90.9061 89.967ZM95.5916 103.238V91.945H97.7766L97.9606 93.463H98.0526C98.5586 92.9724 99.1106 92.5507 99.7086 92.198C100.307 91.8454 100.989 91.669 101.756 91.669C102.967 91.669 103.849 92.06 104.401 92.842C104.953 93.624 105.229 94.728 105.229 96.154V103.238H102.584V96.499C102.584 95.5637 102.446 94.9044 102.17 94.521C101.894 94.1377 101.441 93.946 100.813 93.946C100.322 93.946 99.8849 94.0687 99.5016 94.314C99.1336 94.544 98.7119 94.889 98.2366 95.349V103.238H95.5916ZM112.395 108.229C111.505 108.229 110.7 108.122 109.98 107.907C109.274 107.692 108.715 107.363 108.301 106.918C107.902 106.489 107.703 105.944 107.703 105.285C107.703 104.35 108.239 103.545 109.313 102.87V102.778C109.021 102.594 108.776 102.349 108.577 102.042C108.393 101.735 108.301 101.352 108.301 100.892C108.301 100.447 108.423 100.049 108.669 99.696C108.929 99.328 109.221 99.029 109.543 98.799V98.707C109.159 98.4157 108.814 98.0094 108.508 97.488C108.216 96.9667 108.071 96.3764 108.071 95.717C108.071 94.843 108.278 94.107 108.692 93.509C109.106 92.911 109.65 92.4587 110.325 92.152C111.015 91.83 111.751 91.669 112.533 91.669C112.839 91.669 113.131 91.6997 113.407 91.761C113.698 91.807 113.959 91.8684 114.189 91.945H118.237V93.9H116.167C116.351 94.1147 116.504 94.3907 116.627 94.728C116.749 95.05 116.811 95.4104 116.811 95.809C116.811 96.637 116.619 97.3424 116.236 97.925C115.852 98.4924 115.339 98.9217 114.695 99.213C114.051 99.5044 113.33 99.65 112.533 99.65C112.287 99.65 112.034 99.627 111.774 99.581C111.513 99.535 111.252 99.4584 110.992 99.351C110.823 99.5044 110.685 99.6577 110.578 99.811C110.486 99.9644 110.44 100.171 110.44 100.432C110.44 100.754 110.57 101.007 110.831 101.191C111.107 101.375 111.59 101.467 112.28 101.467H114.281C115.645 101.467 116.673 101.689 117.363 102.134C118.068 102.563 118.421 103.269 118.421 104.25C118.421 104.986 118.175 105.653 117.685 106.251C117.194 106.864 116.496 107.347 115.592 107.7C114.687 108.053 113.621 108.229 112.395 108.229ZM112.533 97.994C113.069 97.994 113.529 97.7947 113.913 97.396C114.296 96.9974 114.488 96.4377 114.488 95.717C114.488 95.0117 114.296 94.4674 113.913 94.084C113.545 93.6854 113.085 93.486 112.533 93.486C111.981 93.486 111.513 93.6777 111.13 94.061C110.746 94.4444 110.555 94.9964 110.555 95.717C110.555 96.4377 110.746 96.9974 111.13 97.396C111.513 97.7947 111.981 97.994 112.533 97.994ZM112.809 106.504C113.713 106.504 114.449 106.32 115.017 105.952C115.584 105.584 115.868 105.162 115.868 104.687C115.868 104.242 115.691 103.943 115.339 103.79C115.001 103.637 114.511 103.56 113.867 103.56H112.326C111.712 103.56 111.199 103.506 110.785 103.399C110.202 103.844 109.911 104.342 109.911 104.894C109.911 105.4 110.171 105.791 110.693 106.067C111.214 106.358 111.919 106.504 112.809 106.504Z" fill="white"/>
<path d="M6.5062 45.562C5.3542 45.562 4.2022 45.346 3.0502 44.914C1.9162 44.482 0.899199 43.852 -0.000800777 43.024L2.2672 40.297C2.8972 40.837 3.5992 41.278 4.3732 41.62C5.1472 41.962 5.8942 42.133 6.6142 42.133C7.4422 42.133 8.0542 41.98 8.4502 41.674C8.8642 41.368 9.0712 40.954 9.0712 40.432C9.0712 39.874 8.8372 39.469 8.3692 39.217C7.9192 38.947 7.3072 38.65 6.5332 38.326L4.2382 37.354C3.6442 37.102 3.0772 36.769 2.5372 36.355C1.9972 35.923 1.5562 35.392 1.2142 34.762C0.872199 34.132 0.701199 33.394 0.701199 32.548C0.701199 31.576 0.962199 30.694 1.4842 29.902C2.0242 29.11 2.7622 28.48 3.6982 28.012C4.6522 27.544 5.7412 27.31 6.9652 27.31C7.9732 27.31 8.9812 27.508 9.9892 27.904C10.9972 28.3 11.8792 28.876 12.6352 29.632L10.6102 32.143C10.0342 31.693 9.4582 31.351 8.8822 31.117C8.3062 30.865 7.6672 30.739 6.9652 30.739C6.2812 30.739 5.7322 30.883 5.3182 31.171C4.9222 31.441 4.7242 31.828 4.7242 32.332C4.7242 32.872 4.9762 33.277 5.4802 33.547C6.0022 33.817 6.6412 34.105 7.3972 34.411L9.6652 35.329C10.7272 35.761 11.5732 36.355 12.2032 37.111C12.8332 37.867 13.1482 38.866 13.1482 40.108C13.1482 41.08 12.8872 41.98 12.3652 42.808C11.8432 43.636 11.0872 44.302 10.0972 44.806C9.1072 45.31 7.9102 45.562 6.5062 45.562ZM23.2911 45.562C21.7071 45.562 20.3121 45.193 19.1061 44.455C17.9181 43.717 16.9821 42.664 16.2981 41.296C15.6321 39.91 15.2991 38.263 15.2991 36.355C15.2991 34.429 15.6321 32.8 16.2981 31.468C16.9821 30.118 17.9181 29.092 19.1061 28.39C20.3121 27.67 21.7071 27.31 23.2911 27.31C24.8751 27.31 26.2611 27.67 27.4491 28.39C28.6551 29.092 29.5911 30.118 30.2571 31.468C30.9411 32.818 31.2831 34.447 31.2831 36.355C31.2831 38.263 30.9411 39.91 30.2571 41.296C29.5911 42.664 28.6551 43.717 27.4491 44.455C26.2611 45.193 24.8751 45.562 23.2911 45.562ZM23.2911 42.133C24.4971 42.133 25.4511 41.611 26.1531 40.567C26.8551 39.523 27.2061 38.119 27.2061 36.355C27.2061 34.591 26.8551 33.214 26.1531 32.224C25.4511 31.234 24.4971 30.739 23.2911 30.739C22.0851 30.739 21.1311 31.234 20.4291 32.224C19.7271 33.214 19.3761 34.591 19.3761 36.355C19.3761 38.119 19.7271 39.523 20.4291 40.567C21.1311 41.611 22.0851 42.133 23.2911 42.133ZM34.5932 45.238V27.634H38.9402L41.7752 35.464C41.9552 35.968 42.1262 36.499 42.2882 37.057C42.4502 37.615 42.6212 38.164 42.8012 38.704H42.9092C43.0892 38.164 43.2512 37.615 43.3952 37.057C43.5572 36.499 43.7282 35.968 43.9082 35.464L46.6892 27.634H51.0092V45.238H47.3912V38.785C47.3912 38.209 47.4182 37.57 47.4722 36.868C47.5442 36.148 47.6162 35.428 47.6882 34.708C47.7782 33.988 47.8502 33.349 47.9042 32.791H47.7962L46.3652 36.976L43.8542 43.699H41.6672L39.1562 36.976L37.7522 32.791H37.6442C37.7162 33.349 37.7882 33.988 37.8602 34.708C37.9322 35.428 37.9952 36.148 38.0492 36.868C38.1212 37.57 38.1572 38.209 38.1572 38.785V45.238H34.5932ZM55.1596 45.238V27.634H66.1756V30.982H59.1286V34.519H65.1226V37.84H59.1286V41.89H66.4456V45.238H55.1596ZM75.3568 45.238V27.634H79.7038L82.5388 35.464C82.7188 35.968 82.8898 36.499 83.0518 37.057C83.2138 37.615 83.3848 38.164 83.5648 38.704H83.6728C83.8528 38.164 84.0148 37.615 84.1588 37.057C84.3208 36.499 84.4918 35.968 84.6718 35.464L87.4528 27.634H91.7728V45.238H88.1548V38.785C88.1548 38.209 88.1818 37.57 88.2358 36.868C88.3078 36.148 88.3798 35.428 88.4518 34.708C88.5418 33.988 88.6138 33.349 88.6678 32.791H88.5598L87.1288 36.976L84.6178 43.699H82.4308L79.9198 36.976L78.5158 32.791H78.4078C78.4798 33.349 78.5518 33.988 78.6238 34.708C78.6958 35.428 78.7588 36.148 78.8128 36.868C78.8848 37.57 78.9208 38.209 78.9208 38.785V45.238H75.3568ZM103.078 45.562C101.494 45.562 100.099 45.193 98.8932 44.455C97.7052 43.717 96.7692 42.664 96.0852 41.296C95.4192 39.91 95.0862 38.263 95.0862 36.355C95.0862 34.429 95.4192 32.8 96.0852 31.468C96.7692 30.118 97.7052 29.092 98.8932 28.39C100.099 27.67 101.494 27.31 103.078 27.31C104.662 27.31 106.048 27.67 107.236 28.39C108.442 29.092 109.378 30.118 110.044 31.468C110.728 32.818 111.07 34.447 111.07 36.355C111.07 38.263 110.728 39.91 110.044 41.296C109.378 42.664 108.442 43.717 107.236 44.455C106.048 45.193 104.662 45.562 103.078 45.562ZM103.078 42.133C104.284 42.133 105.238 41.611 105.94 40.567C106.642 39.523 106.993 38.119 106.993 36.355C106.993 34.591 106.642 33.214 105.94 32.224C105.238 31.234 104.284 30.739 103.078 30.739C101.872 30.739 100.918 31.234 100.216 32.224C99.5142 33.214 99.1632 34.591 99.1632 36.355C99.1632 38.119 99.5142 39.523 100.216 40.567C100.918 41.611 101.872 42.133 103.078 42.133ZM114.38 45.238V27.634H118.457L123.047 36.382L124.775 40.27H124.883C124.811 39.334 124.712 38.29 124.586 37.138C124.46 35.986 124.397 34.888 124.397 33.844V27.634H128.177V45.238H124.1L119.51 36.463L117.782 32.629H117.674C117.764 33.601 117.863 34.645 117.971 35.761C118.097 36.877 118.16 37.957 118.16 39.001V45.238H114.38ZM132.336 45.238V27.634H143.352V30.982H136.305V34.519H142.299V37.84H136.305V41.89H143.622V45.238H132.336ZM150.152 45.238V38.974L144.833 27.634H149.099L150.665 31.684C150.917 32.35 151.16 32.998 151.394 33.628C151.628 34.24 151.862 34.888 152.096 35.572H152.204C152.456 34.888 152.708 34.24 152.96 33.628C153.212 32.998 153.455 32.35 153.689 31.684L155.282 27.634H159.44L154.121 38.974V45.238H150.152Z" fill="#E9FDD3"/>
</svg>
