<svg width="351" height="38" viewBox="0 0 351 38" fill="none" xmlns="http://www.w3.org/2000/svg">
<rect x="44" y="5" width="151" height="3" fill="#7E8295"/>
<rect x="195" y="5" width="125" height="3" fill="#7E8295"/>
<path d="M1.56044 34V24.844H3.22644L6.08244 29.996L7.02044 31.942H7.07644C7.0391 31.4753 6.99244 30.9667 6.93644 30.416C6.88977 29.8653 6.86644 29.3333 6.86644 28.82V24.844H8.42044V34H6.75444L3.89844 28.848L2.96044 26.902H2.90444C2.94177 27.3873 2.98377 27.896 3.03044 28.428C3.08644 28.96 3.11444 29.4827 3.11444 29.996V34H1.56044ZM13.4219 34.168C12.8526 34.168 12.3206 34.028 11.8259 33.748C11.3313 33.4587 10.9299 33.048 10.6219 32.516C10.3139 31.9747 10.1599 31.326 10.1599 30.57C10.1599 29.8047 10.3139 29.156 10.6219 28.624C10.9299 28.0827 11.3313 27.672 11.8259 27.392C12.3206 27.1027 12.8526 26.958 13.4219 26.958C14.0006 26.958 14.5373 27.1027 15.0319 27.392C15.5266 27.672 15.9279 28.0827 16.2359 28.624C16.5439 29.156 16.6979 29.8047 16.6979 30.57C16.6979 31.326 16.5439 31.9747 16.2359 32.516C15.9279 33.048 15.5266 33.4587 15.0319 33.748C14.5373 34.028 14.0006 34.168 13.4219 34.168ZM13.4219 32.852C13.9259 32.852 14.3226 32.642 14.6119 32.222C14.9013 31.802 15.0459 31.2513 15.0459 30.57C15.0459 29.8793 14.9013 29.324 14.6119 28.904C14.3226 28.484 13.9259 28.274 13.4219 28.274C12.9179 28.274 12.5213 28.484 12.2319 28.904C11.9519 29.324 11.8119 29.8793 11.8119 30.57C11.8119 31.2513 11.9519 31.802 12.2319 32.222C12.5213 32.642 12.9179 32.852 13.4219 32.852ZM18.2915 34V27.126H19.6215L19.7335 28.064H19.7895C20.0789 27.756 20.3915 27.4947 20.7275 27.28C21.0729 27.0653 21.4602 26.958 21.8895 26.958C22.3935 26.958 22.7949 27.07 23.0935 27.294C23.4015 27.5087 23.6349 27.8073 23.7935 28.19C24.1202 27.8353 24.4609 27.5413 24.8155 27.308C25.1795 27.0747 25.5762 26.958 26.0055 26.958C26.7335 26.958 27.2702 27.196 27.6155 27.672C27.9609 28.148 28.1335 28.82 28.1335 29.688V34H26.5095V29.898C26.5095 29.3287 26.4209 28.9273 26.2435 28.694C26.0755 28.4607 25.8142 28.344 25.4595 28.344C25.0302 28.344 24.5495 28.6287 24.0175 29.198V34H22.4075V29.898C22.4075 29.3287 22.3189 28.9273 22.1415 28.694C21.9735 28.4607 21.7075 28.344 21.3435 28.344C20.9142 28.344 20.4335 28.6287 19.9015 29.198V34H18.2915ZM30.0904 34V27.126H31.7004V34H30.0904ZM30.9024 25.922C30.613 25.922 30.3797 25.838 30.2024 25.67C30.025 25.502 29.9364 25.278 29.9364 24.998C29.9364 24.7273 30.025 24.508 30.2024 24.34C30.3797 24.172 30.613 24.088 30.9024 24.088C31.1917 24.088 31.425 24.172 31.6024 24.34C31.7797 24.508 31.8684 24.7273 31.8684 24.998C31.8684 25.278 31.7797 25.502 31.6024 25.67C31.425 25.838 31.1917 25.922 30.9024 25.922ZM33.7544 34V27.126H35.0844L35.1964 28.05H35.2524C35.5604 27.7513 35.8964 27.4947 36.2604 27.28C36.6244 27.0653 37.0398 26.958 37.5064 26.958C38.2438 26.958 38.7804 27.196 39.1164 27.672C39.4524 28.148 39.6204 28.82 39.6204 29.688V34H38.0104V29.898C38.0104 29.3287 37.9264 28.9273 37.7584 28.694C37.5904 28.4607 37.3151 28.344 36.9324 28.344C36.6338 28.344 36.3678 28.4187 36.1344 28.568C35.9104 28.708 35.6538 28.918 35.3644 29.198V34H33.7544ZM44.5284 34.168C43.8937 34.168 43.3197 34.028 42.8064 33.748C42.2931 33.4587 41.8871 33.048 41.5884 32.516C41.2897 31.9747 41.1404 31.326 41.1404 30.57C41.1404 29.8233 41.2897 29.1793 41.5884 28.638C41.8964 28.0967 42.2931 27.6813 42.7784 27.392C43.2637 27.1027 43.7724 26.958 44.3044 26.958C44.9297 26.958 45.4524 27.098 45.8724 27.378C46.2924 27.6487 46.6097 28.0313 46.8244 28.526C47.0391 29.0113 47.1464 29.576 47.1464 30.22C47.1464 30.556 47.1231 30.8173 47.0764 31.004H42.7084C42.7831 31.6107 43.0024 32.082 43.3664 32.418C43.7304 32.754 44.1877 32.922 44.7384 32.922C45.0371 32.922 45.3124 32.88 45.5644 32.796C45.8257 32.7027 46.0824 32.5767 46.3344 32.418L46.8804 33.426C46.5537 33.6407 46.1897 33.818 45.7884 33.958C45.3871 34.098 44.9671 34.168 44.5284 34.168ZM42.6944 29.912H45.7464C45.7464 29.38 45.6297 28.9647 45.3964 28.666C45.1631 28.358 44.8131 28.204 44.3464 28.204C43.9451 28.204 43.5857 28.3533 43.2684 28.652C42.9604 28.9413 42.7691 29.3613 42.6944 29.912ZM51.6241 34.168C50.9894 34.168 50.4154 34.028 49.9021 33.748C49.3888 33.4587 48.9828 33.048 48.6841 32.516C48.3854 31.9747 48.2361 31.326 48.2361 30.57C48.2361 29.8233 48.3854 29.1793 48.6841 28.638C48.9921 28.0967 49.3888 27.6813 49.8741 27.392C50.3594 27.1027 50.8681 26.958 51.4001 26.958C52.0254 26.958 52.5481 27.098 52.9681 27.378C53.3881 27.6487 53.7054 28.0313 53.9201 28.526C54.1348 29.0113 54.2421 29.576 54.2421 30.22C54.2421 30.556 54.2188 30.8173 54.1721 31.004H49.8041C49.8788 31.6107 50.0981 32.082 50.4621 32.418C50.8261 32.754 51.2834 32.922 51.8341 32.922C52.1328 32.922 52.4081 32.88 52.6601 32.796C52.9214 32.7027 53.1781 32.5767 53.4301 32.418L53.9761 33.426C53.6494 33.6407 53.2854 33.818 52.8841 33.958C52.4828 34.098 52.0628 34.168 51.6241 34.168ZM49.7901 29.912H52.8421C52.8421 29.38 52.7254 28.9647 52.4921 28.666C52.2588 28.358 51.9088 28.204 51.4421 28.204C51.0408 28.204 50.6814 28.3533 50.3641 28.652C50.0561 28.9413 49.8648 29.3613 49.7901 29.912ZM60.9905 34.168C60.1319 34.168 59.4459 33.8507 58.9325 33.216C58.4192 32.5813 58.1625 31.6993 58.1625 30.57C58.1625 29.8233 58.2979 29.1793 58.5685 28.638C58.8485 28.0967 59.2125 27.6813 59.6605 27.392C60.1085 27.1027 60.5799 26.958 61.0745 26.958C61.4665 26.958 61.7979 27.028 62.0685 27.168C62.3485 27.2987 62.6192 27.4807 62.8805 27.714L62.8245 26.608V24.116H64.4345V34H63.1045L62.9925 33.258H62.9365C62.6845 33.51 62.3905 33.7247 62.0545 33.902C61.7185 34.0793 61.3639 34.168 60.9905 34.168ZM61.3825 32.838C61.8959 32.838 62.3765 32.5813 62.8245 32.068V28.862C62.5912 28.6473 62.3579 28.498 62.1245 28.414C61.8912 28.33 61.6579 28.288 61.4245 28.288C60.9859 28.288 60.6079 28.4887 60.2905 28.89C59.9825 29.282 59.8285 29.8373 59.8285 30.556C59.8285 31.2933 59.9639 31.858 60.2345 32.25C60.5052 32.642 60.8879 32.838 61.3825 32.838ZM69.4249 34.168C68.7902 34.168 68.2162 34.028 67.7029 33.748C67.1896 33.4587 66.7836 33.048 66.4849 32.516C66.1862 31.9747 66.0369 31.326 66.0369 30.57C66.0369 29.8233 66.1862 29.1793 66.4849 28.638C66.7929 28.0967 67.1896 27.6813 67.6749 27.392C68.1602 27.1027 68.6689 26.958 69.2009 26.958C69.8262 26.958 70.3489 27.098 70.7689 27.378C71.1889 27.6487 71.5062 28.0313 71.7209 28.526C71.9356 29.0113 72.0429 29.576 72.0429 30.22C72.0429 30.556 72.0196 30.8173 71.9729 31.004H67.6049C67.6796 31.6107 67.8989 32.082 68.2629 32.418C68.6269 32.754 69.0842 32.922 69.6349 32.922C69.9336 32.922 70.2089 32.88 70.4609 32.796C70.7222 32.7027 70.9789 32.5767 71.2309 32.418L71.7769 33.426C71.4502 33.6407 71.0862 33.818 70.6849 33.958C70.2836 34.098 69.8636 34.168 69.4249 34.168ZM67.5909 29.912H70.6429C70.6429 29.38 70.5262 28.9647 70.2929 28.666C70.0596 28.358 69.7096 28.204 69.2429 28.204C68.8416 28.204 68.4822 28.3533 68.1649 28.652C67.8569 28.9413 67.6656 29.3613 67.5909 29.912ZM75.8659 34.168C75.0725 34.168 74.5079 33.9393 74.1719 33.482C73.8452 33.0153 73.6819 32.4133 73.6819 31.676V28.4H72.7019V27.196L73.7659 27.126L73.9619 25.25H75.3059V27.126H77.0559V28.4H75.3059V31.676C75.3059 32.4787 75.6279 32.88 76.2719 32.88C76.3932 32.88 76.5192 32.866 76.6499 32.838C76.7805 32.8007 76.8925 32.7633 76.9859 32.726L77.2659 33.916C77.0792 33.9813 76.8645 34.0373 76.6219 34.084C76.3885 34.14 76.1365 34.168 75.8659 34.168ZM79.8677 34.168C79.2704 34.168 78.7804 33.9813 78.3977 33.608C78.0244 33.2347 77.8377 32.7493 77.8377 32.152C77.8377 31.4147 78.1597 30.8453 78.8037 30.444C79.4477 30.0333 80.4744 29.7533 81.8837 29.604C81.8744 29.24 81.7764 28.9273 81.5897 28.666C81.4124 28.3953 81.0904 28.26 80.6237 28.26C80.2877 28.26 79.9564 28.3253 79.6297 28.456C79.3124 28.5867 78.9997 28.7453 78.6917 28.932L78.1037 27.854C78.4864 27.6113 78.9157 27.4013 79.3917 27.224C79.877 27.0467 80.3904 26.958 80.9317 26.958C81.7904 26.958 82.4297 27.2147 82.8497 27.728C83.279 28.232 83.4937 28.9647 83.4937 29.926V34H82.1637L82.0517 33.244H81.9957C81.6877 33.5053 81.3564 33.7247 81.0017 33.902C80.6564 34.0793 80.2784 34.168 79.8677 34.168ZM80.3857 32.908C80.6657 32.908 80.9177 32.8427 81.1417 32.712C81.375 32.572 81.6224 32.3853 81.8837 32.152V30.612C80.9504 30.7333 80.3017 30.9153 79.9377 31.158C79.5737 31.3913 79.3917 31.6807 79.3917 32.026C79.3917 32.334 79.485 32.558 79.6717 32.698C79.8584 32.838 80.0964 32.908 80.3857 32.908ZM85.4204 34V27.126H87.0304V34H85.4204ZM86.2324 25.922C85.9431 25.922 85.7098 25.838 85.5324 25.67C85.3551 25.502 85.2664 25.278 85.2664 24.998C85.2664 24.7273 85.3551 24.508 85.5324 24.34C85.7098 24.172 85.9431 24.088 86.2324 24.088C86.5218 24.088 86.7551 24.172 86.9324 24.34C87.1098 24.508 87.1984 24.7273 87.1984 24.998C87.1984 25.278 87.1098 25.502 86.9324 25.67C86.7551 25.838 86.5218 25.922 86.2324 25.922ZM90.6525 34.168C90.0832 34.168 89.6772 33.9953 89.4345 33.65C89.2012 33.3047 89.0845 32.8333 89.0845 32.236V24.116H90.6945V32.32C90.6945 32.516 90.7318 32.656 90.8065 32.74C90.8812 32.8147 90.9605 32.852 91.0445 32.852C91.0818 32.852 91.1145 32.852 91.1425 32.852C91.1798 32.8427 91.2312 32.8333 91.2965 32.824L91.5065 34.028C91.4132 34.0653 91.2918 34.098 91.1425 34.126C91.0025 34.154 90.8392 34.168 90.6525 34.168ZM94.8033 34.168C94.3366 34.168 93.8699 34.0793 93.4033 33.902C92.9366 33.7153 92.5353 33.4867 92.1993 33.216L92.9553 32.18C93.2633 32.4133 93.5713 32.6 93.8793 32.74C94.1873 32.88 94.5139 32.95 94.8593 32.95C95.2326 32.95 95.5079 32.8707 95.6853 32.712C95.8626 32.5533 95.9513 32.3573 95.9513 32.124C95.9513 31.928 95.8766 31.7693 95.7273 31.648C95.5873 31.5173 95.4053 31.4053 95.1813 31.312C94.9573 31.2093 94.7239 31.1113 94.4813 31.018C94.1826 30.906 93.8839 30.7707 93.5853 30.612C93.2959 30.444 93.0579 30.234 92.8713 29.982C92.6846 29.7207 92.5913 29.3987 92.5913 29.016C92.5913 28.4093 92.8153 27.9147 93.2633 27.532C93.7113 27.1493 94.3179 26.958 95.0833 26.958C95.5686 26.958 96.0026 27.042 96.3853 27.21C96.7679 27.378 97.0993 27.5693 97.3793 27.784L96.6373 28.764C96.3946 28.5867 96.1473 28.4467 95.8953 28.344C95.6526 28.232 95.3959 28.176 95.1253 28.176C94.7799 28.176 94.5233 28.2507 94.3553 28.4C94.1873 28.54 94.1033 28.7173 94.1033 28.932C94.1033 29.2027 94.2433 29.408 94.5233 29.548C94.8033 29.688 95.1299 29.8233 95.5033 29.954C95.8206 30.066 96.1286 30.206 96.4273 30.374C96.7259 30.5327 96.9733 30.7427 97.1693 31.004C97.3746 31.2653 97.4773 31.6107 97.4773 32.04C97.4773 32.628 97.2486 33.132 96.7913 33.552C96.3339 33.9627 95.6713 34.168 94.8033 34.168Z" fill="#002949"/>
<path d="M298.31 34.168C297.545 34.168 296.859 33.9813 296.252 33.608C295.655 33.2253 295.179 32.6793 294.824 31.97C294.479 31.2607 294.306 30.4067 294.306 29.408C294.306 28.4187 294.483 27.5693 294.838 26.86C295.193 26.1507 295.678 25.6047 296.294 25.222C296.91 24.8393 297.605 24.648 298.38 24.648C298.94 24.648 299.435 24.7647 299.864 24.998C300.293 25.222 300.639 25.4833 300.9 25.782L300.27 26.538C300.027 26.2767 299.752 26.0667 299.444 25.908C299.136 25.7493 298.786 25.67 298.394 25.67C297.815 25.67 297.307 25.824 296.868 26.132C296.439 26.4307 296.103 26.8553 295.86 27.406C295.627 27.9567 295.51 28.6147 295.51 29.38C295.51 30.1453 295.627 30.8127 295.86 31.382C296.093 31.942 296.42 32.376 296.84 32.684C297.269 32.992 297.773 33.146 298.352 33.146C298.791 33.146 299.183 33.0527 299.528 32.866C299.873 32.6793 300.191 32.4273 300.48 32.11L301.124 32.838C300.76 33.258 300.349 33.5847 299.892 33.818C299.435 34.0513 298.907 34.168 298.31 34.168ZM305.37 34.168C304.82 34.168 304.302 34.028 303.816 33.748C303.34 33.468 302.953 33.062 302.654 32.53C302.365 31.998 302.22 31.3587 302.22 30.612C302.22 29.8467 302.365 29.198 302.654 28.666C302.953 28.134 303.34 27.728 303.816 27.448C304.302 27.168 304.82 27.028 305.37 27.028C305.93 27.028 306.448 27.168 306.924 27.448C307.4 27.728 307.783 28.134 308.072 28.666C308.371 29.198 308.52 29.8467 308.52 30.612C308.52 31.3587 308.371 31.998 308.072 32.53C307.783 33.062 307.4 33.468 306.924 33.748C306.448 34.028 305.93 34.168 305.37 34.168ZM305.37 33.216C305.958 33.216 306.43 32.978 306.784 32.502C307.148 32.0167 307.33 31.3867 307.33 30.612C307.33 29.828 307.148 29.1933 306.784 28.708C306.43 28.2227 305.958 27.98 305.37 27.98C304.792 27.98 304.32 28.2227 303.956 28.708C303.592 29.1933 303.41 29.828 303.41 30.612C303.41 31.3867 303.592 32.0167 303.956 32.502C304.32 32.978 304.792 33.216 305.37 33.216ZM310.312 34V27.196H311.264L311.362 28.176H311.404C311.703 27.8493 312.029 27.5787 312.384 27.364C312.739 27.14 313.117 27.028 313.518 27.028C314.041 27.028 314.447 27.1447 314.736 27.378C315.035 27.602 315.254 27.9193 315.394 28.33C315.749 27.9473 316.108 27.6347 316.472 27.392C316.836 27.1493 317.223 27.028 317.634 27.028C318.334 27.028 318.852 27.2567 319.188 27.714C319.533 28.162 319.706 28.82 319.706 29.688V34H318.558V29.842C318.558 29.2073 318.455 28.7453 318.25 28.456C318.045 28.1667 317.727 28.022 317.298 28.022C316.794 28.022 316.225 28.372 315.59 29.072V34H314.442V29.842C314.442 29.2073 314.339 28.7453 314.134 28.456C313.929 28.1667 313.607 28.022 313.168 28.022C312.664 28.022 312.095 28.372 311.46 29.072V34H310.312ZM321.919 36.87V27.196H322.871L322.969 27.98H323.011C323.319 27.7187 323.655 27.4947 324.019 27.308C324.393 27.1213 324.78 27.028 325.181 27.028C326.059 27.028 326.726 27.3453 327.183 27.98C327.641 28.6053 327.869 29.4453 327.869 30.5C327.869 31.2653 327.729 31.9233 327.449 32.474C327.179 33.0247 326.819 33.4447 326.371 33.734C325.933 34.0233 325.452 34.168 324.929 34.168C324.612 34.168 324.295 34.098 323.977 33.958C323.669 33.818 323.357 33.6267 323.039 33.384L323.067 34.574V36.87H321.919ZM324.733 33.202C325.293 33.202 325.755 32.964 326.119 32.488C326.493 32.0027 326.679 31.34 326.679 30.5C326.679 29.7533 326.539 29.1513 326.259 28.694C325.989 28.2273 325.531 27.994 324.887 27.994C324.598 27.994 324.304 28.0733 324.005 28.232C323.716 28.3907 323.403 28.6193 323.067 28.918V32.488C323.375 32.7493 323.674 32.936 323.963 33.048C324.253 33.1507 324.509 33.202 324.733 33.202ZM330.903 34.168C330.474 34.168 330.161 34.0373 329.965 33.776C329.778 33.5053 329.685 33.1227 329.685 32.628V24.032H330.833V32.712C330.833 32.8893 330.866 33.02 330.931 33.104C330.996 33.1787 331.071 33.216 331.155 33.216C331.192 33.216 331.225 33.216 331.253 33.216C331.29 33.2067 331.342 33.1973 331.407 33.188L331.561 34.056C331.486 34.0933 331.398 34.1213 331.295 34.14C331.192 34.1587 331.062 34.168 330.903 34.168ZM336.011 34.168C335.405 34.168 334.854 34.028 334.359 33.748C333.865 33.4587 333.473 33.048 333.183 32.516C332.894 31.984 332.749 31.3493 332.749 30.612C332.749 29.8653 332.894 29.226 333.183 28.694C333.482 28.162 333.865 27.7513 334.331 27.462C334.798 27.1727 335.288 27.028 335.801 27.028C336.669 27.028 337.337 27.3173 337.803 27.896C338.279 28.4747 338.517 29.2493 338.517 30.22C338.517 30.3413 338.513 30.4627 338.503 30.584C338.503 30.696 338.494 30.794 338.475 30.878H333.883C333.93 31.5967 334.154 32.1707 334.555 32.6C334.966 33.0293 335.498 33.244 336.151 33.244C336.478 33.244 336.777 33.1973 337.047 33.104C337.327 33.0013 337.593 32.8707 337.845 32.712L338.251 33.468C337.962 33.6547 337.631 33.818 337.257 33.958C336.893 34.098 336.478 34.168 336.011 34.168ZM333.869 30.052H337.509C337.509 29.3613 337.36 28.8387 337.061 28.484C336.772 28.12 336.361 27.938 335.829 27.938C335.353 27.938 334.924 28.1247 334.541 28.498C334.168 28.862 333.944 29.38 333.869 30.052ZM342.204 34.168C341.476 34.168 340.967 33.958 340.678 33.538C340.398 33.118 340.258 32.572 340.258 31.9V28.134H339.25V27.266L340.314 27.196L340.454 25.292H341.42V27.196H343.254V28.134H341.42V31.914C341.42 32.334 341.495 32.6607 341.644 32.894C341.803 33.118 342.078 33.23 342.47 33.23C342.591 33.23 342.722 33.2113 342.862 33.174C343.002 33.1273 343.128 33.0853 343.24 33.048L343.464 33.916C343.277 33.9813 343.072 34.0373 342.848 34.084C342.633 34.14 342.419 34.168 342.204 34.168ZM347.359 34.168C346.752 34.168 346.202 34.028 345.707 33.748C345.212 33.4587 344.82 33.048 344.531 32.516C344.242 31.984 344.097 31.3493 344.097 30.612C344.097 29.8653 344.242 29.226 344.531 28.694C344.83 28.162 345.212 27.7513 345.679 27.462C346.146 27.1727 346.636 27.028 347.149 27.028C348.017 27.028 348.684 27.3173 349.151 27.896C349.627 28.4747 349.865 29.2493 349.865 30.22C349.865 30.3413 349.86 30.4627 349.851 30.584C349.851 30.696 349.842 30.794 349.823 30.878H345.231C345.278 31.5967 345.502 32.1707 345.903 32.6C346.314 33.0293 346.846 33.244 347.499 33.244C347.826 33.244 348.124 33.1973 348.395 33.104C348.675 33.0013 348.941 32.8707 349.193 32.712L349.599 33.468C349.31 33.6547 348.978 33.818 348.605 33.958C348.241 34.098 347.826 34.168 347.359 34.168ZM345.217 30.052H348.857C348.857 29.3613 348.708 28.8387 348.409 28.484C348.12 28.12 347.709 27.938 347.177 27.938C346.701 27.938 346.272 28.1247 345.889 28.498C345.516 28.862 345.292 29.38 345.217 30.052Z" fill="#7E8295"/>
<path d="M146.38 33.8438V24.6597H147.584L150.902 30.4277L151.896 32.3317H151.952C151.924 31.8651 151.891 31.3844 151.854 30.8897C151.826 30.3857 151.812 29.8911 151.812 29.4057V24.6597H152.918V33.8438H151.714L148.382 28.0617L147.388 26.1717H147.332C147.369 26.6291 147.402 27.1004 147.43 27.5857C147.467 28.0711 147.486 28.5564 147.486 29.0417V33.8438H146.38ZM157.979 34.0118C157.428 34.0118 156.91 33.8717 156.425 33.5917C155.949 33.3117 155.561 32.9057 155.263 32.3737C154.973 31.8417 154.829 31.2024 154.829 30.4557C154.829 29.6904 154.973 29.0417 155.263 28.5097C155.561 27.9777 155.949 27.5717 156.425 27.2917C156.91 27.0117 157.428 26.8717 157.979 26.8717C158.539 26.8717 159.057 27.0117 159.533 27.2917C160.009 27.5717 160.391 27.9777 160.681 28.5097C160.979 29.0417 161.129 29.6904 161.129 30.4557C161.129 31.2024 160.979 31.8417 160.681 32.3737C160.391 32.9057 160.009 33.3117 159.533 33.5917C159.057 33.8717 158.539 34.0118 157.979 34.0118ZM157.979 33.0597C158.567 33.0597 159.038 32.8217 159.393 32.3457C159.757 31.8604 159.939 31.2304 159.939 30.4557C159.939 29.6717 159.757 29.0371 159.393 28.5517C159.038 28.0664 158.567 27.8237 157.979 27.8237C157.4 27.8237 156.929 28.0664 156.565 28.5517C156.201 29.0371 156.019 29.6717 156.019 30.4557C156.019 31.2304 156.201 31.8604 156.565 32.3457C156.929 32.8217 157.4 33.0597 157.979 33.0597ZM162.92 33.8438V27.0397H163.872L163.97 28.0197H164.012C164.311 27.6931 164.638 27.4224 164.992 27.2077C165.347 26.9837 165.725 26.8717 166.126 26.8717C166.649 26.8717 167.055 26.9884 167.344 27.2217C167.643 27.4457 167.862 27.7631 168.002 28.1737C168.357 27.7911 168.716 27.4784 169.08 27.2357C169.444 26.9931 169.832 26.8717 170.242 26.8717C170.942 26.8717 171.46 27.1004 171.796 27.5577C172.142 28.0057 172.314 28.6637 172.314 29.5317V33.8438H171.166V29.6857C171.166 29.0511 171.064 28.5891 170.858 28.2997C170.653 28.0104 170.336 27.8657 169.906 27.8657C169.402 27.8657 168.833 28.2157 168.198 28.9157V33.8438H167.05V29.6857C167.05 29.0511 166.948 28.5891 166.742 28.2997C166.537 28.0104 166.215 27.8657 165.776 27.8657C165.272 27.8657 164.703 28.2157 164.068 28.9157V33.8438H162.92ZM174.528 33.8438V27.0397H175.676V33.8438H174.528ZM175.116 25.6397C174.892 25.6397 174.705 25.5744 174.556 25.4437C174.416 25.3037 174.346 25.1171 174.346 24.8837C174.346 24.6597 174.416 24.4777 174.556 24.3377C174.705 24.1977 174.892 24.1277 175.116 24.1277C175.34 24.1277 175.522 24.1977 175.662 24.3377C175.811 24.4777 175.886 24.6597 175.886 24.8837C175.886 25.1171 175.811 25.3037 175.662 25.4437C175.522 25.5744 175.34 25.6397 175.116 25.6397ZM177.973 33.8438V27.0397H178.925L179.023 28.0197H179.065C179.392 27.6931 179.737 27.4224 180.101 27.2077C180.465 26.9837 180.881 26.8717 181.347 26.8717C182.066 26.8717 182.589 27.1004 182.915 27.5577C183.251 28.0057 183.419 28.6637 183.419 29.5317V33.8438H182.271V29.6857C182.271 29.0511 182.169 28.5891 181.963 28.2997C181.758 28.0104 181.431 27.8657 180.983 27.8657C180.638 27.8657 180.325 27.9544 180.045 28.1317C179.775 28.3091 179.467 28.5704 179.121 28.9157V33.8438H177.973ZM188.387 34.0118C187.781 34.0118 187.23 33.8717 186.735 33.5917C186.241 33.3024 185.849 32.8917 185.559 32.3597C185.27 31.8277 185.125 31.1931 185.125 30.4557C185.125 29.7091 185.27 29.0697 185.559 28.5377C185.858 28.0057 186.241 27.5951 186.707 27.3057C187.174 27.0164 187.664 26.8717 188.177 26.8717C189.045 26.8717 189.713 27.1611 190.179 27.7397C190.655 28.3184 190.893 29.0931 190.893 30.0637C190.893 30.1851 190.889 30.3064 190.879 30.4277C190.879 30.5397 190.87 30.6377 190.851 30.7217H186.259C186.306 31.4404 186.53 32.0144 186.931 32.4437C187.342 32.8731 187.874 33.0877 188.527 33.0877C188.854 33.0877 189.153 33.0411 189.423 32.9477C189.703 32.8451 189.969 32.7144 190.221 32.5557L190.627 33.3117C190.338 33.4984 190.007 33.6617 189.633 33.8017C189.269 33.9418 188.854 34.0118 188.387 34.0118ZM186.245 29.8957H189.885C189.885 29.2051 189.736 28.6824 189.437 28.3277C189.148 27.9637 188.737 27.7817 188.205 27.7817C187.729 27.7817 187.3 27.9684 186.917 28.3417C186.544 28.7057 186.32 29.2237 186.245 29.8957ZM195.333 34.0118C194.726 34.0118 194.175 33.8717 193.681 33.5917C193.186 33.3024 192.794 32.8917 192.505 32.3597C192.215 31.8277 192.071 31.1931 192.071 30.4557C192.071 29.7091 192.215 29.0697 192.505 28.5377C192.803 28.0057 193.186 27.5951 193.653 27.3057C194.119 27.0164 194.609 26.8717 195.123 26.8717C195.991 26.8717 196.658 27.1611 197.125 27.7397C197.601 28.3184 197.839 29.0931 197.839 30.0637C197.839 30.1851 197.834 30.3064 197.825 30.4277C197.825 30.5397 197.815 30.6377 197.797 30.7217H193.205C193.251 31.4404 193.475 32.0144 193.877 32.4437C194.287 32.8731 194.819 33.0877 195.473 33.0877C195.799 33.0877 196.098 33.0411 196.369 32.9477C196.649 32.8451 196.915 32.7144 197.167 32.5557L197.573 33.3117C197.283 33.4984 196.952 33.6617 196.579 33.8017C196.215 33.9418 195.799 34.0118 195.333 34.0118ZM193.191 29.8957H196.831C196.831 29.2051 196.681 28.6824 196.383 28.3277C196.093 27.9637 195.683 27.7817 195.151 27.7817C194.675 27.7817 194.245 27.9684 193.863 28.3417C193.489 28.7057 193.265 29.2237 193.191 29.8957ZM205.907 34.0118C205.141 34.0118 204.455 33.8251 203.849 33.4517C203.251 33.0691 202.775 32.5231 202.421 31.8137C202.075 31.1044 201.903 30.2504 201.903 29.2517C201.903 28.2624 202.08 27.4131 202.435 26.7037C202.789 25.9944 203.275 25.4484 203.891 25.0657C204.507 24.6831 205.202 24.4917 205.977 24.4917C206.537 24.4917 207.031 24.6084 207.461 24.8417C207.89 25.0657 208.235 25.3271 208.497 25.6257L207.867 26.3817C207.624 26.1204 207.349 25.9104 207.041 25.7517C206.733 25.5931 206.383 25.5137 205.991 25.5137C205.412 25.5137 204.903 25.6677 204.465 25.9757C204.035 26.2744 203.699 26.6991 203.457 27.2497C203.223 27.8004 203.107 28.4584 203.107 29.2237C203.107 29.9891 203.223 30.6564 203.457 31.2257C203.69 31.7857 204.017 32.2197 204.437 32.5277C204.866 32.8357 205.37 32.9897 205.949 32.9897C206.387 32.9897 206.779 32.8964 207.125 32.7097C207.47 32.5231 207.787 32.2711 208.077 31.9537L208.721 32.6817C208.357 33.1017 207.946 33.4284 207.489 33.6617C207.031 33.8951 206.504 34.0118 205.907 34.0118ZM212.967 34.0118C212.416 34.0118 211.898 33.8717 211.413 33.5917C210.937 33.3117 210.55 32.9057 210.251 32.3737C209.962 31.8417 209.817 31.2024 209.817 30.4557C209.817 29.6904 209.962 29.0417 210.251 28.5097C210.55 27.9777 210.937 27.5717 211.413 27.2917C211.898 27.0117 212.416 26.8717 212.967 26.8717C213.527 26.8717 214.045 27.0117 214.521 27.2917C214.997 27.5717 215.38 27.9777 215.669 28.5097C215.968 29.0417 216.117 29.6904 216.117 30.4557C216.117 31.2024 215.968 31.8417 215.669 32.3737C215.38 32.9057 214.997 33.3117 214.521 33.5917C214.045 33.8717 213.527 34.0118 212.967 34.0118ZM212.967 33.0597C213.555 33.0597 214.026 32.8217 214.381 32.3457C214.745 31.8604 214.927 31.2304 214.927 30.4557C214.927 29.6717 214.745 29.0371 214.381 28.5517C214.026 28.0664 213.555 27.8237 212.967 27.8237C212.388 27.8237 211.917 28.0664 211.553 28.5517C211.189 29.0371 211.007 29.6717 211.007 30.4557C211.007 31.2304 211.189 31.8604 211.553 32.3457C211.917 32.8217 212.388 33.0597 212.967 33.0597ZM217.909 33.8438V27.0397H218.861L218.959 28.0197H219.001C219.327 27.6931 219.673 27.4224 220.037 27.2077C220.401 26.9837 220.816 26.8717 221.283 26.8717C222.001 26.8717 222.524 27.1004 222.851 27.5577C223.187 28.0057 223.355 28.6637 223.355 29.5317V33.8438H222.207V29.6857C222.207 29.0511 222.104 28.5891 221.899 28.2997C221.693 28.0104 221.367 27.8657 220.919 27.8657C220.573 27.8657 220.261 27.9544 219.981 28.1317C219.71 28.3091 219.402 28.5704 219.057 28.9157V33.8438H217.909ZM227.707 34.0118C226.979 34.0118 226.47 33.8018 226.181 33.3818C225.901 32.9617 225.761 32.4157 225.761 31.7437V27.9777H224.753V27.1097L225.817 27.0397L225.957 25.1357H226.923V27.0397H228.757V27.9777H226.923V31.7577C226.923 32.1777 226.998 32.5044 227.147 32.7377C227.306 32.9617 227.581 33.0737 227.973 33.0737C228.094 33.0737 228.225 33.0551 228.365 33.0177C228.505 32.9711 228.631 32.9291 228.743 32.8917L228.967 33.7597C228.78 33.8251 228.575 33.8811 228.351 33.9278C228.136 33.9838 227.922 34.0118 227.707 34.0118ZM231.563 34.0118C230.993 34.0118 230.517 33.8438 230.135 33.5077C229.761 33.1624 229.575 32.6864 229.575 32.0797C229.575 31.3331 229.906 30.7637 230.569 30.3717C231.241 29.9704 232.3 29.6904 233.747 29.5317C233.747 29.2424 233.705 28.9671 233.621 28.7057C233.546 28.4444 233.406 28.2344 233.201 28.0757C233.005 27.9077 232.72 27.8237 232.347 27.8237C231.955 27.8237 231.586 27.8984 231.241 28.0477C230.895 28.1971 230.587 28.3651 230.317 28.5517L229.869 27.7537C230.186 27.5484 230.573 27.3524 231.031 27.1657C231.497 26.9697 232.001 26.8717 232.543 26.8717C233.373 26.8717 233.975 27.1284 234.349 27.6417C234.722 28.1457 234.909 28.8224 234.909 29.6717V33.8438H233.957L233.859 33.0317H233.817C233.499 33.2931 233.149 33.5217 232.767 33.7177C232.393 33.9137 231.992 34.0118 231.563 34.0118ZM231.899 33.0877C232.225 33.0877 232.533 33.0084 232.823 32.8497C233.112 32.6911 233.42 32.4671 233.747 32.1777V30.2877C232.617 30.4277 231.824 30.6377 231.367 30.9177C230.919 31.1977 230.695 31.5571 230.695 31.9958C230.695 32.3784 230.811 32.6584 231.045 32.8357C231.278 33.0037 231.563 33.0877 231.899 33.0877ZM239.737 34.0118C239.14 34.0118 238.599 33.8717 238.113 33.5917C237.628 33.3117 237.245 32.9057 236.965 32.3737C236.685 31.8417 236.545 31.2024 236.545 30.4557C236.545 29.6904 236.695 29.0417 236.993 28.5097C237.301 27.9777 237.703 27.5717 238.197 27.2917C238.701 27.0117 239.243 26.8717 239.821 26.8717C240.269 26.8717 240.652 26.9511 240.969 27.1097C241.296 27.2684 241.576 27.4551 241.809 27.6697L241.221 28.4257C241.025 28.2484 240.815 28.1037 240.591 27.9917C240.377 27.8797 240.134 27.8237 239.863 27.8237C239.453 27.8237 239.084 27.9357 238.757 28.1597C238.44 28.3744 238.188 28.6824 238.001 29.0837C237.824 29.4757 237.735 29.9331 237.735 30.4557C237.735 31.2304 237.927 31.8604 238.309 32.3457C238.701 32.8217 239.21 33.0597 239.835 33.0597C240.153 33.0597 240.447 32.9944 240.717 32.8637C240.988 32.7237 241.226 32.5604 241.431 32.3737L241.935 33.1437C241.627 33.4144 241.287 33.6291 240.913 33.7877C240.54 33.9371 240.148 34.0118 239.737 34.0118ZM245.439 34.0118C244.711 34.0118 244.203 33.8018 243.913 33.3818C243.633 32.9617 243.493 32.4157 243.493 31.7437V27.9777H242.485V27.1097L243.549 27.0397L243.689 25.1357H244.655V27.0397H246.489V27.9777H244.655V31.7577C244.655 32.1777 244.73 32.5044 244.879 32.7377C245.038 32.9617 245.313 33.0737 245.705 33.0737C245.827 33.0737 245.957 33.0551 246.097 33.0177C246.237 32.9711 246.363 32.9291 246.475 32.8917L246.699 33.7597C246.513 33.8251 246.307 33.8811 246.083 33.9278C245.869 33.9838 245.654 34.0118 245.439 34.0118Z" fill="#7E8295"/>
<circle cx="43.0818" cy="5.84349" r="5.84349" fill="#31EE50"/>
<circle cx="195.843" cy="5.84349" r="5.84349" fill="#7E8295"/>
<circle cx="320.047" cy="5.99974" r="5.84349" fill="#7E8295"/>
</svg>
