<svg width="348" height="38" viewBox="0 0 348 38" fill="none" xmlns="http://www.w3.org/2000/svg">
<rect x="41.0293" y="5" width="134.688" height="3" fill="#7E8295"/>
<rect x="37" y="5" width="155" height="3" fill="#31EE50"/>
<rect x="194" y="5" width="123" height="3" fill="#7E8295"/>
<path d="M1.56044 34V24.844H3.22644L6.08244 29.996L7.02044 31.942H7.07644C7.0391 31.4753 6.99244 30.9667 6.93644 30.416C6.88977 29.8653 6.86644 29.3333 6.86644 28.82V24.844H8.42044V34H6.75444L3.89844 28.848L2.96044 26.902H2.90444C2.94177 27.3873 2.98377 27.896 3.03044 28.428C3.08644 28.96 3.11444 29.4827 3.11444 29.996V34H1.56044ZM13.4219 34.168C12.8526 34.168 12.3206 34.028 11.8259 33.748C11.3313 33.4587 10.9299 33.048 10.6219 32.516C10.3139 31.9747 10.1599 31.326 10.1599 30.57C10.1599 29.8047 10.3139 29.156 10.6219 28.624C10.9299 28.0827 11.3313 27.672 11.8259 27.392C12.3206 27.1027 12.8526 26.958 13.4219 26.958C14.0006 26.958 14.5373 27.1027 15.0319 27.392C15.5266 27.672 15.9279 28.0827 16.2359 28.624C16.5439 29.156 16.6979 29.8047 16.6979 30.57C16.6979 31.326 16.5439 31.9747 16.2359 32.516C15.9279 33.048 15.5266 33.4587 15.0319 33.748C14.5373 34.028 14.0006 34.168 13.4219 34.168ZM13.4219 32.852C13.9259 32.852 14.3226 32.642 14.6119 32.222C14.9013 31.802 15.0459 31.2513 15.0459 30.57C15.0459 29.8793 14.9013 29.324 14.6119 28.904C14.3226 28.484 13.9259 28.274 13.4219 28.274C12.9179 28.274 12.5213 28.484 12.2319 28.904C11.9519 29.324 11.8119 29.8793 11.8119 30.57C11.8119 31.2513 11.9519 31.802 12.2319 32.222C12.5213 32.642 12.9179 32.852 13.4219 32.852ZM18.2915 34V27.126H19.6215L19.7335 28.064H19.7895C20.0789 27.756 20.3915 27.4947 20.7275 27.28C21.0729 27.0653 21.4602 26.958 21.8895 26.958C22.3935 26.958 22.7949 27.07 23.0935 27.294C23.4015 27.5087 23.6349 27.8073 23.7935 28.19C24.1202 27.8353 24.4609 27.5413 24.8155 27.308C25.1795 27.0747 25.5762 26.958 26.0055 26.958C26.7335 26.958 27.2702 27.196 27.6155 27.672C27.9609 28.148 28.1335 28.82 28.1335 29.688V34H26.5095V29.898C26.5095 29.3287 26.4209 28.9273 26.2435 28.694C26.0755 28.4607 25.8142 28.344 25.4595 28.344C25.0302 28.344 24.5495 28.6287 24.0175 29.198V34H22.4075V29.898C22.4075 29.3287 22.3189 28.9273 22.1415 28.694C21.9735 28.4607 21.7075 28.344 21.3435 28.344C20.9142 28.344 20.4335 28.6287 19.9015 29.198V34H18.2915ZM30.0904 34V27.126H31.7004V34H30.0904ZM30.9024 25.922C30.613 25.922 30.3797 25.838 30.2024 25.67C30.025 25.502 29.9364 25.278 29.9364 24.998C29.9364 24.7273 30.025 24.508 30.2024 24.34C30.3797 24.172 30.613 24.088 30.9024 24.088C31.1917 24.088 31.425 24.172 31.6024 24.34C31.7797 24.508 31.8684 24.7273 31.8684 24.998C31.8684 25.278 31.7797 25.502 31.6024 25.67C31.425 25.838 31.1917 25.922 30.9024 25.922ZM33.7544 34V27.126H35.0844L35.1964 28.05H35.2524C35.5604 27.7513 35.8964 27.4947 36.2604 27.28C36.6244 27.0653 37.0398 26.958 37.5064 26.958C38.2438 26.958 38.7804 27.196 39.1164 27.672C39.4524 28.148 39.6204 28.82 39.6204 29.688V34H38.0104V29.898C38.0104 29.3287 37.9264 28.9273 37.7584 28.694C37.5904 28.4607 37.3151 28.344 36.9324 28.344C36.6338 28.344 36.3678 28.4187 36.1344 28.568C35.9104 28.708 35.6538 28.918 35.3644 29.198V34H33.7544ZM44.5284 34.168C43.8937 34.168 43.3197 34.028 42.8064 33.748C42.2931 33.4587 41.8871 33.048 41.5884 32.516C41.2897 31.9747 41.1404 31.326 41.1404 30.57C41.1404 29.8233 41.2897 29.1793 41.5884 28.638C41.8964 28.0967 42.2931 27.6813 42.7784 27.392C43.2637 27.1027 43.7724 26.958 44.3044 26.958C44.9297 26.958 45.4524 27.098 45.8724 27.378C46.2924 27.6487 46.6097 28.0313 46.8244 28.526C47.0391 29.0113 47.1464 29.576 47.1464 30.22C47.1464 30.556 47.1231 30.8173 47.0764 31.004H42.7084C42.7831 31.6107 43.0024 32.082 43.3664 32.418C43.7304 32.754 44.1877 32.922 44.7384 32.922C45.0371 32.922 45.3124 32.88 45.5644 32.796C45.8257 32.7027 46.0824 32.5767 46.3344 32.418L46.8804 33.426C46.5537 33.6407 46.1897 33.818 45.7884 33.958C45.3871 34.098 44.9671 34.168 44.5284 34.168ZM42.6944 29.912H45.7464C45.7464 29.38 45.6297 28.9647 45.3964 28.666C45.1631 28.358 44.8131 28.204 44.3464 28.204C43.9451 28.204 43.5857 28.3533 43.2684 28.652C42.9604 28.9413 42.7691 29.3613 42.6944 29.912ZM51.6241 34.168C50.9894 34.168 50.4154 34.028 49.9021 33.748C49.3888 33.4587 48.9828 33.048 48.6841 32.516C48.3854 31.9747 48.2361 31.326 48.2361 30.57C48.2361 29.8233 48.3854 29.1793 48.6841 28.638C48.9921 28.0967 49.3888 27.6813 49.8741 27.392C50.3594 27.1027 50.8681 26.958 51.4001 26.958C52.0254 26.958 52.5481 27.098 52.9681 27.378C53.3881 27.6487 53.7054 28.0313 53.9201 28.526C54.1348 29.0113 54.2421 29.576 54.2421 30.22C54.2421 30.556 54.2188 30.8173 54.1721 31.004H49.8041C49.8788 31.6107 50.0981 32.082 50.4621 32.418C50.8261 32.754 51.2834 32.922 51.8341 32.922C52.1328 32.922 52.4081 32.88 52.6601 32.796C52.9214 32.7027 53.1781 32.5767 53.4301 32.418L53.9761 33.426C53.6494 33.6407 53.2854 33.818 52.8841 33.958C52.4828 34.098 52.0628 34.168 51.6241 34.168ZM49.7901 29.912H52.8421C52.8421 29.38 52.7254 28.9647 52.4921 28.666C52.2588 28.358 51.9088 28.204 51.4421 28.204C51.0408 28.204 50.6814 28.3533 50.3641 28.652C50.0561 28.9413 49.8648 29.3613 49.7901 29.912ZM60.9905 34.168C60.1319 34.168 59.4459 33.8507 58.9325 33.216C58.4192 32.5813 58.1625 31.6993 58.1625 30.57C58.1625 29.8233 58.2979 29.1793 58.5685 28.638C58.8485 28.0967 59.2125 27.6813 59.6605 27.392C60.1085 27.1027 60.5799 26.958 61.0745 26.958C61.4665 26.958 61.7979 27.028 62.0685 27.168C62.3485 27.2987 62.6192 27.4807 62.8805 27.714L62.8245 26.608V24.116H64.4345V34H63.1045L62.9925 33.258H62.9365C62.6845 33.51 62.3905 33.7247 62.0545 33.902C61.7185 34.0793 61.3639 34.168 60.9905 34.168ZM61.3825 32.838C61.8959 32.838 62.3765 32.5813 62.8245 32.068V28.862C62.5912 28.6473 62.3579 28.498 62.1245 28.414C61.8912 28.33 61.6579 28.288 61.4245 28.288C60.9859 28.288 60.6079 28.4887 60.2905 28.89C59.9825 29.282 59.8285 29.8373 59.8285 30.556C59.8285 31.2933 59.9639 31.858 60.2345 32.25C60.5052 32.642 60.8879 32.838 61.3825 32.838ZM69.4249 34.168C68.7902 34.168 68.2162 34.028 67.7029 33.748C67.1896 33.4587 66.7836 33.048 66.4849 32.516C66.1862 31.9747 66.0369 31.326 66.0369 30.57C66.0369 29.8233 66.1862 29.1793 66.4849 28.638C66.7929 28.0967 67.1896 27.6813 67.6749 27.392C68.1602 27.1027 68.6689 26.958 69.2009 26.958C69.8262 26.958 70.3489 27.098 70.7689 27.378C71.1889 27.6487 71.5062 28.0313 71.7209 28.526C71.9356 29.0113 72.0429 29.576 72.0429 30.22C72.0429 30.556 72.0196 30.8173 71.9729 31.004H67.6049C67.6796 31.6107 67.8989 32.082 68.2629 32.418C68.6269 32.754 69.0842 32.922 69.6349 32.922C69.9336 32.922 70.2089 32.88 70.4609 32.796C70.7222 32.7027 70.9789 32.5767 71.2309 32.418L71.7769 33.426C71.4502 33.6407 71.0862 33.818 70.6849 33.958C70.2836 34.098 69.8636 34.168 69.4249 34.168ZM67.5909 29.912H70.6429C70.6429 29.38 70.5262 28.9647 70.2929 28.666C70.0596 28.358 69.7096 28.204 69.2429 28.204C68.8416 28.204 68.4822 28.3533 68.1649 28.652C67.8569 28.9413 67.6656 29.3613 67.5909 29.912ZM75.8659 34.168C75.0725 34.168 74.5079 33.9393 74.1719 33.482C73.8452 33.0153 73.6819 32.4133 73.6819 31.676V28.4H72.7019V27.196L73.7659 27.126L73.9619 25.25H75.3059V27.126H77.0559V28.4H75.3059V31.676C75.3059 32.4787 75.6279 32.88 76.2719 32.88C76.3932 32.88 76.5192 32.866 76.6499 32.838C76.7805 32.8007 76.8925 32.7633 76.9859 32.726L77.2659 33.916C77.0792 33.9813 76.8645 34.0373 76.6219 34.084C76.3885 34.14 76.1365 34.168 75.8659 34.168ZM79.8677 34.168C79.2704 34.168 78.7804 33.9813 78.3977 33.608C78.0244 33.2347 77.8377 32.7493 77.8377 32.152C77.8377 31.4147 78.1597 30.8453 78.8037 30.444C79.4477 30.0333 80.4744 29.7533 81.8837 29.604C81.8744 29.24 81.7764 28.9273 81.5897 28.666C81.4124 28.3953 81.0904 28.26 80.6237 28.26C80.2877 28.26 79.9564 28.3253 79.6297 28.456C79.3124 28.5867 78.9997 28.7453 78.6917 28.932L78.1037 27.854C78.4864 27.6113 78.9157 27.4013 79.3917 27.224C79.877 27.0467 80.3904 26.958 80.9317 26.958C81.7904 26.958 82.4297 27.2147 82.8497 27.728C83.279 28.232 83.4937 28.9647 83.4937 29.926V34H82.1637L82.0517 33.244H81.9957C81.6877 33.5053 81.3564 33.7247 81.0017 33.902C80.6564 34.0793 80.2784 34.168 79.8677 34.168ZM80.3857 32.908C80.6657 32.908 80.9177 32.8427 81.1417 32.712C81.375 32.572 81.6224 32.3853 81.8837 32.152V30.612C80.9504 30.7333 80.3017 30.9153 79.9377 31.158C79.5737 31.3913 79.3917 31.6807 79.3917 32.026C79.3917 32.334 79.485 32.558 79.6717 32.698C79.8584 32.838 80.0964 32.908 80.3857 32.908ZM85.4204 34V27.126H87.0304V34H85.4204ZM86.2324 25.922C85.9431 25.922 85.7098 25.838 85.5324 25.67C85.3551 25.502 85.2664 25.278 85.2664 24.998C85.2664 24.7273 85.3551 24.508 85.5324 24.34C85.7098 24.172 85.9431 24.088 86.2324 24.088C86.5218 24.088 86.7551 24.172 86.9324 24.34C87.1098 24.508 87.1984 24.7273 87.1984 24.998C87.1984 25.278 87.1098 25.502 86.9324 25.67C86.7551 25.838 86.5218 25.922 86.2324 25.922ZM90.6525 34.168C90.0832 34.168 89.6772 33.9953 89.4345 33.65C89.2012 33.3047 89.0845 32.8333 89.0845 32.236V24.116H90.6945V32.32C90.6945 32.516 90.7318 32.656 90.8065 32.74C90.8812 32.8147 90.9605 32.852 91.0445 32.852C91.0818 32.852 91.1145 32.852 91.1425 32.852C91.1798 32.8427 91.2312 32.8333 91.2965 32.824L91.5065 34.028C91.4132 34.0653 91.2918 34.098 91.1425 34.126C91.0025 34.154 90.8392 34.168 90.6525 34.168ZM94.8033 34.168C94.3366 34.168 93.8699 34.0793 93.4033 33.902C92.9366 33.7153 92.5353 33.4867 92.1993 33.216L92.9553 32.18C93.2633 32.4133 93.5713 32.6 93.8793 32.74C94.1873 32.88 94.5139 32.95 94.8593 32.95C95.2326 32.95 95.5079 32.8707 95.6853 32.712C95.8626 32.5533 95.9513 32.3573 95.9513 32.124C95.9513 31.928 95.8766 31.7693 95.7273 31.648C95.5873 31.5173 95.4053 31.4053 95.1813 31.312C94.9573 31.2093 94.7239 31.1113 94.4813 31.018C94.1826 30.906 93.8839 30.7707 93.5853 30.612C93.2959 30.444 93.0579 30.234 92.8713 29.982C92.6846 29.7207 92.5913 29.3987 92.5913 29.016C92.5913 28.4093 92.8153 27.9147 93.2633 27.532C93.7113 27.1493 94.3179 26.958 95.0833 26.958C95.5686 26.958 96.0026 27.042 96.3853 27.21C96.7679 27.378 97.0993 27.5693 97.3793 27.784L96.6373 28.764C96.3946 28.5867 96.1473 28.4467 95.8953 28.344C95.6526 28.232 95.3959 28.176 95.1253 28.176C94.7799 28.176 94.5233 28.2507 94.3553 28.4C94.1873 28.54 94.1033 28.7173 94.1033 28.932C94.1033 29.2027 94.2433 29.408 94.5233 29.548C94.8033 29.688 95.1299 29.8233 95.5033 29.954C95.8206 30.066 96.1286 30.206 96.4273 30.374C96.7259 30.5327 96.9733 30.7427 97.1693 31.004C97.3746 31.2653 97.4773 31.6107 97.4773 32.04C97.4773 32.628 97.2486 33.132 96.7913 33.552C96.3339 33.9627 95.6713 34.168 94.8033 34.168Z" fill="#002949"/>
<path d="M295.31 34.168C294.545 34.168 293.859 33.9813 293.252 33.608C292.655 33.2253 292.179 32.6793 291.824 31.97C291.479 31.2607 291.306 30.4067 291.306 29.408C291.306 28.4187 291.483 27.5693 291.838 26.86C292.193 26.1507 292.678 25.6047 293.294 25.222C293.91 24.8393 294.605 24.648 295.38 24.648C295.94 24.648 296.435 24.7647 296.864 24.998C297.293 25.222 297.639 25.4833 297.9 25.782L297.27 26.538C297.027 26.2767 296.752 26.0667 296.444 25.908C296.136 25.7493 295.786 25.67 295.394 25.67C294.815 25.67 294.307 25.824 293.868 26.132C293.439 26.4307 293.103 26.8553 292.86 27.406C292.627 27.9567 292.51 28.6147 292.51 29.38C292.51 30.1453 292.627 30.8127 292.86 31.382C293.093 31.942 293.42 32.376 293.84 32.684C294.269 32.992 294.773 33.146 295.352 33.146C295.791 33.146 296.183 33.0527 296.528 32.866C296.873 32.6793 297.191 32.4273 297.48 32.11L298.124 32.838C297.76 33.258 297.349 33.5847 296.892 33.818C296.435 34.0513 295.907 34.168 295.31 34.168ZM302.37 34.168C301.82 34.168 301.302 34.028 300.816 33.748C300.34 33.468 299.953 33.062 299.654 32.53C299.365 31.998 299.22 31.3587 299.22 30.612C299.22 29.8467 299.365 29.198 299.654 28.666C299.953 28.134 300.34 27.728 300.816 27.448C301.302 27.168 301.82 27.028 302.37 27.028C302.93 27.028 303.448 27.168 303.924 27.448C304.4 27.728 304.783 28.134 305.072 28.666C305.371 29.198 305.52 29.8467 305.52 30.612C305.52 31.3587 305.371 31.998 305.072 32.53C304.783 33.062 304.4 33.468 303.924 33.748C303.448 34.028 302.93 34.168 302.37 34.168ZM302.37 33.216C302.958 33.216 303.43 32.978 303.784 32.502C304.148 32.0167 304.33 31.3867 304.33 30.612C304.33 29.828 304.148 29.1933 303.784 28.708C303.43 28.2227 302.958 27.98 302.37 27.98C301.792 27.98 301.32 28.2227 300.956 28.708C300.592 29.1933 300.41 29.828 300.41 30.612C300.41 31.3867 300.592 32.0167 300.956 32.502C301.32 32.978 301.792 33.216 302.37 33.216ZM307.312 34V27.196H308.264L308.362 28.176H308.404C308.703 27.8493 309.029 27.5787 309.384 27.364C309.739 27.14 310.117 27.028 310.518 27.028C311.041 27.028 311.447 27.1447 311.736 27.378C312.035 27.602 312.254 27.9193 312.394 28.33C312.749 27.9473 313.108 27.6347 313.472 27.392C313.836 27.1493 314.223 27.028 314.634 27.028C315.334 27.028 315.852 27.2567 316.188 27.714C316.533 28.162 316.706 28.82 316.706 29.688V34H315.558V29.842C315.558 29.2073 315.455 28.7453 315.25 28.456C315.045 28.1667 314.727 28.022 314.298 28.022C313.794 28.022 313.225 28.372 312.59 29.072V34H311.442V29.842C311.442 29.2073 311.339 28.7453 311.134 28.456C310.929 28.1667 310.607 28.022 310.168 28.022C309.664 28.022 309.095 28.372 308.46 29.072V34H307.312ZM318.919 36.87V27.196H319.871L319.969 27.98H320.011C320.319 27.7187 320.655 27.4947 321.019 27.308C321.393 27.1213 321.78 27.028 322.181 27.028C323.059 27.028 323.726 27.3453 324.183 27.98C324.641 28.6053 324.869 29.4453 324.869 30.5C324.869 31.2653 324.729 31.9233 324.449 32.474C324.179 33.0247 323.819 33.4447 323.371 33.734C322.933 34.0233 322.452 34.168 321.929 34.168C321.612 34.168 321.295 34.098 320.977 33.958C320.669 33.818 320.357 33.6267 320.039 33.384L320.067 34.574V36.87H318.919ZM321.733 33.202C322.293 33.202 322.755 32.964 323.119 32.488C323.493 32.0027 323.679 31.34 323.679 30.5C323.679 29.7533 323.539 29.1513 323.259 28.694C322.989 28.2273 322.531 27.994 321.887 27.994C321.598 27.994 321.304 28.0733 321.005 28.232C320.716 28.3907 320.403 28.6193 320.067 28.918V32.488C320.375 32.7493 320.674 32.936 320.963 33.048C321.253 33.1507 321.509 33.202 321.733 33.202ZM327.903 34.168C327.474 34.168 327.161 34.0373 326.965 33.776C326.778 33.5053 326.685 33.1227 326.685 32.628V24.032H327.833V32.712C327.833 32.8893 327.866 33.02 327.931 33.104C327.996 33.1787 328.071 33.216 328.155 33.216C328.192 33.216 328.225 33.216 328.253 33.216C328.29 33.2067 328.342 33.1973 328.407 33.188L328.561 34.056C328.486 34.0933 328.398 34.1213 328.295 34.14C328.192 34.1587 328.062 34.168 327.903 34.168ZM333.011 34.168C332.405 34.168 331.854 34.028 331.359 33.748C330.865 33.4587 330.473 33.048 330.183 32.516C329.894 31.984 329.749 31.3493 329.749 30.612C329.749 29.8653 329.894 29.226 330.183 28.694C330.482 28.162 330.865 27.7513 331.331 27.462C331.798 27.1727 332.288 27.028 332.801 27.028C333.669 27.028 334.337 27.3173 334.803 27.896C335.279 28.4747 335.517 29.2493 335.517 30.22C335.517 30.3413 335.513 30.4627 335.503 30.584C335.503 30.696 335.494 30.794 335.475 30.878H330.883C330.93 31.5967 331.154 32.1707 331.555 32.6C331.966 33.0293 332.498 33.244 333.151 33.244C333.478 33.244 333.777 33.1973 334.047 33.104C334.327 33.0013 334.593 32.8707 334.845 32.712L335.251 33.468C334.962 33.6547 334.631 33.818 334.257 33.958C333.893 34.098 333.478 34.168 333.011 34.168ZM330.869 30.052H334.509C334.509 29.3613 334.36 28.8387 334.061 28.484C333.772 28.12 333.361 27.938 332.829 27.938C332.353 27.938 331.924 28.1247 331.541 28.498C331.168 28.862 330.944 29.38 330.869 30.052ZM339.204 34.168C338.476 34.168 337.967 33.958 337.678 33.538C337.398 33.118 337.258 32.572 337.258 31.9V28.134H336.25V27.266L337.314 27.196L337.454 25.292H338.42V27.196H340.254V28.134H338.42V31.914C338.42 32.334 338.495 32.6607 338.644 32.894C338.803 33.118 339.078 33.23 339.47 33.23C339.591 33.23 339.722 33.2113 339.862 33.174C340.002 33.1273 340.128 33.0853 340.24 33.048L340.464 33.916C340.277 33.9813 340.072 34.0373 339.848 34.084C339.633 34.14 339.419 34.168 339.204 34.168ZM344.359 34.168C343.752 34.168 343.202 34.028 342.707 33.748C342.212 33.4587 341.82 33.048 341.531 32.516C341.242 31.984 341.097 31.3493 341.097 30.612C341.097 29.8653 341.242 29.226 341.531 28.694C341.83 28.162 342.212 27.7513 342.679 27.462C343.146 27.1727 343.636 27.028 344.149 27.028C345.017 27.028 345.684 27.3173 346.151 27.896C346.627 28.4747 346.865 29.2493 346.865 30.22C346.865 30.3413 346.86 30.4627 346.851 30.584C346.851 30.696 346.842 30.794 346.823 30.878H342.231C342.278 31.5967 342.502 32.1707 342.903 32.6C343.314 33.0293 343.846 33.244 344.499 33.244C344.826 33.244 345.124 33.1973 345.395 33.104C345.675 33.0013 345.941 32.8707 346.193 32.712L346.599 33.468C346.31 33.6547 345.978 33.818 345.605 33.958C345.241 34.098 344.826 34.168 344.359 34.168ZM342.217 30.052H345.857C345.857 29.3613 345.708 28.8387 345.409 28.484C345.12 28.12 344.709 27.938 344.177 27.938C343.701 27.938 343.272 28.1247 342.889 28.498C342.516 28.862 342.292 29.38 342.217 30.052Z" fill="#7E8295"/>
<path d="M143.606 34V24.844H145.272L148.128 29.996L149.066 31.942H149.122C149.085 31.4753 149.038 30.9667 148.982 30.416C148.936 29.8653 148.912 29.3333 148.912 28.82V24.844H150.466V34H148.8L145.944 28.848L145.006 26.902H144.95C144.988 27.3873 145.03 27.896 145.076 28.428C145.132 28.96 145.16 29.4827 145.16 29.996V34H143.606ZM155.468 34.168C154.899 34.168 154.367 34.028 153.872 33.748C153.377 33.4587 152.976 33.048 152.668 32.516C152.36 31.9747 152.206 31.326 152.206 30.57C152.206 29.8047 152.36 29.156 152.668 28.624C152.976 28.0827 153.377 27.672 153.872 27.392C154.367 27.1027 154.899 26.958 155.468 26.958C156.047 26.958 156.583 27.1027 157.078 27.392C157.573 27.672 157.974 28.0827 158.282 28.624C158.59 29.156 158.744 29.8047 158.744 30.57C158.744 31.326 158.59 31.9747 158.282 32.516C157.974 33.048 157.573 33.4587 157.078 33.748C156.583 34.028 156.047 34.168 155.468 34.168ZM155.468 32.852C155.972 32.852 156.369 32.642 156.658 32.222C156.947 31.802 157.092 31.2513 157.092 30.57C157.092 29.8793 156.947 29.324 156.658 28.904C156.369 28.484 155.972 28.274 155.468 28.274C154.964 28.274 154.567 28.484 154.278 28.904C153.998 29.324 153.858 29.8793 153.858 30.57C153.858 31.2513 153.998 31.802 154.278 32.222C154.567 32.642 154.964 32.852 155.468 32.852ZM160.337 34V27.126H161.667L161.779 28.064H161.835C162.125 27.756 162.437 27.4947 162.773 27.28C163.119 27.0653 163.506 26.958 163.935 26.958C164.439 26.958 164.841 27.07 165.139 27.294C165.447 27.5087 165.681 27.8073 165.839 28.19C166.166 27.8353 166.507 27.5413 166.861 27.308C167.225 27.0747 167.622 26.958 168.051 26.958C168.779 26.958 169.316 27.196 169.661 27.672C170.007 28.148 170.179 28.82 170.179 29.688V34H168.555V29.898C168.555 29.3287 168.467 28.9273 168.289 28.694C168.121 28.4607 167.86 28.344 167.505 28.344C167.076 28.344 166.595 28.6287 166.063 29.198V34H164.453V29.898C164.453 29.3287 164.365 28.9273 164.187 28.694C164.019 28.4607 163.753 28.344 163.389 28.344C162.96 28.344 162.479 28.6287 161.947 29.198V34H160.337ZM172.136 34V27.126H173.746V34H172.136ZM172.948 25.922C172.659 25.922 172.426 25.838 172.248 25.67C172.071 25.502 171.982 25.278 171.982 24.998C171.982 24.7273 172.071 24.508 172.248 24.34C172.426 24.172 172.659 24.088 172.948 24.088C173.238 24.088 173.471 24.172 173.648 24.34C173.826 24.508 173.914 24.7273 173.914 24.998C173.914 25.278 173.826 25.502 173.648 25.67C173.471 25.838 173.238 25.922 172.948 25.922ZM175.8 34V27.126H177.13L177.242 28.05H177.298C177.606 27.7513 177.942 27.4947 178.306 27.28C178.67 27.0653 179.086 26.958 179.552 26.958C180.29 26.958 180.826 27.196 181.162 27.672C181.498 28.148 181.666 28.82 181.666 29.688V34H180.056V29.898C180.056 29.3287 179.972 28.9273 179.804 28.694C179.636 28.4607 179.361 28.344 178.978 28.344C178.68 28.344 178.414 28.4187 178.18 28.568C177.956 28.708 177.7 28.918 177.41 29.198V34H175.8ZM186.574 34.168C185.94 34.168 185.366 34.028 184.852 33.748C184.339 33.4587 183.933 33.048 183.634 32.516C183.336 31.9747 183.186 31.326 183.186 30.57C183.186 29.8233 183.336 29.1793 183.634 28.638C183.942 28.0967 184.339 27.6813 184.824 27.392C185.31 27.1027 185.818 26.958 186.35 26.958C186.976 26.958 187.498 27.098 187.918 27.378C188.338 27.6487 188.656 28.0313 188.87 28.526C189.085 29.0113 189.192 29.576 189.192 30.22C189.192 30.556 189.169 30.8173 189.122 31.004H184.754C184.829 31.6107 185.048 32.082 185.412 32.418C185.776 32.754 186.234 32.922 186.784 32.922C187.083 32.922 187.358 32.88 187.61 32.796C187.872 32.7027 188.128 32.5767 188.38 32.418L188.926 33.426C188.6 33.6407 188.236 33.818 187.834 33.958C187.433 34.098 187.013 34.168 186.574 34.168ZM184.74 29.912H187.792C187.792 29.38 187.676 28.9647 187.442 28.666C187.209 28.358 186.859 28.204 186.392 28.204C185.991 28.204 185.632 28.3533 185.314 28.652C185.006 28.9413 184.815 29.3613 184.74 29.912ZM193.67 34.168C193.035 34.168 192.461 34.028 191.948 33.748C191.435 33.4587 191.029 33.048 190.73 32.516C190.431 31.9747 190.282 31.326 190.282 30.57C190.282 29.8233 190.431 29.1793 190.73 28.638C191.038 28.0967 191.435 27.6813 191.92 27.392C192.405 27.1027 192.914 26.958 193.446 26.958C194.071 26.958 194.594 27.098 195.014 27.378C195.434 27.6487 195.751 28.0313 195.966 28.526C196.181 29.0113 196.288 29.576 196.288 30.22C196.288 30.556 196.265 30.8173 196.218 31.004H191.85C191.925 31.6107 192.144 32.082 192.508 32.418C192.872 32.754 193.329 32.922 193.88 32.922C194.179 32.922 194.454 32.88 194.706 32.796C194.967 32.7027 195.224 32.5767 195.476 32.418L196.022 33.426C195.695 33.6407 195.331 33.818 194.93 33.958C194.529 34.098 194.109 34.168 193.67 34.168ZM191.836 29.912H194.888C194.888 29.38 194.771 28.9647 194.538 28.666C194.305 28.358 193.955 28.204 193.488 28.204C193.087 28.204 192.727 28.3533 192.41 28.652C192.102 28.9413 191.911 29.3613 191.836 29.912ZM204.422 34.168C203.657 34.168 202.962 33.986 202.336 33.622C201.711 33.258 201.212 32.726 200.838 32.026C200.474 31.3167 200.292 30.458 200.292 29.45C200.292 28.4513 200.479 27.5973 200.852 26.888C201.235 26.1693 201.744 25.6233 202.378 25.25C203.013 24.8673 203.713 24.676 204.478 24.676C205.057 24.676 205.57 24.7927 206.018 25.026C206.466 25.2593 206.835 25.53 207.124 25.838L206.256 26.888C206.023 26.6453 205.762 26.454 205.472 26.314C205.192 26.1647 204.875 26.09 204.52 26.09C204.026 26.09 203.582 26.2253 203.19 26.496C202.808 26.7573 202.504 27.1353 202.28 27.63C202.066 28.1247 201.958 28.7173 201.958 29.408C201.958 30.4533 202.187 31.2747 202.644 31.872C203.102 32.46 203.713 32.754 204.478 32.754C204.889 32.754 205.253 32.67 205.57 32.502C205.888 32.3247 206.177 32.096 206.438 31.816L207.306 32.838C206.933 33.2673 206.504 33.5987 206.018 33.832C205.542 34.056 205.01 34.168 204.422 34.168ZM211.509 34.168C210.94 34.168 210.408 34.028 209.913 33.748C209.418 33.4587 209.017 33.048 208.709 32.516C208.401 31.9747 208.247 31.326 208.247 30.57C208.247 29.8047 208.401 29.156 208.709 28.624C209.017 28.0827 209.418 27.672 209.913 27.392C210.408 27.1027 210.94 26.958 211.509 26.958C212.088 26.958 212.624 27.1027 213.119 27.392C213.614 27.672 214.015 28.0827 214.323 28.624C214.631 29.156 214.785 29.8047 214.785 30.57C214.785 31.326 214.631 31.9747 214.323 32.516C214.015 33.048 213.614 33.4587 213.119 33.748C212.624 34.028 212.088 34.168 211.509 34.168ZM211.509 32.852C212.013 32.852 212.41 32.642 212.699 32.222C212.988 31.802 213.133 31.2513 213.133 30.57C213.133 29.8793 212.988 29.324 212.699 28.904C212.41 28.484 212.013 28.274 211.509 28.274C211.005 28.274 210.608 28.484 210.319 28.904C210.039 29.324 209.899 29.8793 209.899 30.57C209.899 31.2513 210.039 31.802 210.319 32.222C210.608 32.642 211.005 32.852 211.509 32.852ZM216.378 34V27.126H217.708L217.82 28.05H217.876C218.184 27.7513 218.52 27.4947 218.884 27.28C219.248 27.0653 219.664 26.958 220.13 26.958C220.868 26.958 221.404 27.196 221.74 27.672C222.076 28.148 222.244 28.82 222.244 29.688V34H220.634V29.898C220.634 29.3287 220.55 28.9273 220.382 28.694C220.214 28.4607 219.939 28.344 219.556 28.344C219.258 28.344 218.992 28.4187 218.758 28.568C218.534 28.708 218.278 28.918 217.988 29.198V34H216.378ZM226.634 34.168C225.841 34.168 225.276 33.9393 224.94 33.482C224.614 33.0153 224.45 32.4133 224.45 31.676V28.4H223.47V27.196L224.534 27.126L224.73 25.25H226.074V27.126H227.824V28.4H226.074V31.676C226.074 32.4787 226.396 32.88 227.04 32.88C227.162 32.88 227.288 32.866 227.418 32.838C227.549 32.8007 227.661 32.7633 227.754 32.726L228.034 33.916C227.848 33.9813 227.633 34.0373 227.39 34.084C227.157 34.14 226.905 34.168 226.634 34.168ZM230.636 34.168C230.039 34.168 229.549 33.9813 229.166 33.608C228.793 33.2347 228.606 32.7493 228.606 32.152C228.606 31.4147 228.928 30.8453 229.572 30.444C230.216 30.0333 231.243 29.7533 232.652 29.604C232.643 29.24 232.545 28.9273 232.358 28.666C232.181 28.3953 231.859 28.26 231.392 28.26C231.056 28.26 230.725 28.3253 230.398 28.456C230.081 28.5867 229.768 28.7453 229.46 28.932L228.872 27.854C229.255 27.6113 229.684 27.4013 230.16 27.224C230.646 27.0467 231.159 26.958 231.7 26.958C232.559 26.958 233.198 27.2147 233.618 27.728C234.048 28.232 234.262 28.9647 234.262 29.926V34H232.932L232.82 33.244H232.764C232.456 33.5053 232.125 33.7247 231.77 33.902C231.425 34.0793 231.047 34.168 230.636 34.168ZM231.154 32.908C231.434 32.908 231.686 32.8427 231.91 32.712C232.144 32.572 232.391 32.3853 232.652 32.152V30.612C231.719 30.7333 231.07 30.9153 230.706 31.158C230.342 31.3913 230.16 31.6807 230.16 32.026C230.16 32.334 230.254 32.558 230.44 32.698C230.627 32.838 230.865 32.908 231.154 32.908ZM239.059 34.168C238.434 34.168 237.869 34.028 237.365 33.748C236.87 33.4587 236.474 33.048 236.175 32.516C235.886 31.9747 235.741 31.326 235.741 30.57C235.741 29.8047 235.9 29.156 236.217 28.624C236.534 28.0827 236.954 27.672 237.477 27.392C238.009 27.1027 238.578 26.958 239.185 26.958C239.624 26.958 240.006 27.0327 240.333 27.182C240.66 27.3313 240.949 27.5133 241.201 27.728L240.417 28.778C240.24 28.6193 240.058 28.498 239.871 28.414C239.684 28.3207 239.484 28.274 239.269 28.274C238.718 28.274 238.266 28.484 237.911 28.904C237.566 29.324 237.393 29.8793 237.393 30.57C237.393 31.2513 237.561 31.802 237.897 32.222C238.242 32.642 238.686 32.852 239.227 32.852C239.498 32.852 239.75 32.796 239.983 32.684C240.226 32.5627 240.445 32.4227 240.641 32.264L241.299 33.328C240.982 33.608 240.627 33.818 240.235 33.958C239.843 34.098 239.451 34.168 239.059 34.168ZM244.941 34.168C244.148 34.168 243.583 33.9393 243.247 33.482C242.92 33.0153 242.757 32.4133 242.757 31.676V28.4H241.777V27.196L242.841 27.126L243.037 25.25H244.381V27.126H246.131V28.4H244.381V31.676C244.381 32.4787 244.703 32.88 245.347 32.88C245.468 32.88 245.594 32.866 245.725 32.838C245.856 32.8007 245.968 32.7633 246.061 32.726L246.341 33.916C246.154 33.9813 245.94 34.0373 245.697 34.084C245.464 34.14 245.212 34.168 244.941 34.168Z" fill="#002949"/>
<circle cx="40.0818" cy="5.84349" r="5.84349" fill="#31EE50"/>
<circle cx="193.843" cy="5.99974" r="5.84349" fill="#31EE50"/>
<circle cx="317.047" cy="5.99974" r="5.84349" fill="#7E8295"/>
</svg>
