<svg width="347" height="38" viewBox="0 0 347 38" fill="none" xmlns="http://www.w3.org/2000/svg">
<rect x="37" y="5" width="276" height="3" fill="#31EE50"/>
<path d="M1.162 34V24.844H2.786V29.002H2.828L6.09 24.844H7.896L5.082 28.414L8.372 34H6.58L4.102 29.688L2.786 31.326V34H1.162ZM10.7407 34V30.598L7.99673 24.844H9.73273L10.7267 27.182C10.8574 27.5273 10.9881 27.8633 11.1187 28.19C11.2494 28.5073 11.3894 28.8433 11.5387 29.198H11.5947C11.7441 28.8433 11.8887 28.5073 12.0287 28.19C12.1687 27.8633 12.3041 27.5273 12.4347 27.182L13.4287 24.844H15.1227L12.3647 30.598V34H10.7407ZM19.6637 34.168C18.8983 34.168 18.203 33.986 17.5777 33.622C16.9523 33.258 16.453 32.726 16.0797 32.026C15.7157 31.3167 15.5337 30.458 15.5337 29.45C15.5337 28.4513 15.7203 27.5973 16.0937 26.888C16.4763 26.1693 16.985 25.6233 17.6197 25.25C18.2543 24.8673 18.9543 24.676 19.7197 24.676C20.2983 24.676 20.8117 24.7927 21.2597 25.026C21.7077 25.2593 22.0763 25.53 22.3657 25.838L21.4977 26.888C21.2643 26.6453 21.003 26.454 20.7137 26.314C20.4337 26.1647 20.1163 26.09 19.7617 26.09C19.267 26.09 18.8237 26.2253 18.4317 26.496C18.049 26.7573 17.7457 27.1353 17.5217 27.63C17.307 28.1247 17.1997 28.7173 17.1997 29.408C17.1997 30.4533 17.4283 31.2747 17.8857 31.872C18.343 32.46 18.9543 32.754 19.7197 32.754C20.1303 32.754 20.4943 32.67 20.8117 32.502C21.129 32.3247 21.4183 32.096 21.6797 31.816L22.5477 32.838C22.1743 33.2673 21.745 33.5987 21.2597 33.832C20.7837 34.056 20.2517 34.168 19.6637 34.168ZM29.1468 34.168C28.2881 34.168 27.6021 33.8507 27.0888 33.216C26.5755 32.5813 26.3188 31.6993 26.3188 30.57C26.3188 29.8233 26.4541 29.1793 26.7248 28.638C27.0048 28.0967 27.3688 27.6813 27.8168 27.392C28.2648 27.1027 28.7361 26.958 29.2308 26.958C29.6228 26.958 29.9541 27.028 30.2248 27.168C30.5048 27.2987 30.7755 27.4807 31.0368 27.714L30.9808 26.608V24.116H32.5908V34H31.2608L31.1488 33.258H31.0928C30.8408 33.51 30.5468 33.7247 30.2108 33.902C29.8748 34.0793 29.5201 34.168 29.1468 34.168ZM29.5388 32.838C30.0521 32.838 30.5328 32.5813 30.9808 32.068V28.862C30.7475 28.6473 30.5141 28.498 30.2808 28.414C30.0475 28.33 29.8141 28.288 29.5808 28.288C29.1421 28.288 28.7641 28.4887 28.4468 28.89C28.1388 29.282 27.9848 29.8373 27.9848 30.556C27.9848 31.2933 28.1201 31.858 28.3908 32.25C28.6615 32.642 29.0441 32.838 29.5388 32.838ZM37.5811 34.168C36.9465 34.168 36.3725 34.028 35.8591 33.748C35.3458 33.4587 34.9398 33.048 34.6411 32.516C34.3425 31.9747 34.1931 31.326 34.1931 30.57C34.1931 29.8233 34.3425 29.1793 34.6411 28.638C34.9491 28.0967 35.3458 27.6813 35.8311 27.392C36.3165 27.1027 36.8251 26.958 37.3571 26.958C37.9825 26.958 38.5051 27.098 38.9251 27.378C39.3451 27.6487 39.6625 28.0313 39.8771 28.526C40.0918 29.0113 40.1991 29.576 40.1991 30.22C40.1991 30.556 40.1758 30.8173 40.1291 31.004H35.7611C35.8358 31.6107 36.0551 32.082 36.4191 32.418C36.7831 32.754 37.2405 32.922 37.7911 32.922C38.0898 32.922 38.3651 32.88 38.6171 32.796C38.8785 32.7027 39.1351 32.5767 39.3871 32.418L39.9331 33.426C39.6065 33.6407 39.2425 33.818 38.8411 33.958C38.4398 34.098 38.0198 34.168 37.5811 34.168ZM35.7471 29.912H38.7991C38.7991 29.38 38.6825 28.9647 38.4491 28.666C38.2158 28.358 37.8658 28.204 37.3991 28.204C36.9978 28.204 36.6385 28.3533 36.3211 28.652C36.0131 28.9413 35.8218 29.3613 35.7471 29.912ZM44.0221 34.168C43.2288 34.168 42.6641 33.9393 42.3281 33.482C42.0015 33.0153 41.8381 32.4133 41.8381 31.676V28.4H40.8581V27.196L41.9221 27.126L42.1181 25.25H43.4621V27.126H45.2121V28.4H43.4621V31.676C43.4621 32.4787 43.7841 32.88 44.4281 32.88C44.5495 32.88 44.6755 32.866 44.8061 32.838C44.9368 32.8007 45.0488 32.7633 45.1421 32.726L45.4221 33.916C45.2355 33.9813 45.0208 34.0373 44.7781 34.084C44.5448 34.14 44.2928 34.168 44.0221 34.168ZM48.0239 34.168C47.4266 34.168 46.9366 33.9813 46.5539 33.608C46.1806 33.2347 45.9939 32.7493 45.9939 32.152C45.9939 31.4147 46.3159 30.8453 46.9599 30.444C47.6039 30.0333 48.6306 29.7533 50.0399 29.604C50.0306 29.24 49.9326 28.9273 49.7459 28.666C49.5686 28.3953 49.2466 28.26 48.7799 28.26C48.4439 28.26 48.1126 28.3253 47.7859 28.456C47.4686 28.5867 47.1559 28.7453 46.8479 28.932L46.2599 27.854C46.6426 27.6113 47.0719 27.4013 47.5479 27.224C48.0333 27.0467 48.5466 26.958 49.0879 26.958C49.9466 26.958 50.5859 27.2147 51.0059 27.728C51.4353 28.232 51.6499 28.9647 51.6499 29.926V34H50.3199L50.2079 33.244H50.1519C49.8439 33.5053 49.5126 33.7247 49.1579 33.902C48.8126 34.0793 48.4346 34.168 48.0239 34.168ZM48.5419 32.908C48.8219 32.908 49.0739 32.8427 49.2979 32.712C49.5313 32.572 49.7786 32.3853 50.0399 32.152V30.612C49.1066 30.7333 48.4579 30.9153 48.0939 31.158C47.7299 31.3913 47.5479 31.6807 47.5479 32.026C47.5479 32.334 47.6413 32.558 47.8279 32.698C48.0146 32.838 48.2526 32.908 48.5419 32.908ZM53.5767 34V27.126H55.1867V34H53.5767ZM54.3887 25.922C54.0994 25.922 53.866 25.838 53.6887 25.67C53.5114 25.502 53.4227 25.278 53.4227 24.998C53.4227 24.7273 53.5114 24.508 53.6887 24.34C53.866 24.172 54.0994 24.088 54.3887 24.088C54.678 24.088 54.9114 24.172 55.0887 24.34C55.266 24.508 55.3547 24.7273 55.3547 24.998C55.3547 25.278 55.266 25.502 55.0887 25.67C54.9114 25.838 54.678 25.922 54.3887 25.922ZM58.8088 34.168C58.2394 34.168 57.8334 33.9953 57.5908 33.65C57.3574 33.3047 57.2408 32.8333 57.2408 32.236V24.116H58.8508V32.32C58.8508 32.516 58.8881 32.656 58.9628 32.74C59.0374 32.8147 59.1168 32.852 59.2008 32.852C59.2381 32.852 59.2708 32.852 59.2988 32.852C59.3361 32.8427 59.3874 32.8333 59.4528 32.824L59.6628 34.028C59.5694 34.0653 59.4481 34.098 59.2988 34.126C59.1588 34.154 58.9954 34.168 58.8088 34.168ZM62.9595 34.168C62.4929 34.168 62.0262 34.0793 61.5595 33.902C61.0929 33.7153 60.6915 33.4867 60.3555 33.216L61.1115 32.18C61.4195 32.4133 61.7275 32.6 62.0355 32.74C62.3435 32.88 62.6702 32.95 63.0155 32.95C63.3889 32.95 63.6642 32.8707 63.8415 32.712C64.0189 32.5533 64.1075 32.3573 64.1075 32.124C64.1075 31.928 64.0329 31.7693 63.8835 31.648C63.7435 31.5173 63.5615 31.4053 63.3375 31.312C63.1135 31.2093 62.8802 31.1113 62.6375 31.018C62.3389 30.906 62.0402 30.7707 61.7415 30.612C61.4522 30.444 61.2142 30.234 61.0275 29.982C60.8409 29.7207 60.7475 29.3987 60.7475 29.016C60.7475 28.4093 60.9715 27.9147 61.4195 27.532C61.8675 27.1493 62.4742 26.958 63.2395 26.958C63.7249 26.958 64.1589 27.042 64.5415 27.21C64.9242 27.378 65.2555 27.5693 65.5355 27.784L64.7935 28.764C64.5509 28.5867 64.3035 28.4467 64.0515 28.344C63.8089 28.232 63.5522 28.176 63.2815 28.176C62.9362 28.176 62.6795 28.2507 62.5115 28.4C62.3435 28.54 62.2595 28.7173 62.2595 28.932C62.2595 29.2027 62.3995 29.408 62.6795 29.548C62.9595 29.688 63.2862 29.8233 63.6595 29.954C63.9769 30.066 64.2849 30.206 64.5835 30.374C64.8822 30.5327 65.1295 30.7427 65.3255 31.004C65.5309 31.2653 65.6335 31.6107 65.6335 32.04C65.6335 32.628 65.4049 33.132 64.9475 33.552C64.4902 33.9627 63.8275 34.168 62.9595 34.168Z" fill="#002949"/>
<path d="M293.67 34.168C292.904 34.168 292.209 33.986 291.584 33.622C290.958 33.258 290.459 32.726 290.086 32.026C289.722 31.3167 289.54 30.458 289.54 29.45C289.54 28.4513 289.726 27.5973 290.1 26.888C290.482 26.1693 290.991 25.6233 291.626 25.25C292.26 24.8673 292.96 24.676 293.726 24.676C294.304 24.676 294.818 24.7927 295.266 25.026C295.714 25.2593 296.082 25.53 296.372 25.838L295.504 26.888C295.27 26.6453 295.009 26.454 294.72 26.314C294.44 26.1647 294.122 26.09 293.768 26.09C293.273 26.09 292.83 26.2253 292.438 26.496C292.055 26.7573 291.752 27.1353 291.528 27.63C291.313 28.1247 291.206 28.7173 291.206 29.408C291.206 30.4533 291.434 31.2747 291.892 31.872C292.349 32.46 292.96 32.754 293.726 32.754C294.136 32.754 294.5 32.67 294.818 32.502C295.135 32.3247 295.424 32.096 295.686 31.816L296.554 32.838C296.18 33.2673 295.751 33.5987 295.266 33.832C294.79 34.056 294.258 34.168 293.67 34.168ZM300.756 34.168C300.187 34.168 299.655 34.028 299.16 33.748C298.665 33.4587 298.264 33.048 297.956 32.516C297.648 31.9747 297.494 31.326 297.494 30.57C297.494 29.8047 297.648 29.156 297.956 28.624C298.264 28.0827 298.665 27.672 299.16 27.392C299.655 27.1027 300.187 26.958 300.756 26.958C301.335 26.958 301.871 27.1027 302.366 27.392C302.861 27.672 303.262 28.0827 303.57 28.624C303.878 29.156 304.032 29.8047 304.032 30.57C304.032 31.326 303.878 31.9747 303.57 32.516C303.262 33.048 302.861 33.4587 302.366 33.748C301.871 34.028 301.335 34.168 300.756 34.168ZM300.756 32.852C301.26 32.852 301.657 32.642 301.946 32.222C302.235 31.802 302.38 31.2513 302.38 30.57C302.38 29.8793 302.235 29.324 301.946 28.904C301.657 28.484 301.26 28.274 300.756 28.274C300.252 28.274 299.855 28.484 299.566 28.904C299.286 29.324 299.146 29.8793 299.146 30.57C299.146 31.2513 299.286 31.802 299.566 32.222C299.855 32.642 300.252 32.852 300.756 32.852ZM305.626 34V27.126H306.956L307.068 28.064H307.124C307.413 27.756 307.726 27.4947 308.062 27.28C308.407 27.0653 308.794 26.958 309.224 26.958C309.728 26.958 310.129 27.07 310.428 27.294C310.736 27.5087 310.969 27.8073 311.128 28.19C311.454 27.8353 311.795 27.5413 312.15 27.308C312.514 27.0747 312.91 26.958 313.34 26.958C314.068 26.958 314.604 27.196 314.95 27.672C315.295 28.148 315.468 28.82 315.468 29.688V34H313.844V29.898C313.844 29.3287 313.755 28.9273 313.578 28.694C313.41 28.4607 313.148 28.344 312.794 28.344C312.364 28.344 311.884 28.6287 311.352 29.198V34H309.742V29.898C309.742 29.3287 309.653 28.9273 309.476 28.694C309.308 28.4607 309.042 28.344 308.678 28.344C308.248 28.344 307.768 28.6287 307.236 29.198V34H305.626ZM317.424 36.716V27.126H318.754L318.866 27.854H318.922C319.212 27.6113 319.534 27.4013 319.888 27.224C320.252 27.0467 320.621 26.958 320.994 26.958C321.853 26.958 322.516 27.2753 322.982 27.91C323.458 28.5447 323.696 29.394 323.696 30.458C323.696 31.242 323.556 31.914 323.276 32.474C322.996 33.0247 322.632 33.4447 322.184 33.734C321.746 34.0233 321.27 34.168 320.756 34.168C320.458 34.168 320.159 34.1027 319.86 33.972C319.562 33.832 319.272 33.6453 318.992 33.412L319.034 34.56V36.716H317.424ZM320.42 32.838C320.878 32.838 321.26 32.6373 321.568 32.236C321.876 31.8347 322.03 31.2467 322.03 30.472C322.03 29.7813 321.914 29.2447 321.68 28.862C321.447 28.4793 321.069 28.288 320.546 28.288C320.061 28.288 319.557 28.5447 319.034 29.058V32.264C319.286 32.4693 319.529 32.6187 319.762 32.712C319.996 32.796 320.215 32.838 320.42 32.838ZM326.895 34.168C326.325 34.168 325.919 33.9953 325.677 33.65C325.443 33.3047 325.327 32.8333 325.327 32.236V24.116H326.937V32.32C326.937 32.516 326.974 32.656 327.049 32.74C327.123 32.8147 327.203 32.852 327.287 32.852C327.324 32.852 327.357 32.852 327.385 32.852C327.422 32.8427 327.473 32.8333 327.539 32.824L327.749 34.028C327.655 34.0653 327.534 34.098 327.385 34.126C327.245 34.154 327.081 34.168 326.895 34.168ZM332.067 34.168C331.433 34.168 330.859 34.028 330.345 33.748C329.832 33.4587 329.426 33.048 329.127 32.516C328.829 31.9747 328.679 31.326 328.679 30.57C328.679 29.8233 328.829 29.1793 329.127 28.638C329.435 28.0967 329.832 27.6813 330.317 27.392C330.803 27.1027 331.311 26.958 331.843 26.958C332.469 26.958 332.991 27.098 333.411 27.378C333.831 27.6487 334.149 28.0313 334.363 28.526C334.578 29.0113 334.685 29.576 334.685 30.22C334.685 30.556 334.662 30.8173 334.615 31.004H330.247C330.322 31.6107 330.541 32.082 330.905 32.418C331.269 32.754 331.727 32.922 332.277 32.922C332.576 32.922 332.851 32.88 333.103 32.796C333.365 32.7027 333.621 32.5767 333.873 32.418L334.419 33.426C334.093 33.6407 333.729 33.818 333.327 33.958C332.926 34.098 332.506 34.168 332.067 34.168ZM330.233 29.912H333.285C333.285 29.38 333.169 28.9647 332.935 28.666C332.702 28.358 332.352 28.204 331.885 28.204C331.484 28.204 331.125 28.3533 330.807 28.652C330.499 28.9413 330.308 29.3613 330.233 29.912ZM338.508 34.168C337.715 34.168 337.15 33.9393 336.814 33.482C336.488 33.0153 336.324 32.4133 336.324 31.676V28.4H335.344V27.196L336.408 27.126L336.604 25.25H337.948V27.126H339.698V28.4H337.948V31.676C337.948 32.4787 338.27 32.88 338.914 32.88C339.036 32.88 339.162 32.866 339.292 32.838C339.423 32.8007 339.535 32.7633 339.628 32.726L339.908 33.916C339.722 33.9813 339.507 34.0373 339.264 34.084C339.031 34.14 338.779 34.168 338.508 34.168ZM343.866 34.168C343.232 34.168 342.658 34.028 342.144 33.748C341.631 33.4587 341.225 33.048 340.926 32.516C340.628 31.9747 340.478 31.326 340.478 30.57C340.478 29.8233 340.628 29.1793 340.926 28.638C341.234 28.0967 341.631 27.6813 342.116 27.392C342.602 27.1027 343.11 26.958 343.642 26.958C344.268 26.958 344.79 27.098 345.21 27.378C345.63 27.6487 345.948 28.0313 346.162 28.526C346.377 29.0113 346.484 29.576 346.484 30.22C346.484 30.556 346.461 30.8173 346.414 31.004H342.046C342.121 31.6107 342.34 32.082 342.704 32.418C343.068 32.754 343.526 32.922 344.076 32.922C344.375 32.922 344.65 32.88 344.902 32.796C345.164 32.7027 345.42 32.5767 345.672 32.418L346.218 33.426C345.892 33.6407 345.528 33.818 345.126 33.958C344.725 34.098 344.305 34.168 343.866 34.168ZM342.032 29.912H345.084C345.084 29.38 344.968 28.9647 344.734 28.666C344.501 28.358 344.151 28.204 343.684 28.204C343.283 28.204 342.924 28.3533 342.606 28.652C342.298 28.9413 342.107 29.3613 342.032 29.912Z" fill="#002949"/>
<circle cx="39.6833" cy="5.84349" r="5.84349" fill="#31EE50"/>
<circle cx="316.648" cy="5.99974" r="5.84349" fill="#31EE50"/>
</svg>
