<svg width="366" height="35" viewBox="0 0 366 35" fill="none" xmlns="http://www.w3.org/2000/svg">
<path d="M234 5H336V8H234V5Z" fill="#FF0000"/>
<rect x="136" y="5" width="99" height="3" fill="#31EE50"/>
<rect x="43" y="5" width="93" height="3" fill="#31EE50"/>
<path d="M3.413 31.144C2.885 31.144 2.373 31.044 1.877 30.844C1.389 30.644 0.957 30.36 0.581 29.992L1.397 29.044C1.677 29.308 1.997 29.524 2.357 29.692C2.717 29.852 3.077 29.932 3.437 29.932C3.885 29.932 4.225 29.84 4.457 29.656C4.689 29.472 4.805 29.228 4.805 28.924C4.805 28.596 4.689 28.36 4.457 28.216C4.233 28.072 3.945 27.924 3.593 27.772L2.513 27.304C2.257 27.192 2.005 27.048 1.757 26.872C1.517 26.696 1.317 26.472 1.157 26.2C1.005 25.928 0.929 25.6 0.929 25.216C0.929 24.8 1.041 24.428 1.265 24.1C1.497 23.764 1.809 23.5 2.201 23.308C2.601 23.108 3.057 23.008 3.569 23.008C4.025 23.008 4.465 23.1 4.889 23.284C5.313 23.46 5.677 23.7 5.981 24.004L5.273 24.892C5.025 24.684 4.761 24.52 4.481 24.4C4.209 24.28 3.905 24.22 3.569 24.22C3.201 24.22 2.901 24.304 2.669 24.472C2.445 24.632 2.333 24.856 2.333 25.144C2.333 25.344 2.389 25.512 2.501 25.648C2.621 25.776 2.777 25.888 2.969 25.984C3.161 26.072 3.365 26.16 3.581 26.248L4.649 26.692C5.113 26.892 5.493 27.156 5.789 27.484C6.085 27.804 6.233 28.248 6.233 28.816C6.233 29.24 6.121 29.628 5.897 29.98C5.673 30.332 5.349 30.616 4.925 30.832C4.509 31.04 4.005 31.144 3.413 31.144ZM10.0001 31.144C9.46406 31.144 8.98006 31.024 8.54806 30.784C8.12406 30.536 7.78406 30.184 7.52806 29.728C7.28006 29.264 7.15606 28.708 7.15606 28.06C7.15606 27.404 7.29206 26.848 7.56406 26.392C7.83606 25.928 8.19606 25.576 8.64406 25.336C9.10006 25.088 9.58806 24.964 10.1081 24.964C10.4841 24.964 10.8121 25.028 11.0921 25.156C11.3721 25.284 11.6201 25.44 11.8361 25.624L11.1641 26.524C11.0121 26.388 10.8561 26.284 10.6961 26.212C10.5361 26.132 10.3641 26.092 10.1801 26.092C9.70806 26.092 9.32006 26.272 9.01606 26.632C8.72006 26.992 8.57206 27.468 8.57206 28.06C8.57206 28.644 8.71606 29.116 9.00406 29.476C9.30006 29.836 9.68006 30.016 10.1441 30.016C10.3761 30.016 10.5921 29.968 10.7921 29.872C11.0001 29.768 11.1881 29.648 11.3561 29.512L11.9201 30.424C11.6481 30.664 11.3441 30.844 11.0081 30.964C10.6721 31.084 10.3361 31.144 10.0001 31.144ZM13.083 31V22.528H14.463V24.712L14.415 25.852C14.663 25.62 14.939 25.416 15.243 25.24C15.547 25.056 15.899 24.964 16.299 24.964C16.931 24.964 17.391 25.168 17.679 25.576C17.967 25.984 18.111 26.56 18.111 27.304V31H16.731V27.484C16.731 26.996 16.659 26.652 16.515 26.452C16.371 26.252 16.135 26.152 15.807 26.152C15.551 26.152 15.323 26.216 15.123 26.344C14.931 26.464 14.711 26.644 14.463 26.884V31H13.083ZM22.2944 31.144C21.7504 31.144 21.2584 31.024 20.8184 30.784C20.3784 30.536 20.0304 30.184 19.7744 29.728C19.5184 29.264 19.3904 28.708 19.3904 28.06C19.3904 27.42 19.5184 26.868 19.7744 26.404C20.0384 25.94 20.3784 25.584 20.7944 25.336C21.2104 25.088 21.6464 24.964 22.1024 24.964C22.6384 24.964 23.0864 25.084 23.4464 25.324C23.8064 25.556 24.0784 25.884 24.2624 26.308C24.4464 26.724 24.5384 27.208 24.5384 27.76C24.5384 28.048 24.5184 28.272 24.4784 28.432H20.7344C20.7984 28.952 20.9864 29.356 21.2984 29.644C21.6104 29.932 22.0024 30.076 22.4744 30.076C22.7304 30.076 22.9664 30.04 23.1824 29.968C23.4064 29.888 23.6264 29.78 23.8424 29.644L24.3104 30.508C24.0304 30.692 23.7184 30.844 23.3744 30.964C23.0304 31.084 22.6704 31.144 22.2944 31.144ZM20.7224 27.496H23.3384C23.3384 27.04 23.2384 26.684 23.0384 26.428C22.8384 26.164 22.5384 26.032 22.1384 26.032C21.7944 26.032 21.4864 26.16 21.2144 26.416C20.9504 26.664 20.7864 27.024 20.7224 27.496ZM25.8565 31V25.108H26.9965L27.0925 25.912H27.1405C27.3885 25.648 27.6565 25.424 27.9445 25.24C28.2405 25.056 28.5725 24.964 28.9405 24.964C29.3725 24.964 29.7165 25.06 29.9725 25.252C30.2365 25.436 30.4365 25.692 30.5725 26.02C30.8525 25.716 31.1445 25.464 31.4485 25.264C31.7605 25.064 32.1005 24.964 32.4685 24.964C33.0925 24.964 33.5525 25.168 33.8485 25.576C34.1445 25.984 34.2925 26.56 34.2925 27.304V31H32.9005V27.484C32.9005 26.996 32.8245 26.652 32.6725 26.452C32.5285 26.252 32.3045 26.152 32.0005 26.152C31.6325 26.152 31.2205 26.396 30.7645 26.884V31H29.3845V27.484C29.3845 26.996 29.3085 26.652 29.1565 26.452C29.0125 26.252 28.7845 26.152 28.4725 26.152C28.1045 26.152 27.6925 26.396 27.2365 26.884V31H25.8565ZM38.4898 31.144C37.9458 31.144 37.4538 31.024 37.0138 30.784C36.5738 30.536 36.2258 30.184 35.9698 29.728C35.7138 29.264 35.5858 28.708 35.5858 28.06C35.5858 27.42 35.7138 26.868 35.9698 26.404C36.2338 25.94 36.5738 25.584 36.9898 25.336C37.4058 25.088 37.8418 24.964 38.2978 24.964C38.8338 24.964 39.2818 25.084 39.6418 25.324C40.0018 25.556 40.2738 25.884 40.4578 26.308C40.6418 26.724 40.7338 27.208 40.7338 27.76C40.7338 28.048 40.7138 28.272 40.6738 28.432H36.9298C36.9938 28.952 37.1818 29.356 37.4938 29.644C37.8058 29.932 38.1978 30.076 38.6698 30.076C38.9258 30.076 39.1618 30.04 39.3778 29.968C39.6018 29.888 39.8218 29.78 40.0378 29.644L40.5058 30.508C40.2258 30.692 39.9138 30.844 39.5698 30.964C39.2258 31.084 38.8658 31.144 38.4898 31.144ZM36.9178 27.496H39.5338C39.5338 27.04 39.4338 26.684 39.2338 26.428C39.0338 26.164 38.7338 26.032 38.3338 26.032C37.9898 26.032 37.6818 26.16 37.4098 26.416C37.1458 26.664 36.9818 27.024 36.9178 27.496ZM44.5741 31V23.152H46.6741C47.8741 23.152 48.8101 23.476 49.4821 24.124C50.1541 24.772 50.4901 25.744 50.4901 27.04C50.4901 28.344 50.1581 29.332 49.4941 30.004C48.8301 30.668 47.9141 31 46.7461 31H44.5741ZM45.9661 29.872H46.5781C47.3701 29.872 47.9821 29.644 48.4141 29.188C48.8461 28.724 49.0621 28.008 49.0621 27.04C49.0621 26.08 48.8461 25.38 48.4141 24.94C47.9821 24.5 47.3701 24.28 46.5781 24.28H45.9661V29.872ZM54.4741 31.144C53.9301 31.144 53.4381 31.024 52.9981 30.784C52.5581 30.536 52.2101 30.184 51.9541 29.728C51.6981 29.264 51.5701 28.708 51.5701 28.06C51.5701 27.42 51.6981 26.868 51.9541 26.404C52.2181 25.94 52.5581 25.584 52.9741 25.336C53.3901 25.088 53.8261 24.964 54.2821 24.964C54.8181 24.964 55.2661 25.084 55.6261 25.324C55.9861 25.556 56.2581 25.884 56.4421 26.308C56.6261 26.724 56.7181 27.208 56.7181 27.76C56.7181 28.048 56.6981 28.272 56.6581 28.432H52.9141C52.9781 28.952 53.1661 29.356 53.4781 29.644C53.7901 29.932 54.1821 30.076 54.6541 30.076C54.9101 30.076 55.1461 30.04 55.3621 29.968C55.5861 29.888 55.8061 29.78 56.0221 29.644L56.4901 30.508C56.2101 30.692 55.8981 30.844 55.5541 30.964C55.2101 31.084 54.8501 31.144 54.4741 31.144ZM52.9021 27.496H55.5181C55.5181 27.04 55.4181 26.684 55.2181 26.428C55.0181 26.164 54.7181 26.032 54.3181 26.032C53.9741 26.032 53.6661 26.16 53.3941 26.416C53.1301 26.664 52.9661 27.024 52.9021 27.496ZM59.995 31.144C59.315 31.144 58.831 30.948 58.543 30.556C58.263 30.156 58.123 29.64 58.123 29.008V26.2H57.283V25.168L58.195 25.108L58.363 23.5H59.515V25.108H61.015V26.2H59.515V29.008C59.515 29.696 59.791 30.04 60.343 30.04C60.447 30.04 60.555 30.028 60.667 30.004C60.779 29.972 60.875 29.94 60.955 29.908L61.195 30.928C61.035 30.984 60.851 31.032 60.643 31.072C60.443 31.12 60.227 31.144 59.995 31.144ZM63.4251 31.144C62.9131 31.144 62.4931 30.984 62.1651 30.664C61.8451 30.344 61.6851 29.928 61.6851 29.416C61.6851 28.784 61.9611 28.296 62.5131 27.952C63.0651 27.6 63.9451 27.36 65.1531 27.232C65.1451 26.92 65.0611 26.652 64.9011 26.428C64.7491 26.196 64.4731 26.08 64.0731 26.08C63.7851 26.08 63.5011 26.136 63.2211 26.248C62.9491 26.36 62.6811 26.496 62.4171 26.656L61.9131 25.732C62.2411 25.524 62.6091 25.344 63.0171 25.192C63.4331 25.04 63.8731 24.964 64.3371 24.964C65.0731 24.964 65.6211 25.184 65.9811 25.624C66.3491 26.056 66.5331 26.684 66.5331 27.508V31H65.3931L65.2971 30.352H65.2491C64.9851 30.576 64.7011 30.764 64.3971 30.916C64.1011 31.068 63.7771 31.144 63.4251 31.144ZM63.8691 30.064C64.1091 30.064 64.3251 30.008 64.5171 29.896C64.7171 29.776 64.9291 29.616 65.1531 29.416V28.096C64.3531 28.2 63.7971 28.356 63.4851 28.564C63.1731 28.764 63.0171 29.012 63.0171 29.308C63.0171 29.572 63.0971 29.764 63.2571 29.884C63.4171 30.004 63.6211 30.064 63.8691 30.064ZM68.1846 31V25.108H69.5646V31H68.1846ZM68.8806 24.076C68.6326 24.076 68.4326 24.004 68.2806 23.86C68.1286 23.716 68.0526 23.524 68.0526 23.284C68.0526 23.052 68.1286 22.864 68.2806 22.72C68.4326 22.576 68.6326 22.504 68.8806 22.504C69.1286 22.504 69.3286 22.576 69.4806 22.72C69.6326 22.864 69.7086 23.052 69.7086 23.284C69.7086 23.524 69.6326 23.716 69.4806 23.86C69.3286 24.004 69.1286 24.076 68.8806 24.076ZM72.6692 31.144C72.1812 31.144 71.8332 30.996 71.6252 30.7C71.4252 30.404 71.3252 30 71.3252 29.488V22.528H72.7052V29.56C72.7052 29.728 72.7372 29.848 72.8012 29.92C72.8652 29.984 72.9332 30.016 73.0052 30.016C73.0372 30.016 73.0652 30.016 73.0892 30.016C73.1212 30.008 73.1652 30 73.2212 29.992L73.4012 31.024C73.3212 31.056 73.2172 31.084 73.0892 31.108C72.9692 31.132 72.8292 31.144 72.6692 31.144ZM76.227 31.144C75.827 31.144 75.427 31.068 75.027 30.916C74.627 30.756 74.283 30.56 73.995 30.328L74.643 29.44C74.907 29.64 75.171 29.8 75.435 29.92C75.699 30.04 75.979 30.1 76.275 30.1C76.595 30.1 76.831 30.032 76.983 29.896C77.135 29.76 77.211 29.592 77.211 29.392C77.211 29.224 77.147 29.088 77.019 28.984C76.899 28.872 76.743 28.776 76.551 28.696C76.359 28.608 76.159 28.524 75.951 28.444C75.695 28.348 75.439 28.232 75.183 28.096C74.935 27.952 74.731 27.772 74.571 27.556C74.411 27.332 74.331 27.056 74.331 26.728C74.331 26.208 74.523 25.784 74.907 25.456C75.291 25.128 75.811 24.964 76.467 24.964C76.883 24.964 77.255 25.036 77.583 25.18C77.911 25.324 78.195 25.488 78.435 25.672L77.799 26.512C77.591 26.36 77.379 26.24 77.163 26.152C76.955 26.056 76.735 26.008 76.503 26.008C76.207 26.008 75.987 26.072 75.843 26.2C75.699 26.32 75.627 26.472 75.627 26.656C75.627 26.888 75.747 27.064 75.987 27.184C76.227 27.304 76.507 27.42 76.827 27.532C77.099 27.628 77.363 27.748 77.619 27.892C77.875 28.028 78.087 28.208 78.255 28.432C78.431 28.656 78.519 28.952 78.519 29.32C78.519 29.824 78.323 30.256 77.931 30.616C77.539 30.968 76.971 31.144 76.227 31.144Z" fill="#002949"/>
<circle cx="37.8435" cy="5.84349" r="5.84349" fill="#31EE50"/>
<path d="M118.049 26.824L117.773 27.784H119.777L119.501 26.824C119.373 26.408 119.249 25.98 119.129 25.54C119.017 25.1 118.905 24.664 118.793 24.232H118.745C118.641 24.672 118.529 25.112 118.409 25.552C118.297 25.984 118.177 26.408 118.049 26.824ZM115.421 31L117.977 23.152H119.609L122.165 31H120.701L120.089 28.876H117.449L116.837 31H115.421ZM123.013 31V25.108H124.153L124.249 25.912H124.297C124.545 25.648 124.813 25.424 125.101 25.24C125.397 25.056 125.729 24.964 126.097 24.964C126.529 24.964 126.873 25.06 127.129 25.252C127.393 25.436 127.593 25.692 127.729 26.02C128.009 25.716 128.301 25.464 128.605 25.264C128.917 25.064 129.257 24.964 129.625 24.964C130.249 24.964 130.709 25.168 131.005 25.576C131.301 25.984 131.449 26.56 131.449 27.304V31H130.057V27.484C130.057 26.996 129.981 26.652 129.829 26.452C129.685 26.252 129.461 26.152 129.157 26.152C128.789 26.152 128.377 26.396 127.921 26.884V31H126.541V27.484C126.541 26.996 126.465 26.652 126.313 26.452C126.169 26.252 125.941 26.152 125.629 26.152C125.261 26.152 124.849 26.396 124.393 26.884V31H123.013ZM135.538 31.144C135.05 31.144 134.594 31.024 134.17 30.784C133.746 30.536 133.402 30.184 133.138 29.728C132.874 29.264 132.742 28.708 132.742 28.06C132.742 27.404 132.874 26.848 133.138 26.392C133.402 25.928 133.746 25.576 134.17 25.336C134.594 25.088 135.05 24.964 135.538 24.964C136.034 24.964 136.494 25.088 136.918 25.336C137.342 25.576 137.686 25.928 137.95 26.392C138.214 26.848 138.346 27.404 138.346 28.06C138.346 28.708 138.214 29.264 137.95 29.728C137.686 30.184 137.342 30.536 136.918 30.784C136.494 31.024 136.034 31.144 135.538 31.144ZM135.538 30.016C135.97 30.016 136.31 29.836 136.558 29.476C136.806 29.116 136.93 28.644 136.93 28.06C136.93 27.468 136.806 26.992 136.558 26.632C136.31 26.272 135.97 26.092 135.538 26.092C135.106 26.092 134.766 26.272 134.518 26.632C134.278 26.992 134.158 27.468 134.158 28.06C134.158 28.644 134.278 29.116 134.518 29.476C134.766 29.836 135.106 30.016 135.538 30.016ZM141.464 31.144C140.832 31.144 140.372 30.94 140.084 30.532C139.796 30.124 139.652 29.548 139.652 28.804V25.108H141.032V28.624C141.032 29.112 141.104 29.456 141.248 29.656C141.392 29.856 141.624 29.956 141.944 29.956C142.2 29.956 142.424 29.892 142.616 29.764C142.816 29.636 143.028 29.428 143.252 29.14V25.108H144.632V31H143.504L143.396 30.136H143.36C143.104 30.44 142.824 30.684 142.52 30.868C142.216 31.052 141.864 31.144 141.464 31.144ZM146.38 31V25.108H147.52L147.616 25.9H147.664C147.928 25.644 148.216 25.424 148.528 25.24C148.84 25.056 149.196 24.964 149.596 24.964C150.228 24.964 150.688 25.168 150.976 25.576C151.264 25.984 151.408 26.56 151.408 27.304V31H150.028V27.484C150.028 26.996 149.956 26.652 149.812 26.452C149.668 26.252 149.432 26.152 149.104 26.152C148.848 26.152 148.62 26.216 148.42 26.344C148.228 26.464 148.008 26.644 147.76 26.884V31H146.38ZM155.171 31.144C154.491 31.144 154.007 30.948 153.719 30.556C153.439 30.156 153.299 29.64 153.299 29.008V26.2H152.459V25.168L153.371 25.108L153.539 23.5H154.691V25.108H156.191V26.2H154.691V29.008C154.691 29.696 154.967 30.04 155.519 30.04C155.623 30.04 155.731 30.028 155.843 30.004C155.955 29.972 156.051 29.94 156.131 29.908L156.371 30.928C156.211 30.984 156.027 31.032 155.819 31.072C155.619 31.12 155.403 31.144 155.171 31.144Z" fill="#002949"/>
<circle cx="135.843" cy="5.84349" r="5.84349" fill="#31EE50"/>
<path d="M204.362 30.8442C203.706 30.8442 203.11 30.6882 202.574 30.3762C202.038 30.0642 201.61 29.6082 201.29 29.0082C200.978 28.4002 200.822 27.6642 200.822 26.8002C200.822 25.9442 200.982 25.2122 201.302 24.6042C201.63 23.9882 202.066 23.5202 202.61 23.2002C203.154 22.8722 203.754 22.7082 204.41 22.7082C204.906 22.7082 205.346 22.8082 205.73 23.0082C206.114 23.2082 206.43 23.4402 206.678 23.7042L205.934 24.6042C205.734 24.3962 205.51 24.2322 205.262 24.1122C205.022 23.9842 204.75 23.9202 204.446 23.9202C204.022 23.9202 203.642 24.0362 203.306 24.2682C202.978 24.4922 202.718 24.8162 202.526 25.2402C202.342 25.6642 202.25 26.1722 202.25 26.7642C202.25 27.6602 202.446 28.3642 202.838 28.8762C203.23 29.3802 203.754 29.6322 204.41 29.6322C204.762 29.6322 205.074 29.5602 205.346 29.4162C205.618 29.2642 205.866 29.0682 206.09 28.8282L206.834 29.7042C206.514 30.0722 206.146 30.3562 205.73 30.5562C205.322 30.7482 204.866 30.8442 204.362 30.8442ZM210.436 30.8442C209.948 30.8442 209.492 30.7242 209.068 30.4842C208.644 30.2362 208.3 29.8842 208.036 29.4282C207.772 28.9642 207.64 28.4082 207.64 27.7602C207.64 27.1042 207.772 26.5482 208.036 26.0922C208.3 25.6282 208.644 25.2762 209.068 25.0362C209.492 24.7882 209.948 24.6642 210.436 24.6642C210.932 24.6642 211.392 24.7882 211.816 25.0362C212.24 25.2762 212.584 25.6282 212.848 26.0922C213.112 26.5482 213.244 27.1042 213.244 27.7602C213.244 28.4082 213.112 28.9642 212.848 29.4282C212.584 29.8842 212.24 30.2362 211.816 30.4842C211.392 30.7242 210.932 30.8442 210.436 30.8442ZM210.436 29.7162C210.868 29.7162 211.208 29.5362 211.456 29.1762C211.704 28.8162 211.828 28.3442 211.828 27.7602C211.828 27.1682 211.704 26.6922 211.456 26.3322C211.208 25.9722 210.868 25.7922 210.436 25.7922C210.004 25.7922 209.664 25.9722 209.416 26.3322C209.176 26.6922 209.056 27.1682 209.056 27.7602C209.056 28.3442 209.176 28.8162 209.416 29.1762C209.664 29.5362 210.004 29.7162 210.436 29.7162ZM214.61 30.7002V24.8082H215.75L215.846 25.6002H215.894C216.158 25.3442 216.446 25.1242 216.758 24.9402C217.07 24.7562 217.426 24.6642 217.826 24.6642C218.458 24.6642 218.918 24.8682 219.206 25.2762C219.494 25.6842 219.638 26.2602 219.638 27.0042V30.7002H218.258V27.1842C218.258 26.6962 218.186 26.3522 218.042 26.1522C217.898 25.9522 217.662 25.8522 217.334 25.8522C217.078 25.8522 216.85 25.9162 216.65 26.0442C216.458 26.1642 216.238 26.3442 215.99 26.5842V30.7002H214.61ZM221.565 30.7002V25.9002H220.773V24.8682L221.565 24.8082V24.1962C221.565 23.5802 221.717 23.0762 222.021 22.6842C222.325 22.2842 222.825 22.0842 223.521 22.0842C223.729 22.0842 223.929 22.1042 224.121 22.1442C224.313 22.1842 224.473 22.2322 224.601 22.2882L224.337 23.3202C224.121 23.2242 223.905 23.1762 223.689 23.1762C223.193 23.1762 222.945 23.5082 222.945 24.1722V24.8082H224.097V25.9002H222.945V30.7002H221.565ZM225.134 30.7002V24.8082H226.514V30.7002H225.134ZM225.83 23.7762C225.582 23.7762 225.382 23.7042 225.23 23.5602C225.078 23.4162 225.002 23.2242 225.002 22.9842C225.002 22.7522 225.078 22.5642 225.23 22.4202C225.382 22.2762 225.582 22.2042 225.83 22.2042C226.078 22.2042 226.278 22.2762 226.43 22.4202C226.582 22.5642 226.658 22.7522 226.658 22.9842C226.658 23.2242 226.582 23.4162 226.43 23.5602C226.278 23.7042 226.078 23.7762 225.83 23.7762ZM228.274 30.7002V24.8082H229.414L229.51 25.8522H229.558C229.766 25.4682 230.018 25.1762 230.314 24.9762C230.61 24.7682 230.914 24.6642 231.226 24.6642C231.506 24.6642 231.73 24.7042 231.898 24.7842L231.658 25.9842C231.554 25.9522 231.458 25.9282 231.37 25.9122C231.282 25.8962 231.174 25.8882 231.046 25.8882C230.814 25.8882 230.57 25.9802 230.314 26.1642C230.058 26.3402 229.838 26.6522 229.654 27.1002V30.7002H228.274ZM232.751 30.7002V24.8082H233.891L233.987 25.6122H234.035C234.283 25.3482 234.551 25.1242 234.839 24.9402C235.135 24.7562 235.467 24.6642 235.835 24.6642C236.267 24.6642 236.611 24.7602 236.867 24.9522C237.131 25.1362 237.331 25.3922 237.467 25.7202C237.747 25.4162 238.039 25.1642 238.343 24.9642C238.655 24.7642 238.995 24.6642 239.363 24.6642C239.987 24.6642 240.447 24.8682 240.743 25.2762C241.039 25.6842 241.187 26.2602 241.187 27.0042V30.7002H239.795V27.1842C239.795 26.6962 239.719 26.3522 239.567 26.1522C239.423 25.9522 239.199 25.8522 238.895 25.8522C238.527 25.8522 238.115 26.0962 237.659 26.5842V30.7002H236.279V27.1842C236.279 26.6962 236.203 26.3522 236.051 26.1522C235.907 25.9522 235.679 25.8522 235.367 25.8522C234.999 25.8522 234.587 26.0962 234.131 26.5842V30.7002H232.751ZM244.292 30.8442C243.78 30.8442 243.36 30.6842 243.032 30.3642C242.712 30.0442 242.552 29.6282 242.552 29.1162C242.552 28.4842 242.828 27.9962 243.38 27.6522C243.932 27.3002 244.812 27.0602 246.02 26.9322C246.012 26.6202 245.928 26.3522 245.768 26.1282C245.616 25.8962 245.34 25.7802 244.94 25.7802C244.652 25.7802 244.368 25.8362 244.088 25.9482C243.816 26.0602 243.548 26.1962 243.284 26.3562L242.78 25.4322C243.108 25.2242 243.476 25.0442 243.884 24.8922C244.3 24.7402 244.74 24.6642 245.204 24.6642C245.94 24.6642 246.488 24.8842 246.848 25.3242C247.216 25.7562 247.4 26.3842 247.4 27.2082V30.7002H246.26L246.164 30.0522H246.116C245.852 30.2762 245.568 30.4642 245.264 30.6162C244.968 30.7682 244.644 30.8442 244.292 30.8442ZM244.736 29.7642C244.976 29.7642 245.192 29.7082 245.384 29.5962C245.584 29.4762 245.796 29.3162 246.02 29.1162V27.7962C245.22 27.9002 244.664 28.0562 244.352 28.2642C244.04 28.4642 243.884 28.7122 243.884 29.0082C243.884 29.2722 243.964 29.4642 244.124 29.5842C244.284 29.7042 244.488 29.7642 244.736 29.7642ZM250.94 30.8442C250.26 30.8442 249.776 30.6482 249.488 30.2562C249.208 29.8562 249.068 29.3402 249.068 28.7082V25.9002H248.228V24.8682L249.14 24.8082L249.308 23.2002H250.46V24.8082H251.96V25.9002H250.46V28.7082C250.46 29.3962 250.736 29.7402 251.288 29.7402C251.392 29.7402 251.5 29.7282 251.612 29.7042C251.724 29.6722 251.82 29.6402 251.9 29.6082L252.14 30.6282C251.98 30.6842 251.796 30.7322 251.588 30.7722C251.388 30.8202 251.172 30.8442 250.94 30.8442ZM253.2 30.7002V24.8082H254.58V30.7002H253.2ZM253.896 23.7762C253.648 23.7762 253.448 23.7042 253.296 23.5602C253.144 23.4162 253.068 23.2242 253.068 22.9842C253.068 22.7522 253.144 22.5642 253.296 22.4202C253.448 22.2762 253.648 22.2042 253.896 22.2042C254.144 22.2042 254.344 22.2762 254.496 22.4202C254.648 22.5642 254.724 22.7522 254.724 22.9842C254.724 23.2242 254.648 23.4162 254.496 23.5602C254.344 23.7042 254.144 23.7762 253.896 23.7762ZM258.753 30.8442C258.265 30.8442 257.809 30.7242 257.385 30.4842C256.961 30.2362 256.617 29.8842 256.353 29.4282C256.089 28.9642 255.957 28.4082 255.957 27.7602C255.957 27.1042 256.089 26.5482 256.353 26.0922C256.617 25.6282 256.961 25.2762 257.385 25.0362C257.809 24.7882 258.265 24.6642 258.753 24.6642C259.249 24.6642 259.709 24.7882 260.133 25.0362C260.557 25.2762 260.901 25.6282 261.165 26.0922C261.429 26.5482 261.561 27.1042 261.561 27.7602C261.561 28.4082 261.429 28.9642 261.165 29.4282C260.901 29.8842 260.557 30.2362 260.133 30.4842C259.709 30.7242 259.249 30.8442 258.753 30.8442ZM258.753 29.7162C259.185 29.7162 259.525 29.5362 259.773 29.1762C260.021 28.8162 260.145 28.3442 260.145 27.7602C260.145 27.1682 260.021 26.6922 259.773 26.3322C259.525 25.9722 259.185 25.7922 258.753 25.7922C258.321 25.7922 257.981 25.9722 257.733 26.3322C257.493 26.6922 257.373 27.1682 257.373 27.7602C257.373 28.3442 257.493 28.8162 257.733 29.1762C257.981 29.5362 258.321 29.7162 258.753 29.7162ZM262.927 30.7002V24.8082H264.067L264.163 25.6002H264.211C264.475 25.3442 264.763 25.1242 265.075 24.9402C265.387 24.7562 265.743 24.6642 266.143 24.6642C266.775 24.6642 267.235 24.8682 267.523 25.2762C267.811 25.6842 267.955 26.2602 267.955 27.0042V30.7002H266.575V27.1842C266.575 26.6962 266.503 26.3522 266.359 26.1522C266.215 25.9522 265.979 25.8522 265.651 25.8522C265.395 25.8522 265.167 25.9162 264.967 26.0442C264.775 26.1642 264.555 26.3442 264.307 26.5842V30.7002H262.927Z" fill="#002949"/>
<circle cx="234.843" cy="5.84349" r="5.84349" fill="#31EE50"/>
<path d="M308.357 31V23.152H309.749V31H308.357ZM311.624 31V25.108H312.764L312.86 25.9H312.908C313.172 25.644 313.46 25.424 313.772 25.24C314.084 25.056 314.44 24.964 314.84 24.964C315.472 24.964 315.932 25.168 316.22 25.576C316.508 25.984 316.652 26.56 316.652 27.304V31H315.272V27.484C315.272 26.996 315.2 26.652 315.056 26.452C314.912 26.252 314.676 26.152 314.348 26.152C314.092 26.152 313.864 26.216 313.664 26.344C313.472 26.464 313.252 26.644 313.004 26.884V31H311.624ZM320.799 31.144C320.263 31.144 319.779 31.024 319.347 30.784C318.923 30.536 318.583 30.184 318.327 29.728C318.079 29.264 317.955 28.708 317.955 28.06C317.955 27.404 318.091 26.848 318.363 26.392C318.635 25.928 318.995 25.576 319.443 25.336C319.899 25.088 320.387 24.964 320.907 24.964C321.283 24.964 321.611 25.028 321.891 25.156C322.171 25.284 322.419 25.44 322.635 25.624L321.963 26.524C321.811 26.388 321.655 26.284 321.495 26.212C321.335 26.132 321.163 26.092 320.979 26.092C320.507 26.092 320.119 26.272 319.815 26.632C319.519 26.992 319.371 27.468 319.371 28.06C319.371 28.644 319.515 29.116 319.803 29.476C320.099 29.836 320.479 30.016 320.943 30.016C321.175 30.016 321.391 29.968 321.591 29.872C321.799 29.768 321.987 29.648 322.155 29.512L322.719 30.424C322.447 30.664 322.143 30.844 321.807 30.964C321.471 31.084 321.135 31.144 320.799 31.144ZM326.001 31.144C325.513 31.144 325.057 31.024 324.633 30.784C324.209 30.536 323.865 30.184 323.601 29.728C323.337 29.264 323.205 28.708 323.205 28.06C323.205 27.404 323.337 26.848 323.601 26.392C323.865 25.928 324.209 25.576 324.633 25.336C325.057 25.088 325.513 24.964 326.001 24.964C326.497 24.964 326.957 25.088 327.381 25.336C327.805 25.576 328.149 25.928 328.413 26.392C328.677 26.848 328.809 27.404 328.809 28.06C328.809 28.708 328.677 29.264 328.413 29.728C328.149 30.184 327.805 30.536 327.381 30.784C326.957 31.024 326.497 31.144 326.001 31.144ZM326.001 30.016C326.433 30.016 326.773 29.836 327.021 29.476C327.269 29.116 327.393 28.644 327.393 28.06C327.393 27.468 327.269 26.992 327.021 26.632C326.773 26.272 326.433 26.092 326.001 26.092C325.569 26.092 325.229 26.272 324.981 26.632C324.741 26.992 324.621 27.468 324.621 28.06C324.621 28.644 324.741 29.116 324.981 29.476C325.229 29.836 325.569 30.016 326.001 30.016ZM330.175 31V25.108H331.315L331.411 25.912H331.459C331.707 25.648 331.975 25.424 332.263 25.24C332.559 25.056 332.891 24.964 333.259 24.964C333.691 24.964 334.035 25.06 334.291 25.252C334.555 25.436 334.755 25.692 334.891 26.02C335.171 25.716 335.463 25.464 335.767 25.264C336.079 25.064 336.419 24.964 336.787 24.964C337.411 24.964 337.871 25.168 338.167 25.576C338.463 25.984 338.611 26.56 338.611 27.304V31H337.219V27.484C337.219 26.996 337.143 26.652 336.991 26.452C336.847 26.252 336.623 26.152 336.319 26.152C335.951 26.152 335.539 26.396 335.083 26.884V31H333.703V27.484C333.703 26.996 333.627 26.652 333.475 26.452C333.331 26.252 333.103 26.152 332.791 26.152C332.423 26.152 332.011 26.396 331.555 26.884V31H330.175ZM340.288 33.328V25.108H341.428L341.524 25.732H341.572C341.82 25.524 342.096 25.344 342.4 25.192C342.712 25.04 343.028 24.964 343.348 24.964C344.084 24.964 344.652 25.236 345.052 25.78C345.46 26.324 345.664 27.052 345.664 27.964C345.664 28.636 345.544 29.212 345.304 29.692C345.064 30.164 344.752 30.524 344.368 30.772C343.992 31.02 343.584 31.144 343.144 31.144C342.888 31.144 342.632 31.088 342.376 30.976C342.12 30.856 341.872 30.696 341.632 30.496L341.668 31.48V33.328H340.288ZM342.856 30.004C343.248 30.004 343.576 29.832 343.84 29.488C344.104 29.144 344.236 28.64 344.236 27.976C344.236 27.384 344.136 26.924 343.936 26.596C343.736 26.268 343.412 26.104 342.964 26.104C342.548 26.104 342.116 26.324 341.668 26.764V29.512C341.884 29.688 342.092 29.816 342.292 29.896C342.492 29.968 342.68 30.004 342.856 30.004ZM348.406 31.144C347.918 31.144 347.57 30.996 347.362 30.7C347.162 30.404 347.062 30 347.062 29.488V22.528H348.442V29.56C348.442 29.728 348.474 29.848 348.538 29.92C348.602 29.984 348.67 30.016 348.742 30.016C348.774 30.016 348.802 30.016 348.826 30.016C348.858 30.008 348.902 30 348.958 29.992L349.138 31.024C349.058 31.056 348.954 31.084 348.826 31.108C348.706 31.132 348.566 31.144 348.406 31.144ZM352.839 31.144C352.295 31.144 351.803 31.024 351.363 30.784C350.923 30.536 350.575 30.184 350.319 29.728C350.063 29.264 349.935 28.708 349.935 28.06C349.935 27.42 350.063 26.868 350.319 26.404C350.583 25.94 350.923 25.584 351.339 25.336C351.755 25.088 352.191 24.964 352.647 24.964C353.183 24.964 353.631 25.084 353.991 25.324C354.351 25.556 354.623 25.884 354.807 26.308C354.991 26.724 355.083 27.208 355.083 27.76C355.083 28.048 355.063 28.272 355.023 28.432H351.279C351.343 28.952 351.531 29.356 351.843 29.644C352.155 29.932 352.547 30.076 353.019 30.076C353.275 30.076 353.511 30.04 353.727 29.968C353.951 29.888 354.171 29.78 354.387 29.644L354.855 30.508C354.575 30.692 354.263 30.844 353.919 30.964C353.575 31.084 353.215 31.144 352.839 31.144ZM351.267 27.496H353.883C353.883 27.04 353.783 26.684 353.583 26.428C353.383 26.164 353.083 26.032 352.683 26.032C352.339 26.032 352.031 26.16 351.759 26.416C351.495 26.664 351.331 27.024 351.267 27.496ZM358.36 31.144C357.68 31.144 357.196 30.948 356.908 30.556C356.628 30.156 356.488 29.64 356.488 29.008V26.2H355.648V25.168L356.56 25.108L356.728 23.5H357.88V25.108H359.38V26.2H357.88V29.008C357.88 29.696 358.156 30.04 358.708 30.04C358.812 30.04 358.92 30.028 359.032 30.004C359.144 29.972 359.24 29.94 359.32 29.908L359.56 30.928C359.4 30.984 359.216 31.032 359.008 31.072C358.808 31.12 358.592 31.144 358.36 31.144ZM362.953 31.144C362.409 31.144 361.917 31.024 361.477 30.784C361.037 30.536 360.689 30.184 360.433 29.728C360.177 29.264 360.049 28.708 360.049 28.06C360.049 27.42 360.177 26.868 360.433 26.404C360.697 25.94 361.037 25.584 361.453 25.336C361.869 25.088 362.305 24.964 362.761 24.964C363.297 24.964 363.745 25.084 364.105 25.324C364.465 25.556 364.737 25.884 364.921 26.308C365.105 26.724 365.197 27.208 365.197 27.76C365.197 28.048 365.177 28.272 365.137 28.432H361.393C361.457 28.952 361.645 29.356 361.957 29.644C362.269 29.932 362.661 30.076 363.133 30.076C363.389 30.076 363.625 30.04 363.841 29.968C364.065 29.888 364.285 29.78 364.501 29.644L364.969 30.508C364.689 30.692 364.377 30.844 364.033 30.964C363.689 31.084 363.329 31.144 362.953 31.144ZM361.381 27.496H363.997C363.997 27.04 363.897 26.684 363.697 26.428C363.497 26.164 363.197 26.032 362.797 26.032C362.453 26.032 362.145 26.16 361.873 26.416C361.609 26.664 361.445 27.024 361.381 27.496Z" fill="#FF0000"/>
<path d="M342.687 5.84349C342.687 9.07076 340.071 11.687 336.843 11.687C333.616 11.687 331 9.07076 331 5.84349C331 2.61622 333.616 0 336.843 0C340.071 0 342.687 2.61622 342.687 5.84349Z" fill="#FF0000"/>
</svg>
