<svg width="66" height="48" viewBox="0 0 66 48" fill="none" xmlns="http://www.w3.org/2000/svg">
<g clip-path="url(#clip0_8288_8507)">
<g clip-path="url(#clip1_8288_8507)">
<path d="M40.7588 15.9855C40.6599 15.9855 40.5632 16.0156 40.481 16.0721C40.3988 16.1285 40.3347 16.2088 40.2968 16.3027C40.259 16.3966 40.2491 16.4999 40.2684 16.5996C40.2877 16.6993 40.3353 16.7909 40.4052 16.8627C40.4752 16.9346 40.5643 16.9835 40.6612 17.0034C40.7582 17.0232 40.8588 17.013 40.9501 16.9741C41.0415 16.9352 41.1196 16.8694 41.1745 16.7849C41.2295 16.7003 41.2588 16.601 41.2588 16.4994C41.2588 16.3631 41.2061 16.2323 41.1123 16.136C41.0186 16.0396 40.8914 15.9855 40.7588 15.9855ZM37.2588 8.79102H36.2588C34.7097 8.79337 33.1994 9.28864 31.9352 10.2088C30.6711 11.129 29.7151 12.4289 29.1988 13.9299H23.2588C23.1262 13.9299 22.999 13.8758 22.9052 13.7794C22.8115 13.683 22.7588 13.5523 22.7588 13.416V12.3882C22.7588 12.2519 22.8115 12.1212 22.9052 12.0249C22.999 11.9285 23.1262 11.8743 23.2588 11.8743H28.2588C28.3914 11.8743 28.5186 11.8202 28.6123 11.7238C28.7061 11.6275 28.7588 11.4968 28.7588 11.3605C28.7588 11.2242 28.7061 11.0935 28.6123 10.9971C28.5186 10.9007 28.3914 10.8466 28.2588 10.8466H23.2588C22.861 10.8466 22.4794 11.009 22.1981 11.2981C21.9168 11.5872 21.7588 11.9794 21.7588 12.3882V13.416C21.7588 13.8249 21.9168 14.217 22.1981 14.5061C22.4794 14.7953 22.861 14.9577 23.2588 14.9577H23.8488C23.793 15.1231 23.7626 15.2965 23.7588 15.4716V16.4994C23.7626 16.6744 23.793 16.8478 23.8488 17.0132H23.2588C22.861 17.0132 22.4794 17.1757 22.1981 17.4648C21.9168 17.7539 21.7588 18.146 21.7588 18.5549V19.5827C21.7588 19.9916 21.9168 20.3837 22.1981 20.6728C22.4794 20.9619 22.861 21.1244 23.2588 21.1244H23.8488C23.793 21.2898 23.7626 21.4632 23.7588 21.6382V22.666C23.7588 23.0749 23.9168 23.467 24.1981 23.7561C24.4794 24.0453 24.861 24.2077 25.2588 24.2077H33.2588C33.5831 24.2062 33.8985 24.0982 34.1588 23.8994C34.8418 24.1002 35.5484 24.2039 36.2588 24.2077C36.4286 24.2179 36.5989 24.2179 36.7688 24.2077H37.2388C39.2279 24.2077 41.1356 23.3956 42.5421 21.95C43.9486 20.5044 44.7388 18.5437 44.7388 16.4994C44.7388 14.455 43.9486 12.4943 42.5421 11.0487C41.1356 9.60314 39.2279 8.79102 37.2388 8.79102H37.2588ZM24.7588 15.4716C24.7588 15.3353 24.8115 15.2046 24.9052 15.1082C24.999 15.0118 25.1262 14.9577 25.2588 14.9577H28.9088C28.8079 15.465 28.7577 15.9816 28.7588 16.4994C28.7488 16.6705 28.7488 16.8421 28.7588 17.0132H25.2588C25.1262 17.0132 24.999 16.9591 24.9052 16.8627C24.8115 16.7664 24.7588 16.6356 24.7588 16.4994V15.4716ZM25.2588 23.1799C25.1262 23.1799 24.999 23.1258 24.9052 23.0294C24.8115 22.933 24.7588 22.8023 24.7588 22.666V21.6382C24.7588 21.5019 24.8115 21.3712 24.9052 21.2749C24.999 21.1785 25.1262 21.1244 25.2588 21.1244H30.2588C30.8738 21.959 31.6457 22.658 32.5288 23.1799H25.2588ZM42.6788 17.5271C42.6739 17.623 42.6739 17.719 42.6788 17.8149C42.6788 17.9691 42.6088 18.1232 42.5688 18.2774C42.563 18.3252 42.563 18.3735 42.5688 18.4213C42.5193 18.5963 42.4592 18.7679 42.3888 18.9352C42.3901 18.9591 42.3901 18.9832 42.3888 19.0071C42.319 19.1899 42.2389 19.3684 42.1488 19.5416C41.6378 20.5625 40.8802 21.4313 39.9487 22.0648C39.0171 22.6983 37.9428 23.0752 36.8288 23.1594H36.3688C35.1975 23.1606 34.0476 22.8366 33.0407 22.2215C32.0339 21.6063 31.2074 20.723 30.6488 19.6649C30.5854 19.5474 30.4798 19.4602 30.3546 19.4217C30.2293 19.3833 30.0945 19.3968 29.9788 19.4594C29.8746 19.5164 29.794 19.6102 29.7517 19.7235C29.7095 19.8368 29.7084 19.962 29.7488 20.076H23.2588C23.1262 20.076 22.999 20.0219 22.9052 19.9255C22.8115 19.8291 22.7588 19.6984 22.7588 19.5621V18.5549C22.7588 18.4186 22.8115 18.2879 22.9052 18.1915C22.999 18.0952 23.1262 18.041 23.2588 18.041H28.9088C28.9135 18.0613 28.9135 18.0824 28.9088 18.1027C28.9398 18.233 29.0183 18.3462 29.128 18.4188C29.2378 18.4915 29.3705 18.5181 29.4988 18.4932C29.5638 18.481 29.6257 18.4555 29.6808 18.4181C29.736 18.3806 29.7832 18.3322 29.8196 18.2755C29.856 18.2189 29.8809 18.1552 29.8928 18.0884C29.9047 18.0217 29.9033 17.9531 29.8888 17.8869C29.8 17.43 29.7565 16.9652 29.7588 16.4994C29.7614 14.7284 30.4471 13.0307 31.6655 11.7785C32.8839 10.5262 34.5357 9.82151 36.2588 9.81879H36.7188C37.8308 9.90089 38.9038 10.2747 39.8352 10.9045C40.7665 11.5342 41.5253 12.399 42.0388 13.416C42.1289 13.5892 42.209 13.7677 42.2788 13.9505C42.2801 13.9744 42.2801 13.9984 42.2788 14.0224C42.3492 14.1897 42.4093 14.3613 42.4588 14.5363C42.453 14.5841 42.453 14.6324 42.4588 14.6802C42.4588 14.8343 42.5288 14.9885 42.5688 15.1427C42.5639 15.2385 42.5639 15.3346 42.5688 15.4305V17.0955C42.5688 17.3113 42.6988 17.3935 42.6788 17.5271ZM39.2588 12.9021C39.2588 12.7658 39.2061 12.6351 39.1123 12.5388C39.0186 12.4424 38.8914 12.3882 38.7588 12.3882H33.7588C33.6262 12.3882 33.499 12.4424 33.4052 12.5388C33.3115 12.6351 33.2588 12.7658 33.2588 12.9021C33.2588 13.0384 33.3115 13.1691 33.4052 13.2655C33.499 13.3619 33.6262 13.416 33.7588 13.416H35.7588C36.0679 13.4184 36.3689 13.5182 36.621 13.702C36.8732 13.8858 37.0644 14.1447 37.1688 14.4438H33.7588C33.6262 14.4438 33.499 14.4979 33.4052 14.5943C33.3115 14.6907 33.2588 14.8214 33.2588 14.9577C33.2588 15.094 33.3115 15.2247 33.4052 15.3211C33.499 15.4174 33.6262 15.4716 33.7588 15.4716H37.1688C37.0644 15.7706 36.8732 16.0295 36.621 16.2133C36.3689 16.3971 36.0679 16.497 35.7588 16.4994H33.7588C33.6601 16.4999 33.5637 16.5304 33.4819 16.5871C33.4 16.6438 33.3363 16.7241 33.2988 16.818C33.2579 16.9106 33.2466 17.0141 33.2663 17.1138C33.2861 17.2134 33.3359 17.3041 33.4088 17.373L36.4088 20.4563C36.4534 20.5057 36.5076 20.5449 36.5679 20.5714C36.6282 20.598 36.6932 20.6113 36.7588 20.6105H37.7588C37.8914 20.6105 38.0186 20.5563 38.1123 20.4599C38.2061 20.3636 38.2588 20.2329 38.2588 20.0966C38.2588 19.9603 38.2061 19.8296 38.1123 19.7332C38.0186 19.6368 37.8914 19.5827 37.7588 19.5827H36.9688L34.9688 17.5271H35.7588C36.3437 17.5393 36.9141 17.3402 37.3709 16.9646C37.8277 16.589 38.1419 16.0607 38.2588 15.4716H38.8088C38.9414 15.4716 39.0686 15.4174 39.1623 15.3211C39.2561 15.2247 39.3088 15.094 39.3088 14.9577C39.3088 14.8214 39.2561 14.6907 39.1623 14.5943C39.0686 14.4979 38.9414 14.4438 38.8088 14.4438H38.2588C38.1804 14.0708 38.0234 13.7199 37.7988 13.416H38.7988C38.9243 13.4057 39.0415 13.347 39.1268 13.2517C39.212 13.1564 39.2592 13.0316 39.2588 12.9021ZM31.7588 15.9855C31.6599 15.9855 31.5632 16.0156 31.481 16.0721C31.3988 16.1285 31.3347 16.2088 31.2968 16.3027C31.259 16.3966 31.2491 16.4999 31.2684 16.5996C31.2877 16.6993 31.3353 16.7909 31.4052 16.8627C31.4752 16.9346 31.5643 16.9835 31.6612 17.0034C31.7582 17.0232 31.8588 17.013 31.9501 16.9741C32.0415 16.9352 32.1196 16.8694 32.1745 16.7849C32.2295 16.7003 32.2588 16.601 32.2588 16.4994C32.2588 16.3631 32.2061 16.2323 32.1123 16.136C32.0186 16.0396 31.8914 15.9855 31.7588 15.9855Z" fill="#FFCF86"/>
</g>
</g>
<path d="M28.0843 44.644C27.5323 44.644 27.0203 44.54 26.5483 44.332C26.0763 44.116 25.6683 43.832 25.3243 43.48L25.9243 42.784C26.2043 43.08 26.5323 43.32 26.9083 43.504C27.2923 43.68 27.6883 43.768 28.0963 43.768C28.6163 43.768 29.0203 43.652 29.3083 43.42C29.5963 43.18 29.7403 42.868 29.7403 42.484C29.7403 42.212 29.6803 41.996 29.5603 41.836C29.4483 41.676 29.2923 41.54 29.0923 41.428C28.9003 41.316 28.6803 41.204 28.4323 41.092L27.3043 40.6C27.0563 40.496 26.8083 40.36 26.5603 40.192C26.3203 40.024 26.1163 39.808 25.9483 39.544C25.7883 39.28 25.7083 38.956 25.7083 38.572C25.7083 38.172 25.8123 37.816 26.0203 37.504C26.2363 37.184 26.5323 36.936 26.9083 36.76C27.2843 36.576 27.7083 36.484 28.1803 36.484C28.6523 36.484 29.0883 36.576 29.4883 36.76C29.8883 36.936 30.2283 37.168 30.5083 37.456L29.9683 38.104C29.7283 37.872 29.4603 37.692 29.1643 37.564C28.8763 37.428 28.5483 37.36 28.1803 37.36C27.7403 37.36 27.3843 37.464 27.1123 37.672C26.8483 37.88 26.7163 38.16 26.7163 38.512C26.7163 38.76 26.7803 38.968 26.9083 39.136C27.0443 39.296 27.2123 39.428 27.4123 39.532C27.6123 39.636 27.8163 39.732 28.0243 39.82L29.1403 40.3C29.4443 40.428 29.7163 40.584 29.9563 40.768C30.2043 40.944 30.4003 41.164 30.5443 41.428C30.6883 41.684 30.7603 42.008 30.7603 42.4C30.7603 42.816 30.6523 43.196 30.4363 43.54C30.2203 43.876 29.9123 44.144 29.5123 44.344C29.1123 44.544 28.6363 44.644 28.0843 44.644ZM32.3105 44.5V36.628H33.3065V44.5H32.3105ZM35.4628 44.5V36.628H37.7068C38.2988 36.628 38.8148 36.7 39.2548 36.844C39.6948 36.988 40.0388 37.232 40.2868 37.576C40.5348 37.912 40.6588 38.368 40.6588 38.944C40.6588 39.768 40.3908 40.38 39.8548 40.78C39.3188 41.18 38.6188 41.38 37.7548 41.38H36.4588V44.5H35.4628ZM36.4588 40.564H37.6348C38.3228 40.564 38.8308 40.436 39.1588 40.18C39.4948 39.916 39.6628 39.504 39.6628 38.944C39.6628 38.376 39.4868 37.984 39.1348 37.768C38.7908 37.544 38.2748 37.432 37.5868 37.432H36.4588V40.564Z" fill="#606060"/>
<defs>
<clipPath id="clip0_8288_8507">
<rect width="24" height="24" fill="white" transform="translate(21 4.5)"/>
</clipPath>
<clipPath id="clip1_8288_8507">
<rect width="24" height="18" fill="white" transform="translate(21 7.5)"/>
</clipPath>
</defs>
</svg>
