<svg width="38" height="38" viewBox="0 0 38 38" fill="none" xmlns="http://www.w3.org/2000/svg">
<g filter="url(#filter0_i_6905_9432)">
<circle cx="19" cy="19" r="19" fill="url(#paint0_linear_6905_9432)" fill-opacity="0.5"/>
</g>
<path d="M9.42664 10.6316L11.7026 11.9864L7.34042 19.7822L5.06445 18.4263L9.42664 10.6316ZM29.2019 10.6316L33.5641 18.4263L31.2912 19.7822L26.929 11.9864L29.2019 10.6316ZM12.1925 13.2341L13.067 13.7531L13.6269 14.0879C13.3115 14.3962 13.0406 14.7493 12.8225 15.1365L11.5716 17.3735C11.36 17.7646 11.2037 18.1847 11.1076 18.6212L10.5352 18.2823L9.66073 17.7601L12.1925 13.2341ZM26.4371 13.2341L28.9709 17.7601L28.6223 17.9667L28.0943 18.2813L27.5663 18.5958L27.5405 18.6128C27.4415 18.207 27.2911 17.8163 27.093 17.4508C27.0829 17.4244 27.0708 17.3989 27.0569 17.3745L25.806 15.1375C25.5875 14.75 25.3167 14.3962 25.0016 14.0867L25.0346 14.0677L25.5647 13.7531L26.0927 13.4385L26.4371 13.2341ZM22.0821 13.8188C22.7628 13.8686 23.4207 14.1249 23.9735 14.5602C24.3416 14.8494 24.6634 15.22 24.9119 15.6649L26.1628 17.9C26.6165 18.7134 26.7351 19.618 26.5732 20.4601C26.4804 20.3647 26.3773 20.2758 26.2597 20.2059L22.0399 17.6923C22.0667 17.3682 22.0089 17.0356 21.8542 16.7316C21.8462 16.7092 21.8369 16.6872 21.8264 16.6659C21.8223 16.6553 21.8181 16.6511 21.814 16.6427C21.812 16.6427 21.8099 16.6427 21.8078 16.6321C21.7956 16.6135 21.7822 16.5957 21.7676 16.579C21.6582 16.3972 21.5169 16.2378 21.351 16.1088H21.3489C21.0655 15.9002 20.7294 15.7804 20.3811 15.7638C20.0329 15.7473 19.6874 15.8347 19.3865 16.0156C19.3792 16.0156 19.373 16.0261 19.3658 16.0282L17.0362 17.4159C17.0114 17.4314 16.988 17.4491 16.9661 17.4687L16.9042 17.5059C16.3845 17.8141 15.7699 17.6086 15.2821 17.1564L16.6557 16.3344L19.5958 14.5846H19.5979L20.0557 14.3092C20.6682 13.9413 21.3743 13.7714 22.0821 13.8219V13.8188ZM16.5392 13.8421C17.1244 13.809 17.709 13.919 18.2449 14.163L17.5849 14.5559L17.5405 14.5846L16.138 15.4213L14.1601 16.6013C14.0419 16.6715 13.9557 16.787 13.9203 16.9225C13.885 17.0579 13.9033 17.2021 13.9714 17.3237C14.686 18.6021 16.2277 19.1328 17.4209 18.4221L19.7299 17.0472C19.7371 17.0472 19.7433 17.0367 19.7505 17.0346L19.9052 16.9328C20.2744 16.7125 20.6817 16.8185 20.888 17.1331C20.7813 17.1475 20.6816 17.1958 20.6031 17.2713C20.5245 17.3468 20.4708 17.4457 20.4497 17.5541C20.4285 17.6625 20.4409 17.7749 20.4851 17.8757C20.5293 17.9764 20.6031 18.0605 20.6961 18.116L21.1654 18.3945H21.1674C21.1961 18.4149 21.2264 18.4327 21.2582 18.4475L25.7441 21.1199C25.8083 21.1566 25.8646 21.2064 25.9097 21.266C25.9548 21.3256 25.9877 21.3939 26.0064 21.4669C26.0252 21.5399 26.0295 21.6159 26.0189 21.6906C26.0084 21.7653 25.9833 21.8371 25.9452 21.9016C25.9106 21.9675 25.8633 22.0255 25.8062 22.072C25.7491 22.1185 25.6834 22.1526 25.613 22.1721C25.5427 22.1916 25.4692 22.1962 25.397 22.1855C25.3249 22.1749 25.2556 22.1493 25.1934 22.1103L20.1785 19.1232L19.6505 18.8087C19.0554 18.4507 18.5346 19.3722 19.1328 19.7249L19.6608 20.0395L19.967 20.2216L24.6757 23.0265H24.6799L25.2037 23.34C25.268 23.3767 25.3244 23.4262 25.3696 23.4858C25.4148 23.5453 25.4478 23.6137 25.4667 23.6867C25.4855 23.7597 25.4899 23.8358 25.4794 23.9105C25.469 23.9853 25.444 24.0571 25.4059 24.1217C25.3714 24.1877 25.3242 24.2457 25.2671 24.2923C25.21 24.3389 25.1442 24.3731 25.0738 24.3927C25.0034 24.4122 24.9299 24.4167 24.8577 24.406C24.7855 24.3953 24.7162 24.3695 24.6541 24.3303L24.1261 24.0158L19.1111 21.0288L18.5852 20.7143C17.9912 20.3594 17.4735 21.2756 18.0675 21.6305L18.5955 21.9451L23.6105 24.932C23.6745 24.9684 23.7308 25.0177 23.7758 25.077C23.8209 25.1363 23.8538 25.2044 23.8727 25.2771C23.8916 25.3497 23.896 25.4256 23.8856 25.5001C23.8753 25.5746 23.8505 25.6461 23.8126 25.7105C23.7781 25.7765 23.7309 25.8346 23.6738 25.8811C23.6167 25.9277 23.5509 25.9619 23.4805 25.9815C23.4101 26.001 23.3366 26.0055 23.2644 25.9948C23.1922 25.9841 23.1229 25.9584 23.0608 25.9192L22.0038 25.29L21.0272 24.7075L16.4629 21.9885C15.8678 21.6337 15.3491 22.5499 15.9452 22.9047L17.0001 23.5339L21.4881 26.2072C21.5523 26.244 21.6086 26.2937 21.6537 26.3533C21.6988 26.413 21.7317 26.4813 21.7505 26.5543C21.7692 26.6272 21.7735 26.7033 21.763 26.778C21.7524 26.8527 21.7274 26.9245 21.6892 26.989C21.6547 27.0548 21.6074 27.1126 21.5503 27.159C21.4933 27.2054 21.4275 27.2392 21.3572 27.2586C21.2869 27.2779 21.2135 27.2823 21.1415 27.2715C21.0695 27.2606 21.0004 27.2348 20.9385 27.1956L15.7173 24.0888H15.7111L13.7558 22.9259C13.6496 22.8624 13.562 22.7819 13.465 22.7109C13.3959 22.5932 13.285 22.5077 13.1556 22.4725C12.5475 21.9078 12.1471 21.1454 12.0216 20.3133C11.8962 19.4812 12.0534 18.6302 12.4668 17.9031L13.7166 15.6661C14.0029 15.1456 14.4108 14.7064 14.9035 14.3883C15.3963 14.0703 15.9584 13.8833 16.5392 13.8441V13.8421ZM6.87327 17.2994C6.73824 17.298 6.60655 17.3424 6.4986 17.4257C6.39064 17.509 6.31245 17.6265 6.27615 17.7601C6.23984 17.8936 6.24746 18.0358 6.2978 18.1645C6.34814 18.2932 6.43841 18.4012 6.55461 18.4718C6.62385 18.513 6.70033 18.5398 6.77967 18.5506C6.859 18.5614 6.93963 18.5561 7.01693 18.5348C7.09424 18.5136 7.1667 18.4769 7.23017 18.4268C7.29365 18.3768 7.34688 18.3143 7.38683 18.2431C7.43937 18.1487 7.46723 18.0419 7.46772 17.9332C7.4682 17.8245 7.44129 17.7175 7.3896 17.6226C7.3379 17.5277 7.26319 17.4481 7.17271 17.3917C7.08224 17.3352 6.97908 17.3028 6.87327 17.2994ZM31.7563 17.2994C31.6505 17.3028 31.5473 17.3342 31.4569 17.3907C31.3664 17.4471 31.2917 17.5266 31.24 17.6215C31.1883 17.7163 31.1614 17.8234 31.1618 17.9322C31.1623 18.0409 31.1902 18.1477 31.2427 18.2421C31.2826 18.3133 31.3357 18.3756 31.3991 18.4257C31.4624 18.4758 31.5348 18.5126 31.612 18.5339C31.6891 18.5553 31.7697 18.5607 31.8489 18.5501C31.9282 18.5394 32.0047 18.5128 32.0739 18.4718C32.19 18.4012 32.2803 18.2933 32.3306 18.1648C32.381 18.0362 32.3887 17.8941 32.3525 17.7606C32.3163 17.6271 32.2383 17.5095 32.1305 17.4261C32.0228 17.3427 31.8912 17.2982 31.7563 17.2994ZM13.1525 23.7785C13.1835 23.7976 13.2072 23.822 13.2381 23.8421L14.0219 24.3071L13.9734 24.3336C13.9113 24.3729 13.8419 24.3986 13.7697 24.4093C13.6974 24.4201 13.6238 24.4154 13.5533 24.3958C13.4829 24.3761 13.4171 24.3418 13.3601 24.295C13.303 24.2483 13.2559 24.1901 13.2216 24.1239C13.1639 24.0191 13.1391 23.8981 13.1525 23.7785ZM15.0449 24.9161L16.1525 25.576L15.5677 25.9245C15.5057 25.9635 15.4366 25.9892 15.3645 25.9998C15.2925 26.0105 15.2191 26.0061 15.1489 25.9867C15.0786 25.9672 15.0129 25.9332 14.9559 25.8868C14.8988 25.8405 14.8515 25.7827 14.817 25.7169C14.779 25.6525 14.7541 25.5809 14.7437 25.5064C14.7333 25.4319 14.7376 25.356 14.7563 25.2833C14.7751 25.2105 14.808 25.1423 14.8529 25.0829C14.8979 25.0234 14.9541 24.9739 15.0181 24.9373C15.0284 24.9267 15.0356 24.9257 15.0449 24.9183V24.9161ZM17.1775 26.1872L18.2851 26.847L17.689 27.2008C17.627 27.2398 17.5578 27.2656 17.4858 27.2763C17.4138 27.287 17.3404 27.2824 17.2701 27.263C17.1999 27.2435 17.1342 27.2097 17.0771 27.1633C17.0201 27.1169 16.9728 27.059 16.9383 26.9932C16.9004 26.9286 16.8755 26.8567 16.8652 26.782C16.8549 26.7072 16.8594 26.6311 16.8783 26.5582C16.8973 26.4852 16.9304 26.4169 16.9756 26.3574C17.0208 26.2978 17.0772 26.2482 17.1414 26.2115C17.1538 26.2009 17.1662 26.1957 17.1775 26.1872Z" fill="#002C51"/>
<defs>
<filter id="filter0_i_6905_9432" x="0" y="0" width="38" height="42" filterUnits="userSpaceOnUse" color-interpolation-filters="sRGB">
<feFlood flood-opacity="0" result="BackgroundImageFix"/>
<feBlend mode="normal" in="SourceGraphic" in2="BackgroundImageFix" result="shape"/>
<feColorMatrix in="SourceAlpha" type="matrix" values="0 0 0 0 0 0 0 0 0 0 0 0 0 0 0 0 0 0 127 0" result="hardAlpha"/>
<feOffset dy="4"/>
<feGaussianBlur stdDeviation="2"/>
<feComposite in2="hardAlpha" operator="arithmetic" k2="-1" k3="1"/>
<feColorMatrix type="matrix" values="0 0 0 0 0 0 0 0 0 0 0 0 0 0 0 0 0 0 0.05 0"/>
<feBlend mode="normal" in2="shape" result="effect1_innerShadow_6905_9432"/>
</filter>
<linearGradient id="paint0_linear_6905_9432" x1="19" y1="0" x2="19" y2="38" gradientUnits="userSpaceOnUse">
<stop stop-color="#FF5353" stop-opacity="0.5"/>
<stop offset="1" stop-color="#FF5353" stop-opacity="0"/>
</linearGradient>
</defs>
</svg>
