<svg width="33" height="50" viewBox="0 0 33 50" fill="none" xmlns="http://www.w3.org/2000/svg">
<path d="M16 16.0382C14.7499 16.0384 13.5278 15.6562 12.4883 14.94C11.4488 14.2238 10.6386 13.2057 10.1601 12.0145C9.68156 10.8233 9.55627 9.51249 9.80005 8.24784C10.0438 6.9832 10.6457 5.82152 11.5296 4.90972C12.4135 3.99792 13.5397 3.37694 14.7658 3.12533C15.9918 2.87372 17.2627 3.00277 18.4177 3.49616C19.5726 3.98955 20.5598 4.82512 21.2543 5.8972C21.9489 6.96928 22.3196 8.22972 22.3196 9.51911C22.318 11.2474 21.6517 12.9045 20.4669 14.1267C19.2821 15.3489 17.6756 16.0363 16 16.0382ZM16 4.88C15.1102 4.87983 14.2403 5.15183 13.5004 5.66161C12.7605 6.1714 12.1837 6.89606 11.8431 7.74394C11.5026 8.59183 11.4134 9.52485 11.5869 10.425C11.7605 11.3252 12.189 12.152 12.8182 12.801C13.4473 13.4499 14.249 13.8919 15.1217 14.0709C15.9944 14.2499 16.899 14.1579 17.7211 13.8066C18.5431 13.4553 19.2457 12.8605 19.7399 12.0973C20.2342 11.3341 20.4979 10.4369 20.4977 9.51911C20.4964 8.28918 20.0221 7.11002 19.1789 6.24033C18.3357 5.37063 17.1925 4.88141 16 4.88ZM26.0891 30H5.91092L5 29.0604C5 27.5705 5.28452 26.0951 5.83733 24.7186C6.39013 23.3421 7.20038 22.0913 8.22182 21.0378C9.24327 19.9842 10.4559 19.1485 11.7905 18.5783C13.1251 18.0081 14.5555 17.7147 16 17.7147C17.4445 17.7147 18.8749 18.0081 20.2095 18.5783C21.5441 19.1485 22.7567 19.9842 23.7782 21.0378C24.7996 22.0913 25.6099 23.3421 26.1627 24.7186C26.7155 26.0951 27 27.5705 27 29.0604L26.0891 30ZM6.86493 28.1209H25.1351C24.9123 25.7814 23.8537 23.6111 22.1652 22.0322C20.4767 20.4533 18.2791 19.5787 16 19.5787C13.7209 19.5787 11.5233 20.4533 9.83481 22.0322C8.14632 23.6111 7.0877 25.7814 6.86493 28.1209Z" fill="#A1BBFE"/>
<path d="M1.17375 47V39.128H3.41775C4.00975 39.128 4.52575 39.2 4.96575 39.344C5.40575 39.488 5.74975 39.732 5.99775 40.076C6.24575 40.412 6.36975 40.868 6.36975 41.444C6.36975 42.268 6.10175 42.88 5.56575 43.28C5.02975 43.68 4.32975 43.88 3.46575 43.88H2.16975V47H1.17375ZM2.16975 43.064H3.34575C4.03375 43.064 4.54175 42.936 4.86975 42.68C5.20575 42.416 5.37375 42.004 5.37375 41.444C5.37375 40.876 5.19775 40.484 4.84575 40.268C4.50175 40.044 3.98575 39.932 3.29775 39.932H2.16975V43.064ZM7.87463 47V41.168H8.69063L8.77463 42.224H8.81063C9.01063 41.856 9.25463 41.564 9.54263 41.348C9.83063 41.132 10.1386 41.024 10.4666 41.024C10.6986 41.024 10.9066 41.064 11.0906 41.144L10.8986 42.008C10.8026 41.976 10.7146 41.952 10.6346 41.936C10.5546 41.92 10.4546 41.912 10.3346 41.912C10.0866 41.912 9.82663 42.012 9.55463 42.212C9.29063 42.412 9.05863 42.76 8.85863 43.256V47H7.87463ZM14.1856 47.144C13.7136 47.144 13.2696 47.024 12.8536 46.784C12.4456 46.544 12.1136 46.196 11.8576 45.74C11.6096 45.284 11.4856 44.736 11.4856 44.096C11.4856 43.44 11.6096 42.884 11.8576 42.428C12.1136 41.972 12.4456 41.624 12.8536 41.384C13.2696 41.144 13.7136 41.024 14.1856 41.024C14.6656 41.024 15.1096 41.144 15.5176 41.384C15.9256 41.624 16.2536 41.972 16.5016 42.428C16.7576 42.884 16.8856 43.44 16.8856 44.096C16.8856 44.736 16.7576 45.284 16.5016 45.74C16.2536 46.196 15.9256 46.544 15.5176 46.784C15.1096 47.024 14.6656 47.144 14.1856 47.144ZM14.1856 46.328C14.6896 46.328 15.0936 46.124 15.3976 45.716C15.7096 45.3 15.8656 44.76 15.8656 44.096C15.8656 43.424 15.7096 42.88 15.3976 42.464C15.0936 42.048 14.6896 41.84 14.1856 41.84C13.6896 41.84 13.2856 42.048 12.9736 42.464C12.6616 42.88 12.5056 43.424 12.5056 44.096C12.5056 44.76 12.6616 45.3 12.9736 45.716C13.2856 46.124 13.6896 46.328 14.1856 46.328ZM18.5895 47V41.972H17.7975V41.228L18.5895 41.168V40.244C18.5895 39.652 18.7255 39.184 18.9975 38.84C19.2775 38.488 19.7095 38.312 20.2935 38.312C20.4775 38.312 20.6535 38.332 20.8215 38.372C20.9895 38.404 21.1375 38.448 21.2655 38.504L21.0495 39.26C20.8335 39.164 20.6135 39.116 20.3895 39.116C19.8455 39.116 19.5735 39.492 19.5735 40.244V41.168H20.8095V41.972H19.5735V47H18.5895ZM21.9254 47V41.168H22.9094V47H21.9254ZM22.4294 39.968C22.2374 39.968 22.0774 39.912 21.9494 39.8C21.8294 39.68 21.7694 39.52 21.7694 39.32C21.7694 39.128 21.8294 38.972 21.9494 38.852C22.0774 38.732 22.2374 38.672 22.4294 38.672C22.6214 38.672 22.7774 38.732 22.8974 38.852C23.0254 38.972 23.0894 39.128 23.0894 39.32C23.0894 39.52 23.0254 39.68 22.8974 39.8C22.7774 39.912 22.6214 39.968 22.4294 39.968ZM25.9225 47.144C25.5545 47.144 25.2865 47.032 25.1185 46.808C24.9585 46.576 24.8785 46.248 24.8785 45.824V38.456H25.8625V45.896C25.8625 46.048 25.8905 46.16 25.9465 46.232C26.0025 46.296 26.0665 46.328 26.1385 46.328C26.1705 46.328 26.1985 46.328 26.2225 46.328C26.2545 46.32 26.2985 46.312 26.3545 46.304L26.4865 47.048C26.4225 47.08 26.3465 47.104 26.2585 47.12C26.1705 47.136 26.0585 47.144 25.9225 47.144ZM30.3011 47.144C29.7811 47.144 29.3091 47.024 28.8851 46.784C28.4611 46.536 28.1251 46.184 27.8771 45.728C27.6291 45.272 27.5051 44.728 27.5051 44.096C27.5051 43.456 27.6291 42.908 27.8771 42.452C28.1331 41.996 28.4611 41.644 28.8611 41.396C29.2611 41.148 29.6811 41.024 30.1211 41.024C30.8651 41.024 31.4371 41.272 31.8371 41.768C32.2451 42.264 32.4491 42.928 32.4491 43.76C32.4491 43.864 32.4451 43.968 32.4371 44.072C32.4371 44.168 32.4291 44.252 32.4131 44.324H28.4771C28.5171 44.94 28.7091 45.432 29.0531 45.8C29.4051 46.168 29.8611 46.352 30.4211 46.352C30.7011 46.352 30.9571 46.312 31.1891 46.232C31.4291 46.144 31.6571 46.032 31.8731 45.896L32.2211 46.544C31.9731 46.704 31.6891 46.844 31.3691 46.964C31.0571 47.084 30.7011 47.144 30.3011 47.144ZM28.4651 43.616H31.5851C31.5851 43.024 31.4571 42.576 31.2011 42.272C30.9531 41.96 30.6011 41.804 30.1451 41.804C29.7371 41.804 29.3691 41.964 29.0411 42.284C28.7211 42.596 28.5291 43.04 28.4651 43.616Z" fill="#606060"/>
</svg>
