<svg width="38" height="38" viewBox="0 0 38 38" fill="none" xmlns="http://www.w3.org/2000/svg">
<g filter="url(#filter0_i_7547_4766)">
<circle cx="19" cy="19" r="19" fill="url(#paint0_linear_7547_4766)" fill-opacity="0.5"/>
</g>
<path d="M17.25 13.9577H13.5833C13.4618 13.9577 13.3452 13.9094 13.2592 13.8234C13.1733 13.7375 13.125 13.6209 13.125 13.4993C13.125 13.3778 13.1733 13.2612 13.2592 13.1753C13.3452 13.0893 13.4618 13.041 13.5833 13.041H17.25C17.3716 13.041 17.4881 13.0893 17.5741 13.1753C17.66 13.2612 17.7083 13.3778 17.7083 13.4993C17.7083 13.6209 17.66 13.7375 17.5741 13.8234C17.4881 13.9094 17.3716 13.9577 17.25 13.9577ZM20 16.7077H13.5833C13.4618 16.7077 13.3452 16.6594 13.2592 16.5734C13.1733 16.4875 13.125 16.3709 13.125 16.2493C13.125 16.1278 13.1733 16.0112 13.2592 15.9253C13.3452 15.8393 13.4618 15.791 13.5833 15.791H20C20.1216 15.791 20.2381 15.8393 20.3241 15.9253C20.41 16.0112 20.4583 16.1278 20.4583 16.2493C20.4583 16.3709 20.41 16.4875 20.3241 16.5734C20.2381 16.6594 20.1216 16.7077 20 16.7077ZM20.9167 19.4577H13.5833C13.4618 19.4577 13.3452 19.4094 13.2592 19.3234C13.1733 19.2375 13.125 19.1209 13.125 18.9993C13.125 18.8778 13.1733 18.7612 13.2592 18.6753C13.3452 18.5893 13.4618 18.541 13.5833 18.541H20.9167C21.0382 18.541 21.1548 18.5893 21.2408 18.6753C21.3267 18.7612 21.375 18.8778 21.375 18.9993C21.375 19.1209 21.3267 19.2375 21.2408 19.3234C21.1548 19.4094 21.0382 19.4577 20.9167 19.4577ZM18.1667 22.2077H13.5833C13.4618 22.2077 13.3452 22.1594 13.2592 22.0734C13.1733 21.9875 13.125 21.8709 13.125 21.7493C13.125 21.6278 13.1733 21.5112 13.2592 21.4253C13.3452 21.3393 13.4618 21.291 13.5833 21.291H18.1667C18.2882 21.291 18.4048 21.3393 18.4908 21.4253C18.5767 21.5112 18.625 21.6278 18.625 21.7493C18.625 21.8709 18.5767 21.9875 18.4908 22.0734C18.4048 22.1594 18.2882 22.2077 18.1667 22.2077ZM18.1667 24.9577H13.5833C13.4618 24.9577 13.3452 24.9094 13.2592 24.8234C13.1733 24.7375 13.125 24.6209 13.125 24.4993C13.125 24.3778 13.1733 24.2612 13.2592 24.1753C13.3452 24.0893 13.4618 24.041 13.5833 24.041H18.1667C18.2882 24.041 18.4048 24.0893 18.4908 24.1753C18.5767 24.2612 18.625 24.3778 18.625 24.4993C18.625 24.6209 18.5767 24.7375 18.4908 24.8234C18.4048 24.9094 18.2882 24.9577 18.1667 24.9577Z" fill="#002949"/>
<path d="M24.1259 24.5C24.0657 24.5001 24.0061 24.4883 23.9505 24.4652C23.8949 24.4422 23.8444 24.4084 23.8019 24.3658L22.8852 23.4491C22.8006 23.3629 22.7534 23.2467 22.7539 23.1259C22.7545 23.0051 22.8027 22.8894 22.8881 22.8039C22.9736 22.7185 23.0893 22.6703 23.2101 22.6697C23.3309 22.6692 23.4471 22.7163 23.5333 22.801L24.1259 23.3936L25.6352 21.8843C25.6777 21.8413 25.7282 21.8071 25.7839 21.7838C25.8396 21.7604 25.8994 21.7482 25.9599 21.748C26.0203 21.7479 26.0802 21.7596 26.136 21.7827C26.1919 21.8057 26.2426 21.8396 26.2854 21.8823C26.3281 21.925 26.3619 21.9758 26.385 22.0316C26.408 22.0875 26.4198 22.1474 26.4196 22.2078C26.4194 22.2682 26.4072 22.328 26.3839 22.3837C26.3605 22.4394 26.3263 22.49 26.2833 22.5324L24.45 24.3658C24.4075 24.4084 24.357 24.4422 24.3013 24.4652C24.2457 24.4883 24.1861 24.5001 24.1259 24.5Z" fill="#002949"/>
<path d="M23.6667 28.625H12.6667C12.0591 28.6243 11.4766 28.3826 11.047 27.953C10.6174 27.5234 10.3757 26.9409 10.375 26.3333V11.6667C10.3757 11.0591 10.6174 10.4766 11.047 10.047C11.4766 9.61739 12.0591 9.37571 12.6667 9.375H19.7525C20.0578 9.3752 20.3601 9.43621 20.6416 9.55448C20.9231 9.67275 21.1782 9.84591 21.392 10.0638L25.3053 14.0689C25.7247 14.4972 25.9592 15.0731 25.9583 15.6726V19.0873C25.9583 19.2088 25.91 19.3254 25.8241 19.4114C25.7381 19.4973 25.6216 19.5456 25.5 19.5456C25.3784 19.5456 25.2619 19.4973 25.1759 19.4114C25.09 19.3254 25.0417 19.2088 25.0417 19.0873V15.6726C25.0422 15.3124 24.9012 14.9663 24.6491 14.7089L20.7358 10.7039C20.6076 10.5733 20.4545 10.4696 20.2857 10.3988C20.1168 10.328 19.9356 10.2916 19.7525 10.2917H12.6667C12.3021 10.2921 11.9526 10.4371 11.6948 10.6948C11.4371 10.9526 11.2921 11.3021 11.2917 11.6667V26.3333C11.2921 26.6979 11.4371 27.0474 11.6948 27.3052C11.9526 27.5629 12.3021 27.7079 12.6667 27.7083H23.6667C23.8393 27.709 24.0104 27.6757 24.1702 27.6103C24.2258 27.5873 24.2854 27.5755 24.3456 27.5755C24.4058 27.5755 24.4654 27.5874 24.521 27.6104C24.5766 27.6335 24.6271 27.6673 24.6696 27.7099C24.7122 27.7525 24.7459 27.803 24.7689 27.8586C24.7919 27.9143 24.8037 27.9739 24.8036 28.034C24.8036 28.0942 24.7916 28.1538 24.7685 28.2094C24.7455 28.265 24.7116 28.3155 24.669 28.358C24.6264 28.4005 24.5759 28.4342 24.5202 28.4572C24.2496 28.5688 23.9595 28.6259 23.6667 28.625Z" fill="#002949"/>
<path d="M23.478 15.334H22.291C21.6835 15.3333 21.101 15.0916 20.6714 14.662C20.2417 14.2324 20.0001 13.6499 19.9994 13.0424V9.97591C19.9994 9.85435 20.0476 9.73777 20.1336 9.65182C20.2195 9.56587 20.3361 9.51758 20.4577 9.51758C20.5792 9.51758 20.6958 9.56587 20.7818 9.65182C20.8677 9.73777 20.916 9.85435 20.916 9.97591V13.0424C20.9164 13.4069 21.0614 13.7564 21.3192 14.0142C21.577 14.272 21.9265 14.417 22.291 14.4174H23.478C23.5996 14.4174 23.7162 14.4656 23.8021 14.5516C23.8881 14.6376 23.9364 14.7541 23.9364 14.8757C23.9364 14.9972 23.8881 15.1138 23.8021 15.1998C23.7162 15.2857 23.5996 15.334 23.478 15.334ZM24.5827 28.5594C24.4014 28.5593 24.2242 28.5052 24.0738 28.4041L22.6025 27.4235C21.6599 26.7966 20.8871 25.9462 20.3529 24.9481C19.8187 23.95 19.5398 22.8353 19.541 21.7032V20.9204C19.5417 20.7141 19.6118 20.5139 19.74 20.3522C19.8682 20.1905 20.047 20.0766 20.2478 20.0288C21.6088 19.6527 22.9036 19.0685 24.0863 18.2971C24.2343 18.2017 24.4066 18.1509 24.5826 18.1508C24.7587 18.1507 24.931 18.2014 25.0791 18.2966C26.262 19.0681 27.5569 19.6529 28.9181 20.0293C29.1187 20.0769 29.2975 20.1908 29.4256 20.3524C29.5538 20.5141 29.6238 20.7141 29.6244 20.9204V21.7032C29.6256 22.8353 29.3466 23.95 28.8125 24.9481C28.2783 25.9462 27.5054 26.7966 26.5628 27.4235L25.0912 28.4046C24.9407 28.5054 24.7638 28.5593 24.5827 28.5594ZM24.5813 19.0665C23.3141 19.8936 21.926 20.5186 20.4666 20.9191L20.4577 21.7032C20.4566 22.6843 20.6983 23.6505 21.1613 24.5155C21.6242 25.3805 22.2941 26.1175 23.111 26.6608L24.5827 27.6419L26.0544 26.6608C26.8713 26.1175 27.5411 25.3805 28.0041 24.5155C28.4671 23.6505 28.7088 22.6843 28.7077 21.7032V20.9204C27.245 20.5198 25.8533 19.8947 24.5822 19.0674L24.5813 19.0665Z" fill="#002949"/>
<defs>
<filter id="filter0_i_7547_4766" x="0" y="0" width="38" height="42" filterUnits="userSpaceOnUse" color-interpolation-filters="sRGB">
<feFlood flood-opacity="0" result="BackgroundImageFix"/>
<feBlend mode="normal" in="SourceGraphic" in2="BackgroundImageFix" result="shape"/>
<feColorMatrix in="SourceAlpha" type="matrix" values="0 0 0 0 0 0 0 0 0 0 0 0 0 0 0 0 0 0 127 0" result="hardAlpha"/>
<feOffset dy="4"/>
<feGaussianBlur stdDeviation="2"/>
<feComposite in2="hardAlpha" operator="arithmetic" k2="-1" k3="1"/>
<feColorMatrix type="matrix" values="0 0 0 0 0 0 0 0 0 0 0 0 0 0 0 0 0 0 0.05 0"/>
<feBlend mode="normal" in2="shape" result="effect1_innerShadow_7547_4766"/>
</filter>
<linearGradient id="paint0_linear_7547_4766" x1="19" y1="0" x2="19" y2="38" gradientUnits="userSpaceOnUse">
<stop stop-color="#FF5353" stop-opacity="0.5"/>
<stop offset="1" stop-color="#FF5353" stop-opacity="0"/>
</linearGradient>
</defs>
</svg>
