<svg width="347" height="38" viewBox="0 0 347 38" fill="none" xmlns="http://www.w3.org/2000/svg">
<rect x="41" y="5" width="147" height="3" fill="#7E8295"/>
<rect x="188" y="5" width="129" height="3" fill="#7E8295"/>
<path d="M1.162 34V24.844H4.256C4.89067 24.844 5.46 24.928 5.964 25.096C6.47733 25.264 6.87867 25.5487 7.168 25.95C7.46667 26.342 7.616 26.8787 7.616 27.56C7.616 28.26 7.448 28.8247 7.112 29.254C6.78533 29.6833 6.34667 29.9913 5.796 30.178L7.98 34H6.16L4.186 30.416H2.786V34H1.162ZM2.786 29.128H4.088C4.71333 29.128 5.18933 28.9973 5.516 28.736C5.852 28.4653 6.02 28.0733 6.02 27.56C6.02 27.0373 5.852 26.6733 5.516 26.468C5.18933 26.2533 4.71333 26.146 4.088 26.146H2.786V29.128ZM12.1104 34.168C11.4758 34.168 10.9018 34.028 10.3884 33.748C9.8751 33.4587 9.4691 33.048 9.17044 32.516C8.87177 31.9747 8.72244 31.326 8.72244 30.57C8.72244 29.8233 8.87177 29.1793 9.17044 28.638C9.47844 28.0967 9.8751 27.6813 10.3604 27.392C10.8458 27.1027 11.3544 26.958 11.8864 26.958C12.5118 26.958 13.0344 27.098 13.4544 27.378C13.8744 27.6487 14.1918 28.0313 14.4064 28.526C14.6211 29.0113 14.7284 29.576 14.7284 30.22C14.7284 30.556 14.7051 30.8173 14.6584 31.004H10.2904C10.3651 31.6107 10.5844 32.082 10.9484 32.418C11.3124 32.754 11.7698 32.922 12.3204 32.922C12.6191 32.922 12.8944 32.88 13.1464 32.796C13.4078 32.7027 13.6644 32.5767 13.9164 32.418L14.4624 33.426C14.1358 33.6407 13.7718 33.818 13.3704 33.958C12.9691 34.098 12.5491 34.168 12.1104 34.168ZM10.2764 29.912H13.3284C13.3284 29.38 13.2118 28.9647 12.9784 28.666C12.7451 28.358 12.3951 28.204 11.9284 28.204C11.5271 28.204 11.1678 28.3533 10.8504 28.652C10.5424 28.9413 10.3511 29.3613 10.2764 29.912ZM16.4915 34V28.4H15.5675V27.196L16.4915 27.126V26.412C16.4915 25.6933 16.6688 25.1053 17.0235 24.648C17.3781 24.1813 17.9615 23.948 18.7735 23.948C19.0161 23.948 19.2495 23.9713 19.4735 24.018C19.6975 24.0647 19.8841 24.1207 20.0335 24.186L19.7255 25.39C19.4735 25.278 19.2215 25.222 18.9695 25.222C18.3908 25.222 18.1015 25.6093 18.1015 26.384V27.126H19.4455V28.4H18.1015V34H16.4915ZM23.4581 34.168C22.8234 34.168 22.2494 34.028 21.7361 33.748C21.2228 33.4587 20.8168 33.048 20.5181 32.516C20.2194 31.9747 20.0701 31.326 20.0701 30.57C20.0701 29.8233 20.2194 29.1793 20.5181 28.638C20.8261 28.0967 21.2228 27.6813 21.7081 27.392C22.1934 27.1027 22.7021 26.958 23.2341 26.958C23.8594 26.958 24.3821 27.098 24.8021 27.378C25.2221 27.6487 25.5394 28.0313 25.7541 28.526C25.9688 29.0113 26.0761 29.576 26.0761 30.22C26.0761 30.556 26.0528 30.8173 26.0061 31.004H21.6381C21.7128 31.6107 21.9321 32.082 22.2961 32.418C22.6601 32.754 23.1174 32.922 23.6681 32.922C23.9668 32.922 24.2421 32.88 24.4941 32.796C24.7554 32.7027 25.0121 32.5767 25.2641 32.418L25.8101 33.426C25.4834 33.6407 25.1194 33.818 24.7181 33.958C24.3168 34.098 23.8968 34.168 23.4581 34.168ZM21.6241 29.912H24.6761C24.6761 29.38 24.5594 28.9647 24.3261 28.666C24.0928 28.358 23.7428 28.204 23.2761 28.204C22.8748 28.204 22.5154 28.3533 22.1981 28.652C21.8901 28.9413 21.6988 29.3613 21.6241 29.912ZM27.6138 34V27.126H28.9438L29.0558 28.344H29.1118C29.3545 27.896 29.6485 27.5553 29.9938 27.322C30.3391 27.0793 30.6938 26.958 31.0578 26.958C31.3845 26.958 31.6458 27.0047 31.8418 27.098L31.5618 28.498C31.4405 28.4607 31.3285 28.4327 31.2258 28.414C31.1231 28.3953 30.9971 28.386 30.8478 28.386C30.5771 28.386 30.2925 28.4933 29.9938 28.708C29.6951 28.9133 29.4385 29.2773 29.2238 29.8V34H27.6138ZM32.8365 34V27.126H34.1665L34.2785 28.344H34.3345C34.5771 27.896 34.8711 27.5553 35.2165 27.322C35.5618 27.0793 35.9165 26.958 36.2805 26.958C36.6071 26.958 36.8685 27.0047 37.0645 27.098L36.7845 28.498C36.6631 28.4607 36.5511 28.4327 36.4485 28.414C36.3458 28.3953 36.2198 28.386 36.0705 28.386C35.7998 28.386 35.5151 28.4933 35.2165 28.708C34.9178 28.9133 34.6611 29.2773 34.4465 29.8V34H32.8365ZM39.356 34.168C38.7586 34.168 38.2686 33.9813 37.886 33.608C37.5126 33.2347 37.326 32.7493 37.326 32.152C37.326 31.4147 37.648 30.8453 38.292 30.444C38.936 30.0333 39.9626 29.7533 41.372 29.604C41.3626 29.24 41.2646 28.9273 41.078 28.666C40.9006 28.3953 40.5786 28.26 40.112 28.26C39.776 28.26 39.4446 28.3253 39.118 28.456C38.8006 28.5867 38.488 28.7453 38.18 28.932L37.592 27.854C37.9746 27.6113 38.404 27.4013 38.88 27.224C39.3653 27.0467 39.8786 26.958 40.42 26.958C41.2786 26.958 41.918 27.2147 42.338 27.728C42.7673 28.232 42.982 28.9647 42.982 29.926V34H41.652L41.54 33.244H41.484C41.176 33.5053 40.8446 33.7247 40.49 33.902C40.1446 34.0793 39.7666 34.168 39.356 34.168ZM39.874 32.908C40.154 32.908 40.406 32.8427 40.63 32.712C40.8633 32.572 41.1106 32.3853 41.372 32.152V30.612C40.4386 30.7333 39.79 30.9153 39.426 31.158C39.062 31.3913 38.88 31.6807 38.88 32.026C38.88 32.334 38.9733 32.558 39.16 32.698C39.3466 32.838 39.5846 32.908 39.874 32.908ZM46.4767 34.168C45.9074 34.168 45.5014 33.9953 45.2587 33.65C45.0254 33.3047 44.9087 32.8333 44.9087 32.236V24.116H46.5187V32.32C46.5187 32.516 46.5561 32.656 46.6307 32.74C46.7054 32.8147 46.7847 32.852 46.8687 32.852C46.9061 32.852 46.9387 32.852 46.9667 32.852C47.0041 32.8427 47.0554 32.8333 47.1207 32.824L47.3307 34.028C47.2374 34.0653 47.1161 34.098 46.9667 34.126C46.8267 34.154 46.6634 34.168 46.4767 34.168ZM51.6522 34V24.844H54.1022C55.5022 24.844 56.5942 25.222 57.3782 25.978C58.1622 26.734 58.5542 27.868 58.5542 29.38C58.5542 30.9013 58.1669 32.054 57.3922 32.838C56.6176 33.6127 55.5489 34 54.1862 34H51.6522ZM53.2762 32.684H53.9902C54.9142 32.684 55.6282 32.418 56.1322 31.886C56.6362 31.3447 56.8882 30.5093 56.8882 29.38C56.8882 28.26 56.6362 27.4433 56.1322 26.93C55.6282 26.4167 54.9142 26.16 53.9902 26.16H53.2762V32.684ZM63.2022 34.168C62.5676 34.168 61.9936 34.028 61.4802 33.748C60.9669 33.4587 60.5609 33.048 60.2622 32.516C59.9636 31.9747 59.8142 31.326 59.8142 30.57C59.8142 29.8233 59.9636 29.1793 60.2622 28.638C60.5702 28.0967 60.9669 27.6813 61.4522 27.392C61.9376 27.1027 62.4462 26.958 62.9782 26.958C63.6036 26.958 64.1262 27.098 64.5462 27.378C64.9662 27.6487 65.2836 28.0313 65.4982 28.526C65.7129 29.0113 65.8202 29.576 65.8202 30.22C65.8202 30.556 65.7969 30.8173 65.7502 31.004H61.3822C61.4569 31.6107 61.6762 32.082 62.0402 32.418C62.4042 32.754 62.8616 32.922 63.4122 32.922C63.7109 32.922 63.9862 32.88 64.2382 32.796C64.4996 32.7027 64.7562 32.5767 65.0082 32.418L65.5542 33.426C65.2276 33.6407 64.8636 33.818 64.4622 33.958C64.0609 34.098 63.6409 34.168 63.2022 34.168ZM61.3682 29.912H64.4202C64.4202 29.38 64.3036 28.9647 64.0702 28.666C63.8369 28.358 63.4869 28.204 63.0202 28.204C62.6189 28.204 62.2596 28.3533 61.9422 28.652C61.6342 28.9413 61.4429 29.3613 61.3682 29.912ZM69.6432 34.168C68.8499 34.168 68.2852 33.9393 67.9492 33.482C67.6226 33.0153 67.4592 32.4133 67.4592 31.676V28.4H66.4792V27.196L67.5432 27.126L67.7392 25.25H69.0832V27.126H70.8332V28.4H69.0832V31.676C69.0832 32.4787 69.4052 32.88 70.0492 32.88C70.1706 32.88 70.2966 32.866 70.4272 32.838C70.5579 32.8007 70.6699 32.7633 70.7632 32.726L71.0432 33.916C70.8566 33.9813 70.6419 34.0373 70.3992 34.084C70.1659 34.14 69.9139 34.168 69.6432 34.168ZM73.645 34.168C73.0477 34.168 72.5577 33.9813 72.175 33.608C71.8017 33.2347 71.615 32.7493 71.615 32.152C71.615 31.4147 71.937 30.8453 72.581 30.444C73.225 30.0333 74.2517 29.7533 75.661 29.604C75.6517 29.24 75.5537 28.9273 75.367 28.666C75.1897 28.3953 74.8677 28.26 74.401 28.26C74.065 28.26 73.7337 28.3253 73.407 28.456C73.0897 28.5867 72.777 28.7453 72.469 28.932L71.881 27.854C72.2637 27.6113 72.693 27.4013 73.169 27.224C73.6544 27.0467 74.1677 26.958 74.709 26.958C75.5677 26.958 76.207 27.2147 76.627 27.728C77.0564 28.232 77.271 28.9647 77.271 29.926V34H75.941L75.829 33.244H75.773C75.465 33.5053 75.1337 33.7247 74.779 33.902C74.4337 34.0793 74.0557 34.168 73.645 34.168ZM74.163 32.908C74.443 32.908 74.695 32.8427 74.919 32.712C75.1524 32.572 75.3997 32.3853 75.661 32.152V30.612C74.7277 30.7333 74.079 30.9153 73.715 31.158C73.351 31.3913 73.169 31.6807 73.169 32.026C73.169 32.334 73.2624 32.558 73.449 32.698C73.6357 32.838 73.8737 32.908 74.163 32.908ZM79.1978 34V27.126H80.8078V34H79.1978ZM80.0098 25.922C79.7204 25.922 79.4871 25.838 79.3098 25.67C79.1324 25.502 79.0438 25.278 79.0438 24.998C79.0438 24.7273 79.1324 24.508 79.3098 24.34C79.4871 24.172 79.7204 24.088 80.0098 24.088C80.2991 24.088 80.5324 24.172 80.7098 24.34C80.8871 24.508 80.9758 24.7273 80.9758 24.998C80.9758 25.278 80.8871 25.502 80.7098 25.67C80.5324 25.838 80.2991 25.922 80.0098 25.922ZM84.4298 34.168C83.8605 34.168 83.4545 33.9953 83.2118 33.65C82.9785 33.3047 82.8618 32.8333 82.8618 32.236V24.116H84.4718V32.32C84.4718 32.516 84.5092 32.656 84.5838 32.74C84.6585 32.8147 84.7378 32.852 84.8218 32.852C84.8592 32.852 84.8918 32.852 84.9198 32.852C84.9572 32.8427 85.0085 32.8333 85.0738 32.824L85.2838 34.028C85.1905 34.0653 85.0692 34.098 84.9198 34.126C84.7798 34.154 84.6165 34.168 84.4298 34.168Z" fill="#002949"/>
<path d="M294.912 34.168C294.146 34.168 293.46 33.9813 292.854 33.608C292.256 33.2253 291.78 32.6793 291.426 31.97C291.08 31.2607 290.908 30.4067 290.908 29.408C290.908 28.4187 291.085 27.5693 291.44 26.86C291.794 26.1507 292.28 25.6047 292.896 25.222C293.512 24.8393 294.207 24.648 294.982 24.648C295.542 24.648 296.036 24.7647 296.466 24.998C296.895 25.222 297.24 25.4833 297.502 25.782L296.872 26.538C296.629 26.2767 296.354 26.0667 296.046 25.908C295.738 25.7493 295.388 25.67 294.996 25.67C294.417 25.67 293.908 25.824 293.47 26.132C293.04 26.4307 292.704 26.8553 292.462 27.406C292.228 27.9567 292.112 28.6147 292.112 29.38C292.112 30.1453 292.228 30.8127 292.462 31.382C292.695 31.942 293.022 32.376 293.442 32.684C293.871 32.992 294.375 33.146 294.954 33.146C295.392 33.146 295.784 33.0527 296.13 32.866C296.475 32.6793 296.792 32.4273 297.082 32.11L297.726 32.838C297.362 33.258 296.951 33.5847 296.494 33.818C296.036 34.0513 295.509 34.168 294.912 34.168ZM301.972 34.168C301.421 34.168 300.903 34.028 300.418 33.748C299.942 33.468 299.554 33.062 299.256 32.53C298.966 31.998 298.822 31.3587 298.822 30.612C298.822 29.8467 298.966 29.198 299.256 28.666C299.554 28.134 299.942 27.728 300.418 27.448C300.903 27.168 301.421 27.028 301.972 27.028C302.532 27.028 303.05 27.168 303.526 27.448C304.002 27.728 304.384 28.134 304.674 28.666C304.972 29.198 305.122 29.8467 305.122 30.612C305.122 31.3587 304.972 31.998 304.674 32.53C304.384 33.062 304.002 33.468 303.526 33.748C303.05 34.028 302.532 34.168 301.972 34.168ZM301.972 33.216C302.56 33.216 303.031 32.978 303.386 32.502C303.75 32.0167 303.932 31.3867 303.932 30.612C303.932 29.828 303.75 29.1933 303.386 28.708C303.031 28.2227 302.56 27.98 301.972 27.98C301.393 27.98 300.922 28.2227 300.558 28.708C300.194 29.1933 300.012 29.828 300.012 30.612C300.012 31.3867 300.194 32.0167 300.558 32.502C300.922 32.978 301.393 33.216 301.972 33.216ZM306.914 34V27.196H307.866L307.964 28.176H308.006C308.304 27.8493 308.631 27.5787 308.986 27.364C309.34 27.14 309.718 27.028 310.12 27.028C310.642 27.028 311.048 27.1447 311.338 27.378C311.636 27.602 311.856 27.9193 311.996 28.33C312.35 27.9473 312.71 27.6347 313.074 27.392C313.438 27.1493 313.825 27.028 314.236 27.028C314.936 27.028 315.454 27.2567 315.79 27.714C316.135 28.162 316.308 28.82 316.308 29.688V34H315.16V29.842C315.16 29.2073 315.057 28.7453 314.852 28.456C314.646 28.1667 314.329 28.022 313.9 28.022C313.396 28.022 312.826 28.372 312.192 29.072V34H311.044V29.842C311.044 29.2073 310.941 28.7453 310.736 28.456C310.53 28.1667 310.208 28.022 309.77 28.022C309.266 28.022 308.696 28.372 308.062 29.072V34H306.914ZM318.521 36.87V27.196H319.473L319.571 27.98H319.613C319.921 27.7187 320.257 27.4947 320.621 27.308C320.994 27.1213 321.382 27.028 321.783 27.028C322.66 27.028 323.328 27.3453 323.785 27.98C324.242 28.6053 324.471 29.4453 324.471 30.5C324.471 31.2653 324.331 31.9233 324.051 32.474C323.78 33.0247 323.421 33.4447 322.973 33.734C322.534 34.0233 322.054 34.168 321.531 34.168C321.214 34.168 320.896 34.098 320.579 33.958C320.271 33.818 319.958 33.6267 319.641 33.384L319.669 34.574V36.87H318.521ZM321.335 33.202C321.895 33.202 322.357 32.964 322.721 32.488C323.094 32.0027 323.281 31.34 323.281 30.5C323.281 29.7533 323.141 29.1513 322.861 28.694C322.59 28.2273 322.133 27.994 321.489 27.994C321.2 27.994 320.906 28.0733 320.607 28.232C320.318 28.3907 320.005 28.6193 319.669 28.918V32.488C319.977 32.7493 320.276 32.936 320.565 33.048C320.854 33.1507 321.111 33.202 321.335 33.202ZM327.505 34.168C327.075 34.168 326.763 34.0373 326.567 33.776C326.38 33.5053 326.287 33.1227 326.287 32.628V24.032H327.435V32.712C327.435 32.8893 327.467 33.02 327.533 33.104C327.598 33.1787 327.673 33.216 327.757 33.216C327.794 33.216 327.827 33.216 327.855 33.216C327.892 33.2067 327.943 33.1973 328.009 33.188L328.163 34.056C328.088 34.0933 327.999 34.1213 327.897 34.14C327.794 34.1587 327.663 34.168 327.505 34.168ZM332.613 34.168C332.006 34.168 331.456 34.028 330.961 33.748C330.466 33.4587 330.074 33.048 329.785 32.516C329.496 31.984 329.351 31.3493 329.351 30.612C329.351 29.8653 329.496 29.226 329.785 28.694C330.084 28.162 330.466 27.7513 330.933 27.462C331.4 27.1727 331.89 27.028 332.403 27.028C333.271 27.028 333.938 27.3173 334.405 27.896C334.881 28.4747 335.119 29.2493 335.119 30.22C335.119 30.3413 335.114 30.4627 335.105 30.584C335.105 30.696 335.096 30.794 335.077 30.878H330.485C330.532 31.5967 330.756 32.1707 331.157 32.6C331.568 33.0293 332.1 33.244 332.753 33.244C333.08 33.244 333.378 33.1973 333.649 33.104C333.929 33.0013 334.195 32.8707 334.447 32.712L334.853 33.468C334.564 33.6547 334.232 33.818 333.859 33.958C333.495 34.098 333.08 34.168 332.613 34.168ZM330.471 30.052H334.111C334.111 29.3613 333.962 28.8387 333.663 28.484C333.374 28.12 332.963 27.938 332.431 27.938C331.955 27.938 331.526 28.1247 331.143 28.498C330.77 28.862 330.546 29.38 330.471 30.052ZM338.806 34.168C338.078 34.168 337.569 33.958 337.28 33.538C337 33.118 336.86 32.572 336.86 31.9V28.134H335.852V27.266L336.916 27.196L337.056 25.292H338.022V27.196H339.856V28.134H338.022V31.914C338.022 32.334 338.096 32.6607 338.246 32.894C338.404 33.118 338.68 33.23 339.072 33.23C339.193 33.23 339.324 33.2113 339.464 33.174C339.604 33.1273 339.73 33.0853 339.842 33.048L340.066 33.916C339.879 33.9813 339.674 34.0373 339.45 34.084C339.235 34.14 339.02 34.168 338.806 34.168ZM343.961 34.168C343.354 34.168 342.803 34.028 342.309 33.748C341.814 33.4587 341.422 33.048 341.133 32.516C340.843 31.984 340.699 31.3493 340.699 30.612C340.699 29.8653 340.843 29.226 341.133 28.694C341.431 28.162 341.814 27.7513 342.281 27.462C342.747 27.1727 343.237 27.028 343.751 27.028C344.619 27.028 345.286 27.3173 345.753 27.896C346.229 28.4747 346.467 29.2493 346.467 30.22C346.467 30.3413 346.462 30.4627 346.453 30.584C346.453 30.696 346.443 30.794 346.425 30.878H341.833C341.879 31.5967 342.103 32.1707 342.505 32.6C342.915 33.0293 343.447 33.244 344.101 33.244C344.427 33.244 344.726 33.1973 344.997 33.104C345.277 33.0013 345.543 32.8707 345.795 32.712L346.201 33.468C345.911 33.6547 345.58 33.818 345.207 33.958C344.843 34.098 344.427 34.168 343.961 34.168ZM341.819 30.052H345.459C345.459 29.3613 345.309 28.8387 345.011 28.484C344.721 28.12 344.311 27.938 343.779 27.938C343.303 27.938 342.873 28.1247 342.491 28.498C342.117 28.862 341.893 29.38 341.819 30.052Z" fill="#7E8295"/>
<path d="M148.045 34.168C147.401 34.168 146.804 34.0467 146.253 33.804C145.703 33.552 145.227 33.2207 144.825 32.81L145.525 31.998C145.852 32.3433 146.235 32.6233 146.673 32.838C147.121 33.0433 147.583 33.146 148.059 33.146C148.666 33.146 149.137 33.0107 149.473 32.74C149.809 32.46 149.977 32.096 149.977 31.648C149.977 31.3307 149.907 31.0787 149.767 30.892C149.637 30.7053 149.455 30.5467 149.221 30.416C148.997 30.2853 148.741 30.1547 148.451 30.024L147.135 29.45C146.846 29.3287 146.557 29.17 146.267 28.974C145.987 28.778 145.749 28.526 145.553 28.218C145.367 27.91 145.273 27.532 145.273 27.084C145.273 26.6173 145.395 26.202 145.637 25.838C145.889 25.4647 146.235 25.1753 146.673 24.97C147.112 24.7553 147.607 24.648 148.157 24.648C148.708 24.648 149.217 24.7553 149.683 24.97C150.15 25.1753 150.547 25.446 150.873 25.782L150.243 26.538C149.963 26.2673 149.651 26.0573 149.305 25.908C148.969 25.7493 148.587 25.67 148.157 25.67C147.644 25.67 147.229 25.7913 146.911 26.034C146.603 26.2767 146.449 26.6033 146.449 27.014C146.449 27.3033 146.524 27.546 146.673 27.742C146.832 27.9287 147.028 28.0827 147.261 28.204C147.495 28.3253 147.733 28.4373 147.975 28.54L149.277 29.1C149.632 29.2493 149.949 29.4313 150.229 29.646C150.519 29.8513 150.747 30.108 150.915 30.416C151.083 30.7147 151.167 31.0927 151.167 31.55C151.167 32.0353 151.041 32.4787 150.789 32.88C150.537 33.272 150.178 33.5847 149.711 33.818C149.245 34.0513 148.689 34.168 148.045 34.168ZM152.864 36.87V27.196H153.816L153.914 27.98H153.956C154.264 27.7187 154.6 27.4947 154.964 27.308C155.337 27.1213 155.724 27.028 156.126 27.028C157.003 27.028 157.67 27.3453 158.128 27.98C158.585 28.6053 158.814 29.4453 158.814 30.5C158.814 31.2653 158.674 31.9233 158.394 32.474C158.123 33.0247 157.764 33.4447 157.316 33.734C156.877 34.0233 156.396 34.168 155.874 34.168C155.556 34.168 155.239 34.098 154.922 33.958C154.614 33.818 154.301 33.6267 153.984 33.384L154.012 34.574V36.87H152.864ZM155.678 33.202C156.238 33.202 156.7 32.964 157.064 32.488C157.437 32.0027 157.624 31.34 157.624 30.5C157.624 29.7533 157.484 29.1513 157.204 28.694C156.933 28.2273 156.476 27.994 155.832 27.994C155.542 27.994 155.248 28.0733 154.95 28.232C154.66 28.3907 154.348 28.6193 154.012 28.918V32.488C154.32 32.7493 154.618 32.936 154.908 33.048C155.197 33.1507 155.454 33.202 155.678 33.202ZM163.387 34.168C162.781 34.168 162.23 34.028 161.735 33.748C161.241 33.4587 160.849 33.048 160.559 32.516C160.27 31.984 160.125 31.3493 160.125 30.612C160.125 29.8653 160.27 29.226 160.559 28.694C160.858 28.162 161.241 27.7513 161.707 27.462C162.174 27.1727 162.664 27.028 163.177 27.028C164.045 27.028 164.713 27.3173 165.179 27.896C165.655 28.4747 165.893 29.2493 165.893 30.22C165.893 30.3413 165.889 30.4627 165.879 30.584C165.879 30.696 165.87 30.794 165.851 30.878H161.259C161.306 31.5967 161.53 32.1707 161.931 32.6C162.342 33.0293 162.874 33.244 163.527 33.244C163.854 33.244 164.153 33.1973 164.423 33.104C164.703 33.0013 164.969 32.8707 165.221 32.712L165.627 33.468C165.338 33.6547 165.007 33.818 164.633 33.958C164.269 34.098 163.854 34.168 163.387 34.168ZM161.245 30.052H164.885C164.885 29.3613 164.736 28.8387 164.437 28.484C164.148 28.12 163.737 27.938 163.205 27.938C162.729 27.938 162.3 28.1247 161.917 28.498C161.544 28.862 161.32 29.38 161.245 30.052ZM170.263 34.168C169.665 34.168 169.124 34.028 168.639 33.748C168.153 33.468 167.771 33.062 167.491 32.53C167.211 31.998 167.071 31.3587 167.071 30.612C167.071 29.8467 167.22 29.198 167.519 28.666C167.827 28.134 168.228 27.728 168.723 27.448C169.227 27.168 169.768 27.028 170.347 27.028C170.795 27.028 171.177 27.1073 171.495 27.266C171.821 27.4247 172.101 27.6113 172.335 27.826L171.747 28.582C171.551 28.4047 171.341 28.26 171.117 28.148C170.902 28.036 170.659 27.98 170.389 27.98C169.978 27.98 169.609 28.092 169.283 28.316C168.965 28.5307 168.713 28.8387 168.527 29.24C168.349 29.632 168.261 30.0893 168.261 30.612C168.261 31.3867 168.452 32.0167 168.835 32.502C169.227 32.978 169.735 33.216 170.361 33.216C170.678 33.216 170.972 33.1507 171.243 33.02C171.513 32.88 171.751 32.7167 171.957 32.53L172.461 33.3C172.153 33.5707 171.812 33.7853 171.439 33.944C171.065 34.0933 170.673 34.168 170.263 34.168ZM173.96 34V27.196H175.108V34H173.96ZM174.548 25.796C174.324 25.796 174.137 25.7307 173.988 25.6C173.848 25.46 173.778 25.2733 173.778 25.04C173.778 24.816 173.848 24.634 173.988 24.494C174.137 24.354 174.324 24.284 174.548 24.284C174.772 24.284 174.954 24.354 175.094 24.494C175.243 24.634 175.318 24.816 175.318 25.04C175.318 25.2733 175.243 25.46 175.094 25.6C174.954 25.7307 174.772 25.796 174.548 25.796ZM177.601 34V28.134H176.677V27.266L177.601 27.196V26.118C177.601 25.4273 177.76 24.8813 178.077 24.48C178.404 24.0693 178.908 23.864 179.589 23.864C179.804 23.864 180.009 23.8873 180.205 23.934C180.401 23.9713 180.574 24.0227 180.723 24.088L180.471 24.97C180.219 24.858 179.962 24.802 179.701 24.802C179.066 24.802 178.749 25.2407 178.749 26.118V27.196H180.191V28.134H178.749V34H177.601ZM181.493 34V27.196H182.641V34H181.493ZM182.081 25.796C181.857 25.796 181.67 25.7307 181.521 25.6C181.381 25.46 181.311 25.2733 181.311 25.04C181.311 24.816 181.381 24.634 181.521 24.494C181.67 24.354 181.857 24.284 182.081 24.284C182.305 24.284 182.487 24.354 182.627 24.494C182.776 24.634 182.851 24.816 182.851 25.04C182.851 25.2733 182.776 25.46 182.627 25.6C182.487 25.7307 182.305 25.796 182.081 25.796ZM187.626 34.168C187.029 34.168 186.487 34.028 186.002 33.748C185.517 33.468 185.134 33.062 184.854 32.53C184.574 31.998 184.434 31.3587 184.434 30.612C184.434 29.8467 184.583 29.198 184.882 28.666C185.19 28.134 185.591 27.728 186.086 27.448C186.59 27.168 187.131 27.028 187.71 27.028C188.158 27.028 188.541 27.1073 188.858 27.266C189.185 27.4247 189.465 27.6113 189.698 27.826L189.11 28.582C188.914 28.4047 188.704 28.26 188.48 28.148C188.265 28.036 188.023 27.98 187.752 27.98C187.341 27.98 186.973 28.092 186.646 28.316C186.329 28.5307 186.077 28.8387 185.89 29.24C185.713 29.632 185.624 30.0893 185.624 30.612C185.624 31.3867 185.815 32.0167 186.198 32.502C186.59 32.978 187.099 33.216 187.724 33.216C188.041 33.216 188.335 33.1507 188.606 33.02C188.877 32.88 189.115 32.7167 189.32 32.53L189.824 33.3C189.516 33.5707 189.175 33.7853 188.802 33.944C188.429 34.0933 188.037 34.168 187.626 34.168ZM194.238 34V24.816H196.534C197.952 24.816 199.03 25.2127 199.768 26.006C200.505 26.79 200.874 27.91 200.874 29.366C200.874 30.8313 200.505 31.97 199.768 32.782C199.04 33.594 197.98 34 196.59 34H194.238ZM195.4 33.048H196.45C197.523 33.048 198.326 32.726 198.858 32.082C199.399 31.4287 199.67 30.5233 199.67 29.366C199.67 28.2087 199.399 27.322 198.858 26.706C198.326 26.0807 197.523 25.768 196.45 25.768H195.4V33.048ZM205.497 34.168C204.89 34.168 204.339 34.028 203.845 33.748C203.35 33.4587 202.958 33.048 202.669 32.516C202.379 31.984 202.235 31.3493 202.235 30.612C202.235 29.8653 202.379 29.226 202.669 28.694C202.967 28.162 203.35 27.7513 203.817 27.462C204.283 27.1727 204.773 27.028 205.287 27.028C206.155 27.028 206.822 27.3173 207.289 27.896C207.765 28.4747 208.003 29.2493 208.003 30.22C208.003 30.3413 207.998 30.4627 207.989 30.584C207.989 30.696 207.979 30.794 207.961 30.878H203.369C203.415 31.5967 203.639 32.1707 204.041 32.6C204.451 33.0293 204.983 33.244 205.637 33.244C205.963 33.244 206.262 33.1973 206.533 33.104C206.813 33.0013 207.079 32.8707 207.331 32.712L207.737 33.468C207.447 33.6547 207.116 33.818 206.743 33.958C206.379 34.098 205.963 34.168 205.497 34.168ZM203.355 30.052H206.995C206.995 29.3613 206.845 28.8387 206.547 28.484C206.257 28.12 205.847 27.938 205.315 27.938C204.839 27.938 204.409 28.1247 204.027 28.498C203.653 28.862 203.429 29.38 203.355 30.052ZM211.689 34.168C210.961 34.168 210.453 33.958 210.163 33.538C209.883 33.118 209.743 32.572 209.743 31.9V28.134H208.735V27.266L209.799 27.196L209.939 25.292H210.905V27.196H212.739V28.134H210.905V31.914C210.905 32.334 210.98 32.6607 211.129 32.894C211.288 33.118 211.563 33.23 211.955 33.23C212.077 33.23 212.207 33.2113 212.347 33.174C212.487 33.1273 212.613 33.0853 212.725 33.048L212.949 33.916C212.763 33.9813 212.557 34.0373 212.333 34.084C212.119 34.14 211.904 34.168 211.689 34.168ZM215.545 34.168C214.976 34.168 214.5 34 214.117 33.664C213.744 33.3187 213.557 32.8427 213.557 32.236C213.557 31.4893 213.888 30.92 214.551 30.528C215.223 30.1267 216.282 29.8467 217.729 29.688C217.729 29.3987 217.687 29.1233 217.603 28.862C217.528 28.6007 217.388 28.3907 217.183 28.232C216.987 28.064 216.702 27.98 216.329 27.98C215.937 27.98 215.568 28.0547 215.223 28.204C214.878 28.3533 214.57 28.5213 214.299 28.708L213.851 27.91C214.168 27.7047 214.556 27.5087 215.013 27.322C215.48 27.126 215.984 27.028 216.525 27.028C217.356 27.028 217.958 27.2847 218.331 27.798C218.704 28.302 218.891 28.9787 218.891 29.828V34H217.939L217.841 33.188H217.799C217.482 33.4493 217.132 33.678 216.749 33.874C216.376 34.07 215.974 34.168 215.545 34.168ZM215.881 33.244C216.208 33.244 216.516 33.1647 216.805 33.006C217.094 32.8473 217.402 32.6233 217.729 32.334V30.444C216.6 30.584 215.806 30.794 215.349 31.074C214.901 31.354 214.677 31.7133 214.677 32.152C214.677 32.5347 214.794 32.8147 215.027 32.992C215.26 33.16 215.545 33.244 215.881 33.244ZM221.032 34V27.196H222.18V34H221.032ZM221.62 25.796C221.396 25.796 221.209 25.7307 221.06 25.6C220.92 25.46 220.85 25.2733 220.85 25.04C220.85 24.816 220.92 24.634 221.06 24.494C221.209 24.354 221.396 24.284 221.62 24.284C221.844 24.284 222.026 24.354 222.166 24.494C222.315 24.634 222.39 24.816 222.39 25.04C222.39 25.2733 222.315 25.46 222.166 25.6C222.026 25.7307 221.844 25.796 221.62 25.796ZM225.695 34.168C225.266 34.168 224.953 34.0373 224.757 33.776C224.57 33.5053 224.477 33.1227 224.477 32.628V24.032H225.625V32.712C225.625 32.8893 225.658 33.02 225.723 33.104C225.788 33.1787 225.863 33.216 225.947 33.216C225.984 33.216 226.017 33.216 226.045 33.216C226.082 33.2067 226.134 33.1973 226.199 33.188L226.353 34.056C226.278 34.0933 226.19 34.1213 226.087 34.14C225.984 34.1587 225.854 34.168 225.695 34.168ZM229.823 34.168C229.338 34.168 228.876 34.0793 228.437 33.902C227.999 33.7153 227.616 33.4913 227.289 33.23L227.863 32.46C228.162 32.6933 228.47 32.8893 228.787 33.048C229.105 33.1973 229.464 33.272 229.865 33.272C230.313 33.272 230.649 33.1693 230.873 32.964C231.097 32.7493 231.209 32.4973 231.209 32.208C231.209 31.9747 231.13 31.7787 230.971 31.62C230.822 31.4613 230.626 31.3307 230.383 31.228C230.15 31.116 229.907 31.0133 229.655 30.92C229.338 30.7987 229.025 30.6633 228.717 30.514C228.409 30.3553 228.157 30.1547 227.961 29.912C227.765 29.66 227.667 29.3427 227.667 28.96C227.667 28.4093 227.873 27.952 228.283 27.588C228.703 27.2147 229.282 27.028 230.019 27.028C230.439 27.028 230.831 27.1027 231.195 27.252C231.559 27.4013 231.872 27.5833 232.133 27.798L231.573 28.526C231.34 28.3487 231.097 28.204 230.845 28.092C230.593 27.98 230.318 27.924 230.019 27.924C229.59 27.924 229.273 28.022 229.067 28.218C228.871 28.414 228.773 28.6427 228.773 28.904C228.773 29.1187 228.843 29.296 228.983 29.436C229.123 29.5667 229.305 29.6833 229.529 29.786C229.753 29.8793 229.991 29.9773 230.243 30.08C230.57 30.2013 230.892 30.3413 231.209 30.5C231.527 30.6493 231.788 30.8547 231.993 31.116C232.208 31.368 232.315 31.7087 232.315 32.138C232.315 32.502 232.217 32.838 232.021 33.146C231.835 33.454 231.555 33.7013 231.181 33.888C230.817 34.0747 230.365 34.168 229.823 34.168Z" fill="#7E8295"/>
<circle cx="39.6833" cy="5.84349" r="5.84349" fill="#31EE50"/>
<circle cx="187.843" cy="5.99974" r="5.84349" fill="#7E8295"/>
<circle cx="316.648" cy="5.99974" r="5.84349" fill="#7E8295"/>
</svg>
