<svg width="347" height="38" viewBox="0 0 347 38" fill="none" xmlns="http://www.w3.org/2000/svg">
<rect x="37" y="5" width="151" height="3" fill="#31EE50"/>
<rect x="188" y="5" width="129" height="3" fill="#7E8295"/>
<path d="M1.162 34V24.844H4.256C4.89067 24.844 5.46 24.928 5.964 25.096C6.47733 25.264 6.87867 25.5487 7.168 25.95C7.46667 26.342 7.616 26.8787 7.616 27.56C7.616 28.26 7.448 28.8247 7.112 29.254C6.78533 29.6833 6.34667 29.9913 5.796 30.178L7.98 34H6.16L4.186 30.416H2.786V34H1.162ZM2.786 29.128H4.088C4.71333 29.128 5.18933 28.9973 5.516 28.736C5.852 28.4653 6.02 28.0733 6.02 27.56C6.02 27.0373 5.852 26.6733 5.516 26.468C5.18933 26.2533 4.71333 26.146 4.088 26.146H2.786V29.128ZM12.1104 34.168C11.4758 34.168 10.9018 34.028 10.3884 33.748C9.8751 33.4587 9.4691 33.048 9.17044 32.516C8.87177 31.9747 8.72244 31.326 8.72244 30.57C8.72244 29.8233 8.87177 29.1793 9.17044 28.638C9.47844 28.0967 9.8751 27.6813 10.3604 27.392C10.8458 27.1027 11.3544 26.958 11.8864 26.958C12.5118 26.958 13.0344 27.098 13.4544 27.378C13.8744 27.6487 14.1918 28.0313 14.4064 28.526C14.6211 29.0113 14.7284 29.576 14.7284 30.22C14.7284 30.556 14.7051 30.8173 14.6584 31.004H10.2904C10.3651 31.6107 10.5844 32.082 10.9484 32.418C11.3124 32.754 11.7698 32.922 12.3204 32.922C12.6191 32.922 12.8944 32.88 13.1464 32.796C13.4078 32.7027 13.6644 32.5767 13.9164 32.418L14.4624 33.426C14.1358 33.6407 13.7718 33.818 13.3704 33.958C12.9691 34.098 12.5491 34.168 12.1104 34.168ZM10.2764 29.912H13.3284C13.3284 29.38 13.2118 28.9647 12.9784 28.666C12.7451 28.358 12.3951 28.204 11.9284 28.204C11.5271 28.204 11.1678 28.3533 10.8504 28.652C10.5424 28.9413 10.3511 29.3613 10.2764 29.912ZM16.4915 34V28.4H15.5675V27.196L16.4915 27.126V26.412C16.4915 25.6933 16.6688 25.1053 17.0235 24.648C17.3781 24.1813 17.9615 23.948 18.7735 23.948C19.0161 23.948 19.2495 23.9713 19.4735 24.018C19.6975 24.0647 19.8841 24.1207 20.0335 24.186L19.7255 25.39C19.4735 25.278 19.2215 25.222 18.9695 25.222C18.3908 25.222 18.1015 25.6093 18.1015 26.384V27.126H19.4455V28.4H18.1015V34H16.4915ZM23.4581 34.168C22.8234 34.168 22.2494 34.028 21.7361 33.748C21.2228 33.4587 20.8168 33.048 20.5181 32.516C20.2194 31.9747 20.0701 31.326 20.0701 30.57C20.0701 29.8233 20.2194 29.1793 20.5181 28.638C20.8261 28.0967 21.2228 27.6813 21.7081 27.392C22.1934 27.1027 22.7021 26.958 23.2341 26.958C23.8594 26.958 24.3821 27.098 24.8021 27.378C25.2221 27.6487 25.5394 28.0313 25.7541 28.526C25.9688 29.0113 26.0761 29.576 26.0761 30.22C26.0761 30.556 26.0528 30.8173 26.0061 31.004H21.6381C21.7128 31.6107 21.9321 32.082 22.2961 32.418C22.6601 32.754 23.1174 32.922 23.6681 32.922C23.9668 32.922 24.2421 32.88 24.4941 32.796C24.7554 32.7027 25.0121 32.5767 25.2641 32.418L25.8101 33.426C25.4834 33.6407 25.1194 33.818 24.7181 33.958C24.3168 34.098 23.8968 34.168 23.4581 34.168ZM21.6241 29.912H24.6761C24.6761 29.38 24.5594 28.9647 24.3261 28.666C24.0928 28.358 23.7428 28.204 23.2761 28.204C22.8748 28.204 22.5154 28.3533 22.1981 28.652C21.8901 28.9413 21.6988 29.3613 21.6241 29.912ZM27.6138 34V27.126H28.9438L29.0558 28.344H29.1118C29.3545 27.896 29.6485 27.5553 29.9938 27.322C30.3391 27.0793 30.6938 26.958 31.0578 26.958C31.3845 26.958 31.6458 27.0047 31.8418 27.098L31.5618 28.498C31.4405 28.4607 31.3285 28.4327 31.2258 28.414C31.1231 28.3953 30.9971 28.386 30.8478 28.386C30.5771 28.386 30.2925 28.4933 29.9938 28.708C29.6951 28.9133 29.4385 29.2773 29.2238 29.8V34H27.6138ZM32.8365 34V27.126H34.1665L34.2785 28.344H34.3345C34.5771 27.896 34.8711 27.5553 35.2165 27.322C35.5618 27.0793 35.9165 26.958 36.2805 26.958C36.6071 26.958 36.8685 27.0047 37.0645 27.098L36.7845 28.498C36.6631 28.4607 36.5511 28.4327 36.4485 28.414C36.3458 28.3953 36.2198 28.386 36.0705 28.386C35.7998 28.386 35.5151 28.4933 35.2165 28.708C34.9178 28.9133 34.6611 29.2773 34.4465 29.8V34H32.8365ZM39.356 34.168C38.7586 34.168 38.2686 33.9813 37.886 33.608C37.5126 33.2347 37.326 32.7493 37.326 32.152C37.326 31.4147 37.648 30.8453 38.292 30.444C38.936 30.0333 39.9626 29.7533 41.372 29.604C41.3626 29.24 41.2646 28.9273 41.078 28.666C40.9006 28.3953 40.5786 28.26 40.112 28.26C39.776 28.26 39.4446 28.3253 39.118 28.456C38.8006 28.5867 38.488 28.7453 38.18 28.932L37.592 27.854C37.9746 27.6113 38.404 27.4013 38.88 27.224C39.3653 27.0467 39.8786 26.958 40.42 26.958C41.2786 26.958 41.918 27.2147 42.338 27.728C42.7673 28.232 42.982 28.9647 42.982 29.926V34H41.652L41.54 33.244H41.484C41.176 33.5053 40.8446 33.7247 40.49 33.902C40.1446 34.0793 39.7666 34.168 39.356 34.168ZM39.874 32.908C40.154 32.908 40.406 32.8427 40.63 32.712C40.8633 32.572 41.1106 32.3853 41.372 32.152V30.612C40.4386 30.7333 39.79 30.9153 39.426 31.158C39.062 31.3913 38.88 31.6807 38.88 32.026C38.88 32.334 38.9733 32.558 39.16 32.698C39.3466 32.838 39.5846 32.908 39.874 32.908ZM46.4767 34.168C45.9074 34.168 45.5014 33.9953 45.2587 33.65C45.0254 33.3047 44.9087 32.8333 44.9087 32.236V24.116H46.5187V32.32C46.5187 32.516 46.5561 32.656 46.6307 32.74C46.7054 32.8147 46.7847 32.852 46.8687 32.852C46.9061 32.852 46.9387 32.852 46.9667 32.852C47.0041 32.8427 47.0554 32.8333 47.1207 32.824L47.3307 34.028C47.2374 34.0653 47.1161 34.098 46.9667 34.126C46.8267 34.154 46.6634 34.168 46.4767 34.168ZM51.6522 34V24.844H54.1022C55.5022 24.844 56.5942 25.222 57.3782 25.978C58.1622 26.734 58.5542 27.868 58.5542 29.38C58.5542 30.9013 58.1669 32.054 57.3922 32.838C56.6176 33.6127 55.5489 34 54.1862 34H51.6522ZM53.2762 32.684H53.9902C54.9142 32.684 55.6282 32.418 56.1322 31.886C56.6362 31.3447 56.8882 30.5093 56.8882 29.38C56.8882 28.26 56.6362 27.4433 56.1322 26.93C55.6282 26.4167 54.9142 26.16 53.9902 26.16H53.2762V32.684ZM63.2022 34.168C62.5676 34.168 61.9936 34.028 61.4802 33.748C60.9669 33.4587 60.5609 33.048 60.2622 32.516C59.9636 31.9747 59.8142 31.326 59.8142 30.57C59.8142 29.8233 59.9636 29.1793 60.2622 28.638C60.5702 28.0967 60.9669 27.6813 61.4522 27.392C61.9376 27.1027 62.4462 26.958 62.9782 26.958C63.6036 26.958 64.1262 27.098 64.5462 27.378C64.9662 27.6487 65.2836 28.0313 65.4982 28.526C65.7129 29.0113 65.8202 29.576 65.8202 30.22C65.8202 30.556 65.7969 30.8173 65.7502 31.004H61.3822C61.4569 31.6107 61.6762 32.082 62.0402 32.418C62.4042 32.754 62.8616 32.922 63.4122 32.922C63.7109 32.922 63.9862 32.88 64.2382 32.796C64.4996 32.7027 64.7562 32.5767 65.0082 32.418L65.5542 33.426C65.2276 33.6407 64.8636 33.818 64.4622 33.958C64.0609 34.098 63.6409 34.168 63.2022 34.168ZM61.3682 29.912H64.4202C64.4202 29.38 64.3036 28.9647 64.0702 28.666C63.8369 28.358 63.4869 28.204 63.0202 28.204C62.6189 28.204 62.2596 28.3533 61.9422 28.652C61.6342 28.9413 61.4429 29.3613 61.3682 29.912ZM69.6432 34.168C68.8499 34.168 68.2852 33.9393 67.9492 33.482C67.6226 33.0153 67.4592 32.4133 67.4592 31.676V28.4H66.4792V27.196L67.5432 27.126L67.7392 25.25H69.0832V27.126H70.8332V28.4H69.0832V31.676C69.0832 32.4787 69.4052 32.88 70.0492 32.88C70.1706 32.88 70.2966 32.866 70.4272 32.838C70.5579 32.8007 70.6699 32.7633 70.7632 32.726L71.0432 33.916C70.8566 33.9813 70.6419 34.0373 70.3992 34.084C70.1659 34.14 69.9139 34.168 69.6432 34.168ZM73.645 34.168C73.0477 34.168 72.5577 33.9813 72.175 33.608C71.8017 33.2347 71.615 32.7493 71.615 32.152C71.615 31.4147 71.937 30.8453 72.581 30.444C73.225 30.0333 74.2517 29.7533 75.661 29.604C75.6517 29.24 75.5537 28.9273 75.367 28.666C75.1897 28.3953 74.8677 28.26 74.401 28.26C74.065 28.26 73.7337 28.3253 73.407 28.456C73.0897 28.5867 72.777 28.7453 72.469 28.932L71.881 27.854C72.2637 27.6113 72.693 27.4013 73.169 27.224C73.6544 27.0467 74.1677 26.958 74.709 26.958C75.5677 26.958 76.207 27.2147 76.627 27.728C77.0564 28.232 77.271 28.9647 77.271 29.926V34H75.941L75.829 33.244H75.773C75.465 33.5053 75.1337 33.7247 74.779 33.902C74.4337 34.0793 74.0557 34.168 73.645 34.168ZM74.163 32.908C74.443 32.908 74.695 32.8427 74.919 32.712C75.1524 32.572 75.3997 32.3853 75.661 32.152V30.612C74.7277 30.7333 74.079 30.9153 73.715 31.158C73.351 31.3913 73.169 31.6807 73.169 32.026C73.169 32.334 73.2624 32.558 73.449 32.698C73.6357 32.838 73.8737 32.908 74.163 32.908ZM79.1978 34V27.126H80.8078V34H79.1978ZM80.0098 25.922C79.7204 25.922 79.4871 25.838 79.3098 25.67C79.1324 25.502 79.0438 25.278 79.0438 24.998C79.0438 24.7273 79.1324 24.508 79.3098 24.34C79.4871 24.172 79.7204 24.088 80.0098 24.088C80.2991 24.088 80.5324 24.172 80.7098 24.34C80.8871 24.508 80.9758 24.7273 80.9758 24.998C80.9758 25.278 80.8871 25.502 80.7098 25.67C80.5324 25.838 80.2991 25.922 80.0098 25.922ZM84.4298 34.168C83.8605 34.168 83.4545 33.9953 83.2118 33.65C82.9785 33.3047 82.8618 32.8333 82.8618 32.236V24.116H84.4718V32.32C84.4718 32.516 84.5092 32.656 84.5838 32.74C84.6585 32.8147 84.7378 32.852 84.8218 32.852C84.8592 32.852 84.8918 32.852 84.9198 32.852C84.9572 32.8427 85.0085 32.8333 85.0738 32.824L85.2838 34.028C85.1905 34.0653 85.0692 34.098 84.9198 34.126C84.7798 34.154 84.6165 34.168 84.4298 34.168Z" fill="#002949"/>
<path d="M294.912 34.168C294.146 34.168 293.46 33.9813 292.854 33.608C292.256 33.2253 291.78 32.6793 291.426 31.97C291.08 31.2607 290.908 30.4067 290.908 29.408C290.908 28.4187 291.085 27.5693 291.44 26.86C291.794 26.1507 292.28 25.6047 292.896 25.222C293.512 24.8393 294.207 24.648 294.982 24.648C295.542 24.648 296.036 24.7647 296.466 24.998C296.895 25.222 297.24 25.4833 297.502 25.782L296.872 26.538C296.629 26.2767 296.354 26.0667 296.046 25.908C295.738 25.7493 295.388 25.67 294.996 25.67C294.417 25.67 293.908 25.824 293.47 26.132C293.04 26.4307 292.704 26.8553 292.462 27.406C292.228 27.9567 292.112 28.6147 292.112 29.38C292.112 30.1453 292.228 30.8127 292.462 31.382C292.695 31.942 293.022 32.376 293.442 32.684C293.871 32.992 294.375 33.146 294.954 33.146C295.392 33.146 295.784 33.0527 296.13 32.866C296.475 32.6793 296.792 32.4273 297.082 32.11L297.726 32.838C297.362 33.258 296.951 33.5847 296.494 33.818C296.036 34.0513 295.509 34.168 294.912 34.168ZM301.972 34.168C301.421 34.168 300.903 34.028 300.418 33.748C299.942 33.468 299.554 33.062 299.256 32.53C298.966 31.998 298.822 31.3587 298.822 30.612C298.822 29.8467 298.966 29.198 299.256 28.666C299.554 28.134 299.942 27.728 300.418 27.448C300.903 27.168 301.421 27.028 301.972 27.028C302.532 27.028 303.05 27.168 303.526 27.448C304.002 27.728 304.384 28.134 304.674 28.666C304.972 29.198 305.122 29.8467 305.122 30.612C305.122 31.3587 304.972 31.998 304.674 32.53C304.384 33.062 304.002 33.468 303.526 33.748C303.05 34.028 302.532 34.168 301.972 34.168ZM301.972 33.216C302.56 33.216 303.031 32.978 303.386 32.502C303.75 32.0167 303.932 31.3867 303.932 30.612C303.932 29.828 303.75 29.1933 303.386 28.708C303.031 28.2227 302.56 27.98 301.972 27.98C301.393 27.98 300.922 28.2227 300.558 28.708C300.194 29.1933 300.012 29.828 300.012 30.612C300.012 31.3867 300.194 32.0167 300.558 32.502C300.922 32.978 301.393 33.216 301.972 33.216ZM306.914 34V27.196H307.866L307.964 28.176H308.006C308.304 27.8493 308.631 27.5787 308.986 27.364C309.34 27.14 309.718 27.028 310.12 27.028C310.642 27.028 311.048 27.1447 311.338 27.378C311.636 27.602 311.856 27.9193 311.996 28.33C312.35 27.9473 312.71 27.6347 313.074 27.392C313.438 27.1493 313.825 27.028 314.236 27.028C314.936 27.028 315.454 27.2567 315.79 27.714C316.135 28.162 316.308 28.82 316.308 29.688V34H315.16V29.842C315.16 29.2073 315.057 28.7453 314.852 28.456C314.646 28.1667 314.329 28.022 313.9 28.022C313.396 28.022 312.826 28.372 312.192 29.072V34H311.044V29.842C311.044 29.2073 310.941 28.7453 310.736 28.456C310.53 28.1667 310.208 28.022 309.77 28.022C309.266 28.022 308.696 28.372 308.062 29.072V34H306.914ZM318.521 36.87V27.196H319.473L319.571 27.98H319.613C319.921 27.7187 320.257 27.4947 320.621 27.308C320.994 27.1213 321.382 27.028 321.783 27.028C322.66 27.028 323.328 27.3453 323.785 27.98C324.242 28.6053 324.471 29.4453 324.471 30.5C324.471 31.2653 324.331 31.9233 324.051 32.474C323.78 33.0247 323.421 33.4447 322.973 33.734C322.534 34.0233 322.054 34.168 321.531 34.168C321.214 34.168 320.896 34.098 320.579 33.958C320.271 33.818 319.958 33.6267 319.641 33.384L319.669 34.574V36.87H318.521ZM321.335 33.202C321.895 33.202 322.357 32.964 322.721 32.488C323.094 32.0027 323.281 31.34 323.281 30.5C323.281 29.7533 323.141 29.1513 322.861 28.694C322.59 28.2273 322.133 27.994 321.489 27.994C321.2 27.994 320.906 28.0733 320.607 28.232C320.318 28.3907 320.005 28.6193 319.669 28.918V32.488C319.977 32.7493 320.276 32.936 320.565 33.048C320.854 33.1507 321.111 33.202 321.335 33.202ZM327.505 34.168C327.075 34.168 326.763 34.0373 326.567 33.776C326.38 33.5053 326.287 33.1227 326.287 32.628V24.032H327.435V32.712C327.435 32.8893 327.467 33.02 327.533 33.104C327.598 33.1787 327.673 33.216 327.757 33.216C327.794 33.216 327.827 33.216 327.855 33.216C327.892 33.2067 327.943 33.1973 328.009 33.188L328.163 34.056C328.088 34.0933 327.999 34.1213 327.897 34.14C327.794 34.1587 327.663 34.168 327.505 34.168ZM332.613 34.168C332.006 34.168 331.456 34.028 330.961 33.748C330.466 33.4587 330.074 33.048 329.785 32.516C329.496 31.984 329.351 31.3493 329.351 30.612C329.351 29.8653 329.496 29.226 329.785 28.694C330.084 28.162 330.466 27.7513 330.933 27.462C331.4 27.1727 331.89 27.028 332.403 27.028C333.271 27.028 333.938 27.3173 334.405 27.896C334.881 28.4747 335.119 29.2493 335.119 30.22C335.119 30.3413 335.114 30.4627 335.105 30.584C335.105 30.696 335.096 30.794 335.077 30.878H330.485C330.532 31.5967 330.756 32.1707 331.157 32.6C331.568 33.0293 332.1 33.244 332.753 33.244C333.08 33.244 333.378 33.1973 333.649 33.104C333.929 33.0013 334.195 32.8707 334.447 32.712L334.853 33.468C334.564 33.6547 334.232 33.818 333.859 33.958C333.495 34.098 333.08 34.168 332.613 34.168ZM330.471 30.052H334.111C334.111 29.3613 333.962 28.8387 333.663 28.484C333.374 28.12 332.963 27.938 332.431 27.938C331.955 27.938 331.526 28.1247 331.143 28.498C330.77 28.862 330.546 29.38 330.471 30.052ZM338.806 34.168C338.078 34.168 337.569 33.958 337.28 33.538C337 33.118 336.86 32.572 336.86 31.9V28.134H335.852V27.266L336.916 27.196L337.056 25.292H338.022V27.196H339.856V28.134H338.022V31.914C338.022 32.334 338.096 32.6607 338.246 32.894C338.404 33.118 338.68 33.23 339.072 33.23C339.193 33.23 339.324 33.2113 339.464 33.174C339.604 33.1273 339.73 33.0853 339.842 33.048L340.066 33.916C339.879 33.9813 339.674 34.0373 339.45 34.084C339.235 34.14 339.02 34.168 338.806 34.168ZM343.961 34.168C343.354 34.168 342.803 34.028 342.309 33.748C341.814 33.4587 341.422 33.048 341.133 32.516C340.843 31.984 340.699 31.3493 340.699 30.612C340.699 29.8653 340.843 29.226 341.133 28.694C341.431 28.162 341.814 27.7513 342.281 27.462C342.747 27.1727 343.237 27.028 343.751 27.028C344.619 27.028 345.286 27.3173 345.753 27.896C346.229 28.4747 346.467 29.2493 346.467 30.22C346.467 30.3413 346.462 30.4627 346.453 30.584C346.453 30.696 346.443 30.794 346.425 30.878H341.833C341.879 31.5967 342.103 32.1707 342.505 32.6C342.915 33.0293 343.447 33.244 344.101 33.244C344.427 33.244 344.726 33.1973 344.997 33.104C345.277 33.0013 345.543 32.8707 345.795 32.712L346.201 33.468C345.911 33.6547 345.58 33.818 345.207 33.958C344.843 34.098 344.427 34.168 343.961 34.168ZM341.819 30.052H345.459C345.459 29.3613 345.309 28.8387 345.011 28.484C344.721 28.12 344.311 27.938 343.779 27.938C343.303 27.938 342.873 28.1247 342.491 28.498C342.117 28.862 341.893 29.38 341.819 30.052Z" fill="#7E8295"/>
<path d="M146.179 34.168C145.563 34.168 144.965 34.0513 144.387 33.818C143.817 33.5847 143.313 33.2533 142.875 32.824L143.827 31.718C144.153 32.026 144.527 32.278 144.947 32.474C145.367 32.6607 145.787 32.754 146.207 32.754C146.729 32.754 147.126 32.6467 147.397 32.432C147.667 32.2173 147.803 31.9327 147.803 31.578C147.803 31.1953 147.667 30.92 147.397 30.752C147.135 30.584 146.799 30.4113 146.389 30.234L145.129 29.688C144.83 29.5573 144.536 29.3893 144.247 29.184C143.967 28.9787 143.733 28.7173 143.547 28.4C143.369 28.0827 143.281 27.7 143.281 27.252C143.281 26.7667 143.411 26.3327 143.673 25.95C143.943 25.558 144.307 25.25 144.765 25.026C145.231 24.7927 145.763 24.676 146.361 24.676C146.893 24.676 147.406 24.7833 147.901 24.998C148.395 25.2033 148.82 25.4833 149.175 25.838L148.349 26.874C148.059 26.6313 147.751 26.44 147.425 26.3C147.107 26.16 146.753 26.09 146.361 26.09C145.931 26.09 145.581 26.188 145.311 26.384C145.049 26.5707 144.919 26.832 144.919 27.168C144.919 27.4013 144.984 27.5973 145.115 27.756C145.255 27.9053 145.437 28.036 145.661 28.148C145.885 28.2507 146.123 28.3533 146.375 28.456L147.621 28.974C148.162 29.2073 148.605 29.5153 148.951 29.898C149.296 30.2713 149.469 30.7893 149.469 31.452C149.469 31.9467 149.338 32.3993 149.077 32.81C148.815 33.2207 148.437 33.552 147.943 33.804C147.457 34.0467 146.869 34.168 146.179 34.168ZM150.994 36.716V27.126H152.324L152.436 27.854H152.492C152.781 27.6113 153.103 27.4013 153.458 27.224C153.822 27.0467 154.19 26.958 154.564 26.958C155.422 26.958 156.085 27.2753 156.552 27.91C157.028 28.5447 157.266 29.394 157.266 30.458C157.266 31.242 157.126 31.914 156.846 32.474C156.566 33.0247 156.202 33.4447 155.754 33.734C155.315 34.0233 154.839 34.168 154.326 34.168C154.027 34.168 153.728 34.1027 153.43 33.972C153.131 33.832 152.842 33.6453 152.562 33.412L152.604 34.56V36.716H150.994ZM153.99 32.838C154.447 32.838 154.83 32.6373 155.138 32.236C155.446 31.8347 155.6 31.2467 155.6 30.472C155.6 29.7813 155.483 29.2447 155.25 28.862C155.016 28.4793 154.638 28.288 154.116 28.288C153.63 28.288 153.126 28.5447 152.604 29.058V32.264C152.856 32.4693 153.098 32.6187 153.332 32.712C153.565 32.796 153.784 32.838 153.99 32.838ZM161.836 34.168C161.201 34.168 160.627 34.028 160.114 33.748C159.601 33.4587 159.195 33.048 158.896 32.516C158.597 31.9747 158.448 31.326 158.448 30.57C158.448 29.8233 158.597 29.1793 158.896 28.638C159.204 28.0967 159.601 27.6813 160.086 27.392C160.571 27.1027 161.08 26.958 161.612 26.958C162.237 26.958 162.76 27.098 163.18 27.378C163.6 27.6487 163.917 28.0313 164.132 28.526C164.347 29.0113 164.454 29.576 164.454 30.22C164.454 30.556 164.431 30.8173 164.384 31.004H160.016C160.091 31.6107 160.31 32.082 160.674 32.418C161.038 32.754 161.495 32.922 162.046 32.922C162.345 32.922 162.62 32.88 162.872 32.796C163.133 32.7027 163.39 32.5767 163.642 32.418L164.188 33.426C163.861 33.6407 163.497 33.818 163.096 33.958C162.695 34.098 162.275 34.168 161.836 34.168ZM160.002 29.912H163.054C163.054 29.38 162.937 28.9647 162.704 28.666C162.471 28.358 162.121 28.204 161.654 28.204C161.253 28.204 160.893 28.3533 160.576 28.652C160.268 28.9413 160.077 29.3613 160.002 29.912ZM168.862 34.168C168.236 34.168 167.672 34.028 167.168 33.748C166.673 33.4587 166.276 33.048 165.978 32.516C165.688 31.9747 165.544 31.326 165.544 30.57C165.544 29.8047 165.702 29.156 166.02 28.624C166.337 28.0827 166.757 27.672 167.28 27.392C167.812 27.1027 168.381 26.958 168.988 26.958C169.426 26.958 169.809 27.0327 170.136 27.182C170.462 27.3313 170.752 27.5133 171.004 27.728L170.22 28.778C170.042 28.6193 169.86 28.498 169.674 28.414C169.487 28.3207 169.286 28.274 169.072 28.274C168.521 28.274 168.068 28.484 167.714 28.904C167.368 29.324 167.196 29.8793 167.196 30.57C167.196 31.2513 167.364 31.802 167.7 32.222C168.045 32.642 168.488 32.852 169.03 32.852C169.3 32.852 169.552 32.796 169.786 32.684C170.028 32.5627 170.248 32.4227 170.444 32.264L171.102 33.328C170.784 33.608 170.43 33.818 170.038 33.958C169.646 34.098 169.254 34.168 168.862 34.168ZM172.459 34V27.126H174.069V34H172.459ZM173.271 25.922C172.981 25.922 172.748 25.838 172.571 25.67C172.393 25.502 172.305 25.278 172.305 24.998C172.305 24.7273 172.393 24.508 172.571 24.34C172.748 24.172 172.981 24.088 173.271 24.088C173.56 24.088 173.793 24.172 173.971 24.34C174.148 24.508 174.237 24.7273 174.237 24.998C174.237 25.278 174.148 25.502 173.971 25.67C173.793 25.838 173.56 25.922 173.271 25.922ZM176.403 34V28.4H175.479V27.196L176.403 27.126V26.412C176.403 25.6933 176.58 25.1053 176.935 24.648C177.289 24.1813 177.873 23.948 178.685 23.948C178.927 23.948 179.161 23.9713 179.385 24.018C179.609 24.0647 179.795 24.1207 179.945 24.186L179.637 25.39C179.385 25.278 179.133 25.222 178.881 25.222C178.302 25.222 178.013 25.6093 178.013 26.384V27.126H179.357V28.4H178.013V34H176.403ZM180.566 34V27.126H182.176V34H180.566ZM181.378 25.922C181.089 25.922 180.855 25.838 180.678 25.67C180.501 25.502 180.412 25.278 180.412 24.998C180.412 24.7273 180.501 24.508 180.678 24.34C180.855 24.172 181.089 24.088 181.378 24.088C181.667 24.088 181.901 24.172 182.078 24.34C182.255 24.508 182.344 24.7273 182.344 24.998C182.344 25.278 182.255 25.502 182.078 25.67C181.901 25.838 181.667 25.922 181.378 25.922ZM187.1 34.168C186.475 34.168 185.91 34.028 185.406 33.748C184.911 33.4587 184.515 33.048 184.216 32.516C183.927 31.9747 183.782 31.326 183.782 30.57C183.782 29.8047 183.941 29.156 184.258 28.624C184.575 28.0827 184.995 27.672 185.518 27.392C186.05 27.1027 186.619 26.958 187.226 26.958C187.665 26.958 188.047 27.0327 188.374 27.182C188.701 27.3313 188.99 27.5133 189.242 27.728L188.458 28.778C188.281 28.6193 188.099 28.498 187.912 28.414C187.725 28.3207 187.525 28.274 187.31 28.274C186.759 28.274 186.307 28.484 185.952 28.904C185.607 29.324 185.434 29.8793 185.434 30.57C185.434 31.2513 185.602 31.802 185.938 32.222C186.283 32.642 186.727 32.852 187.268 32.852C187.539 32.852 187.791 32.796 188.024 32.684C188.267 32.5627 188.486 32.4227 188.682 32.264L189.34 33.328C189.023 33.608 188.668 33.818 188.276 33.958C187.884 34.098 187.492 34.168 187.1 34.168ZM193.64 34V24.844H196.09C197.49 24.844 198.582 25.222 199.366 25.978C200.15 26.734 200.542 27.868 200.542 29.38C200.542 30.9013 200.154 32.054 199.38 32.838C198.605 33.6127 197.536 34 196.174 34H193.64ZM195.264 32.684H195.978C196.902 32.684 197.616 32.418 198.12 31.886C198.624 31.3447 198.876 30.5093 198.876 29.38C198.876 28.26 198.624 27.4433 198.12 26.93C197.616 26.4167 196.902 26.16 195.978 26.16H195.264V32.684ZM205.19 34.168C204.555 34.168 203.981 34.028 203.468 33.748C202.954 33.4587 202.548 33.048 202.25 32.516C201.951 31.9747 201.802 31.326 201.802 30.57C201.802 29.8233 201.951 29.1793 202.25 28.638C202.558 28.0967 202.954 27.6813 203.44 27.392C203.925 27.1027 204.434 26.958 204.966 26.958C205.591 26.958 206.114 27.098 206.534 27.378C206.954 27.6487 207.271 28.0313 207.486 28.526C207.7 29.0113 207.808 29.576 207.808 30.22C207.808 30.556 207.784 30.8173 207.738 31.004H203.37C203.444 31.6107 203.664 32.082 204.028 32.418C204.392 32.754 204.849 32.922 205.4 32.922C205.698 32.922 205.974 32.88 206.226 32.796C206.487 32.7027 206.744 32.5767 206.996 32.418L207.542 33.426C207.215 33.6407 206.851 33.818 206.45 33.958C206.048 34.098 205.628 34.168 205.19 34.168ZM203.356 29.912H206.408C206.408 29.38 206.291 28.9647 206.058 28.666C205.824 28.358 205.474 28.204 205.008 28.204C204.606 28.204 204.247 28.3533 203.93 28.652C203.622 28.9413 203.43 29.3613 203.356 29.912ZM211.631 34.168C210.837 34.168 210.273 33.9393 209.937 33.482C209.61 33.0153 209.447 32.4133 209.447 31.676V28.4H208.467V27.196L209.531 27.126L209.727 25.25H211.071V27.126H212.821V28.4H211.071V31.676C211.071 32.4787 211.393 32.88 212.037 32.88C212.158 32.88 212.284 32.866 212.415 32.838C212.545 32.8007 212.657 32.7633 212.751 32.726L213.031 33.916C212.844 33.9813 212.629 34.0373 212.387 34.084C212.153 34.14 211.901 34.168 211.631 34.168ZM215.632 34.168C215.035 34.168 214.545 33.9813 214.162 33.608C213.789 33.2347 213.602 32.7493 213.602 32.152C213.602 31.4147 213.924 30.8453 214.568 30.444C215.212 30.0333 216.239 29.7533 217.648 29.604C217.639 29.24 217.541 28.9273 217.354 28.666C217.177 28.3953 216.855 28.26 216.388 28.26C216.052 28.26 215.721 28.3253 215.394 28.456C215.077 28.5867 214.764 28.7453 214.456 28.932L213.868 27.854C214.251 27.6113 214.68 27.4013 215.156 27.224C215.642 27.0467 216.155 26.958 216.696 26.958C217.555 26.958 218.194 27.2147 218.614 27.728C219.044 28.232 219.258 28.9647 219.258 29.926V34H217.928L217.816 33.244H217.76C217.452 33.5053 217.121 33.7247 216.766 33.902C216.421 34.0793 216.043 34.168 215.632 34.168ZM216.15 32.908C216.43 32.908 216.682 32.8427 216.906 32.712C217.14 32.572 217.387 32.3853 217.648 32.152V30.612C216.715 30.7333 216.066 30.9153 215.702 31.158C215.338 31.3913 215.156 31.6807 215.156 32.026C215.156 32.334 215.25 32.558 215.436 32.698C215.623 32.838 215.861 32.908 216.15 32.908ZM221.185 34V27.126H222.795V34H221.185ZM221.997 25.922C221.708 25.922 221.474 25.838 221.297 25.67C221.12 25.502 221.031 25.278 221.031 24.998C221.031 24.7273 221.12 24.508 221.297 24.34C221.474 24.172 221.708 24.088 221.997 24.088C222.286 24.088 222.52 24.172 222.697 24.34C222.874 24.508 222.963 24.7273 222.963 24.998C222.963 25.278 222.874 25.502 222.697 25.67C222.52 25.838 222.286 25.922 221.997 25.922ZM226.417 34.168C225.848 34.168 225.442 33.9953 225.199 33.65C224.966 33.3047 224.849 32.8333 224.849 32.236V24.116H226.459V32.32C226.459 32.516 226.496 32.656 226.571 32.74C226.646 32.8147 226.725 32.852 226.809 32.852C226.846 32.852 226.879 32.852 226.907 32.852C226.944 32.8427 226.996 32.8333 227.061 32.824L227.271 34.028C227.178 34.0653 227.056 34.098 226.907 34.126C226.767 34.154 226.604 34.168 226.417 34.168ZM230.568 34.168C230.101 34.168 229.635 34.0793 229.168 33.902C228.701 33.7153 228.3 33.4867 227.964 33.216L228.72 32.18C229.028 32.4133 229.336 32.6 229.644 32.74C229.952 32.88 230.279 32.95 230.624 32.95C230.997 32.95 231.273 32.8707 231.45 32.712C231.627 32.5533 231.716 32.3573 231.716 32.124C231.716 31.928 231.641 31.7693 231.492 31.648C231.352 31.5173 231.17 31.4053 230.946 31.312C230.722 31.2093 230.489 31.1113 230.246 31.018C229.947 30.906 229.649 30.7707 229.35 30.612C229.061 30.444 228.823 30.234 228.636 29.982C228.449 29.7207 228.356 29.3987 228.356 29.016C228.356 28.4093 228.58 27.9147 229.028 27.532C229.476 27.1493 230.083 26.958 230.848 26.958C231.333 26.958 231.767 27.042 232.15 27.21C232.533 27.378 232.864 27.5693 233.144 27.784L232.402 28.764C232.159 28.5867 231.912 28.4467 231.66 28.344C231.417 28.232 231.161 28.176 230.89 28.176C230.545 28.176 230.288 28.2507 230.12 28.4C229.952 28.54 229.868 28.7173 229.868 28.932C229.868 29.2027 230.008 29.408 230.288 29.548C230.568 29.688 230.895 29.8233 231.268 29.954C231.585 30.066 231.893 30.206 232.192 30.374C232.491 30.5327 232.738 30.7427 232.934 31.004C233.139 31.2653 233.242 31.6107 233.242 32.04C233.242 32.628 233.013 33.132 232.556 33.552C232.099 33.9627 231.436 34.168 230.568 34.168Z" fill="#002949"/>
<circle cx="39.6833" cy="5.84349" r="5.84349" fill="#31EE50"/>
<circle cx="187.843" cy="5.99974" r="5.84349" fill="#31EE50"/>
<circle cx="316.648" cy="5.99974" r="5.84349" fill="#7E8295"/>
</svg>
