<svg width="347" height="38" viewBox="0 0 347 38" fill="none" xmlns="http://www.w3.org/2000/svg">
<rect x="37" y="5" width="276" height="3" fill="#31EE50"/>
<path d="M1.162 34V24.844H4.256C4.89067 24.844 5.46 24.928 5.964 25.096C6.47733 25.264 6.87867 25.5487 7.168 25.95C7.46667 26.342 7.616 26.8787 7.616 27.56C7.616 28.26 7.448 28.8247 7.112 29.254C6.78533 29.6833 6.34667 29.9913 5.796 30.178L7.98 34H6.16L4.186 30.416H2.786V34H1.162ZM2.786 29.128H4.088C4.71333 29.128 5.18933 28.9973 5.516 28.736C5.852 28.4653 6.02 28.0733 6.02 27.56C6.02 27.0373 5.852 26.6733 5.516 26.468C5.18933 26.2533 4.71333 26.146 4.088 26.146H2.786V29.128ZM12.1104 34.168C11.4758 34.168 10.9018 34.028 10.3884 33.748C9.8751 33.4587 9.4691 33.048 9.17044 32.516C8.87177 31.9747 8.72244 31.326 8.72244 30.57C8.72244 29.8233 8.87177 29.1793 9.17044 28.638C9.47844 28.0967 9.8751 27.6813 10.3604 27.392C10.8458 27.1027 11.3544 26.958 11.8864 26.958C12.5118 26.958 13.0344 27.098 13.4544 27.378C13.8744 27.6487 14.1918 28.0313 14.4064 28.526C14.6211 29.0113 14.7284 29.576 14.7284 30.22C14.7284 30.556 14.7051 30.8173 14.6584 31.004H10.2904C10.3651 31.6107 10.5844 32.082 10.9484 32.418C11.3124 32.754 11.7698 32.922 12.3204 32.922C12.6191 32.922 12.8944 32.88 13.1464 32.796C13.4078 32.7027 13.6644 32.5767 13.9164 32.418L14.4624 33.426C14.1358 33.6407 13.7718 33.818 13.3704 33.958C12.9691 34.098 12.5491 34.168 12.1104 34.168ZM10.2764 29.912H13.3284C13.3284 29.38 13.2118 28.9647 12.9784 28.666C12.7451 28.358 12.3951 28.204 11.9284 28.204C11.5271 28.204 11.1678 28.3533 10.8504 28.652C10.5424 28.9413 10.3511 29.3613 10.2764 29.912ZM16.4915 34V28.4H15.5675V27.196L16.4915 27.126V26.412C16.4915 25.6933 16.6688 25.1053 17.0235 24.648C17.3781 24.1813 17.9615 23.948 18.7735 23.948C19.0161 23.948 19.2495 23.9713 19.4735 24.018C19.6975 24.0647 19.8841 24.1207 20.0335 24.186L19.7255 25.39C19.4735 25.278 19.2215 25.222 18.9695 25.222C18.3908 25.222 18.1015 25.6093 18.1015 26.384V27.126H19.4455V28.4H18.1015V34H16.4915ZM23.4581 34.168C22.8234 34.168 22.2494 34.028 21.7361 33.748C21.2228 33.4587 20.8168 33.048 20.5181 32.516C20.2194 31.9747 20.0701 31.326 20.0701 30.57C20.0701 29.8233 20.2194 29.1793 20.5181 28.638C20.8261 28.0967 21.2228 27.6813 21.7081 27.392C22.1934 27.1027 22.7021 26.958 23.2341 26.958C23.8594 26.958 24.3821 27.098 24.8021 27.378C25.2221 27.6487 25.5394 28.0313 25.7541 28.526C25.9688 29.0113 26.0761 29.576 26.0761 30.22C26.0761 30.556 26.0528 30.8173 26.0061 31.004H21.6381C21.7128 31.6107 21.9321 32.082 22.2961 32.418C22.6601 32.754 23.1174 32.922 23.6681 32.922C23.9668 32.922 24.2421 32.88 24.4941 32.796C24.7554 32.7027 25.0121 32.5767 25.2641 32.418L25.8101 33.426C25.4834 33.6407 25.1194 33.818 24.7181 33.958C24.3168 34.098 23.8968 34.168 23.4581 34.168ZM21.6241 29.912H24.6761C24.6761 29.38 24.5594 28.9647 24.3261 28.666C24.0928 28.358 23.7428 28.204 23.2761 28.204C22.8748 28.204 22.5154 28.3533 22.1981 28.652C21.8901 28.9413 21.6988 29.3613 21.6241 29.912ZM27.6138 34V27.126H28.9438L29.0558 28.344H29.1118C29.3545 27.896 29.6485 27.5553 29.9938 27.322C30.3391 27.0793 30.6938 26.958 31.0578 26.958C31.3845 26.958 31.6458 27.0047 31.8418 27.098L31.5618 28.498C31.4405 28.4607 31.3285 28.4327 31.2258 28.414C31.1231 28.3953 30.9971 28.386 30.8478 28.386C30.5771 28.386 30.2925 28.4933 29.9938 28.708C29.6951 28.9133 29.4385 29.2773 29.2238 29.8V34H27.6138ZM34.1333 34.168C33.536 34.168 33.046 33.9813 32.6633 33.608C32.29 33.2347 32.1033 32.7493 32.1033 32.152C32.1033 31.4147 32.4253 30.8453 33.0693 30.444C33.7133 30.0333 34.74 29.7533 36.1493 29.604C36.14 29.24 36.042 28.9273 35.8553 28.666C35.678 28.3953 35.356 28.26 34.8893 28.26C34.5533 28.26 34.222 28.3253 33.8953 28.456C33.578 28.5867 33.2653 28.7453 32.9573 28.932L32.3693 27.854C32.752 27.6113 33.1813 27.4013 33.6573 27.224C34.1426 27.0467 34.656 26.958 35.1973 26.958C36.056 26.958 36.6953 27.2147 37.1153 27.728C37.5446 28.232 37.7593 28.9647 37.7593 29.926V34H36.4293L36.3173 33.244H36.2613C35.9533 33.5053 35.622 33.7247 35.2673 33.902C34.922 34.0793 34.544 34.168 34.1333 34.168ZM34.6513 32.908C34.9313 32.908 35.1833 32.8427 35.4073 32.712C35.6406 32.572 35.888 32.3853 36.1493 32.152V30.612C35.216 30.7333 34.5673 30.9153 34.2033 31.158C33.8393 31.3913 33.6573 31.6807 33.6573 32.026C33.6573 32.334 33.7506 32.558 33.9373 32.698C34.124 32.838 34.362 32.908 34.6513 32.908ZM41.2541 34.168C40.6847 34.168 40.2787 33.9953 40.0361 33.65C39.8027 33.3047 39.6861 32.8333 39.6861 32.236V24.116H41.2961V32.32C41.2961 32.516 41.3334 32.656 41.4081 32.74C41.4827 32.8147 41.5621 32.852 41.6461 32.852C41.6834 32.852 41.7161 32.852 41.7441 32.852C41.7814 32.8427 41.8327 32.8333 41.8981 32.824L42.1081 34.028C42.0147 34.0653 41.8934 34.098 41.7441 34.126C41.6041 34.154 41.4407 34.168 41.2541 34.168ZM46.4296 34V24.844H48.8796C50.2796 24.844 51.3716 25.222 52.1556 25.978C52.9396 26.734 53.3316 27.868 53.3316 29.38C53.3316 30.9013 52.9442 32.054 52.1696 32.838C51.3949 33.6127 50.3262 34 48.9636 34H46.4296ZM48.0536 32.684H48.7676C49.6916 32.684 50.4056 32.418 50.9096 31.886C51.4136 31.3447 51.6656 30.5093 51.6656 29.38C51.6656 28.26 51.4136 27.4433 50.9096 26.93C50.4056 26.4167 49.6916 26.16 48.7676 26.16H48.0536V32.684ZM57.9796 34.168C57.3449 34.168 56.7709 34.028 56.2576 33.748C55.7442 33.4587 55.3382 33.048 55.0396 32.516C54.7409 31.9747 54.5916 31.326 54.5916 30.57C54.5916 29.8233 54.7409 29.1793 55.0396 28.638C55.3476 28.0967 55.7442 27.6813 56.2296 27.392C56.7149 27.1027 57.2236 26.958 57.7556 26.958C58.3809 26.958 58.9036 27.098 59.3236 27.378C59.7436 27.6487 60.0609 28.0313 60.2756 28.526C60.4902 29.0113 60.5976 29.576 60.5976 30.22C60.5976 30.556 60.5742 30.8173 60.5276 31.004H56.1596C56.2342 31.6107 56.4536 32.082 56.8176 32.418C57.1816 32.754 57.6389 32.922 58.1896 32.922C58.4882 32.922 58.7636 32.88 59.0156 32.796C59.2769 32.7027 59.5336 32.5767 59.7856 32.418L60.3316 33.426C60.0049 33.6407 59.6409 33.818 59.2396 33.958C58.8382 34.098 58.4182 34.168 57.9796 34.168ZM56.1456 29.912H59.1976C59.1976 29.38 59.0809 28.9647 58.8476 28.666C58.6142 28.358 58.2642 28.204 57.7976 28.204C57.3962 28.204 57.0369 28.3533 56.7196 28.652C56.4116 28.9413 56.2202 29.3613 56.1456 29.912ZM64.4206 34.168C63.6272 34.168 63.0626 33.9393 62.7266 33.482C62.3999 33.0153 62.2366 32.4133 62.2366 31.676V28.4H61.2566V27.196L62.3206 27.126L62.5166 25.25H63.8606V27.126H65.6106V28.4H63.8606V31.676C63.8606 32.4787 64.1826 32.88 64.8266 32.88C64.9479 32.88 65.0739 32.866 65.2046 32.838C65.3352 32.8007 65.4472 32.7633 65.5406 32.726L65.8206 33.916C65.6339 33.9813 65.4192 34.0373 65.1766 34.084C64.9432 34.14 64.6912 34.168 64.4206 34.168ZM68.4224 34.168C67.825 34.168 67.335 33.9813 66.9524 33.608C66.579 33.2347 66.3924 32.7493 66.3924 32.152C66.3924 31.4147 66.7144 30.8453 67.3584 30.444C68.0024 30.0333 69.029 29.7533 70.4384 29.604C70.429 29.24 70.331 28.9273 70.1444 28.666C69.967 28.3953 69.645 28.26 69.1784 28.26C68.8424 28.26 68.511 28.3253 68.1844 28.456C67.867 28.5867 67.5544 28.7453 67.2464 28.932L66.6584 27.854C67.041 27.6113 67.4704 27.4013 67.9464 27.224C68.4317 27.0467 68.945 26.958 69.4864 26.958C70.345 26.958 70.9844 27.2147 71.4044 27.728C71.8337 28.232 72.0484 28.9647 72.0484 29.926V34H70.7184L70.6064 33.244H70.5504C70.2424 33.5053 69.911 33.7247 69.5564 33.902C69.211 34.0793 68.833 34.168 68.4224 34.168ZM68.9404 32.908C69.2204 32.908 69.4724 32.8427 69.6964 32.712C69.9297 32.572 70.177 32.3853 70.4384 32.152V30.612C69.505 30.7333 68.8564 30.9153 68.4924 31.158C68.1284 31.3913 67.9464 31.6807 67.9464 32.026C67.9464 32.334 68.0397 32.558 68.2264 32.698C68.413 32.838 68.651 32.908 68.9404 32.908ZM73.9751 34V27.126H75.5851V34H73.9751ZM74.7871 25.922C74.4978 25.922 74.2645 25.838 74.0871 25.67C73.9098 25.502 73.8211 25.278 73.8211 24.998C73.8211 24.7273 73.9098 24.508 74.0871 24.34C74.2645 24.172 74.4978 24.088 74.7871 24.088C75.0765 24.088 75.3098 24.172 75.4871 24.34C75.6645 24.508 75.7531 24.7273 75.7531 24.998C75.7531 25.278 75.6645 25.502 75.4871 25.67C75.3098 25.838 75.0765 25.922 74.7871 25.922ZM79.2072 34.168C78.6379 34.168 78.2319 33.9953 77.9892 33.65C77.7559 33.3047 77.6392 32.8333 77.6392 32.236V24.116H79.2492V32.32C79.2492 32.516 79.2865 32.656 79.3612 32.74C79.4359 32.8147 79.5152 32.852 79.5992 32.852C79.6365 32.852 79.6692 32.852 79.6972 32.852C79.7345 32.8427 79.7859 32.8333 79.8512 32.824L80.0612 34.028C79.9679 34.0653 79.8465 34.098 79.6972 34.126C79.5572 34.154 79.3939 34.168 79.2072 34.168Z" fill="#002949"/>
<path d="M293.67 34.168C292.904 34.168 292.209 33.986 291.584 33.622C290.958 33.258 290.459 32.726 290.086 32.026C289.722 31.3167 289.54 30.458 289.54 29.45C289.54 28.4513 289.726 27.5973 290.1 26.888C290.482 26.1693 290.991 25.6233 291.626 25.25C292.26 24.8673 292.96 24.676 293.726 24.676C294.304 24.676 294.818 24.7927 295.266 25.026C295.714 25.2593 296.082 25.53 296.372 25.838L295.504 26.888C295.27 26.6453 295.009 26.454 294.72 26.314C294.44 26.1647 294.122 26.09 293.768 26.09C293.273 26.09 292.83 26.2253 292.438 26.496C292.055 26.7573 291.752 27.1353 291.528 27.63C291.313 28.1247 291.206 28.7173 291.206 29.408C291.206 30.4533 291.434 31.2747 291.892 31.872C292.349 32.46 292.96 32.754 293.726 32.754C294.136 32.754 294.5 32.67 294.818 32.502C295.135 32.3247 295.424 32.096 295.686 31.816L296.554 32.838C296.18 33.2673 295.751 33.5987 295.266 33.832C294.79 34.056 294.258 34.168 293.67 34.168ZM300.756 34.168C300.187 34.168 299.655 34.028 299.16 33.748C298.665 33.4587 298.264 33.048 297.956 32.516C297.648 31.9747 297.494 31.326 297.494 30.57C297.494 29.8047 297.648 29.156 297.956 28.624C298.264 28.0827 298.665 27.672 299.16 27.392C299.655 27.1027 300.187 26.958 300.756 26.958C301.335 26.958 301.871 27.1027 302.366 27.392C302.861 27.672 303.262 28.0827 303.57 28.624C303.878 29.156 304.032 29.8047 304.032 30.57C304.032 31.326 303.878 31.9747 303.57 32.516C303.262 33.048 302.861 33.4587 302.366 33.748C301.871 34.028 301.335 34.168 300.756 34.168ZM300.756 32.852C301.26 32.852 301.657 32.642 301.946 32.222C302.235 31.802 302.38 31.2513 302.38 30.57C302.38 29.8793 302.235 29.324 301.946 28.904C301.657 28.484 301.26 28.274 300.756 28.274C300.252 28.274 299.855 28.484 299.566 28.904C299.286 29.324 299.146 29.8793 299.146 30.57C299.146 31.2513 299.286 31.802 299.566 32.222C299.855 32.642 300.252 32.852 300.756 32.852ZM305.626 34V27.126H306.956L307.068 28.064H307.124C307.413 27.756 307.726 27.4947 308.062 27.28C308.407 27.0653 308.794 26.958 309.224 26.958C309.728 26.958 310.129 27.07 310.428 27.294C310.736 27.5087 310.969 27.8073 311.128 28.19C311.454 27.8353 311.795 27.5413 312.15 27.308C312.514 27.0747 312.91 26.958 313.34 26.958C314.068 26.958 314.604 27.196 314.95 27.672C315.295 28.148 315.468 28.82 315.468 29.688V34H313.844V29.898C313.844 29.3287 313.755 28.9273 313.578 28.694C313.41 28.4607 313.148 28.344 312.794 28.344C312.364 28.344 311.884 28.6287 311.352 29.198V34H309.742V29.898C309.742 29.3287 309.653 28.9273 309.476 28.694C309.308 28.4607 309.042 28.344 308.678 28.344C308.248 28.344 307.768 28.6287 307.236 29.198V34H305.626ZM317.424 36.716V27.126H318.754L318.866 27.854H318.922C319.212 27.6113 319.534 27.4013 319.888 27.224C320.252 27.0467 320.621 26.958 320.994 26.958C321.853 26.958 322.516 27.2753 322.982 27.91C323.458 28.5447 323.696 29.394 323.696 30.458C323.696 31.242 323.556 31.914 323.276 32.474C322.996 33.0247 322.632 33.4447 322.184 33.734C321.746 34.0233 321.27 34.168 320.756 34.168C320.458 34.168 320.159 34.1027 319.86 33.972C319.562 33.832 319.272 33.6453 318.992 33.412L319.034 34.56V36.716H317.424ZM320.42 32.838C320.878 32.838 321.26 32.6373 321.568 32.236C321.876 31.8347 322.03 31.2467 322.03 30.472C322.03 29.7813 321.914 29.2447 321.68 28.862C321.447 28.4793 321.069 28.288 320.546 28.288C320.061 28.288 319.557 28.5447 319.034 29.058V32.264C319.286 32.4693 319.529 32.6187 319.762 32.712C319.996 32.796 320.215 32.838 320.42 32.838ZM326.895 34.168C326.325 34.168 325.919 33.9953 325.677 33.65C325.443 33.3047 325.327 32.8333 325.327 32.236V24.116H326.937V32.32C326.937 32.516 326.974 32.656 327.049 32.74C327.123 32.8147 327.203 32.852 327.287 32.852C327.324 32.852 327.357 32.852 327.385 32.852C327.422 32.8427 327.473 32.8333 327.539 32.824L327.749 34.028C327.655 34.0653 327.534 34.098 327.385 34.126C327.245 34.154 327.081 34.168 326.895 34.168ZM332.067 34.168C331.433 34.168 330.859 34.028 330.345 33.748C329.832 33.4587 329.426 33.048 329.127 32.516C328.829 31.9747 328.679 31.326 328.679 30.57C328.679 29.8233 328.829 29.1793 329.127 28.638C329.435 28.0967 329.832 27.6813 330.317 27.392C330.803 27.1027 331.311 26.958 331.843 26.958C332.469 26.958 332.991 27.098 333.411 27.378C333.831 27.6487 334.149 28.0313 334.363 28.526C334.578 29.0113 334.685 29.576 334.685 30.22C334.685 30.556 334.662 30.8173 334.615 31.004H330.247C330.322 31.6107 330.541 32.082 330.905 32.418C331.269 32.754 331.727 32.922 332.277 32.922C332.576 32.922 332.851 32.88 333.103 32.796C333.365 32.7027 333.621 32.5767 333.873 32.418L334.419 33.426C334.093 33.6407 333.729 33.818 333.327 33.958C332.926 34.098 332.506 34.168 332.067 34.168ZM330.233 29.912H333.285C333.285 29.38 333.169 28.9647 332.935 28.666C332.702 28.358 332.352 28.204 331.885 28.204C331.484 28.204 331.125 28.3533 330.807 28.652C330.499 28.9413 330.308 29.3613 330.233 29.912ZM338.508 34.168C337.715 34.168 337.15 33.9393 336.814 33.482C336.488 33.0153 336.324 32.4133 336.324 31.676V28.4H335.344V27.196L336.408 27.126L336.604 25.25H337.948V27.126H339.698V28.4H337.948V31.676C337.948 32.4787 338.27 32.88 338.914 32.88C339.036 32.88 339.162 32.866 339.292 32.838C339.423 32.8007 339.535 32.7633 339.628 32.726L339.908 33.916C339.722 33.9813 339.507 34.0373 339.264 34.084C339.031 34.14 338.779 34.168 338.508 34.168ZM343.866 34.168C343.232 34.168 342.658 34.028 342.144 33.748C341.631 33.4587 341.225 33.048 340.926 32.516C340.628 31.9747 340.478 31.326 340.478 30.57C340.478 29.8233 340.628 29.1793 340.926 28.638C341.234 28.0967 341.631 27.6813 342.116 27.392C342.602 27.1027 343.11 26.958 343.642 26.958C344.268 26.958 344.79 27.098 345.21 27.378C345.63 27.6487 345.948 28.0313 346.162 28.526C346.377 29.0113 346.484 29.576 346.484 30.22C346.484 30.556 346.461 30.8173 346.414 31.004H342.046C342.121 31.6107 342.34 32.082 342.704 32.418C343.068 32.754 343.526 32.922 344.076 32.922C344.375 32.922 344.65 32.88 344.902 32.796C345.164 32.7027 345.42 32.5767 345.672 32.418L346.218 33.426C345.892 33.6407 345.528 33.818 345.126 33.958C344.725 34.098 344.305 34.168 343.866 34.168ZM342.032 29.912H345.084C345.084 29.38 344.968 28.9647 344.734 28.666C344.501 28.358 344.151 28.204 343.684 28.204C343.283 28.204 342.924 28.3533 342.606 28.652C342.298 28.9413 342.107 29.3613 342.032 29.912Z" fill="#002949"/>
<path d="M142.179 34.168C141.563 34.168 140.965 34.0513 140.387 33.818C139.817 33.5847 139.313 33.2533 138.875 32.824L139.827 31.718C140.153 32.026 140.527 32.278 140.947 32.474C141.367 32.6607 141.787 32.754 142.207 32.754C142.729 32.754 143.126 32.6467 143.397 32.432C143.667 32.2173 143.803 31.9327 143.803 31.578C143.803 31.1953 143.667 30.92 143.397 30.752C143.135 30.584 142.799 30.4113 142.389 30.234L141.129 29.688C140.83 29.5573 140.536 29.3893 140.247 29.184C139.967 28.9787 139.733 28.7173 139.547 28.4C139.369 28.0827 139.281 27.7 139.281 27.252C139.281 26.7667 139.411 26.3327 139.673 25.95C139.943 25.558 140.307 25.25 140.765 25.026C141.231 24.7927 141.763 24.676 142.361 24.676C142.893 24.676 143.406 24.7833 143.901 24.998C144.395 25.2033 144.82 25.4833 145.175 25.838L144.349 26.874C144.059 26.6313 143.751 26.44 143.425 26.3C143.107 26.16 142.753 26.09 142.361 26.09C141.931 26.09 141.581 26.188 141.311 26.384C141.049 26.5707 140.919 26.832 140.919 27.168C140.919 27.4013 140.984 27.5973 141.115 27.756C141.255 27.9053 141.437 28.036 141.661 28.148C141.885 28.2507 142.123 28.3533 142.375 28.456L143.621 28.974C144.162 29.2073 144.605 29.5153 144.951 29.898C145.296 30.2713 145.469 30.7893 145.469 31.452C145.469 31.9467 145.338 32.3993 145.077 32.81C144.815 33.2207 144.437 33.552 143.943 33.804C143.457 34.0467 142.869 34.168 142.179 34.168ZM146.994 36.716V27.126H148.324L148.436 27.854H148.492C148.781 27.6113 149.103 27.4013 149.458 27.224C149.822 27.0467 150.19 26.958 150.564 26.958C151.422 26.958 152.085 27.2753 152.552 27.91C153.028 28.5447 153.266 29.394 153.266 30.458C153.266 31.242 153.126 31.914 152.846 32.474C152.566 33.0247 152.202 33.4447 151.754 33.734C151.315 34.0233 150.839 34.168 150.326 34.168C150.027 34.168 149.728 34.1027 149.43 33.972C149.131 33.832 148.842 33.6453 148.562 33.412L148.604 34.56V36.716H146.994ZM149.99 32.838C150.447 32.838 150.83 32.6373 151.138 32.236C151.446 31.8347 151.6 31.2467 151.6 30.472C151.6 29.7813 151.483 29.2447 151.25 28.862C151.016 28.4793 150.638 28.288 150.116 28.288C149.63 28.288 149.126 28.5447 148.604 29.058V32.264C148.856 32.4693 149.098 32.6187 149.332 32.712C149.565 32.796 149.784 32.838 149.99 32.838ZM157.836 34.168C157.201 34.168 156.627 34.028 156.114 33.748C155.601 33.4587 155.195 33.048 154.896 32.516C154.597 31.9747 154.448 31.326 154.448 30.57C154.448 29.8233 154.597 29.1793 154.896 28.638C155.204 28.0967 155.601 27.6813 156.086 27.392C156.571 27.1027 157.08 26.958 157.612 26.958C158.237 26.958 158.76 27.098 159.18 27.378C159.6 27.6487 159.917 28.0313 160.132 28.526C160.347 29.0113 160.454 29.576 160.454 30.22C160.454 30.556 160.431 30.8173 160.384 31.004H156.016C156.091 31.6107 156.31 32.082 156.674 32.418C157.038 32.754 157.495 32.922 158.046 32.922C158.345 32.922 158.62 32.88 158.872 32.796C159.133 32.7027 159.39 32.5767 159.642 32.418L160.188 33.426C159.861 33.6407 159.497 33.818 159.096 33.958C158.695 34.098 158.275 34.168 157.836 34.168ZM156.002 29.912H159.054C159.054 29.38 158.937 28.9647 158.704 28.666C158.471 28.358 158.121 28.204 157.654 28.204C157.253 28.204 156.893 28.3533 156.576 28.652C156.268 28.9413 156.077 29.3613 156.002 29.912ZM164.862 34.168C164.236 34.168 163.672 34.028 163.168 33.748C162.673 33.4587 162.276 33.048 161.978 32.516C161.688 31.9747 161.544 31.326 161.544 30.57C161.544 29.8047 161.702 29.156 162.02 28.624C162.337 28.0827 162.757 27.672 163.28 27.392C163.812 27.1027 164.381 26.958 164.988 26.958C165.426 26.958 165.809 27.0327 166.136 27.182C166.462 27.3313 166.752 27.5133 167.004 27.728L166.22 28.778C166.042 28.6193 165.86 28.498 165.674 28.414C165.487 28.3207 165.286 28.274 165.072 28.274C164.521 28.274 164.068 28.484 163.714 28.904C163.368 29.324 163.196 29.8793 163.196 30.57C163.196 31.2513 163.364 31.802 163.7 32.222C164.045 32.642 164.488 32.852 165.03 32.852C165.3 32.852 165.552 32.796 165.786 32.684C166.028 32.5627 166.248 32.4227 166.444 32.264L167.102 33.328C166.784 33.608 166.43 33.818 166.038 33.958C165.646 34.098 165.254 34.168 164.862 34.168ZM168.459 34V27.126H170.069V34H168.459ZM169.271 25.922C168.981 25.922 168.748 25.838 168.571 25.67C168.393 25.502 168.305 25.278 168.305 24.998C168.305 24.7273 168.393 24.508 168.571 24.34C168.748 24.172 168.981 24.088 169.271 24.088C169.56 24.088 169.793 24.172 169.971 24.34C170.148 24.508 170.237 24.7273 170.237 24.998C170.237 25.278 170.148 25.502 169.971 25.67C169.793 25.838 169.56 25.922 169.271 25.922ZM172.403 34V28.4H171.479V27.196L172.403 27.126V26.412C172.403 25.6933 172.58 25.1053 172.935 24.648C173.289 24.1813 173.873 23.948 174.685 23.948C174.927 23.948 175.161 23.9713 175.385 24.018C175.609 24.0647 175.795 24.1207 175.945 24.186L175.637 25.39C175.385 25.278 175.133 25.222 174.881 25.222C174.302 25.222 174.013 25.6093 174.013 26.384V27.126H175.357V28.4H174.013V34H172.403ZM176.566 34V27.126H178.176V34H176.566ZM177.378 25.922C177.089 25.922 176.855 25.838 176.678 25.67C176.501 25.502 176.412 25.278 176.412 24.998C176.412 24.7273 176.501 24.508 176.678 24.34C176.855 24.172 177.089 24.088 177.378 24.088C177.667 24.088 177.901 24.172 178.078 24.34C178.255 24.508 178.344 24.7273 178.344 24.998C178.344 25.278 178.255 25.502 178.078 25.67C177.901 25.838 177.667 25.922 177.378 25.922ZM183.1 34.168C182.475 34.168 181.91 34.028 181.406 33.748C180.911 33.4587 180.515 33.048 180.216 32.516C179.927 31.9747 179.782 31.326 179.782 30.57C179.782 29.8047 179.941 29.156 180.258 28.624C180.575 28.0827 180.995 27.672 181.518 27.392C182.05 27.1027 182.619 26.958 183.226 26.958C183.665 26.958 184.047 27.0327 184.374 27.182C184.701 27.3313 184.99 27.5133 185.242 27.728L184.458 28.778C184.281 28.6193 184.099 28.498 183.912 28.414C183.725 28.3207 183.525 28.274 183.31 28.274C182.759 28.274 182.307 28.484 181.952 28.904C181.607 29.324 181.434 29.8793 181.434 30.57C181.434 31.2513 181.602 31.802 181.938 32.222C182.283 32.642 182.727 32.852 183.268 32.852C183.539 32.852 183.791 32.796 184.024 32.684C184.267 32.5627 184.486 32.4227 184.682 32.264L185.34 33.328C185.023 33.608 184.668 33.818 184.276 33.958C183.884 34.098 183.492 34.168 183.1 34.168ZM189.64 34V24.844H192.09C193.49 24.844 194.582 25.222 195.366 25.978C196.15 26.734 196.542 27.868 196.542 29.38C196.542 30.9013 196.154 32.054 195.38 32.838C194.605 33.6127 193.536 34 192.174 34H189.64ZM191.264 32.684H191.978C192.902 32.684 193.616 32.418 194.12 31.886C194.624 31.3447 194.876 30.5093 194.876 29.38C194.876 28.26 194.624 27.4433 194.12 26.93C193.616 26.4167 192.902 26.16 191.978 26.16H191.264V32.684ZM201.19 34.168C200.555 34.168 199.981 34.028 199.468 33.748C198.954 33.4587 198.548 33.048 198.25 32.516C197.951 31.9747 197.802 31.326 197.802 30.57C197.802 29.8233 197.951 29.1793 198.25 28.638C198.558 28.0967 198.954 27.6813 199.44 27.392C199.925 27.1027 200.434 26.958 200.966 26.958C201.591 26.958 202.114 27.098 202.534 27.378C202.954 27.6487 203.271 28.0313 203.486 28.526C203.7 29.0113 203.808 29.576 203.808 30.22C203.808 30.556 203.784 30.8173 203.738 31.004H199.37C199.444 31.6107 199.664 32.082 200.028 32.418C200.392 32.754 200.849 32.922 201.4 32.922C201.698 32.922 201.974 32.88 202.226 32.796C202.487 32.7027 202.744 32.5767 202.996 32.418L203.542 33.426C203.215 33.6407 202.851 33.818 202.45 33.958C202.048 34.098 201.628 34.168 201.19 34.168ZM199.356 29.912H202.408C202.408 29.38 202.291 28.9647 202.058 28.666C201.824 28.358 201.474 28.204 201.008 28.204C200.606 28.204 200.247 28.3533 199.93 28.652C199.622 28.9413 199.43 29.3613 199.356 29.912ZM207.631 34.168C206.837 34.168 206.273 33.9393 205.937 33.482C205.61 33.0153 205.447 32.4133 205.447 31.676V28.4H204.467V27.196L205.531 27.126L205.727 25.25H207.071V27.126H208.821V28.4H207.071V31.676C207.071 32.4787 207.393 32.88 208.037 32.88C208.158 32.88 208.284 32.866 208.415 32.838C208.545 32.8007 208.657 32.7633 208.751 32.726L209.031 33.916C208.844 33.9813 208.629 34.0373 208.387 34.084C208.153 34.14 207.901 34.168 207.631 34.168ZM211.632 34.168C211.035 34.168 210.545 33.9813 210.162 33.608C209.789 33.2347 209.602 32.7493 209.602 32.152C209.602 31.4147 209.924 30.8453 210.568 30.444C211.212 30.0333 212.239 29.7533 213.648 29.604C213.639 29.24 213.541 28.9273 213.354 28.666C213.177 28.3953 212.855 28.26 212.388 28.26C212.052 28.26 211.721 28.3253 211.394 28.456C211.077 28.5867 210.764 28.7453 210.456 28.932L209.868 27.854C210.251 27.6113 210.68 27.4013 211.156 27.224C211.642 27.0467 212.155 26.958 212.696 26.958C213.555 26.958 214.194 27.2147 214.614 27.728C215.044 28.232 215.258 28.9647 215.258 29.926V34H213.928L213.816 33.244H213.76C213.452 33.5053 213.121 33.7247 212.766 33.902C212.421 34.0793 212.043 34.168 211.632 34.168ZM212.15 32.908C212.43 32.908 212.682 32.8427 212.906 32.712C213.14 32.572 213.387 32.3853 213.648 32.152V30.612C212.715 30.7333 212.066 30.9153 211.702 31.158C211.338 31.3913 211.156 31.6807 211.156 32.026C211.156 32.334 211.25 32.558 211.436 32.698C211.623 32.838 211.861 32.908 212.15 32.908ZM217.185 34V27.126H218.795V34H217.185ZM217.997 25.922C217.708 25.922 217.474 25.838 217.297 25.67C217.12 25.502 217.031 25.278 217.031 24.998C217.031 24.7273 217.12 24.508 217.297 24.34C217.474 24.172 217.708 24.088 217.997 24.088C218.286 24.088 218.52 24.172 218.697 24.34C218.874 24.508 218.963 24.7273 218.963 24.998C218.963 25.278 218.874 25.502 218.697 25.67C218.52 25.838 218.286 25.922 217.997 25.922ZM222.417 34.168C221.848 34.168 221.442 33.9953 221.199 33.65C220.966 33.3047 220.849 32.8333 220.849 32.236V24.116H222.459V32.32C222.459 32.516 222.496 32.656 222.571 32.74C222.646 32.8147 222.725 32.852 222.809 32.852C222.846 32.852 222.879 32.852 222.907 32.852C222.944 32.8427 222.996 32.8333 223.061 32.824L223.271 34.028C223.178 34.0653 223.056 34.098 222.907 34.126C222.767 34.154 222.604 34.168 222.417 34.168ZM226.568 34.168C226.101 34.168 225.635 34.0793 225.168 33.902C224.701 33.7153 224.3 33.4867 223.964 33.216L224.72 32.18C225.028 32.4133 225.336 32.6 225.644 32.74C225.952 32.88 226.279 32.95 226.624 32.95C226.997 32.95 227.273 32.8707 227.45 32.712C227.627 32.5533 227.716 32.3573 227.716 32.124C227.716 31.928 227.641 31.7693 227.492 31.648C227.352 31.5173 227.17 31.4053 226.946 31.312C226.722 31.2093 226.489 31.1113 226.246 31.018C225.947 30.906 225.649 30.7707 225.35 30.612C225.061 30.444 224.823 30.234 224.636 29.982C224.449 29.7207 224.356 29.3987 224.356 29.016C224.356 28.4093 224.58 27.9147 225.028 27.532C225.476 27.1493 226.083 26.958 226.848 26.958C227.333 26.958 227.767 27.042 228.15 27.21C228.533 27.378 228.864 27.5693 229.144 27.784L228.402 28.764C228.159 28.5867 227.912 28.4467 227.66 28.344C227.417 28.232 227.161 28.176 226.89 28.176C226.545 28.176 226.288 28.2507 226.12 28.4C225.952 28.54 225.868 28.7173 225.868 28.932C225.868 29.2027 226.008 29.408 226.288 29.548C226.568 29.688 226.895 29.8233 227.268 29.954C227.585 30.066 227.893 30.206 228.192 30.374C228.491 30.5327 228.738 30.7427 228.934 31.004C229.139 31.2653 229.242 31.6107 229.242 32.04C229.242 32.628 229.013 33.132 228.556 33.552C228.099 33.9627 227.436 34.168 226.568 34.168Z" fill="#002949"/>
<circle cx="39.6833" cy="5.84349" r="5.84349" fill="#31EE50"/>
<circle cx="183.843" cy="5.99974" r="5.84349" fill="#31EE50"/>
<circle cx="316.648" cy="5.99974" r="5.84349" fill="#31EE50"/>
</svg>
