<svg width="361" height="35" viewBox="0 0 361 35" fill="none" xmlns="http://www.w3.org/2000/svg">
<path d="M234 5H336V8H234V5Z" fill="#7E8295"/>
<rect x="136" y="5" width="99" height="3" fill="#31EE50"/>
<rect x="43" y="5" width="93" height="3" fill="#31EE50"/>
<path d="M3.413 31.144C2.885 31.144 2.373 31.044 1.877 30.844C1.389 30.644 0.957 30.36 0.581 29.992L1.397 29.044C1.677 29.308 1.997 29.524 2.357 29.692C2.717 29.852 3.077 29.932 3.437 29.932C3.885 29.932 4.225 29.84 4.457 29.656C4.689 29.472 4.805 29.228 4.805 28.924C4.805 28.596 4.689 28.36 4.457 28.216C4.233 28.072 3.945 27.924 3.593 27.772L2.513 27.304C2.257 27.192 2.005 27.048 1.757 26.872C1.517 26.696 1.317 26.472 1.157 26.2C1.005 25.928 0.929 25.6 0.929 25.216C0.929 24.8 1.041 24.428 1.265 24.1C1.497 23.764 1.809 23.5 2.201 23.308C2.601 23.108 3.057 23.008 3.569 23.008C4.025 23.008 4.465 23.1 4.889 23.284C5.313 23.46 5.677 23.7 5.981 24.004L5.273 24.892C5.025 24.684 4.761 24.52 4.481 24.4C4.209 24.28 3.905 24.22 3.569 24.22C3.201 24.22 2.901 24.304 2.669 24.472C2.445 24.632 2.333 24.856 2.333 25.144C2.333 25.344 2.389 25.512 2.501 25.648C2.621 25.776 2.777 25.888 2.969 25.984C3.161 26.072 3.365 26.16 3.581 26.248L4.649 26.692C5.113 26.892 5.493 27.156 5.789 27.484C6.085 27.804 6.233 28.248 6.233 28.816C6.233 29.24 6.121 29.628 5.897 29.98C5.673 30.332 5.349 30.616 4.925 30.832C4.509 31.04 4.005 31.144 3.413 31.144ZM10.0001 31.144C9.46406 31.144 8.98006 31.024 8.54806 30.784C8.12406 30.536 7.78406 30.184 7.52806 29.728C7.28006 29.264 7.15606 28.708 7.15606 28.06C7.15606 27.404 7.29206 26.848 7.56406 26.392C7.83606 25.928 8.19606 25.576 8.64406 25.336C9.10006 25.088 9.58806 24.964 10.1081 24.964C10.4841 24.964 10.8121 25.028 11.0921 25.156C11.3721 25.284 11.6201 25.44 11.8361 25.624L11.1641 26.524C11.0121 26.388 10.8561 26.284 10.6961 26.212C10.5361 26.132 10.3641 26.092 10.1801 26.092C9.70806 26.092 9.32006 26.272 9.01606 26.632C8.72006 26.992 8.57206 27.468 8.57206 28.06C8.57206 28.644 8.71606 29.116 9.00406 29.476C9.30006 29.836 9.68006 30.016 10.1441 30.016C10.3761 30.016 10.5921 29.968 10.7921 29.872C11.0001 29.768 11.1881 29.648 11.3561 29.512L11.9201 30.424C11.6481 30.664 11.3441 30.844 11.0081 30.964C10.6721 31.084 10.3361 31.144 10.0001 31.144ZM13.083 31V22.528H14.463V24.712L14.415 25.852C14.663 25.62 14.939 25.416 15.243 25.24C15.547 25.056 15.899 24.964 16.299 24.964C16.931 24.964 17.391 25.168 17.679 25.576C17.967 25.984 18.111 26.56 18.111 27.304V31H16.731V27.484C16.731 26.996 16.659 26.652 16.515 26.452C16.371 26.252 16.135 26.152 15.807 26.152C15.551 26.152 15.323 26.216 15.123 26.344C14.931 26.464 14.711 26.644 14.463 26.884V31H13.083ZM22.2944 31.144C21.7504 31.144 21.2584 31.024 20.8184 30.784C20.3784 30.536 20.0304 30.184 19.7744 29.728C19.5184 29.264 19.3904 28.708 19.3904 28.06C19.3904 27.42 19.5184 26.868 19.7744 26.404C20.0384 25.94 20.3784 25.584 20.7944 25.336C21.2104 25.088 21.6464 24.964 22.1024 24.964C22.6384 24.964 23.0864 25.084 23.4464 25.324C23.8064 25.556 24.0784 25.884 24.2624 26.308C24.4464 26.724 24.5384 27.208 24.5384 27.76C24.5384 28.048 24.5184 28.272 24.4784 28.432H20.7344C20.7984 28.952 20.9864 29.356 21.2984 29.644C21.6104 29.932 22.0024 30.076 22.4744 30.076C22.7304 30.076 22.9664 30.04 23.1824 29.968C23.4064 29.888 23.6264 29.78 23.8424 29.644L24.3104 30.508C24.0304 30.692 23.7184 30.844 23.3744 30.964C23.0304 31.084 22.6704 31.144 22.2944 31.144ZM20.7224 27.496H23.3384C23.3384 27.04 23.2384 26.684 23.0384 26.428C22.8384 26.164 22.5384 26.032 22.1384 26.032C21.7944 26.032 21.4864 26.16 21.2144 26.416C20.9504 26.664 20.7864 27.024 20.7224 27.496ZM25.8565 31V25.108H26.9965L27.0925 25.912H27.1405C27.3885 25.648 27.6565 25.424 27.9445 25.24C28.2405 25.056 28.5725 24.964 28.9405 24.964C29.3725 24.964 29.7165 25.06 29.9725 25.252C30.2365 25.436 30.4365 25.692 30.5725 26.02C30.8525 25.716 31.1445 25.464 31.4485 25.264C31.7605 25.064 32.1005 24.964 32.4685 24.964C33.0925 24.964 33.5525 25.168 33.8485 25.576C34.1445 25.984 34.2925 26.56 34.2925 27.304V31H32.9005V27.484C32.9005 26.996 32.8245 26.652 32.6725 26.452C32.5285 26.252 32.3045 26.152 32.0005 26.152C31.6325 26.152 31.2205 26.396 30.7645 26.884V31H29.3845V27.484C29.3845 26.996 29.3085 26.652 29.1565 26.452C29.0125 26.252 28.7845 26.152 28.4725 26.152C28.1045 26.152 27.6925 26.396 27.2365 26.884V31H25.8565ZM38.4898 31.144C37.9458 31.144 37.4538 31.024 37.0138 30.784C36.5738 30.536 36.2258 30.184 35.9698 29.728C35.7138 29.264 35.5858 28.708 35.5858 28.06C35.5858 27.42 35.7138 26.868 35.9698 26.404C36.2338 25.94 36.5738 25.584 36.9898 25.336C37.4058 25.088 37.8418 24.964 38.2978 24.964C38.8338 24.964 39.2818 25.084 39.6418 25.324C40.0018 25.556 40.2738 25.884 40.4578 26.308C40.6418 26.724 40.7338 27.208 40.7338 27.76C40.7338 28.048 40.7138 28.272 40.6738 28.432H36.9298C36.9938 28.952 37.1818 29.356 37.4938 29.644C37.8058 29.932 38.1978 30.076 38.6698 30.076C38.9258 30.076 39.1618 30.04 39.3778 29.968C39.6018 29.888 39.8218 29.78 40.0378 29.644L40.5058 30.508C40.2258 30.692 39.9138 30.844 39.5698 30.964C39.2258 31.084 38.8658 31.144 38.4898 31.144ZM36.9178 27.496H39.5338C39.5338 27.04 39.4338 26.684 39.2338 26.428C39.0338 26.164 38.7338 26.032 38.3338 26.032C37.9898 26.032 37.6818 26.16 37.4098 26.416C37.1458 26.664 36.9818 27.024 36.9178 27.496ZM44.5741 31V23.152H46.6741C47.8741 23.152 48.8101 23.476 49.4821 24.124C50.1541 24.772 50.4901 25.744 50.4901 27.04C50.4901 28.344 50.1581 29.332 49.4941 30.004C48.8301 30.668 47.9141 31 46.7461 31H44.5741ZM45.9661 29.872H46.5781C47.3701 29.872 47.9821 29.644 48.4141 29.188C48.8461 28.724 49.0621 28.008 49.0621 27.04C49.0621 26.08 48.8461 25.38 48.4141 24.94C47.9821 24.5 47.3701 24.28 46.5781 24.28H45.9661V29.872ZM54.4741 31.144C53.9301 31.144 53.4381 31.024 52.9981 30.784C52.5581 30.536 52.2101 30.184 51.9541 29.728C51.6981 29.264 51.5701 28.708 51.5701 28.06C51.5701 27.42 51.6981 26.868 51.9541 26.404C52.2181 25.94 52.5581 25.584 52.9741 25.336C53.3901 25.088 53.8261 24.964 54.2821 24.964C54.8181 24.964 55.2661 25.084 55.6261 25.324C55.9861 25.556 56.2581 25.884 56.4421 26.308C56.6261 26.724 56.7181 27.208 56.7181 27.76C56.7181 28.048 56.6981 28.272 56.6581 28.432H52.9141C52.9781 28.952 53.1661 29.356 53.4781 29.644C53.7901 29.932 54.1821 30.076 54.6541 30.076C54.9101 30.076 55.1461 30.04 55.3621 29.968C55.5861 29.888 55.8061 29.78 56.0221 29.644L56.4901 30.508C56.2101 30.692 55.8981 30.844 55.5541 30.964C55.2101 31.084 54.8501 31.144 54.4741 31.144ZM52.9021 27.496H55.5181C55.5181 27.04 55.4181 26.684 55.2181 26.428C55.0181 26.164 54.7181 26.032 54.3181 26.032C53.9741 26.032 53.6661 26.16 53.3941 26.416C53.1301 26.664 52.9661 27.024 52.9021 27.496ZM59.995 31.144C59.315 31.144 58.831 30.948 58.543 30.556C58.263 30.156 58.123 29.64 58.123 29.008V26.2H57.283V25.168L58.195 25.108L58.363 23.5H59.515V25.108H61.015V26.2H59.515V29.008C59.515 29.696 59.791 30.04 60.343 30.04C60.447 30.04 60.555 30.028 60.667 30.004C60.779 29.972 60.875 29.94 60.955 29.908L61.195 30.928C61.035 30.984 60.851 31.032 60.643 31.072C60.443 31.12 60.227 31.144 59.995 31.144ZM63.4251 31.144C62.9131 31.144 62.4931 30.984 62.1651 30.664C61.8451 30.344 61.6851 29.928 61.6851 29.416C61.6851 28.784 61.9611 28.296 62.5131 27.952C63.0651 27.6 63.9451 27.36 65.1531 27.232C65.1451 26.92 65.0611 26.652 64.9011 26.428C64.7491 26.196 64.4731 26.08 64.0731 26.08C63.7851 26.08 63.5011 26.136 63.2211 26.248C62.9491 26.36 62.6811 26.496 62.4171 26.656L61.9131 25.732C62.2411 25.524 62.6091 25.344 63.0171 25.192C63.4331 25.04 63.8731 24.964 64.3371 24.964C65.0731 24.964 65.6211 25.184 65.9811 25.624C66.3491 26.056 66.5331 26.684 66.5331 27.508V31H65.3931L65.2971 30.352H65.2491C64.9851 30.576 64.7011 30.764 64.3971 30.916C64.1011 31.068 63.7771 31.144 63.4251 31.144ZM63.8691 30.064C64.1091 30.064 64.3251 30.008 64.5171 29.896C64.7171 29.776 64.9291 29.616 65.1531 29.416V28.096C64.3531 28.2 63.7971 28.356 63.4851 28.564C63.1731 28.764 63.0171 29.012 63.0171 29.308C63.0171 29.572 63.0971 29.764 63.2571 29.884C63.4171 30.004 63.6211 30.064 63.8691 30.064ZM68.1846 31V25.108H69.5646V31H68.1846ZM68.8806 24.076C68.6326 24.076 68.4326 24.004 68.2806 23.86C68.1286 23.716 68.0526 23.524 68.0526 23.284C68.0526 23.052 68.1286 22.864 68.2806 22.72C68.4326 22.576 68.6326 22.504 68.8806 22.504C69.1286 22.504 69.3286 22.576 69.4806 22.72C69.6326 22.864 69.7086 23.052 69.7086 23.284C69.7086 23.524 69.6326 23.716 69.4806 23.86C69.3286 24.004 69.1286 24.076 68.8806 24.076ZM72.6692 31.144C72.1812 31.144 71.8332 30.996 71.6252 30.7C71.4252 30.404 71.3252 30 71.3252 29.488V22.528H72.7052V29.56C72.7052 29.728 72.7372 29.848 72.8012 29.92C72.8652 29.984 72.9332 30.016 73.0052 30.016C73.0372 30.016 73.0652 30.016 73.0892 30.016C73.1212 30.008 73.1652 30 73.2212 29.992L73.4012 31.024C73.3212 31.056 73.2172 31.084 73.0892 31.108C72.9692 31.132 72.8292 31.144 72.6692 31.144ZM76.227 31.144C75.827 31.144 75.427 31.068 75.027 30.916C74.627 30.756 74.283 30.56 73.995 30.328L74.643 29.44C74.907 29.64 75.171 29.8 75.435 29.92C75.699 30.04 75.979 30.1 76.275 30.1C76.595 30.1 76.831 30.032 76.983 29.896C77.135 29.76 77.211 29.592 77.211 29.392C77.211 29.224 77.147 29.088 77.019 28.984C76.899 28.872 76.743 28.776 76.551 28.696C76.359 28.608 76.159 28.524 75.951 28.444C75.695 28.348 75.439 28.232 75.183 28.096C74.935 27.952 74.731 27.772 74.571 27.556C74.411 27.332 74.331 27.056 74.331 26.728C74.331 26.208 74.523 25.784 74.907 25.456C75.291 25.128 75.811 24.964 76.467 24.964C76.883 24.964 77.255 25.036 77.583 25.18C77.911 25.324 78.195 25.488 78.435 25.672L77.799 26.512C77.591 26.36 77.379 26.24 77.163 26.152C76.955 26.056 76.735 26.008 76.503 26.008C76.207 26.008 75.987 26.072 75.843 26.2C75.699 26.32 75.627 26.472 75.627 26.656C75.627 26.888 75.747 27.064 75.987 27.184C76.227 27.304 76.507 27.42 76.827 27.532C77.099 27.628 77.363 27.748 77.619 27.892C77.875 28.028 78.087 28.208 78.255 28.432C78.431 28.656 78.519 28.952 78.519 29.32C78.519 29.824 78.323 30.256 77.931 30.616C77.539 30.968 76.971 31.144 76.227 31.144Z" fill="#002949"/>
<circle cx="37.8435" cy="5.84349" r="5.84349" fill="#31EE50"/>
<path d="M118.049 26.824L117.773 27.784H119.777L119.501 26.824C119.373 26.408 119.249 25.98 119.129 25.54C119.017 25.1 118.905 24.664 118.793 24.232H118.745C118.641 24.672 118.529 25.112 118.409 25.552C118.297 25.984 118.177 26.408 118.049 26.824ZM115.421 31L117.977 23.152H119.609L122.165 31H120.701L120.089 28.876H117.449L116.837 31H115.421ZM123.013 31V25.108H124.153L124.249 25.912H124.297C124.545 25.648 124.813 25.424 125.101 25.24C125.397 25.056 125.729 24.964 126.097 24.964C126.529 24.964 126.873 25.06 127.129 25.252C127.393 25.436 127.593 25.692 127.729 26.02C128.009 25.716 128.301 25.464 128.605 25.264C128.917 25.064 129.257 24.964 129.625 24.964C130.249 24.964 130.709 25.168 131.005 25.576C131.301 25.984 131.449 26.56 131.449 27.304V31H130.057V27.484C130.057 26.996 129.981 26.652 129.829 26.452C129.685 26.252 129.461 26.152 129.157 26.152C128.789 26.152 128.377 26.396 127.921 26.884V31H126.541V27.484C126.541 26.996 126.465 26.652 126.313 26.452C126.169 26.252 125.941 26.152 125.629 26.152C125.261 26.152 124.849 26.396 124.393 26.884V31H123.013ZM135.538 31.144C135.05 31.144 134.594 31.024 134.17 30.784C133.746 30.536 133.402 30.184 133.138 29.728C132.874 29.264 132.742 28.708 132.742 28.06C132.742 27.404 132.874 26.848 133.138 26.392C133.402 25.928 133.746 25.576 134.17 25.336C134.594 25.088 135.05 24.964 135.538 24.964C136.034 24.964 136.494 25.088 136.918 25.336C137.342 25.576 137.686 25.928 137.95 26.392C138.214 26.848 138.346 27.404 138.346 28.06C138.346 28.708 138.214 29.264 137.95 29.728C137.686 30.184 137.342 30.536 136.918 30.784C136.494 31.024 136.034 31.144 135.538 31.144ZM135.538 30.016C135.97 30.016 136.31 29.836 136.558 29.476C136.806 29.116 136.93 28.644 136.93 28.06C136.93 27.468 136.806 26.992 136.558 26.632C136.31 26.272 135.97 26.092 135.538 26.092C135.106 26.092 134.766 26.272 134.518 26.632C134.278 26.992 134.158 27.468 134.158 28.06C134.158 28.644 134.278 29.116 134.518 29.476C134.766 29.836 135.106 30.016 135.538 30.016ZM141.464 31.144C140.832 31.144 140.372 30.94 140.084 30.532C139.796 30.124 139.652 29.548 139.652 28.804V25.108H141.032V28.624C141.032 29.112 141.104 29.456 141.248 29.656C141.392 29.856 141.624 29.956 141.944 29.956C142.2 29.956 142.424 29.892 142.616 29.764C142.816 29.636 143.028 29.428 143.252 29.14V25.108H144.632V31H143.504L143.396 30.136H143.36C143.104 30.44 142.824 30.684 142.52 30.868C142.216 31.052 141.864 31.144 141.464 31.144ZM146.38 31V25.108H147.52L147.616 25.9H147.664C147.928 25.644 148.216 25.424 148.528 25.24C148.84 25.056 149.196 24.964 149.596 24.964C150.228 24.964 150.688 25.168 150.976 25.576C151.264 25.984 151.408 26.56 151.408 27.304V31H150.028V27.484C150.028 26.996 149.956 26.652 149.812 26.452C149.668 26.252 149.432 26.152 149.104 26.152C148.848 26.152 148.62 26.216 148.42 26.344C148.228 26.464 148.008 26.644 147.76 26.884V31H146.38ZM155.171 31.144C154.491 31.144 154.007 30.948 153.719 30.556C153.439 30.156 153.299 29.64 153.299 29.008V26.2H152.459V25.168L153.371 25.108L153.539 23.5H154.691V25.108H156.191V26.2H154.691V29.008C154.691 29.696 154.967 30.04 155.519 30.04C155.623 30.04 155.731 30.028 155.843 30.004C155.955 29.972 156.051 29.94 156.131 29.908L156.371 30.928C156.211 30.984 156.027 31.032 155.819 31.072C155.619 31.12 155.403 31.144 155.171 31.144Z" fill="#002949"/>
<circle cx="135.843" cy="5.84349" r="5.84349" fill="#31EE50"/>
<path d="M204.362 30.8442C203.706 30.8442 203.11 30.6882 202.574 30.3762C202.038 30.0642 201.61 29.6082 201.29 29.0082C200.978 28.4002 200.822 27.6642 200.822 26.8002C200.822 25.9442 200.982 25.2122 201.302 24.6042C201.63 23.9882 202.066 23.5202 202.61 23.2002C203.154 22.8722 203.754 22.7082 204.41 22.7082C204.906 22.7082 205.346 22.8082 205.73 23.0082C206.114 23.2082 206.43 23.4402 206.678 23.7042L205.934 24.6042C205.734 24.3962 205.51 24.2322 205.262 24.1122C205.022 23.9842 204.75 23.9202 204.446 23.9202C204.022 23.9202 203.642 24.0362 203.306 24.2682C202.978 24.4922 202.718 24.8162 202.526 25.2402C202.342 25.6642 202.25 26.1722 202.25 26.7642C202.25 27.6602 202.446 28.3642 202.838 28.8762C203.23 29.3802 203.754 29.6322 204.41 29.6322C204.762 29.6322 205.074 29.5602 205.346 29.4162C205.618 29.2642 205.866 29.0682 206.09 28.8282L206.834 29.7042C206.514 30.0722 206.146 30.3562 205.73 30.5562C205.322 30.7482 204.866 30.8442 204.362 30.8442ZM210.436 30.8442C209.948 30.8442 209.492 30.7242 209.068 30.4842C208.644 30.2362 208.3 29.8842 208.036 29.4282C207.772 28.9642 207.64 28.4082 207.64 27.7602C207.64 27.1042 207.772 26.5482 208.036 26.0922C208.3 25.6282 208.644 25.2762 209.068 25.0362C209.492 24.7882 209.948 24.6642 210.436 24.6642C210.932 24.6642 211.392 24.7882 211.816 25.0362C212.24 25.2762 212.584 25.6282 212.848 26.0922C213.112 26.5482 213.244 27.1042 213.244 27.7602C213.244 28.4082 213.112 28.9642 212.848 29.4282C212.584 29.8842 212.24 30.2362 211.816 30.4842C211.392 30.7242 210.932 30.8442 210.436 30.8442ZM210.436 29.7162C210.868 29.7162 211.208 29.5362 211.456 29.1762C211.704 28.8162 211.828 28.3442 211.828 27.7602C211.828 27.1682 211.704 26.6922 211.456 26.3322C211.208 25.9722 210.868 25.7922 210.436 25.7922C210.004 25.7922 209.664 25.9722 209.416 26.3322C209.176 26.6922 209.056 27.1682 209.056 27.7602C209.056 28.3442 209.176 28.8162 209.416 29.1762C209.664 29.5362 210.004 29.7162 210.436 29.7162ZM214.61 30.7002V24.8082H215.75L215.846 25.6002H215.894C216.158 25.3442 216.446 25.1242 216.758 24.9402C217.07 24.7562 217.426 24.6642 217.826 24.6642C218.458 24.6642 218.918 24.8682 219.206 25.2762C219.494 25.6842 219.638 26.2602 219.638 27.0042V30.7002H218.258V27.1842C218.258 26.6962 218.186 26.3522 218.042 26.1522C217.898 25.9522 217.662 25.8522 217.334 25.8522C217.078 25.8522 216.85 25.9162 216.65 26.0442C216.458 26.1642 216.238 26.3442 215.99 26.5842V30.7002H214.61ZM221.565 30.7002V25.9002H220.773V24.8682L221.565 24.8082V24.1962C221.565 23.5802 221.717 23.0762 222.021 22.6842C222.325 22.2842 222.825 22.0842 223.521 22.0842C223.729 22.0842 223.929 22.1042 224.121 22.1442C224.313 22.1842 224.473 22.2322 224.601 22.2882L224.337 23.3202C224.121 23.2242 223.905 23.1762 223.689 23.1762C223.193 23.1762 222.945 23.5082 222.945 24.1722V24.8082H224.097V25.9002H222.945V30.7002H221.565ZM225.134 30.7002V24.8082H226.514V30.7002H225.134ZM225.83 23.7762C225.582 23.7762 225.382 23.7042 225.23 23.5602C225.078 23.4162 225.002 23.2242 225.002 22.9842C225.002 22.7522 225.078 22.5642 225.23 22.4202C225.382 22.2762 225.582 22.2042 225.83 22.2042C226.078 22.2042 226.278 22.2762 226.43 22.4202C226.582 22.5642 226.658 22.7522 226.658 22.9842C226.658 23.2242 226.582 23.4162 226.43 23.5602C226.278 23.7042 226.078 23.7762 225.83 23.7762ZM228.274 30.7002V24.8082H229.414L229.51 25.8522H229.558C229.766 25.4682 230.018 25.1762 230.314 24.9762C230.61 24.7682 230.914 24.6642 231.226 24.6642C231.506 24.6642 231.73 24.7042 231.898 24.7842L231.658 25.9842C231.554 25.9522 231.458 25.9282 231.37 25.9122C231.282 25.8962 231.174 25.8882 231.046 25.8882C230.814 25.8882 230.57 25.9802 230.314 26.1642C230.058 26.3402 229.838 26.6522 229.654 27.1002V30.7002H228.274ZM232.751 30.7002V24.8082H233.891L233.987 25.6122H234.035C234.283 25.3482 234.551 25.1242 234.839 24.9402C235.135 24.7562 235.467 24.6642 235.835 24.6642C236.267 24.6642 236.611 24.7602 236.867 24.9522C237.131 25.1362 237.331 25.3922 237.467 25.7202C237.747 25.4162 238.039 25.1642 238.343 24.9642C238.655 24.7642 238.995 24.6642 239.363 24.6642C239.987 24.6642 240.447 24.8682 240.743 25.2762C241.039 25.6842 241.187 26.2602 241.187 27.0042V30.7002H239.795V27.1842C239.795 26.6962 239.719 26.3522 239.567 26.1522C239.423 25.9522 239.199 25.8522 238.895 25.8522C238.527 25.8522 238.115 26.0962 237.659 26.5842V30.7002H236.279V27.1842C236.279 26.6962 236.203 26.3522 236.051 26.1522C235.907 25.9522 235.679 25.8522 235.367 25.8522C234.999 25.8522 234.587 26.0962 234.131 26.5842V30.7002H232.751ZM244.292 30.8442C243.78 30.8442 243.36 30.6842 243.032 30.3642C242.712 30.0442 242.552 29.6282 242.552 29.1162C242.552 28.4842 242.828 27.9962 243.38 27.6522C243.932 27.3002 244.812 27.0602 246.02 26.9322C246.012 26.6202 245.928 26.3522 245.768 26.1282C245.616 25.8962 245.34 25.7802 244.94 25.7802C244.652 25.7802 244.368 25.8362 244.088 25.9482C243.816 26.0602 243.548 26.1962 243.284 26.3562L242.78 25.4322C243.108 25.2242 243.476 25.0442 243.884 24.8922C244.3 24.7402 244.74 24.6642 245.204 24.6642C245.94 24.6642 246.488 24.8842 246.848 25.3242C247.216 25.7562 247.4 26.3842 247.4 27.2082V30.7002H246.26L246.164 30.0522H246.116C245.852 30.2762 245.568 30.4642 245.264 30.6162C244.968 30.7682 244.644 30.8442 244.292 30.8442ZM244.736 29.7642C244.976 29.7642 245.192 29.7082 245.384 29.5962C245.584 29.4762 245.796 29.3162 246.02 29.1162V27.7962C245.22 27.9002 244.664 28.0562 244.352 28.2642C244.04 28.4642 243.884 28.7122 243.884 29.0082C243.884 29.2722 243.964 29.4642 244.124 29.5842C244.284 29.7042 244.488 29.7642 244.736 29.7642ZM250.94 30.8442C250.26 30.8442 249.776 30.6482 249.488 30.2562C249.208 29.8562 249.068 29.3402 249.068 28.7082V25.9002H248.228V24.8682L249.14 24.8082L249.308 23.2002H250.46V24.8082H251.96V25.9002H250.46V28.7082C250.46 29.3962 250.736 29.7402 251.288 29.7402C251.392 29.7402 251.5 29.7282 251.612 29.7042C251.724 29.6722 251.82 29.6402 251.9 29.6082L252.14 30.6282C251.98 30.6842 251.796 30.7322 251.588 30.7722C251.388 30.8202 251.172 30.8442 250.94 30.8442ZM253.2 30.7002V24.8082H254.58V30.7002H253.2ZM253.896 23.7762C253.648 23.7762 253.448 23.7042 253.296 23.5602C253.144 23.4162 253.068 23.2242 253.068 22.9842C253.068 22.7522 253.144 22.5642 253.296 22.4202C253.448 22.2762 253.648 22.2042 253.896 22.2042C254.144 22.2042 254.344 22.2762 254.496 22.4202C254.648 22.5642 254.724 22.7522 254.724 22.9842C254.724 23.2242 254.648 23.4162 254.496 23.5602C254.344 23.7042 254.144 23.7762 253.896 23.7762ZM258.753 30.8442C258.265 30.8442 257.809 30.7242 257.385 30.4842C256.961 30.2362 256.617 29.8842 256.353 29.4282C256.089 28.9642 255.957 28.4082 255.957 27.7602C255.957 27.1042 256.089 26.5482 256.353 26.0922C256.617 25.6282 256.961 25.2762 257.385 25.0362C257.809 24.7882 258.265 24.6642 258.753 24.6642C259.249 24.6642 259.709 24.7882 260.133 25.0362C260.557 25.2762 260.901 25.6282 261.165 26.0922C261.429 26.5482 261.561 27.1042 261.561 27.7602C261.561 28.4082 261.429 28.9642 261.165 29.4282C260.901 29.8842 260.557 30.2362 260.133 30.4842C259.709 30.7242 259.249 30.8442 258.753 30.8442ZM258.753 29.7162C259.185 29.7162 259.525 29.5362 259.773 29.1762C260.021 28.8162 260.145 28.3442 260.145 27.7602C260.145 27.1682 260.021 26.6922 259.773 26.3322C259.525 25.9722 259.185 25.7922 258.753 25.7922C258.321 25.7922 257.981 25.9722 257.733 26.3322C257.493 26.6922 257.373 27.1682 257.373 27.7602C257.373 28.3442 257.493 28.8162 257.733 29.1762C257.981 29.5362 258.321 29.7162 258.753 29.7162ZM262.927 30.7002V24.8082H264.067L264.163 25.6002H264.211C264.475 25.3442 264.763 25.1242 265.075 24.9402C265.387 24.7562 265.743 24.6642 266.143 24.6642C266.775 24.6642 267.235 24.8682 267.523 25.2762C267.811 25.6842 267.955 26.2602 267.955 27.0042V30.7002H266.575V27.1842C266.575 26.6962 266.503 26.3522 266.359 26.1522C266.215 25.9522 265.979 25.8522 265.651 25.8522C265.395 25.8522 265.167 25.9162 264.967 26.0442C264.775 26.1642 264.555 26.3442 264.307 26.5842V30.7002H262.927Z" fill="#002949"/>
<circle cx="234.843" cy="5.84349" r="5.84349" fill="#31EE50"/>
<path d="M316.204 31.144C315.548 31.144 314.96 30.984 314.44 30.664C313.928 30.336 313.52 29.868 313.216 29.26C312.92 28.652 312.772 27.92 312.772 27.064C312.772 26.216 312.924 25.488 313.228 24.88C313.532 24.272 313.948 23.804 314.476 23.476C315.004 23.148 315.6 22.984 316.264 22.984C316.744 22.984 317.168 23.084 317.536 23.284C317.904 23.476 318.2 23.7 318.424 23.956L317.884 24.604C317.676 24.38 317.44 24.2 317.176 24.064C316.912 23.928 316.612 23.86 316.276 23.86C315.78 23.86 315.344 23.992 314.968 24.256C314.6 24.512 314.312 24.876 314.104 25.348C313.904 25.82 313.804 26.384 313.804 27.04C313.804 27.696 313.904 28.268 314.104 28.756C314.304 29.236 314.584 29.608 314.944 29.872C315.312 30.136 315.744 30.268 316.24 30.268C316.616 30.268 316.952 30.188 317.248 30.028C317.544 29.868 317.816 29.652 318.064 29.38L318.616 30.004C318.304 30.364 317.952 30.644 317.56 30.844C317.168 31.044 316.716 31.144 316.204 31.144ZM322.256 31.144C321.784 31.144 321.34 31.024 320.924 30.784C320.516 30.544 320.184 30.196 319.928 29.74C319.68 29.284 319.556 28.736 319.556 28.096C319.556 27.44 319.68 26.884 319.928 26.428C320.184 25.972 320.516 25.624 320.924 25.384C321.34 25.144 321.784 25.024 322.256 25.024C322.736 25.024 323.18 25.144 323.588 25.384C323.996 25.624 324.324 25.972 324.572 26.428C324.828 26.884 324.956 27.44 324.956 28.096C324.956 28.736 324.828 29.284 324.572 29.74C324.324 30.196 323.996 30.544 323.588 30.784C323.18 31.024 322.736 31.144 322.256 31.144ZM322.256 30.328C322.76 30.328 323.164 30.124 323.468 29.716C323.78 29.3 323.936 28.76 323.936 28.096C323.936 27.424 323.78 26.88 323.468 26.464C323.164 26.048 322.76 25.84 322.256 25.84C321.76 25.84 321.356 26.048 321.044 26.464C320.732 26.88 320.576 27.424 320.576 28.096C320.576 28.76 320.732 29.3 321.044 29.716C321.356 30.124 321.76 30.328 322.256 30.328ZM326.492 31V25.168H327.308L327.392 26.008H327.428C327.684 25.728 327.964 25.496 328.268 25.312C328.572 25.12 328.896 25.024 329.24 25.024C329.688 25.024 330.036 25.124 330.284 25.324C330.54 25.516 330.728 25.788 330.848 26.14C331.152 25.812 331.46 25.544 331.772 25.336C332.084 25.128 332.416 25.024 332.768 25.024C333.368 25.024 333.812 25.22 334.1 25.612C334.396 25.996 334.544 26.56 334.544 27.304V31H333.56V27.436C333.56 26.892 333.472 26.496 333.296 26.248C333.12 26 332.848 25.876 332.48 25.876C332.048 25.876 331.56 26.176 331.016 26.776V31H330.032V27.436C330.032 26.892 329.944 26.496 329.768 26.248C329.592 26 329.316 25.876 328.94 25.876C328.508 25.876 328.02 26.176 327.476 26.776V31H326.492ZM336.441 33.46V25.168H337.257L337.341 25.84H337.377C337.641 25.616 337.929 25.424 338.241 25.264C338.561 25.104 338.893 25.024 339.237 25.024C339.989 25.024 340.561 25.296 340.953 25.84C341.345 26.376 341.541 27.096 341.541 28C341.541 28.656 341.421 29.22 341.181 29.692C340.949 30.164 340.641 30.524 340.257 30.772C339.881 31.02 339.469 31.144 339.021 31.144C338.749 31.144 338.477 31.084 338.205 30.964C337.941 30.844 337.673 30.68 337.401 30.472L337.425 31.492V33.46H336.441ZM338.853 30.316C339.333 30.316 339.729 30.112 340.041 29.704C340.361 29.288 340.521 28.72 340.521 28C340.521 27.36 340.401 26.844 340.161 26.452C339.929 26.052 339.537 25.852 338.985 25.852C338.737 25.852 338.485 25.92 338.229 26.056C337.981 26.192 337.713 26.388 337.425 26.644V29.704C337.689 29.928 337.945 30.088 338.193 30.184C338.441 30.272 338.661 30.316 338.853 30.316ZM344.141 31.144C343.773 31.144 343.505 31.032 343.337 30.808C343.177 30.576 343.097 30.248 343.097 29.824V22.456H344.081V29.896C344.081 30.048 344.109 30.16 344.165 30.232C344.221 30.296 344.285 30.328 344.357 30.328C344.389 30.328 344.417 30.328 344.441 30.328C344.473 30.32 344.517 30.312 344.573 30.304L344.705 31.048C344.641 31.08 344.565 31.104 344.477 31.12C344.389 31.136 344.277 31.144 344.141 31.144ZM348.52 31.144C348 31.144 347.528 31.024 347.104 30.784C346.68 30.536 346.344 30.184 346.096 29.728C345.848 29.272 345.724 28.728 345.724 28.096C345.724 27.456 345.848 26.908 346.096 26.452C346.352 25.996 346.68 25.644 347.08 25.396C347.48 25.148 347.9 25.024 348.34 25.024C349.084 25.024 349.656 25.272 350.056 25.768C350.464 26.264 350.668 26.928 350.668 27.76C350.668 27.864 350.664 27.968 350.656 28.072C350.656 28.168 350.648 28.252 350.632 28.324H346.696C346.736 28.94 346.928 29.432 347.272 29.8C347.624 30.168 348.08 30.352 348.64 30.352C348.92 30.352 349.176 30.312 349.408 30.232C349.648 30.144 349.876 30.032 350.092 29.896L350.44 30.544C350.192 30.704 349.908 30.844 349.588 30.964C349.276 31.084 348.92 31.144 348.52 31.144ZM346.684 27.616H349.804C349.804 27.024 349.676 26.576 349.42 26.272C349.172 25.96 348.82 25.804 348.364 25.804C347.956 25.804 347.588 25.964 347.26 26.284C346.94 26.596 346.748 27.04 346.684 27.616ZM353.828 31.144C353.204 31.144 352.768 30.964 352.52 30.604C352.28 30.244 352.16 29.776 352.16 29.2V25.972H351.296V25.228L352.208 25.168L352.328 23.536H353.156V25.168H354.728V25.972H353.156V29.212C353.156 29.572 353.22 29.852 353.348 30.052C353.484 30.244 353.72 30.34 354.056 30.34C354.16 30.34 354.272 30.324 354.392 30.292C354.512 30.252 354.62 30.216 354.716 30.184L354.908 30.928C354.748 30.984 354.572 31.032 354.38 31.072C354.196 31.12 354.012 31.144 353.828 31.144ZM358.246 31.144C357.726 31.144 357.254 31.024 356.83 30.784C356.406 30.536 356.07 30.184 355.822 29.728C355.574 29.272 355.45 28.728 355.45 28.096C355.45 27.456 355.574 26.908 355.822 26.452C356.078 25.996 356.406 25.644 356.806 25.396C357.206 25.148 357.626 25.024 358.066 25.024C358.81 25.024 359.382 25.272 359.782 25.768C360.19 26.264 360.394 26.928 360.394 27.76C360.394 27.864 360.39 27.968 360.382 28.072C360.382 28.168 360.374 28.252 360.358 28.324H356.422C356.462 28.94 356.654 29.432 356.998 29.8C357.35 30.168 357.806 30.352 358.366 30.352C358.646 30.352 358.902 30.312 359.134 30.232C359.374 30.144 359.602 30.032 359.818 29.896L360.166 30.544C359.918 30.704 359.634 30.844 359.314 30.964C359.002 31.084 358.646 31.144 358.246 31.144ZM356.41 27.616H359.53C359.53 27.024 359.402 26.576 359.146 26.272C358.898 25.96 358.546 25.804 358.09 25.804C357.682 25.804 357.314 25.964 356.986 26.284C356.666 26.596 356.474 27.04 356.41 27.616Z" fill="#7E8295"/>
<path d="M342.687 5.84349C342.687 9.07076 340.071 11.687 336.843 11.687C333.616 11.687 331 9.07076 331 5.84349C331 2.61622 333.616 0 336.843 0C340.071 0 342.687 2.61622 342.687 5.84349Z" fill="#7E8295"/>
</svg>
