<svg width="21" height="15" viewBox="0 0 21 15" fill="none" xmlns="http://www.w3.org/2000/svg">
<path d="M17.0625 7.0625C16.976 7.0625 16.8914 7.08816 16.8194 7.13623C16.7475 7.1843 16.6914 7.25263 16.6583 7.33258C16.6252 7.41252 16.6165 7.50049 16.6334 7.58535C16.6503 7.67022 16.692 7.74817 16.7531 7.80936C16.8143 7.87054 16.8923 7.91221 16.9771 7.92909C17.062 7.94597 17.15 7.93731 17.2299 7.9042C17.3099 7.87108 17.3782 7.81501 17.4263 7.74306C17.4743 7.67112 17.5 7.58653 17.5 7.5C17.5 7.38397 17.4539 7.27269 17.3719 7.19064C17.2898 7.10859 17.1785 7.0625 17.0625 7.0625ZM14 0.9375H13.125C11.7696 0.939501 10.448 1.36115 9.34187 2.14453C8.23574 2.92791 7.39931 4.03458 6.9475 5.3125H1.75C1.63397 5.3125 1.52269 5.26641 1.44064 5.18436C1.35859 5.10231 1.3125 4.99103 1.3125 4.875V4C1.3125 3.88397 1.35859 3.77269 1.44064 3.69064C1.52269 3.60859 1.63397 3.5625 1.75 3.5625H6.125C6.24103 3.5625 6.35231 3.51641 6.43436 3.43436C6.51641 3.35231 6.5625 3.24103 6.5625 3.125C6.5625 3.00897 6.51641 2.89769 6.43436 2.81564C6.35231 2.73359 6.24103 2.6875 6.125 2.6875H1.75C1.4019 2.6875 1.06806 2.82578 0.821922 3.07192C0.575781 3.31806 0.4375 3.6519 0.4375 4V4.875C0.4375 5.2231 0.575781 5.55694 0.821922 5.80308C1.06806 6.04922 1.4019 6.1875 1.75 6.1875H2.26625C2.21743 6.32836 2.19087 6.47596 2.1875 6.625V7.5C2.19087 7.64904 2.21743 7.79664 2.26625 7.9375H1.75C1.4019 7.9375 1.06806 8.07578 0.821922 8.32192C0.575781 8.56806 0.4375 8.9019 0.4375 9.25V10.125C0.4375 10.4731 0.575781 10.8069 0.821922 11.0531C1.06806 11.2992 1.4019 11.4375 1.75 11.4375H2.26625C2.21743 11.5784 2.19087 11.726 2.1875 11.875V12.75C2.1875 13.0981 2.32578 13.4319 2.57192 13.6781C2.81806 13.9242 3.1519 14.0625 3.5 14.0625H10.5C10.7838 14.0613 11.0597 13.9693 11.2875 13.8C11.8851 13.971 12.5034 14.0593 13.125 14.0625C13.2736 14.0712 13.4226 14.0712 13.5712 14.0625H13.9825C15.723 14.0625 17.3922 13.3711 18.6229 12.1404C19.8536 10.9097 20.545 9.24048 20.545 7.5C20.545 5.75952 19.8536 4.09032 18.6229 2.85961C17.3922 1.6289 15.723 0.9375 13.9825 0.9375H14ZM3.0625 6.625C3.0625 6.50897 3.10859 6.39769 3.19064 6.31564C3.27269 6.23359 3.38397 6.1875 3.5 6.1875H6.69375C6.6055 6.6194 6.56152 7.05918 6.5625 7.5C6.55379 7.6457 6.55379 7.7918 6.5625 7.9375H3.5C3.38397 7.9375 3.27269 7.89141 3.19064 7.80936C3.10859 7.72731 3.0625 7.61603 3.0625 7.5V6.625ZM3.5 13.1875C3.38397 13.1875 3.27269 13.1414 3.19064 13.0594C3.10859 12.9773 3.0625 12.866 3.0625 12.75V11.875C3.0625 11.759 3.10859 11.6477 3.19064 11.5656C3.27269 11.4836 3.38397 11.4375 3.5 11.4375H7.875C8.41311 12.1481 9.08858 12.7432 9.86125 13.1875H3.5ZM18.7425 8.375C18.7383 8.45661 18.7383 8.53839 18.7425 8.62C18.7425 8.75125 18.6812 8.8825 18.6462 9.01375C18.6412 9.05443 18.6412 9.09557 18.6462 9.13625C18.6029 9.28523 18.5503 9.43135 18.4887 9.57375C18.4899 9.59415 18.4899 9.6146 18.4887 9.635C18.4277 9.79063 18.3576 9.94256 18.2787 10.09C17.8317 10.9591 17.1688 11.6988 16.3536 12.2382C15.5385 12.7775 14.5985 13.0984 13.6237 13.17H13.2212C12.1964 13.1711 11.1902 12.8952 10.3092 12.3715C9.42818 11.8478 8.70505 11.0958 8.21625 10.195C8.16079 10.095 8.06837 10.0207 7.9588 9.98798C7.84923 9.95528 7.7312 9.96677 7.63 10.02C7.53884 10.0686 7.46828 10.1484 7.4313 10.2449C7.39433 10.3414 7.39342 10.4479 7.42875 10.545H1.75C1.63397 10.545 1.52269 10.4989 1.44064 10.4169C1.35859 10.3348 1.3125 10.2235 1.3125 10.1075V9.25C1.3125 9.13397 1.35859 9.02269 1.44064 8.94064C1.52269 8.85859 1.63397 8.8125 1.75 8.8125H6.69375C6.69784 8.82976 6.69784 8.84774 6.69375 8.865C6.72089 8.97597 6.78955 9.0723 6.88559 9.13416C6.98163 9.19602 7.09774 9.21869 7.21 9.1975C7.26687 9.18712 7.32105 9.16535 7.36929 9.1335C7.41753 9.10165 7.45883 9.06037 7.49071 9.01214C7.52258 8.96392 7.54438 8.90975 7.55478 8.85288C7.56519 8.79602 7.56399 8.73764 7.55125 8.68125C7.4736 8.29234 7.43548 7.89658 7.4375 7.5C7.43981 5.99229 8.03977 4.547 9.10589 3.48089C10.172 2.41477 11.6173 1.81481 13.125 1.8125H13.5275C14.5005 1.88239 15.4394 2.20062 16.2543 2.73678C17.0693 3.27295 17.7332 4.00913 18.1825 4.875C18.2613 5.02244 18.3314 5.17437 18.3925 5.33C18.3936 5.3504 18.3936 5.37085 18.3925 5.39125C18.4541 5.53365 18.5067 5.67977 18.55 5.82875C18.545 5.86943 18.545 5.91057 18.55 5.95125C18.55 6.0825 18.6112 6.21375 18.6462 6.345C18.642 6.42661 18.642 6.50839 18.6462 6.59V8.0075C18.6462 8.19125 18.76 8.26125 18.7425 8.375ZM15.75 4.4375C15.75 4.32147 15.7039 4.21019 15.6219 4.12814C15.5398 4.04609 15.4285 4 15.3125 4H10.9375C10.8215 4 10.7102 4.04609 10.6281 4.12814C10.5461 4.21019 10.5 4.32147 10.5 4.4375C10.5 4.55353 10.5461 4.66481 10.6281 4.74686C10.7102 4.82891 10.8215 4.875 10.9375 4.875H12.6875C12.958 4.87702 13.2213 4.96201 13.442 5.11849C13.6626 5.27497 13.8299 5.4954 13.9212 5.75H10.9375C10.8215 5.75 10.7102 5.79609 10.6281 5.87814C10.5461 5.96019 10.5 6.07147 10.5 6.1875C10.5 6.30353 10.5461 6.41481 10.6281 6.49686C10.7102 6.57891 10.8215 6.625 10.9375 6.625H13.9212C13.8299 6.8796 13.6626 7.10003 13.442 7.25651C13.2213 7.41299 12.958 7.49798 12.6875 7.5H10.9375C10.8511 7.50043 10.7668 7.52642 10.6952 7.57469C10.6236 7.62296 10.5678 7.69135 10.535 7.77125C10.4993 7.85011 10.4893 7.93825 10.5066 8.02309C10.5239 8.10793 10.5675 8.18515 10.6312 8.24375L13.2562 10.8688C13.2953 10.9108 13.3427 10.9442 13.3955 10.9668C13.4482 10.9894 13.5051 11.0007 13.5625 11H14.4375C14.5535 11 14.6648 10.9539 14.7469 10.8719C14.8289 10.7898 14.875 10.6785 14.875 10.5625C14.875 10.4465 14.8289 10.3352 14.7469 10.2531C14.6648 10.1711 14.5535 10.125 14.4375 10.125H13.7463L11.9963 8.375H12.6875C13.1993 8.38532 13.6984 8.21585 14.0981 7.8961C14.4978 7.57634 14.7727 7.12654 14.875 6.625H15.3562C15.4723 6.625 15.5836 6.57891 15.6656 6.49686C15.7477 6.41481 15.7937 6.30353 15.7937 6.1875C15.7937 6.07147 15.7477 5.96019 15.6656 5.87814C15.5836 5.79609 15.4723 5.75 15.3562 5.75H14.875C14.8064 5.43242 14.669 5.13374 14.4725 4.875H15.3475C15.4574 4.86618 15.5598 4.81623 15.6345 4.73511C15.7091 4.654 15.7504 4.54772 15.75 4.4375ZM9.1875 7.0625C9.10097 7.0625 9.01638 7.08816 8.94444 7.13623C8.87249 7.1843 8.81642 7.25263 8.7833 7.33258C8.75019 7.41252 8.74153 7.50049 8.75841 7.58535C8.77529 7.67022 8.81695 7.74817 8.87814 7.80936C8.93933 7.87054 9.01728 7.91221 9.10215 7.92909C9.18701 7.94597 9.27498 7.93731 9.35492 7.9042C9.43487 7.87108 9.50319 7.81501 9.55127 7.74306C9.59934 7.67112 9.625 7.58653 9.625 7.5C9.625 7.38397 9.57891 7.27269 9.49686 7.19064C9.41481 7.10859 9.30353 7.0625 9.1875 7.0625Z" fill="#002949"/>
</svg>
