<svg width="20" height="20" viewBox="0 0 20 20" fill="none" xmlns="http://www.w3.org/2000/svg">
<path d="M8.15392 3C7.16935 3 6.30785 3.8521 6.30785 4.82593V6.04321H3.84641C3.34058 6.04321 2.85937 6.21972 2.5197 6.55447C2.17774 6.9076 1.99102 7.38026 2.00033 7.86914V15.1729C2.00033 15.6744 2.18002 16.1503 2.5197 16.4863C2.85937 16.8223 3.34058 17 3.84641 17H16.1536C16.6594 17 17.1406 16.8223 17.4803 16.4863C17.82 16.1503 17.9997 15.6744 17.9997 15.1741V7.87036C18.009 7.38147 17.8223 6.90882 17.4803 6.55569C17.1241 6.21783 16.647 6.03353 16.1536 6.04321H13.6922V4.82593C13.6922 3.8521 12.8307 3 11.8461 3H8.15392ZM8.15392 4.21729H11.8461C12.2153 4.21729 12.4614 4.46074 12.4614 4.82593V6.04321H7.53856V4.82593C7.53856 4.46074 7.78471 4.21729 8.15392 4.21729ZM3.84641 7.2605H6.30785V7.86914C6.30785 8.23433 6.55399 8.47778 6.9232 8.47778C7.29242 8.47778 7.53856 8.23433 7.53856 7.86914V7.2605H12.4614V7.86914C12.4614 8.23433 12.7076 8.47778 13.0768 8.47778C13.446 8.47778 13.6922 8.23433 13.6922 7.86914V7.2605H16.1536C16.3862 7.2605 16.5191 7.32623 16.6102 7.41631C16.7013 7.50639 16.7689 7.64029 16.7689 7.87036V15.1741C16.7689 15.4041 16.7013 15.5356 16.6102 15.6245C16.5191 15.7158 16.3862 15.7827 16.1536 15.7827H3.84641C3.6138 15.7827 3.48089 15.7158 3.38981 15.6245C3.29874 15.5356 3.23105 15.4041 3.23105 15.1741V7.87036C3.23105 7.63907 3.29874 7.50517 3.38981 7.41631C3.48089 7.32623 3.6138 7.2605 3.84641 7.2605Z" fill="#002949"/>
<path fill-rule="evenodd" clip-rule="evenodd" d="M10.2995 9L9.9629 9.59167L11.0221 10.4328H7V11.1457H13L10.2995 9ZM7 11.8543L9.69931 14L10.0359 13.4083L8.97788 12.5672H13V11.8543H7Z" fill="#002949"/>
</svg>
