<svg width="354" height="36" viewBox="0 0 354 36" fill="none" xmlns="http://www.w3.org/2000/svg">
<path d="M260 6H330V9H260V6Z" fill="#7E8295"/>
<rect x="180" y="6" width="70" height="3" fill="#31EE50"/>
<rect x="107" y="6" width="70" height="3" fill="#31EE50"/>
<path d="M1.66789 33V25.128H2.86789L4.37989 29.328C4.47589 29.6 4.56789 29.876 4.65589 30.156C4.75189 30.428 4.84789 30.7 4.94389 30.972H4.99189C5.08789 30.7 5.17589 30.428 5.25589 30.156C5.34389 29.876 5.43589 29.6 5.53189 29.328L7.01989 25.128H8.23189V33H7.29589V28.668C7.29589 28.316 7.31189 27.928 7.34389 27.504C7.37589 27.072 7.40389 26.684 7.42789 26.34H7.37989L6.75589 28.128L5.26789 32.208H4.60789L3.11989 28.128L2.49589 26.34H2.44789C2.47189 26.684 2.49589 27.072 2.51989 27.504C2.55189 27.928 2.56789 28.316 2.56789 28.668V33H1.66789ZM11.9946 33.144C11.3786 33.144 10.9266 32.952 10.6386 32.568C10.3506 32.176 10.2066 31.608 10.2066 30.864V27.168H11.2026V30.732C11.2026 31.276 11.2866 31.672 11.4546 31.92C11.6306 32.168 11.9106 32.292 12.2946 32.292C12.5986 32.292 12.8666 32.216 13.0986 32.064C13.3386 31.904 13.5946 31.652 13.8666 31.308V27.168H14.8506V33H14.0346L13.9506 32.088H13.9146C13.6426 32.408 13.3546 32.664 13.0506 32.856C12.7466 33.048 12.3946 33.144 11.9946 33.144ZM18.654 33.144C18.03 33.144 17.594 32.964 17.346 32.604C17.106 32.244 16.986 31.776 16.986 31.2V27.972H16.122V27.228L17.034 27.168L17.154 25.536H17.982V27.168H19.554V27.972H17.982V31.212C17.982 31.572 18.046 31.852 18.174 32.052C18.31 32.244 18.546 32.34 18.882 32.34C18.986 32.34 19.098 32.324 19.218 32.292C19.338 32.252 19.446 32.216 19.542 32.184L19.734 32.928C19.574 32.984 19.398 33.032 19.206 33.072C19.022 33.12 18.838 33.144 18.654 33.144ZM22.5767 33.144C21.9607 33.144 21.5087 32.952 21.2207 32.568C20.9327 32.176 20.7887 31.608 20.7887 30.864V27.168H21.7847V30.732C21.7847 31.276 21.8687 31.672 22.0367 31.92C22.2127 32.168 22.4927 32.292 22.8767 32.292C23.1807 32.292 23.4487 32.216 23.6807 32.064C23.9207 31.904 24.1767 31.652 24.4487 31.308V27.168H25.4327V33H24.6167L24.5327 32.088H24.4967C24.2247 32.408 23.9367 32.664 23.6327 32.856C23.3287 33.048 22.9767 33.144 22.5767 33.144ZM28.744 33.144C28.256 33.144 27.848 33 27.52 32.712C27.2 32.416 27.04 32.008 27.04 31.488C27.04 30.848 27.324 30.36 27.892 30.024C28.468 29.68 29.376 29.44 30.616 29.304C30.616 29.056 30.58 28.82 30.508 28.596C30.444 28.372 30.324 28.192 30.148 28.056C29.98 27.912 29.736 27.84 29.416 27.84C29.08 27.84 28.764 27.904 28.468 28.032C28.172 28.16 27.908 28.304 27.676 28.464L27.292 27.78C27.564 27.604 27.896 27.436 28.288 27.276C28.688 27.108 29.12 27.024 29.584 27.024C30.296 27.024 30.812 27.244 31.132 27.684C31.452 28.116 31.612 28.696 31.612 29.424V33H30.796L30.712 32.304H30.676C30.404 32.528 30.104 32.724 29.776 32.892C29.456 33.06 29.112 33.144 28.744 33.144ZM29.032 32.352C29.312 32.352 29.576 32.284 29.824 32.148C30.072 32.012 30.336 31.82 30.616 31.572V29.952C29.648 30.072 28.968 30.252 28.576 30.492C28.192 30.732 28 31.04 28 31.416C28 31.744 28.1 31.984 28.3 32.136C28.5 32.28 28.744 32.352 29.032 32.352ZM34.4909 33.144C34.1229 33.144 33.8549 33.032 33.6869 32.808C33.5269 32.576 33.4469 32.248 33.4469 31.824V24.456H34.4309V31.896C34.4309 32.048 34.4589 32.16 34.5149 32.232C34.5709 32.296 34.6349 32.328 34.7069 32.328C34.7389 32.328 34.7669 32.328 34.7909 32.328C34.8229 32.32 34.8669 32.312 34.9229 32.304L35.0549 33.048C34.9909 33.08 34.9149 33.104 34.8269 33.12C34.7389 33.136 34.6269 33.144 34.4909 33.144ZM39.0038 33V25.128H43.5398V25.968H39.9998V28.632H42.9998V29.472H39.9998V33H39.0038ZM46.354 33.144C45.738 33.144 45.286 32.952 44.998 32.568C44.71 32.176 44.566 31.608 44.566 30.864V27.168H45.562V30.732C45.562 31.276 45.646 31.672 45.814 31.92C45.99 32.168 46.27 32.292 46.654 32.292C46.958 32.292 47.226 32.216 47.458 32.064C47.698 31.904 47.954 31.652 48.226 31.308V27.168H49.21V33H48.394L48.31 32.088H48.274C48.002 32.408 47.714 32.664 47.41 32.856C47.106 33.048 46.754 33.144 46.354 33.144ZM51.1774 33V27.168H51.9934L52.0774 28.008H52.1134C52.3934 27.728 52.6894 27.496 53.0014 27.312C53.3134 27.12 53.6694 27.024 54.0694 27.024C54.6854 27.024 55.1334 27.22 55.4134 27.612C55.7014 27.996 55.8454 28.56 55.8454 29.304V33H54.8614V29.436C54.8614 28.892 54.7734 28.496 54.5974 28.248C54.4214 28 54.1414 27.876 53.7574 27.876C53.4614 27.876 53.1934 27.952 52.9534 28.104C52.7214 28.256 52.4574 28.48 52.1614 28.776V33H51.1774ZM59.7319 33.144C59.0039 33.144 58.4199 32.88 57.9799 32.352C57.5399 31.816 57.3199 31.064 57.3199 30.096C57.3199 29.464 57.4359 28.92 57.6679 28.464C57.9079 28 58.2199 27.644 58.6039 27.396C58.9959 27.148 59.4119 27.024 59.8519 27.024C60.1879 27.024 60.4799 27.084 60.7279 27.204C60.9759 27.324 61.2279 27.488 61.4839 27.696L61.4359 26.7V24.456H62.4319V33H61.6159L61.5319 32.316H61.4959C61.2719 32.54 61.0079 32.736 60.7039 32.904C60.3999 33.064 60.0759 33.144 59.7319 33.144ZM59.9479 32.316C60.4599 32.316 60.9559 32.048 61.4359 31.512V28.464C61.1879 28.24 60.9479 28.084 60.7159 27.996C60.4919 27.9 60.2599 27.852 60.0199 27.852C59.7079 27.852 59.4239 27.948 59.1679 28.14C58.9199 28.324 58.7199 28.584 58.5679 28.92C58.4159 29.248 58.3399 29.636 58.3399 30.084C58.3399 30.78 58.4799 31.328 58.7599 31.728C59.0399 32.12 59.4359 32.316 59.9479 32.316Z" fill="#002949"/>
<path d="M222.362 32.144C221.706 32.144 221.11 31.988 220.574 31.676C220.038 31.364 219.61 30.908 219.29 30.308C218.978 29.7 218.822 28.964 218.822 28.1C218.822 27.244 218.982 26.512 219.302 25.904C219.63 25.288 220.066 24.82 220.61 24.5C221.154 24.172 221.754 24.008 222.41 24.008C222.906 24.008 223.346 24.108 223.73 24.308C224.114 24.508 224.43 24.74 224.678 25.004L223.934 25.904C223.734 25.696 223.51 25.532 223.262 25.412C223.022 25.284 222.75 25.22 222.446 25.22C222.022 25.22 221.642 25.336 221.306 25.568C220.978 25.792 220.718 26.116 220.526 26.54C220.342 26.964 220.25 27.472 220.25 28.064C220.25 28.96 220.446 29.664 220.838 30.176C221.23 30.68 221.754 30.932 222.41 30.932C222.762 30.932 223.074 30.86 223.346 30.716C223.618 30.564 223.866 30.368 224.09 30.128L224.834 31.004C224.514 31.372 224.146 31.656 223.73 31.856C223.322 32.048 222.866 32.144 222.362 32.144ZM228.436 32.144C227.948 32.144 227.492 32.024 227.068 31.784C226.644 31.536 226.3 31.184 226.036 30.728C225.772 30.264 225.64 29.708 225.64 29.06C225.64 28.404 225.772 27.848 226.036 27.392C226.3 26.928 226.644 26.576 227.068 26.336C227.492 26.088 227.948 25.964 228.436 25.964C228.932 25.964 229.392 26.088 229.816 26.336C230.24 26.576 230.584 26.928 230.848 27.392C231.112 27.848 231.244 28.404 231.244 29.06C231.244 29.708 231.112 30.264 230.848 30.728C230.584 31.184 230.24 31.536 229.816 31.784C229.392 32.024 228.932 32.144 228.436 32.144ZM228.436 31.016C228.868 31.016 229.208 30.836 229.456 30.476C229.704 30.116 229.828 29.644 229.828 29.06C229.828 28.468 229.704 27.992 229.456 27.632C229.208 27.272 228.868 27.092 228.436 27.092C228.004 27.092 227.664 27.272 227.416 27.632C227.176 27.992 227.056 28.468 227.056 29.06C227.056 29.644 227.176 30.116 227.416 30.476C227.664 30.836 228.004 31.016 228.436 31.016ZM232.61 32V26.108H233.75L233.846 26.9H233.894C234.158 26.644 234.446 26.424 234.758 26.24C235.07 26.056 235.426 25.964 235.826 25.964C236.458 25.964 236.918 26.168 237.206 26.576C237.494 26.984 237.638 27.56 237.638 28.304V32H236.258V28.484C236.258 27.996 236.186 27.652 236.042 27.452C235.898 27.252 235.662 27.152 235.334 27.152C235.078 27.152 234.85 27.216 234.65 27.344C234.458 27.464 234.238 27.644 233.99 27.884V32H232.61ZM239.565 32V27.2H238.773V26.168L239.565 26.108V25.496C239.565 24.88 239.717 24.376 240.021 23.984C240.325 23.584 240.825 23.384 241.521 23.384C241.729 23.384 241.929 23.404 242.121 23.444C242.313 23.484 242.473 23.532 242.601 23.588L242.337 24.62C242.121 24.524 241.905 24.476 241.689 24.476C241.193 24.476 240.945 24.808 240.945 25.472V26.108H242.097V27.2H240.945V32H239.565ZM243.134 32V26.108H244.514V32H243.134ZM243.83 25.076C243.582 25.076 243.382 25.004 243.23 24.86C243.078 24.716 243.002 24.524 243.002 24.284C243.002 24.052 243.078 23.864 243.23 23.72C243.382 23.576 243.582 23.504 243.83 23.504C244.078 23.504 244.278 23.576 244.43 23.72C244.582 23.864 244.658 24.052 244.658 24.284C244.658 24.524 244.582 24.716 244.43 24.86C244.278 25.004 244.078 25.076 243.83 25.076ZM246.274 32V26.108H247.414L247.51 27.152H247.558C247.766 26.768 248.018 26.476 248.314 26.276C248.61 26.068 248.914 25.964 249.226 25.964C249.506 25.964 249.73 26.004 249.898 26.084L249.658 27.284C249.554 27.252 249.458 27.228 249.37 27.212C249.282 27.196 249.174 27.188 249.046 27.188C248.814 27.188 248.57 27.28 248.314 27.464C248.058 27.64 247.838 27.952 247.654 28.4V32H246.274ZM250.751 32V26.108H251.891L251.987 26.912H252.035C252.283 26.648 252.551 26.424 252.839 26.24C253.135 26.056 253.467 25.964 253.835 25.964C254.267 25.964 254.611 26.06 254.867 26.252C255.131 26.436 255.331 26.692 255.467 27.02C255.747 26.716 256.039 26.464 256.343 26.264C256.655 26.064 256.995 25.964 257.363 25.964C257.987 25.964 258.447 26.168 258.743 26.576C259.039 26.984 259.187 27.56 259.187 28.304V32H257.795V28.484C257.795 27.996 257.719 27.652 257.567 27.452C257.423 27.252 257.199 27.152 256.895 27.152C256.527 27.152 256.115 27.396 255.659 27.884V32H254.279V28.484C254.279 27.996 254.203 27.652 254.051 27.452C253.907 27.252 253.679 27.152 253.367 27.152C252.999 27.152 252.587 27.396 252.131 27.884V32H250.751ZM262.292 32.144C261.78 32.144 261.36 31.984 261.032 31.664C260.712 31.344 260.552 30.928 260.552 30.416C260.552 29.784 260.828 29.296 261.38 28.952C261.932 28.6 262.812 28.36 264.02 28.232C264.012 27.92 263.928 27.652 263.768 27.428C263.616 27.196 263.34 27.08 262.94 27.08C262.652 27.08 262.368 27.136 262.088 27.248C261.816 27.36 261.548 27.496 261.284 27.656L260.78 26.732C261.108 26.524 261.476 26.344 261.884 26.192C262.3 26.04 262.74 25.964 263.204 25.964C263.94 25.964 264.488 26.184 264.848 26.624C265.216 27.056 265.4 27.684 265.4 28.508V32H264.26L264.164 31.352H264.116C263.852 31.576 263.568 31.764 263.264 31.916C262.968 32.068 262.644 32.144 262.292 32.144ZM262.736 31.064C262.976 31.064 263.192 31.008 263.384 30.896C263.584 30.776 263.796 30.616 264.02 30.416V29.096C263.22 29.2 262.664 29.356 262.352 29.564C262.04 29.764 261.884 30.012 261.884 30.308C261.884 30.572 261.964 30.764 262.124 30.884C262.284 31.004 262.488 31.064 262.736 31.064ZM268.94 32.144C268.26 32.144 267.776 31.948 267.488 31.556C267.208 31.156 267.068 30.64 267.068 30.008V27.2H266.228V26.168L267.14 26.108L267.308 24.5H268.46V26.108H269.96V27.2H268.46V30.008C268.46 30.696 268.736 31.04 269.288 31.04C269.392 31.04 269.5 31.028 269.612 31.004C269.724 30.972 269.82 30.94 269.9 30.908L270.14 31.928C269.98 31.984 269.796 32.032 269.588 32.072C269.388 32.12 269.172 32.144 268.94 32.144ZM271.2 32V26.108H272.58V32H271.2ZM271.896 25.076C271.648 25.076 271.448 25.004 271.296 24.86C271.144 24.716 271.068 24.524 271.068 24.284C271.068 24.052 271.144 23.864 271.296 23.72C271.448 23.576 271.648 23.504 271.896 23.504C272.144 23.504 272.344 23.576 272.496 23.72C272.648 23.864 272.724 24.052 272.724 24.284C272.724 24.524 272.648 24.716 272.496 24.86C272.344 25.004 272.144 25.076 271.896 25.076ZM276.753 32.144C276.265 32.144 275.809 32.024 275.385 31.784C274.961 31.536 274.617 31.184 274.353 30.728C274.089 30.264 273.957 29.708 273.957 29.06C273.957 28.404 274.089 27.848 274.353 27.392C274.617 26.928 274.961 26.576 275.385 26.336C275.809 26.088 276.265 25.964 276.753 25.964C277.249 25.964 277.709 26.088 278.133 26.336C278.557 26.576 278.901 26.928 279.165 27.392C279.429 27.848 279.561 28.404 279.561 29.06C279.561 29.708 279.429 30.264 279.165 30.728C278.901 31.184 278.557 31.536 278.133 31.784C277.709 32.024 277.249 32.144 276.753 32.144ZM276.753 31.016C277.185 31.016 277.525 30.836 277.773 30.476C278.021 30.116 278.145 29.644 278.145 29.06C278.145 28.468 278.021 27.992 277.773 27.632C277.525 27.272 277.185 27.092 276.753 27.092C276.321 27.092 275.981 27.272 275.733 27.632C275.493 27.992 275.373 28.468 275.373 29.06C275.373 29.644 275.493 30.116 275.733 30.476C275.981 30.836 276.321 31.016 276.753 31.016ZM280.927 32V26.108H282.067L282.163 26.9H282.211C282.475 26.644 282.763 26.424 283.075 26.24C283.387 26.056 283.743 25.964 284.143 25.964C284.775 25.964 285.235 26.168 285.523 26.576C285.811 26.984 285.955 27.56 285.955 28.304V32H284.575V28.484C284.575 27.996 284.503 27.652 284.359 27.452C284.215 27.252 283.979 27.152 283.651 27.152C283.395 27.152 283.167 27.216 282.967 27.344C282.775 27.464 282.555 27.644 282.307 27.884V32H280.927Z" fill="#002949"/>
<path d="M309.204 32.144C308.548 32.144 307.96 31.984 307.44 31.664C306.928 31.336 306.52 30.868 306.216 30.26C305.92 29.652 305.772 28.92 305.772 28.064C305.772 27.216 305.924 26.488 306.228 25.88C306.532 25.272 306.948 24.804 307.476 24.476C308.004 24.148 308.6 23.984 309.264 23.984C309.744 23.984 310.168 24.084 310.536 24.284C310.904 24.476 311.2 24.7 311.424 24.956L310.884 25.604C310.676 25.38 310.44 25.2 310.176 25.064C309.912 24.928 309.612 24.86 309.276 24.86C308.78 24.86 308.344 24.992 307.968 25.256C307.6 25.512 307.312 25.876 307.104 26.348C306.904 26.82 306.804 27.384 306.804 28.04C306.804 28.696 306.904 29.268 307.104 29.756C307.304 30.236 307.584 30.608 307.944 30.872C308.312 31.136 308.744 31.268 309.24 31.268C309.616 31.268 309.952 31.188 310.248 31.028C310.544 30.868 310.816 30.652 311.064 30.38L311.616 31.004C311.304 31.364 310.952 31.644 310.56 31.844C310.168 32.044 309.716 32.144 309.204 32.144ZM315.256 32.144C314.784 32.144 314.34 32.024 313.924 31.784C313.516 31.544 313.184 31.196 312.928 30.74C312.68 30.284 312.556 29.736 312.556 29.096C312.556 28.44 312.68 27.884 312.928 27.428C313.184 26.972 313.516 26.624 313.924 26.384C314.34 26.144 314.784 26.024 315.256 26.024C315.736 26.024 316.18 26.144 316.588 26.384C316.996 26.624 317.324 26.972 317.572 27.428C317.828 27.884 317.956 28.44 317.956 29.096C317.956 29.736 317.828 30.284 317.572 30.74C317.324 31.196 316.996 31.544 316.588 31.784C316.18 32.024 315.736 32.144 315.256 32.144ZM315.256 31.328C315.76 31.328 316.164 31.124 316.468 30.716C316.78 30.3 316.936 29.76 316.936 29.096C316.936 28.424 316.78 27.88 316.468 27.464C316.164 27.048 315.76 26.84 315.256 26.84C314.76 26.84 314.356 27.048 314.044 27.464C313.732 27.88 313.576 28.424 313.576 29.096C313.576 29.76 313.732 30.3 314.044 30.716C314.356 31.124 314.76 31.328 315.256 31.328ZM319.492 32V26.168H320.308L320.392 27.008H320.428C320.684 26.728 320.964 26.496 321.268 26.312C321.572 26.12 321.896 26.024 322.24 26.024C322.688 26.024 323.036 26.124 323.284 26.324C323.54 26.516 323.728 26.788 323.848 27.14C324.152 26.812 324.46 26.544 324.772 26.336C325.084 26.128 325.416 26.024 325.768 26.024C326.368 26.024 326.812 26.22 327.1 26.612C327.396 26.996 327.544 27.56 327.544 28.304V32H326.56V28.436C326.56 27.892 326.472 27.496 326.296 27.248C326.12 27 325.848 26.876 325.48 26.876C325.048 26.876 324.56 27.176 324.016 27.776V32H323.032V28.436C323.032 27.892 322.944 27.496 322.768 27.248C322.592 27 322.316 26.876 321.94 26.876C321.508 26.876 321.02 27.176 320.476 27.776V32H319.492ZM329.441 34.46V26.168H330.257L330.341 26.84H330.377C330.641 26.616 330.929 26.424 331.241 26.264C331.561 26.104 331.893 26.024 332.237 26.024C332.989 26.024 333.561 26.296 333.953 26.84C334.345 27.376 334.541 28.096 334.541 29C334.541 29.656 334.421 30.22 334.181 30.692C333.949 31.164 333.641 31.524 333.257 31.772C332.881 32.02 332.469 32.144 332.021 32.144C331.749 32.144 331.477 32.084 331.205 31.964C330.941 31.844 330.673 31.68 330.401 31.472L330.425 32.492V34.46H329.441ZM331.853 31.316C332.333 31.316 332.729 31.112 333.041 30.704C333.361 30.288 333.521 29.72 333.521 29C333.521 28.36 333.401 27.844 333.161 27.452C332.929 27.052 332.537 26.852 331.985 26.852C331.737 26.852 331.485 26.92 331.229 27.056C330.981 27.192 330.713 27.388 330.425 27.644V30.704C330.689 30.928 330.945 31.088 331.193 31.184C331.441 31.272 331.661 31.316 331.853 31.316ZM337.141 32.144C336.773 32.144 336.505 32.032 336.337 31.808C336.177 31.576 336.097 31.248 336.097 30.824V23.456H337.081V30.896C337.081 31.048 337.109 31.16 337.165 31.232C337.221 31.296 337.285 31.328 337.357 31.328C337.389 31.328 337.417 31.328 337.441 31.328C337.473 31.32 337.517 31.312 337.573 31.304L337.705 32.048C337.641 32.08 337.565 32.104 337.477 32.12C337.389 32.136 337.277 32.144 337.141 32.144ZM341.52 32.144C341 32.144 340.528 32.024 340.104 31.784C339.68 31.536 339.344 31.184 339.096 30.728C338.848 30.272 338.724 29.728 338.724 29.096C338.724 28.456 338.848 27.908 339.096 27.452C339.352 26.996 339.68 26.644 340.08 26.396C340.48 26.148 340.9 26.024 341.34 26.024C342.084 26.024 342.656 26.272 343.056 26.768C343.464 27.264 343.668 27.928 343.668 28.76C343.668 28.864 343.664 28.968 343.656 29.072C343.656 29.168 343.648 29.252 343.632 29.324H339.696C339.736 29.94 339.928 30.432 340.272 30.8C340.624 31.168 341.08 31.352 341.64 31.352C341.92 31.352 342.176 31.312 342.408 31.232C342.648 31.144 342.876 31.032 343.092 30.896L343.44 31.544C343.192 31.704 342.908 31.844 342.588 31.964C342.276 32.084 341.92 32.144 341.52 32.144ZM339.684 28.616H342.804C342.804 28.024 342.676 27.576 342.42 27.272C342.172 26.96 341.82 26.804 341.364 26.804C340.956 26.804 340.588 26.964 340.26 27.284C339.94 27.596 339.748 28.04 339.684 28.616ZM346.828 32.144C346.204 32.144 345.768 31.964 345.52 31.604C345.28 31.244 345.16 30.776 345.16 30.2V26.972H344.296V26.228L345.208 26.168L345.328 24.536H346.156V26.168H347.728V26.972H346.156V30.212C346.156 30.572 346.22 30.852 346.348 31.052C346.484 31.244 346.72 31.34 347.056 31.34C347.16 31.34 347.272 31.324 347.392 31.292C347.512 31.252 347.62 31.216 347.716 31.184L347.908 31.928C347.748 31.984 347.572 32.032 347.38 32.072C347.196 32.12 347.012 32.144 346.828 32.144ZM351.246 32.144C350.726 32.144 350.254 32.024 349.83 31.784C349.406 31.536 349.07 31.184 348.822 30.728C348.574 30.272 348.45 29.728 348.45 29.096C348.45 28.456 348.574 27.908 348.822 27.452C349.078 26.996 349.406 26.644 349.806 26.396C350.206 26.148 350.626 26.024 351.066 26.024C351.81 26.024 352.382 26.272 352.782 26.768C353.19 27.264 353.394 27.928 353.394 28.76C353.394 28.864 353.39 28.968 353.382 29.072C353.382 29.168 353.374 29.252 353.358 29.324H349.422C349.462 29.94 349.654 30.432 349.998 30.8C350.35 31.168 350.806 31.352 351.366 31.352C351.646 31.352 351.902 31.312 352.134 31.232C352.374 31.144 352.602 31.032 352.818 30.896L353.166 31.544C352.918 31.704 352.634 31.844 352.314 31.964C352.002 32.084 351.646 32.144 351.246 32.144ZM349.41 28.616H352.53C352.53 28.024 352.402 27.576 352.146 27.272C351.898 26.96 351.546 26.804 351.09 26.804C350.682 26.804 350.314 26.964 349.986 27.284C349.666 27.596 349.474 28.04 349.41 28.616Z" fill="#7E8295"/>
<path d="M89.8735 27.596L89.5015 28.796H91.8655L91.4935 27.596C91.3495 27.156 91.2135 26.72 91.0855 26.288C90.9575 25.848 90.8295 25.4 90.7015 24.944H90.6535C90.5335 25.4 90.4095 25.848 90.2815 26.288C90.1535 26.72 90.0175 27.156 89.8735 27.596ZM87.4735 32L90.1375 24.128H91.2655L93.9295 32H92.8615L92.1175 29.6H89.2495L88.4935 32H87.4735ZM94.9488 32V26.168H95.7648L95.8488 27.008H95.8848C96.1408 26.728 96.4208 26.496 96.7248 26.312C97.0288 26.12 97.3528 26.024 97.6968 26.024C98.1448 26.024 98.4928 26.124 98.7408 26.324C98.9968 26.516 99.1848 26.788 99.3048 27.14C99.6088 26.812 99.9168 26.544 100.229 26.336C100.541 26.128 100.873 26.024 101.225 26.024C101.825 26.024 102.269 26.22 102.557 26.612C102.853 26.996 103.001 27.56 103.001 28.304V32H102.017V28.436C102.017 27.892 101.929 27.496 101.753 27.248C101.577 27 101.305 26.876 100.937 26.876C100.505 26.876 100.017 27.176 99.4728 27.776V32H98.4888V28.436C98.4888 27.892 98.4008 27.496 98.2248 27.248C98.0488 27 97.7728 26.876 97.3968 26.876C96.9648 26.876 96.4768 27.176 95.9328 27.776V32H94.9488ZM107.166 32.144C106.694 32.144 106.25 32.024 105.834 31.784C105.426 31.544 105.094 31.196 104.838 30.74C104.59 30.284 104.466 29.736 104.466 29.096C104.466 28.44 104.59 27.884 104.838 27.428C105.094 26.972 105.426 26.624 105.834 26.384C106.25 26.144 106.694 26.024 107.166 26.024C107.646 26.024 108.09 26.144 108.498 26.384C108.906 26.624 109.234 26.972 109.482 27.428C109.738 27.884 109.866 28.44 109.866 29.096C109.866 29.736 109.738 30.284 109.482 30.74C109.234 31.196 108.906 31.544 108.498 31.784C108.09 32.024 107.646 32.144 107.166 32.144ZM107.166 31.328C107.67 31.328 108.074 31.124 108.378 30.716C108.69 30.3 108.846 29.76 108.846 29.096C108.846 28.424 108.69 27.88 108.378 27.464C108.074 27.048 107.67 26.84 107.166 26.84C106.67 26.84 106.266 27.048 105.954 27.464C105.642 27.88 105.486 28.424 105.486 29.096C105.486 29.76 105.642 30.3 105.954 30.716C106.266 31.124 106.67 31.328 107.166 31.328ZM113.106 32.144C112.49 32.144 112.038 31.952 111.75 31.568C111.462 31.176 111.318 30.608 111.318 29.864V26.168H112.314V29.732C112.314 30.276 112.398 30.672 112.566 30.92C112.742 31.168 113.022 31.292 113.406 31.292C113.71 31.292 113.978 31.216 114.21 31.064C114.45 30.904 114.706 30.652 114.978 30.308V26.168H115.962V32H115.146L115.062 31.088H115.026C114.754 31.408 114.466 31.664 114.162 31.856C113.858 32.048 113.506 32.144 113.106 32.144ZM117.929 32V26.168H118.745L118.829 27.008H118.865C119.145 26.728 119.441 26.496 119.753 26.312C120.065 26.12 120.421 26.024 120.821 26.024C121.437 26.024 121.885 26.22 122.165 26.612C122.453 26.996 122.597 27.56 122.597 28.304V32H121.613V28.436C121.613 27.892 121.525 27.496 121.349 27.248C121.173 27 120.893 26.876 120.509 26.876C120.213 26.876 119.945 26.952 119.705 27.104C119.473 27.256 119.209 27.48 118.913 27.776V32H117.929ZM126.328 32.144C125.704 32.144 125.268 31.964 125.02 31.604C124.78 31.244 124.66 30.776 124.66 30.2V26.972H123.796V26.228L124.708 26.168L124.828 24.536H125.656V26.168H127.228V26.972H125.656V30.212C125.656 30.572 125.72 30.852 125.848 31.052C125.984 31.244 126.22 31.34 126.556 31.34C126.66 31.34 126.772 31.324 126.892 31.292C127.012 31.252 127.12 31.216 127.216 31.184L127.408 31.928C127.248 31.984 127.072 32.032 126.88 32.072C126.696 32.12 126.512 32.144 126.328 32.144Z" fill="#002949"/>
<path d="M155.355 32V24.128H157.599C158.191 24.128 158.707 24.2 159.147 24.344C159.587 24.488 159.931 24.732 160.179 25.076C160.427 25.412 160.551 25.868 160.551 26.444C160.551 27.268 160.283 27.88 159.747 28.28C159.211 28.68 158.511 28.88 157.647 28.88H156.351V32H155.355ZM156.351 28.064H157.527C158.215 28.064 158.723 27.936 159.051 27.68C159.387 27.416 159.555 27.004 159.555 26.444C159.555 25.876 159.379 25.484 159.027 25.268C158.683 25.044 158.167 24.932 157.479 24.932H156.351V28.064ZM162.885 32.144C162.397 32.144 161.989 32 161.661 31.712C161.341 31.416 161.181 31.008 161.181 30.488C161.181 29.848 161.465 29.36 162.033 29.024C162.609 28.68 163.517 28.44 164.757 28.304C164.757 28.056 164.721 27.82 164.649 27.596C164.585 27.372 164.465 27.192 164.289 27.056C164.121 26.912 163.877 26.84 163.557 26.84C163.221 26.84 162.905 26.904 162.609 27.032C162.313 27.16 162.049 27.304 161.817 27.464L161.433 26.78C161.705 26.604 162.037 26.436 162.429 26.276C162.829 26.108 163.261 26.024 163.725 26.024C164.437 26.024 164.953 26.244 165.273 26.684C165.593 27.116 165.753 27.696 165.753 28.424V32H164.937L164.853 31.304H164.817C164.545 31.528 164.245 31.724 163.917 31.892C163.597 32.06 163.253 32.144 162.885 32.144ZM163.173 31.352C163.453 31.352 163.717 31.284 163.965 31.148C164.213 31.012 164.477 30.82 164.757 30.572V28.952C163.789 29.072 163.109 29.252 162.717 29.492C162.333 29.732 162.141 30.04 162.141 30.416C162.141 30.744 162.241 30.984 162.441 31.136C162.641 31.28 162.885 31.352 163.173 31.352ZM167.684 34.508C167.556 34.508 167.432 34.496 167.312 34.472C167.2 34.448 167.096 34.42 167 34.388L167.192 33.608C167.256 33.624 167.328 33.64 167.408 33.656C167.488 33.68 167.564 33.692 167.636 33.692C167.964 33.692 168.236 33.572 168.452 33.332C168.668 33.1 168.836 32.804 168.956 32.444L169.088 32.012L166.748 26.168H167.768L168.956 29.396C169.044 29.644 169.136 29.912 169.232 30.2C169.336 30.488 169.432 30.768 169.52 31.04H169.568C169.656 30.776 169.74 30.5 169.82 30.212C169.9 29.924 169.98 29.652 170.06 29.396L171.104 26.168H172.064L169.868 32.48C169.732 32.864 169.568 33.208 169.376 33.512C169.192 33.816 168.96 34.056 168.68 34.232C168.408 34.416 168.076 34.508 167.684 34.508ZM173.189 32V26.168H174.005L174.089 27.008H174.125C174.381 26.728 174.661 26.496 174.965 26.312C175.269 26.12 175.593 26.024 175.937 26.024C176.385 26.024 176.733 26.124 176.981 26.324C177.237 26.516 177.425 26.788 177.545 27.14C177.849 26.812 178.157 26.544 178.469 26.336C178.781 26.128 179.113 26.024 179.465 26.024C180.065 26.024 180.509 26.22 180.797 26.612C181.093 26.996 181.241 27.56 181.241 28.304V32H180.257V28.436C180.257 27.892 180.169 27.496 179.993 27.248C179.817 27 179.545 26.876 179.177 26.876C178.745 26.876 178.257 27.176 177.713 27.776V32H176.729V28.436C176.729 27.892 176.641 27.496 176.465 27.248C176.289 27 176.013 26.876 175.637 26.876C175.205 26.876 174.717 27.176 174.173 27.776V32H173.189ZM185.502 32.144C184.982 32.144 184.51 32.024 184.086 31.784C183.662 31.536 183.326 31.184 183.078 30.728C182.83 30.272 182.706 29.728 182.706 29.096C182.706 28.456 182.83 27.908 183.078 27.452C183.334 26.996 183.662 26.644 184.062 26.396C184.462 26.148 184.882 26.024 185.322 26.024C186.066 26.024 186.638 26.272 187.038 26.768C187.446 27.264 187.65 27.928 187.65 28.76C187.65 28.864 187.646 28.968 187.638 29.072C187.638 29.168 187.63 29.252 187.614 29.324H183.678C183.718 29.94 183.91 30.432 184.254 30.8C184.606 31.168 185.062 31.352 185.622 31.352C185.902 31.352 186.158 31.312 186.39 31.232C186.63 31.144 186.858 31.032 187.074 30.896L187.422 31.544C187.174 31.704 186.89 31.844 186.57 31.964C186.258 32.084 185.902 32.144 185.502 32.144ZM183.666 28.616H186.786C186.786 28.024 186.658 27.576 186.402 27.272C186.154 26.96 185.802 26.804 185.346 26.804C184.938 26.804 184.57 26.964 184.242 27.284C183.922 27.596 183.73 28.04 183.666 28.616ZM189.091 32V26.168H189.907L189.991 27.008H190.027C190.307 26.728 190.603 26.496 190.915 26.312C191.227 26.12 191.583 26.024 191.983 26.024C192.599 26.024 193.047 26.22 193.327 26.612C193.615 26.996 193.759 27.56 193.759 28.304V32H192.775V28.436C192.775 27.892 192.687 27.496 192.511 27.248C192.335 27 192.055 26.876 191.671 26.876C191.375 26.876 191.107 26.952 190.867 27.104C190.635 27.256 190.371 27.48 190.075 27.776V32H189.091ZM197.49 32.144C196.866 32.144 196.43 31.964 196.182 31.604C195.942 31.244 195.822 30.776 195.822 30.2V26.972H194.958V26.228L195.87 26.168L195.99 24.536H196.818V26.168H198.39V26.972H196.818V30.212C196.818 30.572 196.882 30.852 197.01 31.052C197.146 31.244 197.382 31.34 197.718 31.34C197.822 31.34 197.934 31.324 198.054 31.292C198.174 31.252 198.282 31.216 198.378 31.184L198.57 31.928C198.41 31.984 198.234 32.032 198.042 32.072C197.858 32.12 197.674 32.144 197.49 32.144Z" fill="#002949"/>
<circle cx="31.8435" cy="6.84349" r="5.84349" fill="#31EE50"/>
<circle cx="175.843" cy="6.84349" r="5.84349" fill="#31EE50"/>
<circle cx="106.843" cy="6.84349" r="5.84349" fill="#31EE50"/>
<circle cx="255.144" cy="7.14357" r="5.84349" transform="rotate(-14.8171 255.144 7.14357)" fill="#31EE50"/>
<path d="M336.843 6.84349C336.843 10.0708 334.227 12.687 331 12.687C327.772 12.687 325.156 10.0708 325.156 6.84349C325.156 3.61622 327.772 1 331 1C334.227 1 336.843 3.61622 336.843 6.84349Z" fill="#7E8295"/>
<rect x="37" y="6" width="64" height="3" fill="#31EE50"/>
</svg>
