<svg width="355" height="36" viewBox="0 0 355 36" fill="none" xmlns="http://www.w3.org/2000/svg">
<path d="M261 6H331V9H261V6Z" fill="#7E8295"/>
<rect x="181" y="6" width="70" height="3" fill="#7E8295"/>
<rect x="108" y="6" width="70" height="3" fill="#7E8295"/>
<path d="M6.23428 32V24.152H7.80628L9.19828 27.992C9.28628 28.24 9.37028 28.496 9.45028 28.76C9.53828 29.016 9.62228 29.272 9.70228 29.528H9.75028C9.83828 29.272 9.92228 29.016 10.0023 28.76C10.0823 28.496 10.1623 28.24 10.2423 27.992L11.5983 24.152H13.1823V32H11.8983V28.412C11.8983 28.164 11.9063 27.896 11.9223 27.608C11.9463 27.312 11.9703 27.016 11.9943 26.72C12.0263 26.424 12.0543 26.156 12.0783 25.916H12.0303L11.3943 27.74L10.1103 31.268H9.28228L7.98628 27.74L7.36228 25.916H7.31428C7.33828 26.156 7.36228 26.424 7.38628 26.72C7.41828 27.016 7.44228 27.312 7.45828 27.608C7.48228 27.896 7.49428 28.164 7.49428 28.412V32H6.23428ZM16.8077 32.144C16.1757 32.144 15.7157 31.94 15.4277 31.532C15.1397 31.124 14.9957 30.548 14.9957 29.804V26.108H16.3757V29.624C16.3757 30.112 16.4477 30.456 16.5917 30.656C16.7357 30.856 16.9677 30.956 17.2877 30.956C17.5437 30.956 17.7677 30.892 17.9597 30.764C18.1597 30.636 18.3717 30.428 18.5957 30.14V26.108H19.9757V32H18.8477L18.7397 31.136H18.7037C18.4477 31.44 18.1677 31.684 17.8637 31.868C17.5597 32.052 17.2077 32.144 16.8077 32.144ZM23.7997 32.144C23.1197 32.144 22.6357 31.948 22.3477 31.556C22.0677 31.156 21.9277 30.64 21.9277 30.008V27.2H21.0877V26.168L21.9997 26.108L22.1677 24.5H23.3197V26.108H24.8197V27.2H23.3197V30.008C23.3197 30.696 23.5957 31.04 24.1477 31.04C24.2517 31.04 24.3597 31.028 24.4717 31.004C24.5837 30.972 24.6797 30.94 24.7597 30.908L24.9997 31.928C24.8397 31.984 24.6557 32.032 24.4477 32.072C24.2477 32.12 24.0317 32.144 23.7997 32.144ZM27.8116 32.144C27.1796 32.144 26.7196 31.94 26.4316 31.532C26.1436 31.124 25.9996 30.548 25.9996 29.804V26.108H27.3796V29.624C27.3796 30.112 27.4516 30.456 27.5956 30.656C27.7396 30.856 27.9716 30.956 28.2916 30.956C28.5476 30.956 28.7716 30.892 28.9636 30.764C29.1636 30.636 29.3756 30.428 29.5996 30.14V26.108H30.9796V32H29.8516L29.7436 31.136H29.7076C29.4516 31.44 29.1716 31.684 28.8676 31.868C28.5636 32.052 28.2116 32.144 27.8116 32.144ZM34.1556 32.144C33.6436 32.144 33.2236 31.984 32.8956 31.664C32.5756 31.344 32.4156 30.928 32.4156 30.416C32.4156 29.784 32.6916 29.296 33.2436 28.952C33.7956 28.6 34.6756 28.36 35.8836 28.232C35.8756 27.92 35.7916 27.652 35.6316 27.428C35.4796 27.196 35.2036 27.08 34.8036 27.08C34.5156 27.08 34.2316 27.136 33.9516 27.248C33.6796 27.36 33.4116 27.496 33.1476 27.656L32.6436 26.732C32.9716 26.524 33.3396 26.344 33.7476 26.192C34.1636 26.04 34.6036 25.964 35.0676 25.964C35.8036 25.964 36.3516 26.184 36.7116 26.624C37.0796 27.056 37.2636 27.684 37.2636 28.508V32H36.1236L36.0276 31.352H35.9796C35.7156 31.576 35.4316 31.764 35.1276 31.916C34.8316 32.068 34.5076 32.144 34.1556 32.144ZM34.5996 31.064C34.8396 31.064 35.0556 31.008 35.2476 30.896C35.4476 30.776 35.6596 30.616 35.8836 30.416V29.096C35.0836 29.2 34.5276 29.356 34.2156 29.564C33.9036 29.764 33.7476 30.012 33.7476 30.308C33.7476 30.572 33.8276 30.764 33.9876 30.884C34.1476 31.004 34.3516 31.064 34.5996 31.064ZM40.2591 32.144C39.7711 32.144 39.4231 31.996 39.2151 31.7C39.0151 31.404 38.9151 31 38.9151 30.488V23.528H40.2951V30.56C40.2951 30.728 40.3271 30.848 40.3911 30.92C40.4551 30.984 40.5231 31.016 40.5951 31.016C40.6271 31.016 40.6551 31.016 40.6791 31.016C40.7111 31.008 40.7551 31 40.8111 30.992L40.9911 32.024C40.9111 32.056 40.8071 32.084 40.6791 32.108C40.5591 32.132 40.4191 32.144 40.2591 32.144ZM44.6952 32V24.152H49.4352V25.328H46.0872V27.548H48.9432V28.724H46.0872V32H44.6952ZM52.2335 32.144C51.6015 32.144 51.1415 31.94 50.8535 31.532C50.5655 31.124 50.4215 30.548 50.4215 29.804V26.108H51.8015V29.624C51.8015 30.112 51.8735 30.456 52.0175 30.656C52.1615 30.856 52.3935 30.956 52.7135 30.956C52.9695 30.956 53.1935 30.892 53.3855 30.764C53.5855 30.636 53.7975 30.428 54.0215 30.14V26.108H55.4015V32H54.2735L54.1655 31.136H54.1295C53.8735 31.44 53.5935 31.684 53.2895 31.868C52.9855 32.052 52.6335 32.144 52.2335 32.144ZM57.1494 32V26.108H58.2894L58.3854 26.9H58.4334C58.6974 26.644 58.9854 26.424 59.2974 26.24C59.6094 26.056 59.9654 25.964 60.3654 25.964C60.9974 25.964 61.4574 26.168 61.7454 26.576C62.0334 26.984 62.1774 27.56 62.1774 28.304V32H60.7974V28.484C60.7974 27.996 60.7254 27.652 60.5814 27.452C60.4374 27.252 60.2014 27.152 59.8734 27.152C59.6174 27.152 59.3894 27.216 59.1894 27.344C58.9974 27.464 58.7774 27.644 58.5294 27.884V32H57.1494ZM65.9283 32.144C65.1923 32.144 64.6043 31.872 64.1643 31.328C63.7243 30.784 63.5043 30.028 63.5043 29.06C63.5043 28.42 63.6203 27.868 63.8523 27.404C64.0923 26.94 64.4043 26.584 64.7883 26.336C65.1723 26.088 65.5763 25.964 66.0003 25.964C66.3363 25.964 66.6203 26.024 66.8523 26.144C67.0923 26.256 67.3243 26.412 67.5483 26.612L67.5003 25.664V23.528H68.8803V32H67.7403L67.6443 31.364H67.5963C67.3803 31.58 67.1283 31.764 66.8403 31.916C66.5523 32.068 66.2483 32.144 65.9283 32.144ZM66.2643 31.004C66.7043 31.004 67.1163 30.784 67.5003 30.344V27.596C67.3003 27.412 67.1003 27.284 66.9003 27.212C66.7003 27.14 66.5003 27.104 66.3003 27.104C65.9243 27.104 65.6003 27.276 65.3283 27.62C65.0643 27.956 64.9323 28.432 64.9323 29.048C64.9323 29.68 65.0483 30.164 65.2803 30.5C65.5123 30.836 65.8403 31.004 66.2643 31.004Z" fill="#002949"/>
<path d="M224.333 32.144C223.677 32.144 223.089 31.984 222.569 31.664C222.057 31.336 221.649 30.868 221.345 30.26C221.049 29.652 220.901 28.92 220.901 28.064C220.901 27.216 221.053 26.488 221.357 25.88C221.661 25.272 222.077 24.804 222.605 24.476C223.133 24.148 223.729 23.984 224.393 23.984C224.873 23.984 225.297 24.084 225.665 24.284C226.033 24.476 226.329 24.7 226.553 24.956L226.013 25.604C225.805 25.38 225.569 25.2 225.305 25.064C225.041 24.928 224.741 24.86 224.405 24.86C223.909 24.86 223.473 24.992 223.097 25.256C222.729 25.512 222.441 25.876 222.233 26.348C222.033 26.82 221.933 27.384 221.933 28.04C221.933 28.696 222.033 29.268 222.233 29.756C222.433 30.236 222.713 30.608 223.073 30.872C223.441 31.136 223.873 31.268 224.369 31.268C224.745 31.268 225.081 31.188 225.377 31.028C225.673 30.868 225.945 30.652 226.193 30.38L226.745 31.004C226.433 31.364 226.081 31.644 225.689 31.844C225.297 32.044 224.845 32.144 224.333 32.144ZM230.385 32.144C229.913 32.144 229.469 32.024 229.053 31.784C228.645 31.544 228.313 31.196 228.057 30.74C227.809 30.284 227.685 29.736 227.685 29.096C227.685 28.44 227.809 27.884 228.057 27.428C228.313 26.972 228.645 26.624 229.053 26.384C229.469 26.144 229.913 26.024 230.385 26.024C230.865 26.024 231.309 26.144 231.717 26.384C232.125 26.624 232.453 26.972 232.701 27.428C232.957 27.884 233.085 28.44 233.085 29.096C233.085 29.736 232.957 30.284 232.701 30.74C232.453 31.196 232.125 31.544 231.717 31.784C231.309 32.024 230.865 32.144 230.385 32.144ZM230.385 31.328C230.889 31.328 231.293 31.124 231.597 30.716C231.909 30.3 232.065 29.76 232.065 29.096C232.065 28.424 231.909 27.88 231.597 27.464C231.293 27.048 230.889 26.84 230.385 26.84C229.889 26.84 229.485 27.048 229.173 27.464C228.861 27.88 228.705 28.424 228.705 29.096C228.705 29.76 228.861 30.3 229.173 30.716C229.485 31.124 229.889 31.328 230.385 31.328ZM234.621 32V26.168H235.437L235.521 27.008H235.557C235.837 26.728 236.133 26.496 236.445 26.312C236.757 26.12 237.113 26.024 237.513 26.024C238.129 26.024 238.577 26.22 238.857 26.612C239.145 26.996 239.289 27.56 239.289 28.304V32H238.305V28.436C238.305 27.892 238.217 27.496 238.041 27.248C237.865 27 237.585 26.876 237.201 26.876C236.905 26.876 236.637 26.952 236.397 27.104C236.165 27.256 235.901 27.48 235.605 27.776V32H234.621ZM241.351 32V26.972H240.559V26.228L241.351 26.168V25.244C241.351 24.652 241.487 24.184 241.759 23.84C242.039 23.488 242.471 23.312 243.055 23.312C243.239 23.312 243.415 23.332 243.583 23.372C243.751 23.404 243.899 23.448 244.027 23.504L243.811 24.26C243.595 24.164 243.375 24.116 243.151 24.116C242.607 24.116 242.335 24.492 242.335 25.244V26.168H243.571V26.972H242.335V32H241.351ZM244.687 32V26.168H245.671V32H244.687ZM245.191 24.968C244.999 24.968 244.839 24.912 244.711 24.8C244.591 24.68 244.531 24.52 244.531 24.32C244.531 24.128 244.591 23.972 244.711 23.852C244.839 23.732 244.999 23.672 245.191 23.672C245.383 23.672 245.539 23.732 245.659 23.852C245.787 23.972 245.851 24.128 245.851 24.32C245.851 24.52 245.787 24.68 245.659 24.8C245.539 24.912 245.383 24.968 245.191 24.968ZM247.64 32V26.168H248.456L248.54 27.224H248.576C248.776 26.856 249.02 26.564 249.308 26.348C249.596 26.132 249.904 26.024 250.232 26.024C250.464 26.024 250.672 26.064 250.856 26.144L250.664 27.008C250.568 26.976 250.48 26.952 250.4 26.936C250.32 26.92 250.22 26.912 250.1 26.912C249.852 26.912 249.592 27.012 249.32 27.212C249.056 27.412 248.824 27.76 248.624 28.256V32H247.64ZM251.8 32V26.168H252.616L252.7 27.008H252.736C252.992 26.728 253.272 26.496 253.576 26.312C253.88 26.12 254.204 26.024 254.548 26.024C254.996 26.024 255.344 26.124 255.592 26.324C255.848 26.516 256.036 26.788 256.156 27.14C256.46 26.812 256.768 26.544 257.08 26.336C257.392 26.128 257.724 26.024 258.076 26.024C258.676 26.024 259.12 26.22 259.408 26.612C259.704 26.996 259.852 27.56 259.852 28.304V32H258.868V28.436C258.868 27.892 258.78 27.496 258.604 27.248C258.428 27 258.156 26.876 257.788 26.876C257.356 26.876 256.868 27.176 256.324 27.776V32H255.34V28.436C255.34 27.892 255.252 27.496 255.076 27.248C254.9 27 254.624 26.876 254.248 26.876C253.816 26.876 253.328 27.176 252.784 27.776V32H251.8ZM263.094 32.144C262.606 32.144 262.198 32 261.87 31.712C261.55 31.416 261.39 31.008 261.39 30.488C261.39 29.848 261.674 29.36 262.242 29.024C262.818 28.68 263.726 28.44 264.966 28.304C264.966 28.056 264.93 27.82 264.858 27.596C264.794 27.372 264.674 27.192 264.498 27.056C264.33 26.912 264.086 26.84 263.766 26.84C263.43 26.84 263.114 26.904 262.818 27.032C262.522 27.16 262.258 27.304 262.026 27.464L261.642 26.78C261.914 26.604 262.246 26.436 262.638 26.276C263.038 26.108 263.47 26.024 263.934 26.024C264.646 26.024 265.162 26.244 265.482 26.684C265.802 27.116 265.962 27.696 265.962 28.424V32H265.146L265.062 31.304H265.026C264.754 31.528 264.454 31.724 264.126 31.892C263.806 32.06 263.462 32.144 263.094 32.144ZM263.382 31.352C263.662 31.352 263.926 31.284 264.174 31.148C264.422 31.012 264.686 30.82 264.966 30.572V28.952C263.998 29.072 263.318 29.252 262.926 29.492C262.542 29.732 262.35 30.04 262.35 30.416C262.35 30.744 262.45 30.984 262.65 31.136C262.85 31.28 263.094 31.352 263.382 31.352ZM269.468 32.144C268.844 32.144 268.408 31.964 268.16 31.604C267.92 31.244 267.8 30.776 267.8 30.2V26.972H266.936V26.228L267.848 26.168L267.968 24.536H268.796V26.168H270.368V26.972H268.796V30.212C268.796 30.572 268.86 30.852 268.988 31.052C269.124 31.244 269.36 31.34 269.696 31.34C269.8 31.34 269.912 31.324 270.032 31.292C270.152 31.252 270.26 31.216 270.356 31.184L270.548 31.928C270.388 31.984 270.212 32.032 270.02 32.072C269.836 32.12 269.652 32.144 269.468 32.144ZM271.687 32V26.168H272.671V32H271.687ZM272.191 24.968C271.999 24.968 271.839 24.912 271.711 24.8C271.591 24.68 271.531 24.52 271.531 24.32C271.531 24.128 271.591 23.972 271.711 23.852C271.839 23.732 271.999 23.672 272.191 23.672C272.383 23.672 272.539 23.732 272.659 23.852C272.787 23.972 272.851 24.128 272.851 24.32C272.851 24.52 272.787 24.68 272.659 24.8C272.539 24.912 272.383 24.968 272.191 24.968ZM276.908 32.144C276.436 32.144 275.992 32.024 275.576 31.784C275.168 31.544 274.836 31.196 274.58 30.74C274.332 30.284 274.208 29.736 274.208 29.096C274.208 28.44 274.332 27.884 274.58 27.428C274.836 26.972 275.168 26.624 275.576 26.384C275.992 26.144 276.436 26.024 276.908 26.024C277.388 26.024 277.832 26.144 278.24 26.384C278.648 26.624 278.976 26.972 279.224 27.428C279.48 27.884 279.608 28.44 279.608 29.096C279.608 29.736 279.48 30.284 279.224 30.74C278.976 31.196 278.648 31.544 278.24 31.784C277.832 32.024 277.388 32.144 276.908 32.144ZM276.908 31.328C277.412 31.328 277.816 31.124 278.12 30.716C278.432 30.3 278.588 29.76 278.588 29.096C278.588 28.424 278.432 27.88 278.12 27.464C277.816 27.048 277.412 26.84 276.908 26.84C276.412 26.84 276.008 27.048 275.696 27.464C275.384 27.88 275.228 28.424 275.228 29.096C275.228 29.76 275.384 30.3 275.696 30.716C276.008 31.124 276.412 31.328 276.908 31.328ZM281.144 32V26.168H281.96L282.044 27.008H282.08C282.36 26.728 282.656 26.496 282.968 26.312C283.28 26.12 283.636 26.024 284.036 26.024C284.652 26.024 285.1 26.22 285.38 26.612C285.668 26.996 285.812 27.56 285.812 28.304V32H284.828V28.436C284.828 27.892 284.74 27.496 284.564 27.248C284.388 27 284.108 26.876 283.724 26.876C283.428 26.876 283.16 26.952 282.92 27.104C282.688 27.256 282.424 27.48 282.128 27.776V32H281.144Z" fill="#7E8295"/>
<path d="M310.204 32.144C309.548 32.144 308.96 31.984 308.44 31.664C307.928 31.336 307.52 30.868 307.216 30.26C306.92 29.652 306.772 28.92 306.772 28.064C306.772 27.216 306.924 26.488 307.228 25.88C307.532 25.272 307.948 24.804 308.476 24.476C309.004 24.148 309.6 23.984 310.264 23.984C310.744 23.984 311.168 24.084 311.536 24.284C311.904 24.476 312.2 24.7 312.424 24.956L311.884 25.604C311.676 25.38 311.44 25.2 311.176 25.064C310.912 24.928 310.612 24.86 310.276 24.86C309.78 24.86 309.344 24.992 308.968 25.256C308.6 25.512 308.312 25.876 308.104 26.348C307.904 26.82 307.804 27.384 307.804 28.04C307.804 28.696 307.904 29.268 308.104 29.756C308.304 30.236 308.584 30.608 308.944 30.872C309.312 31.136 309.744 31.268 310.24 31.268C310.616 31.268 310.952 31.188 311.248 31.028C311.544 30.868 311.816 30.652 312.064 30.38L312.616 31.004C312.304 31.364 311.952 31.644 311.56 31.844C311.168 32.044 310.716 32.144 310.204 32.144ZM316.256 32.144C315.784 32.144 315.34 32.024 314.924 31.784C314.516 31.544 314.184 31.196 313.928 30.74C313.68 30.284 313.556 29.736 313.556 29.096C313.556 28.44 313.68 27.884 313.928 27.428C314.184 26.972 314.516 26.624 314.924 26.384C315.34 26.144 315.784 26.024 316.256 26.024C316.736 26.024 317.18 26.144 317.588 26.384C317.996 26.624 318.324 26.972 318.572 27.428C318.828 27.884 318.956 28.44 318.956 29.096C318.956 29.736 318.828 30.284 318.572 30.74C318.324 31.196 317.996 31.544 317.588 31.784C317.18 32.024 316.736 32.144 316.256 32.144ZM316.256 31.328C316.76 31.328 317.164 31.124 317.468 30.716C317.78 30.3 317.936 29.76 317.936 29.096C317.936 28.424 317.78 27.88 317.468 27.464C317.164 27.048 316.76 26.84 316.256 26.84C315.76 26.84 315.356 27.048 315.044 27.464C314.732 27.88 314.576 28.424 314.576 29.096C314.576 29.76 314.732 30.3 315.044 30.716C315.356 31.124 315.76 31.328 316.256 31.328ZM320.492 32V26.168H321.308L321.392 27.008H321.428C321.684 26.728 321.964 26.496 322.268 26.312C322.572 26.12 322.896 26.024 323.24 26.024C323.688 26.024 324.036 26.124 324.284 26.324C324.54 26.516 324.728 26.788 324.848 27.14C325.152 26.812 325.46 26.544 325.772 26.336C326.084 26.128 326.416 26.024 326.768 26.024C327.368 26.024 327.812 26.22 328.1 26.612C328.396 26.996 328.544 27.56 328.544 28.304V32H327.56V28.436C327.56 27.892 327.472 27.496 327.296 27.248C327.12 27 326.848 26.876 326.48 26.876C326.048 26.876 325.56 27.176 325.016 27.776V32H324.032V28.436C324.032 27.892 323.944 27.496 323.768 27.248C323.592 27 323.316 26.876 322.94 26.876C322.508 26.876 322.02 27.176 321.476 27.776V32H320.492ZM330.441 34.46V26.168H331.257L331.341 26.84H331.377C331.641 26.616 331.929 26.424 332.241 26.264C332.561 26.104 332.893 26.024 333.237 26.024C333.989 26.024 334.561 26.296 334.953 26.84C335.345 27.376 335.541 28.096 335.541 29C335.541 29.656 335.421 30.22 335.181 30.692C334.949 31.164 334.641 31.524 334.257 31.772C333.881 32.02 333.469 32.144 333.021 32.144C332.749 32.144 332.477 32.084 332.205 31.964C331.941 31.844 331.673 31.68 331.401 31.472L331.425 32.492V34.46H330.441ZM332.853 31.316C333.333 31.316 333.729 31.112 334.041 30.704C334.361 30.288 334.521 29.72 334.521 29C334.521 28.36 334.401 27.844 334.161 27.452C333.929 27.052 333.537 26.852 332.985 26.852C332.737 26.852 332.485 26.92 332.229 27.056C331.981 27.192 331.713 27.388 331.425 27.644V30.704C331.689 30.928 331.945 31.088 332.193 31.184C332.441 31.272 332.661 31.316 332.853 31.316ZM338.141 32.144C337.773 32.144 337.505 32.032 337.337 31.808C337.177 31.576 337.097 31.248 337.097 30.824V23.456H338.081V30.896C338.081 31.048 338.109 31.16 338.165 31.232C338.221 31.296 338.285 31.328 338.357 31.328C338.389 31.328 338.417 31.328 338.441 31.328C338.473 31.32 338.517 31.312 338.573 31.304L338.705 32.048C338.641 32.08 338.565 32.104 338.477 32.12C338.389 32.136 338.277 32.144 338.141 32.144ZM342.52 32.144C342 32.144 341.528 32.024 341.104 31.784C340.68 31.536 340.344 31.184 340.096 30.728C339.848 30.272 339.724 29.728 339.724 29.096C339.724 28.456 339.848 27.908 340.096 27.452C340.352 26.996 340.68 26.644 341.08 26.396C341.48 26.148 341.9 26.024 342.34 26.024C343.084 26.024 343.656 26.272 344.056 26.768C344.464 27.264 344.668 27.928 344.668 28.76C344.668 28.864 344.664 28.968 344.656 29.072C344.656 29.168 344.648 29.252 344.632 29.324H340.696C340.736 29.94 340.928 30.432 341.272 30.8C341.624 31.168 342.08 31.352 342.64 31.352C342.92 31.352 343.176 31.312 343.408 31.232C343.648 31.144 343.876 31.032 344.092 30.896L344.44 31.544C344.192 31.704 343.908 31.844 343.588 31.964C343.276 32.084 342.92 32.144 342.52 32.144ZM340.684 28.616H343.804C343.804 28.024 343.676 27.576 343.42 27.272C343.172 26.96 342.82 26.804 342.364 26.804C341.956 26.804 341.588 26.964 341.26 27.284C340.94 27.596 340.748 28.04 340.684 28.616ZM347.828 32.144C347.204 32.144 346.768 31.964 346.52 31.604C346.28 31.244 346.16 30.776 346.16 30.2V26.972H345.296V26.228L346.208 26.168L346.328 24.536H347.156V26.168H348.728V26.972H347.156V30.212C347.156 30.572 347.22 30.852 347.348 31.052C347.484 31.244 347.72 31.34 348.056 31.34C348.16 31.34 348.272 31.324 348.392 31.292C348.512 31.252 348.62 31.216 348.716 31.184L348.908 31.928C348.748 31.984 348.572 32.032 348.38 32.072C348.196 32.12 348.012 32.144 347.828 32.144ZM352.246 32.144C351.726 32.144 351.254 32.024 350.83 31.784C350.406 31.536 350.07 31.184 349.822 30.728C349.574 30.272 349.45 29.728 349.45 29.096C349.45 28.456 349.574 27.908 349.822 27.452C350.078 26.996 350.406 26.644 350.806 26.396C351.206 26.148 351.626 26.024 352.066 26.024C352.81 26.024 353.382 26.272 353.782 26.768C354.19 27.264 354.394 27.928 354.394 28.76C354.394 28.864 354.39 28.968 354.382 29.072C354.382 29.168 354.374 29.252 354.358 29.324H350.422C350.462 29.94 350.654 30.432 350.998 30.8C351.35 31.168 351.806 31.352 352.366 31.352C352.646 31.352 352.902 31.312 353.134 31.232C353.374 31.144 353.602 31.032 353.818 30.896L354.166 31.544C353.918 31.704 353.634 31.844 353.314 31.964C353.002 32.084 352.646 32.144 352.246 32.144ZM350.41 28.616H353.53C353.53 28.024 353.402 27.576 353.146 27.272C352.898 26.96 352.546 26.804 352.09 26.804C351.682 26.804 351.314 26.964 350.986 27.284C350.666 27.596 350.474 28.04 350.41 28.616Z" fill="#7E8295"/>
<path d="M90.8735 27.596L90.5015 28.796H92.8655L92.4935 27.596C92.3495 27.156 92.2135 26.72 92.0855 26.288C91.9575 25.848 91.8295 25.4 91.7015 24.944H91.6535C91.5335 25.4 91.4095 25.848 91.2815 26.288C91.1535 26.72 91.0175 27.156 90.8735 27.596ZM88.4735 32L91.1375 24.128H92.2655L94.9295 32H93.8615L93.1175 29.6H90.2495L89.4935 32H88.4735ZM95.9488 32V26.168H96.7648L96.8488 27.008H96.8848C97.1408 26.728 97.4208 26.496 97.7248 26.312C98.0288 26.12 98.3528 26.024 98.6968 26.024C99.1448 26.024 99.4928 26.124 99.7408 26.324C99.9968 26.516 100.185 26.788 100.305 27.14C100.609 26.812 100.917 26.544 101.229 26.336C101.541 26.128 101.873 26.024 102.225 26.024C102.825 26.024 103.269 26.22 103.557 26.612C103.853 26.996 104.001 27.56 104.001 28.304V32H103.017V28.436C103.017 27.892 102.929 27.496 102.753 27.248C102.577 27 102.305 26.876 101.937 26.876C101.505 26.876 101.017 27.176 100.473 27.776V32H99.4888V28.436C99.4888 27.892 99.4008 27.496 99.2248 27.248C99.0488 27 98.7728 26.876 98.3968 26.876C97.9648 26.876 97.4768 27.176 96.9328 27.776V32H95.9488ZM108.166 32.144C107.694 32.144 107.25 32.024 106.834 31.784C106.426 31.544 106.094 31.196 105.838 30.74C105.59 30.284 105.466 29.736 105.466 29.096C105.466 28.44 105.59 27.884 105.838 27.428C106.094 26.972 106.426 26.624 106.834 26.384C107.25 26.144 107.694 26.024 108.166 26.024C108.646 26.024 109.09 26.144 109.498 26.384C109.906 26.624 110.234 26.972 110.482 27.428C110.738 27.884 110.866 28.44 110.866 29.096C110.866 29.736 110.738 30.284 110.482 30.74C110.234 31.196 109.906 31.544 109.498 31.784C109.09 32.024 108.646 32.144 108.166 32.144ZM108.166 31.328C108.67 31.328 109.074 31.124 109.378 30.716C109.69 30.3 109.846 29.76 109.846 29.096C109.846 28.424 109.69 27.88 109.378 27.464C109.074 27.048 108.67 26.84 108.166 26.84C107.67 26.84 107.266 27.048 106.954 27.464C106.642 27.88 106.486 28.424 106.486 29.096C106.486 29.76 106.642 30.3 106.954 30.716C107.266 31.124 107.67 31.328 108.166 31.328ZM114.106 32.144C113.49 32.144 113.038 31.952 112.75 31.568C112.462 31.176 112.318 30.608 112.318 29.864V26.168H113.314V29.732C113.314 30.276 113.398 30.672 113.566 30.92C113.742 31.168 114.022 31.292 114.406 31.292C114.71 31.292 114.978 31.216 115.21 31.064C115.45 30.904 115.706 30.652 115.978 30.308V26.168H116.962V32H116.146L116.062 31.088H116.026C115.754 31.408 115.466 31.664 115.162 31.856C114.858 32.048 114.506 32.144 114.106 32.144ZM118.929 32V26.168H119.745L119.829 27.008H119.865C120.145 26.728 120.441 26.496 120.753 26.312C121.065 26.12 121.421 26.024 121.821 26.024C122.437 26.024 122.885 26.22 123.165 26.612C123.453 26.996 123.597 27.56 123.597 28.304V32H122.613V28.436C122.613 27.892 122.525 27.496 122.349 27.248C122.173 27 121.893 26.876 121.509 26.876C121.213 26.876 120.945 26.952 120.705 27.104C120.473 27.256 120.209 27.48 119.913 27.776V32H118.929ZM127.328 32.144C126.704 32.144 126.268 31.964 126.02 31.604C125.78 31.244 125.66 30.776 125.66 30.2V26.972H124.796V26.228L125.708 26.168L125.828 24.536H126.656V26.168H128.228V26.972H126.656V30.212C126.656 30.572 126.72 30.852 126.848 31.052C126.984 31.244 127.22 31.34 127.556 31.34C127.66 31.34 127.772 31.324 127.892 31.292C128.012 31.252 128.12 31.216 128.216 31.184L128.408 31.928C128.248 31.984 128.072 32.032 127.88 32.072C127.696 32.12 127.512 32.144 127.328 32.144Z" fill="#7E8295"/>
<path d="M156.355 32V24.128H158.599C159.191 24.128 159.707 24.2 160.147 24.344C160.587 24.488 160.931 24.732 161.179 25.076C161.427 25.412 161.551 25.868 161.551 26.444C161.551 27.268 161.283 27.88 160.747 28.28C160.211 28.68 159.511 28.88 158.647 28.88H157.351V32H156.355ZM157.351 28.064H158.527C159.215 28.064 159.723 27.936 160.051 27.68C160.387 27.416 160.555 27.004 160.555 26.444C160.555 25.876 160.379 25.484 160.027 25.268C159.683 25.044 159.167 24.932 158.479 24.932H157.351V28.064ZM163.885 32.144C163.397 32.144 162.989 32 162.661 31.712C162.341 31.416 162.181 31.008 162.181 30.488C162.181 29.848 162.465 29.36 163.033 29.024C163.609 28.68 164.517 28.44 165.757 28.304C165.757 28.056 165.721 27.82 165.649 27.596C165.585 27.372 165.465 27.192 165.289 27.056C165.121 26.912 164.877 26.84 164.557 26.84C164.221 26.84 163.905 26.904 163.609 27.032C163.313 27.16 163.049 27.304 162.817 27.464L162.433 26.78C162.705 26.604 163.037 26.436 163.429 26.276C163.829 26.108 164.261 26.024 164.725 26.024C165.437 26.024 165.953 26.244 166.273 26.684C166.593 27.116 166.753 27.696 166.753 28.424V32H165.937L165.853 31.304H165.817C165.545 31.528 165.245 31.724 164.917 31.892C164.597 32.06 164.253 32.144 163.885 32.144ZM164.173 31.352C164.453 31.352 164.717 31.284 164.965 31.148C165.213 31.012 165.477 30.82 165.757 30.572V28.952C164.789 29.072 164.109 29.252 163.717 29.492C163.333 29.732 163.141 30.04 163.141 30.416C163.141 30.744 163.241 30.984 163.441 31.136C163.641 31.28 163.885 31.352 164.173 31.352ZM168.684 34.508C168.556 34.508 168.432 34.496 168.312 34.472C168.2 34.448 168.096 34.42 168 34.388L168.192 33.608C168.256 33.624 168.328 33.64 168.408 33.656C168.488 33.68 168.564 33.692 168.636 33.692C168.964 33.692 169.236 33.572 169.452 33.332C169.668 33.1 169.836 32.804 169.956 32.444L170.088 32.012L167.748 26.168H168.768L169.956 29.396C170.044 29.644 170.136 29.912 170.232 30.2C170.336 30.488 170.432 30.768 170.52 31.04H170.568C170.656 30.776 170.74 30.5 170.82 30.212C170.9 29.924 170.98 29.652 171.06 29.396L172.104 26.168H173.064L170.868 32.48C170.732 32.864 170.568 33.208 170.376 33.512C170.192 33.816 169.96 34.056 169.68 34.232C169.408 34.416 169.076 34.508 168.684 34.508ZM174.189 32V26.168H175.005L175.089 27.008H175.125C175.381 26.728 175.661 26.496 175.965 26.312C176.269 26.12 176.593 26.024 176.937 26.024C177.385 26.024 177.733 26.124 177.981 26.324C178.237 26.516 178.425 26.788 178.545 27.14C178.849 26.812 179.157 26.544 179.469 26.336C179.781 26.128 180.113 26.024 180.465 26.024C181.065 26.024 181.509 26.22 181.797 26.612C182.093 26.996 182.241 27.56 182.241 28.304V32H181.257V28.436C181.257 27.892 181.169 27.496 180.993 27.248C180.817 27 180.545 26.876 180.177 26.876C179.745 26.876 179.257 27.176 178.713 27.776V32H177.729V28.436C177.729 27.892 177.641 27.496 177.465 27.248C177.289 27 177.013 26.876 176.637 26.876C176.205 26.876 175.717 27.176 175.173 27.776V32H174.189ZM186.502 32.144C185.982 32.144 185.51 32.024 185.086 31.784C184.662 31.536 184.326 31.184 184.078 30.728C183.83 30.272 183.706 29.728 183.706 29.096C183.706 28.456 183.83 27.908 184.078 27.452C184.334 26.996 184.662 26.644 185.062 26.396C185.462 26.148 185.882 26.024 186.322 26.024C187.066 26.024 187.638 26.272 188.038 26.768C188.446 27.264 188.65 27.928 188.65 28.76C188.65 28.864 188.646 28.968 188.638 29.072C188.638 29.168 188.63 29.252 188.614 29.324H184.678C184.718 29.94 184.91 30.432 185.254 30.8C185.606 31.168 186.062 31.352 186.622 31.352C186.902 31.352 187.158 31.312 187.39 31.232C187.63 31.144 187.858 31.032 188.074 30.896L188.422 31.544C188.174 31.704 187.89 31.844 187.57 31.964C187.258 32.084 186.902 32.144 186.502 32.144ZM184.666 28.616H187.786C187.786 28.024 187.658 27.576 187.402 27.272C187.154 26.96 186.802 26.804 186.346 26.804C185.938 26.804 185.57 26.964 185.242 27.284C184.922 27.596 184.73 28.04 184.666 28.616ZM190.091 32V26.168H190.907L190.991 27.008H191.027C191.307 26.728 191.603 26.496 191.915 26.312C192.227 26.12 192.583 26.024 192.983 26.024C193.599 26.024 194.047 26.22 194.327 26.612C194.615 26.996 194.759 27.56 194.759 28.304V32H193.775V28.436C193.775 27.892 193.687 27.496 193.511 27.248C193.335 27 193.055 26.876 192.671 26.876C192.375 26.876 192.107 26.952 191.867 27.104C191.635 27.256 191.371 27.48 191.075 27.776V32H190.091ZM198.49 32.144C197.866 32.144 197.43 31.964 197.182 31.604C196.942 31.244 196.822 30.776 196.822 30.2V26.972H195.958V26.228L196.87 26.168L196.99 24.536H197.818V26.168H199.39V26.972H197.818V30.212C197.818 30.572 197.882 30.852 198.01 31.052C198.146 31.244 198.382 31.34 198.718 31.34C198.822 31.34 198.934 31.324 199.054 31.292C199.174 31.252 199.282 31.216 199.378 31.184L199.57 31.928C199.41 31.984 199.234 32.032 199.042 32.072C198.858 32.12 198.674 32.144 198.49 32.144Z" fill="#7E8295"/>
<circle cx="32.8435" cy="6.84349" r="5.84349" fill="#31EE50"/>
<circle cx="176.843" cy="6.84349" r="5.84349" fill="#7E8295"/>
<circle cx="107.843" cy="6.84349" r="5.84349" fill="#7E8295"/>
<circle cx="256.144" cy="7.14357" r="5.84349" transform="rotate(-14.8171 256.144 7.14357)" fill="#7E8295"/>
<path d="M337.843 6.84349C337.843 10.0708 335.227 12.687 332 12.687C328.772 12.687 326.156 10.0708 326.156 6.84349C326.156 3.61622 328.772 1 332 1C335.227 1 337.843 3.61622 337.843 6.84349Z" fill="#7E8295"/>
<rect x="38" y="6" width="64" height="3" fill="#7E8295"/>
</svg>
