<svg width="353" height="36" viewBox="0 0 353 36" fill="none" xmlns="http://www.w3.org/2000/svg">
<path d="M259 6H329V9H259V6Z" fill="#7E8295"/>
<rect x="179" y="6" width="70" height="3" fill="#7E8295"/>
<rect x="106" y="6" width="70" height="3" fill="#7E8295"/>
<path d="M1.66789 32V24.128H2.86789L4.37989 28.328C4.47589 28.6 4.56789 28.876 4.65589 29.156C4.75189 29.428 4.84789 29.7 4.94389 29.972H4.99189C5.08789 29.7 5.17589 29.428 5.25589 29.156C5.34389 28.876 5.43589 28.6 5.53189 28.328L7.01989 24.128H8.23189V32H7.29589V27.668C7.29589 27.316 7.31189 26.928 7.34389 26.504C7.37589 26.072 7.40389 25.684 7.42789 25.34H7.37989L6.75589 27.128L5.26789 31.208H4.60789L3.11989 27.128L2.49589 25.34H2.44789C2.47189 25.684 2.49589 26.072 2.51989 26.504C2.55189 26.928 2.56789 27.316 2.56789 27.668V32H1.66789ZM11.9946 32.144C11.3786 32.144 10.9266 31.952 10.6386 31.568C10.3506 31.176 10.2066 30.608 10.2066 29.864V26.168H11.2026V29.732C11.2026 30.276 11.2866 30.672 11.4546 30.92C11.6306 31.168 11.9106 31.292 12.2946 31.292C12.5986 31.292 12.8666 31.216 13.0986 31.064C13.3386 30.904 13.5946 30.652 13.8666 30.308V26.168H14.8506V32H14.0346L13.9506 31.088H13.9146C13.6426 31.408 13.3546 31.664 13.0506 31.856C12.7466 32.048 12.3946 32.144 11.9946 32.144ZM18.654 32.144C18.03 32.144 17.594 31.964 17.346 31.604C17.106 31.244 16.986 30.776 16.986 30.2V26.972H16.122V26.228L17.034 26.168L17.154 24.536H17.982V26.168H19.554V26.972H17.982V30.212C17.982 30.572 18.046 30.852 18.174 31.052C18.31 31.244 18.546 31.34 18.882 31.34C18.986 31.34 19.098 31.324 19.218 31.292C19.338 31.252 19.446 31.216 19.542 31.184L19.734 31.928C19.574 31.984 19.398 32.032 19.206 32.072C19.022 32.12 18.838 32.144 18.654 32.144ZM22.5767 32.144C21.9607 32.144 21.5087 31.952 21.2207 31.568C20.9327 31.176 20.7887 30.608 20.7887 29.864V26.168H21.7847V29.732C21.7847 30.276 21.8687 30.672 22.0367 30.92C22.2127 31.168 22.4927 31.292 22.8767 31.292C23.1807 31.292 23.4487 31.216 23.6807 31.064C23.9207 30.904 24.1767 30.652 24.4487 30.308V26.168H25.4327V32H24.6167L24.5327 31.088H24.4967C24.2247 31.408 23.9367 31.664 23.6327 31.856C23.3287 32.048 22.9767 32.144 22.5767 32.144ZM28.744 32.144C28.256 32.144 27.848 32 27.52 31.712C27.2 31.416 27.04 31.008 27.04 30.488C27.04 29.848 27.324 29.36 27.892 29.024C28.468 28.68 29.376 28.44 30.616 28.304C30.616 28.056 30.58 27.82 30.508 27.596C30.444 27.372 30.324 27.192 30.148 27.056C29.98 26.912 29.736 26.84 29.416 26.84C29.08 26.84 28.764 26.904 28.468 27.032C28.172 27.16 27.908 27.304 27.676 27.464L27.292 26.78C27.564 26.604 27.896 26.436 28.288 26.276C28.688 26.108 29.12 26.024 29.584 26.024C30.296 26.024 30.812 26.244 31.132 26.684C31.452 27.116 31.612 27.696 31.612 28.424V32H30.796L30.712 31.304H30.676C30.404 31.528 30.104 31.724 29.776 31.892C29.456 32.06 29.112 32.144 28.744 32.144ZM29.032 31.352C29.312 31.352 29.576 31.284 29.824 31.148C30.072 31.012 30.336 30.82 30.616 30.572V28.952C29.648 29.072 28.968 29.252 28.576 29.492C28.192 29.732 28 30.04 28 30.416C28 30.744 28.1 30.984 28.3 31.136C28.5 31.28 28.744 31.352 29.032 31.352ZM34.4909 32.144C34.1229 32.144 33.8549 32.032 33.6869 31.808C33.5269 31.576 33.4469 31.248 33.4469 30.824V23.456H34.4309V30.896C34.4309 31.048 34.4589 31.16 34.5149 31.232C34.5709 31.296 34.6349 31.328 34.7069 31.328C34.7389 31.328 34.7669 31.328 34.7909 31.328C34.8229 31.32 34.8669 31.312 34.9229 31.304L35.0549 32.048C34.9909 32.08 34.9149 32.104 34.8269 32.12C34.7389 32.136 34.6269 32.144 34.4909 32.144ZM39.0038 32V24.128H43.5398V24.968H39.9998V27.632H42.9998V28.472H39.9998V32H39.0038ZM46.354 32.144C45.738 32.144 45.286 31.952 44.998 31.568C44.71 31.176 44.566 30.608 44.566 29.864V26.168H45.562V29.732C45.562 30.276 45.646 30.672 45.814 30.92C45.99 31.168 46.27 31.292 46.654 31.292C46.958 31.292 47.226 31.216 47.458 31.064C47.698 30.904 47.954 30.652 48.226 30.308V26.168H49.21V32H48.394L48.31 31.088H48.274C48.002 31.408 47.714 31.664 47.41 31.856C47.106 32.048 46.754 32.144 46.354 32.144ZM51.1774 32V26.168H51.9934L52.0774 27.008H52.1134C52.3934 26.728 52.6894 26.496 53.0014 26.312C53.3134 26.12 53.6694 26.024 54.0694 26.024C54.6854 26.024 55.1334 26.22 55.4134 26.612C55.7014 26.996 55.8454 27.56 55.8454 28.304V32H54.8614V28.436C54.8614 27.892 54.7734 27.496 54.5974 27.248C54.4214 27 54.1414 26.876 53.7574 26.876C53.4614 26.876 53.1934 26.952 52.9534 27.104C52.7214 27.256 52.4574 27.48 52.1614 27.776V32H51.1774ZM59.7319 32.144C59.0039 32.144 58.4199 31.88 57.9799 31.352C57.5399 30.816 57.3199 30.064 57.3199 29.096C57.3199 28.464 57.4359 27.92 57.6679 27.464C57.9079 27 58.2199 26.644 58.6039 26.396C58.9959 26.148 59.4119 26.024 59.8519 26.024C60.1879 26.024 60.4799 26.084 60.7279 26.204C60.9759 26.324 61.2279 26.488 61.4839 26.696L61.4359 25.7V23.456H62.4319V32H61.6159L61.5319 31.316H61.4959C61.2719 31.54 61.0079 31.736 60.7039 31.904C60.3999 32.064 60.0759 32.144 59.7319 32.144ZM59.9479 31.316C60.4599 31.316 60.9559 31.048 61.4359 30.512V27.464C61.1879 27.24 60.9479 27.084 60.7159 26.996C60.4919 26.9 60.2599 26.852 60.0199 26.852C59.7079 26.852 59.4239 26.948 59.1679 27.14C58.9199 27.324 58.7199 27.584 58.5679 27.92C58.4159 28.248 58.3399 28.636 58.3399 29.084C58.3399 29.78 58.4799 30.328 58.7599 30.728C59.0399 31.12 59.4359 31.316 59.9479 31.316Z" fill="#002949"/>
<path d="M222.333 32.144C221.677 32.144 221.089 31.984 220.569 31.664C220.057 31.336 219.649 30.868 219.345 30.26C219.049 29.652 218.901 28.92 218.901 28.064C218.901 27.216 219.053 26.488 219.357 25.88C219.661 25.272 220.077 24.804 220.605 24.476C221.133 24.148 221.729 23.984 222.393 23.984C222.873 23.984 223.297 24.084 223.665 24.284C224.033 24.476 224.329 24.7 224.553 24.956L224.013 25.604C223.805 25.38 223.569 25.2 223.305 25.064C223.041 24.928 222.741 24.86 222.405 24.86C221.909 24.86 221.473 24.992 221.097 25.256C220.729 25.512 220.441 25.876 220.233 26.348C220.033 26.82 219.933 27.384 219.933 28.04C219.933 28.696 220.033 29.268 220.233 29.756C220.433 30.236 220.713 30.608 221.073 30.872C221.441 31.136 221.873 31.268 222.369 31.268C222.745 31.268 223.081 31.188 223.377 31.028C223.673 30.868 223.945 30.652 224.193 30.38L224.745 31.004C224.433 31.364 224.081 31.644 223.689 31.844C223.297 32.044 222.845 32.144 222.333 32.144ZM228.385 32.144C227.913 32.144 227.469 32.024 227.053 31.784C226.645 31.544 226.313 31.196 226.057 30.74C225.809 30.284 225.685 29.736 225.685 29.096C225.685 28.44 225.809 27.884 226.057 27.428C226.313 26.972 226.645 26.624 227.053 26.384C227.469 26.144 227.913 26.024 228.385 26.024C228.865 26.024 229.309 26.144 229.717 26.384C230.125 26.624 230.453 26.972 230.701 27.428C230.957 27.884 231.085 28.44 231.085 29.096C231.085 29.736 230.957 30.284 230.701 30.74C230.453 31.196 230.125 31.544 229.717 31.784C229.309 32.024 228.865 32.144 228.385 32.144ZM228.385 31.328C228.889 31.328 229.293 31.124 229.597 30.716C229.909 30.3 230.065 29.76 230.065 29.096C230.065 28.424 229.909 27.88 229.597 27.464C229.293 27.048 228.889 26.84 228.385 26.84C227.889 26.84 227.485 27.048 227.173 27.464C226.861 27.88 226.705 28.424 226.705 29.096C226.705 29.76 226.861 30.3 227.173 30.716C227.485 31.124 227.889 31.328 228.385 31.328ZM232.621 32V26.168H233.437L233.521 27.008H233.557C233.837 26.728 234.133 26.496 234.445 26.312C234.757 26.12 235.113 26.024 235.513 26.024C236.129 26.024 236.577 26.22 236.857 26.612C237.145 26.996 237.289 27.56 237.289 28.304V32H236.305V28.436C236.305 27.892 236.217 27.496 236.041 27.248C235.865 27 235.585 26.876 235.201 26.876C234.905 26.876 234.637 26.952 234.397 27.104C234.165 27.256 233.901 27.48 233.605 27.776V32H232.621ZM239.351 32V26.972H238.559V26.228L239.351 26.168V25.244C239.351 24.652 239.487 24.184 239.759 23.84C240.039 23.488 240.471 23.312 241.055 23.312C241.239 23.312 241.415 23.332 241.583 23.372C241.751 23.404 241.899 23.448 242.027 23.504L241.811 24.26C241.595 24.164 241.375 24.116 241.151 24.116C240.607 24.116 240.335 24.492 240.335 25.244V26.168H241.571V26.972H240.335V32H239.351ZM242.687 32V26.168H243.671V32H242.687ZM243.191 24.968C242.999 24.968 242.839 24.912 242.711 24.8C242.591 24.68 242.531 24.52 242.531 24.32C242.531 24.128 242.591 23.972 242.711 23.852C242.839 23.732 242.999 23.672 243.191 23.672C243.383 23.672 243.539 23.732 243.659 23.852C243.787 23.972 243.851 24.128 243.851 24.32C243.851 24.52 243.787 24.68 243.659 24.8C243.539 24.912 243.383 24.968 243.191 24.968ZM245.64 32V26.168H246.456L246.54 27.224H246.576C246.776 26.856 247.02 26.564 247.308 26.348C247.596 26.132 247.904 26.024 248.232 26.024C248.464 26.024 248.672 26.064 248.856 26.144L248.664 27.008C248.568 26.976 248.48 26.952 248.4 26.936C248.32 26.92 248.22 26.912 248.1 26.912C247.852 26.912 247.592 27.012 247.32 27.212C247.056 27.412 246.824 27.76 246.624 28.256V32H245.64ZM249.8 32V26.168H250.616L250.7 27.008H250.736C250.992 26.728 251.272 26.496 251.576 26.312C251.88 26.12 252.204 26.024 252.548 26.024C252.996 26.024 253.344 26.124 253.592 26.324C253.848 26.516 254.036 26.788 254.156 27.14C254.46 26.812 254.768 26.544 255.08 26.336C255.392 26.128 255.724 26.024 256.076 26.024C256.676 26.024 257.12 26.22 257.408 26.612C257.704 26.996 257.852 27.56 257.852 28.304V32H256.868V28.436C256.868 27.892 256.78 27.496 256.604 27.248C256.428 27 256.156 26.876 255.788 26.876C255.356 26.876 254.868 27.176 254.324 27.776V32H253.34V28.436C253.34 27.892 253.252 27.496 253.076 27.248C252.9 27 252.624 26.876 252.248 26.876C251.816 26.876 251.328 27.176 250.784 27.776V32H249.8ZM261.094 32.144C260.606 32.144 260.198 32 259.87 31.712C259.55 31.416 259.39 31.008 259.39 30.488C259.39 29.848 259.674 29.36 260.242 29.024C260.818 28.68 261.726 28.44 262.966 28.304C262.966 28.056 262.93 27.82 262.858 27.596C262.794 27.372 262.674 27.192 262.498 27.056C262.33 26.912 262.086 26.84 261.766 26.84C261.43 26.84 261.114 26.904 260.818 27.032C260.522 27.16 260.258 27.304 260.026 27.464L259.642 26.78C259.914 26.604 260.246 26.436 260.638 26.276C261.038 26.108 261.47 26.024 261.934 26.024C262.646 26.024 263.162 26.244 263.482 26.684C263.802 27.116 263.962 27.696 263.962 28.424V32H263.146L263.062 31.304H263.026C262.754 31.528 262.454 31.724 262.126 31.892C261.806 32.06 261.462 32.144 261.094 32.144ZM261.382 31.352C261.662 31.352 261.926 31.284 262.174 31.148C262.422 31.012 262.686 30.82 262.966 30.572V28.952C261.998 29.072 261.318 29.252 260.926 29.492C260.542 29.732 260.35 30.04 260.35 30.416C260.35 30.744 260.45 30.984 260.65 31.136C260.85 31.28 261.094 31.352 261.382 31.352ZM267.468 32.144C266.844 32.144 266.408 31.964 266.16 31.604C265.92 31.244 265.8 30.776 265.8 30.2V26.972H264.936V26.228L265.848 26.168L265.968 24.536H266.796V26.168H268.368V26.972H266.796V30.212C266.796 30.572 266.86 30.852 266.988 31.052C267.124 31.244 267.36 31.34 267.696 31.34C267.8 31.34 267.912 31.324 268.032 31.292C268.152 31.252 268.26 31.216 268.356 31.184L268.548 31.928C268.388 31.984 268.212 32.032 268.02 32.072C267.836 32.12 267.652 32.144 267.468 32.144ZM269.687 32V26.168H270.671V32H269.687ZM270.191 24.968C269.999 24.968 269.839 24.912 269.711 24.8C269.591 24.68 269.531 24.52 269.531 24.32C269.531 24.128 269.591 23.972 269.711 23.852C269.839 23.732 269.999 23.672 270.191 23.672C270.383 23.672 270.539 23.732 270.659 23.852C270.787 23.972 270.851 24.128 270.851 24.32C270.851 24.52 270.787 24.68 270.659 24.8C270.539 24.912 270.383 24.968 270.191 24.968ZM274.908 32.144C274.436 32.144 273.992 32.024 273.576 31.784C273.168 31.544 272.836 31.196 272.58 30.74C272.332 30.284 272.208 29.736 272.208 29.096C272.208 28.44 272.332 27.884 272.58 27.428C272.836 26.972 273.168 26.624 273.576 26.384C273.992 26.144 274.436 26.024 274.908 26.024C275.388 26.024 275.832 26.144 276.24 26.384C276.648 26.624 276.976 26.972 277.224 27.428C277.48 27.884 277.608 28.44 277.608 29.096C277.608 29.736 277.48 30.284 277.224 30.74C276.976 31.196 276.648 31.544 276.24 31.784C275.832 32.024 275.388 32.144 274.908 32.144ZM274.908 31.328C275.412 31.328 275.816 31.124 276.12 30.716C276.432 30.3 276.588 29.76 276.588 29.096C276.588 28.424 276.432 27.88 276.12 27.464C275.816 27.048 275.412 26.84 274.908 26.84C274.412 26.84 274.008 27.048 273.696 27.464C273.384 27.88 273.228 28.424 273.228 29.096C273.228 29.76 273.384 30.3 273.696 30.716C274.008 31.124 274.412 31.328 274.908 31.328ZM279.144 32V26.168H279.96L280.044 27.008H280.08C280.36 26.728 280.656 26.496 280.968 26.312C281.28 26.12 281.636 26.024 282.036 26.024C282.652 26.024 283.1 26.22 283.38 26.612C283.668 26.996 283.812 27.56 283.812 28.304V32H282.828V28.436C282.828 27.892 282.74 27.496 282.564 27.248C282.388 27 282.108 26.876 281.724 26.876C281.428 26.876 281.16 26.952 280.92 27.104C280.688 27.256 280.424 27.48 280.128 27.776V32H279.144Z" fill="#7E8295"/>
<path d="M308.204 32.144C307.548 32.144 306.96 31.984 306.44 31.664C305.928 31.336 305.52 30.868 305.216 30.26C304.92 29.652 304.772 28.92 304.772 28.064C304.772 27.216 304.924 26.488 305.228 25.88C305.532 25.272 305.948 24.804 306.476 24.476C307.004 24.148 307.6 23.984 308.264 23.984C308.744 23.984 309.168 24.084 309.536 24.284C309.904 24.476 310.2 24.7 310.424 24.956L309.884 25.604C309.676 25.38 309.44 25.2 309.176 25.064C308.912 24.928 308.612 24.86 308.276 24.86C307.78 24.86 307.344 24.992 306.968 25.256C306.6 25.512 306.312 25.876 306.104 26.348C305.904 26.82 305.804 27.384 305.804 28.04C305.804 28.696 305.904 29.268 306.104 29.756C306.304 30.236 306.584 30.608 306.944 30.872C307.312 31.136 307.744 31.268 308.24 31.268C308.616 31.268 308.952 31.188 309.248 31.028C309.544 30.868 309.816 30.652 310.064 30.38L310.616 31.004C310.304 31.364 309.952 31.644 309.56 31.844C309.168 32.044 308.716 32.144 308.204 32.144ZM314.256 32.144C313.784 32.144 313.34 32.024 312.924 31.784C312.516 31.544 312.184 31.196 311.928 30.74C311.68 30.284 311.556 29.736 311.556 29.096C311.556 28.44 311.68 27.884 311.928 27.428C312.184 26.972 312.516 26.624 312.924 26.384C313.34 26.144 313.784 26.024 314.256 26.024C314.736 26.024 315.18 26.144 315.588 26.384C315.996 26.624 316.324 26.972 316.572 27.428C316.828 27.884 316.956 28.44 316.956 29.096C316.956 29.736 316.828 30.284 316.572 30.74C316.324 31.196 315.996 31.544 315.588 31.784C315.18 32.024 314.736 32.144 314.256 32.144ZM314.256 31.328C314.76 31.328 315.164 31.124 315.468 30.716C315.78 30.3 315.936 29.76 315.936 29.096C315.936 28.424 315.78 27.88 315.468 27.464C315.164 27.048 314.76 26.84 314.256 26.84C313.76 26.84 313.356 27.048 313.044 27.464C312.732 27.88 312.576 28.424 312.576 29.096C312.576 29.76 312.732 30.3 313.044 30.716C313.356 31.124 313.76 31.328 314.256 31.328ZM318.492 32V26.168H319.308L319.392 27.008H319.428C319.684 26.728 319.964 26.496 320.268 26.312C320.572 26.12 320.896 26.024 321.24 26.024C321.688 26.024 322.036 26.124 322.284 26.324C322.54 26.516 322.728 26.788 322.848 27.14C323.152 26.812 323.46 26.544 323.772 26.336C324.084 26.128 324.416 26.024 324.768 26.024C325.368 26.024 325.812 26.22 326.1 26.612C326.396 26.996 326.544 27.56 326.544 28.304V32H325.56V28.436C325.56 27.892 325.472 27.496 325.296 27.248C325.12 27 324.848 26.876 324.48 26.876C324.048 26.876 323.56 27.176 323.016 27.776V32H322.032V28.436C322.032 27.892 321.944 27.496 321.768 27.248C321.592 27 321.316 26.876 320.94 26.876C320.508 26.876 320.02 27.176 319.476 27.776V32H318.492ZM328.441 34.46V26.168H329.257L329.341 26.84H329.377C329.641 26.616 329.929 26.424 330.241 26.264C330.561 26.104 330.893 26.024 331.237 26.024C331.989 26.024 332.561 26.296 332.953 26.84C333.345 27.376 333.541 28.096 333.541 29C333.541 29.656 333.421 30.22 333.181 30.692C332.949 31.164 332.641 31.524 332.257 31.772C331.881 32.02 331.469 32.144 331.021 32.144C330.749 32.144 330.477 32.084 330.205 31.964C329.941 31.844 329.673 31.68 329.401 31.472L329.425 32.492V34.46H328.441ZM330.853 31.316C331.333 31.316 331.729 31.112 332.041 30.704C332.361 30.288 332.521 29.72 332.521 29C332.521 28.36 332.401 27.844 332.161 27.452C331.929 27.052 331.537 26.852 330.985 26.852C330.737 26.852 330.485 26.92 330.229 27.056C329.981 27.192 329.713 27.388 329.425 27.644V30.704C329.689 30.928 329.945 31.088 330.193 31.184C330.441 31.272 330.661 31.316 330.853 31.316ZM336.141 32.144C335.773 32.144 335.505 32.032 335.337 31.808C335.177 31.576 335.097 31.248 335.097 30.824V23.456H336.081V30.896C336.081 31.048 336.109 31.16 336.165 31.232C336.221 31.296 336.285 31.328 336.357 31.328C336.389 31.328 336.417 31.328 336.441 31.328C336.473 31.32 336.517 31.312 336.573 31.304L336.705 32.048C336.641 32.08 336.565 32.104 336.477 32.12C336.389 32.136 336.277 32.144 336.141 32.144ZM340.52 32.144C340 32.144 339.528 32.024 339.104 31.784C338.68 31.536 338.344 31.184 338.096 30.728C337.848 30.272 337.724 29.728 337.724 29.096C337.724 28.456 337.848 27.908 338.096 27.452C338.352 26.996 338.68 26.644 339.08 26.396C339.48 26.148 339.9 26.024 340.34 26.024C341.084 26.024 341.656 26.272 342.056 26.768C342.464 27.264 342.668 27.928 342.668 28.76C342.668 28.864 342.664 28.968 342.656 29.072C342.656 29.168 342.648 29.252 342.632 29.324H338.696C338.736 29.94 338.928 30.432 339.272 30.8C339.624 31.168 340.08 31.352 340.64 31.352C340.92 31.352 341.176 31.312 341.408 31.232C341.648 31.144 341.876 31.032 342.092 30.896L342.44 31.544C342.192 31.704 341.908 31.844 341.588 31.964C341.276 32.084 340.92 32.144 340.52 32.144ZM338.684 28.616H341.804C341.804 28.024 341.676 27.576 341.42 27.272C341.172 26.96 340.82 26.804 340.364 26.804C339.956 26.804 339.588 26.964 339.26 27.284C338.94 27.596 338.748 28.04 338.684 28.616ZM345.828 32.144C345.204 32.144 344.768 31.964 344.52 31.604C344.28 31.244 344.16 30.776 344.16 30.2V26.972H343.296V26.228L344.208 26.168L344.328 24.536H345.156V26.168H346.728V26.972H345.156V30.212C345.156 30.572 345.22 30.852 345.348 31.052C345.484 31.244 345.72 31.34 346.056 31.34C346.16 31.34 346.272 31.324 346.392 31.292C346.512 31.252 346.62 31.216 346.716 31.184L346.908 31.928C346.748 31.984 346.572 32.032 346.38 32.072C346.196 32.12 346.012 32.144 345.828 32.144ZM350.246 32.144C349.726 32.144 349.254 32.024 348.83 31.784C348.406 31.536 348.07 31.184 347.822 30.728C347.574 30.272 347.45 29.728 347.45 29.096C347.45 28.456 347.574 27.908 347.822 27.452C348.078 26.996 348.406 26.644 348.806 26.396C349.206 26.148 349.626 26.024 350.066 26.024C350.81 26.024 351.382 26.272 351.782 26.768C352.19 27.264 352.394 27.928 352.394 28.76C352.394 28.864 352.39 28.968 352.382 29.072C352.382 29.168 352.374 29.252 352.358 29.324H348.422C348.462 29.94 348.654 30.432 348.998 30.8C349.35 31.168 349.806 31.352 350.366 31.352C350.646 31.352 350.902 31.312 351.134 31.232C351.374 31.144 351.602 31.032 351.818 30.896L352.166 31.544C351.918 31.704 351.634 31.844 351.314 31.964C351.002 32.084 350.646 32.144 350.246 32.144ZM348.41 28.616H351.53C351.53 28.024 351.402 27.576 351.146 27.272C350.898 26.96 350.546 26.804 350.09 26.804C349.682 26.804 349.314 26.964 348.986 27.284C348.666 27.596 348.474 28.04 348.41 28.616Z" fill="#7E8295"/>
<path d="M88.0493 27.824L87.7733 28.784H89.7773L89.5013 27.824C89.3733 27.408 89.2493 26.98 89.1293 26.54C89.0173 26.1 88.9053 25.664 88.7933 25.232H88.7453C88.6413 25.672 88.5293 26.112 88.4093 26.552C88.2973 26.984 88.1773 27.408 88.0493 27.824ZM85.4213 32L87.9773 24.152H89.6093L92.1653 32H90.7013L90.0893 29.876H87.4493L86.8373 32H85.4213ZM93.0127 32V26.108H94.1527L94.2487 26.912H94.2967C94.5447 26.648 94.8127 26.424 95.1007 26.24C95.3967 26.056 95.7287 25.964 96.0967 25.964C96.5287 25.964 96.8727 26.06 97.1287 26.252C97.3927 26.436 97.5927 26.692 97.7287 27.02C98.0087 26.716 98.3007 26.464 98.6047 26.264C98.9167 26.064 99.2567 25.964 99.6247 25.964C100.249 25.964 100.709 26.168 101.005 26.576C101.301 26.984 101.449 27.56 101.449 28.304V32H100.057V28.484C100.057 27.996 99.9807 27.652 99.8287 27.452C99.6847 27.252 99.4607 27.152 99.1567 27.152C98.7887 27.152 98.3767 27.396 97.9207 27.884V32H96.5407V28.484C96.5407 27.996 96.4647 27.652 96.3127 27.452C96.1687 27.252 95.9407 27.152 95.6287 27.152C95.2607 27.152 94.8487 27.396 94.3927 27.884V32H93.0127ZM105.538 32.144C105.05 32.144 104.594 32.024 104.17 31.784C103.746 31.536 103.402 31.184 103.138 30.728C102.874 30.264 102.742 29.708 102.742 29.06C102.742 28.404 102.874 27.848 103.138 27.392C103.402 26.928 103.746 26.576 104.17 26.336C104.594 26.088 105.05 25.964 105.538 25.964C106.034 25.964 106.494 26.088 106.918 26.336C107.342 26.576 107.686 26.928 107.95 27.392C108.214 27.848 108.346 28.404 108.346 29.06C108.346 29.708 108.214 30.264 107.95 30.728C107.686 31.184 107.342 31.536 106.918 31.784C106.494 32.024 106.034 32.144 105.538 32.144ZM105.538 31.016C105.97 31.016 106.31 30.836 106.558 30.476C106.806 30.116 106.93 29.644 106.93 29.06C106.93 28.468 106.806 27.992 106.558 27.632C106.31 27.272 105.97 27.092 105.538 27.092C105.106 27.092 104.766 27.272 104.518 27.632C104.278 27.992 104.158 28.468 104.158 29.06C104.158 29.644 104.278 30.116 104.518 30.476C104.766 30.836 105.106 31.016 105.538 31.016ZM111.464 32.144C110.832 32.144 110.372 31.94 110.084 31.532C109.796 31.124 109.652 30.548 109.652 29.804V26.108H111.032V29.624C111.032 30.112 111.104 30.456 111.248 30.656C111.392 30.856 111.624 30.956 111.944 30.956C112.2 30.956 112.424 30.892 112.616 30.764C112.816 30.636 113.028 30.428 113.252 30.14V26.108H114.632V32H113.504L113.396 31.136H113.36C113.104 31.44 112.824 31.684 112.52 31.868C112.216 32.052 111.864 32.144 111.464 32.144ZM116.38 32V26.108H117.52L117.616 26.9H117.664C117.928 26.644 118.216 26.424 118.528 26.24C118.84 26.056 119.196 25.964 119.596 25.964C120.228 25.964 120.688 26.168 120.976 26.576C121.264 26.984 121.408 27.56 121.408 28.304V32H120.028V28.484C120.028 27.996 119.956 27.652 119.812 27.452C119.668 27.252 119.432 27.152 119.104 27.152C118.848 27.152 118.62 27.216 118.42 27.344C118.228 27.464 118.008 27.644 117.76 27.884V32H116.38ZM125.171 32.144C124.491 32.144 124.007 31.948 123.719 31.556C123.439 31.156 123.299 30.64 123.299 30.008V27.2H122.459V26.168L123.371 26.108L123.539 24.5H124.691V26.108H126.191V27.2H124.691V30.008C124.691 30.696 124.967 31.04 125.519 31.04C125.623 31.04 125.731 31.028 125.843 31.004C125.955 30.972 126.051 30.94 126.131 30.908L126.371 31.928C126.211 31.984 126.027 32.032 125.819 32.072C125.619 32.12 125.403 32.144 125.171 32.144Z" fill="#002949"/>
<path d="M154.355 32V24.128H156.599C157.191 24.128 157.707 24.2 158.147 24.344C158.587 24.488 158.931 24.732 159.179 25.076C159.427 25.412 159.551 25.868 159.551 26.444C159.551 27.268 159.283 27.88 158.747 28.28C158.211 28.68 157.511 28.88 156.647 28.88H155.351V32H154.355ZM155.351 28.064H156.527C157.215 28.064 157.723 27.936 158.051 27.68C158.387 27.416 158.555 27.004 158.555 26.444C158.555 25.876 158.379 25.484 158.027 25.268C157.683 25.044 157.167 24.932 156.479 24.932H155.351V28.064ZM161.885 32.144C161.397 32.144 160.989 32 160.661 31.712C160.341 31.416 160.181 31.008 160.181 30.488C160.181 29.848 160.465 29.36 161.033 29.024C161.609 28.68 162.517 28.44 163.757 28.304C163.757 28.056 163.721 27.82 163.649 27.596C163.585 27.372 163.465 27.192 163.289 27.056C163.121 26.912 162.877 26.84 162.557 26.84C162.221 26.84 161.905 26.904 161.609 27.032C161.313 27.16 161.049 27.304 160.817 27.464L160.433 26.78C160.705 26.604 161.037 26.436 161.429 26.276C161.829 26.108 162.261 26.024 162.725 26.024C163.437 26.024 163.953 26.244 164.273 26.684C164.593 27.116 164.753 27.696 164.753 28.424V32H163.937L163.853 31.304H163.817C163.545 31.528 163.245 31.724 162.917 31.892C162.597 32.06 162.253 32.144 161.885 32.144ZM162.173 31.352C162.453 31.352 162.717 31.284 162.965 31.148C163.213 31.012 163.477 30.82 163.757 30.572V28.952C162.789 29.072 162.109 29.252 161.717 29.492C161.333 29.732 161.141 30.04 161.141 30.416C161.141 30.744 161.241 30.984 161.441 31.136C161.641 31.28 161.885 31.352 162.173 31.352ZM166.684 34.508C166.556 34.508 166.432 34.496 166.312 34.472C166.2 34.448 166.096 34.42 166 34.388L166.192 33.608C166.256 33.624 166.328 33.64 166.408 33.656C166.488 33.68 166.564 33.692 166.636 33.692C166.964 33.692 167.236 33.572 167.452 33.332C167.668 33.1 167.836 32.804 167.956 32.444L168.088 32.012L165.748 26.168H166.768L167.956 29.396C168.044 29.644 168.136 29.912 168.232 30.2C168.336 30.488 168.432 30.768 168.52 31.04H168.568C168.656 30.776 168.74 30.5 168.82 30.212C168.9 29.924 168.98 29.652 169.06 29.396L170.104 26.168H171.064L168.868 32.48C168.732 32.864 168.568 33.208 168.376 33.512C168.192 33.816 167.96 34.056 167.68 34.232C167.408 34.416 167.076 34.508 166.684 34.508ZM172.189 32V26.168H173.005L173.089 27.008H173.125C173.381 26.728 173.661 26.496 173.965 26.312C174.269 26.12 174.593 26.024 174.937 26.024C175.385 26.024 175.733 26.124 175.981 26.324C176.237 26.516 176.425 26.788 176.545 27.14C176.849 26.812 177.157 26.544 177.469 26.336C177.781 26.128 178.113 26.024 178.465 26.024C179.065 26.024 179.509 26.22 179.797 26.612C180.093 26.996 180.241 27.56 180.241 28.304V32H179.257V28.436C179.257 27.892 179.169 27.496 178.993 27.248C178.817 27 178.545 26.876 178.177 26.876C177.745 26.876 177.257 27.176 176.713 27.776V32H175.729V28.436C175.729 27.892 175.641 27.496 175.465 27.248C175.289 27 175.013 26.876 174.637 26.876C174.205 26.876 173.717 27.176 173.173 27.776V32H172.189ZM184.502 32.144C183.982 32.144 183.51 32.024 183.086 31.784C182.662 31.536 182.326 31.184 182.078 30.728C181.83 30.272 181.706 29.728 181.706 29.096C181.706 28.456 181.83 27.908 182.078 27.452C182.334 26.996 182.662 26.644 183.062 26.396C183.462 26.148 183.882 26.024 184.322 26.024C185.066 26.024 185.638 26.272 186.038 26.768C186.446 27.264 186.65 27.928 186.65 28.76C186.65 28.864 186.646 28.968 186.638 29.072C186.638 29.168 186.63 29.252 186.614 29.324H182.678C182.718 29.94 182.91 30.432 183.254 30.8C183.606 31.168 184.062 31.352 184.622 31.352C184.902 31.352 185.158 31.312 185.39 31.232C185.63 31.144 185.858 31.032 186.074 30.896L186.422 31.544C186.174 31.704 185.89 31.844 185.57 31.964C185.258 32.084 184.902 32.144 184.502 32.144ZM182.666 28.616H185.786C185.786 28.024 185.658 27.576 185.402 27.272C185.154 26.96 184.802 26.804 184.346 26.804C183.938 26.804 183.57 26.964 183.242 27.284C182.922 27.596 182.73 28.04 182.666 28.616ZM188.091 32V26.168H188.907L188.991 27.008H189.027C189.307 26.728 189.603 26.496 189.915 26.312C190.227 26.12 190.583 26.024 190.983 26.024C191.599 26.024 192.047 26.22 192.327 26.612C192.615 26.996 192.759 27.56 192.759 28.304V32H191.775V28.436C191.775 27.892 191.687 27.496 191.511 27.248C191.335 27 191.055 26.876 190.671 26.876C190.375 26.876 190.107 26.952 189.867 27.104C189.635 27.256 189.371 27.48 189.075 27.776V32H188.091ZM196.49 32.144C195.866 32.144 195.43 31.964 195.182 31.604C194.942 31.244 194.822 30.776 194.822 30.2V26.972H193.958V26.228L194.87 26.168L194.99 24.536H195.818V26.168H197.39V26.972H195.818V30.212C195.818 30.572 195.882 30.852 196.01 31.052C196.146 31.244 196.382 31.34 196.718 31.34C196.822 31.34 196.934 31.324 197.054 31.292C197.174 31.252 197.282 31.216 197.378 31.184L197.57 31.928C197.41 31.984 197.234 32.032 197.042 32.072C196.858 32.12 196.674 32.144 196.49 32.144Z" fill="#7E8295"/>
<circle cx="30.8435" cy="6.84349" r="5.84349" fill="#31EE50"/>
<circle cx="174.843" cy="6.84349" r="5.84349" fill="#7E8295"/>
<circle cx="105.843" cy="6.84349" r="5.84349" fill="#31EE50"/>
<circle cx="254.144" cy="7.14357" r="5.84349" transform="rotate(-14.8171 254.144 7.14357)" fill="#7E8295"/>
<path d="M335.843 6.84349C335.843 10.0708 333.227 12.687 330 12.687C326.772 12.687 324.156 10.0708 324.156 6.84349C324.156 3.61622 326.772 1 330 1C333.227 1 335.843 3.61622 335.843 6.84349Z" fill="#7E8295"/>
<rect x="36" y="6" width="64" height="3" fill="#31EE50"/>
</svg>
