<svg width="354" height="36" viewBox="0 0 354 36" fill="none" xmlns="http://www.w3.org/2000/svg">
<path d="M260 6H330V9H260V6Z" fill="#7E8295"/>
<rect x="180" y="6" width="70" height="3" fill="#7E8295"/>
<rect x="107" y="6" width="70" height="3" fill="#31EE50"/>
<path d="M1.66789 33V25.128H2.86789L4.37989 29.328C4.47589 29.6 4.56789 29.876 4.65589 30.156C4.75189 30.428 4.84789 30.7 4.94389 30.972H4.99189C5.08789 30.7 5.17589 30.428 5.25589 30.156C5.34389 29.876 5.43589 29.6 5.53189 29.328L7.01989 25.128H8.23189V33H7.29589V28.668C7.29589 28.316 7.31189 27.928 7.34389 27.504C7.37589 27.072 7.40389 26.684 7.42789 26.34H7.37989L6.75589 28.128L5.26789 32.208H4.60789L3.11989 28.128L2.49589 26.34H2.44789C2.47189 26.684 2.49589 27.072 2.51989 27.504C2.55189 27.928 2.56789 28.316 2.56789 28.668V33H1.66789ZM11.9946 33.144C11.3786 33.144 10.9266 32.952 10.6386 32.568C10.3506 32.176 10.2066 31.608 10.2066 30.864V27.168H11.2026V30.732C11.2026 31.276 11.2866 31.672 11.4546 31.92C11.6306 32.168 11.9106 32.292 12.2946 32.292C12.5986 32.292 12.8666 32.216 13.0986 32.064C13.3386 31.904 13.5946 31.652 13.8666 31.308V27.168H14.8506V33H14.0346L13.9506 32.088H13.9146C13.6426 32.408 13.3546 32.664 13.0506 32.856C12.7466 33.048 12.3946 33.144 11.9946 33.144ZM18.654 33.144C18.03 33.144 17.594 32.964 17.346 32.604C17.106 32.244 16.986 31.776 16.986 31.2V27.972H16.122V27.228L17.034 27.168L17.154 25.536H17.982V27.168H19.554V27.972H17.982V31.212C17.982 31.572 18.046 31.852 18.174 32.052C18.31 32.244 18.546 32.34 18.882 32.34C18.986 32.34 19.098 32.324 19.218 32.292C19.338 32.252 19.446 32.216 19.542 32.184L19.734 32.928C19.574 32.984 19.398 33.032 19.206 33.072C19.022 33.12 18.838 33.144 18.654 33.144ZM22.5767 33.144C21.9607 33.144 21.5087 32.952 21.2207 32.568C20.9327 32.176 20.7887 31.608 20.7887 30.864V27.168H21.7847V30.732C21.7847 31.276 21.8687 31.672 22.0367 31.92C22.2127 32.168 22.4927 32.292 22.8767 32.292C23.1807 32.292 23.4487 32.216 23.6807 32.064C23.9207 31.904 24.1767 31.652 24.4487 31.308V27.168H25.4327V33H24.6167L24.5327 32.088H24.4967C24.2247 32.408 23.9367 32.664 23.6327 32.856C23.3287 33.048 22.9767 33.144 22.5767 33.144ZM28.744 33.144C28.256 33.144 27.848 33 27.52 32.712C27.2 32.416 27.04 32.008 27.04 31.488C27.04 30.848 27.324 30.36 27.892 30.024C28.468 29.68 29.376 29.44 30.616 29.304C30.616 29.056 30.58 28.82 30.508 28.596C30.444 28.372 30.324 28.192 30.148 28.056C29.98 27.912 29.736 27.84 29.416 27.84C29.08 27.84 28.764 27.904 28.468 28.032C28.172 28.16 27.908 28.304 27.676 28.464L27.292 27.78C27.564 27.604 27.896 27.436 28.288 27.276C28.688 27.108 29.12 27.024 29.584 27.024C30.296 27.024 30.812 27.244 31.132 27.684C31.452 28.116 31.612 28.696 31.612 29.424V33H30.796L30.712 32.304H30.676C30.404 32.528 30.104 32.724 29.776 32.892C29.456 33.06 29.112 33.144 28.744 33.144ZM29.032 32.352C29.312 32.352 29.576 32.284 29.824 32.148C30.072 32.012 30.336 31.82 30.616 31.572V29.952C29.648 30.072 28.968 30.252 28.576 30.492C28.192 30.732 28 31.04 28 31.416C28 31.744 28.1 31.984 28.3 32.136C28.5 32.28 28.744 32.352 29.032 32.352ZM34.4909 33.144C34.1229 33.144 33.8549 33.032 33.6869 32.808C33.5269 32.576 33.4469 32.248 33.4469 31.824V24.456H34.4309V31.896C34.4309 32.048 34.4589 32.16 34.5149 32.232C34.5709 32.296 34.6349 32.328 34.7069 32.328C34.7389 32.328 34.7669 32.328 34.7909 32.328C34.8229 32.32 34.8669 32.312 34.9229 32.304L35.0549 33.048C34.9909 33.08 34.9149 33.104 34.8269 33.12C34.7389 33.136 34.6269 33.144 34.4909 33.144ZM39.0038 33V25.128H43.5398V25.968H39.9998V28.632H42.9998V29.472H39.9998V33H39.0038ZM46.354 33.144C45.738 33.144 45.286 32.952 44.998 32.568C44.71 32.176 44.566 31.608 44.566 30.864V27.168H45.562V30.732C45.562 31.276 45.646 31.672 45.814 31.92C45.99 32.168 46.27 32.292 46.654 32.292C46.958 32.292 47.226 32.216 47.458 32.064C47.698 31.904 47.954 31.652 48.226 31.308V27.168H49.21V33H48.394L48.31 32.088H48.274C48.002 32.408 47.714 32.664 47.41 32.856C47.106 33.048 46.754 33.144 46.354 33.144ZM51.1774 33V27.168H51.9934L52.0774 28.008H52.1134C52.3934 27.728 52.6894 27.496 53.0014 27.312C53.3134 27.12 53.6694 27.024 54.0694 27.024C54.6854 27.024 55.1334 27.22 55.4134 27.612C55.7014 27.996 55.8454 28.56 55.8454 29.304V33H54.8614V29.436C54.8614 28.892 54.7734 28.496 54.5974 28.248C54.4214 28 54.1414 27.876 53.7574 27.876C53.4614 27.876 53.1934 27.952 52.9534 28.104C52.7214 28.256 52.4574 28.48 52.1614 28.776V33H51.1774ZM59.7319 33.144C59.0039 33.144 58.4199 32.88 57.9799 32.352C57.5399 31.816 57.3199 31.064 57.3199 30.096C57.3199 29.464 57.4359 28.92 57.6679 28.464C57.9079 28 58.2199 27.644 58.6039 27.396C58.9959 27.148 59.4119 27.024 59.8519 27.024C60.1879 27.024 60.4799 27.084 60.7279 27.204C60.9759 27.324 61.2279 27.488 61.4839 27.696L61.4359 26.7V24.456H62.4319V33H61.6159L61.5319 32.316H61.4959C61.2719 32.54 61.0079 32.736 60.7039 32.904C60.3999 33.064 60.0759 33.144 59.7319 33.144ZM59.9479 32.316C60.4599 32.316 60.9559 32.048 61.4359 31.512V28.464C61.1879 28.24 60.9479 28.084 60.7159 27.996C60.4919 27.9 60.2599 27.852 60.0199 27.852C59.7079 27.852 59.4239 27.948 59.1679 28.14C58.9199 28.324 58.7199 28.584 58.5679 28.92C58.4159 29.248 58.3399 29.636 58.3399 30.084C58.3399 30.78 58.4799 31.328 58.7599 31.728C59.0399 32.12 59.4359 32.316 59.9479 32.316Z" fill="#002949"/>
<path d="M223.333 32.144C222.677 32.144 222.089 31.984 221.569 31.664C221.057 31.336 220.649 30.868 220.345 30.26C220.049 29.652 219.901 28.92 219.901 28.064C219.901 27.216 220.053 26.488 220.357 25.88C220.661 25.272 221.077 24.804 221.605 24.476C222.133 24.148 222.729 23.984 223.393 23.984C223.873 23.984 224.297 24.084 224.665 24.284C225.033 24.476 225.329 24.7 225.553 24.956L225.013 25.604C224.805 25.38 224.569 25.2 224.305 25.064C224.041 24.928 223.741 24.86 223.405 24.86C222.909 24.86 222.473 24.992 222.097 25.256C221.729 25.512 221.441 25.876 221.233 26.348C221.033 26.82 220.933 27.384 220.933 28.04C220.933 28.696 221.033 29.268 221.233 29.756C221.433 30.236 221.713 30.608 222.073 30.872C222.441 31.136 222.873 31.268 223.369 31.268C223.745 31.268 224.081 31.188 224.377 31.028C224.673 30.868 224.945 30.652 225.193 30.38L225.745 31.004C225.433 31.364 225.081 31.644 224.689 31.844C224.297 32.044 223.845 32.144 223.333 32.144ZM229.385 32.144C228.913 32.144 228.469 32.024 228.053 31.784C227.645 31.544 227.313 31.196 227.057 30.74C226.809 30.284 226.685 29.736 226.685 29.096C226.685 28.44 226.809 27.884 227.057 27.428C227.313 26.972 227.645 26.624 228.053 26.384C228.469 26.144 228.913 26.024 229.385 26.024C229.865 26.024 230.309 26.144 230.717 26.384C231.125 26.624 231.453 26.972 231.701 27.428C231.957 27.884 232.085 28.44 232.085 29.096C232.085 29.736 231.957 30.284 231.701 30.74C231.453 31.196 231.125 31.544 230.717 31.784C230.309 32.024 229.865 32.144 229.385 32.144ZM229.385 31.328C229.889 31.328 230.293 31.124 230.597 30.716C230.909 30.3 231.065 29.76 231.065 29.096C231.065 28.424 230.909 27.88 230.597 27.464C230.293 27.048 229.889 26.84 229.385 26.84C228.889 26.84 228.485 27.048 228.173 27.464C227.861 27.88 227.705 28.424 227.705 29.096C227.705 29.76 227.861 30.3 228.173 30.716C228.485 31.124 228.889 31.328 229.385 31.328ZM233.621 32V26.168H234.437L234.521 27.008H234.557C234.837 26.728 235.133 26.496 235.445 26.312C235.757 26.12 236.113 26.024 236.513 26.024C237.129 26.024 237.577 26.22 237.857 26.612C238.145 26.996 238.289 27.56 238.289 28.304V32H237.305V28.436C237.305 27.892 237.217 27.496 237.041 27.248C236.865 27 236.585 26.876 236.201 26.876C235.905 26.876 235.637 26.952 235.397 27.104C235.165 27.256 234.901 27.48 234.605 27.776V32H233.621ZM240.351 32V26.972H239.559V26.228L240.351 26.168V25.244C240.351 24.652 240.487 24.184 240.759 23.84C241.039 23.488 241.471 23.312 242.055 23.312C242.239 23.312 242.415 23.332 242.583 23.372C242.751 23.404 242.899 23.448 243.027 23.504L242.811 24.26C242.595 24.164 242.375 24.116 242.151 24.116C241.607 24.116 241.335 24.492 241.335 25.244V26.168H242.571V26.972H241.335V32H240.351ZM243.687 32V26.168H244.671V32H243.687ZM244.191 24.968C243.999 24.968 243.839 24.912 243.711 24.8C243.591 24.68 243.531 24.52 243.531 24.32C243.531 24.128 243.591 23.972 243.711 23.852C243.839 23.732 243.999 23.672 244.191 23.672C244.383 23.672 244.539 23.732 244.659 23.852C244.787 23.972 244.851 24.128 244.851 24.32C244.851 24.52 244.787 24.68 244.659 24.8C244.539 24.912 244.383 24.968 244.191 24.968ZM246.64 32V26.168H247.456L247.54 27.224H247.576C247.776 26.856 248.02 26.564 248.308 26.348C248.596 26.132 248.904 26.024 249.232 26.024C249.464 26.024 249.672 26.064 249.856 26.144L249.664 27.008C249.568 26.976 249.48 26.952 249.4 26.936C249.32 26.92 249.22 26.912 249.1 26.912C248.852 26.912 248.592 27.012 248.32 27.212C248.056 27.412 247.824 27.76 247.624 28.256V32H246.64ZM250.8 32V26.168H251.616L251.7 27.008H251.736C251.992 26.728 252.272 26.496 252.576 26.312C252.88 26.12 253.204 26.024 253.548 26.024C253.996 26.024 254.344 26.124 254.592 26.324C254.848 26.516 255.036 26.788 255.156 27.14C255.46 26.812 255.768 26.544 256.08 26.336C256.392 26.128 256.724 26.024 257.076 26.024C257.676 26.024 258.12 26.22 258.408 26.612C258.704 26.996 258.852 27.56 258.852 28.304V32H257.868V28.436C257.868 27.892 257.78 27.496 257.604 27.248C257.428 27 257.156 26.876 256.788 26.876C256.356 26.876 255.868 27.176 255.324 27.776V32H254.34V28.436C254.34 27.892 254.252 27.496 254.076 27.248C253.9 27 253.624 26.876 253.248 26.876C252.816 26.876 252.328 27.176 251.784 27.776V32H250.8ZM262.094 32.144C261.606 32.144 261.198 32 260.87 31.712C260.55 31.416 260.39 31.008 260.39 30.488C260.39 29.848 260.674 29.36 261.242 29.024C261.818 28.68 262.726 28.44 263.966 28.304C263.966 28.056 263.93 27.82 263.858 27.596C263.794 27.372 263.674 27.192 263.498 27.056C263.33 26.912 263.086 26.84 262.766 26.84C262.43 26.84 262.114 26.904 261.818 27.032C261.522 27.16 261.258 27.304 261.026 27.464L260.642 26.78C260.914 26.604 261.246 26.436 261.638 26.276C262.038 26.108 262.47 26.024 262.934 26.024C263.646 26.024 264.162 26.244 264.482 26.684C264.802 27.116 264.962 27.696 264.962 28.424V32H264.146L264.062 31.304H264.026C263.754 31.528 263.454 31.724 263.126 31.892C262.806 32.06 262.462 32.144 262.094 32.144ZM262.382 31.352C262.662 31.352 262.926 31.284 263.174 31.148C263.422 31.012 263.686 30.82 263.966 30.572V28.952C262.998 29.072 262.318 29.252 261.926 29.492C261.542 29.732 261.35 30.04 261.35 30.416C261.35 30.744 261.45 30.984 261.65 31.136C261.85 31.28 262.094 31.352 262.382 31.352ZM268.468 32.144C267.844 32.144 267.408 31.964 267.16 31.604C266.92 31.244 266.8 30.776 266.8 30.2V26.972H265.936V26.228L266.848 26.168L266.968 24.536H267.796V26.168H269.368V26.972H267.796V30.212C267.796 30.572 267.86 30.852 267.988 31.052C268.124 31.244 268.36 31.34 268.696 31.34C268.8 31.34 268.912 31.324 269.032 31.292C269.152 31.252 269.26 31.216 269.356 31.184L269.548 31.928C269.388 31.984 269.212 32.032 269.02 32.072C268.836 32.12 268.652 32.144 268.468 32.144ZM270.687 32V26.168H271.671V32H270.687ZM271.191 24.968C270.999 24.968 270.839 24.912 270.711 24.8C270.591 24.68 270.531 24.52 270.531 24.32C270.531 24.128 270.591 23.972 270.711 23.852C270.839 23.732 270.999 23.672 271.191 23.672C271.383 23.672 271.539 23.732 271.659 23.852C271.787 23.972 271.851 24.128 271.851 24.32C271.851 24.52 271.787 24.68 271.659 24.8C271.539 24.912 271.383 24.968 271.191 24.968ZM275.908 32.144C275.436 32.144 274.992 32.024 274.576 31.784C274.168 31.544 273.836 31.196 273.58 30.74C273.332 30.284 273.208 29.736 273.208 29.096C273.208 28.44 273.332 27.884 273.58 27.428C273.836 26.972 274.168 26.624 274.576 26.384C274.992 26.144 275.436 26.024 275.908 26.024C276.388 26.024 276.832 26.144 277.24 26.384C277.648 26.624 277.976 26.972 278.224 27.428C278.48 27.884 278.608 28.44 278.608 29.096C278.608 29.736 278.48 30.284 278.224 30.74C277.976 31.196 277.648 31.544 277.24 31.784C276.832 32.024 276.388 32.144 275.908 32.144ZM275.908 31.328C276.412 31.328 276.816 31.124 277.12 30.716C277.432 30.3 277.588 29.76 277.588 29.096C277.588 28.424 277.432 27.88 277.12 27.464C276.816 27.048 276.412 26.84 275.908 26.84C275.412 26.84 275.008 27.048 274.696 27.464C274.384 27.88 274.228 28.424 274.228 29.096C274.228 29.76 274.384 30.3 274.696 30.716C275.008 31.124 275.412 31.328 275.908 31.328ZM280.144 32V26.168H280.96L281.044 27.008H281.08C281.36 26.728 281.656 26.496 281.968 26.312C282.28 26.12 282.636 26.024 283.036 26.024C283.652 26.024 284.1 26.22 284.38 26.612C284.668 26.996 284.812 27.56 284.812 28.304V32H283.828V28.436C283.828 27.892 283.74 27.496 283.564 27.248C283.388 27 283.108 26.876 282.724 26.876C282.428 26.876 282.16 26.952 281.92 27.104C281.688 27.256 281.424 27.48 281.128 27.776V32H280.144Z" fill="#7E8295"/>
<path d="M309.204 32.144C308.548 32.144 307.96 31.984 307.44 31.664C306.928 31.336 306.52 30.868 306.216 30.26C305.92 29.652 305.772 28.92 305.772 28.064C305.772 27.216 305.924 26.488 306.228 25.88C306.532 25.272 306.948 24.804 307.476 24.476C308.004 24.148 308.6 23.984 309.264 23.984C309.744 23.984 310.168 24.084 310.536 24.284C310.904 24.476 311.2 24.7 311.424 24.956L310.884 25.604C310.676 25.38 310.44 25.2 310.176 25.064C309.912 24.928 309.612 24.86 309.276 24.86C308.78 24.86 308.344 24.992 307.968 25.256C307.6 25.512 307.312 25.876 307.104 26.348C306.904 26.82 306.804 27.384 306.804 28.04C306.804 28.696 306.904 29.268 307.104 29.756C307.304 30.236 307.584 30.608 307.944 30.872C308.312 31.136 308.744 31.268 309.24 31.268C309.616 31.268 309.952 31.188 310.248 31.028C310.544 30.868 310.816 30.652 311.064 30.38L311.616 31.004C311.304 31.364 310.952 31.644 310.56 31.844C310.168 32.044 309.716 32.144 309.204 32.144ZM315.256 32.144C314.784 32.144 314.34 32.024 313.924 31.784C313.516 31.544 313.184 31.196 312.928 30.74C312.68 30.284 312.556 29.736 312.556 29.096C312.556 28.44 312.68 27.884 312.928 27.428C313.184 26.972 313.516 26.624 313.924 26.384C314.34 26.144 314.784 26.024 315.256 26.024C315.736 26.024 316.18 26.144 316.588 26.384C316.996 26.624 317.324 26.972 317.572 27.428C317.828 27.884 317.956 28.44 317.956 29.096C317.956 29.736 317.828 30.284 317.572 30.74C317.324 31.196 316.996 31.544 316.588 31.784C316.18 32.024 315.736 32.144 315.256 32.144ZM315.256 31.328C315.76 31.328 316.164 31.124 316.468 30.716C316.78 30.3 316.936 29.76 316.936 29.096C316.936 28.424 316.78 27.88 316.468 27.464C316.164 27.048 315.76 26.84 315.256 26.84C314.76 26.84 314.356 27.048 314.044 27.464C313.732 27.88 313.576 28.424 313.576 29.096C313.576 29.76 313.732 30.3 314.044 30.716C314.356 31.124 314.76 31.328 315.256 31.328ZM319.492 32V26.168H320.308L320.392 27.008H320.428C320.684 26.728 320.964 26.496 321.268 26.312C321.572 26.12 321.896 26.024 322.24 26.024C322.688 26.024 323.036 26.124 323.284 26.324C323.54 26.516 323.728 26.788 323.848 27.14C324.152 26.812 324.46 26.544 324.772 26.336C325.084 26.128 325.416 26.024 325.768 26.024C326.368 26.024 326.812 26.22 327.1 26.612C327.396 26.996 327.544 27.56 327.544 28.304V32H326.56V28.436C326.56 27.892 326.472 27.496 326.296 27.248C326.12 27 325.848 26.876 325.48 26.876C325.048 26.876 324.56 27.176 324.016 27.776V32H323.032V28.436C323.032 27.892 322.944 27.496 322.768 27.248C322.592 27 322.316 26.876 321.94 26.876C321.508 26.876 321.02 27.176 320.476 27.776V32H319.492ZM329.441 34.46V26.168H330.257L330.341 26.84H330.377C330.641 26.616 330.929 26.424 331.241 26.264C331.561 26.104 331.893 26.024 332.237 26.024C332.989 26.024 333.561 26.296 333.953 26.84C334.345 27.376 334.541 28.096 334.541 29C334.541 29.656 334.421 30.22 334.181 30.692C333.949 31.164 333.641 31.524 333.257 31.772C332.881 32.02 332.469 32.144 332.021 32.144C331.749 32.144 331.477 32.084 331.205 31.964C330.941 31.844 330.673 31.68 330.401 31.472L330.425 32.492V34.46H329.441ZM331.853 31.316C332.333 31.316 332.729 31.112 333.041 30.704C333.361 30.288 333.521 29.72 333.521 29C333.521 28.36 333.401 27.844 333.161 27.452C332.929 27.052 332.537 26.852 331.985 26.852C331.737 26.852 331.485 26.92 331.229 27.056C330.981 27.192 330.713 27.388 330.425 27.644V30.704C330.689 30.928 330.945 31.088 331.193 31.184C331.441 31.272 331.661 31.316 331.853 31.316ZM337.141 32.144C336.773 32.144 336.505 32.032 336.337 31.808C336.177 31.576 336.097 31.248 336.097 30.824V23.456H337.081V30.896C337.081 31.048 337.109 31.16 337.165 31.232C337.221 31.296 337.285 31.328 337.357 31.328C337.389 31.328 337.417 31.328 337.441 31.328C337.473 31.32 337.517 31.312 337.573 31.304L337.705 32.048C337.641 32.08 337.565 32.104 337.477 32.12C337.389 32.136 337.277 32.144 337.141 32.144ZM341.52 32.144C341 32.144 340.528 32.024 340.104 31.784C339.68 31.536 339.344 31.184 339.096 30.728C338.848 30.272 338.724 29.728 338.724 29.096C338.724 28.456 338.848 27.908 339.096 27.452C339.352 26.996 339.68 26.644 340.08 26.396C340.48 26.148 340.9 26.024 341.34 26.024C342.084 26.024 342.656 26.272 343.056 26.768C343.464 27.264 343.668 27.928 343.668 28.76C343.668 28.864 343.664 28.968 343.656 29.072C343.656 29.168 343.648 29.252 343.632 29.324H339.696C339.736 29.94 339.928 30.432 340.272 30.8C340.624 31.168 341.08 31.352 341.64 31.352C341.92 31.352 342.176 31.312 342.408 31.232C342.648 31.144 342.876 31.032 343.092 30.896L343.44 31.544C343.192 31.704 342.908 31.844 342.588 31.964C342.276 32.084 341.92 32.144 341.52 32.144ZM339.684 28.616H342.804C342.804 28.024 342.676 27.576 342.42 27.272C342.172 26.96 341.82 26.804 341.364 26.804C340.956 26.804 340.588 26.964 340.26 27.284C339.94 27.596 339.748 28.04 339.684 28.616ZM346.828 32.144C346.204 32.144 345.768 31.964 345.52 31.604C345.28 31.244 345.16 30.776 345.16 30.2V26.972H344.296V26.228L345.208 26.168L345.328 24.536H346.156V26.168H347.728V26.972H346.156V30.212C346.156 30.572 346.22 30.852 346.348 31.052C346.484 31.244 346.72 31.34 347.056 31.34C347.16 31.34 347.272 31.324 347.392 31.292C347.512 31.252 347.62 31.216 347.716 31.184L347.908 31.928C347.748 31.984 347.572 32.032 347.38 32.072C347.196 32.12 347.012 32.144 346.828 32.144ZM351.246 32.144C350.726 32.144 350.254 32.024 349.83 31.784C349.406 31.536 349.07 31.184 348.822 30.728C348.574 30.272 348.45 29.728 348.45 29.096C348.45 28.456 348.574 27.908 348.822 27.452C349.078 26.996 349.406 26.644 349.806 26.396C350.206 26.148 350.626 26.024 351.066 26.024C351.81 26.024 352.382 26.272 352.782 26.768C353.19 27.264 353.394 27.928 353.394 28.76C353.394 28.864 353.39 28.968 353.382 29.072C353.382 29.168 353.374 29.252 353.358 29.324H349.422C349.462 29.94 349.654 30.432 349.998 30.8C350.35 31.168 350.806 31.352 351.366 31.352C351.646 31.352 351.902 31.312 352.134 31.232C352.374 31.144 352.602 31.032 352.818 30.896L353.166 31.544C352.918 31.704 352.634 31.844 352.314 31.964C352.002 32.084 351.646 32.144 351.246 32.144ZM349.41 28.616H352.53C352.53 28.024 352.402 27.576 352.146 27.272C351.898 26.96 351.546 26.804 351.09 26.804C350.682 26.804 350.314 26.964 349.986 27.284C349.666 27.596 349.474 28.04 349.41 28.616Z" fill="#7E8295"/>
<path d="M89.8735 27.596L89.5015 28.796H91.8655L91.4935 27.596C91.3495 27.156 91.2135 26.72 91.0855 26.288C90.9575 25.848 90.8295 25.4 90.7015 24.944H90.6535C90.5335 25.4 90.4095 25.848 90.2815 26.288C90.1535 26.72 90.0175 27.156 89.8735 27.596ZM87.4735 32L90.1375 24.128H91.2655L93.9295 32H92.8615L92.1175 29.6H89.2495L88.4935 32H87.4735ZM94.9488 32V26.168H95.7648L95.8488 27.008H95.8848C96.1408 26.728 96.4208 26.496 96.7248 26.312C97.0288 26.12 97.3528 26.024 97.6968 26.024C98.1448 26.024 98.4928 26.124 98.7408 26.324C98.9968 26.516 99.1848 26.788 99.3048 27.14C99.6088 26.812 99.9168 26.544 100.229 26.336C100.541 26.128 100.873 26.024 101.225 26.024C101.825 26.024 102.269 26.22 102.557 26.612C102.853 26.996 103.001 27.56 103.001 28.304V32H102.017V28.436C102.017 27.892 101.929 27.496 101.753 27.248C101.577 27 101.305 26.876 100.937 26.876C100.505 26.876 100.017 27.176 99.4728 27.776V32H98.4888V28.436C98.4888 27.892 98.4008 27.496 98.2248 27.248C98.0488 27 97.7728 26.876 97.3968 26.876C96.9648 26.876 96.4768 27.176 95.9328 27.776V32H94.9488ZM107.166 32.144C106.694 32.144 106.25 32.024 105.834 31.784C105.426 31.544 105.094 31.196 104.838 30.74C104.59 30.284 104.466 29.736 104.466 29.096C104.466 28.44 104.59 27.884 104.838 27.428C105.094 26.972 105.426 26.624 105.834 26.384C106.25 26.144 106.694 26.024 107.166 26.024C107.646 26.024 108.09 26.144 108.498 26.384C108.906 26.624 109.234 26.972 109.482 27.428C109.738 27.884 109.866 28.44 109.866 29.096C109.866 29.736 109.738 30.284 109.482 30.74C109.234 31.196 108.906 31.544 108.498 31.784C108.09 32.024 107.646 32.144 107.166 32.144ZM107.166 31.328C107.67 31.328 108.074 31.124 108.378 30.716C108.69 30.3 108.846 29.76 108.846 29.096C108.846 28.424 108.69 27.88 108.378 27.464C108.074 27.048 107.67 26.84 107.166 26.84C106.67 26.84 106.266 27.048 105.954 27.464C105.642 27.88 105.486 28.424 105.486 29.096C105.486 29.76 105.642 30.3 105.954 30.716C106.266 31.124 106.67 31.328 107.166 31.328ZM113.106 32.144C112.49 32.144 112.038 31.952 111.75 31.568C111.462 31.176 111.318 30.608 111.318 29.864V26.168H112.314V29.732C112.314 30.276 112.398 30.672 112.566 30.92C112.742 31.168 113.022 31.292 113.406 31.292C113.71 31.292 113.978 31.216 114.21 31.064C114.45 30.904 114.706 30.652 114.978 30.308V26.168H115.962V32H115.146L115.062 31.088H115.026C114.754 31.408 114.466 31.664 114.162 31.856C113.858 32.048 113.506 32.144 113.106 32.144ZM117.929 32V26.168H118.745L118.829 27.008H118.865C119.145 26.728 119.441 26.496 119.753 26.312C120.065 26.12 120.421 26.024 120.821 26.024C121.437 26.024 121.885 26.22 122.165 26.612C122.453 26.996 122.597 27.56 122.597 28.304V32H121.613V28.436C121.613 27.892 121.525 27.496 121.349 27.248C121.173 27 120.893 26.876 120.509 26.876C120.213 26.876 119.945 26.952 119.705 27.104C119.473 27.256 119.209 27.48 118.913 27.776V32H117.929ZM126.328 32.144C125.704 32.144 125.268 31.964 125.02 31.604C124.78 31.244 124.66 30.776 124.66 30.2V26.972H123.796V26.228L124.708 26.168L124.828 24.536H125.656V26.168H127.228V26.972H125.656V30.212C125.656 30.572 125.72 30.852 125.848 31.052C125.984 31.244 126.22 31.34 126.556 31.34C126.66 31.34 126.772 31.324 126.892 31.292C127.012 31.252 127.12 31.216 127.216 31.184L127.408 31.928C127.248 31.984 127.072 32.032 126.88 32.072C126.696 32.12 126.512 32.144 126.328 32.144Z" fill="#002949"/>
<path d="M155.545 32V24.152H158.017C158.601 24.152 159.121 24.228 159.577 24.38C160.033 24.532 160.393 24.784 160.657 25.136C160.921 25.488 161.053 25.968 161.053 26.576C161.053 27.152 160.921 27.628 160.657 28.004C160.393 28.38 160.037 28.66 159.589 28.844C159.141 29.028 158.633 29.12 158.065 29.12H156.937V32H155.545ZM156.937 28.004H157.957C159.109 28.004 159.685 27.528 159.685 26.576C159.685 26.08 159.533 25.74 159.229 25.556C158.933 25.364 158.493 25.268 157.909 25.268H156.937V28.004ZM163.38 32.144C162.868 32.144 162.448 31.984 162.12 31.664C161.8 31.344 161.64 30.928 161.64 30.416C161.64 29.784 161.916 29.296 162.468 28.952C163.02 28.6 163.9 28.36 165.108 28.232C165.1 27.92 165.016 27.652 164.856 27.428C164.704 27.196 164.428 27.08 164.028 27.08C163.74 27.08 163.456 27.136 163.176 27.248C162.904 27.36 162.636 27.496 162.372 27.656L161.868 26.732C162.196 26.524 162.564 26.344 162.972 26.192C163.388 26.04 163.828 25.964 164.292 25.964C165.028 25.964 165.576 26.184 165.936 26.624C166.304 27.056 166.488 27.684 166.488 28.508V32H165.348L165.252 31.352H165.204C164.94 31.576 164.656 31.764 164.352 31.916C164.056 32.068 163.732 32.144 163.38 32.144ZM163.824 31.064C164.064 31.064 164.28 31.008 164.472 30.896C164.672 30.776 164.884 30.616 165.108 30.416V29.096C164.308 29.2 163.752 29.356 163.44 29.564C163.128 29.764 162.972 30.012 162.972 30.308C162.972 30.572 163.052 30.764 163.212 30.884C163.372 31.004 163.576 31.064 163.824 31.064ZM168.536 34.424C168.376 34.424 168.236 34.412 168.116 34.388C167.996 34.364 167.88 34.336 167.768 34.304L168.02 33.224C168.076 33.24 168.14 33.256 168.212 33.272C168.292 33.296 168.368 33.308 168.44 33.308C168.752 33.308 169 33.212 169.184 33.02C169.376 32.836 169.52 32.596 169.616 32.3L169.724 31.928L167.408 26.108H168.812L169.832 29C169.92 29.256 170.004 29.528 170.084 29.816C170.172 30.096 170.26 30.376 170.348 30.656H170.396C170.468 30.384 170.54 30.108 170.612 29.828C170.692 29.54 170.768 29.264 170.84 29L171.728 26.108H173.06L170.924 32.264C170.676 32.928 170.376 33.452 170.024 33.836C169.672 34.228 169.176 34.424 168.536 34.424ZM174.081 32V26.108H175.221L175.317 26.912H175.365C175.613 26.648 175.881 26.424 176.169 26.24C176.465 26.056 176.797 25.964 177.165 25.964C177.597 25.964 177.941 26.06 178.197 26.252C178.461 26.436 178.661 26.692 178.797 27.02C179.077 26.716 179.369 26.464 179.673 26.264C179.985 26.064 180.325 25.964 180.693 25.964C181.317 25.964 181.777 26.168 182.073 26.576C182.369 26.984 182.517 27.56 182.517 28.304V32H181.125V28.484C181.125 27.996 181.049 27.652 180.897 27.452C180.753 27.252 180.529 27.152 180.225 27.152C179.857 27.152 179.445 27.396 178.989 27.884V32H177.609V28.484C177.609 27.996 177.533 27.652 177.381 27.452C177.237 27.252 177.009 27.152 176.697 27.152C176.329 27.152 175.917 27.396 175.461 27.884V32H174.081ZM186.714 32.144C186.17 32.144 185.678 32.024 185.238 31.784C184.798 31.536 184.45 31.184 184.194 30.728C183.938 30.264 183.81 29.708 183.81 29.06C183.81 28.42 183.938 27.868 184.194 27.404C184.458 26.94 184.798 26.584 185.214 26.336C185.63 26.088 186.066 25.964 186.522 25.964C187.058 25.964 187.506 26.084 187.866 26.324C188.226 26.556 188.498 26.884 188.682 27.308C188.866 27.724 188.958 28.208 188.958 28.76C188.958 29.048 188.938 29.272 188.898 29.432H185.154C185.218 29.952 185.406 30.356 185.718 30.644C186.03 30.932 186.422 31.076 186.894 31.076C187.15 31.076 187.386 31.04 187.602 30.968C187.826 30.888 188.046 30.78 188.262 30.644L188.73 31.508C188.45 31.692 188.138 31.844 187.794 31.964C187.45 32.084 187.09 32.144 186.714 32.144ZM185.142 28.496H187.758C187.758 28.04 187.658 27.684 187.458 27.428C187.258 27.164 186.958 27.032 186.558 27.032C186.214 27.032 185.906 27.16 185.634 27.416C185.37 27.664 185.206 28.024 185.142 28.496ZM190.276 32V26.108H191.416L191.512 26.9H191.56C191.824 26.644 192.112 26.424 192.424 26.24C192.736 26.056 193.092 25.964 193.492 25.964C194.124 25.964 194.584 26.168 194.872 26.576C195.16 26.984 195.304 27.56 195.304 28.304V32H193.924V28.484C193.924 27.996 193.852 27.652 193.708 27.452C193.564 27.252 193.328 27.152 193 27.152C192.744 27.152 192.516 27.216 192.316 27.344C192.124 27.464 191.904 27.644 191.656 27.884V32H190.276ZM199.067 32.144C198.387 32.144 197.903 31.948 197.615 31.556C197.335 31.156 197.195 30.64 197.195 30.008V27.2H196.355V26.168L197.267 26.108L197.435 24.5H198.587V26.108H200.087V27.2H198.587V30.008C198.587 30.696 198.863 31.04 199.415 31.04C199.519 31.04 199.627 31.028 199.739 31.004C199.851 30.972 199.947 30.94 200.027 30.908L200.267 31.928C200.107 31.984 199.923 32.032 199.715 32.072C199.515 32.12 199.299 32.144 199.067 32.144Z" fill="#002949"/>
<circle cx="31.8435" cy="6.84349" r="5.84349" fill="#31EE50"/>
<circle cx="175.843" cy="6.84349" r="5.84349" fill="#31EE50"/>
<circle cx="106.843" cy="6.84349" r="5.84349" fill="#31EE50"/>
<circle cx="255.144" cy="7.14357" r="5.84349" transform="rotate(-14.8171 255.144 7.14357)" fill="#7E8295"/>
<path d="M336.843 6.84349C336.843 10.0708 334.227 12.687 331 12.687C327.772 12.687 325.156 10.0708 325.156 6.84349C325.156 3.61622 327.772 1 331 1C334.227 1 336.843 3.61622 336.843 6.84349Z" fill="#7E8295"/>
<rect x="37" y="6" width="64" height="3" fill="#31EE50"/>
</svg>
