<svg width="354" height="36" viewBox="0 0 354 36" fill="none" xmlns="http://www.w3.org/2000/svg">
<path d="M260 6H330V9H260V6Z" fill="#31EE50"/>
<rect x="180" y="6" width="70" height="3" fill="#31EE50"/>
<rect x="107" y="6" width="70" height="3" fill="#31EE50"/>
<path d="M1.66789 33V25.128H2.86789L4.37989 29.328C4.47589 29.6 4.56789 29.876 4.65589 30.156C4.75189 30.428 4.84789 30.7 4.94389 30.972H4.99189C5.08789 30.7 5.17589 30.428 5.25589 30.156C5.34389 29.876 5.43589 29.6 5.53189 29.328L7.01989 25.128H8.23189V33H7.29589V28.668C7.29589 28.316 7.31189 27.928 7.34389 27.504C7.37589 27.072 7.40389 26.684 7.42789 26.34H7.37989L6.75589 28.128L5.26789 32.208H4.60789L3.11989 28.128L2.49589 26.34H2.44789C2.47189 26.684 2.49589 27.072 2.51989 27.504C2.55189 27.928 2.56789 28.316 2.56789 28.668V33H1.66789ZM11.9946 33.144C11.3786 33.144 10.9266 32.952 10.6386 32.568C10.3506 32.176 10.2066 31.608 10.2066 30.864V27.168H11.2026V30.732C11.2026 31.276 11.2866 31.672 11.4546 31.92C11.6306 32.168 11.9106 32.292 12.2946 32.292C12.5986 32.292 12.8666 32.216 13.0986 32.064C13.3386 31.904 13.5946 31.652 13.8666 31.308V27.168H14.8506V33H14.0346L13.9506 32.088H13.9146C13.6426 32.408 13.3546 32.664 13.0506 32.856C12.7466 33.048 12.3946 33.144 11.9946 33.144ZM18.654 33.144C18.03 33.144 17.594 32.964 17.346 32.604C17.106 32.244 16.986 31.776 16.986 31.2V27.972H16.122V27.228L17.034 27.168L17.154 25.536H17.982V27.168H19.554V27.972H17.982V31.212C17.982 31.572 18.046 31.852 18.174 32.052C18.31 32.244 18.546 32.34 18.882 32.34C18.986 32.34 19.098 32.324 19.218 32.292C19.338 32.252 19.446 32.216 19.542 32.184L19.734 32.928C19.574 32.984 19.398 33.032 19.206 33.072C19.022 33.12 18.838 33.144 18.654 33.144ZM22.5767 33.144C21.9607 33.144 21.5087 32.952 21.2207 32.568C20.9327 32.176 20.7887 31.608 20.7887 30.864V27.168H21.7847V30.732C21.7847 31.276 21.8687 31.672 22.0367 31.92C22.2127 32.168 22.4927 32.292 22.8767 32.292C23.1807 32.292 23.4487 32.216 23.6807 32.064C23.9207 31.904 24.1767 31.652 24.4487 31.308V27.168H25.4327V33H24.6167L24.5327 32.088H24.4967C24.2247 32.408 23.9367 32.664 23.6327 32.856C23.3287 33.048 22.9767 33.144 22.5767 33.144ZM28.744 33.144C28.256 33.144 27.848 33 27.52 32.712C27.2 32.416 27.04 32.008 27.04 31.488C27.04 30.848 27.324 30.36 27.892 30.024C28.468 29.68 29.376 29.44 30.616 29.304C30.616 29.056 30.58 28.82 30.508 28.596C30.444 28.372 30.324 28.192 30.148 28.056C29.98 27.912 29.736 27.84 29.416 27.84C29.08 27.84 28.764 27.904 28.468 28.032C28.172 28.16 27.908 28.304 27.676 28.464L27.292 27.78C27.564 27.604 27.896 27.436 28.288 27.276C28.688 27.108 29.12 27.024 29.584 27.024C30.296 27.024 30.812 27.244 31.132 27.684C31.452 28.116 31.612 28.696 31.612 29.424V33H30.796L30.712 32.304H30.676C30.404 32.528 30.104 32.724 29.776 32.892C29.456 33.06 29.112 33.144 28.744 33.144ZM29.032 32.352C29.312 32.352 29.576 32.284 29.824 32.148C30.072 32.012 30.336 31.82 30.616 31.572V29.952C29.648 30.072 28.968 30.252 28.576 30.492C28.192 30.732 28 31.04 28 31.416C28 31.744 28.1 31.984 28.3 32.136C28.5 32.28 28.744 32.352 29.032 32.352ZM34.4909 33.144C34.1229 33.144 33.8549 33.032 33.6869 32.808C33.5269 32.576 33.4469 32.248 33.4469 31.824V24.456H34.4309V31.896C34.4309 32.048 34.4589 32.16 34.5149 32.232C34.5709 32.296 34.6349 32.328 34.7069 32.328C34.7389 32.328 34.7669 32.328 34.7909 32.328C34.8229 32.32 34.8669 32.312 34.9229 32.304L35.0549 33.048C34.9909 33.08 34.9149 33.104 34.8269 33.12C34.7389 33.136 34.6269 33.144 34.4909 33.144ZM39.0038 33V25.128H43.5398V25.968H39.9998V28.632H42.9998V29.472H39.9998V33H39.0038ZM46.354 33.144C45.738 33.144 45.286 32.952 44.998 32.568C44.71 32.176 44.566 31.608 44.566 30.864V27.168H45.562V30.732C45.562 31.276 45.646 31.672 45.814 31.92C45.99 32.168 46.27 32.292 46.654 32.292C46.958 32.292 47.226 32.216 47.458 32.064C47.698 31.904 47.954 31.652 48.226 31.308V27.168H49.21V33H48.394L48.31 32.088H48.274C48.002 32.408 47.714 32.664 47.41 32.856C47.106 33.048 46.754 33.144 46.354 33.144ZM51.1774 33V27.168H51.9934L52.0774 28.008H52.1134C52.3934 27.728 52.6894 27.496 53.0014 27.312C53.3134 27.12 53.6694 27.024 54.0694 27.024C54.6854 27.024 55.1334 27.22 55.4134 27.612C55.7014 27.996 55.8454 28.56 55.8454 29.304V33H54.8614V29.436C54.8614 28.892 54.7734 28.496 54.5974 28.248C54.4214 28 54.1414 27.876 53.7574 27.876C53.4614 27.876 53.1934 27.952 52.9534 28.104C52.7214 28.256 52.4574 28.48 52.1614 28.776V33H51.1774ZM59.7319 33.144C59.0039 33.144 58.4199 32.88 57.9799 32.352C57.5399 31.816 57.3199 31.064 57.3199 30.096C57.3199 29.464 57.4359 28.92 57.6679 28.464C57.9079 28 58.2199 27.644 58.6039 27.396C58.9959 27.148 59.4119 27.024 59.8519 27.024C60.1879 27.024 60.4799 27.084 60.7279 27.204C60.9759 27.324 61.2279 27.488 61.4839 27.696L61.4359 26.7V24.456H62.4319V33H61.6159L61.5319 32.316H61.4959C61.2719 32.54 61.0079 32.736 60.7039 32.904C60.3999 33.064 60.0759 33.144 59.7319 33.144ZM59.9479 32.316C60.4599 32.316 60.9559 32.048 61.4359 31.512V28.464C61.1879 28.24 60.9479 28.084 60.7159 27.996C60.4919 27.9 60.2599 27.852 60.0199 27.852C59.7079 27.852 59.4239 27.948 59.1679 28.14C58.9199 28.324 58.7199 28.584 58.5679 28.92C58.4159 29.248 58.3399 29.636 58.3399 30.084C58.3399 30.78 58.4799 31.328 58.7599 31.728C59.0399 32.12 59.4359 32.316 59.9479 32.316Z" fill="#002949"/>
<path d="M223.333 32.144C222.677 32.144 222.089 31.984 221.569 31.664C221.057 31.336 220.649 30.868 220.345 30.26C220.049 29.652 219.901 28.92 219.901 28.064C219.901 27.216 220.053 26.488 220.357 25.88C220.661 25.272 221.077 24.804 221.605 24.476C222.133 24.148 222.729 23.984 223.393 23.984C223.873 23.984 224.297 24.084 224.665 24.284C225.033 24.476 225.329 24.7 225.553 24.956L225.013 25.604C224.805 25.38 224.569 25.2 224.305 25.064C224.041 24.928 223.741 24.86 223.405 24.86C222.909 24.86 222.473 24.992 222.097 25.256C221.729 25.512 221.441 25.876 221.233 26.348C221.033 26.82 220.933 27.384 220.933 28.04C220.933 28.696 221.033 29.268 221.233 29.756C221.433 30.236 221.713 30.608 222.073 30.872C222.441 31.136 222.873 31.268 223.369 31.268C223.745 31.268 224.081 31.188 224.377 31.028C224.673 30.868 224.945 30.652 225.193 30.38L225.745 31.004C225.433 31.364 225.081 31.644 224.689 31.844C224.297 32.044 223.845 32.144 223.333 32.144ZM229.385 32.144C228.913 32.144 228.469 32.024 228.053 31.784C227.645 31.544 227.313 31.196 227.057 30.74C226.809 30.284 226.685 29.736 226.685 29.096C226.685 28.44 226.809 27.884 227.057 27.428C227.313 26.972 227.645 26.624 228.053 26.384C228.469 26.144 228.913 26.024 229.385 26.024C229.865 26.024 230.309 26.144 230.717 26.384C231.125 26.624 231.453 26.972 231.701 27.428C231.957 27.884 232.085 28.44 232.085 29.096C232.085 29.736 231.957 30.284 231.701 30.74C231.453 31.196 231.125 31.544 230.717 31.784C230.309 32.024 229.865 32.144 229.385 32.144ZM229.385 31.328C229.889 31.328 230.293 31.124 230.597 30.716C230.909 30.3 231.065 29.76 231.065 29.096C231.065 28.424 230.909 27.88 230.597 27.464C230.293 27.048 229.889 26.84 229.385 26.84C228.889 26.84 228.485 27.048 228.173 27.464C227.861 27.88 227.705 28.424 227.705 29.096C227.705 29.76 227.861 30.3 228.173 30.716C228.485 31.124 228.889 31.328 229.385 31.328ZM233.621 32V26.168H234.437L234.521 27.008H234.557C234.837 26.728 235.133 26.496 235.445 26.312C235.757 26.12 236.113 26.024 236.513 26.024C237.129 26.024 237.577 26.22 237.857 26.612C238.145 26.996 238.289 27.56 238.289 28.304V32H237.305V28.436C237.305 27.892 237.217 27.496 237.041 27.248C236.865 27 236.585 26.876 236.201 26.876C235.905 26.876 235.637 26.952 235.397 27.104C235.165 27.256 234.901 27.48 234.605 27.776V32H233.621ZM240.351 32V26.972H239.559V26.228L240.351 26.168V25.244C240.351 24.652 240.487 24.184 240.759 23.84C241.039 23.488 241.471 23.312 242.055 23.312C242.239 23.312 242.415 23.332 242.583 23.372C242.751 23.404 242.899 23.448 243.027 23.504L242.811 24.26C242.595 24.164 242.375 24.116 242.151 24.116C241.607 24.116 241.335 24.492 241.335 25.244V26.168H242.571V26.972H241.335V32H240.351ZM243.687 32V26.168H244.671V32H243.687ZM244.191 24.968C243.999 24.968 243.839 24.912 243.711 24.8C243.591 24.68 243.531 24.52 243.531 24.32C243.531 24.128 243.591 23.972 243.711 23.852C243.839 23.732 243.999 23.672 244.191 23.672C244.383 23.672 244.539 23.732 244.659 23.852C244.787 23.972 244.851 24.128 244.851 24.32C244.851 24.52 244.787 24.68 244.659 24.8C244.539 24.912 244.383 24.968 244.191 24.968ZM246.64 32V26.168H247.456L247.54 27.224H247.576C247.776 26.856 248.02 26.564 248.308 26.348C248.596 26.132 248.904 26.024 249.232 26.024C249.464 26.024 249.672 26.064 249.856 26.144L249.664 27.008C249.568 26.976 249.48 26.952 249.4 26.936C249.32 26.92 249.22 26.912 249.1 26.912C248.852 26.912 248.592 27.012 248.32 27.212C248.056 27.412 247.824 27.76 247.624 28.256V32H246.64ZM250.8 32V26.168H251.616L251.7 27.008H251.736C251.992 26.728 252.272 26.496 252.576 26.312C252.88 26.12 253.204 26.024 253.548 26.024C253.996 26.024 254.344 26.124 254.592 26.324C254.848 26.516 255.036 26.788 255.156 27.14C255.46 26.812 255.768 26.544 256.08 26.336C256.392 26.128 256.724 26.024 257.076 26.024C257.676 26.024 258.12 26.22 258.408 26.612C258.704 26.996 258.852 27.56 258.852 28.304V32H257.868V28.436C257.868 27.892 257.78 27.496 257.604 27.248C257.428 27 257.156 26.876 256.788 26.876C256.356 26.876 255.868 27.176 255.324 27.776V32H254.34V28.436C254.34 27.892 254.252 27.496 254.076 27.248C253.9 27 253.624 26.876 253.248 26.876C252.816 26.876 252.328 27.176 251.784 27.776V32H250.8ZM262.094 32.144C261.606 32.144 261.198 32 260.87 31.712C260.55 31.416 260.39 31.008 260.39 30.488C260.39 29.848 260.674 29.36 261.242 29.024C261.818 28.68 262.726 28.44 263.966 28.304C263.966 28.056 263.93 27.82 263.858 27.596C263.794 27.372 263.674 27.192 263.498 27.056C263.33 26.912 263.086 26.84 262.766 26.84C262.43 26.84 262.114 26.904 261.818 27.032C261.522 27.16 261.258 27.304 261.026 27.464L260.642 26.78C260.914 26.604 261.246 26.436 261.638 26.276C262.038 26.108 262.47 26.024 262.934 26.024C263.646 26.024 264.162 26.244 264.482 26.684C264.802 27.116 264.962 27.696 264.962 28.424V32H264.146L264.062 31.304H264.026C263.754 31.528 263.454 31.724 263.126 31.892C262.806 32.06 262.462 32.144 262.094 32.144ZM262.382 31.352C262.662 31.352 262.926 31.284 263.174 31.148C263.422 31.012 263.686 30.82 263.966 30.572V28.952C262.998 29.072 262.318 29.252 261.926 29.492C261.542 29.732 261.35 30.04 261.35 30.416C261.35 30.744 261.45 30.984 261.65 31.136C261.85 31.28 262.094 31.352 262.382 31.352ZM268.468 32.144C267.844 32.144 267.408 31.964 267.16 31.604C266.92 31.244 266.8 30.776 266.8 30.2V26.972H265.936V26.228L266.848 26.168L266.968 24.536H267.796V26.168H269.368V26.972H267.796V30.212C267.796 30.572 267.86 30.852 267.988 31.052C268.124 31.244 268.36 31.34 268.696 31.34C268.8 31.34 268.912 31.324 269.032 31.292C269.152 31.252 269.26 31.216 269.356 31.184L269.548 31.928C269.388 31.984 269.212 32.032 269.02 32.072C268.836 32.12 268.652 32.144 268.468 32.144ZM270.687 32V26.168H271.671V32H270.687ZM271.191 24.968C270.999 24.968 270.839 24.912 270.711 24.8C270.591 24.68 270.531 24.52 270.531 24.32C270.531 24.128 270.591 23.972 270.711 23.852C270.839 23.732 270.999 23.672 271.191 23.672C271.383 23.672 271.539 23.732 271.659 23.852C271.787 23.972 271.851 24.128 271.851 24.32C271.851 24.52 271.787 24.68 271.659 24.8C271.539 24.912 271.383 24.968 271.191 24.968ZM275.908 32.144C275.436 32.144 274.992 32.024 274.576 31.784C274.168 31.544 273.836 31.196 273.58 30.74C273.332 30.284 273.208 29.736 273.208 29.096C273.208 28.44 273.332 27.884 273.58 27.428C273.836 26.972 274.168 26.624 274.576 26.384C274.992 26.144 275.436 26.024 275.908 26.024C276.388 26.024 276.832 26.144 277.24 26.384C277.648 26.624 277.976 26.972 278.224 27.428C278.48 27.884 278.608 28.44 278.608 29.096C278.608 29.736 278.48 30.284 278.224 30.74C277.976 31.196 277.648 31.544 277.24 31.784C276.832 32.024 276.388 32.144 275.908 32.144ZM275.908 31.328C276.412 31.328 276.816 31.124 277.12 30.716C277.432 30.3 277.588 29.76 277.588 29.096C277.588 28.424 277.432 27.88 277.12 27.464C276.816 27.048 276.412 26.84 275.908 26.84C275.412 26.84 275.008 27.048 274.696 27.464C274.384 27.88 274.228 28.424 274.228 29.096C274.228 29.76 274.384 30.3 274.696 30.716C275.008 31.124 275.412 31.328 275.908 31.328ZM280.144 32V26.168H280.96L281.044 27.008H281.08C281.36 26.728 281.656 26.496 281.968 26.312C282.28 26.12 282.636 26.024 283.036 26.024C283.652 26.024 284.1 26.22 284.38 26.612C284.668 26.996 284.812 27.56 284.812 28.304V32H283.828V28.436C283.828 27.892 283.74 27.496 283.564 27.248C283.388 27 283.108 26.876 282.724 26.876C282.428 26.876 282.16 26.952 281.92 27.104C281.688 27.256 281.424 27.48 281.128 27.776V32H280.144Z" fill="#002949"/>
<path d="M308.208 32.144C307.552 32.144 306.956 31.988 306.42 31.676C305.884 31.364 305.456 30.908 305.136 30.308C304.824 29.7 304.668 28.964 304.668 28.1C304.668 27.244 304.828 26.512 305.148 25.904C305.476 25.288 305.912 24.82 306.456 24.5C307 24.172 307.6 24.008 308.256 24.008C308.752 24.008 309.192 24.108 309.576 24.308C309.96 24.508 310.276 24.74 310.524 25.004L309.78 25.904C309.58 25.696 309.356 25.532 309.108 25.412C308.868 25.284 308.596 25.22 308.292 25.22C307.868 25.22 307.488 25.336 307.152 25.568C306.824 25.792 306.564 26.116 306.372 26.54C306.188 26.964 306.096 27.472 306.096 28.064C306.096 28.96 306.292 29.664 306.684 30.176C307.076 30.68 307.6 30.932 308.256 30.932C308.608 30.932 308.92 30.86 309.192 30.716C309.464 30.564 309.712 30.368 309.936 30.128L310.68 31.004C310.36 31.372 309.992 31.656 309.576 31.856C309.168 32.048 308.712 32.144 308.208 32.144ZM314.282 32.144C313.794 32.144 313.338 32.024 312.914 31.784C312.49 31.536 312.146 31.184 311.882 30.728C311.618 30.264 311.486 29.708 311.486 29.06C311.486 28.404 311.618 27.848 311.882 27.392C312.146 26.928 312.49 26.576 312.914 26.336C313.338 26.088 313.794 25.964 314.282 25.964C314.778 25.964 315.238 26.088 315.662 26.336C316.086 26.576 316.43 26.928 316.694 27.392C316.958 27.848 317.09 28.404 317.09 29.06C317.09 29.708 316.958 30.264 316.694 30.728C316.43 31.184 316.086 31.536 315.662 31.784C315.238 32.024 314.778 32.144 314.282 32.144ZM314.282 31.016C314.714 31.016 315.054 30.836 315.302 30.476C315.55 30.116 315.674 29.644 315.674 29.06C315.674 28.468 315.55 27.992 315.302 27.632C315.054 27.272 314.714 27.092 314.282 27.092C313.85 27.092 313.51 27.272 313.262 27.632C313.022 27.992 312.902 28.468 312.902 29.06C312.902 29.644 313.022 30.116 313.262 30.476C313.51 30.836 313.85 31.016 314.282 31.016ZM318.456 32V26.108H319.596L319.692 26.912H319.74C319.988 26.648 320.256 26.424 320.544 26.24C320.84 26.056 321.172 25.964 321.54 25.964C321.972 25.964 322.316 26.06 322.572 26.252C322.836 26.436 323.036 26.692 323.172 27.02C323.452 26.716 323.744 26.464 324.048 26.264C324.36 26.064 324.7 25.964 325.068 25.964C325.692 25.964 326.152 26.168 326.448 26.576C326.744 26.984 326.892 27.56 326.892 28.304V32H325.5V28.484C325.5 27.996 325.424 27.652 325.272 27.452C325.128 27.252 324.904 27.152 324.6 27.152C324.232 27.152 323.82 27.396 323.364 27.884V32H321.984V28.484C321.984 27.996 321.908 27.652 321.756 27.452C321.612 27.252 321.384 27.152 321.072 27.152C320.704 27.152 320.292 27.396 319.836 27.884V32H318.456ZM328.569 34.328V26.108H329.709L329.805 26.732H329.853C330.101 26.524 330.377 26.344 330.681 26.192C330.993 26.04 331.309 25.964 331.629 25.964C332.365 25.964 332.933 26.236 333.333 26.78C333.741 27.324 333.945 28.052 333.945 28.964C333.945 29.636 333.825 30.212 333.585 30.692C333.345 31.164 333.033 31.524 332.649 31.772C332.273 32.02 331.865 32.144 331.425 32.144C331.169 32.144 330.913 32.088 330.657 31.976C330.401 31.856 330.153 31.696 329.913 31.496L329.949 32.48V34.328H328.569ZM331.137 31.004C331.529 31.004 331.857 30.832 332.121 30.488C332.385 30.144 332.517 29.64 332.517 28.976C332.517 28.384 332.417 27.924 332.217 27.596C332.017 27.268 331.693 27.104 331.245 27.104C330.829 27.104 330.397 27.324 329.949 27.764V30.512C330.165 30.688 330.373 30.816 330.573 30.896C330.773 30.968 330.961 31.004 331.137 31.004ZM336.687 32.144C336.199 32.144 335.851 31.996 335.643 31.7C335.443 31.404 335.343 31 335.343 30.488V23.528H336.723V30.56C336.723 30.728 336.755 30.848 336.819 30.92C336.883 30.984 336.951 31.016 337.023 31.016C337.055 31.016 337.083 31.016 337.107 31.016C337.139 31.008 337.183 31 337.239 30.992L337.419 32.024C337.339 32.056 337.235 32.084 337.107 32.108C336.987 32.132 336.847 32.144 336.687 32.144ZM341.121 32.144C340.577 32.144 340.085 32.024 339.645 31.784C339.205 31.536 338.857 31.184 338.601 30.728C338.345 30.264 338.217 29.708 338.217 29.06C338.217 28.42 338.345 27.868 338.601 27.404C338.865 26.94 339.205 26.584 339.621 26.336C340.037 26.088 340.473 25.964 340.929 25.964C341.465 25.964 341.913 26.084 342.273 26.324C342.633 26.556 342.905 26.884 343.089 27.308C343.273 27.724 343.365 28.208 343.365 28.76C343.365 29.048 343.345 29.272 343.305 29.432H339.561C339.625 29.952 339.813 30.356 340.125 30.644C340.437 30.932 340.829 31.076 341.301 31.076C341.557 31.076 341.793 31.04 342.009 30.968C342.233 30.888 342.453 30.78 342.669 30.644L343.137 31.508C342.857 31.692 342.545 31.844 342.201 31.964C341.857 32.084 341.497 32.144 341.121 32.144ZM339.549 28.496H342.165C342.165 28.04 342.065 27.684 341.865 27.428C341.665 27.164 341.365 27.032 340.965 27.032C340.621 27.032 340.313 27.16 340.041 27.416C339.777 27.664 339.613 28.024 339.549 28.496ZM346.641 32.144C345.961 32.144 345.477 31.948 345.189 31.556C344.909 31.156 344.769 30.64 344.769 30.008V27.2H343.929V26.168L344.841 26.108L345.009 24.5H346.161V26.108H347.661V27.2H346.161V30.008C346.161 30.696 346.437 31.04 346.989 31.04C347.093 31.04 347.201 31.028 347.313 31.004C347.425 30.972 347.521 30.94 347.601 30.908L347.841 31.928C347.681 31.984 347.497 32.032 347.289 32.072C347.089 32.12 346.873 32.144 346.641 32.144ZM351.234 32.144C350.69 32.144 350.198 32.024 349.758 31.784C349.318 31.536 348.97 31.184 348.714 30.728C348.458 30.264 348.33 29.708 348.33 29.06C348.33 28.42 348.458 27.868 348.714 27.404C348.978 26.94 349.318 26.584 349.734 26.336C350.15 26.088 350.586 25.964 351.042 25.964C351.578 25.964 352.026 26.084 352.386 26.324C352.746 26.556 353.018 26.884 353.202 27.308C353.386 27.724 353.478 28.208 353.478 28.76C353.478 29.048 353.458 29.272 353.418 29.432H349.674C349.738 29.952 349.926 30.356 350.238 30.644C350.55 30.932 350.942 31.076 351.414 31.076C351.67 31.076 351.906 31.04 352.122 30.968C352.346 30.888 352.566 30.78 352.782 30.644L353.25 31.508C352.97 31.692 352.658 31.844 352.314 31.964C351.97 32.084 351.61 32.144 351.234 32.144ZM349.662 28.496H352.278C352.278 28.04 352.178 27.684 351.978 27.428C351.778 27.164 351.478 27.032 351.078 27.032C350.734 27.032 350.426 27.16 350.154 27.416C349.89 27.664 349.726 28.024 349.662 28.496Z" fill="#002949"/>
<path d="M89.8735 27.596L89.5015 28.796H91.8655L91.4935 27.596C91.3495 27.156 91.2135 26.72 91.0855 26.288C90.9575 25.848 90.8295 25.4 90.7015 24.944H90.6535C90.5335 25.4 90.4095 25.848 90.2815 26.288C90.1535 26.72 90.0175 27.156 89.8735 27.596ZM87.4735 32L90.1375 24.128H91.2655L93.9295 32H92.8615L92.1175 29.6H89.2495L88.4935 32H87.4735ZM94.9488 32V26.168H95.7648L95.8488 27.008H95.8848C96.1408 26.728 96.4208 26.496 96.7248 26.312C97.0288 26.12 97.3528 26.024 97.6968 26.024C98.1448 26.024 98.4928 26.124 98.7408 26.324C98.9968 26.516 99.1848 26.788 99.3048 27.14C99.6088 26.812 99.9168 26.544 100.229 26.336C100.541 26.128 100.873 26.024 101.225 26.024C101.825 26.024 102.269 26.22 102.557 26.612C102.853 26.996 103.001 27.56 103.001 28.304V32H102.017V28.436C102.017 27.892 101.929 27.496 101.753 27.248C101.577 27 101.305 26.876 100.937 26.876C100.505 26.876 100.017 27.176 99.4728 27.776V32H98.4888V28.436C98.4888 27.892 98.4008 27.496 98.2248 27.248C98.0488 27 97.7728 26.876 97.3968 26.876C96.9648 26.876 96.4768 27.176 95.9328 27.776V32H94.9488ZM107.166 32.144C106.694 32.144 106.25 32.024 105.834 31.784C105.426 31.544 105.094 31.196 104.838 30.74C104.59 30.284 104.466 29.736 104.466 29.096C104.466 28.44 104.59 27.884 104.838 27.428C105.094 26.972 105.426 26.624 105.834 26.384C106.25 26.144 106.694 26.024 107.166 26.024C107.646 26.024 108.09 26.144 108.498 26.384C108.906 26.624 109.234 26.972 109.482 27.428C109.738 27.884 109.866 28.44 109.866 29.096C109.866 29.736 109.738 30.284 109.482 30.74C109.234 31.196 108.906 31.544 108.498 31.784C108.09 32.024 107.646 32.144 107.166 32.144ZM107.166 31.328C107.67 31.328 108.074 31.124 108.378 30.716C108.69 30.3 108.846 29.76 108.846 29.096C108.846 28.424 108.69 27.88 108.378 27.464C108.074 27.048 107.67 26.84 107.166 26.84C106.67 26.84 106.266 27.048 105.954 27.464C105.642 27.88 105.486 28.424 105.486 29.096C105.486 29.76 105.642 30.3 105.954 30.716C106.266 31.124 106.67 31.328 107.166 31.328ZM113.106 32.144C112.49 32.144 112.038 31.952 111.75 31.568C111.462 31.176 111.318 30.608 111.318 29.864V26.168H112.314V29.732C112.314 30.276 112.398 30.672 112.566 30.92C112.742 31.168 113.022 31.292 113.406 31.292C113.71 31.292 113.978 31.216 114.21 31.064C114.45 30.904 114.706 30.652 114.978 30.308V26.168H115.962V32H115.146L115.062 31.088H115.026C114.754 31.408 114.466 31.664 114.162 31.856C113.858 32.048 113.506 32.144 113.106 32.144ZM117.929 32V26.168H118.745L118.829 27.008H118.865C119.145 26.728 119.441 26.496 119.753 26.312C120.065 26.12 120.421 26.024 120.821 26.024C121.437 26.024 121.885 26.22 122.165 26.612C122.453 26.996 122.597 27.56 122.597 28.304V32H121.613V28.436C121.613 27.892 121.525 27.496 121.349 27.248C121.173 27 120.893 26.876 120.509 26.876C120.213 26.876 119.945 26.952 119.705 27.104C119.473 27.256 119.209 27.48 118.913 27.776V32H117.929ZM126.328 32.144C125.704 32.144 125.268 31.964 125.02 31.604C124.78 31.244 124.66 30.776 124.66 30.2V26.972H123.796V26.228L124.708 26.168L124.828 24.536H125.656V26.168H127.228V26.972H125.656V30.212C125.656 30.572 125.72 30.852 125.848 31.052C125.984 31.244 126.22 31.34 126.556 31.34C126.66 31.34 126.772 31.324 126.892 31.292C127.012 31.252 127.12 31.216 127.216 31.184L127.408 31.928C127.248 31.984 127.072 32.032 126.88 32.072C126.696 32.12 126.512 32.144 126.328 32.144Z" fill="#002949"/>
<path d="M155.355 31V23.128H157.599C158.191 23.128 158.707 23.2 159.147 23.344C159.587 23.488 159.931 23.732 160.179 24.076C160.427 24.412 160.551 24.868 160.551 25.444C160.551 26.268 160.283 26.88 159.747 27.28C159.211 27.68 158.511 27.88 157.647 27.88H156.351V31H155.355ZM156.351 27.064H157.527C158.215 27.064 158.723 26.936 159.051 26.68C159.387 26.416 159.555 26.004 159.555 25.444C159.555 24.876 159.379 24.484 159.027 24.268C158.683 24.044 158.167 23.932 157.479 23.932H156.351V27.064ZM162.885 31.144C162.397 31.144 161.989 31 161.661 30.712C161.341 30.416 161.181 30.008 161.181 29.488C161.181 28.848 161.465 28.36 162.033 28.024C162.609 27.68 163.517 27.44 164.757 27.304C164.757 27.056 164.721 26.82 164.649 26.596C164.585 26.372 164.465 26.192 164.289 26.056C164.121 25.912 163.877 25.84 163.557 25.84C163.221 25.84 162.905 25.904 162.609 26.032C162.313 26.16 162.049 26.304 161.817 26.464L161.433 25.78C161.705 25.604 162.037 25.436 162.429 25.276C162.829 25.108 163.261 25.024 163.725 25.024C164.437 25.024 164.953 25.244 165.273 25.684C165.593 26.116 165.753 26.696 165.753 27.424V31H164.937L164.853 30.304H164.817C164.545 30.528 164.245 30.724 163.917 30.892C163.597 31.06 163.253 31.144 162.885 31.144ZM163.173 30.352C163.453 30.352 163.717 30.284 163.965 30.148C164.213 30.012 164.477 29.82 164.757 29.572V27.952C163.789 28.072 163.109 28.252 162.717 28.492C162.333 28.732 162.141 29.04 162.141 29.416C162.141 29.744 162.241 29.984 162.441 30.136C162.641 30.28 162.885 30.352 163.173 30.352ZM167.684 33.508C167.556 33.508 167.432 33.496 167.312 33.472C167.2 33.448 167.096 33.42 167 33.388L167.192 32.608C167.256 32.624 167.328 32.64 167.408 32.656C167.488 32.68 167.564 32.692 167.636 32.692C167.964 32.692 168.236 32.572 168.452 32.332C168.668 32.1 168.836 31.804 168.956 31.444L169.088 31.012L166.748 25.168H167.768L168.956 28.396C169.044 28.644 169.136 28.912 169.232 29.2C169.336 29.488 169.432 29.768 169.52 30.04H169.568C169.656 29.776 169.74 29.5 169.82 29.212C169.9 28.924 169.98 28.652 170.06 28.396L171.104 25.168H172.064L169.868 31.48C169.732 31.864 169.568 32.208 169.376 32.512C169.192 32.816 168.96 33.056 168.68 33.232C168.408 33.416 168.076 33.508 167.684 33.508ZM173.189 31V25.168H174.005L174.089 26.008H174.125C174.381 25.728 174.661 25.496 174.965 25.312C175.269 25.12 175.593 25.024 175.937 25.024C176.385 25.024 176.733 25.124 176.981 25.324C177.237 25.516 177.425 25.788 177.545 26.14C177.849 25.812 178.157 25.544 178.469 25.336C178.781 25.128 179.113 25.024 179.465 25.024C180.065 25.024 180.509 25.22 180.797 25.612C181.093 25.996 181.241 26.56 181.241 27.304V31H180.257V27.436C180.257 26.892 180.169 26.496 179.993 26.248C179.817 26 179.545 25.876 179.177 25.876C178.745 25.876 178.257 26.176 177.713 26.776V31H176.729V27.436C176.729 26.892 176.641 26.496 176.465 26.248C176.289 26 176.013 25.876 175.637 25.876C175.205 25.876 174.717 26.176 174.173 26.776V31H173.189ZM185.502 31.144C184.982 31.144 184.51 31.024 184.086 30.784C183.662 30.536 183.326 30.184 183.078 29.728C182.83 29.272 182.706 28.728 182.706 28.096C182.706 27.456 182.83 26.908 183.078 26.452C183.334 25.996 183.662 25.644 184.062 25.396C184.462 25.148 184.882 25.024 185.322 25.024C186.066 25.024 186.638 25.272 187.038 25.768C187.446 26.264 187.65 26.928 187.65 27.76C187.65 27.864 187.646 27.968 187.638 28.072C187.638 28.168 187.63 28.252 187.614 28.324H183.678C183.718 28.94 183.91 29.432 184.254 29.8C184.606 30.168 185.062 30.352 185.622 30.352C185.902 30.352 186.158 30.312 186.39 30.232C186.63 30.144 186.858 30.032 187.074 29.896L187.422 30.544C187.174 30.704 186.89 30.844 186.57 30.964C186.258 31.084 185.902 31.144 185.502 31.144ZM183.666 27.616H186.786C186.786 27.024 186.658 26.576 186.402 26.272C186.154 25.96 185.802 25.804 185.346 25.804C184.938 25.804 184.57 25.964 184.242 26.284C183.922 26.596 183.73 27.04 183.666 27.616ZM189.091 31V25.168H189.907L189.991 26.008H190.027C190.307 25.728 190.603 25.496 190.915 25.312C191.227 25.12 191.583 25.024 191.983 25.024C192.599 25.024 193.047 25.22 193.327 25.612C193.615 25.996 193.759 26.56 193.759 27.304V31H192.775V27.436C192.775 26.892 192.687 26.496 192.511 26.248C192.335 26 192.055 25.876 191.671 25.876C191.375 25.876 191.107 25.952 190.867 26.104C190.635 26.256 190.371 26.48 190.075 26.776V31H189.091ZM197.49 31.144C196.866 31.144 196.43 30.964 196.182 30.604C195.942 30.244 195.822 29.776 195.822 29.2V25.972H194.958V25.228L195.87 25.168L195.99 23.536H196.818V25.168H198.39V25.972H196.818V29.212C196.818 29.572 196.882 29.852 197.01 30.052C197.146 30.244 197.382 30.34 197.718 30.34C197.822 30.34 197.934 30.324 198.054 30.292C198.174 30.252 198.282 30.216 198.378 30.184L198.57 30.928C198.41 30.984 198.234 31.032 198.042 31.072C197.858 31.12 197.674 31.144 197.49 31.144Z" fill="#002949"/>
<circle cx="31.8435" cy="6.84349" r="5.84349" fill="#31EE50"/>
<circle cx="175.843" cy="6.84349" r="5.84349" fill="#31EE50"/>
<circle cx="106.843" cy="6.84349" r="5.84349" fill="#31EE50"/>
<circle cx="255.144" cy="7.14357" r="5.84349" transform="rotate(-14.8171 255.144 7.14357)" fill="#31EE50"/>
<path d="M336.843 6.84349C336.843 10.0708 334.227 12.687 331 12.687C327.772 12.687 325.156 10.0708 325.156 6.84349C325.156 3.61622 327.772 1 331 1C334.227 1 336.843 3.61622 336.843 6.84349Z" fill="#31EE50"/>
<rect x="37" y="6" width="64" height="3" fill="#31EE50"/>
</svg>
