<svg width="349" height="54" viewBox="0 0 349 54" fill="none" xmlns="http://www.w3.org/2000/svg">
<rect x="28" y="5" width="95" height="3" fill="#31EE50"/>
<rect x="226" y="5" width="95" height="3" fill="#7E8295"/>
<rect x="123" y="5" width="103" height="3" fill="#31EE50"/>
<path d="M1.34657 32V22.844H4.23057C4.9119 22.844 5.51857 22.9327 6.05057 23.11C6.58257 23.2873 7.00257 23.5813 7.31057 23.992C7.61857 24.4027 7.77257 24.9627 7.77257 25.672C7.77257 26.344 7.61857 26.8993 7.31057 27.338C7.00257 27.7767 6.58724 28.1033 6.06457 28.318C5.5419 28.5327 4.94924 28.64 4.28657 28.64H2.97057V32H1.34657ZM2.97057 27.338H4.16057C5.50457 27.338 6.17657 26.7827 6.17657 25.672C6.17657 25.0933 5.99924 24.6967 5.64457 24.482C5.29924 24.258 4.7859 24.146 4.10457 24.146H2.97057V27.338ZM11.399 32.168C10.6617 32.168 10.125 31.93 9.78901 31.454C9.45301 30.978 9.28501 30.306 9.28501 29.438V25.126H10.895V29.228C10.895 29.7973 10.979 30.1987 11.147 30.432C11.315 30.6653 11.5857 30.782 11.959 30.782C12.2577 30.782 12.519 30.7073 12.743 30.558C12.9763 30.4087 13.2237 30.166 13.485 29.83V25.126H15.095V32H13.779L13.653 30.992H13.611C13.3123 31.3467 12.9857 31.6313 12.631 31.846C12.2763 32.0607 11.8657 32.168 11.399 32.168ZM17.1343 32V25.126H18.4643L18.5763 26.344H18.6323C18.875 25.896 19.169 25.5553 19.5143 25.322C19.8596 25.0793 20.2143 24.958 20.5783 24.958C20.905 24.958 21.1663 25.0047 21.3623 25.098L21.0823 26.498C20.961 26.4607 20.849 26.4327 20.7463 26.414C20.6436 26.3953 20.5176 26.386 20.3683 26.386C20.0976 26.386 19.813 26.4933 19.5143 26.708C19.2156 26.9133 18.959 27.2773 18.7443 27.8V32H17.1343ZM25.0902 32.168C24.4649 32.168 23.9002 32.028 23.3962 31.748C22.9016 31.4587 22.5049 31.048 22.2062 30.516C21.9169 29.9747 21.7722 29.326 21.7722 28.57C21.7722 27.8047 21.9309 27.156 22.2482 26.624C22.5656 26.0827 22.9856 25.672 23.5082 25.392C24.0402 25.1027 24.6096 24.958 25.2162 24.958C25.6549 24.958 26.0376 25.0327 26.3642 25.182C26.6909 25.3313 26.9802 25.5133 27.2322 25.728L26.4482 26.778C26.2709 26.6193 26.0889 26.498 25.9022 26.414C25.7156 26.3207 25.5149 26.274 25.3002 26.274C24.7496 26.274 24.2969 26.484 23.9422 26.904C23.5969 27.324 23.4242 27.8793 23.4242 28.57C23.4242 29.2513 23.5922 29.802 23.9282 30.222C24.2736 30.642 24.7169 30.852 25.2582 30.852C25.5289 30.852 25.7809 30.796 26.0142 30.684C26.2569 30.5627 26.4762 30.4227 26.6722 30.264L27.3302 31.328C27.0129 31.608 26.6582 31.818 26.2662 31.958C25.8742 32.098 25.4822 32.168 25.0902 32.168ZM28.687 32V22.116H30.297V24.664L30.241 25.994C30.5304 25.7233 30.8524 25.4853 31.207 25.28C31.5617 25.0653 31.9724 24.958 32.439 24.958C33.1764 24.958 33.713 25.196 34.049 25.672C34.385 26.148 34.553 26.82 34.553 27.688V32H32.943V27.898C32.943 27.3287 32.859 26.9273 32.691 26.694C32.523 26.4607 32.2477 26.344 31.865 26.344C31.5664 26.344 31.3004 26.4187 31.067 26.568C30.843 26.708 30.5864 26.918 30.297 27.198V32H28.687ZM38.1597 32.168C37.5623 32.168 37.0723 31.9813 36.6897 31.608C36.3163 31.2347 36.1297 30.7493 36.1297 30.152C36.1297 29.4147 36.4517 28.8453 37.0957 28.444C37.7397 28.0333 38.7663 27.7533 40.1757 27.604C40.1663 27.24 40.0683 26.9273 39.8817 26.666C39.7043 26.3953 39.3823 26.26 38.9157 26.26C38.5797 26.26 38.2483 26.3253 37.9217 26.456C37.6043 26.5867 37.2917 26.7453 36.9837 26.932L36.3957 25.854C36.7783 25.6113 37.2077 25.4013 37.6837 25.224C38.169 25.0467 38.6823 24.958 39.2237 24.958C40.0823 24.958 40.7217 25.2147 41.1417 25.728C41.571 26.232 41.7857 26.9647 41.7857 27.926V32H40.4557L40.3437 31.244H40.2877C39.9797 31.5053 39.6483 31.7247 39.2937 31.902C38.9483 32.0793 38.5703 32.168 38.1597 32.168ZM38.6777 30.908C38.9577 30.908 39.2097 30.8427 39.4337 30.712C39.667 30.572 39.9143 30.3853 40.1757 30.152V28.612C39.2423 28.7333 38.5937 28.9153 38.2297 29.158C37.8657 29.3913 37.6837 29.6807 37.6837 30.026C37.6837 30.334 37.777 30.558 37.9637 30.698C38.1503 30.838 38.3883 30.908 38.6777 30.908ZM45.6304 32.168C45.1638 32.168 44.6971 32.0793 44.2304 31.902C43.7638 31.7153 43.3624 31.4867 43.0264 31.216L43.7824 30.18C44.0904 30.4133 44.3984 30.6 44.7064 30.74C45.0144 30.88 45.3411 30.95 45.6864 30.95C46.0598 30.95 46.3351 30.8707 46.5124 30.712C46.6898 30.5533 46.7784 30.3573 46.7784 30.124C46.7784 29.928 46.7038 29.7693 46.5544 29.648C46.4144 29.5173 46.2324 29.4053 46.0084 29.312C45.7844 29.2093 45.5511 29.1113 45.3084 29.018C45.0098 28.906 44.7111 28.7707 44.4124 28.612C44.1231 28.444 43.8851 28.234 43.6984 27.982C43.5118 27.7207 43.4184 27.3987 43.4184 27.016C43.4184 26.4093 43.6424 25.9147 44.0904 25.532C44.5384 25.1493 45.1451 24.958 45.9104 24.958C46.3958 24.958 46.8298 25.042 47.2124 25.21C47.5951 25.378 47.9264 25.5693 48.2064 25.784L47.4644 26.764C47.2218 26.5867 46.9744 26.4467 46.7224 26.344C46.4798 26.232 46.2231 26.176 45.9524 26.176C45.6071 26.176 45.3504 26.2507 45.1824 26.4C45.0144 26.54 44.9304 26.7173 44.9304 26.932C44.9304 27.2027 45.0704 27.408 45.3504 27.548C45.6304 27.688 45.9571 27.8233 46.3304 27.954C46.6478 28.066 46.9558 28.206 47.2544 28.374C47.5531 28.5327 47.8004 28.7427 47.9964 29.004C48.2018 29.2653 48.3044 29.6107 48.3044 30.04C48.3044 30.628 48.0758 31.132 47.6184 31.552C47.1611 31.9627 46.4984 32.168 45.6304 32.168ZM52.6817 32.168C52.0471 32.168 51.4731 32.028 50.9597 31.748C50.4464 31.4587 50.0404 31.048 49.7417 30.516C49.4431 29.9747 49.2937 29.326 49.2937 28.57C49.2937 27.8233 49.4431 27.1793 49.7417 26.638C50.0497 26.0967 50.4464 25.6813 50.9317 25.392C51.4171 25.1027 51.9257 24.958 52.4577 24.958C53.0831 24.958 53.6057 25.098 54.0257 25.378C54.4457 25.6487 54.7631 26.0313 54.9777 26.526C55.1924 27.0113 55.2997 27.576 55.2997 28.22C55.2997 28.556 55.2764 28.8173 55.2297 29.004H50.8617C50.9364 29.6107 51.1557 30.082 51.5197 30.418C51.8837 30.754 52.3411 30.922 52.8917 30.922C53.1904 30.922 53.4657 30.88 53.7177 30.796C53.9791 30.7027 54.2357 30.5767 54.4877 30.418L55.0337 31.426C54.7071 31.6407 54.3431 31.818 53.9417 31.958C53.5404 32.098 53.1204 32.168 52.6817 32.168ZM50.8477 27.912H53.8997C53.8997 27.38 53.7831 26.9647 53.5497 26.666C53.3164 26.358 52.9664 26.204 52.4997 26.204C52.0984 26.204 51.7391 26.3533 51.4217 26.652C51.1137 26.9413 50.9224 27.3613 50.8477 27.912ZM11.264 50.168C10.4053 50.168 9.71932 49.8507 9.20598 49.216C8.69265 48.5813 8.43598 47.6993 8.43598 46.57C8.43598 45.8233 8.57132 45.1793 8.84198 44.638C9.12198 44.0967 9.48598 43.6813 9.93398 43.392C10.382 43.1027 10.8533 42.958 11.348 42.958C11.74 42.958 12.0713 43.028 12.342 43.168C12.622 43.2987 12.8927 43.4807 13.154 43.714L13.098 42.608V40.116H14.708V50H13.378L13.266 49.258H13.21C12.958 49.51 12.664 49.7247 12.328 49.902C11.992 50.0793 11.6373 50.168 11.264 50.168ZM11.656 48.838C12.1693 48.838 12.65 48.5813 13.098 48.068V44.862C12.8647 44.6473 12.6313 44.498 12.398 44.414C12.1647 44.33 11.9313 44.288 11.698 44.288C11.2593 44.288 10.8813 44.4887 10.564 44.89C10.256 45.282 10.102 45.8373 10.102 46.556C10.102 47.2933 10.2373 47.858 10.508 48.25C10.7787 48.642 11.1613 48.838 11.656 48.838ZM19.6983 50.168C19.0637 50.168 18.4897 50.028 17.9763 49.748C17.463 49.4587 17.057 49.048 16.7583 48.516C16.4597 47.9747 16.3103 47.326 16.3103 46.57C16.3103 45.8233 16.4597 45.1793 16.7583 44.638C17.0663 44.0967 17.463 43.6813 17.9483 43.392C18.4337 43.1027 18.9423 42.958 19.4743 42.958C20.0997 42.958 20.6223 43.098 21.0423 43.378C21.4623 43.6487 21.7797 44.0313 21.9943 44.526C22.209 45.0113 22.3163 45.576 22.3163 46.22C22.3163 46.556 22.293 46.8173 22.2463 47.004H17.8783C17.953 47.6107 18.1723 48.082 18.5363 48.418C18.9003 48.754 19.3577 48.922 19.9083 48.922C20.207 48.922 20.4823 48.88 20.7343 48.796C20.9957 48.7027 21.2523 48.5767 21.5043 48.418L22.0503 49.426C21.7237 49.6407 21.3597 49.818 20.9583 49.958C20.557 50.098 20.137 50.168 19.6983 50.168ZM17.8643 45.912H20.9163C20.9163 45.38 20.7997 44.9647 20.5663 44.666C20.333 44.358 19.983 44.204 19.5163 44.204C19.115 44.204 18.7557 44.3533 18.4383 44.652C18.1303 44.9413 17.939 45.3613 17.8643 45.912ZM26.1393 50.168C25.346 50.168 24.7813 49.9393 24.4453 49.482C24.1186 49.0153 23.9553 48.4133 23.9553 47.676V44.4H22.9753V43.196L24.0393 43.126L24.2353 41.25H25.5793V43.126H27.3293V44.4H25.5793V47.676C25.5793 48.4787 25.9013 48.88 26.5453 48.88C26.6666 48.88 26.7926 48.866 26.9233 48.838C27.054 48.8007 27.166 48.7633 27.2593 48.726L27.5393 49.916C27.3526 49.9813 27.138 50.0373 26.8953 50.084C26.662 50.14 26.41 50.168 26.1393 50.168ZM30.1411 50.168C29.5438 50.168 29.0538 49.9813 28.6711 49.608C28.2978 49.2347 28.1111 48.7493 28.1111 48.152C28.1111 47.4147 28.4331 46.8453 29.0771 46.444C29.7211 46.0333 30.7478 45.7533 32.1571 45.604C32.1478 45.24 32.0498 44.9273 31.8631 44.666C31.6858 44.3953 31.3638 44.26 30.8971 44.26C30.5611 44.26 30.2298 44.3253 29.9031 44.456C29.5858 44.5867 29.2731 44.7453 28.9651 44.932L28.3771 43.854C28.7598 43.6113 29.1891 43.4013 29.6651 43.224C30.1505 43.0467 30.6638 42.958 31.2051 42.958C32.0638 42.958 32.7031 43.2147 33.1231 43.728C33.5525 44.232 33.7671 44.9647 33.7671 45.926V50H32.4371L32.3251 49.244H32.2691C31.9611 49.5053 31.6298 49.7247 31.2751 49.902C30.9298 50.0793 30.5518 50.168 30.1411 50.168ZM30.6591 48.908C30.9391 48.908 31.1911 48.8427 31.4151 48.712C31.6485 48.572 31.8958 48.3853 32.1571 48.152V46.612C31.2238 46.7333 30.5751 46.9153 30.2111 47.158C29.8471 47.3913 29.6651 47.6807 29.6651 48.026C29.6651 48.334 29.7585 48.558 29.9451 48.698C30.1318 48.838 30.3698 48.908 30.6591 48.908ZM35.6939 50V43.126H37.3039V50H35.6939ZM36.5059 41.922C36.2165 41.922 35.9832 41.838 35.8059 41.67C35.6285 41.502 35.5399 41.278 35.5399 40.998C35.5399 40.7273 35.6285 40.508 35.8059 40.34C35.9832 40.172 36.2165 40.088 36.5059 40.088C36.7952 40.088 37.0285 40.172 37.2059 40.34C37.3832 40.508 37.4719 40.7273 37.4719 40.998C37.4719 41.278 37.3832 41.502 37.2059 41.67C37.0285 41.838 36.7952 41.922 36.5059 41.922ZM40.9259 50.168C40.3566 50.168 39.9506 49.9953 39.7079 49.65C39.4746 49.3047 39.3579 48.8333 39.3579 48.236V40.116H40.9679V48.32C40.9679 48.516 41.0053 48.656 41.0799 48.74C41.1546 48.8147 41.2339 48.852 41.3179 48.852C41.3553 48.852 41.3879 48.852 41.4159 48.852C41.4533 48.8427 41.5046 48.8333 41.5699 48.824L41.7799 50.028C41.6866 50.0653 41.5653 50.098 41.4159 50.126C41.2759 50.154 41.1126 50.168 40.9259 50.168ZM45.0767 50.168C44.6101 50.168 44.1434 50.0793 43.6767 49.902C43.2101 49.7153 42.8087 49.4867 42.4727 49.216L43.2287 48.18C43.5367 48.4133 43.8447 48.6 44.1527 48.74C44.4607 48.88 44.7874 48.95 45.1327 48.95C45.5061 48.95 45.7814 48.8707 45.9587 48.712C46.1361 48.5533 46.2247 48.3573 46.2247 48.124C46.2247 47.928 46.1501 47.7693 46.0007 47.648C45.8607 47.5173 45.6787 47.4053 45.4547 47.312C45.2307 47.2093 44.9974 47.1113 44.7547 47.018C44.4561 46.906 44.1574 46.7707 43.8587 46.612C43.5694 46.444 43.3314 46.234 43.1447 45.982C42.9581 45.7207 42.8647 45.3987 42.8647 45.016C42.8647 44.4093 43.0887 43.9147 43.5367 43.532C43.9847 43.1493 44.5914 42.958 45.3567 42.958C45.8421 42.958 46.2761 43.042 46.6587 43.21C47.0414 43.378 47.3727 43.5693 47.6527 43.784L46.9107 44.764C46.6681 44.5867 46.4207 44.4467 46.1687 44.344C45.9261 44.232 45.6694 44.176 45.3987 44.176C45.0534 44.176 44.7967 44.2507 44.6287 44.4C44.4607 44.54 44.3767 44.7173 44.3767 44.932C44.3767 45.2027 44.5167 45.408 44.7967 45.548C45.0767 45.688 45.4034 45.8233 45.7767 45.954C46.0941 46.066 46.4021 46.206 46.7007 46.374C46.9994 46.5327 47.2467 46.7427 47.4427 47.004C47.6481 47.2653 47.7507 47.6107 47.7507 48.04C47.7507 48.628 47.5221 49.132 47.0647 49.552C46.6074 49.9627 45.9447 50.168 45.0767 50.168Z" fill="#002949"/>
<path d="M296.912 34.168C296.146 34.168 295.46 33.9813 294.854 33.608C294.256 33.2253 293.78 32.6793 293.426 31.97C293.08 31.2607 292.908 30.4067 292.908 29.408C292.908 28.4187 293.085 27.5693 293.44 26.86C293.794 26.1507 294.28 25.6047 294.896 25.222C295.512 24.8393 296.207 24.648 296.982 24.648C297.542 24.648 298.036 24.7647 298.466 24.998C298.895 25.222 299.24 25.4833 299.502 25.782L298.872 26.538C298.629 26.2767 298.354 26.0667 298.046 25.908C297.738 25.7493 297.388 25.67 296.996 25.67C296.417 25.67 295.908 25.824 295.47 26.132C295.04 26.4307 294.704 26.8553 294.462 27.406C294.228 27.9567 294.112 28.6147 294.112 29.38C294.112 30.1453 294.228 30.8127 294.462 31.382C294.695 31.942 295.022 32.376 295.442 32.684C295.871 32.992 296.375 33.146 296.954 33.146C297.392 33.146 297.784 33.0527 298.13 32.866C298.475 32.6793 298.792 32.4273 299.082 32.11L299.726 32.838C299.362 33.258 298.951 33.5847 298.494 33.818C298.036 34.0513 297.509 34.168 296.912 34.168ZM303.972 34.168C303.421 34.168 302.903 34.028 302.418 33.748C301.942 33.468 301.554 33.062 301.256 32.53C300.966 31.998 300.822 31.3587 300.822 30.612C300.822 29.8467 300.966 29.198 301.256 28.666C301.554 28.134 301.942 27.728 302.418 27.448C302.903 27.168 303.421 27.028 303.972 27.028C304.532 27.028 305.05 27.168 305.526 27.448C306.002 27.728 306.384 28.134 306.674 28.666C306.972 29.198 307.122 29.8467 307.122 30.612C307.122 31.3587 306.972 31.998 306.674 32.53C306.384 33.062 306.002 33.468 305.526 33.748C305.05 34.028 304.532 34.168 303.972 34.168ZM303.972 33.216C304.56 33.216 305.031 32.978 305.386 32.502C305.75 32.0167 305.932 31.3867 305.932 30.612C305.932 29.828 305.75 29.1933 305.386 28.708C305.031 28.2227 304.56 27.98 303.972 27.98C303.393 27.98 302.922 28.2227 302.558 28.708C302.194 29.1933 302.012 29.828 302.012 30.612C302.012 31.3867 302.194 32.0167 302.558 32.502C302.922 32.978 303.393 33.216 303.972 33.216ZM308.914 34V27.196H309.866L309.964 28.176H310.006C310.304 27.8493 310.631 27.5787 310.986 27.364C311.34 27.14 311.718 27.028 312.12 27.028C312.642 27.028 313.048 27.1447 313.338 27.378C313.636 27.602 313.856 27.9193 313.996 28.33C314.35 27.9473 314.71 27.6347 315.074 27.392C315.438 27.1493 315.825 27.028 316.236 27.028C316.936 27.028 317.454 27.2567 317.79 27.714C318.135 28.162 318.308 28.82 318.308 29.688V34H317.16V29.842C317.16 29.2073 317.057 28.7453 316.852 28.456C316.646 28.1667 316.329 28.022 315.9 28.022C315.396 28.022 314.826 28.372 314.192 29.072V34H313.044V29.842C313.044 29.2073 312.941 28.7453 312.736 28.456C312.53 28.1667 312.208 28.022 311.77 28.022C311.266 28.022 310.696 28.372 310.062 29.072V34H308.914ZM320.521 36.87V27.196H321.473L321.571 27.98H321.613C321.921 27.7187 322.257 27.4947 322.621 27.308C322.994 27.1213 323.382 27.028 323.783 27.028C324.66 27.028 325.328 27.3453 325.785 27.98C326.242 28.6053 326.471 29.4453 326.471 30.5C326.471 31.2653 326.331 31.9233 326.051 32.474C325.78 33.0247 325.421 33.4447 324.973 33.734C324.534 34.0233 324.054 34.168 323.531 34.168C323.214 34.168 322.896 34.098 322.579 33.958C322.271 33.818 321.958 33.6267 321.641 33.384L321.669 34.574V36.87H320.521ZM323.335 33.202C323.895 33.202 324.357 32.964 324.721 32.488C325.094 32.0027 325.281 31.34 325.281 30.5C325.281 29.7533 325.141 29.1513 324.861 28.694C324.59 28.2273 324.133 27.994 323.489 27.994C323.2 27.994 322.906 28.0733 322.607 28.232C322.318 28.3907 322.005 28.6193 321.669 28.918V32.488C321.977 32.7493 322.276 32.936 322.565 33.048C322.854 33.1507 323.111 33.202 323.335 33.202ZM329.505 34.168C329.075 34.168 328.763 34.0373 328.567 33.776C328.38 33.5053 328.287 33.1227 328.287 32.628V24.032H329.435V32.712C329.435 32.8893 329.467 33.02 329.533 33.104C329.598 33.1787 329.673 33.216 329.757 33.216C329.794 33.216 329.827 33.216 329.855 33.216C329.892 33.2067 329.943 33.1973 330.009 33.188L330.163 34.056C330.088 34.0933 329.999 34.1213 329.897 34.14C329.794 34.1587 329.663 34.168 329.505 34.168ZM334.613 34.168C334.006 34.168 333.456 34.028 332.961 33.748C332.466 33.4587 332.074 33.048 331.785 32.516C331.496 31.984 331.351 31.3493 331.351 30.612C331.351 29.8653 331.496 29.226 331.785 28.694C332.084 28.162 332.466 27.7513 332.933 27.462C333.4 27.1727 333.89 27.028 334.403 27.028C335.271 27.028 335.938 27.3173 336.405 27.896C336.881 28.4747 337.119 29.2493 337.119 30.22C337.119 30.3413 337.114 30.4627 337.105 30.584C337.105 30.696 337.096 30.794 337.077 30.878H332.485C332.532 31.5967 332.756 32.1707 333.157 32.6C333.568 33.0293 334.1 33.244 334.753 33.244C335.08 33.244 335.378 33.1973 335.649 33.104C335.929 33.0013 336.195 32.8707 336.447 32.712L336.853 33.468C336.564 33.6547 336.232 33.818 335.859 33.958C335.495 34.098 335.08 34.168 334.613 34.168ZM332.471 30.052H336.111C336.111 29.3613 335.962 28.8387 335.663 28.484C335.374 28.12 334.963 27.938 334.431 27.938C333.955 27.938 333.526 28.1247 333.143 28.498C332.77 28.862 332.546 29.38 332.471 30.052ZM340.806 34.168C340.078 34.168 339.569 33.958 339.28 33.538C339 33.118 338.86 32.572 338.86 31.9V28.134H337.852V27.266L338.916 27.196L339.056 25.292H340.022V27.196H341.856V28.134H340.022V31.914C340.022 32.334 340.096 32.6607 340.246 32.894C340.404 33.118 340.68 33.23 341.072 33.23C341.193 33.23 341.324 33.2113 341.464 33.174C341.604 33.1273 341.73 33.0853 341.842 33.048L342.066 33.916C341.879 33.9813 341.674 34.0373 341.45 34.084C341.235 34.14 341.02 34.168 340.806 34.168ZM345.961 34.168C345.354 34.168 344.803 34.028 344.309 33.748C343.814 33.4587 343.422 33.048 343.133 32.516C342.843 31.984 342.699 31.3493 342.699 30.612C342.699 29.8653 342.843 29.226 343.133 28.694C343.431 28.162 343.814 27.7513 344.281 27.462C344.747 27.1727 345.237 27.028 345.751 27.028C346.619 27.028 347.286 27.3173 347.753 27.896C348.229 28.4747 348.467 29.2493 348.467 30.22C348.467 30.3413 348.462 30.4627 348.453 30.584C348.453 30.696 348.443 30.794 348.425 30.878H343.833C343.879 31.5967 344.103 32.1707 344.505 32.6C344.915 33.0293 345.447 33.244 346.101 33.244C346.427 33.244 346.726 33.1973 346.997 33.104C347.277 33.0013 347.543 32.8707 347.795 32.712L348.201 33.468C347.911 33.6547 347.58 33.818 347.207 33.958C346.843 34.098 346.427 34.168 345.961 34.168ZM343.819 30.052H347.459C347.459 29.3613 347.309 28.8387 347.011 28.484C346.721 28.12 346.311 27.938 345.779 27.938C345.303 27.938 344.873 28.1247 344.491 28.498C344.117 28.862 343.893 29.38 343.819 30.052Z" fill="#7E8295"/>
<path d="M189.839 33.168C189.074 33.168 188.379 32.986 187.753 32.622C187.128 32.258 186.629 31.726 186.255 31.026C185.891 30.3167 185.709 29.458 185.709 28.45C185.709 27.4513 185.896 26.5973 186.269 25.888C186.652 25.1693 187.161 24.6233 187.795 24.25C188.43 23.8673 189.13 23.676 189.895 23.676C190.474 23.676 190.987 23.7927 191.435 24.026C191.883 24.2593 192.252 24.53 192.541 24.838L191.673 25.888C191.44 25.6453 191.179 25.454 190.889 25.314C190.609 25.1647 190.292 25.09 189.937 25.09C189.443 25.09 188.999 25.2253 188.607 25.496C188.225 25.7573 187.921 26.1353 187.697 26.63C187.483 27.1247 187.375 27.7173 187.375 28.408C187.375 29.4533 187.604 30.2747 188.061 30.872C188.519 31.46 189.13 31.754 189.895 31.754C190.306 31.754 190.67 31.67 190.987 31.502C191.305 31.3247 191.594 31.096 191.855 30.816L192.723 31.838C192.35 32.2673 191.921 32.5987 191.435 32.832C190.959 33.056 190.427 33.168 189.839 33.168ZM196.926 33.168C196.357 33.168 195.825 33.028 195.33 32.748C194.835 32.4587 194.434 32.048 194.126 31.516C193.818 30.9747 193.664 30.326 193.664 29.57C193.664 28.8047 193.818 28.156 194.126 27.624C194.434 27.0827 194.835 26.672 195.33 26.392C195.825 26.1027 196.357 25.958 196.926 25.958C197.505 25.958 198.041 26.1027 198.536 26.392C199.031 26.672 199.432 27.0827 199.74 27.624C200.048 28.156 200.202 28.8047 200.202 29.57C200.202 30.326 200.048 30.9747 199.74 31.516C199.432 32.048 199.031 32.4587 198.536 32.748C198.041 33.028 197.505 33.168 196.926 33.168ZM196.926 31.852C197.43 31.852 197.827 31.642 198.116 31.222C198.405 30.802 198.55 30.2513 198.55 29.57C198.55 28.8793 198.405 28.324 198.116 27.904C197.827 27.484 197.43 27.274 196.926 27.274C196.422 27.274 196.025 27.484 195.736 27.904C195.456 28.324 195.316 28.8793 195.316 29.57C195.316 30.2513 195.456 30.802 195.736 31.222C196.025 31.642 196.422 31.852 196.926 31.852ZM201.795 33V26.126H203.125L203.237 27.05H203.293C203.601 26.7513 203.937 26.4947 204.301 26.28C204.665 26.0653 205.081 25.958 205.547 25.958C206.285 25.958 206.821 26.196 207.157 26.672C207.493 27.148 207.661 27.82 207.661 28.688V33H206.051V28.898C206.051 28.3287 205.967 27.9273 205.799 27.694C205.631 27.4607 205.356 27.344 204.973 27.344C204.675 27.344 204.409 27.4187 204.175 27.568C203.951 27.708 203.695 27.918 203.405 28.198V33H201.795ZM209.909 33V27.4H208.985V26.196L209.909 26.126V25.412C209.909 24.6933 210.087 24.1053 210.441 23.648C210.796 23.1813 211.379 22.948 212.191 22.948C212.434 22.948 212.667 22.9713 212.891 23.018C213.115 23.0647 213.302 23.1207 213.451 23.186L213.143 24.39C212.891 24.278 212.639 24.222 212.387 24.222C211.809 24.222 211.519 24.6093 211.519 25.384V26.126H212.863V27.4H211.519V33H209.909ZM214.073 33V26.126H215.683V33H214.073ZM214.885 24.922C214.595 24.922 214.362 24.838 214.185 24.67C214.007 24.502 213.919 24.278 213.919 23.998C213.919 23.7273 214.007 23.508 214.185 23.34C214.362 23.172 214.595 23.088 214.885 23.088C215.174 23.088 215.407 23.172 215.585 23.34C215.762 23.508 215.851 23.7273 215.851 23.998C215.851 24.278 215.762 24.502 215.585 24.67C215.407 24.838 215.174 24.922 214.885 24.922ZM217.737 33V26.126H219.067L219.179 27.344H219.235C219.478 26.896 219.772 26.5553 220.117 26.322C220.462 26.0793 220.817 25.958 221.181 25.958C221.508 25.958 221.769 26.0047 221.965 26.098L221.685 27.498C221.564 27.4607 221.452 27.4327 221.349 27.414C221.246 27.3953 221.12 27.386 220.971 27.386C220.7 27.386 220.416 27.4933 220.117 27.708C219.818 27.9133 219.562 28.2773 219.347 28.8V33H217.737ZM222.96 33V26.126H224.29L224.402 27.064H224.458C224.747 26.756 225.06 26.4947 225.396 26.28C225.741 26.0653 226.128 25.958 226.558 25.958C227.062 25.958 227.463 26.07 227.762 26.294C228.07 26.5087 228.303 26.8073 228.462 27.19C228.788 26.8353 229.129 26.5413 229.484 26.308C229.848 26.0747 230.244 25.958 230.674 25.958C231.402 25.958 231.938 26.196 232.284 26.672C232.629 27.148 232.802 27.82 232.802 28.688V33H231.178V28.898C231.178 28.3287 231.089 27.9273 230.912 27.694C230.744 27.4607 230.482 27.344 230.128 27.344C229.698 27.344 229.218 27.6287 228.686 28.198V33H227.076V28.898C227.076 28.3287 226.987 27.9273 226.81 27.694C226.642 27.4607 226.376 27.344 226.012 27.344C225.582 27.344 225.102 27.6287 224.57 28.198V33H222.96ZM236.424 33.168C235.827 33.168 235.337 32.9813 234.954 32.608C234.581 32.2347 234.394 31.7493 234.394 31.152C234.394 30.4147 234.716 29.8453 235.36 29.444C236.004 29.0333 237.031 28.7533 238.44 28.604C238.431 28.24 238.333 27.9273 238.146 27.666C237.969 27.3953 237.647 27.26 237.18 27.26C236.844 27.26 236.513 27.3253 236.186 27.456C235.869 27.5867 235.556 27.7453 235.248 27.932L234.66 26.854C235.043 26.6113 235.472 26.4013 235.948 26.224C236.434 26.0467 236.947 25.958 237.488 25.958C238.347 25.958 238.986 26.2147 239.406 26.728C239.836 27.232 240.05 27.9647 240.05 28.926V33H238.72L238.608 32.244H238.552C238.244 32.5053 237.913 32.7247 237.558 32.902C237.213 33.0793 236.835 33.168 236.424 33.168ZM236.942 31.908C237.222 31.908 237.474 31.8427 237.698 31.712C237.932 31.572 238.179 31.3853 238.44 31.152V29.612C237.507 29.7333 236.858 29.9153 236.494 30.158C236.13 30.3913 235.948 30.6807 235.948 31.026C235.948 31.334 236.042 31.558 236.228 31.698C236.415 31.838 236.653 31.908 236.942 31.908ZM244.18 33.168C243.387 33.168 242.822 32.9393 242.486 32.482C242.16 32.0153 241.996 31.4133 241.996 30.676V27.4H241.016V26.196L242.08 26.126L242.276 24.25H243.62V26.126H245.37V27.4H243.62V30.676C243.62 31.4787 243.942 31.88 244.586 31.88C244.708 31.88 244.834 31.866 244.964 31.838C245.095 31.8007 245.207 31.7633 245.3 31.726L245.58 32.916C245.394 32.9813 245.179 33.0373 244.936 33.084C244.703 33.14 244.451 33.168 244.18 33.168ZM246.817 33V26.126H248.427V33H246.817ZM247.629 24.922C247.34 24.922 247.106 24.838 246.929 24.67C246.752 24.502 246.663 24.278 246.663 23.998C246.663 23.7273 246.752 23.508 246.929 23.34C247.106 23.172 247.34 23.088 247.629 23.088C247.918 23.088 248.152 23.172 248.329 23.34C248.506 23.508 248.595 23.7273 248.595 23.998C248.595 24.278 248.506 24.502 248.329 24.67C248.152 24.838 247.918 24.922 247.629 24.922ZM253.295 33.168C252.726 33.168 252.194 33.028 251.699 32.748C251.204 32.4587 250.803 32.048 250.495 31.516C250.187 30.9747 250.033 30.326 250.033 29.57C250.033 28.8047 250.187 28.156 250.495 27.624C250.803 27.0827 251.204 26.672 251.699 26.392C252.194 26.1027 252.726 25.958 253.295 25.958C253.874 25.958 254.41 26.1027 254.905 26.392C255.4 26.672 255.801 27.0827 256.109 27.624C256.417 28.156 256.571 28.8047 256.571 29.57C256.571 30.326 256.417 30.9747 256.109 31.516C255.801 32.048 255.4 32.4587 254.905 32.748C254.41 33.028 253.874 33.168 253.295 33.168ZM253.295 31.852C253.799 31.852 254.196 31.642 254.485 31.222C254.774 30.802 254.919 30.2513 254.919 29.57C254.919 28.8793 254.774 28.324 254.485 27.904C254.196 27.484 253.799 27.274 253.295 27.274C252.791 27.274 252.394 27.484 252.105 27.904C251.825 28.324 251.685 28.8793 251.685 29.57C251.685 30.2513 251.825 30.802 252.105 31.222C252.394 31.642 252.791 31.852 253.295 31.852ZM258.165 33V26.126H259.495L259.607 27.05H259.663C259.971 26.7513 260.307 26.4947 260.671 26.28C261.035 26.0653 261.45 25.958 261.917 25.958C262.654 25.958 263.191 26.196 263.527 26.672C263.863 27.148 264.031 27.82 264.031 28.688V33H262.421V28.898C262.421 28.3287 262.337 27.9273 262.169 27.694C262.001 27.4607 261.725 27.344 261.343 27.344C261.044 27.344 260.778 27.4187 260.545 27.568C260.321 27.708 260.064 27.918 259.775 28.198V33H258.165Z" fill="#002949"/>
<path d="M96.8856 33V23.844H99.7696C100.451 23.844 101.058 23.9327 101.59 24.11C102.122 24.2873 102.542 24.5813 102.85 24.992C103.158 25.4027 103.312 25.9627 103.312 26.672C103.312 27.344 103.158 27.8993 102.85 28.338C102.542 28.7767 102.126 29.1033 101.604 29.318C101.081 29.5327 100.488 29.64 99.8256 29.64H98.5096V33H96.8856ZM98.5096 28.338H99.6996C101.044 28.338 101.716 27.7827 101.716 26.672C101.716 26.0933 101.538 25.6967 101.184 25.482C100.838 25.258 100.325 25.146 99.6436 25.146H98.5096V28.338ZM106.027 33.168C105.43 33.168 104.94 32.9813 104.557 32.608C104.184 32.2347 103.997 31.7493 103.997 31.152C103.997 30.4147 104.319 29.8453 104.963 29.444C105.607 29.0333 106.634 28.7533 108.043 28.604C108.034 28.24 107.936 27.9273 107.749 27.666C107.572 27.3953 107.25 27.26 106.783 27.26C106.447 27.26 106.116 27.3253 105.789 27.456C105.472 27.5867 105.159 27.7453 104.851 27.932L104.263 26.854C104.646 26.6113 105.075 26.4013 105.551 26.224C106.036 26.0467 106.55 25.958 107.091 25.958C107.95 25.958 108.589 26.2147 109.009 26.728C109.438 27.232 109.653 27.9647 109.653 28.926V33H108.323L108.211 32.244H108.155C107.847 32.5053 107.516 32.7247 107.161 32.902C106.816 33.0793 106.438 33.168 106.027 33.168ZM106.545 31.908C106.825 31.908 107.077 31.8427 107.301 31.712C107.534 31.572 107.782 31.3853 108.043 31.152V29.612C107.11 29.7333 106.461 29.9153 106.097 30.158C105.733 30.3913 105.551 30.6807 105.551 31.026C105.551 31.334 105.644 31.558 105.831 31.698C106.018 31.838 106.256 31.908 106.545 31.908ZM112.042 35.828C111.855 35.828 111.692 35.814 111.552 35.786C111.412 35.758 111.276 35.7253 111.146 35.688L111.44 34.428C111.505 34.4467 111.58 34.4653 111.664 34.484C111.757 34.512 111.846 34.526 111.93 34.526C112.294 34.526 112.583 34.414 112.798 34.19C113.022 33.9753 113.19 33.6953 113.302 33.35L113.428 32.916L110.726 26.126H112.364L113.554 29.5C113.656 29.7987 113.754 30.116 113.848 30.452C113.95 30.7787 114.053 31.1053 114.156 31.432H114.212C114.296 31.1147 114.38 30.7927 114.464 30.466C114.557 30.13 114.646 29.808 114.73 29.5L115.766 26.126H117.32L114.828 33.308C114.538 34.0827 114.188 34.694 113.778 35.142C113.367 35.5993 112.788 35.828 112.042 35.828ZM118.511 33V26.126H119.841L119.953 27.064H120.009C120.299 26.756 120.611 26.4947 120.947 26.28C121.293 26.0653 121.68 25.958 122.109 25.958C122.613 25.958 123.015 26.07 123.313 26.294C123.621 26.5087 123.855 26.8073 124.013 27.19C124.34 26.8353 124.681 26.5413 125.035 26.308C125.399 26.0747 125.796 25.958 126.225 25.958C126.953 25.958 127.49 26.196 127.835 26.672C128.181 27.148 128.353 27.82 128.353 28.688V33H126.729V28.898C126.729 28.3287 126.641 27.9273 126.463 27.694C126.295 27.4607 126.034 27.344 125.679 27.344C125.25 27.344 124.769 27.6287 124.237 28.198V33H122.627V28.898C122.627 28.3287 122.539 27.9273 122.361 27.694C122.193 27.4607 121.927 27.344 121.563 27.344C121.134 27.344 120.653 27.6287 120.121 28.198V33H118.511ZM133.25 33.168C132.615 33.168 132.041 33.028 131.528 32.748C131.015 32.4587 130.609 32.048 130.31 31.516C130.011 30.9747 129.862 30.326 129.862 29.57C129.862 28.8233 130.011 28.1793 130.31 27.638C130.618 27.0967 131.015 26.6813 131.5 26.392C131.985 26.1027 132.494 25.958 133.026 25.958C133.651 25.958 134.174 26.098 134.594 26.378C135.014 26.6487 135.331 27.0313 135.546 27.526C135.761 28.0113 135.868 28.576 135.868 29.22C135.868 29.556 135.845 29.8173 135.798 30.004H131.43C131.505 30.6107 131.724 31.082 132.088 31.418C132.452 31.754 132.909 31.922 133.46 31.922C133.759 31.922 134.034 31.88 134.286 31.796C134.547 31.7027 134.804 31.5767 135.056 31.418L135.602 32.426C135.275 32.6407 134.911 32.818 134.51 32.958C134.109 33.098 133.689 33.168 133.25 33.168ZM131.416 28.912H134.468C134.468 28.38 134.351 27.9647 134.118 27.666C133.885 27.358 133.535 27.204 133.068 27.204C132.667 27.204 132.307 27.3533 131.99 27.652C131.682 27.9413 131.491 28.3613 131.416 28.912ZM137.406 33V26.126H138.736L138.848 27.05H138.904C139.212 26.7513 139.548 26.4947 139.912 26.28C140.276 26.0653 140.691 25.958 141.158 25.958C141.895 25.958 142.432 26.196 142.768 26.672C143.104 27.148 143.272 27.82 143.272 28.688V33H141.662V28.898C141.662 28.3287 141.578 27.9273 141.41 27.694C141.242 27.4607 140.966 27.344 140.584 27.344C140.285 27.344 140.019 27.4187 139.786 27.568C139.562 27.708 139.305 27.918 139.016 28.198V33H137.406ZM147.662 33.168C146.868 33.168 146.304 32.9393 145.968 32.482C145.641 32.0153 145.478 31.4133 145.478 30.676V27.4H144.498V26.196L145.562 26.126L145.758 24.25H147.102V26.126H148.852V27.4H147.102V30.676C147.102 31.4787 147.424 31.88 148.068 31.88C148.189 31.88 148.315 31.866 148.446 31.838C148.576 31.8007 148.688 31.7633 148.782 31.726L149.062 32.916C148.875 32.9813 148.66 33.0373 148.418 33.084C148.184 33.14 147.932 33.168 147.662 33.168ZM105.764 49.168C104.905 49.168 104.219 48.8507 103.706 48.216C103.193 47.5813 102.936 46.6993 102.936 45.57C102.936 44.8233 103.071 44.1793 103.342 43.638C103.622 43.0967 103.986 42.6813 104.434 42.392C104.882 42.1027 105.353 41.958 105.848 41.958C106.24 41.958 106.571 42.028 106.842 42.168C107.122 42.2987 107.393 42.4807 107.654 42.714L107.598 41.608V39.116H109.208V49H107.878L107.766 48.258H107.71C107.458 48.51 107.164 48.7247 106.828 48.902C106.492 49.0793 106.137 49.168 105.764 49.168ZM106.156 47.838C106.669 47.838 107.15 47.5813 107.598 47.068V43.862C107.365 43.6473 107.131 43.498 106.898 43.414C106.665 43.33 106.431 43.288 106.198 43.288C105.759 43.288 105.381 43.4887 105.064 43.89C104.756 44.282 104.602 44.8373 104.602 45.556C104.602 46.2933 104.737 46.858 105.008 47.25C105.279 47.642 105.661 47.838 106.156 47.838ZM114.198 49.168C113.564 49.168 112.99 49.028 112.476 48.748C111.963 48.4587 111.557 48.048 111.258 47.516C110.96 46.9747 110.81 46.326 110.81 45.57C110.81 44.8233 110.96 44.1793 111.258 43.638C111.566 43.0967 111.963 42.6813 112.448 42.392C112.934 42.1027 113.442 41.958 113.974 41.958C114.6 41.958 115.122 42.098 115.542 42.378C115.962 42.6487 116.28 43.0313 116.494 43.526C116.709 44.0113 116.816 44.576 116.816 45.22C116.816 45.556 116.793 45.8173 116.746 46.004H112.378C112.453 46.6107 112.672 47.082 113.036 47.418C113.4 47.754 113.858 47.922 114.408 47.922C114.707 47.922 114.982 47.88 115.234 47.796C115.496 47.7027 115.752 47.5767 116.004 47.418L116.55 48.426C116.224 48.6407 115.86 48.818 115.458 48.958C115.057 49.098 114.637 49.168 114.198 49.168ZM112.364 44.912H115.416C115.416 44.38 115.3 43.9647 115.066 43.666C114.833 43.358 114.483 43.204 114.016 43.204C113.615 43.204 113.256 43.3533 112.938 43.652C112.63 43.9413 112.439 44.3613 112.364 44.912ZM120.639 49.168C119.846 49.168 119.281 48.9393 118.945 48.482C118.619 48.0153 118.455 47.4133 118.455 46.676V43.4H117.475V42.196L118.539 42.126L118.735 40.25H120.079V42.126H121.829V43.4H120.079V46.676C120.079 47.4787 120.401 47.88 121.045 47.88C121.167 47.88 121.293 47.866 121.423 47.838C121.554 47.8007 121.666 47.7633 121.759 47.726L122.039 48.916C121.853 48.9813 121.638 49.0373 121.395 49.084C121.162 49.14 120.91 49.168 120.639 49.168ZM124.641 49.168C124.044 49.168 123.554 48.9813 123.171 48.608C122.798 48.2347 122.611 47.7493 122.611 47.152C122.611 46.4147 122.933 45.8453 123.577 45.444C124.221 45.0333 125.248 44.7533 126.657 44.604C126.648 44.24 126.55 43.9273 126.363 43.666C126.186 43.3953 125.864 43.26 125.397 43.26C125.061 43.26 124.73 43.3253 124.403 43.456C124.086 43.5867 123.773 43.7453 123.465 43.932L122.877 42.854C123.26 42.6113 123.689 42.4013 124.165 42.224C124.65 42.0467 125.164 41.958 125.705 41.958C126.564 41.958 127.203 42.2147 127.623 42.728C128.052 43.232 128.267 43.9647 128.267 44.926V49H126.937L126.825 48.244H126.769C126.461 48.5053 126.13 48.7247 125.775 48.902C125.43 49.0793 125.052 49.168 124.641 49.168ZM125.159 47.908C125.439 47.908 125.691 47.8427 125.915 47.712C126.148 47.572 126.396 47.3853 126.657 47.152V45.612C125.724 45.7333 125.075 45.9153 124.711 46.158C124.347 46.3913 124.165 46.6807 124.165 47.026C124.165 47.334 124.258 47.558 124.445 47.698C124.632 47.838 124.87 47.908 125.159 47.908ZM130.194 49V42.126H131.804V49H130.194ZM131.006 40.922C130.717 40.922 130.483 40.838 130.306 40.67C130.129 40.502 130.04 40.278 130.04 39.998C130.04 39.7273 130.129 39.508 130.306 39.34C130.483 39.172 130.717 39.088 131.006 39.088C131.295 39.088 131.529 39.172 131.706 39.34C131.883 39.508 131.972 39.7273 131.972 39.998C131.972 40.278 131.883 40.502 131.706 40.67C131.529 40.838 131.295 40.922 131.006 40.922ZM135.426 49.168C134.857 49.168 134.451 48.9953 134.208 48.65C133.975 48.3047 133.858 47.8333 133.858 47.236V39.116H135.468V47.32C135.468 47.516 135.505 47.656 135.58 47.74C135.655 47.8147 135.734 47.852 135.818 47.852C135.855 47.852 135.888 47.852 135.916 47.852C135.953 47.8427 136.005 47.8333 136.07 47.824L136.28 49.028C136.187 49.0653 136.065 49.098 135.916 49.126C135.776 49.154 135.613 49.168 135.426 49.168ZM139.577 49.168C139.11 49.168 138.643 49.0793 138.177 48.902C137.71 48.7153 137.309 48.4867 136.973 48.216L137.729 47.18C138.037 47.4133 138.345 47.6 138.653 47.74C138.961 47.88 139.287 47.95 139.633 47.95C140.006 47.95 140.281 47.8707 140.459 47.712C140.636 47.5533 140.725 47.3573 140.725 47.124C140.725 46.928 140.65 46.7693 140.501 46.648C140.361 46.5173 140.179 46.4053 139.955 46.312C139.731 46.2093 139.497 46.1113 139.255 46.018C138.956 45.906 138.657 45.7707 138.359 45.612C138.069 45.444 137.831 45.234 137.645 44.982C137.458 44.7207 137.365 44.3987 137.365 44.016C137.365 43.4093 137.589 42.9147 138.037 42.532C138.485 42.1493 139.091 41.958 139.857 41.958C140.342 41.958 140.776 42.042 141.159 42.21C141.541 42.378 141.873 42.5693 142.153 42.784L141.411 43.764C141.168 43.5867 140.921 43.4467 140.669 43.344C140.426 43.232 140.169 43.176 139.899 43.176C139.553 43.176 139.297 43.2507 139.129 43.4C138.961 43.54 138.877 43.7173 138.877 43.932C138.877 44.2027 139.017 44.408 139.297 44.548C139.577 44.688 139.903 44.8233 140.277 44.954C140.594 45.066 140.902 45.206 141.201 45.374C141.499 45.5327 141.747 45.7427 141.943 46.004C142.148 46.2653 142.251 46.6107 142.251 47.04C142.251 47.628 142.022 48.132 141.565 48.552C141.107 48.9627 140.445 49.168 139.577 49.168Z" fill="#002949"/>
<circle cx="27.8435" cy="5.84349" r="5.84349" fill="#31EE50"/>
<circle cx="122.843" cy="5.84349" r="5.84349" fill="#31EE50"/>
<circle cx="224.843" cy="5.84349" r="5.84349" fill="#31EE50"/>
<circle cx="320.843" cy="5.84349" r="5.84349" fill="#7E8295"/>
</svg>
