<svg width="38" height="38" viewBox="0 0 38 38" fill="none" xmlns="http://www.w3.org/2000/svg">
<g filter="url(#filter0_i_7547_4757)">
<circle cx="19" cy="19" r="19" fill="url(#paint0_linear_7547_4757)" fill-opacity="0.5"/>
</g>
<path d="M15.9562 12.125H23.0441C23.1179 12.125 23.1887 12.0941 23.2409 12.0392C23.2931 11.9842 23.3224 11.9097 23.3224 11.832C23.3224 11.7543 23.2931 11.6798 23.2409 11.6249C23.1887 11.5699 23.1179 11.5391 23.0441 11.5391H15.9562C15.8824 11.5391 15.8116 11.5699 15.7594 11.6249C15.7072 11.6798 15.6779 11.7543 15.6779 11.832C15.6779 11.9097 15.7072 11.9842 15.7594 12.0392C15.8116 12.0941 15.8824 12.125 15.9562 12.125ZM15.9562 15.6406H23.0441C23.1179 15.6406 23.1887 15.6098 23.2409 15.5548C23.2931 15.4999 23.3224 15.4254 23.3224 15.3477C23.3224 15.27 23.2931 15.1954 23.2409 15.1405C23.1887 15.0856 23.1179 15.0547 23.0441 15.0547H15.9562C15.8824 15.0547 15.8116 15.0856 15.7594 15.1405C15.7072 15.1954 15.6779 15.27 15.6779 15.3477C15.6779 15.4254 15.7072 15.4999 15.7594 15.5548C15.8116 15.6098 15.8824 15.6406 15.9562 15.6406ZM15.9562 13.8828H23.0441C23.1179 13.8828 23.1887 13.8519 23.2409 13.797C23.2931 13.7421 23.3224 13.6675 23.3224 13.5898C23.3224 13.5121 23.2931 13.4376 23.2409 13.3827C23.1887 13.3277 23.1179 13.2969 23.0441 13.2969H15.9562C15.8824 13.2969 15.8116 13.3277 15.7594 13.3827C15.7072 13.4376 15.6779 13.5121 15.6779 13.5898C15.6779 13.6675 15.7072 13.7421 15.7594 13.797C15.8116 13.8519 15.8824 13.8828 15.9562 13.8828ZM28.7556 12.7739L28.3621 12.3596C28.2055 12.1948 27.9931 12.1022 27.7716 12.1022C27.5502 12.1022 27.3378 12.1948 27.1812 12.3596L25.883 13.7262V10.4648C25.8826 10.0765 25.7358 9.70414 25.4749 9.42952C25.2141 9.1549 24.8603 9.00043 24.4914 9H14.509C14.14 9.00043 13.7863 9.1549 13.5254 9.42952C13.2645 9.70414 13.1178 10.0765 13.1174 10.4648V25.6797H11.6143C11.5404 25.6797 11.4697 25.7106 11.4175 25.7655C11.3653 25.8204 11.3359 25.895 11.3359 25.9727V27.5352C11.3364 27.9235 11.4831 28.2959 11.744 28.5705C12.0049 28.8451 12.3586 28.9996 12.7275 29H24.5283C24.5384 29 24.5485 28.9994 24.5585 28.9982C24.9154 28.9796 25.2519 28.8174 25.4984 28.5451C25.7449 28.2729 25.8826 27.9113 25.883 27.5352V17.0408L28.7556 14.017C28.912 13.852 28.9998 13.6285 28.9998 13.3955C28.9998 13.1624 28.912 12.9389 28.7556 12.7739ZM12.7275 28.4141C12.5062 28.4138 12.2939 28.3211 12.1374 28.1563C11.9809 27.9916 11.8928 27.7682 11.8926 27.5352V26.2656H22.9883V27.4766C22.9881 27.8166 23.0964 28.1467 23.296 28.4141H12.7275ZM25.3264 25.9689C25.3264 25.9702 25.3262 25.9714 25.3262 25.9727V27.4766C25.3262 27.7252 25.2323 27.9637 25.0653 28.1395C24.8983 28.3153 24.6718 28.4141 24.4355 28.4141C24.1993 28.4141 23.9728 28.3153 23.8058 28.1395C23.6388 27.9637 23.5449 27.7252 23.5449 27.4766V25.9727C23.5449 25.895 23.5156 25.8204 23.4634 25.7655C23.4112 25.7106 23.3404 25.6797 23.2666 25.6797C23.2603 25.6797 23.2542 25.6802 23.248 25.6807C23.2419 25.6803 23.2358 25.6797 23.2295 25.6797H13.674V10.4648C13.6743 10.2318 13.7623 10.0084 13.9188 9.84366C14.0754 9.67889 14.2876 9.58621 14.509 9.58594H24.4914C24.7128 9.58621 24.925 9.67889 25.0815 9.84366C25.2381 10.0084 25.3261 10.2318 25.3264 10.4648V14.3121L20.1678 19.7422H15.9562C15.8824 19.7422 15.8116 19.7731 15.7594 19.828C15.7072 19.8829 15.6779 19.9575 15.6779 20.0352C15.6779 20.1129 15.7072 20.1874 15.7594 20.2423C15.8116 20.2973 15.8824 20.3281 15.9562 20.3281H19.6111L18.5219 21.4747C18.5147 21.4824 18.5078 21.4905 18.5014 21.4989L18.5007 21.5H15.9562C15.8824 21.5 15.8116 21.5309 15.7594 21.5858C15.7072 21.6407 15.6779 21.7153 15.6779 21.793C15.6779 21.8707 15.7072 21.9452 15.7594 22.0001C15.8116 22.0551 15.8824 22.0859 15.9562 22.0859H18.2974L17.9263 23.2578H15.9562C15.8824 23.2578 15.8116 23.2887 15.7594 23.3436C15.7072 23.3986 15.6779 23.4731 15.6779 23.5508C15.6779 23.6285 15.7072 23.703 15.7594 23.7579C15.8116 23.8129 15.8824 23.8438 15.9562 23.8438H18.0344C18.0545 23.8437 18.0745 23.8414 18.0941 23.8368C18.1352 23.8426 18.177 23.8383 18.2163 23.8243L19.9875 23.2028C19.9894 23.2021 19.9911 23.2012 19.9928 23.2005C20.0094 23.1943 20.0254 23.1865 20.0405 23.1771C20.0431 23.1755 20.0458 23.174 20.0483 23.1723C20.0546 23.168 20.0608 23.1634 20.0669 23.1586C20.069 23.1568 20.0713 23.1553 20.0734 23.1535C20.0814 23.1468 20.0891 23.1396 20.0963 23.132L21.0901 22.0859H23.0441C23.1179 22.0859 23.1887 22.0551 23.2409 22.0001C23.2931 21.9452 23.3224 21.8707 23.3224 21.793C23.3224 21.7153 23.2931 21.6407 23.2409 21.5858C23.1887 21.5309 23.1179 21.5 23.0441 21.5H21.6468L25.3264 17.6268V25.9689ZM18.8403 22.2243L19.3843 22.7968L18.5684 23.0831L18.8403 22.2243ZM19.8996 22.5105L19.1124 21.6819L25.8009 14.6413L25.802 14.6401L26.5294 13.8744L27.3166 14.703L19.8996 22.5105ZM28.362 13.6027L27.7103 14.2887L26.9231 13.46L27.5749 12.7739C27.6007 12.7467 27.6314 12.7252 27.6652 12.7104C27.6989 12.6957 27.7351 12.6881 27.7717 12.6881C27.8082 12.6881 27.8444 12.6957 27.8782 12.7104C27.9119 12.7252 27.9426 12.7467 27.9684 12.7739L28.3621 13.1883C28.4142 13.2433 28.4435 13.3178 28.4435 13.3954C28.4435 13.4731 28.4142 13.5476 28.3621 13.6026L28.362 13.6027Z" fill="#002949"/>
<defs>
<filter id="filter0_i_7547_4757" x="0" y="0" width="38" height="42" filterUnits="userSpaceOnUse" color-interpolation-filters="sRGB">
<feFlood flood-opacity="0" result="BackgroundImageFix"/>
<feBlend mode="normal" in="SourceGraphic" in2="BackgroundImageFix" result="shape"/>
<feColorMatrix in="SourceAlpha" type="matrix" values="0 0 0 0 0 0 0 0 0 0 0 0 0 0 0 0 0 0 127 0" result="hardAlpha"/>
<feOffset dy="4"/>
<feGaussianBlur stdDeviation="2"/>
<feComposite in2="hardAlpha" operator="arithmetic" k2="-1" k3="1"/>
<feColorMatrix type="matrix" values="0 0 0 0 0 0 0 0 0 0 0 0 0 0 0 0 0 0 0.05 0"/>
<feBlend mode="normal" in2="shape" result="effect1_innerShadow_7547_4757"/>
</filter>
<linearGradient id="paint0_linear_7547_4757" x1="19" y1="0" x2="19" y2="38" gradientUnits="userSpaceOnUse">
<stop stop-color="#53CD23" stop-opacity="0.5"/>
<stop offset="1" stop-color="#53CD23" stop-opacity="0"/>
</linearGradient>
</defs>
</svg>
